G04 (created by PCBNEW-RS274X (2012-jan-04)-stable) date Sun 25 Mar 2012 06:17:03 PM CEST*
G01*
G70*
G90*
%MOIN*%
G04 Gerber Fmt 3.4, Leading zero omitted, Abs format*
%FSLAX34Y34*%
G04 APERTURE LIST*
%ADD10C,0.008000*%
%ADD11C,0.015000*%
%ADD12C,0.012000*%
%ADD13C,0.000100*%
%ADD14C,0.010000*%
%ADD15C,0.006000*%
%ADD16C,0.172000*%
%ADD17R,0.067000X0.067000*%
%ADD18C,0.067000*%
%ADD19R,0.072000X0.072000*%
%ADD20C,0.072000*%
%ADD21R,0.074000X0.102000*%
%ADD22O,0.074000X0.102000*%
%ADD23C,0.078000*%
G04 APERTURE END LIST*
G54D10*
X35325Y-15319D02*
X35325Y-14919D01*
X35478Y-14919D01*
X35516Y-14938D01*
X35535Y-14957D01*
X35554Y-14995D01*
X35554Y-15052D01*
X35535Y-15090D01*
X35516Y-15109D01*
X35478Y-15128D01*
X35325Y-15128D01*
X35859Y-15109D02*
X35916Y-15128D01*
X35935Y-15147D01*
X35954Y-15186D01*
X35954Y-15243D01*
X35935Y-15281D01*
X35916Y-15300D01*
X35878Y-15319D01*
X35725Y-15319D01*
X35725Y-14919D01*
X35859Y-14919D01*
X35897Y-14938D01*
X35916Y-14957D01*
X35935Y-14995D01*
X35935Y-15033D01*
X35916Y-15071D01*
X35897Y-15090D01*
X35859Y-15109D01*
X35725Y-15109D01*
X24050Y-22634D02*
X24069Y-22615D01*
X24107Y-22596D01*
X24203Y-22596D01*
X24241Y-22615D01*
X24260Y-22634D01*
X24279Y-22672D01*
X24279Y-22710D01*
X24260Y-22767D01*
X24031Y-22996D01*
X24279Y-22996D01*
X24526Y-22596D02*
X24565Y-22596D01*
X24603Y-22615D01*
X24622Y-22634D01*
X24641Y-22672D01*
X24660Y-22748D01*
X24660Y-22844D01*
X24641Y-22920D01*
X24622Y-22958D01*
X24603Y-22977D01*
X24565Y-22996D01*
X24526Y-22996D01*
X24488Y-22977D01*
X24469Y-22958D01*
X24450Y-22920D01*
X24431Y-22844D01*
X24431Y-22748D01*
X24450Y-22672D01*
X24469Y-22634D01*
X24488Y-22615D01*
X24526Y-22596D01*
X25041Y-22996D02*
X24812Y-22996D01*
X24926Y-22996D02*
X24926Y-22596D01*
X24888Y-22653D01*
X24850Y-22691D01*
X24812Y-22710D01*
X25193Y-22634D02*
X25212Y-22615D01*
X25250Y-22596D01*
X25346Y-22596D01*
X25384Y-22615D01*
X25403Y-22634D01*
X25422Y-22672D01*
X25422Y-22710D01*
X25403Y-22767D01*
X25174Y-22996D01*
X25422Y-22996D01*
X25898Y-22844D02*
X26203Y-22844D01*
X26698Y-22996D02*
X26698Y-22596D01*
X26698Y-22748D02*
X26736Y-22729D01*
X26813Y-22729D01*
X26851Y-22748D01*
X26870Y-22767D01*
X26889Y-22805D01*
X26889Y-22920D01*
X26870Y-22958D01*
X26851Y-22977D01*
X26813Y-22996D01*
X26736Y-22996D01*
X26698Y-22977D01*
X27117Y-22996D02*
X27079Y-22977D01*
X27060Y-22939D01*
X27060Y-22596D01*
X27327Y-22996D02*
X27289Y-22977D01*
X27270Y-22958D01*
X27251Y-22920D01*
X27251Y-22805D01*
X27270Y-22767D01*
X27289Y-22748D01*
X27327Y-22729D01*
X27385Y-22729D01*
X27423Y-22748D01*
X27442Y-22767D01*
X27461Y-22805D01*
X27461Y-22920D01*
X27442Y-22958D01*
X27423Y-22977D01*
X27385Y-22996D01*
X27327Y-22996D01*
X27804Y-22729D02*
X27804Y-23053D01*
X27785Y-23091D01*
X27766Y-23110D01*
X27727Y-23129D01*
X27670Y-23129D01*
X27632Y-23110D01*
X27804Y-22977D02*
X27766Y-22996D01*
X27689Y-22996D01*
X27651Y-22977D01*
X27632Y-22958D01*
X27613Y-22920D01*
X27613Y-22805D01*
X27632Y-22767D01*
X27651Y-22748D01*
X27689Y-22729D01*
X27766Y-22729D01*
X27804Y-22748D01*
X27994Y-22958D02*
X28013Y-22977D01*
X27994Y-22996D01*
X27975Y-22977D01*
X27994Y-22958D01*
X27994Y-22996D01*
X28165Y-22977D02*
X28203Y-22996D01*
X28279Y-22996D01*
X28318Y-22977D01*
X28337Y-22939D01*
X28337Y-22920D01*
X28318Y-22882D01*
X28279Y-22863D01*
X28222Y-22863D01*
X28184Y-22844D01*
X28165Y-22805D01*
X28165Y-22786D01*
X28184Y-22748D01*
X28222Y-22729D01*
X28279Y-22729D01*
X28318Y-22748D01*
X28508Y-22729D02*
X28508Y-23129D01*
X28508Y-22748D02*
X28546Y-22729D01*
X28623Y-22729D01*
X28661Y-22748D01*
X28680Y-22767D01*
X28699Y-22805D01*
X28699Y-22920D01*
X28680Y-22958D01*
X28661Y-22977D01*
X28623Y-22996D01*
X28546Y-22996D01*
X28508Y-22977D01*
X28870Y-22996D02*
X28870Y-22729D01*
X28870Y-22596D02*
X28851Y-22615D01*
X28870Y-22634D01*
X28889Y-22615D01*
X28870Y-22596D01*
X28870Y-22634D01*
X29003Y-22729D02*
X29155Y-22729D01*
X29060Y-22596D02*
X29060Y-22939D01*
X29079Y-22977D01*
X29117Y-22996D01*
X29155Y-22996D01*
X29251Y-22729D02*
X29461Y-22729D01*
X29251Y-22996D01*
X29461Y-22996D01*
X29766Y-22977D02*
X29728Y-22996D01*
X29651Y-22996D01*
X29613Y-22977D01*
X29594Y-22939D01*
X29594Y-22786D01*
X29613Y-22748D01*
X29651Y-22729D01*
X29728Y-22729D01*
X29766Y-22748D01*
X29785Y-22786D01*
X29785Y-22824D01*
X29594Y-22863D01*
X29956Y-22729D02*
X29956Y-22996D01*
X29956Y-22767D02*
X29975Y-22748D01*
X30013Y-22729D01*
X30071Y-22729D01*
X30109Y-22748D01*
X30128Y-22786D01*
X30128Y-22996D01*
X30318Y-22729D02*
X30318Y-23129D01*
X30318Y-22748D02*
X30356Y-22729D01*
X30433Y-22729D01*
X30471Y-22748D01*
X30490Y-22767D01*
X30509Y-22805D01*
X30509Y-22920D01*
X30490Y-22958D01*
X30471Y-22977D01*
X30433Y-22996D01*
X30356Y-22996D01*
X30318Y-22977D01*
X30623Y-22729D02*
X30775Y-22729D01*
X30680Y-22996D02*
X30680Y-22653D01*
X30699Y-22615D01*
X30737Y-22596D01*
X30775Y-22596D01*
X31062Y-22977D02*
X31024Y-22996D01*
X30947Y-22996D01*
X30909Y-22977D01*
X30890Y-22939D01*
X30890Y-22786D01*
X30909Y-22748D01*
X30947Y-22729D01*
X31024Y-22729D01*
X31062Y-22748D01*
X31081Y-22786D01*
X31081Y-22824D01*
X30890Y-22863D01*
X31252Y-22996D02*
X31252Y-22729D01*
X31252Y-22596D02*
X31233Y-22615D01*
X31252Y-22634D01*
X31271Y-22615D01*
X31252Y-22596D01*
X31252Y-22634D01*
X31499Y-22996D02*
X31461Y-22977D01*
X31442Y-22939D01*
X31442Y-22596D01*
X31652Y-22958D02*
X31671Y-22977D01*
X31652Y-22996D01*
X31633Y-22977D01*
X31652Y-22958D01*
X31652Y-22996D01*
X31899Y-22996D02*
X31861Y-22977D01*
X31842Y-22958D01*
X31823Y-22920D01*
X31823Y-22805D01*
X31842Y-22767D01*
X31861Y-22748D01*
X31899Y-22729D01*
X31957Y-22729D01*
X31995Y-22748D01*
X32014Y-22767D01*
X32033Y-22805D01*
X32033Y-22920D01*
X32014Y-22958D01*
X31995Y-22977D01*
X31957Y-22996D01*
X31899Y-22996D01*
X32204Y-22996D02*
X32204Y-22729D01*
X32204Y-22805D02*
X32223Y-22767D01*
X32242Y-22748D01*
X32280Y-22729D01*
X32319Y-22729D01*
X32624Y-22729D02*
X32624Y-23053D01*
X32605Y-23091D01*
X32586Y-23110D01*
X32547Y-23129D01*
X32490Y-23129D01*
X32452Y-23110D01*
X32624Y-22977D02*
X32586Y-22996D01*
X32509Y-22996D01*
X32471Y-22977D01*
X32452Y-22958D01*
X32433Y-22920D01*
X32433Y-22805D01*
X32452Y-22767D01*
X32471Y-22748D01*
X32509Y-22729D01*
X32586Y-22729D01*
X32624Y-22748D01*
X25326Y-13548D02*
X25326Y-13148D01*
X25745Y-13548D02*
X25611Y-13357D01*
X25516Y-13548D02*
X25516Y-13148D01*
X25669Y-13148D01*
X25707Y-13167D01*
X25726Y-13186D01*
X25745Y-13224D01*
X25745Y-13281D01*
X25726Y-13319D01*
X25707Y-13338D01*
X25669Y-13357D01*
X25516Y-13357D01*
X25821Y-13586D02*
X26126Y-13586D01*
X26221Y-13548D02*
X26221Y-13281D01*
X26221Y-13357D02*
X26240Y-13319D01*
X26259Y-13300D01*
X26297Y-13281D01*
X26336Y-13281D01*
X26641Y-13548D02*
X26641Y-13338D01*
X26622Y-13300D01*
X26584Y-13281D01*
X26507Y-13281D01*
X26469Y-13300D01*
X26641Y-13529D02*
X26603Y-13548D01*
X26507Y-13548D01*
X26469Y-13529D01*
X26450Y-13491D01*
X26450Y-13453D01*
X26469Y-13415D01*
X26507Y-13396D01*
X26603Y-13396D01*
X26641Y-13376D01*
X26793Y-13281D02*
X26869Y-13548D01*
X26946Y-13357D01*
X27022Y-13548D01*
X27098Y-13281D01*
X27155Y-13586D02*
X27460Y-13586D01*
X27555Y-13548D02*
X27555Y-13281D01*
X27555Y-13357D02*
X27574Y-13319D01*
X27593Y-13300D01*
X27631Y-13281D01*
X27670Y-13281D01*
X27956Y-13529D02*
X27918Y-13548D01*
X27841Y-13548D01*
X27803Y-13529D01*
X27784Y-13491D01*
X27784Y-13338D01*
X27803Y-13300D01*
X27841Y-13281D01*
X27918Y-13281D01*
X27956Y-13300D01*
X27975Y-13338D01*
X27975Y-13376D01*
X27784Y-13415D01*
X28318Y-13529D02*
X28280Y-13548D01*
X28203Y-13548D01*
X28165Y-13529D01*
X28146Y-13510D01*
X28127Y-13472D01*
X28127Y-13357D01*
X28146Y-13319D01*
X28165Y-13300D01*
X28203Y-13281D01*
X28280Y-13281D01*
X28318Y-13300D01*
X28642Y-13529D02*
X28604Y-13548D01*
X28527Y-13548D01*
X28489Y-13529D01*
X28470Y-13491D01*
X28470Y-13338D01*
X28489Y-13300D01*
X28527Y-13281D01*
X28604Y-13281D01*
X28642Y-13300D01*
X28661Y-13338D01*
X28661Y-13376D01*
X28470Y-13415D01*
X28832Y-13548D02*
X28832Y-13281D01*
X28832Y-13148D02*
X28813Y-13167D01*
X28832Y-13186D01*
X28851Y-13167D01*
X28832Y-13148D01*
X28832Y-13186D01*
X28984Y-13281D02*
X29079Y-13548D01*
X29175Y-13281D01*
X29480Y-13529D02*
X29442Y-13548D01*
X29365Y-13548D01*
X29327Y-13529D01*
X29308Y-13491D01*
X29308Y-13338D01*
X29327Y-13300D01*
X29365Y-13281D01*
X29442Y-13281D01*
X29480Y-13300D01*
X29499Y-13338D01*
X29499Y-13376D01*
X29308Y-13415D01*
X29670Y-13548D02*
X29670Y-13281D01*
X29670Y-13357D02*
X29689Y-13319D01*
X29708Y-13300D01*
X29746Y-13281D01*
X29785Y-13281D01*
X30433Y-13548D02*
X30204Y-13548D01*
X30318Y-13548D02*
X30318Y-13148D01*
X30280Y-13205D01*
X30242Y-13243D01*
X30204Y-13262D01*
X30604Y-13510D02*
X30623Y-13529D01*
X30604Y-13548D01*
X30585Y-13529D01*
X30604Y-13510D01*
X30604Y-13548D01*
X30870Y-13148D02*
X30909Y-13148D01*
X30947Y-13167D01*
X30966Y-13186D01*
X30985Y-13224D01*
X31004Y-13300D01*
X31004Y-13396D01*
X30985Y-13472D01*
X30966Y-13510D01*
X30947Y-13529D01*
X30909Y-13548D01*
X30870Y-13548D01*
X30832Y-13529D01*
X30813Y-13510D01*
X30794Y-13472D01*
X30775Y-13396D01*
X30775Y-13300D01*
X30794Y-13224D01*
X30813Y-13186D01*
X30832Y-13167D01*
X30870Y-13148D01*
X31251Y-13148D02*
X31290Y-13148D01*
X31328Y-13167D01*
X31347Y-13186D01*
X31366Y-13224D01*
X31385Y-13300D01*
X31385Y-13396D01*
X31366Y-13472D01*
X31347Y-13510D01*
X31328Y-13529D01*
X31290Y-13548D01*
X31251Y-13548D01*
X31213Y-13529D01*
X31194Y-13510D01*
X31175Y-13472D01*
X31156Y-13396D01*
X31156Y-13300D01*
X31175Y-13224D01*
X31194Y-13186D01*
X31213Y-13167D01*
X31251Y-13148D01*
X29677Y-20012D02*
X29639Y-19993D01*
X29620Y-19974D01*
X29601Y-19936D01*
X29601Y-19917D01*
X29620Y-19879D01*
X29639Y-19860D01*
X29677Y-19841D01*
X29754Y-19841D01*
X29792Y-19860D01*
X29811Y-19879D01*
X29830Y-19917D01*
X29830Y-19936D01*
X29811Y-19974D01*
X29792Y-19993D01*
X29754Y-20012D01*
X29677Y-20012D01*
X29639Y-20031D01*
X29620Y-20050D01*
X29601Y-20089D01*
X29601Y-20165D01*
X29620Y-20203D01*
X29639Y-20222D01*
X29677Y-20241D01*
X29754Y-20241D01*
X29792Y-20222D01*
X29811Y-20203D01*
X29830Y-20165D01*
X29830Y-20089D01*
X29811Y-20050D01*
X29792Y-20031D01*
X29754Y-20012D01*
X30001Y-20241D02*
X30001Y-19841D01*
X30135Y-20127D01*
X30268Y-19841D01*
X30268Y-20241D01*
X30458Y-20241D02*
X30458Y-19841D01*
X30458Y-20031D02*
X30687Y-20031D01*
X30687Y-20241D02*
X30687Y-19841D01*
X30839Y-19974D02*
X31049Y-19974D01*
X30839Y-20241D01*
X31049Y-20241D01*
G54D11*
X38976Y-12795D02*
X19684Y-12795D01*
X38976Y-23425D02*
X38976Y-12795D01*
X19684Y-23425D02*
X38976Y-23425D01*
X19684Y-12795D02*
X19684Y-23425D01*
G54D10*
X21108Y-19892D02*
X21413Y-19892D01*
X21261Y-20044D02*
X21261Y-19739D01*
X36296Y-15942D02*
X36315Y-15923D01*
X36353Y-15904D01*
X36449Y-15904D01*
X36487Y-15923D01*
X36506Y-15942D01*
X36525Y-15980D01*
X36525Y-16018D01*
X36506Y-16075D01*
X36277Y-16304D01*
X36525Y-16304D01*
X36525Y-17288D02*
X36296Y-17288D01*
X36410Y-17288D02*
X36410Y-16888D01*
X36372Y-16945D01*
X36334Y-16983D01*
X36296Y-17002D01*
X36391Y-17872D02*
X36430Y-17872D01*
X36468Y-17891D01*
X36487Y-17910D01*
X36506Y-17948D01*
X36525Y-18024D01*
X36525Y-18120D01*
X36506Y-18196D01*
X36487Y-18234D01*
X36468Y-18253D01*
X36430Y-18272D01*
X36391Y-18272D01*
X36353Y-18253D01*
X36334Y-18234D01*
X36315Y-18196D01*
X36296Y-18120D01*
X36296Y-18024D01*
X36315Y-17948D01*
X36334Y-17910D01*
X36353Y-17891D01*
X36391Y-17872D01*
X36427Y-19246D02*
X36427Y-18941D01*
X36265Y-20089D02*
X36570Y-20089D01*
X36418Y-20241D02*
X36418Y-19936D01*
X22682Y-16742D02*
X22987Y-16742D01*
X22835Y-16894D02*
X22835Y-16589D01*
G54D11*
X22637Y-14370D02*
X22610Y-14637D01*
X22533Y-14895D01*
X22406Y-15132D01*
X22236Y-15340D01*
X22029Y-15512D01*
X21792Y-15640D01*
X21536Y-15719D01*
X21268Y-15747D01*
X21001Y-15723D01*
X20743Y-15647D01*
X20505Y-15523D01*
X20295Y-15354D01*
X20122Y-15148D01*
X19993Y-14912D01*
X19912Y-14656D01*
X19882Y-14389D01*
X19904Y-14122D01*
X19978Y-13863D01*
X20101Y-13624D01*
X20268Y-13413D01*
X20473Y-13239D01*
X20708Y-13108D01*
X20964Y-13025D01*
X21231Y-12993D01*
X21498Y-13013D01*
X21757Y-13086D01*
X21997Y-13207D01*
X22209Y-13373D01*
X22385Y-13576D01*
X22517Y-13810D01*
X22602Y-14065D01*
X22636Y-14332D01*
X22637Y-14370D01*
X22159Y-14370D02*
X22141Y-14544D01*
X22091Y-14712D01*
X22008Y-14868D01*
X21897Y-15004D01*
X21762Y-15116D01*
X21607Y-15199D01*
X21439Y-15251D01*
X21265Y-15269D01*
X21091Y-15254D01*
X20922Y-15204D01*
X20767Y-15123D01*
X20630Y-15013D01*
X20517Y-14878D01*
X20432Y-14724D01*
X20379Y-14557D01*
X20360Y-14382D01*
X20374Y-14208D01*
X20423Y-14039D01*
X20503Y-13883D01*
X20612Y-13745D01*
X20746Y-13631D01*
X20899Y-13546D01*
X21066Y-13491D01*
X21241Y-13471D01*
X21415Y-13484D01*
X21584Y-13531D01*
X21741Y-13611D01*
X21879Y-13719D01*
X21994Y-13852D01*
X22081Y-14004D01*
X22136Y-14171D01*
X22158Y-14345D01*
X22159Y-14370D01*
G54D12*
X36130Y-20610D02*
X35130Y-20610D01*
X35130Y-20610D02*
X35130Y-15610D01*
X35130Y-15610D02*
X36130Y-15610D01*
X36130Y-15610D02*
X36130Y-20610D01*
X36130Y-19610D02*
X35130Y-19610D01*
G54D11*
X33661Y-16614D02*
X31693Y-16614D01*
X31693Y-19606D02*
X33661Y-19606D01*
X33661Y-19606D02*
X33661Y-16614D01*
X31693Y-16614D02*
X31693Y-19567D01*
X31693Y-19567D02*
X31693Y-19606D01*
X31457Y-16378D02*
X32677Y-16378D01*
X31457Y-16378D02*
X31457Y-17638D01*
X38779Y-21850D02*
X38752Y-22117D01*
X38675Y-22375D01*
X38548Y-22612D01*
X38378Y-22820D01*
X38171Y-22992D01*
X37934Y-23120D01*
X37678Y-23199D01*
X37410Y-23227D01*
X37143Y-23203D01*
X36885Y-23127D01*
X36647Y-23003D01*
X36437Y-22834D01*
X36264Y-22628D01*
X36135Y-22392D01*
X36054Y-22136D01*
X36024Y-21869D01*
X36046Y-21602D01*
X36120Y-21343D01*
X36243Y-21104D01*
X36410Y-20893D01*
X36615Y-20719D01*
X36850Y-20588D01*
X37106Y-20505D01*
X37373Y-20473D01*
X37640Y-20493D01*
X37899Y-20566D01*
X38139Y-20687D01*
X38351Y-20853D01*
X38527Y-21056D01*
X38659Y-21290D01*
X38744Y-21545D01*
X38778Y-21812D01*
X38779Y-21850D01*
X38301Y-21850D02*
X38283Y-22024D01*
X38233Y-22192D01*
X38150Y-22348D01*
X38039Y-22484D01*
X37904Y-22596D01*
X37749Y-22679D01*
X37581Y-22731D01*
X37407Y-22749D01*
X37233Y-22734D01*
X37064Y-22684D01*
X36909Y-22603D01*
X36772Y-22493D01*
X36659Y-22358D01*
X36574Y-22204D01*
X36521Y-22037D01*
X36502Y-21862D01*
X36516Y-21688D01*
X36565Y-21519D01*
X36645Y-21363D01*
X36754Y-21225D01*
X36888Y-21111D01*
X37041Y-21026D01*
X37208Y-20971D01*
X37383Y-20951D01*
X37557Y-20964D01*
X37726Y-21011D01*
X37883Y-21091D01*
X38021Y-21199D01*
X38136Y-21332D01*
X38223Y-21484D01*
X38278Y-21651D01*
X38300Y-21825D01*
X38301Y-21850D01*
X38779Y-14370D02*
X38752Y-14637D01*
X38675Y-14895D01*
X38548Y-15132D01*
X38378Y-15340D01*
X38171Y-15512D01*
X37934Y-15640D01*
X37678Y-15719D01*
X37410Y-15747D01*
X37143Y-15723D01*
X36885Y-15647D01*
X36647Y-15523D01*
X36437Y-15354D01*
X36264Y-15148D01*
X36135Y-14912D01*
X36054Y-14656D01*
X36024Y-14389D01*
X36046Y-14122D01*
X36120Y-13863D01*
X36243Y-13624D01*
X36410Y-13413D01*
X36615Y-13239D01*
X36850Y-13108D01*
X37106Y-13025D01*
X37373Y-12993D01*
X37640Y-13013D01*
X37899Y-13086D01*
X38139Y-13207D01*
X38351Y-13373D01*
X38527Y-13576D01*
X38659Y-13810D01*
X38744Y-14065D01*
X38778Y-14332D01*
X38779Y-14370D01*
X38301Y-14370D02*
X38283Y-14544D01*
X38233Y-14712D01*
X38150Y-14868D01*
X38039Y-15004D01*
X37904Y-15116D01*
X37749Y-15199D01*
X37581Y-15251D01*
X37407Y-15269D01*
X37233Y-15254D01*
X37064Y-15204D01*
X36909Y-15123D01*
X36772Y-15013D01*
X36659Y-14878D01*
X36574Y-14724D01*
X36521Y-14557D01*
X36502Y-14382D01*
X36516Y-14208D01*
X36565Y-14039D01*
X36645Y-13883D01*
X36754Y-13745D01*
X36888Y-13631D01*
X37041Y-13546D01*
X37208Y-13491D01*
X37383Y-13471D01*
X37557Y-13484D01*
X37726Y-13531D01*
X37883Y-13611D01*
X38021Y-13719D01*
X38136Y-13852D01*
X38223Y-14004D01*
X38278Y-14171D01*
X38300Y-14345D01*
X38301Y-14370D01*
X22637Y-21850D02*
X22610Y-22117D01*
X22533Y-22375D01*
X22406Y-22612D01*
X22236Y-22820D01*
X22029Y-22992D01*
X21792Y-23120D01*
X21536Y-23199D01*
X21268Y-23227D01*
X21001Y-23203D01*
X20743Y-23127D01*
X20505Y-23003D01*
X20295Y-22834D01*
X20122Y-22628D01*
X19993Y-22392D01*
X19912Y-22136D01*
X19882Y-21869D01*
X19904Y-21602D01*
X19978Y-21343D01*
X20101Y-21104D01*
X20268Y-20893D01*
X20473Y-20719D01*
X20708Y-20588D01*
X20964Y-20505D01*
X21231Y-20473D01*
X21498Y-20493D01*
X21757Y-20566D01*
X21997Y-20687D01*
X22209Y-20853D01*
X22385Y-21056D01*
X22517Y-21290D01*
X22602Y-21545D01*
X22636Y-21812D01*
X22637Y-21850D01*
X22159Y-21850D02*
X22141Y-22024D01*
X22091Y-22192D01*
X22008Y-22348D01*
X21897Y-22484D01*
X21762Y-22596D01*
X21607Y-22679D01*
X21439Y-22731D01*
X21265Y-22749D01*
X21091Y-22734D01*
X20922Y-22684D01*
X20767Y-22603D01*
X20630Y-22493D01*
X20517Y-22358D01*
X20432Y-22204D01*
X20379Y-22037D01*
X20360Y-21862D01*
X20374Y-21688D01*
X20423Y-21519D01*
X20503Y-21363D01*
X20612Y-21225D01*
X20746Y-21111D01*
X20899Y-21026D01*
X21066Y-20971D01*
X21241Y-20951D01*
X21415Y-20964D01*
X21584Y-21011D01*
X21741Y-21091D01*
X21879Y-21199D01*
X21994Y-21332D01*
X22081Y-21484D01*
X22136Y-21651D01*
X22158Y-21825D01*
X22159Y-21850D01*
G54D13*
G36*
X34899Y-22833D02*
X34916Y-22831D01*
X34932Y-22826D01*
X34939Y-22822D01*
X34953Y-22812D01*
X34964Y-22800D01*
X34973Y-22786D01*
X34979Y-22770D01*
X34981Y-22754D01*
X34981Y-22737D01*
X34977Y-22721D01*
X34969Y-22705D01*
X34964Y-22698D01*
X34957Y-22690D01*
X34950Y-22683D01*
X34942Y-22678D01*
X34940Y-22676D01*
X34926Y-22670D01*
X34911Y-22666D01*
X34894Y-22665D01*
X34888Y-22666D01*
X34879Y-22667D01*
X34871Y-22669D01*
X34862Y-22673D01*
X34852Y-22678D01*
X34838Y-22689D01*
X34827Y-22702D01*
X34819Y-22718D01*
X34816Y-22725D01*
X34814Y-22733D01*
X34813Y-22740D01*
X34813Y-22741D01*
X34813Y-22741D01*
X34812Y-22738D01*
X34812Y-22737D01*
X34810Y-22726D01*
X34806Y-22715D01*
X34801Y-22705D01*
X34791Y-22693D01*
X34778Y-22681D01*
X34764Y-22672D01*
X34747Y-22667D01*
X34729Y-22665D01*
X34725Y-22665D01*
X34711Y-22667D01*
X34699Y-22670D01*
X34696Y-22671D01*
X34682Y-22679D01*
X34669Y-22690D01*
X34659Y-22702D01*
X34651Y-22717D01*
X34646Y-22732D01*
X34646Y-22732D01*
X34645Y-22736D01*
X34645Y-22738D01*
X34645Y-22738D01*
X34645Y-22736D01*
X34644Y-22732D01*
X34643Y-22730D01*
X34638Y-22715D01*
X34630Y-22701D01*
X34619Y-22688D01*
X34609Y-22680D01*
X34595Y-22672D01*
X34579Y-22667D01*
X34561Y-22665D01*
X34548Y-22666D01*
X34531Y-22670D01*
X34516Y-22678D01*
X34503Y-22689D01*
X34491Y-22702D01*
X34490Y-22704D01*
X34486Y-22710D01*
X34484Y-22715D01*
X34482Y-22719D01*
X34480Y-22727D01*
X34478Y-22734D01*
X34477Y-22740D01*
X34477Y-22741D01*
X34477Y-22741D01*
X34476Y-22737D01*
X34474Y-22728D01*
X34470Y-22716D01*
X34465Y-22706D01*
X34455Y-22693D01*
X34442Y-22681D01*
X34427Y-22672D01*
X34411Y-22667D01*
X34393Y-22665D01*
X34377Y-22666D01*
X34361Y-22671D01*
X34346Y-22679D01*
X34332Y-22691D01*
X34326Y-22698D01*
X34319Y-22707D01*
X34314Y-22718D01*
X34311Y-22727D01*
X34309Y-22744D01*
X34309Y-22760D01*
X34313Y-22776D01*
X34319Y-22791D01*
X34329Y-22804D01*
X34340Y-22815D01*
X34354Y-22824D01*
X34369Y-22830D01*
X34386Y-22833D01*
X34388Y-22833D01*
X34405Y-22832D01*
X34421Y-22829D01*
X34437Y-22821D01*
X34442Y-22818D01*
X34453Y-22808D01*
X34463Y-22796D01*
X34470Y-22783D01*
X34472Y-22778D01*
X34474Y-22771D01*
X34476Y-22764D01*
X34477Y-22758D01*
X34477Y-22755D01*
X34477Y-22758D01*
X34478Y-22761D01*
X34479Y-22768D01*
X34482Y-22777D01*
X34484Y-22784D01*
X34488Y-22791D01*
X34499Y-22805D01*
X34511Y-22817D01*
X34526Y-22826D01*
X34543Y-22832D01*
X34546Y-22832D01*
X34558Y-22833D01*
X34570Y-22833D01*
X34581Y-22831D01*
X34592Y-22828D01*
X34608Y-22819D01*
X34622Y-22808D01*
X34623Y-22807D01*
X34632Y-22795D01*
X34639Y-22781D01*
X34644Y-22767D01*
X34644Y-22766D01*
X34645Y-22762D01*
X34645Y-22760D01*
X34645Y-22761D01*
X34646Y-22765D01*
X34646Y-22766D01*
X34648Y-22775D01*
X34652Y-22784D01*
X34657Y-22794D01*
X34665Y-22804D01*
X34677Y-22816D01*
X34692Y-22825D01*
X34709Y-22831D01*
X34712Y-22832D01*
X34723Y-22833D01*
X34735Y-22833D01*
X34746Y-22832D01*
X34756Y-22829D01*
X34771Y-22822D01*
X34785Y-22811D01*
X34797Y-22799D01*
X34806Y-22784D01*
X34808Y-22779D01*
X34810Y-22771D01*
X34812Y-22764D01*
X34813Y-22758D01*
X34813Y-22757D01*
X34813Y-22757D01*
X34814Y-22761D01*
X34814Y-22761D01*
X34816Y-22772D01*
X34820Y-22783D01*
X34825Y-22793D01*
X34828Y-22796D01*
X34838Y-22809D01*
X34852Y-22820D01*
X34866Y-22828D01*
X34882Y-22832D01*
X34899Y-22833D01*
X34899Y-22833D01*
G37*
G36*
X34219Y-22665D02*
X34229Y-22665D01*
X34239Y-22664D01*
X34250Y-22661D01*
X34266Y-22654D01*
X34280Y-22644D01*
X34292Y-22631D01*
X34300Y-22617D01*
X34306Y-22601D01*
X34308Y-22583D01*
X34307Y-22566D01*
X34303Y-22550D01*
X34295Y-22535D01*
X34285Y-22522D01*
X34271Y-22511D01*
X34267Y-22508D01*
X34251Y-22500D01*
X34234Y-22497D01*
X34216Y-22497D01*
X34199Y-22500D01*
X34185Y-22506D01*
X34170Y-22516D01*
X34158Y-22528D01*
X34149Y-22543D01*
X34142Y-22560D01*
X34141Y-22568D01*
X34140Y-22579D01*
X34140Y-22590D01*
X34142Y-22599D01*
X34143Y-22602D01*
X34149Y-22619D01*
X34159Y-22634D01*
X34172Y-22647D01*
X34187Y-22656D01*
X34194Y-22659D01*
X34204Y-22663D01*
X34213Y-22664D01*
X34219Y-22665D01*
X34219Y-22665D01*
G37*
G36*
X35068Y-22665D02*
X35085Y-22663D01*
X35102Y-22657D01*
X35117Y-22647D01*
X35121Y-22645D01*
X35132Y-22632D01*
X35142Y-22618D01*
X35148Y-22601D01*
X35149Y-22593D01*
X35150Y-22582D01*
X35150Y-22571D01*
X35148Y-22562D01*
X35147Y-22558D01*
X35140Y-22541D01*
X35131Y-22527D01*
X35119Y-22515D01*
X35104Y-22506D01*
X35088Y-22499D01*
X35070Y-22496D01*
X35064Y-22496D01*
X35047Y-22498D01*
X35031Y-22504D01*
X35017Y-22512D01*
X35005Y-22523D01*
X34995Y-22536D01*
X34987Y-22551D01*
X34983Y-22567D01*
X34982Y-22584D01*
X34983Y-22595D01*
X34985Y-22604D01*
X34988Y-22614D01*
X34995Y-22627D01*
X35006Y-22640D01*
X35019Y-22651D01*
X35034Y-22659D01*
X35050Y-22664D01*
X35068Y-22665D01*
X35068Y-22665D01*
G37*
G36*
X34051Y-22496D02*
X34063Y-22496D01*
X34073Y-22495D01*
X34085Y-22491D01*
X34101Y-22483D01*
X34115Y-22472D01*
X34124Y-22461D01*
X34133Y-22447D01*
X34138Y-22430D01*
X34139Y-22423D01*
X34140Y-22413D01*
X34139Y-22403D01*
X34138Y-22395D01*
X34137Y-22389D01*
X34130Y-22373D01*
X34121Y-22358D01*
X34108Y-22346D01*
X34093Y-22337D01*
X34087Y-22334D01*
X34076Y-22330D01*
X34065Y-22328D01*
X34053Y-22328D01*
X34045Y-22329D01*
X34036Y-22330D01*
X34027Y-22332D01*
X34018Y-22337D01*
X34013Y-22339D01*
X33999Y-22350D01*
X33987Y-22363D01*
X33978Y-22378D01*
X33973Y-22395D01*
X33972Y-22399D01*
X33971Y-22409D01*
X33972Y-22420D01*
X33973Y-22429D01*
X33974Y-22435D01*
X33981Y-22451D01*
X33990Y-22466D01*
X34003Y-22478D01*
X34018Y-22487D01*
X34035Y-22494D01*
X34040Y-22495D01*
X34051Y-22496D01*
X34051Y-22496D01*
G37*
G36*
X34727Y-22496D02*
X34744Y-22495D01*
X34760Y-22491D01*
X34769Y-22486D01*
X34783Y-22476D01*
X34795Y-22464D01*
X34805Y-22449D01*
X34810Y-22432D01*
X34811Y-22429D01*
X34813Y-22415D01*
X34813Y-22402D01*
X34809Y-22388D01*
X34803Y-22371D01*
X34793Y-22357D01*
X34780Y-22345D01*
X34765Y-22336D01*
X34748Y-22330D01*
X34737Y-22327D01*
X34743Y-22327D01*
X34744Y-22326D01*
X34756Y-22323D01*
X34769Y-22318D01*
X34780Y-22310D01*
X34782Y-22308D01*
X34795Y-22296D01*
X34804Y-22282D01*
X34810Y-22266D01*
X34813Y-22250D01*
X34812Y-22234D01*
X34809Y-22217D01*
X34801Y-22202D01*
X34801Y-22201D01*
X34791Y-22187D01*
X34778Y-22176D01*
X34764Y-22168D01*
X34748Y-22163D01*
X34732Y-22160D01*
X34716Y-22161D01*
X34700Y-22165D01*
X34685Y-22173D01*
X34671Y-22183D01*
X34663Y-22191D01*
X34655Y-22204D01*
X34649Y-22217D01*
X34646Y-22229D01*
X34645Y-22232D01*
X34645Y-22234D01*
X34645Y-22233D01*
X34644Y-22229D01*
X34641Y-22218D01*
X34636Y-22206D01*
X34629Y-22195D01*
X34625Y-22189D01*
X34612Y-22177D01*
X34598Y-22168D01*
X34581Y-22163D01*
X34564Y-22160D01*
X34547Y-22161D01*
X34537Y-22164D01*
X34520Y-22171D01*
X34506Y-22181D01*
X34494Y-22193D01*
X34485Y-22208D01*
X34479Y-22224D01*
X34478Y-22233D01*
X34477Y-22249D01*
X34480Y-22266D01*
X34486Y-22282D01*
X34496Y-22296D01*
X34508Y-22308D01*
X34523Y-22318D01*
X34529Y-22321D01*
X34537Y-22324D01*
X34544Y-22326D01*
X34550Y-22327D01*
X34551Y-22327D01*
X34550Y-22328D01*
X34547Y-22329D01*
X34538Y-22331D01*
X34527Y-22335D01*
X34517Y-22340D01*
X34512Y-22343D01*
X34501Y-22353D01*
X34491Y-22365D01*
X34484Y-22378D01*
X34479Y-22392D01*
X34477Y-22407D01*
X34477Y-22422D01*
X34478Y-22425D01*
X34483Y-22442D01*
X34490Y-22458D01*
X34502Y-22472D01*
X34511Y-22480D01*
X34526Y-22489D01*
X34543Y-22495D01*
X34550Y-22495D01*
X34559Y-22496D01*
X34568Y-22495D01*
X34577Y-22495D01*
X34584Y-22493D01*
X34590Y-22492D01*
X34606Y-22483D01*
X34620Y-22472D01*
X34631Y-22459D01*
X34635Y-22452D01*
X34641Y-22441D01*
X34644Y-22430D01*
X34644Y-22429D01*
X34645Y-22425D01*
X34645Y-22423D01*
X34645Y-22423D01*
X34645Y-22401D01*
X34645Y-22401D01*
X34645Y-22399D01*
X34644Y-22395D01*
X34644Y-22393D01*
X34639Y-22378D01*
X34630Y-22364D01*
X34620Y-22352D01*
X34607Y-22341D01*
X34593Y-22334D01*
X34592Y-22333D01*
X34584Y-22331D01*
X34577Y-22329D01*
X34570Y-22328D01*
X34577Y-22326D01*
X34587Y-22324D01*
X34602Y-22317D01*
X34616Y-22308D01*
X34627Y-22296D01*
X34636Y-22282D01*
X34640Y-22275D01*
X34643Y-22266D01*
X34644Y-22259D01*
X34645Y-22256D01*
X34645Y-22254D01*
X34645Y-22255D01*
X34646Y-22259D01*
X34647Y-22265D01*
X34650Y-22274D01*
X34654Y-22282D01*
X34659Y-22291D01*
X34670Y-22303D01*
X34683Y-22314D01*
X34698Y-22322D01*
X34713Y-22326D01*
X34721Y-22328D01*
X34713Y-22329D01*
X34712Y-22329D01*
X34705Y-22331D01*
X34697Y-22334D01*
X34696Y-22334D01*
X34682Y-22342D01*
X34669Y-22353D01*
X34659Y-22365D01*
X34651Y-22380D01*
X34646Y-22394D01*
X34646Y-22395D01*
X34645Y-22399D01*
X34645Y-22401D01*
X34645Y-22423D01*
X34645Y-22423D01*
X34645Y-22425D01*
X34646Y-22430D01*
X34649Y-22440D01*
X34656Y-22455D01*
X34667Y-22469D01*
X34679Y-22480D01*
X34694Y-22489D01*
X34694Y-22489D01*
X34710Y-22494D01*
X34727Y-22496D01*
X34727Y-22496D01*
G37*
G36*
X35228Y-22496D02*
X35242Y-22496D01*
X35254Y-22494D01*
X35262Y-22492D01*
X35278Y-22484D01*
X35292Y-22474D01*
X35303Y-22461D01*
X35312Y-22446D01*
X35317Y-22430D01*
X35319Y-22412D01*
X35318Y-22405D01*
X35315Y-22388D01*
X35308Y-22371D01*
X35298Y-22356D01*
X35295Y-22353D01*
X35283Y-22343D01*
X35269Y-22335D01*
X35254Y-22330D01*
X35254Y-22330D01*
X35241Y-22328D01*
X35227Y-22328D01*
X35215Y-22330D01*
X35210Y-22331D01*
X35194Y-22338D01*
X35180Y-22347D01*
X35169Y-22359D01*
X35160Y-22373D01*
X35153Y-22388D01*
X35150Y-22405D01*
X35151Y-22422D01*
X35154Y-22439D01*
X35160Y-22452D01*
X35170Y-22466D01*
X35182Y-22478D01*
X35197Y-22487D01*
X35213Y-22494D01*
X35215Y-22494D01*
X35228Y-22496D01*
X35228Y-22496D01*
G37*
G36*
X34395Y-21992D02*
X34412Y-21990D01*
X34428Y-21984D01*
X34436Y-21980D01*
X34443Y-21975D01*
X34451Y-21968D01*
X34460Y-21958D01*
X34469Y-21944D01*
X34475Y-21928D01*
X34476Y-21923D01*
X34477Y-21912D01*
X34477Y-21900D01*
X34475Y-21890D01*
X34471Y-21876D01*
X34463Y-21861D01*
X34453Y-21848D01*
X34451Y-21846D01*
X34443Y-21840D01*
X34434Y-21834D01*
X34426Y-21830D01*
X34423Y-21829D01*
X34416Y-21826D01*
X34409Y-21825D01*
X34404Y-21824D01*
X34401Y-21824D01*
X34404Y-21823D01*
X34408Y-21822D01*
X34414Y-21821D01*
X34420Y-21819D01*
X34432Y-21813D01*
X34445Y-21805D01*
X34455Y-21796D01*
X34456Y-21794D01*
X34467Y-21780D01*
X34473Y-21764D01*
X34477Y-21747D01*
X34477Y-21730D01*
X34476Y-21726D01*
X34471Y-21709D01*
X34463Y-21693D01*
X34452Y-21679D01*
X34442Y-21670D01*
X34427Y-21662D01*
X34411Y-21656D01*
X34407Y-21656D01*
X34396Y-21655D01*
X34384Y-21655D01*
X34373Y-21657D01*
X34364Y-21660D01*
X34348Y-21667D01*
X34335Y-21678D01*
X34324Y-21690D01*
X34315Y-21705D01*
X34310Y-21721D01*
X34310Y-21723D01*
X34309Y-21727D01*
X34308Y-21729D01*
X34308Y-21727D01*
X34307Y-21723D01*
X34305Y-21716D01*
X34303Y-21709D01*
X34300Y-21702D01*
X34297Y-21697D01*
X34287Y-21683D01*
X34274Y-21671D01*
X34259Y-21662D01*
X34243Y-21657D01*
X34225Y-21655D01*
X34211Y-21656D01*
X34195Y-21660D01*
X34180Y-21667D01*
X34171Y-21673D01*
X34159Y-21685D01*
X34150Y-21700D01*
X34143Y-21715D01*
X34140Y-21732D01*
X34140Y-21749D01*
X34144Y-21764D01*
X34151Y-21781D01*
X34161Y-21795D01*
X34174Y-21806D01*
X34189Y-21815D01*
X34206Y-21821D01*
X34216Y-21824D01*
X34210Y-21824D01*
X34207Y-21825D01*
X34193Y-21829D01*
X34180Y-21836D01*
X34168Y-21845D01*
X34158Y-21855D01*
X34152Y-21864D01*
X34146Y-21876D01*
X34142Y-21887D01*
X34141Y-21896D01*
X34140Y-21906D01*
X34140Y-21917D01*
X34142Y-21926D01*
X34145Y-21936D01*
X34153Y-21952D01*
X34163Y-21966D01*
X34177Y-21977D01*
X34192Y-21985D01*
X34210Y-21991D01*
X34214Y-21991D01*
X34225Y-21992D01*
X34236Y-21991D01*
X34245Y-21989D01*
X34252Y-21987D01*
X34268Y-21979D01*
X34282Y-21969D01*
X34293Y-21956D01*
X34302Y-21941D01*
X34307Y-21924D01*
X34307Y-21923D01*
X34308Y-21919D01*
X34309Y-21919D01*
X34309Y-21896D01*
X34308Y-21895D01*
X34307Y-21892D01*
X34307Y-21891D01*
X34304Y-21880D01*
X34299Y-21868D01*
X34292Y-21857D01*
X34287Y-21851D01*
X34274Y-21839D01*
X34258Y-21830D01*
X34241Y-21825D01*
X34233Y-21823D01*
X34239Y-21822D01*
X34244Y-21821D01*
X34249Y-21819D01*
X34253Y-21818D01*
X34268Y-21811D01*
X34282Y-21800D01*
X34293Y-21788D01*
X34301Y-21773D01*
X34307Y-21757D01*
X34307Y-21753D01*
X34308Y-21750D01*
X34309Y-21752D01*
X34310Y-21757D01*
X34310Y-21757D01*
X34313Y-21766D01*
X34317Y-21776D01*
X34322Y-21785D01*
X34327Y-21791D01*
X34334Y-21799D01*
X34343Y-21807D01*
X34351Y-21812D01*
X34351Y-21812D01*
X34364Y-21818D01*
X34378Y-21822D01*
X34384Y-21823D01*
X34377Y-21824D01*
X34362Y-21829D01*
X34347Y-21837D01*
X34334Y-21847D01*
X34323Y-21860D01*
X34320Y-21864D01*
X34316Y-21872D01*
X34313Y-21881D01*
X34310Y-21889D01*
X34309Y-21894D01*
X34309Y-21894D01*
X34309Y-21896D01*
X34309Y-21919D01*
X34309Y-21919D01*
X34310Y-21923D01*
X34311Y-21928D01*
X34312Y-21933D01*
X34316Y-21942D01*
X34324Y-21957D01*
X34335Y-21969D01*
X34348Y-21979D01*
X34363Y-21986D01*
X34379Y-21991D01*
X34395Y-21992D01*
X34395Y-21992D01*
G37*
G36*
X34902Y-21992D02*
X34918Y-21989D01*
X34934Y-21983D01*
X34948Y-21974D01*
X34961Y-21963D01*
X34970Y-21949D01*
X34978Y-21933D01*
X34979Y-21928D01*
X34980Y-21923D01*
X34980Y-21922D01*
X34981Y-21919D01*
X34981Y-21919D01*
X34981Y-21896D01*
X34981Y-21893D01*
X34979Y-21887D01*
X34976Y-21878D01*
X34969Y-21863D01*
X34958Y-21849D01*
X34946Y-21838D01*
X34931Y-21830D01*
X34914Y-21825D01*
X34906Y-21823D01*
X34912Y-21822D01*
X34913Y-21822D01*
X34926Y-21818D01*
X34939Y-21812D01*
X34945Y-21809D01*
X34953Y-21802D01*
X34961Y-21793D01*
X34968Y-21785D01*
X34972Y-21778D01*
X34977Y-21767D01*
X34980Y-21757D01*
X34981Y-21753D01*
X34981Y-21750D01*
X34982Y-21752D01*
X34983Y-21757D01*
X34987Y-21768D01*
X34994Y-21783D01*
X35005Y-21797D01*
X35018Y-21808D01*
X35034Y-21817D01*
X35051Y-21822D01*
X35057Y-21823D01*
X35049Y-21825D01*
X35041Y-21827D01*
X35025Y-21834D01*
X35010Y-21844D01*
X34998Y-21857D01*
X34995Y-21862D01*
X34990Y-21870D01*
X34987Y-21879D01*
X34985Y-21885D01*
X34983Y-21891D01*
X34983Y-21891D01*
X34982Y-21895D01*
X34981Y-21896D01*
X34981Y-21919D01*
X34982Y-21920D01*
X34983Y-21924D01*
X34984Y-21930D01*
X34989Y-21942D01*
X34996Y-21954D01*
X35001Y-21961D01*
X35013Y-21973D01*
X35028Y-21983D01*
X35045Y-21989D01*
X35053Y-21991D01*
X35064Y-21991D01*
X35076Y-21991D01*
X35087Y-21989D01*
X35088Y-21989D01*
X35105Y-21982D01*
X35119Y-21972D01*
X35132Y-21960D01*
X35141Y-21945D01*
X35148Y-21928D01*
X35149Y-21921D01*
X35150Y-21909D01*
X35149Y-21897D01*
X35148Y-21887D01*
X35145Y-21878D01*
X35139Y-21866D01*
X35132Y-21855D01*
X35124Y-21847D01*
X35114Y-21838D01*
X35103Y-21832D01*
X35099Y-21830D01*
X35091Y-21827D01*
X35083Y-21825D01*
X35077Y-21824D01*
X35077Y-21824D01*
X35079Y-21823D01*
X35084Y-21821D01*
X35093Y-21818D01*
X35104Y-21814D01*
X35114Y-21809D01*
X35115Y-21807D01*
X35126Y-21797D01*
X35136Y-21785D01*
X35143Y-21773D01*
X35146Y-21767D01*
X35149Y-21750D01*
X35150Y-21732D01*
X35147Y-21715D01*
X35146Y-21712D01*
X35139Y-21696D01*
X35128Y-21682D01*
X35115Y-21671D01*
X35100Y-21662D01*
X35084Y-21656D01*
X35081Y-21656D01*
X35070Y-21655D01*
X35057Y-21655D01*
X35046Y-21657D01*
X35044Y-21657D01*
X35027Y-21664D01*
X35012Y-21674D01*
X35000Y-21686D01*
X34990Y-21702D01*
X34988Y-21707D01*
X34985Y-21714D01*
X34983Y-21721D01*
X34982Y-21727D01*
X34982Y-21728D01*
X34982Y-21729D01*
X34981Y-21726D01*
X34980Y-21722D01*
X34977Y-21710D01*
X34970Y-21695D01*
X34959Y-21682D01*
X34947Y-21671D01*
X34932Y-21662D01*
X34932Y-21662D01*
X34916Y-21657D01*
X34899Y-21655D01*
X34882Y-21656D01*
X34866Y-21660D01*
X34857Y-21665D01*
X34843Y-21675D01*
X34831Y-21687D01*
X34821Y-21702D01*
X34816Y-21718D01*
X34815Y-21722D01*
X34813Y-21736D01*
X34813Y-21749D01*
X34817Y-21764D01*
X34824Y-21780D01*
X34834Y-21795D01*
X34847Y-21806D01*
X34862Y-21815D01*
X34879Y-21821D01*
X34883Y-21822D01*
X34886Y-21823D01*
X34886Y-21824D01*
X34881Y-21824D01*
X34871Y-21827D01*
X34861Y-21832D01*
X34851Y-21837D01*
X34841Y-21844D01*
X34830Y-21857D01*
X34821Y-21873D01*
X34819Y-21875D01*
X34814Y-21892D01*
X34813Y-21909D01*
X34815Y-21926D01*
X34821Y-21942D01*
X34824Y-21950D01*
X34830Y-21958D01*
X34837Y-21966D01*
X34837Y-21966D01*
X34851Y-21978D01*
X34866Y-21986D01*
X34883Y-21991D01*
X34885Y-21991D01*
X34902Y-21992D01*
X34902Y-21992D01*
G37*
G36*
X34247Y-14566D02*
X34254Y-14562D01*
X34269Y-14553D01*
X34291Y-14538D01*
X34317Y-14521D01*
X34343Y-14503D01*
X34365Y-14489D01*
X34380Y-14479D01*
X34386Y-14476D01*
X34389Y-14477D01*
X34402Y-14483D01*
X34419Y-14492D01*
X34430Y-14498D01*
X34446Y-14505D01*
X34455Y-14506D01*
X34456Y-14504D01*
X34462Y-14492D01*
X34471Y-14470D01*
X34484Y-14442D01*
X34498Y-14408D01*
X34513Y-14372D01*
X34529Y-14336D01*
X34543Y-14301D01*
X34556Y-14269D01*
X34566Y-14243D01*
X34573Y-14226D01*
X34576Y-14218D01*
X34575Y-14216D01*
X34567Y-14208D01*
X34552Y-14198D01*
X34521Y-14172D01*
X34490Y-14134D01*
X34472Y-14091D01*
X34465Y-14042D01*
X34471Y-13997D01*
X34488Y-13955D01*
X34518Y-13916D01*
X34555Y-13887D01*
X34597Y-13869D01*
X34645Y-13863D01*
X34690Y-13868D01*
X34734Y-13886D01*
X34773Y-13915D01*
X34790Y-13934D01*
X34812Y-13973D01*
X34825Y-14015D01*
X34826Y-14026D01*
X34824Y-14072D01*
X34811Y-14116D01*
X34786Y-14155D01*
X34753Y-14188D01*
X34748Y-14191D01*
X34733Y-14203D01*
X34722Y-14211D01*
X34714Y-14217D01*
X34773Y-14359D01*
X34782Y-14381D01*
X34798Y-14420D01*
X34812Y-14453D01*
X34824Y-14480D01*
X34832Y-14498D01*
X34835Y-14505D01*
X34835Y-14505D01*
X34841Y-14506D01*
X34851Y-14502D01*
X34871Y-14493D01*
X34884Y-14486D01*
X34899Y-14479D01*
X34906Y-14476D01*
X34912Y-14479D01*
X34926Y-14488D01*
X34947Y-14502D01*
X34973Y-14520D01*
X34997Y-14536D01*
X35019Y-14551D01*
X35035Y-14561D01*
X35043Y-14565D01*
X35044Y-14565D01*
X35051Y-14561D01*
X35064Y-14551D01*
X35083Y-14533D01*
X35110Y-14506D01*
X35114Y-14501D01*
X35137Y-14479D01*
X35155Y-14460D01*
X35167Y-14446D01*
X35172Y-14440D01*
X35172Y-14440D01*
X35168Y-14432D01*
X35157Y-14416D01*
X35143Y-14393D01*
X35125Y-14367D01*
X35078Y-14299D01*
X35104Y-14235D01*
X35112Y-14215D01*
X35122Y-14191D01*
X35129Y-14174D01*
X35133Y-14167D01*
X35140Y-14164D01*
X35157Y-14160D01*
X35183Y-14155D01*
X35213Y-14149D01*
X35242Y-14144D01*
X35268Y-14139D01*
X35287Y-14135D01*
X35296Y-14134D01*
X35298Y-14132D01*
X35300Y-14128D01*
X35301Y-14119D01*
X35301Y-14103D01*
X35302Y-14078D01*
X35302Y-14042D01*
X35302Y-14038D01*
X35301Y-14004D01*
X35301Y-13976D01*
X35300Y-13959D01*
X35299Y-13952D01*
X35299Y-13952D01*
X35290Y-13950D01*
X35272Y-13946D01*
X35246Y-13941D01*
X35215Y-13935D01*
X35213Y-13934D01*
X35182Y-13928D01*
X35155Y-13923D01*
X35137Y-13919D01*
X35130Y-13916D01*
X35128Y-13914D01*
X35122Y-13902D01*
X35113Y-13883D01*
X35102Y-13859D01*
X35092Y-13835D01*
X35084Y-13813D01*
X35078Y-13796D01*
X35076Y-13789D01*
X35076Y-13789D01*
X35081Y-13781D01*
X35091Y-13765D01*
X35106Y-13743D01*
X35125Y-13716D01*
X35126Y-13714D01*
X35144Y-13688D01*
X35158Y-13666D01*
X35168Y-13650D01*
X35172Y-13643D01*
X35171Y-13642D01*
X35166Y-13635D01*
X35152Y-13620D01*
X35133Y-13600D01*
X35110Y-13576D01*
X35103Y-13569D01*
X35077Y-13544D01*
X35059Y-13528D01*
X35048Y-13519D01*
X35043Y-13517D01*
X35043Y-13517D01*
X35035Y-13522D01*
X35018Y-13533D01*
X34996Y-13548D01*
X34969Y-13566D01*
X34967Y-13568D01*
X34941Y-13586D01*
X34919Y-13600D01*
X34904Y-13611D01*
X34897Y-13615D01*
X34896Y-13615D01*
X34885Y-13612D01*
X34866Y-13605D01*
X34843Y-13596D01*
X34819Y-13586D01*
X34797Y-13577D01*
X34780Y-13570D01*
X34773Y-13565D01*
X34772Y-13565D01*
X34770Y-13555D01*
X34765Y-13536D01*
X34759Y-13509D01*
X34753Y-13476D01*
X34752Y-13471D01*
X34746Y-13440D01*
X34741Y-13414D01*
X34738Y-13396D01*
X34736Y-13389D01*
X34731Y-13388D01*
X34716Y-13387D01*
X34693Y-13386D01*
X34665Y-13386D01*
X34635Y-13386D01*
X34606Y-13387D01*
X34582Y-13387D01*
X34564Y-13389D01*
X34556Y-13390D01*
X34556Y-13391D01*
X34553Y-13400D01*
X34549Y-13420D01*
X34544Y-13447D01*
X34537Y-13479D01*
X34536Y-13485D01*
X34530Y-13516D01*
X34525Y-13542D01*
X34521Y-13560D01*
X34519Y-13567D01*
X34517Y-13568D01*
X34504Y-13574D01*
X34483Y-13582D01*
X34457Y-13593D01*
X34397Y-13617D01*
X34323Y-13567D01*
X34316Y-13562D01*
X34290Y-13544D01*
X34268Y-13529D01*
X34253Y-13520D01*
X34246Y-13516D01*
X34246Y-13516D01*
X34238Y-13523D01*
X34224Y-13536D01*
X34204Y-13556D01*
X34181Y-13579D01*
X34163Y-13596D01*
X34143Y-13617D01*
X34130Y-13631D01*
X34123Y-13640D01*
X34121Y-13645D01*
X34121Y-13649D01*
X34126Y-13656D01*
X34137Y-13673D01*
X34152Y-13695D01*
X34170Y-13721D01*
X34185Y-13743D01*
X34201Y-13768D01*
X34211Y-13785D01*
X34215Y-13794D01*
X34214Y-13798D01*
X34209Y-13812D01*
X34200Y-13834D01*
X34189Y-13860D01*
X34163Y-13918D01*
X34125Y-13926D01*
X34102Y-13930D01*
X34069Y-13936D01*
X34038Y-13942D01*
X33990Y-13952D01*
X33988Y-14129D01*
X33996Y-14132D01*
X34003Y-14134D01*
X34021Y-14138D01*
X34046Y-14143D01*
X34077Y-14149D01*
X34102Y-14154D01*
X34128Y-14159D01*
X34147Y-14162D01*
X34155Y-14164D01*
X34157Y-14167D01*
X34164Y-14179D01*
X34173Y-14199D01*
X34183Y-14223D01*
X34194Y-14248D01*
X34203Y-14271D01*
X34209Y-14289D01*
X34212Y-14298D01*
X34208Y-14305D01*
X34198Y-14320D01*
X34184Y-14342D01*
X34166Y-14368D01*
X34149Y-14393D01*
X34134Y-14416D01*
X34124Y-14431D01*
X34119Y-14439D01*
X34121Y-14444D01*
X34132Y-14456D01*
X34151Y-14476D01*
X34180Y-14505D01*
X34185Y-14509D01*
X34208Y-14532D01*
X34227Y-14550D01*
X34241Y-14562D01*
X34247Y-14566D01*
X34247Y-14566D01*
G37*
G54D12*
X20760Y-16610D02*
X21760Y-16610D01*
X21760Y-16610D02*
X21760Y-19610D01*
X21760Y-19610D02*
X20760Y-19610D01*
X20760Y-19610D02*
X20760Y-16610D01*
X21760Y-17610D02*
X20760Y-17610D01*
G54D11*
X23787Y-17610D02*
X24287Y-17610D01*
X24287Y-17610D02*
X24287Y-18610D01*
X24287Y-18610D02*
X23787Y-18610D01*
X23787Y-17110D02*
X27787Y-17110D01*
X27787Y-17110D02*
X27787Y-19110D01*
X27787Y-19110D02*
X23787Y-19110D01*
X23787Y-19110D02*
X23787Y-17110D01*
G54D12*
X30815Y-19610D02*
X29815Y-19610D01*
X29815Y-19610D02*
X29815Y-16610D01*
X29815Y-16610D02*
X30815Y-16610D01*
X30815Y-16610D02*
X30815Y-19610D01*
X29815Y-18610D02*
X30815Y-18610D01*
X34449Y-20110D02*
X34449Y-19710D01*
X34449Y-19710D02*
X34049Y-19710D01*
X34049Y-19710D02*
X34049Y-16510D01*
X34049Y-16510D02*
X34849Y-16510D01*
X34849Y-16510D02*
X34849Y-19710D01*
X34849Y-19710D02*
X34449Y-19710D01*
X34249Y-19710D02*
X34049Y-19510D01*
X34449Y-16110D02*
X34449Y-16510D01*
X27590Y-14370D02*
X27190Y-14370D01*
X27190Y-14370D02*
X27190Y-14770D01*
X27190Y-14770D02*
X23990Y-14770D01*
X23990Y-14770D02*
X23990Y-13970D01*
X23990Y-13970D02*
X27190Y-13970D01*
X27190Y-13970D02*
X27190Y-14370D01*
X27190Y-14570D02*
X26990Y-14770D01*
X23590Y-14370D02*
X23990Y-14370D01*
X33102Y-21850D02*
X32702Y-21850D01*
X32702Y-21850D02*
X32702Y-22250D01*
X32702Y-22250D02*
X29502Y-22250D01*
X29502Y-22250D02*
X29502Y-21450D01*
X29502Y-21450D02*
X32702Y-21450D01*
X32702Y-21450D02*
X32702Y-21850D01*
X32702Y-22050D02*
X32502Y-22250D01*
X29102Y-21850D02*
X29502Y-21850D01*
X23591Y-21850D02*
X23991Y-21850D01*
X23991Y-21850D02*
X23991Y-21450D01*
X23991Y-21450D02*
X27191Y-21450D01*
X27191Y-21450D02*
X27191Y-22250D01*
X27191Y-22250D02*
X23991Y-22250D01*
X23991Y-22250D02*
X23991Y-21850D01*
X23991Y-21650D02*
X24191Y-21450D01*
X27591Y-21850D02*
X27191Y-21850D01*
X33102Y-14370D02*
X32702Y-14370D01*
X32702Y-14370D02*
X32702Y-14770D01*
X32702Y-14770D02*
X29502Y-14770D01*
X29502Y-14770D02*
X29502Y-13970D01*
X29502Y-13970D02*
X32702Y-13970D01*
X32702Y-13970D02*
X32702Y-14370D01*
X32702Y-14570D02*
X32502Y-14770D01*
X29102Y-14370D02*
X29502Y-14370D01*
X23335Y-17130D02*
X23335Y-19110D01*
X23335Y-19110D02*
X22335Y-19110D01*
X22335Y-19110D02*
X22335Y-17110D01*
X22335Y-17110D02*
X23335Y-17110D01*
X23085Y-17110D02*
X23335Y-17360D01*
X28740Y-16110D02*
X28740Y-16510D01*
X28740Y-16510D02*
X29140Y-16510D01*
X29140Y-16510D02*
X29140Y-19710D01*
X29140Y-19710D02*
X28340Y-19710D01*
X28340Y-19710D02*
X28340Y-16510D01*
X28340Y-16510D02*
X28740Y-16510D01*
X28940Y-16510D02*
X29140Y-16710D01*
X28740Y-20110D02*
X28740Y-19710D01*
G54D14*
X37098Y-18830D02*
X38098Y-18830D01*
G54D15*
X37982Y-17750D02*
X37940Y-17718D01*
X37896Y-17690D01*
X37849Y-17666D01*
X37801Y-17646D01*
X37751Y-17630D01*
X37700Y-17619D01*
X37648Y-17613D01*
X37598Y-17610D01*
X37598Y-17611D02*
X37546Y-17614D01*
X37494Y-17621D01*
X37443Y-17632D01*
X37394Y-17648D01*
X37345Y-17668D01*
X37299Y-17692D01*
X37255Y-17720D01*
X37213Y-17752D01*
X37201Y-17763D01*
X37598Y-18809D02*
X37650Y-18806D01*
X37702Y-18799D01*
X37753Y-18788D01*
X37802Y-18772D01*
X37851Y-18752D01*
X37897Y-18728D01*
X37941Y-18700D01*
X37983Y-18668D01*
X37987Y-18664D01*
X37214Y-18670D02*
X37256Y-18702D01*
X37300Y-18730D01*
X37347Y-18754D01*
X37395Y-18774D01*
X37445Y-18790D01*
X37496Y-18801D01*
X37548Y-18807D01*
X37598Y-18810D01*
X37947Y-18697D02*
X37988Y-18665D01*
X38026Y-18629D01*
X38061Y-18590D01*
X38093Y-18548D01*
X38120Y-18504D01*
X38144Y-18457D01*
X38163Y-18409D01*
X38179Y-18359D01*
X38189Y-18307D01*
X38196Y-18256D01*
X38198Y-18210D01*
X38198Y-18210D02*
X38195Y-18158D01*
X38188Y-18106D01*
X38177Y-18055D01*
X38161Y-18005D01*
X38141Y-17957D01*
X38117Y-17911D01*
X38089Y-17866D01*
X38057Y-17825D01*
X38022Y-17786D01*
X37983Y-17751D01*
X37958Y-17731D01*
X36999Y-18210D02*
X37002Y-18262D01*
X37009Y-18314D01*
X37020Y-18365D01*
X37036Y-18414D01*
X37056Y-18463D01*
X37080Y-18509D01*
X37108Y-18553D01*
X37140Y-18595D01*
X37175Y-18633D01*
X37213Y-18668D01*
X37231Y-18682D01*
X37230Y-17737D02*
X37190Y-17771D01*
X37153Y-17808D01*
X37120Y-17849D01*
X37090Y-17892D01*
X37064Y-17937D01*
X37043Y-17985D01*
X37025Y-18034D01*
X37012Y-18085D01*
X37003Y-18136D01*
X36999Y-18189D01*
X36998Y-18210D01*
X37848Y-18210D02*
X37847Y-18189D01*
X37844Y-18167D01*
X37839Y-18146D01*
X37832Y-18125D01*
X37824Y-18105D01*
X37814Y-18086D01*
X37802Y-18067D01*
X37789Y-18050D01*
X37774Y-18034D01*
X37758Y-18019D01*
X37741Y-18006D01*
X37723Y-17994D01*
X37703Y-17984D01*
X37683Y-17976D01*
X37662Y-17969D01*
X37641Y-17964D01*
X37619Y-17961D01*
X37598Y-17960D01*
X37998Y-18210D02*
X37996Y-18176D01*
X37991Y-18141D01*
X37984Y-18107D01*
X37973Y-18074D01*
X37960Y-18041D01*
X37944Y-18011D01*
X37925Y-17981D01*
X37904Y-17953D01*
X37880Y-17928D01*
X37855Y-17904D01*
X37827Y-17883D01*
X37798Y-17864D01*
X37767Y-17848D01*
X37734Y-17835D01*
X37701Y-17824D01*
X37667Y-17817D01*
X37632Y-17812D01*
X37598Y-17810D01*
X37348Y-18210D02*
X37349Y-18231D01*
X37352Y-18253D01*
X37357Y-18274D01*
X37364Y-18295D01*
X37372Y-18315D01*
X37382Y-18334D01*
X37394Y-18353D01*
X37407Y-18370D01*
X37422Y-18386D01*
X37438Y-18401D01*
X37455Y-18414D01*
X37474Y-18426D01*
X37493Y-18436D01*
X37513Y-18444D01*
X37534Y-18451D01*
X37555Y-18456D01*
X37577Y-18459D01*
X37598Y-18460D01*
X37198Y-18210D02*
X37200Y-18244D01*
X37205Y-18279D01*
X37212Y-18313D01*
X37223Y-18346D01*
X37236Y-18379D01*
X37252Y-18409D01*
X37271Y-18439D01*
X37292Y-18467D01*
X37316Y-18492D01*
X37341Y-18516D01*
X37369Y-18537D01*
X37399Y-18556D01*
X37429Y-18572D01*
X37462Y-18585D01*
X37495Y-18596D01*
X37529Y-18603D01*
X37564Y-18608D01*
X37598Y-18610D01*
G54D14*
X38111Y-18823D02*
X38162Y-18776D01*
X38209Y-18725D01*
X38252Y-18670D01*
X38290Y-18611D01*
X38322Y-18549D01*
X38349Y-18484D01*
X38370Y-18418D01*
X38385Y-18350D01*
X38394Y-18281D01*
X38397Y-18211D01*
X38398Y-18210D01*
X38397Y-18210D02*
X38393Y-18141D01*
X38384Y-18072D01*
X38369Y-18004D01*
X38348Y-17937D01*
X38322Y-17873D01*
X38289Y-17811D01*
X38252Y-17752D01*
X38210Y-17697D01*
X38162Y-17646D01*
X38111Y-17598D01*
X38056Y-17556D01*
X37997Y-17519D01*
X37974Y-17506D01*
X36801Y-18211D02*
X36804Y-18280D01*
X36813Y-18349D01*
X36828Y-18417D01*
X36849Y-18484D01*
X36876Y-18548D01*
X36908Y-18610D01*
X36946Y-18668D01*
X36988Y-18724D01*
X37035Y-18775D01*
X37083Y-18819D01*
X37201Y-17516D02*
X37142Y-17554D01*
X37086Y-17596D01*
X37035Y-17643D01*
X36987Y-17694D01*
X36945Y-17749D01*
X36907Y-17808D01*
X36875Y-17870D01*
X36848Y-17934D01*
X36826Y-18001D01*
X36811Y-18069D01*
X36802Y-18138D01*
X36799Y-18208D01*
X36798Y-18210D01*
X37977Y-17506D02*
X37914Y-17476D01*
X37849Y-17451D01*
X37782Y-17432D01*
X37713Y-17419D01*
X37644Y-17412D01*
X37598Y-17410D01*
X37598Y-17411D02*
X37529Y-17415D01*
X37460Y-17424D01*
X37392Y-17439D01*
X37325Y-17460D01*
X37261Y-17486D01*
X37199Y-17519D01*
X37180Y-17530D01*
G54D10*
X32287Y-16107D02*
X32287Y-15707D01*
X32458Y-16088D02*
X32515Y-16107D01*
X32611Y-16107D01*
X32649Y-16088D01*
X32668Y-16069D01*
X32687Y-16031D01*
X32687Y-15993D01*
X32668Y-15955D01*
X32649Y-15935D01*
X32611Y-15916D01*
X32534Y-15897D01*
X32496Y-15878D01*
X32477Y-15859D01*
X32458Y-15821D01*
X32458Y-15783D01*
X32477Y-15745D01*
X32496Y-15726D01*
X32534Y-15707D01*
X32630Y-15707D01*
X32687Y-15726D01*
X32858Y-16107D02*
X32858Y-15707D01*
X33011Y-15707D01*
X33049Y-15726D01*
X33068Y-15745D01*
X33087Y-15783D01*
X33087Y-15840D01*
X33068Y-15878D01*
X33049Y-15897D01*
X33011Y-15916D01*
X32858Y-15916D01*
X20038Y-19777D02*
X20038Y-19548D01*
X20438Y-19663D02*
X20038Y-19663D01*
X20419Y-19434D02*
X20438Y-19377D01*
X20438Y-19281D01*
X20419Y-19243D01*
X20400Y-19224D01*
X20362Y-19205D01*
X20324Y-19205D01*
X20286Y-19224D01*
X20266Y-19243D01*
X20247Y-19281D01*
X20228Y-19358D01*
X20209Y-19396D01*
X20190Y-19415D01*
X20152Y-19434D01*
X20114Y-19434D01*
X20076Y-19415D01*
X20057Y-19396D01*
X20038Y-19358D01*
X20038Y-19262D01*
X20057Y-19205D01*
X20038Y-18958D02*
X20038Y-18881D01*
X20057Y-18843D01*
X20095Y-18805D01*
X20171Y-18786D01*
X20305Y-18786D01*
X20381Y-18805D01*
X20419Y-18843D01*
X20438Y-18881D01*
X20438Y-18958D01*
X20419Y-18996D01*
X20381Y-19034D01*
X20305Y-19053D01*
X20171Y-19053D01*
X20095Y-19034D01*
X20057Y-18996D01*
X20038Y-18958D01*
X20438Y-18615D02*
X20038Y-18615D01*
X20038Y-18462D01*
X20057Y-18424D01*
X20076Y-18405D01*
X20114Y-18386D01*
X20171Y-18386D01*
X20209Y-18405D01*
X20228Y-18424D01*
X20247Y-18462D01*
X20247Y-18615D01*
X20038Y-18253D02*
X20038Y-18005D01*
X20190Y-18139D01*
X20190Y-18081D01*
X20209Y-18043D01*
X20228Y-18024D01*
X20266Y-18005D01*
X20362Y-18005D01*
X20400Y-18024D01*
X20419Y-18043D01*
X20438Y-18081D01*
X20438Y-18196D01*
X20419Y-18234D01*
X20400Y-18253D01*
X20209Y-17777D02*
X20190Y-17815D01*
X20171Y-17834D01*
X20133Y-17853D01*
X20114Y-17853D01*
X20076Y-17834D01*
X20057Y-17815D01*
X20038Y-17777D01*
X20038Y-17700D01*
X20057Y-17662D01*
X20076Y-17643D01*
X20114Y-17624D01*
X20133Y-17624D01*
X20171Y-17643D01*
X20190Y-17662D01*
X20209Y-17700D01*
X20209Y-17777D01*
X20228Y-17815D01*
X20247Y-17834D01*
X20286Y-17853D01*
X20362Y-17853D01*
X20400Y-17834D01*
X20419Y-17815D01*
X20438Y-17777D01*
X20438Y-17700D01*
X20419Y-17662D01*
X20400Y-17643D01*
X20362Y-17624D01*
X20286Y-17624D01*
X20247Y-17643D01*
X20228Y-17662D01*
X20209Y-17700D01*
X20076Y-17472D02*
X20057Y-17453D01*
X20038Y-17415D01*
X20038Y-17319D01*
X20057Y-17281D01*
X20076Y-17262D01*
X20114Y-17243D01*
X20152Y-17243D01*
X20209Y-17262D01*
X20438Y-17491D01*
X20438Y-17243D01*
X20038Y-17110D02*
X20038Y-16862D01*
X20190Y-16996D01*
X20190Y-16938D01*
X20209Y-16900D01*
X20228Y-16881D01*
X20266Y-16862D01*
X20362Y-16862D01*
X20400Y-16881D01*
X20419Y-16900D01*
X20438Y-16938D01*
X20438Y-17053D01*
X20419Y-17091D01*
X20400Y-17110D01*
X20209Y-16634D02*
X20190Y-16672D01*
X20171Y-16691D01*
X20133Y-16710D01*
X20114Y-16710D01*
X20076Y-16691D01*
X20057Y-16672D01*
X20038Y-16634D01*
X20038Y-16557D01*
X20057Y-16519D01*
X20076Y-16500D01*
X20114Y-16481D01*
X20133Y-16481D01*
X20171Y-16500D01*
X20190Y-16519D01*
X20209Y-16557D01*
X20209Y-16634D01*
X20228Y-16672D01*
X20247Y-16691D01*
X20286Y-16710D01*
X20362Y-16710D01*
X20400Y-16691D01*
X20419Y-16672D01*
X20438Y-16634D01*
X20438Y-16557D01*
X20419Y-16519D01*
X20400Y-16500D01*
X20362Y-16481D01*
X20286Y-16481D01*
X20247Y-16500D01*
X20228Y-16519D01*
X20209Y-16557D01*
X24082Y-15599D02*
X24273Y-15599D01*
X24044Y-15713D02*
X24177Y-15313D01*
X24311Y-15713D01*
X24387Y-15313D02*
X24616Y-15313D01*
X24501Y-15713D02*
X24501Y-15313D01*
X24692Y-15313D02*
X24921Y-15313D01*
X24806Y-15713D02*
X24806Y-15313D01*
X25054Y-15713D02*
X25054Y-15313D01*
X25244Y-15713D02*
X25244Y-15313D01*
X25473Y-15713D01*
X25473Y-15313D01*
X25739Y-15522D02*
X25739Y-15713D01*
X25606Y-15313D02*
X25739Y-15522D01*
X25873Y-15313D01*
X26063Y-15484D02*
X26025Y-15465D01*
X26006Y-15446D01*
X25987Y-15408D01*
X25987Y-15389D01*
X26006Y-15351D01*
X26025Y-15332D01*
X26063Y-15313D01*
X26140Y-15313D01*
X26178Y-15332D01*
X26197Y-15351D01*
X26216Y-15389D01*
X26216Y-15408D01*
X26197Y-15446D01*
X26178Y-15465D01*
X26140Y-15484D01*
X26063Y-15484D01*
X26025Y-15503D01*
X26006Y-15522D01*
X25987Y-15561D01*
X25987Y-15637D01*
X26006Y-15675D01*
X26025Y-15694D01*
X26063Y-15713D01*
X26140Y-15713D01*
X26178Y-15694D01*
X26197Y-15675D01*
X26216Y-15637D01*
X26216Y-15561D01*
X26197Y-15522D01*
X26178Y-15503D01*
X26140Y-15484D01*
X26578Y-15313D02*
X26387Y-15313D01*
X26368Y-15503D01*
X26387Y-15484D01*
X26425Y-15465D01*
X26521Y-15465D01*
X26559Y-15484D01*
X26578Y-15503D01*
X26597Y-15541D01*
X26597Y-15637D01*
X26578Y-15675D01*
X26559Y-15694D01*
X26521Y-15713D01*
X26425Y-15713D01*
X26387Y-15694D01*
X26368Y-15675D01*
X26768Y-15561D02*
X27073Y-15561D01*
X27263Y-15713D02*
X27263Y-15313D01*
X27416Y-15313D01*
X27454Y-15332D01*
X27473Y-15351D01*
X27492Y-15389D01*
X27492Y-15446D01*
X27473Y-15484D01*
X27454Y-15503D01*
X27416Y-15522D01*
X27263Y-15522D01*
X30277Y-16342D02*
X30239Y-16323D01*
X30201Y-16285D01*
X30144Y-16228D01*
X30105Y-16209D01*
X30067Y-16209D01*
X30086Y-16304D02*
X30048Y-16285D01*
X30010Y-16247D01*
X29991Y-16171D01*
X29991Y-16037D01*
X30010Y-15961D01*
X30048Y-15923D01*
X30086Y-15904D01*
X30163Y-15904D01*
X30201Y-15923D01*
X30239Y-15961D01*
X30258Y-16037D01*
X30258Y-16171D01*
X30239Y-16247D01*
X30201Y-16285D01*
X30163Y-16304D01*
X30086Y-16304D01*
X30639Y-16304D02*
X30410Y-16304D01*
X30524Y-16304D02*
X30524Y-15904D01*
X30486Y-15961D01*
X30448Y-15999D01*
X30410Y-16018D01*
X34611Y-19160D02*
X34420Y-19294D01*
X34611Y-19389D02*
X34211Y-19389D01*
X34211Y-19236D01*
X34230Y-19198D01*
X34249Y-19179D01*
X34287Y-19160D01*
X34344Y-19160D01*
X34382Y-19179D01*
X34401Y-19198D01*
X34420Y-19236D01*
X34420Y-19389D01*
X34249Y-19008D02*
X34230Y-18989D01*
X34211Y-18951D01*
X34211Y-18855D01*
X34230Y-18817D01*
X34249Y-18798D01*
X34287Y-18779D01*
X34325Y-18779D01*
X34382Y-18798D01*
X34611Y-19027D01*
X34611Y-18779D01*
X34211Y-18005D02*
X34211Y-18196D01*
X34401Y-18215D01*
X34382Y-18196D01*
X34363Y-18158D01*
X34363Y-18062D01*
X34382Y-18024D01*
X34401Y-18005D01*
X34439Y-17986D01*
X34535Y-17986D01*
X34573Y-18005D01*
X34592Y-18024D01*
X34611Y-18062D01*
X34611Y-18158D01*
X34592Y-18196D01*
X34573Y-18215D01*
X34611Y-17605D02*
X34611Y-17834D01*
X34611Y-17720D02*
X34211Y-17720D01*
X34268Y-17758D01*
X34306Y-17796D01*
X34325Y-17834D01*
X34211Y-17358D02*
X34211Y-17319D01*
X34230Y-17281D01*
X34249Y-17262D01*
X34287Y-17243D01*
X34363Y-17224D01*
X34459Y-17224D01*
X34535Y-17243D01*
X34573Y-17262D01*
X34592Y-17281D01*
X34611Y-17319D01*
X34611Y-17358D01*
X34592Y-17396D01*
X34573Y-17415D01*
X34535Y-17434D01*
X34459Y-17453D01*
X34363Y-17453D01*
X34287Y-17434D01*
X34249Y-17415D01*
X34230Y-17396D01*
X34211Y-17358D01*
X34611Y-16824D02*
X34420Y-16958D01*
X34611Y-17053D02*
X34211Y-17053D01*
X34211Y-16900D01*
X34230Y-16862D01*
X34249Y-16843D01*
X34287Y-16824D01*
X34344Y-16824D01*
X34382Y-16843D01*
X34401Y-16862D01*
X34420Y-16900D01*
X34420Y-17053D01*
X24540Y-14532D02*
X24406Y-14341D01*
X24311Y-14532D02*
X24311Y-14132D01*
X24464Y-14132D01*
X24502Y-14151D01*
X24521Y-14170D01*
X24540Y-14208D01*
X24540Y-14265D01*
X24521Y-14303D01*
X24502Y-14322D01*
X24464Y-14341D01*
X24311Y-14341D01*
X24883Y-14265D02*
X24883Y-14532D01*
X24787Y-14113D02*
X24692Y-14399D01*
X24940Y-14399D01*
X25696Y-14132D02*
X25505Y-14132D01*
X25486Y-14322D01*
X25505Y-14303D01*
X25543Y-14284D01*
X25639Y-14284D01*
X25677Y-14303D01*
X25696Y-14322D01*
X25715Y-14360D01*
X25715Y-14456D01*
X25696Y-14494D01*
X25677Y-14513D01*
X25639Y-14532D01*
X25543Y-14532D01*
X25505Y-14513D01*
X25486Y-14494D01*
X26096Y-14532D02*
X25867Y-14532D01*
X25981Y-14532D02*
X25981Y-14132D01*
X25943Y-14189D01*
X25905Y-14227D01*
X25867Y-14246D01*
X26343Y-14132D02*
X26382Y-14132D01*
X26420Y-14151D01*
X26439Y-14170D01*
X26458Y-14208D01*
X26477Y-14284D01*
X26477Y-14380D01*
X26458Y-14456D01*
X26439Y-14494D01*
X26420Y-14513D01*
X26382Y-14532D01*
X26343Y-14532D01*
X26305Y-14513D01*
X26286Y-14494D01*
X26267Y-14456D01*
X26248Y-14380D01*
X26248Y-14284D01*
X26267Y-14208D01*
X26286Y-14170D01*
X26305Y-14151D01*
X26343Y-14132D01*
X26877Y-14532D02*
X26743Y-14341D01*
X26648Y-14532D02*
X26648Y-14132D01*
X26801Y-14132D01*
X26839Y-14151D01*
X26858Y-14170D01*
X26877Y-14208D01*
X26877Y-14265D01*
X26858Y-14303D01*
X26839Y-14322D01*
X26801Y-14341D01*
X26648Y-14341D01*
X30052Y-22012D02*
X29918Y-21821D01*
X29823Y-22012D02*
X29823Y-21612D01*
X29976Y-21612D01*
X30014Y-21631D01*
X30033Y-21650D01*
X30052Y-21688D01*
X30052Y-21745D01*
X30033Y-21783D01*
X30014Y-21802D01*
X29976Y-21821D01*
X29823Y-21821D01*
X30414Y-21612D02*
X30223Y-21612D01*
X30204Y-21802D01*
X30223Y-21783D01*
X30261Y-21764D01*
X30357Y-21764D01*
X30395Y-21783D01*
X30414Y-21802D01*
X30433Y-21840D01*
X30433Y-21936D01*
X30414Y-21974D01*
X30395Y-21993D01*
X30357Y-22012D01*
X30261Y-22012D01*
X30223Y-21993D01*
X30204Y-21974D01*
X31208Y-21612D02*
X31017Y-21612D01*
X30998Y-21802D01*
X31017Y-21783D01*
X31055Y-21764D01*
X31151Y-21764D01*
X31189Y-21783D01*
X31208Y-21802D01*
X31227Y-21840D01*
X31227Y-21936D01*
X31208Y-21974D01*
X31189Y-21993D01*
X31151Y-22012D01*
X31055Y-22012D01*
X31017Y-21993D01*
X30998Y-21974D01*
X31608Y-22012D02*
X31379Y-22012D01*
X31493Y-22012D02*
X31493Y-21612D01*
X31455Y-21669D01*
X31417Y-21707D01*
X31379Y-21726D01*
X31855Y-21612D02*
X31894Y-21612D01*
X31932Y-21631D01*
X31951Y-21650D01*
X31970Y-21688D01*
X31989Y-21764D01*
X31989Y-21860D01*
X31970Y-21936D01*
X31951Y-21974D01*
X31932Y-21993D01*
X31894Y-22012D01*
X31855Y-22012D01*
X31817Y-21993D01*
X31798Y-21974D01*
X31779Y-21936D01*
X31760Y-21860D01*
X31760Y-21764D01*
X31779Y-21688D01*
X31798Y-21650D01*
X31817Y-21631D01*
X31855Y-21612D01*
X32389Y-22012D02*
X32255Y-21821D01*
X32160Y-22012D02*
X32160Y-21612D01*
X32313Y-21612D01*
X32351Y-21631D01*
X32370Y-21650D01*
X32389Y-21688D01*
X32389Y-21745D01*
X32370Y-21783D01*
X32351Y-21802D01*
X32313Y-21821D01*
X32160Y-21821D01*
X24541Y-22012D02*
X24407Y-21821D01*
X24312Y-22012D02*
X24312Y-21612D01*
X24465Y-21612D01*
X24503Y-21631D01*
X24522Y-21650D01*
X24541Y-21688D01*
X24541Y-21745D01*
X24522Y-21783D01*
X24503Y-21802D01*
X24465Y-21821D01*
X24312Y-21821D01*
X24922Y-22012D02*
X24693Y-22012D01*
X24807Y-22012D02*
X24807Y-21612D01*
X24769Y-21669D01*
X24731Y-21707D01*
X24693Y-21726D01*
X26140Y-22012D02*
X25911Y-22012D01*
X26025Y-22012D02*
X26025Y-21612D01*
X25987Y-21669D01*
X25949Y-21707D01*
X25911Y-21726D01*
X26387Y-21612D02*
X26426Y-21612D01*
X26464Y-21631D01*
X26483Y-21650D01*
X26502Y-21688D01*
X26521Y-21764D01*
X26521Y-21860D01*
X26502Y-21936D01*
X26483Y-21974D01*
X26464Y-21993D01*
X26426Y-22012D01*
X26387Y-22012D01*
X26349Y-21993D01*
X26330Y-21974D01*
X26311Y-21936D01*
X26292Y-21860D01*
X26292Y-21764D01*
X26311Y-21688D01*
X26330Y-21650D01*
X26349Y-21631D01*
X26387Y-21612D01*
X26692Y-22012D02*
X26692Y-21612D01*
X26730Y-21860D02*
X26845Y-22012D01*
X26845Y-21745D02*
X26692Y-21898D01*
X30052Y-14532D02*
X29918Y-14341D01*
X29823Y-14532D02*
X29823Y-14132D01*
X29976Y-14132D01*
X30014Y-14151D01*
X30033Y-14170D01*
X30052Y-14208D01*
X30052Y-14265D01*
X30033Y-14303D01*
X30014Y-14322D01*
X29976Y-14341D01*
X29823Y-14341D01*
X30185Y-14132D02*
X30433Y-14132D01*
X30299Y-14284D01*
X30357Y-14284D01*
X30395Y-14303D01*
X30414Y-14322D01*
X30433Y-14360D01*
X30433Y-14456D01*
X30414Y-14494D01*
X30395Y-14513D01*
X30357Y-14532D01*
X30242Y-14532D01*
X30204Y-14513D01*
X30185Y-14494D01*
X31208Y-14132D02*
X31017Y-14132D01*
X30998Y-14322D01*
X31017Y-14303D01*
X31055Y-14284D01*
X31151Y-14284D01*
X31189Y-14303D01*
X31208Y-14322D01*
X31227Y-14360D01*
X31227Y-14456D01*
X31208Y-14494D01*
X31189Y-14513D01*
X31151Y-14532D01*
X31055Y-14532D01*
X31017Y-14513D01*
X30998Y-14494D01*
X31608Y-14532D02*
X31379Y-14532D01*
X31493Y-14532D02*
X31493Y-14132D01*
X31455Y-14189D01*
X31417Y-14227D01*
X31379Y-14246D01*
X31855Y-14132D02*
X31894Y-14132D01*
X31932Y-14151D01*
X31951Y-14170D01*
X31970Y-14208D01*
X31989Y-14284D01*
X31989Y-14380D01*
X31970Y-14456D01*
X31951Y-14494D01*
X31932Y-14513D01*
X31894Y-14532D01*
X31855Y-14532D01*
X31817Y-14513D01*
X31798Y-14494D01*
X31779Y-14456D01*
X31760Y-14380D01*
X31760Y-14284D01*
X31779Y-14208D01*
X31798Y-14170D01*
X31817Y-14151D01*
X31855Y-14132D01*
X32389Y-14532D02*
X32255Y-14341D01*
X32160Y-14532D02*
X32160Y-14132D01*
X32313Y-14132D01*
X32351Y-14151D01*
X32370Y-14170D01*
X32389Y-14208D01*
X32389Y-14265D01*
X32370Y-14303D01*
X32351Y-14322D01*
X32313Y-14341D01*
X32160Y-14341D01*
X22769Y-19809D02*
X22750Y-19828D01*
X22693Y-19847D01*
X22655Y-19847D01*
X22597Y-19828D01*
X22559Y-19790D01*
X22540Y-19752D01*
X22521Y-19675D01*
X22521Y-19618D01*
X22540Y-19542D01*
X22559Y-19504D01*
X22597Y-19466D01*
X22655Y-19447D01*
X22693Y-19447D01*
X22750Y-19466D01*
X22769Y-19485D01*
X23150Y-19847D02*
X22921Y-19847D01*
X23035Y-19847D02*
X23035Y-19447D01*
X22997Y-19504D01*
X22959Y-19542D01*
X22921Y-19561D01*
X28902Y-17191D02*
X28711Y-17325D01*
X28902Y-17420D02*
X28502Y-17420D01*
X28502Y-17267D01*
X28521Y-17229D01*
X28540Y-17210D01*
X28578Y-17191D01*
X28635Y-17191D01*
X28673Y-17210D01*
X28692Y-17229D01*
X28711Y-17267D01*
X28711Y-17420D01*
X28502Y-16848D02*
X28502Y-16925D01*
X28521Y-16963D01*
X28540Y-16982D01*
X28597Y-17020D01*
X28673Y-17039D01*
X28826Y-17039D01*
X28864Y-17020D01*
X28883Y-17001D01*
X28902Y-16963D01*
X28902Y-16886D01*
X28883Y-16848D01*
X28864Y-16829D01*
X28826Y-16810D01*
X28730Y-16810D01*
X28692Y-16829D01*
X28673Y-16848D01*
X28654Y-16886D01*
X28654Y-16963D01*
X28673Y-17001D01*
X28692Y-17020D01*
X28730Y-17039D01*
X28902Y-19141D02*
X28902Y-19370D01*
X28902Y-19256D02*
X28502Y-19256D01*
X28559Y-19294D01*
X28597Y-19332D01*
X28616Y-19370D01*
X28902Y-18970D02*
X28502Y-18970D01*
X28750Y-18932D02*
X28902Y-18817D01*
X28635Y-18817D02*
X28788Y-18970D01*
%LPC*%
G54D16*
X21259Y-14370D03*
G54D17*
X35630Y-20110D03*
G54D18*
X35630Y-19110D03*
X35630Y-18110D03*
X35630Y-17110D03*
X35630Y-16110D03*
G54D19*
X32177Y-17110D03*
G54D20*
X33177Y-17110D03*
X32177Y-18110D03*
X33177Y-18110D03*
X32177Y-19110D03*
X33177Y-19110D03*
G54D16*
X37401Y-21850D03*
X37401Y-14370D03*
X21259Y-21850D03*
G54D17*
X21260Y-17110D03*
G54D18*
X21260Y-18110D03*
X21260Y-19110D03*
G54D21*
X24287Y-19610D03*
G54D22*
X25287Y-19610D03*
X26287Y-19610D03*
X27287Y-19610D03*
X27287Y-16610D03*
X26287Y-16610D03*
X25287Y-16610D03*
X24287Y-16610D03*
G54D17*
X30315Y-19110D03*
G54D18*
X30315Y-18110D03*
X30315Y-17110D03*
G54D20*
X34449Y-20110D03*
X34449Y-16110D03*
X27590Y-14370D03*
X23590Y-14370D03*
X33102Y-21850D03*
X29102Y-21850D03*
X23591Y-21850D03*
X27591Y-21850D03*
X33102Y-14370D03*
X29102Y-14370D03*
G54D18*
X22835Y-17610D03*
X22835Y-18610D03*
G54D20*
X28740Y-16110D03*
X28740Y-20110D03*
G54D23*
X37598Y-17610D03*
X37598Y-18610D03*
M02*
