G04 (created by PCBNEW-RS274X (2012-jan-04)-stable) date Sun 25 Mar 2012 07:34:11 PM CEST*
G01*
G70*
G90*
%MOIN*%
G04 Gerber Fmt 3.4, Leading zero omitted, Abs format*
%FSLAX34Y34*%
G04 APERTURE LIST*
%ADD10C,0.008000*%
%ADD11C,0.015000*%
%ADD12C,0.066000*%
%ADD13C,0.160000*%
%ADD14R,0.055000X0.055000*%
%ADD15C,0.055000*%
%ADD16R,0.060000X0.060000*%
%ADD17C,0.060000*%
%ADD18R,0.062000X0.090000*%
%ADD19O,0.062000X0.090000*%
%ADD20C,0.012000*%
G04 APERTURE END LIST*
G54D10*
G54D11*
X38976Y-12795D02*
X19684Y-12795D01*
X38976Y-23425D02*
X38976Y-12795D01*
X19684Y-23425D02*
X38976Y-23425D01*
X19684Y-12795D02*
X19684Y-23425D01*
G54D12*
X37598Y-17610D03*
X37598Y-18610D03*
G54D13*
X21259Y-14370D03*
G54D14*
X35630Y-20110D03*
G54D15*
X35630Y-19110D03*
X35630Y-18110D03*
X35630Y-17110D03*
X35630Y-16110D03*
G54D16*
X32177Y-17110D03*
G54D17*
X33177Y-17110D03*
X32177Y-18110D03*
X33177Y-18110D03*
X32177Y-19110D03*
X33177Y-19110D03*
G54D13*
X37401Y-21850D03*
X37401Y-14370D03*
X21259Y-21850D03*
G54D14*
X21260Y-17110D03*
G54D15*
X21260Y-18110D03*
X21260Y-19110D03*
G54D18*
X24287Y-19610D03*
G54D19*
X25287Y-19610D03*
X26287Y-19610D03*
X27287Y-19610D03*
X27287Y-16610D03*
X26287Y-16610D03*
X25287Y-16610D03*
X24287Y-16610D03*
G54D14*
X30315Y-19110D03*
G54D15*
X30315Y-18110D03*
X30315Y-17110D03*
G54D17*
X34449Y-20110D03*
X34449Y-16110D03*
X27590Y-14370D03*
X23590Y-14370D03*
X33102Y-21850D03*
X29102Y-21850D03*
X23591Y-21850D03*
X27591Y-21850D03*
X33102Y-14370D03*
X29102Y-14370D03*
G54D15*
X22835Y-17610D03*
X22835Y-18610D03*
G54D17*
X28740Y-16110D03*
X28740Y-20110D03*
G54D20*
X33102Y-15702D02*
X33102Y-14370D01*
X32177Y-16627D02*
X33102Y-15702D01*
X32177Y-17110D02*
X32177Y-16627D01*
X34358Y-19291D02*
X33177Y-18110D01*
X34449Y-19291D02*
X34358Y-19291D01*
X34449Y-20110D02*
X34449Y-19291D01*
X34449Y-19291D02*
X35630Y-18110D01*
X33102Y-20035D02*
X32177Y-19110D01*
X33102Y-21850D02*
X33102Y-20035D01*
X32177Y-17610D02*
X34130Y-17610D01*
X27590Y-14370D02*
X28090Y-13870D01*
X34130Y-17610D02*
X35630Y-16110D01*
X28090Y-13870D02*
X29552Y-13870D01*
X31677Y-17576D02*
X31711Y-17610D01*
X31711Y-17610D02*
X32177Y-17610D01*
X31677Y-15995D02*
X31677Y-17576D01*
X29552Y-13870D02*
X31677Y-15995D01*
X32177Y-17610D02*
X32177Y-18110D01*
X34660Y-20605D02*
X34017Y-20605D01*
X27287Y-19610D02*
X26794Y-19610D01*
X34017Y-20605D02*
X33177Y-19765D01*
X35630Y-19110D02*
X34955Y-19785D01*
X34955Y-19785D02*
X34955Y-20310D01*
X26140Y-18610D02*
X26794Y-19264D01*
X34955Y-20310D02*
X34660Y-20605D01*
X33177Y-19765D02*
X33177Y-19110D01*
X26794Y-19264D02*
X26794Y-19610D01*
X22835Y-18610D02*
X26140Y-18610D01*
X24780Y-19610D02*
X24780Y-20103D01*
X26527Y-21850D02*
X27591Y-21850D01*
X24287Y-19610D02*
X24780Y-19610D01*
X24780Y-20103D02*
X26527Y-21850D01*
X28674Y-14370D02*
X29102Y-14370D01*
X26780Y-16264D02*
X28674Y-14370D01*
X26780Y-16610D02*
X26780Y-16264D01*
X26287Y-16610D02*
X26780Y-16610D01*
X25197Y-15977D02*
X23590Y-14370D01*
X25287Y-15977D02*
X25197Y-15977D01*
X25287Y-16610D02*
X25287Y-15977D01*
X27287Y-16610D02*
X27780Y-16610D01*
X27780Y-16610D02*
X28740Y-17570D01*
X28740Y-17570D02*
X28740Y-20110D01*
X23591Y-21366D02*
X21335Y-19110D01*
X23591Y-21850D02*
X23591Y-21366D01*
X22835Y-17610D02*
X21335Y-19110D01*
X21335Y-19110D02*
X21260Y-19110D01*
G54D10*
G36*
X38701Y-20868D02*
X38667Y-20818D01*
X38443Y-20591D01*
X38178Y-20413D01*
X38166Y-20407D01*
X38166Y-18574D01*
X38148Y-18464D01*
X38127Y-18408D01*
X38127Y-17558D01*
X38107Y-17456D01*
X38067Y-17360D01*
X38010Y-17274D01*
X37937Y-17200D01*
X37851Y-17142D01*
X37755Y-17102D01*
X37653Y-17081D01*
X37550Y-17081D01*
X37448Y-17100D01*
X37352Y-17139D01*
X37265Y-17196D01*
X37191Y-17268D01*
X37132Y-17354D01*
X37091Y-17449D01*
X37070Y-17551D01*
X37068Y-17655D01*
X37087Y-17757D01*
X37125Y-17853D01*
X37182Y-17940D01*
X37254Y-18015D01*
X37339Y-18074D01*
X37373Y-18089D01*
X37348Y-18099D01*
X37314Y-18116D01*
X37283Y-18210D01*
X37598Y-18525D01*
X37913Y-18210D01*
X37882Y-18116D01*
X37823Y-18089D01*
X37838Y-18084D01*
X37925Y-18029D01*
X38000Y-17957D01*
X38060Y-17872D01*
X38102Y-17778D01*
X38125Y-17676D01*
X38127Y-17558D01*
X38127Y-18408D01*
X38109Y-18360D01*
X38092Y-18326D01*
X37998Y-18295D01*
X37683Y-18610D01*
X37998Y-18925D01*
X38092Y-18894D01*
X38138Y-18793D01*
X38162Y-18685D01*
X38166Y-18574D01*
X38166Y-20407D01*
X37913Y-20300D01*
X37913Y-19010D01*
X37598Y-18695D01*
X37513Y-18780D01*
X37513Y-18610D01*
X37198Y-18295D01*
X37104Y-18326D01*
X37058Y-18427D01*
X37034Y-18535D01*
X37030Y-18646D01*
X37048Y-18756D01*
X37087Y-18860D01*
X37104Y-18894D01*
X37198Y-18925D01*
X37513Y-18610D01*
X37513Y-18780D01*
X37283Y-19010D01*
X37314Y-19104D01*
X37415Y-19150D01*
X37523Y-19174D01*
X37634Y-19178D01*
X37744Y-19160D01*
X37848Y-19121D01*
X37882Y-19104D01*
X37913Y-19010D01*
X37913Y-20300D01*
X37885Y-20289D01*
X37572Y-20225D01*
X37253Y-20223D01*
X36940Y-20283D01*
X36644Y-20402D01*
X36378Y-20576D01*
X36150Y-20800D01*
X36143Y-20810D01*
X36143Y-19072D01*
X36126Y-18973D01*
X36105Y-18918D01*
X36105Y-18063D01*
X36087Y-17972D01*
X36051Y-17886D01*
X36000Y-17808D01*
X35934Y-17742D01*
X35857Y-17690D01*
X35771Y-17654D01*
X35679Y-17635D01*
X35586Y-17635D01*
X35495Y-17652D01*
X35408Y-17687D01*
X35331Y-17738D01*
X35264Y-17804D01*
X35212Y-17880D01*
X35175Y-17966D01*
X35156Y-18057D01*
X35154Y-18150D01*
X35164Y-18207D01*
X34403Y-18968D01*
X33662Y-18227D01*
X33675Y-18173D01*
X33677Y-18061D01*
X33658Y-17965D01*
X33621Y-17874D01*
X33618Y-17870D01*
X34127Y-17870D01*
X34130Y-17870D01*
X34142Y-17868D01*
X34178Y-17866D01*
X34181Y-17865D01*
X34227Y-17851D01*
X34228Y-17850D01*
X34229Y-17850D01*
X34271Y-17828D01*
X34274Y-17827D01*
X34292Y-17811D01*
X34311Y-17797D01*
X34313Y-17794D01*
X34314Y-17794D01*
X35199Y-16908D01*
X35175Y-16966D01*
X35156Y-17057D01*
X35154Y-17150D01*
X35171Y-17242D01*
X35206Y-17329D01*
X35256Y-17407D01*
X35321Y-17474D01*
X35398Y-17527D01*
X35483Y-17564D01*
X35574Y-17584D01*
X35667Y-17586D01*
X35759Y-17570D01*
X35846Y-17536D01*
X35924Y-17486D01*
X35992Y-17422D01*
X36045Y-17345D01*
X36083Y-17260D01*
X36104Y-17169D01*
X36105Y-17063D01*
X36087Y-16972D01*
X36051Y-16886D01*
X36000Y-16808D01*
X35934Y-16742D01*
X35857Y-16690D01*
X35771Y-16654D01*
X35679Y-16635D01*
X35586Y-16635D01*
X35495Y-16652D01*
X35429Y-16678D01*
X35533Y-16574D01*
X35574Y-16584D01*
X35667Y-16586D01*
X35759Y-16570D01*
X35846Y-16536D01*
X35924Y-16486D01*
X35992Y-16422D01*
X36045Y-16345D01*
X36083Y-16260D01*
X36104Y-16169D01*
X36105Y-16063D01*
X36087Y-15972D01*
X36051Y-15886D01*
X36000Y-15808D01*
X35934Y-15742D01*
X35857Y-15690D01*
X35771Y-15654D01*
X35679Y-15635D01*
X35586Y-15635D01*
X35495Y-15652D01*
X35408Y-15687D01*
X35331Y-15738D01*
X35264Y-15804D01*
X35212Y-15880D01*
X35175Y-15966D01*
X35156Y-16057D01*
X35154Y-16150D01*
X35164Y-16207D01*
X34949Y-16422D01*
X34949Y-16061D01*
X34930Y-15965D01*
X34893Y-15874D01*
X34838Y-15792D01*
X34769Y-15723D01*
X34688Y-15668D01*
X34598Y-15630D01*
X34502Y-15610D01*
X34403Y-15610D01*
X34307Y-15628D01*
X34216Y-15665D01*
X34134Y-15718D01*
X34064Y-15787D01*
X34009Y-15868D01*
X33970Y-15958D01*
X33950Y-16054D01*
X33948Y-16152D01*
X33966Y-16248D01*
X34002Y-16340D01*
X34055Y-16422D01*
X34123Y-16493D01*
X34204Y-16549D01*
X34294Y-16588D01*
X34389Y-16609D01*
X34488Y-16611D01*
X34584Y-16594D01*
X34675Y-16558D01*
X34758Y-16506D01*
X34829Y-16438D01*
X34886Y-16358D01*
X34926Y-16269D01*
X34947Y-16173D01*
X34949Y-16061D01*
X34949Y-16422D01*
X34022Y-17350D01*
X33617Y-17350D01*
X33654Y-17269D01*
X33675Y-17173D01*
X33677Y-17061D01*
X33658Y-16965D01*
X33621Y-16874D01*
X33566Y-16792D01*
X33497Y-16723D01*
X33416Y-16668D01*
X33326Y-16630D01*
X33230Y-16610D01*
X33131Y-16610D01*
X33035Y-16628D01*
X32944Y-16665D01*
X32862Y-16718D01*
X32792Y-16787D01*
X32737Y-16868D01*
X32698Y-16958D01*
X32678Y-17054D01*
X32676Y-17152D01*
X32676Y-16790D01*
X32668Y-16752D01*
X32653Y-16716D01*
X32632Y-16683D01*
X32604Y-16656D01*
X32572Y-16634D01*
X32548Y-16624D01*
X33284Y-15888D01*
X33286Y-15886D01*
X33291Y-15879D01*
X33317Y-15849D01*
X33318Y-15846D01*
X33341Y-15804D01*
X33341Y-15803D01*
X33342Y-15802D01*
X33356Y-15756D01*
X33357Y-15754D01*
X33358Y-15735D01*
X33362Y-15706D01*
X33362Y-15702D01*
X33362Y-14796D01*
X33411Y-14766D01*
X33482Y-14698D01*
X33539Y-14618D01*
X33579Y-14529D01*
X33600Y-14433D01*
X33602Y-14321D01*
X33583Y-14225D01*
X33546Y-14134D01*
X33491Y-14052D01*
X33422Y-13983D01*
X33341Y-13928D01*
X33251Y-13890D01*
X33155Y-13870D01*
X33056Y-13870D01*
X32960Y-13888D01*
X32869Y-13925D01*
X32787Y-13978D01*
X32717Y-14047D01*
X32662Y-14128D01*
X32623Y-14218D01*
X32603Y-14314D01*
X32601Y-14412D01*
X32619Y-14508D01*
X32655Y-14600D01*
X32708Y-14682D01*
X32776Y-14753D01*
X32842Y-14798D01*
X32842Y-15594D01*
X31995Y-16441D01*
X31993Y-16443D01*
X31987Y-16449D01*
X31962Y-16480D01*
X31938Y-16525D01*
X31937Y-16525D01*
X31937Y-15998D01*
X31937Y-15995D01*
X31935Y-15983D01*
X31933Y-15947D01*
X31932Y-15944D01*
X31918Y-15898D01*
X31917Y-15896D01*
X31895Y-15853D01*
X31894Y-15851D01*
X31884Y-15839D01*
X31864Y-15814D01*
X31861Y-15811D01*
X29738Y-13688D01*
X29736Y-13686D01*
X29729Y-13680D01*
X29699Y-13655D01*
X29654Y-13631D01*
X29653Y-13630D01*
X29652Y-13630D01*
X29604Y-13615D01*
X29569Y-13611D01*
X29556Y-13610D01*
X29553Y-13610D01*
X29552Y-13610D01*
X28093Y-13610D01*
X28090Y-13610D01*
X28078Y-13611D01*
X28042Y-13614D01*
X27993Y-13629D01*
X27991Y-13629D01*
X27991Y-13630D01*
X27946Y-13653D01*
X27927Y-13668D01*
X27909Y-13683D01*
X27906Y-13686D01*
X27708Y-13883D01*
X27643Y-13870D01*
X27544Y-13870D01*
X27448Y-13888D01*
X27357Y-13925D01*
X27275Y-13978D01*
X27205Y-14047D01*
X27150Y-14128D01*
X27111Y-14218D01*
X27091Y-14314D01*
X27089Y-14412D01*
X27107Y-14508D01*
X27143Y-14600D01*
X27196Y-14682D01*
X27264Y-14753D01*
X27345Y-14809D01*
X27435Y-14848D01*
X27530Y-14869D01*
X27629Y-14871D01*
X27725Y-14854D01*
X27816Y-14818D01*
X27899Y-14766D01*
X27970Y-14698D01*
X28027Y-14618D01*
X28067Y-14529D01*
X28088Y-14433D01*
X28090Y-14321D01*
X28076Y-14251D01*
X28198Y-14130D01*
X28575Y-14130D01*
X28530Y-14153D01*
X28499Y-14179D01*
X28493Y-14184D01*
X28491Y-14186D01*
X28490Y-14187D01*
X26606Y-16069D01*
X26530Y-16018D01*
X26438Y-15979D01*
X26340Y-15959D01*
X26241Y-15959D01*
X26143Y-15977D01*
X26050Y-16015D01*
X25967Y-16069D01*
X25896Y-16139D01*
X25840Y-16221D01*
X25800Y-16313D01*
X25787Y-16375D01*
X25776Y-16319D01*
X25738Y-16227D01*
X25682Y-16144D01*
X25612Y-16074D01*
X25547Y-16029D01*
X25547Y-15979D01*
X25547Y-15977D01*
X25542Y-15928D01*
X25542Y-15926D01*
X25533Y-15898D01*
X25528Y-15880D01*
X25527Y-15878D01*
X25505Y-15835D01*
X25504Y-15833D01*
X25493Y-15820D01*
X25473Y-15795D01*
X25471Y-15794D01*
X25434Y-15762D01*
X25432Y-15761D01*
X25426Y-15758D01*
X25389Y-15738D01*
X25388Y-15737D01*
X25339Y-15722D01*
X25305Y-15718D01*
X24075Y-14488D01*
X24088Y-14433D01*
X24090Y-14321D01*
X24071Y-14225D01*
X24034Y-14134D01*
X23979Y-14052D01*
X23910Y-13983D01*
X23829Y-13928D01*
X23739Y-13890D01*
X23643Y-13870D01*
X23544Y-13870D01*
X23448Y-13888D01*
X23357Y-13925D01*
X23275Y-13978D01*
X23205Y-14047D01*
X23150Y-14128D01*
X23111Y-14218D01*
X23091Y-14314D01*
X23089Y-14412D01*
X23107Y-14508D01*
X23143Y-14600D01*
X23196Y-14682D01*
X23264Y-14753D01*
X23345Y-14809D01*
X23435Y-14848D01*
X23530Y-14869D01*
X23629Y-14871D01*
X23709Y-14856D01*
X24944Y-16091D01*
X24896Y-16139D01*
X24840Y-16221D01*
X24800Y-16313D01*
X24787Y-16375D01*
X24776Y-16319D01*
X24738Y-16227D01*
X24682Y-16144D01*
X24612Y-16074D01*
X24530Y-16018D01*
X24438Y-15979D01*
X24340Y-15959D01*
X24241Y-15959D01*
X24143Y-15977D01*
X24050Y-16015D01*
X23967Y-16069D01*
X23896Y-16139D01*
X23840Y-16221D01*
X23800Y-16313D01*
X23780Y-16410D01*
X23778Y-16510D01*
X23779Y-16803D01*
X23798Y-16901D01*
X23836Y-16993D01*
X23892Y-17076D01*
X23962Y-17146D01*
X24044Y-17202D01*
X24136Y-17241D01*
X24234Y-17261D01*
X24333Y-17261D01*
X24431Y-17243D01*
X24524Y-17205D01*
X24607Y-17151D01*
X24678Y-17081D01*
X24734Y-16999D01*
X24774Y-16907D01*
X24786Y-16844D01*
X24798Y-16901D01*
X24836Y-16993D01*
X24892Y-17076D01*
X24962Y-17146D01*
X25044Y-17202D01*
X25136Y-17241D01*
X25234Y-17261D01*
X25333Y-17261D01*
X25431Y-17243D01*
X25524Y-17205D01*
X25607Y-17151D01*
X25678Y-17081D01*
X25734Y-16999D01*
X25774Y-16907D01*
X25786Y-16844D01*
X25798Y-16901D01*
X25836Y-16993D01*
X25892Y-17076D01*
X25962Y-17146D01*
X26044Y-17202D01*
X26136Y-17241D01*
X26234Y-17261D01*
X26333Y-17261D01*
X26431Y-17243D01*
X26524Y-17205D01*
X26607Y-17151D01*
X26678Y-17081D01*
X26734Y-16999D01*
X26774Y-16907D01*
X26781Y-16869D01*
X26791Y-16868D01*
X26798Y-16901D01*
X26836Y-16993D01*
X26892Y-17076D01*
X26962Y-17146D01*
X27044Y-17202D01*
X27136Y-17241D01*
X27234Y-17261D01*
X27333Y-17261D01*
X27431Y-17243D01*
X27524Y-17205D01*
X27607Y-17151D01*
X27678Y-17081D01*
X27734Y-16999D01*
X27754Y-16952D01*
X28480Y-17677D01*
X28480Y-19682D01*
X28425Y-19718D01*
X28355Y-19787D01*
X28300Y-19868D01*
X28261Y-19958D01*
X28241Y-20054D01*
X28239Y-20152D01*
X28257Y-20248D01*
X28293Y-20340D01*
X28346Y-20422D01*
X28414Y-20493D01*
X28495Y-20549D01*
X28585Y-20588D01*
X28680Y-20609D01*
X28779Y-20611D01*
X28875Y-20594D01*
X28966Y-20558D01*
X29049Y-20506D01*
X29120Y-20438D01*
X29177Y-20358D01*
X29217Y-20269D01*
X29238Y-20173D01*
X29240Y-20061D01*
X29240Y-16061D01*
X29221Y-15965D01*
X29184Y-15874D01*
X29129Y-15792D01*
X29060Y-15723D01*
X28979Y-15668D01*
X28889Y-15630D01*
X28793Y-15610D01*
X28694Y-15610D01*
X28598Y-15628D01*
X28507Y-15665D01*
X28425Y-15718D01*
X28355Y-15787D01*
X28300Y-15868D01*
X28261Y-15958D01*
X28241Y-16054D01*
X28239Y-16152D01*
X28257Y-16248D01*
X28293Y-16340D01*
X28346Y-16422D01*
X28414Y-16493D01*
X28495Y-16549D01*
X28585Y-16588D01*
X28680Y-16609D01*
X28779Y-16611D01*
X28875Y-16594D01*
X28966Y-16558D01*
X29049Y-16506D01*
X29120Y-16438D01*
X29177Y-16358D01*
X29217Y-16269D01*
X29238Y-16173D01*
X29240Y-16061D01*
X29240Y-20061D01*
X29221Y-19965D01*
X29184Y-19874D01*
X29129Y-19792D01*
X29060Y-19723D01*
X29000Y-19682D01*
X29000Y-17572D01*
X29000Y-17570D01*
X28999Y-17562D01*
X28996Y-17521D01*
X28995Y-17519D01*
X28981Y-17473D01*
X28980Y-17471D01*
X28957Y-17426D01*
X28930Y-17395D01*
X28926Y-17389D01*
X28924Y-17387D01*
X28923Y-17386D01*
X27966Y-16428D01*
X27965Y-16427D01*
X27964Y-16426D01*
X27957Y-16420D01*
X27927Y-16395D01*
X27882Y-16371D01*
X27881Y-16370D01*
X27880Y-16370D01*
X27832Y-16355D01*
X27797Y-16351D01*
X27784Y-16350D01*
X27782Y-16350D01*
X27776Y-16319D01*
X27738Y-16227D01*
X27682Y-16144D01*
X27612Y-16074D01*
X27530Y-16018D01*
X27438Y-15979D01*
X27433Y-15978D01*
X28718Y-14692D01*
X28776Y-14753D01*
X28857Y-14809D01*
X28947Y-14848D01*
X29042Y-14869D01*
X29141Y-14871D01*
X29237Y-14854D01*
X29328Y-14818D01*
X29411Y-14766D01*
X29482Y-14698D01*
X29539Y-14618D01*
X29579Y-14529D01*
X29600Y-14433D01*
X29602Y-14321D01*
X29593Y-14279D01*
X31417Y-16103D01*
X31417Y-17573D01*
X31417Y-17576D01*
X31418Y-17588D01*
X31421Y-17624D01*
X31422Y-17627D01*
X31436Y-17673D01*
X31436Y-17674D01*
X31437Y-17675D01*
X31460Y-17720D01*
X31475Y-17738D01*
X31490Y-17757D01*
X31493Y-17760D01*
X31525Y-17792D01*
X31527Y-17794D01*
X31533Y-17799D01*
X31564Y-17825D01*
X31567Y-17826D01*
X31609Y-17849D01*
X31611Y-17850D01*
X31657Y-17864D01*
X31659Y-17865D01*
X31677Y-17866D01*
X31707Y-17870D01*
X31711Y-17870D01*
X31736Y-17870D01*
X31698Y-17958D01*
X31678Y-18054D01*
X31676Y-18152D01*
X31694Y-18248D01*
X31730Y-18340D01*
X31783Y-18422D01*
X31851Y-18493D01*
X31932Y-18549D01*
X32022Y-18588D01*
X32117Y-18609D01*
X32166Y-18610D01*
X32131Y-18610D01*
X32035Y-18628D01*
X31944Y-18665D01*
X31862Y-18718D01*
X31792Y-18787D01*
X31737Y-18868D01*
X31698Y-18958D01*
X31678Y-19054D01*
X31676Y-19152D01*
X31694Y-19248D01*
X31730Y-19340D01*
X31783Y-19422D01*
X31851Y-19493D01*
X31932Y-19549D01*
X32022Y-19588D01*
X32117Y-19609D01*
X32216Y-19611D01*
X32295Y-19596D01*
X32842Y-20143D01*
X32842Y-21422D01*
X32787Y-21458D01*
X32717Y-21527D01*
X32662Y-21608D01*
X32623Y-21698D01*
X32603Y-21794D01*
X32601Y-21892D01*
X32619Y-21988D01*
X32655Y-22080D01*
X32708Y-22162D01*
X32776Y-22233D01*
X32857Y-22289D01*
X32947Y-22328D01*
X33042Y-22349D01*
X33141Y-22351D01*
X33237Y-22334D01*
X33328Y-22298D01*
X33411Y-22246D01*
X33482Y-22178D01*
X33539Y-22098D01*
X33579Y-22009D01*
X33600Y-21913D01*
X33602Y-21801D01*
X33583Y-21705D01*
X33546Y-21614D01*
X33491Y-21532D01*
X33422Y-21463D01*
X33362Y-21422D01*
X33362Y-20038D01*
X33362Y-20035D01*
X33360Y-20023D01*
X33358Y-19987D01*
X33357Y-19984D01*
X33343Y-19938D01*
X33342Y-19936D01*
X33320Y-19893D01*
X33319Y-19891D01*
X33309Y-19879D01*
X33289Y-19854D01*
X33286Y-19851D01*
X33071Y-19636D01*
X33109Y-19645D01*
X33214Y-19647D01*
X33318Y-19630D01*
X33416Y-19592D01*
X33444Y-19579D01*
X33471Y-19489D01*
X33205Y-19223D01*
X33177Y-19195D01*
X33092Y-19110D01*
X33064Y-19082D01*
X32798Y-18816D01*
X32708Y-18843D01*
X32666Y-18940D01*
X32658Y-18965D01*
X32621Y-18874D01*
X32566Y-18792D01*
X32497Y-18723D01*
X32416Y-18668D01*
X32326Y-18630D01*
X32230Y-18610D01*
X32221Y-18610D01*
X32312Y-18594D01*
X32403Y-18558D01*
X32486Y-18506D01*
X32557Y-18438D01*
X32614Y-18358D01*
X32654Y-18269D01*
X32675Y-18173D01*
X32677Y-18061D01*
X32676Y-18152D01*
X32694Y-18248D01*
X32730Y-18340D01*
X32783Y-18422D01*
X32851Y-18493D01*
X32932Y-18549D01*
X33022Y-18588D01*
X33034Y-18590D01*
X32938Y-18628D01*
X32910Y-18641D01*
X32883Y-18731D01*
X33149Y-18997D01*
X33177Y-19025D01*
X33262Y-19110D01*
X33290Y-19138D01*
X33556Y-19404D01*
X33646Y-19377D01*
X33688Y-19280D01*
X33712Y-19178D01*
X33714Y-19073D01*
X33702Y-19003D01*
X34172Y-19473D01*
X34174Y-19475D01*
X34180Y-19480D01*
X34189Y-19487D01*
X34189Y-19682D01*
X34134Y-19718D01*
X34064Y-19787D01*
X34009Y-19868D01*
X33970Y-19958D01*
X33950Y-20054D01*
X33948Y-20152D01*
X33966Y-20248D01*
X34002Y-20340D01*
X34055Y-20422D01*
X34123Y-20493D01*
X34204Y-20549D01*
X34294Y-20588D01*
X34389Y-20609D01*
X34488Y-20611D01*
X34584Y-20594D01*
X34675Y-20558D01*
X34758Y-20506D01*
X34829Y-20438D01*
X34886Y-20358D01*
X34926Y-20269D01*
X34947Y-20173D01*
X34949Y-20061D01*
X34930Y-19965D01*
X34893Y-19874D01*
X34838Y-19792D01*
X34769Y-19723D01*
X34709Y-19682D01*
X34709Y-19399D01*
X35135Y-18972D01*
X35119Y-19048D01*
X35117Y-19148D01*
X35134Y-19247D01*
X35170Y-19341D01*
X35182Y-19362D01*
X35269Y-19386D01*
X35517Y-19138D01*
X35545Y-19110D01*
X35630Y-19025D01*
X35658Y-18997D01*
X35906Y-18749D01*
X35882Y-18662D01*
X35791Y-18621D01*
X35692Y-18599D01*
X35592Y-18597D01*
X35494Y-18613D01*
X35533Y-18574D01*
X35574Y-18584D01*
X35667Y-18586D01*
X35759Y-18570D01*
X35846Y-18536D01*
X35924Y-18486D01*
X35992Y-18422D01*
X36045Y-18345D01*
X36083Y-18260D01*
X36104Y-18169D01*
X36105Y-18063D01*
X36105Y-18918D01*
X36090Y-18879D01*
X36078Y-18858D01*
X35991Y-18834D01*
X35715Y-19110D01*
X35991Y-19386D01*
X36078Y-19362D01*
X36119Y-19271D01*
X36141Y-19172D01*
X36143Y-19072D01*
X36143Y-20810D01*
X36104Y-20867D01*
X36104Y-20405D01*
X36104Y-20366D01*
X36104Y-19815D01*
X36096Y-19777D01*
X36081Y-19741D01*
X36060Y-19708D01*
X36032Y-19681D01*
X36000Y-19659D01*
X35964Y-19644D01*
X35925Y-19636D01*
X35906Y-19636D01*
X35906Y-19471D01*
X35630Y-19195D01*
X35354Y-19471D01*
X35378Y-19558D01*
X35469Y-19599D01*
X35568Y-19621D01*
X35668Y-19623D01*
X35767Y-19606D01*
X35861Y-19570D01*
X35882Y-19558D01*
X35906Y-19471D01*
X35906Y-19636D01*
X35886Y-19636D01*
X35335Y-19636D01*
X35297Y-19644D01*
X35261Y-19659D01*
X35228Y-19680D01*
X35201Y-19708D01*
X35179Y-19740D01*
X35164Y-19776D01*
X35156Y-19815D01*
X35156Y-19854D01*
X35156Y-20405D01*
X35164Y-20443D01*
X35179Y-20479D01*
X35200Y-20512D01*
X35228Y-20539D01*
X35260Y-20561D01*
X35296Y-20576D01*
X35335Y-20584D01*
X35374Y-20584D01*
X35925Y-20584D01*
X35963Y-20576D01*
X35999Y-20561D01*
X36032Y-20540D01*
X36059Y-20512D01*
X36081Y-20480D01*
X36096Y-20444D01*
X36104Y-20405D01*
X36104Y-20867D01*
X35970Y-21063D01*
X35844Y-21356D01*
X35777Y-21667D01*
X35773Y-21986D01*
X35830Y-22300D01*
X35948Y-22596D01*
X36120Y-22864D01*
X36342Y-23094D01*
X36422Y-23150D01*
X30828Y-23150D01*
X30828Y-18072D01*
X30811Y-17973D01*
X30790Y-17918D01*
X30790Y-17063D01*
X30772Y-16972D01*
X30736Y-16886D01*
X30685Y-16808D01*
X30619Y-16742D01*
X30542Y-16690D01*
X30456Y-16654D01*
X30364Y-16635D01*
X30271Y-16635D01*
X30180Y-16652D01*
X30093Y-16687D01*
X30016Y-16738D01*
X29949Y-16804D01*
X29897Y-16880D01*
X29860Y-16966D01*
X29841Y-17057D01*
X29839Y-17150D01*
X29856Y-17242D01*
X29891Y-17329D01*
X29941Y-17407D01*
X30006Y-17474D01*
X30083Y-17527D01*
X30168Y-17564D01*
X30259Y-17584D01*
X30352Y-17586D01*
X30444Y-17570D01*
X30531Y-17536D01*
X30609Y-17486D01*
X30677Y-17422D01*
X30730Y-17345D01*
X30768Y-17260D01*
X30789Y-17169D01*
X30790Y-17063D01*
X30790Y-17918D01*
X30775Y-17879D01*
X30763Y-17858D01*
X30676Y-17834D01*
X30591Y-17919D01*
X30591Y-17749D01*
X30567Y-17662D01*
X30476Y-17621D01*
X30377Y-17599D01*
X30277Y-17597D01*
X30178Y-17614D01*
X30084Y-17650D01*
X30063Y-17662D01*
X30039Y-17749D01*
X30315Y-18025D01*
X30591Y-17749D01*
X30591Y-17919D01*
X30400Y-18110D01*
X30676Y-18386D01*
X30763Y-18362D01*
X30804Y-18271D01*
X30826Y-18172D01*
X30828Y-18072D01*
X30828Y-23150D01*
X30789Y-23150D01*
X30789Y-19405D01*
X30789Y-19366D01*
X30789Y-18815D01*
X30781Y-18777D01*
X30766Y-18741D01*
X30745Y-18708D01*
X30717Y-18681D01*
X30685Y-18659D01*
X30649Y-18644D01*
X30610Y-18636D01*
X30591Y-18636D01*
X30591Y-18471D01*
X30315Y-18195D01*
X30230Y-18280D01*
X30230Y-18110D01*
X29954Y-17834D01*
X29867Y-17858D01*
X29826Y-17949D01*
X29804Y-18048D01*
X29802Y-18148D01*
X29819Y-18247D01*
X29855Y-18341D01*
X29867Y-18362D01*
X29954Y-18386D01*
X30230Y-18110D01*
X30230Y-18280D01*
X30039Y-18471D01*
X30063Y-18558D01*
X30154Y-18599D01*
X30253Y-18621D01*
X30353Y-18623D01*
X30452Y-18606D01*
X30546Y-18570D01*
X30567Y-18558D01*
X30591Y-18471D01*
X30591Y-18636D01*
X30571Y-18636D01*
X30020Y-18636D01*
X29982Y-18644D01*
X29946Y-18659D01*
X29913Y-18680D01*
X29886Y-18708D01*
X29864Y-18740D01*
X29849Y-18776D01*
X29841Y-18815D01*
X29841Y-18854D01*
X29841Y-19405D01*
X29849Y-19443D01*
X29864Y-19479D01*
X29885Y-19512D01*
X29913Y-19539D01*
X29945Y-19561D01*
X29981Y-19576D01*
X30020Y-19584D01*
X30059Y-19584D01*
X30610Y-19584D01*
X30648Y-19576D01*
X30684Y-19561D01*
X30717Y-19540D01*
X30744Y-19512D01*
X30766Y-19480D01*
X30781Y-19444D01*
X30789Y-19405D01*
X30789Y-23150D01*
X29602Y-23150D01*
X29602Y-21801D01*
X29583Y-21705D01*
X29546Y-21614D01*
X29491Y-21532D01*
X29422Y-21463D01*
X29341Y-21408D01*
X29251Y-21370D01*
X29155Y-21350D01*
X29056Y-21350D01*
X28960Y-21368D01*
X28869Y-21405D01*
X28787Y-21458D01*
X28717Y-21527D01*
X28662Y-21608D01*
X28623Y-21698D01*
X28603Y-21794D01*
X28601Y-21892D01*
X28619Y-21988D01*
X28655Y-22080D01*
X28708Y-22162D01*
X28776Y-22233D01*
X28857Y-22289D01*
X28947Y-22328D01*
X29042Y-22349D01*
X29141Y-22351D01*
X29237Y-22334D01*
X29328Y-22298D01*
X29411Y-22246D01*
X29482Y-22178D01*
X29539Y-22098D01*
X29579Y-22009D01*
X29600Y-21913D01*
X29602Y-21801D01*
X29602Y-23150D01*
X28091Y-23150D01*
X28091Y-21801D01*
X28072Y-21705D01*
X28035Y-21614D01*
X27980Y-21532D01*
X27911Y-21463D01*
X27837Y-21412D01*
X27837Y-19760D01*
X27837Y-19670D01*
X27837Y-19550D01*
X27837Y-19460D01*
X27825Y-19353D01*
X27792Y-19251D01*
X27740Y-19157D01*
X27671Y-19075D01*
X27587Y-19008D01*
X27492Y-18959D01*
X27432Y-18940D01*
X27347Y-18984D01*
X27347Y-19550D01*
X27837Y-19550D01*
X27837Y-19670D01*
X27347Y-19670D01*
X27347Y-20236D01*
X27432Y-20280D01*
X27492Y-20261D01*
X27587Y-20212D01*
X27671Y-20145D01*
X27740Y-20063D01*
X27792Y-19969D01*
X27825Y-19867D01*
X27837Y-19760D01*
X27837Y-21412D01*
X27830Y-21408D01*
X27740Y-21370D01*
X27644Y-21350D01*
X27545Y-21350D01*
X27449Y-21368D01*
X27358Y-21405D01*
X27276Y-21458D01*
X27206Y-21527D01*
X27163Y-21590D01*
X26634Y-21590D01*
X25305Y-20261D01*
X25333Y-20261D01*
X25431Y-20243D01*
X25524Y-20205D01*
X25607Y-20151D01*
X25678Y-20081D01*
X25734Y-19999D01*
X25774Y-19907D01*
X25786Y-19844D01*
X25798Y-19901D01*
X25836Y-19993D01*
X25892Y-20076D01*
X25962Y-20146D01*
X26044Y-20202D01*
X26136Y-20241D01*
X26234Y-20261D01*
X26333Y-20261D01*
X26431Y-20243D01*
X26524Y-20205D01*
X26607Y-20151D01*
X26678Y-20081D01*
X26734Y-19999D01*
X26767Y-19922D01*
X26782Y-19969D01*
X26834Y-20063D01*
X26903Y-20145D01*
X26987Y-20212D01*
X27082Y-20261D01*
X27142Y-20280D01*
X27227Y-20236D01*
X27227Y-19710D01*
X27227Y-19670D01*
X27227Y-19550D01*
X27227Y-19510D01*
X27227Y-18984D01*
X27142Y-18940D01*
X27082Y-18959D01*
X26987Y-19008D01*
X26903Y-19075D01*
X26834Y-19157D01*
X26782Y-19251D01*
X26767Y-19297D01*
X26738Y-19227D01*
X26682Y-19144D01*
X26612Y-19074D01*
X26530Y-19018D01*
X26438Y-18979D01*
X26340Y-18959D01*
X26241Y-18959D01*
X26143Y-18977D01*
X26050Y-19015D01*
X25967Y-19069D01*
X25896Y-19139D01*
X25840Y-19221D01*
X25800Y-19313D01*
X25787Y-19375D01*
X25776Y-19319D01*
X25738Y-19227D01*
X25682Y-19144D01*
X25612Y-19074D01*
X25530Y-19018D01*
X25438Y-18979D01*
X25340Y-18959D01*
X25241Y-18959D01*
X25143Y-18977D01*
X25050Y-19015D01*
X24967Y-19069D01*
X24896Y-19139D01*
X24840Y-19221D01*
X24800Y-19313D01*
X24796Y-19332D01*
X24796Y-19140D01*
X24788Y-19102D01*
X24773Y-19066D01*
X24752Y-19033D01*
X24724Y-19006D01*
X24692Y-18984D01*
X24656Y-18969D01*
X24617Y-18961D01*
X24578Y-18961D01*
X23957Y-18961D01*
X23919Y-18969D01*
X23883Y-18984D01*
X23850Y-19005D01*
X23823Y-19033D01*
X23801Y-19065D01*
X23786Y-19101D01*
X23778Y-19140D01*
X23778Y-19179D01*
X23778Y-20080D01*
X23786Y-20118D01*
X23801Y-20154D01*
X23822Y-20187D01*
X23850Y-20214D01*
X23882Y-20236D01*
X23918Y-20251D01*
X23957Y-20259D01*
X23996Y-20259D01*
X24573Y-20259D01*
X24578Y-20265D01*
X24593Y-20284D01*
X24596Y-20287D01*
X26337Y-22027D01*
X26341Y-22032D01*
X26343Y-22033D01*
X26380Y-22065D01*
X26382Y-22066D01*
X26425Y-22089D01*
X26427Y-22089D01*
X26457Y-22099D01*
X26473Y-22104D01*
X26475Y-22105D01*
X26493Y-22106D01*
X26523Y-22110D01*
X26527Y-22110D01*
X27163Y-22110D01*
X27197Y-22162D01*
X27265Y-22233D01*
X27346Y-22289D01*
X27436Y-22328D01*
X27531Y-22349D01*
X27630Y-22351D01*
X27726Y-22334D01*
X27817Y-22298D01*
X27900Y-22246D01*
X27971Y-22178D01*
X28028Y-22098D01*
X28068Y-22009D01*
X28089Y-21913D01*
X28091Y-21801D01*
X28091Y-23150D01*
X24091Y-23150D01*
X24091Y-21801D01*
X24072Y-21705D01*
X24035Y-21614D01*
X23980Y-21532D01*
X23911Y-21463D01*
X23851Y-21422D01*
X23851Y-21368D01*
X23851Y-21366D01*
X23850Y-21357D01*
X23847Y-21318D01*
X23846Y-21315D01*
X23832Y-21269D01*
X23831Y-21267D01*
X23808Y-21222D01*
X23781Y-21191D01*
X23777Y-21185D01*
X23775Y-21183D01*
X23775Y-21182D01*
X23348Y-20755D01*
X23348Y-18572D01*
X23331Y-18473D01*
X23295Y-18379D01*
X23283Y-18358D01*
X23196Y-18334D01*
X22920Y-18610D01*
X23196Y-18886D01*
X23283Y-18862D01*
X23324Y-18771D01*
X23346Y-18672D01*
X23348Y-18572D01*
X23348Y-20755D01*
X23111Y-20518D01*
X23111Y-18971D01*
X22835Y-18695D01*
X22559Y-18971D01*
X22583Y-19058D01*
X22674Y-19099D01*
X22773Y-19121D01*
X22873Y-19123D01*
X22972Y-19106D01*
X23066Y-19070D01*
X23087Y-19058D01*
X23111Y-18971D01*
X23111Y-20518D01*
X21734Y-19141D01*
X21734Y-19078D01*
X22340Y-18472D01*
X22324Y-18548D01*
X22322Y-18648D01*
X22339Y-18747D01*
X22375Y-18841D01*
X22387Y-18862D01*
X22474Y-18886D01*
X22722Y-18638D01*
X22750Y-18610D01*
X22835Y-18525D01*
X22863Y-18497D01*
X23111Y-18249D01*
X23087Y-18162D01*
X22996Y-18121D01*
X22897Y-18099D01*
X22797Y-18097D01*
X22699Y-18113D01*
X22738Y-18074D01*
X22779Y-18084D01*
X22872Y-18086D01*
X22964Y-18070D01*
X23051Y-18036D01*
X23129Y-17986D01*
X23197Y-17922D01*
X23250Y-17845D01*
X23288Y-17760D01*
X23309Y-17669D01*
X23310Y-17563D01*
X23292Y-17472D01*
X23256Y-17386D01*
X23205Y-17308D01*
X23139Y-17242D01*
X23062Y-17190D01*
X22976Y-17154D01*
X22884Y-17135D01*
X22791Y-17135D01*
X22700Y-17152D01*
X22613Y-17187D01*
X22536Y-17238D01*
X22469Y-17304D01*
X22417Y-17380D01*
X22380Y-17466D01*
X22361Y-17557D01*
X22359Y-17650D01*
X22369Y-17707D01*
X21773Y-18303D01*
X21683Y-18392D01*
X21664Y-18373D01*
X21708Y-18362D01*
X21749Y-18271D01*
X21771Y-18172D01*
X21773Y-18072D01*
X21756Y-17973D01*
X21734Y-17915D01*
X21734Y-17405D01*
X21734Y-17366D01*
X21734Y-16815D01*
X21726Y-16777D01*
X21711Y-16741D01*
X21690Y-16708D01*
X21662Y-16681D01*
X21630Y-16659D01*
X21594Y-16644D01*
X21555Y-16636D01*
X21516Y-16636D01*
X20965Y-16636D01*
X20927Y-16644D01*
X20891Y-16659D01*
X20858Y-16680D01*
X20831Y-16708D01*
X20809Y-16740D01*
X20794Y-16776D01*
X20786Y-16815D01*
X20786Y-16854D01*
X20786Y-17405D01*
X20794Y-17443D01*
X20809Y-17479D01*
X20830Y-17512D01*
X20858Y-17539D01*
X20890Y-17561D01*
X20926Y-17576D01*
X20965Y-17584D01*
X21004Y-17584D01*
X21555Y-17584D01*
X21593Y-17576D01*
X21629Y-17561D01*
X21662Y-17540D01*
X21689Y-17512D01*
X21711Y-17480D01*
X21726Y-17444D01*
X21734Y-17405D01*
X21734Y-17915D01*
X21720Y-17879D01*
X21708Y-17858D01*
X21621Y-17834D01*
X21536Y-17919D01*
X21536Y-17749D01*
X21512Y-17662D01*
X21421Y-17621D01*
X21322Y-17599D01*
X21222Y-17597D01*
X21123Y-17614D01*
X21029Y-17650D01*
X21008Y-17662D01*
X20984Y-17749D01*
X21260Y-18025D01*
X21536Y-17749D01*
X21536Y-17919D01*
X21373Y-18082D01*
X21345Y-18110D01*
X21260Y-18195D01*
X21232Y-18223D01*
X21175Y-18280D01*
X21175Y-18110D01*
X20899Y-17834D01*
X20812Y-17858D01*
X20771Y-17949D01*
X20749Y-18048D01*
X20747Y-18148D01*
X20764Y-18247D01*
X20800Y-18341D01*
X20812Y-18362D01*
X20899Y-18386D01*
X21175Y-18110D01*
X21175Y-18280D01*
X20984Y-18471D01*
X21008Y-18558D01*
X21099Y-18599D01*
X21198Y-18621D01*
X21298Y-18623D01*
X21397Y-18606D01*
X21491Y-18570D01*
X21512Y-18558D01*
X21523Y-18514D01*
X21536Y-18527D01*
X21542Y-18533D01*
X21536Y-18540D01*
X21416Y-18660D01*
X21401Y-18654D01*
X21309Y-18635D01*
X21216Y-18635D01*
X21125Y-18652D01*
X21038Y-18687D01*
X20961Y-18738D01*
X20894Y-18804D01*
X20842Y-18880D01*
X20805Y-18966D01*
X20786Y-19057D01*
X20784Y-19150D01*
X20801Y-19242D01*
X20836Y-19329D01*
X20886Y-19407D01*
X20951Y-19474D01*
X21028Y-19527D01*
X21113Y-19564D01*
X21204Y-19584D01*
X21297Y-19586D01*
X21389Y-19570D01*
X21416Y-19559D01*
X23299Y-21442D01*
X23276Y-21458D01*
X23206Y-21527D01*
X23151Y-21608D01*
X23112Y-21698D01*
X23092Y-21794D01*
X23090Y-21892D01*
X23108Y-21988D01*
X23144Y-22080D01*
X23197Y-22162D01*
X23265Y-22233D01*
X23346Y-22289D01*
X23436Y-22328D01*
X23531Y-22349D01*
X23630Y-22351D01*
X23726Y-22334D01*
X23817Y-22298D01*
X23900Y-22246D01*
X23971Y-22178D01*
X24028Y-22098D01*
X24068Y-22009D01*
X24089Y-21913D01*
X24091Y-21801D01*
X24091Y-23150D01*
X22245Y-23150D01*
X22265Y-23138D01*
X22495Y-22918D01*
X22679Y-22657D01*
X22809Y-22366D01*
X22880Y-22055D01*
X22885Y-21691D01*
X22823Y-21378D01*
X22702Y-21083D01*
X22525Y-20818D01*
X22301Y-20591D01*
X22036Y-20413D01*
X21743Y-20289D01*
X21430Y-20225D01*
X21111Y-20223D01*
X20798Y-20283D01*
X20502Y-20402D01*
X20236Y-20576D01*
X20008Y-20800D01*
X19959Y-20871D01*
X19959Y-15354D01*
X19978Y-15384D01*
X20200Y-15614D01*
X20462Y-15796D01*
X20754Y-15924D01*
X21065Y-15992D01*
X21384Y-15999D01*
X21698Y-15944D01*
X21995Y-15828D01*
X22265Y-15658D01*
X22495Y-15438D01*
X22679Y-15177D01*
X22809Y-14886D01*
X22880Y-14575D01*
X22885Y-14211D01*
X22823Y-13898D01*
X22702Y-13603D01*
X22525Y-13338D01*
X22301Y-13111D01*
X22239Y-13070D01*
X36417Y-13070D01*
X36378Y-13096D01*
X36150Y-13320D01*
X35970Y-13583D01*
X35844Y-13876D01*
X35777Y-14187D01*
X35773Y-14506D01*
X35830Y-14820D01*
X35948Y-15116D01*
X36120Y-15384D01*
X36342Y-15614D01*
X36604Y-15796D01*
X36896Y-15924D01*
X37207Y-15992D01*
X37526Y-15999D01*
X37840Y-15944D01*
X38137Y-15828D01*
X38407Y-15658D01*
X38637Y-15438D01*
X38701Y-15347D01*
X38701Y-20868D01*
X38701Y-20868D01*
G37*
X38701Y-20868D02*
X38667Y-20818D01*
X38443Y-20591D01*
X38178Y-20413D01*
X38166Y-20407D01*
X38166Y-18574D01*
X38148Y-18464D01*
X38127Y-18408D01*
X38127Y-17558D01*
X38107Y-17456D01*
X38067Y-17360D01*
X38010Y-17274D01*
X37937Y-17200D01*
X37851Y-17142D01*
X37755Y-17102D01*
X37653Y-17081D01*
X37550Y-17081D01*
X37448Y-17100D01*
X37352Y-17139D01*
X37265Y-17196D01*
X37191Y-17268D01*
X37132Y-17354D01*
X37091Y-17449D01*
X37070Y-17551D01*
X37068Y-17655D01*
X37087Y-17757D01*
X37125Y-17853D01*
X37182Y-17940D01*
X37254Y-18015D01*
X37339Y-18074D01*
X37373Y-18089D01*
X37348Y-18099D01*
X37314Y-18116D01*
X37283Y-18210D01*
X37598Y-18525D01*
X37913Y-18210D01*
X37882Y-18116D01*
X37823Y-18089D01*
X37838Y-18084D01*
X37925Y-18029D01*
X38000Y-17957D01*
X38060Y-17872D01*
X38102Y-17778D01*
X38125Y-17676D01*
X38127Y-17558D01*
X38127Y-18408D01*
X38109Y-18360D01*
X38092Y-18326D01*
X37998Y-18295D01*
X37683Y-18610D01*
X37998Y-18925D01*
X38092Y-18894D01*
X38138Y-18793D01*
X38162Y-18685D01*
X38166Y-18574D01*
X38166Y-20407D01*
X37913Y-20300D01*
X37913Y-19010D01*
X37598Y-18695D01*
X37513Y-18780D01*
X37513Y-18610D01*
X37198Y-18295D01*
X37104Y-18326D01*
X37058Y-18427D01*
X37034Y-18535D01*
X37030Y-18646D01*
X37048Y-18756D01*
X37087Y-18860D01*
X37104Y-18894D01*
X37198Y-18925D01*
X37513Y-18610D01*
X37513Y-18780D01*
X37283Y-19010D01*
X37314Y-19104D01*
X37415Y-19150D01*
X37523Y-19174D01*
X37634Y-19178D01*
X37744Y-19160D01*
X37848Y-19121D01*
X37882Y-19104D01*
X37913Y-19010D01*
X37913Y-20300D01*
X37885Y-20289D01*
X37572Y-20225D01*
X37253Y-20223D01*
X36940Y-20283D01*
X36644Y-20402D01*
X36378Y-20576D01*
X36150Y-20800D01*
X36143Y-20810D01*
X36143Y-19072D01*
X36126Y-18973D01*
X36105Y-18918D01*
X36105Y-18063D01*
X36087Y-17972D01*
X36051Y-17886D01*
X36000Y-17808D01*
X35934Y-17742D01*
X35857Y-17690D01*
X35771Y-17654D01*
X35679Y-17635D01*
X35586Y-17635D01*
X35495Y-17652D01*
X35408Y-17687D01*
X35331Y-17738D01*
X35264Y-17804D01*
X35212Y-17880D01*
X35175Y-17966D01*
X35156Y-18057D01*
X35154Y-18150D01*
X35164Y-18207D01*
X34403Y-18968D01*
X33662Y-18227D01*
X33675Y-18173D01*
X33677Y-18061D01*
X33658Y-17965D01*
X33621Y-17874D01*
X33618Y-17870D01*
X34127Y-17870D01*
X34130Y-17870D01*
X34142Y-17868D01*
X34178Y-17866D01*
X34181Y-17865D01*
X34227Y-17851D01*
X34228Y-17850D01*
X34229Y-17850D01*
X34271Y-17828D01*
X34274Y-17827D01*
X34292Y-17811D01*
X34311Y-17797D01*
X34313Y-17794D01*
X34314Y-17794D01*
X35199Y-16908D01*
X35175Y-16966D01*
X35156Y-17057D01*
X35154Y-17150D01*
X35171Y-17242D01*
X35206Y-17329D01*
X35256Y-17407D01*
X35321Y-17474D01*
X35398Y-17527D01*
X35483Y-17564D01*
X35574Y-17584D01*
X35667Y-17586D01*
X35759Y-17570D01*
X35846Y-17536D01*
X35924Y-17486D01*
X35992Y-17422D01*
X36045Y-17345D01*
X36083Y-17260D01*
X36104Y-17169D01*
X36105Y-17063D01*
X36087Y-16972D01*
X36051Y-16886D01*
X36000Y-16808D01*
X35934Y-16742D01*
X35857Y-16690D01*
X35771Y-16654D01*
X35679Y-16635D01*
X35586Y-16635D01*
X35495Y-16652D01*
X35429Y-16678D01*
X35533Y-16574D01*
X35574Y-16584D01*
X35667Y-16586D01*
X35759Y-16570D01*
X35846Y-16536D01*
X35924Y-16486D01*
X35992Y-16422D01*
X36045Y-16345D01*
X36083Y-16260D01*
X36104Y-16169D01*
X36105Y-16063D01*
X36087Y-15972D01*
X36051Y-15886D01*
X36000Y-15808D01*
X35934Y-15742D01*
X35857Y-15690D01*
X35771Y-15654D01*
X35679Y-15635D01*
X35586Y-15635D01*
X35495Y-15652D01*
X35408Y-15687D01*
X35331Y-15738D01*
X35264Y-15804D01*
X35212Y-15880D01*
X35175Y-15966D01*
X35156Y-16057D01*
X35154Y-16150D01*
X35164Y-16207D01*
X34949Y-16422D01*
X34949Y-16061D01*
X34930Y-15965D01*
X34893Y-15874D01*
X34838Y-15792D01*
X34769Y-15723D01*
X34688Y-15668D01*
X34598Y-15630D01*
X34502Y-15610D01*
X34403Y-15610D01*
X34307Y-15628D01*
X34216Y-15665D01*
X34134Y-15718D01*
X34064Y-15787D01*
X34009Y-15868D01*
X33970Y-15958D01*
X33950Y-16054D01*
X33948Y-16152D01*
X33966Y-16248D01*
X34002Y-16340D01*
X34055Y-16422D01*
X34123Y-16493D01*
X34204Y-16549D01*
X34294Y-16588D01*
X34389Y-16609D01*
X34488Y-16611D01*
X34584Y-16594D01*
X34675Y-16558D01*
X34758Y-16506D01*
X34829Y-16438D01*
X34886Y-16358D01*
X34926Y-16269D01*
X34947Y-16173D01*
X34949Y-16061D01*
X34949Y-16422D01*
X34022Y-17350D01*
X33617Y-17350D01*
X33654Y-17269D01*
X33675Y-17173D01*
X33677Y-17061D01*
X33658Y-16965D01*
X33621Y-16874D01*
X33566Y-16792D01*
X33497Y-16723D01*
X33416Y-16668D01*
X33326Y-16630D01*
X33230Y-16610D01*
X33131Y-16610D01*
X33035Y-16628D01*
X32944Y-16665D01*
X32862Y-16718D01*
X32792Y-16787D01*
X32737Y-16868D01*
X32698Y-16958D01*
X32678Y-17054D01*
X32676Y-17152D01*
X32676Y-16790D01*
X32668Y-16752D01*
X32653Y-16716D01*
X32632Y-16683D01*
X32604Y-16656D01*
X32572Y-16634D01*
X32548Y-16624D01*
X33284Y-15888D01*
X33286Y-15886D01*
X33291Y-15879D01*
X33317Y-15849D01*
X33318Y-15846D01*
X33341Y-15804D01*
X33341Y-15803D01*
X33342Y-15802D01*
X33356Y-15756D01*
X33357Y-15754D01*
X33358Y-15735D01*
X33362Y-15706D01*
X33362Y-15702D01*
X33362Y-14796D01*
X33411Y-14766D01*
X33482Y-14698D01*
X33539Y-14618D01*
X33579Y-14529D01*
X33600Y-14433D01*
X33602Y-14321D01*
X33583Y-14225D01*
X33546Y-14134D01*
X33491Y-14052D01*
X33422Y-13983D01*
X33341Y-13928D01*
X33251Y-13890D01*
X33155Y-13870D01*
X33056Y-13870D01*
X32960Y-13888D01*
X32869Y-13925D01*
X32787Y-13978D01*
X32717Y-14047D01*
X32662Y-14128D01*
X32623Y-14218D01*
X32603Y-14314D01*
X32601Y-14412D01*
X32619Y-14508D01*
X32655Y-14600D01*
X32708Y-14682D01*
X32776Y-14753D01*
X32842Y-14798D01*
X32842Y-15594D01*
X31995Y-16441D01*
X31993Y-16443D01*
X31987Y-16449D01*
X31962Y-16480D01*
X31938Y-16525D01*
X31937Y-16525D01*
X31937Y-15998D01*
X31937Y-15995D01*
X31935Y-15983D01*
X31933Y-15947D01*
X31932Y-15944D01*
X31918Y-15898D01*
X31917Y-15896D01*
X31895Y-15853D01*
X31894Y-15851D01*
X31884Y-15839D01*
X31864Y-15814D01*
X31861Y-15811D01*
X29738Y-13688D01*
X29736Y-13686D01*
X29729Y-13680D01*
X29699Y-13655D01*
X29654Y-13631D01*
X29653Y-13630D01*
X29652Y-13630D01*
X29604Y-13615D01*
X29569Y-13611D01*
X29556Y-13610D01*
X29553Y-13610D01*
X29552Y-13610D01*
X28093Y-13610D01*
X28090Y-13610D01*
X28078Y-13611D01*
X28042Y-13614D01*
X27993Y-13629D01*
X27991Y-13629D01*
X27991Y-13630D01*
X27946Y-13653D01*
X27927Y-13668D01*
X27909Y-13683D01*
X27906Y-13686D01*
X27708Y-13883D01*
X27643Y-13870D01*
X27544Y-13870D01*
X27448Y-13888D01*
X27357Y-13925D01*
X27275Y-13978D01*
X27205Y-14047D01*
X27150Y-14128D01*
X27111Y-14218D01*
X27091Y-14314D01*
X27089Y-14412D01*
X27107Y-14508D01*
X27143Y-14600D01*
X27196Y-14682D01*
X27264Y-14753D01*
X27345Y-14809D01*
X27435Y-14848D01*
X27530Y-14869D01*
X27629Y-14871D01*
X27725Y-14854D01*
X27816Y-14818D01*
X27899Y-14766D01*
X27970Y-14698D01*
X28027Y-14618D01*
X28067Y-14529D01*
X28088Y-14433D01*
X28090Y-14321D01*
X28076Y-14251D01*
X28198Y-14130D01*
X28575Y-14130D01*
X28530Y-14153D01*
X28499Y-14179D01*
X28493Y-14184D01*
X28491Y-14186D01*
X28490Y-14187D01*
X26606Y-16069D01*
X26530Y-16018D01*
X26438Y-15979D01*
X26340Y-15959D01*
X26241Y-15959D01*
X26143Y-15977D01*
X26050Y-16015D01*
X25967Y-16069D01*
X25896Y-16139D01*
X25840Y-16221D01*
X25800Y-16313D01*
X25787Y-16375D01*
X25776Y-16319D01*
X25738Y-16227D01*
X25682Y-16144D01*
X25612Y-16074D01*
X25547Y-16029D01*
X25547Y-15979D01*
X25547Y-15977D01*
X25542Y-15928D01*
X25542Y-15926D01*
X25533Y-15898D01*
X25528Y-15880D01*
X25527Y-15878D01*
X25505Y-15835D01*
X25504Y-15833D01*
X25493Y-15820D01*
X25473Y-15795D01*
X25471Y-15794D01*
X25434Y-15762D01*
X25432Y-15761D01*
X25426Y-15758D01*
X25389Y-15738D01*
X25388Y-15737D01*
X25339Y-15722D01*
X25305Y-15718D01*
X24075Y-14488D01*
X24088Y-14433D01*
X24090Y-14321D01*
X24071Y-14225D01*
X24034Y-14134D01*
X23979Y-14052D01*
X23910Y-13983D01*
X23829Y-13928D01*
X23739Y-13890D01*
X23643Y-13870D01*
X23544Y-13870D01*
X23448Y-13888D01*
X23357Y-13925D01*
X23275Y-13978D01*
X23205Y-14047D01*
X23150Y-14128D01*
X23111Y-14218D01*
X23091Y-14314D01*
X23089Y-14412D01*
X23107Y-14508D01*
X23143Y-14600D01*
X23196Y-14682D01*
X23264Y-14753D01*
X23345Y-14809D01*
X23435Y-14848D01*
X23530Y-14869D01*
X23629Y-14871D01*
X23709Y-14856D01*
X24944Y-16091D01*
X24896Y-16139D01*
X24840Y-16221D01*
X24800Y-16313D01*
X24787Y-16375D01*
X24776Y-16319D01*
X24738Y-16227D01*
X24682Y-16144D01*
X24612Y-16074D01*
X24530Y-16018D01*
X24438Y-15979D01*
X24340Y-15959D01*
X24241Y-15959D01*
X24143Y-15977D01*
X24050Y-16015D01*
X23967Y-16069D01*
X23896Y-16139D01*
X23840Y-16221D01*
X23800Y-16313D01*
X23780Y-16410D01*
X23778Y-16510D01*
X23779Y-16803D01*
X23798Y-16901D01*
X23836Y-16993D01*
X23892Y-17076D01*
X23962Y-17146D01*
X24044Y-17202D01*
X24136Y-17241D01*
X24234Y-17261D01*
X24333Y-17261D01*
X24431Y-17243D01*
X24524Y-17205D01*
X24607Y-17151D01*
X24678Y-17081D01*
X24734Y-16999D01*
X24774Y-16907D01*
X24786Y-16844D01*
X24798Y-16901D01*
X24836Y-16993D01*
X24892Y-17076D01*
X24962Y-17146D01*
X25044Y-17202D01*
X25136Y-17241D01*
X25234Y-17261D01*
X25333Y-17261D01*
X25431Y-17243D01*
X25524Y-17205D01*
X25607Y-17151D01*
X25678Y-17081D01*
X25734Y-16999D01*
X25774Y-16907D01*
X25786Y-16844D01*
X25798Y-16901D01*
X25836Y-16993D01*
X25892Y-17076D01*
X25962Y-17146D01*
X26044Y-17202D01*
X26136Y-17241D01*
X26234Y-17261D01*
X26333Y-17261D01*
X26431Y-17243D01*
X26524Y-17205D01*
X26607Y-17151D01*
X26678Y-17081D01*
X26734Y-16999D01*
X26774Y-16907D01*
X26781Y-16869D01*
X26791Y-16868D01*
X26798Y-16901D01*
X26836Y-16993D01*
X26892Y-17076D01*
X26962Y-17146D01*
X27044Y-17202D01*
X27136Y-17241D01*
X27234Y-17261D01*
X27333Y-17261D01*
X27431Y-17243D01*
X27524Y-17205D01*
X27607Y-17151D01*
X27678Y-17081D01*
X27734Y-16999D01*
X27754Y-16952D01*
X28480Y-17677D01*
X28480Y-19682D01*
X28425Y-19718D01*
X28355Y-19787D01*
X28300Y-19868D01*
X28261Y-19958D01*
X28241Y-20054D01*
X28239Y-20152D01*
X28257Y-20248D01*
X28293Y-20340D01*
X28346Y-20422D01*
X28414Y-20493D01*
X28495Y-20549D01*
X28585Y-20588D01*
X28680Y-20609D01*
X28779Y-20611D01*
X28875Y-20594D01*
X28966Y-20558D01*
X29049Y-20506D01*
X29120Y-20438D01*
X29177Y-20358D01*
X29217Y-20269D01*
X29238Y-20173D01*
X29240Y-20061D01*
X29240Y-16061D01*
X29221Y-15965D01*
X29184Y-15874D01*
X29129Y-15792D01*
X29060Y-15723D01*
X28979Y-15668D01*
X28889Y-15630D01*
X28793Y-15610D01*
X28694Y-15610D01*
X28598Y-15628D01*
X28507Y-15665D01*
X28425Y-15718D01*
X28355Y-15787D01*
X28300Y-15868D01*
X28261Y-15958D01*
X28241Y-16054D01*
X28239Y-16152D01*
X28257Y-16248D01*
X28293Y-16340D01*
X28346Y-16422D01*
X28414Y-16493D01*
X28495Y-16549D01*
X28585Y-16588D01*
X28680Y-16609D01*
X28779Y-16611D01*
X28875Y-16594D01*
X28966Y-16558D01*
X29049Y-16506D01*
X29120Y-16438D01*
X29177Y-16358D01*
X29217Y-16269D01*
X29238Y-16173D01*
X29240Y-16061D01*
X29240Y-20061D01*
X29221Y-19965D01*
X29184Y-19874D01*
X29129Y-19792D01*
X29060Y-19723D01*
X29000Y-19682D01*
X29000Y-17572D01*
X29000Y-17570D01*
X28999Y-17562D01*
X28996Y-17521D01*
X28995Y-17519D01*
X28981Y-17473D01*
X28980Y-17471D01*
X28957Y-17426D01*
X28930Y-17395D01*
X28926Y-17389D01*
X28924Y-17387D01*
X28923Y-17386D01*
X27966Y-16428D01*
X27965Y-16427D01*
X27964Y-16426D01*
X27957Y-16420D01*
X27927Y-16395D01*
X27882Y-16371D01*
X27881Y-16370D01*
X27880Y-16370D01*
X27832Y-16355D01*
X27797Y-16351D01*
X27784Y-16350D01*
X27782Y-16350D01*
X27776Y-16319D01*
X27738Y-16227D01*
X27682Y-16144D01*
X27612Y-16074D01*
X27530Y-16018D01*
X27438Y-15979D01*
X27433Y-15978D01*
X28718Y-14692D01*
X28776Y-14753D01*
X28857Y-14809D01*
X28947Y-14848D01*
X29042Y-14869D01*
X29141Y-14871D01*
X29237Y-14854D01*
X29328Y-14818D01*
X29411Y-14766D01*
X29482Y-14698D01*
X29539Y-14618D01*
X29579Y-14529D01*
X29600Y-14433D01*
X29602Y-14321D01*
X29593Y-14279D01*
X31417Y-16103D01*
X31417Y-17573D01*
X31417Y-17576D01*
X31418Y-17588D01*
X31421Y-17624D01*
X31422Y-17627D01*
X31436Y-17673D01*
X31436Y-17674D01*
X31437Y-17675D01*
X31460Y-17720D01*
X31475Y-17738D01*
X31490Y-17757D01*
X31493Y-17760D01*
X31525Y-17792D01*
X31527Y-17794D01*
X31533Y-17799D01*
X31564Y-17825D01*
X31567Y-17826D01*
X31609Y-17849D01*
X31611Y-17850D01*
X31657Y-17864D01*
X31659Y-17865D01*
X31677Y-17866D01*
X31707Y-17870D01*
X31711Y-17870D01*
X31736Y-17870D01*
X31698Y-17958D01*
X31678Y-18054D01*
X31676Y-18152D01*
X31694Y-18248D01*
X31730Y-18340D01*
X31783Y-18422D01*
X31851Y-18493D01*
X31932Y-18549D01*
X32022Y-18588D01*
X32117Y-18609D01*
X32166Y-18610D01*
X32131Y-18610D01*
X32035Y-18628D01*
X31944Y-18665D01*
X31862Y-18718D01*
X31792Y-18787D01*
X31737Y-18868D01*
X31698Y-18958D01*
X31678Y-19054D01*
X31676Y-19152D01*
X31694Y-19248D01*
X31730Y-19340D01*
X31783Y-19422D01*
X31851Y-19493D01*
X31932Y-19549D01*
X32022Y-19588D01*
X32117Y-19609D01*
X32216Y-19611D01*
X32295Y-19596D01*
X32842Y-20143D01*
X32842Y-21422D01*
X32787Y-21458D01*
X32717Y-21527D01*
X32662Y-21608D01*
X32623Y-21698D01*
X32603Y-21794D01*
X32601Y-21892D01*
X32619Y-21988D01*
X32655Y-22080D01*
X32708Y-22162D01*
X32776Y-22233D01*
X32857Y-22289D01*
X32947Y-22328D01*
X33042Y-22349D01*
X33141Y-22351D01*
X33237Y-22334D01*
X33328Y-22298D01*
X33411Y-22246D01*
X33482Y-22178D01*
X33539Y-22098D01*
X33579Y-22009D01*
X33600Y-21913D01*
X33602Y-21801D01*
X33583Y-21705D01*
X33546Y-21614D01*
X33491Y-21532D01*
X33422Y-21463D01*
X33362Y-21422D01*
X33362Y-20038D01*
X33362Y-20035D01*
X33360Y-20023D01*
X33358Y-19987D01*
X33357Y-19984D01*
X33343Y-19938D01*
X33342Y-19936D01*
X33320Y-19893D01*
X33319Y-19891D01*
X33309Y-19879D01*
X33289Y-19854D01*
X33286Y-19851D01*
X33071Y-19636D01*
X33109Y-19645D01*
X33214Y-19647D01*
X33318Y-19630D01*
X33416Y-19592D01*
X33444Y-19579D01*
X33471Y-19489D01*
X33205Y-19223D01*
X33177Y-19195D01*
X33092Y-19110D01*
X33064Y-19082D01*
X32798Y-18816D01*
X32708Y-18843D01*
X32666Y-18940D01*
X32658Y-18965D01*
X32621Y-18874D01*
X32566Y-18792D01*
X32497Y-18723D01*
X32416Y-18668D01*
X32326Y-18630D01*
X32230Y-18610D01*
X32221Y-18610D01*
X32312Y-18594D01*
X32403Y-18558D01*
X32486Y-18506D01*
X32557Y-18438D01*
X32614Y-18358D01*
X32654Y-18269D01*
X32675Y-18173D01*
X32677Y-18061D01*
X32676Y-18152D01*
X32694Y-18248D01*
X32730Y-18340D01*
X32783Y-18422D01*
X32851Y-18493D01*
X32932Y-18549D01*
X33022Y-18588D01*
X33034Y-18590D01*
X32938Y-18628D01*
X32910Y-18641D01*
X32883Y-18731D01*
X33149Y-18997D01*
X33177Y-19025D01*
X33262Y-19110D01*
X33290Y-19138D01*
X33556Y-19404D01*
X33646Y-19377D01*
X33688Y-19280D01*
X33712Y-19178D01*
X33714Y-19073D01*
X33702Y-19003D01*
X34172Y-19473D01*
X34174Y-19475D01*
X34180Y-19480D01*
X34189Y-19487D01*
X34189Y-19682D01*
X34134Y-19718D01*
X34064Y-19787D01*
X34009Y-19868D01*
X33970Y-19958D01*
X33950Y-20054D01*
X33948Y-20152D01*
X33966Y-20248D01*
X34002Y-20340D01*
X34055Y-20422D01*
X34123Y-20493D01*
X34204Y-20549D01*
X34294Y-20588D01*
X34389Y-20609D01*
X34488Y-20611D01*
X34584Y-20594D01*
X34675Y-20558D01*
X34758Y-20506D01*
X34829Y-20438D01*
X34886Y-20358D01*
X34926Y-20269D01*
X34947Y-20173D01*
X34949Y-20061D01*
X34930Y-19965D01*
X34893Y-19874D01*
X34838Y-19792D01*
X34769Y-19723D01*
X34709Y-19682D01*
X34709Y-19399D01*
X35135Y-18972D01*
X35119Y-19048D01*
X35117Y-19148D01*
X35134Y-19247D01*
X35170Y-19341D01*
X35182Y-19362D01*
X35269Y-19386D01*
X35517Y-19138D01*
X35545Y-19110D01*
X35630Y-19025D01*
X35658Y-18997D01*
X35906Y-18749D01*
X35882Y-18662D01*
X35791Y-18621D01*
X35692Y-18599D01*
X35592Y-18597D01*
X35494Y-18613D01*
X35533Y-18574D01*
X35574Y-18584D01*
X35667Y-18586D01*
X35759Y-18570D01*
X35846Y-18536D01*
X35924Y-18486D01*
X35992Y-18422D01*
X36045Y-18345D01*
X36083Y-18260D01*
X36104Y-18169D01*
X36105Y-18063D01*
X36105Y-18918D01*
X36090Y-18879D01*
X36078Y-18858D01*
X35991Y-18834D01*
X35715Y-19110D01*
X35991Y-19386D01*
X36078Y-19362D01*
X36119Y-19271D01*
X36141Y-19172D01*
X36143Y-19072D01*
X36143Y-20810D01*
X36104Y-20867D01*
X36104Y-20405D01*
X36104Y-20366D01*
X36104Y-19815D01*
X36096Y-19777D01*
X36081Y-19741D01*
X36060Y-19708D01*
X36032Y-19681D01*
X36000Y-19659D01*
X35964Y-19644D01*
X35925Y-19636D01*
X35906Y-19636D01*
X35906Y-19471D01*
X35630Y-19195D01*
X35354Y-19471D01*
X35378Y-19558D01*
X35469Y-19599D01*
X35568Y-19621D01*
X35668Y-19623D01*
X35767Y-19606D01*
X35861Y-19570D01*
X35882Y-19558D01*
X35906Y-19471D01*
X35906Y-19636D01*
X35886Y-19636D01*
X35335Y-19636D01*
X35297Y-19644D01*
X35261Y-19659D01*
X35228Y-19680D01*
X35201Y-19708D01*
X35179Y-19740D01*
X35164Y-19776D01*
X35156Y-19815D01*
X35156Y-19854D01*
X35156Y-20405D01*
X35164Y-20443D01*
X35179Y-20479D01*
X35200Y-20512D01*
X35228Y-20539D01*
X35260Y-20561D01*
X35296Y-20576D01*
X35335Y-20584D01*
X35374Y-20584D01*
X35925Y-20584D01*
X35963Y-20576D01*
X35999Y-20561D01*
X36032Y-20540D01*
X36059Y-20512D01*
X36081Y-20480D01*
X36096Y-20444D01*
X36104Y-20405D01*
X36104Y-20867D01*
X35970Y-21063D01*
X35844Y-21356D01*
X35777Y-21667D01*
X35773Y-21986D01*
X35830Y-22300D01*
X35948Y-22596D01*
X36120Y-22864D01*
X36342Y-23094D01*
X36422Y-23150D01*
X30828Y-23150D01*
X30828Y-18072D01*
X30811Y-17973D01*
X30790Y-17918D01*
X30790Y-17063D01*
X30772Y-16972D01*
X30736Y-16886D01*
X30685Y-16808D01*
X30619Y-16742D01*
X30542Y-16690D01*
X30456Y-16654D01*
X30364Y-16635D01*
X30271Y-16635D01*
X30180Y-16652D01*
X30093Y-16687D01*
X30016Y-16738D01*
X29949Y-16804D01*
X29897Y-16880D01*
X29860Y-16966D01*
X29841Y-17057D01*
X29839Y-17150D01*
X29856Y-17242D01*
X29891Y-17329D01*
X29941Y-17407D01*
X30006Y-17474D01*
X30083Y-17527D01*
X30168Y-17564D01*
X30259Y-17584D01*
X30352Y-17586D01*
X30444Y-17570D01*
X30531Y-17536D01*
X30609Y-17486D01*
X30677Y-17422D01*
X30730Y-17345D01*
X30768Y-17260D01*
X30789Y-17169D01*
X30790Y-17063D01*
X30790Y-17918D01*
X30775Y-17879D01*
X30763Y-17858D01*
X30676Y-17834D01*
X30591Y-17919D01*
X30591Y-17749D01*
X30567Y-17662D01*
X30476Y-17621D01*
X30377Y-17599D01*
X30277Y-17597D01*
X30178Y-17614D01*
X30084Y-17650D01*
X30063Y-17662D01*
X30039Y-17749D01*
X30315Y-18025D01*
X30591Y-17749D01*
X30591Y-17919D01*
X30400Y-18110D01*
X30676Y-18386D01*
X30763Y-18362D01*
X30804Y-18271D01*
X30826Y-18172D01*
X30828Y-18072D01*
X30828Y-23150D01*
X30789Y-23150D01*
X30789Y-19405D01*
X30789Y-19366D01*
X30789Y-18815D01*
X30781Y-18777D01*
X30766Y-18741D01*
X30745Y-18708D01*
X30717Y-18681D01*
X30685Y-18659D01*
X30649Y-18644D01*
X30610Y-18636D01*
X30591Y-18636D01*
X30591Y-18471D01*
X30315Y-18195D01*
X30230Y-18280D01*
X30230Y-18110D01*
X29954Y-17834D01*
X29867Y-17858D01*
X29826Y-17949D01*
X29804Y-18048D01*
X29802Y-18148D01*
X29819Y-18247D01*
X29855Y-18341D01*
X29867Y-18362D01*
X29954Y-18386D01*
X30230Y-18110D01*
X30230Y-18280D01*
X30039Y-18471D01*
X30063Y-18558D01*
X30154Y-18599D01*
X30253Y-18621D01*
X30353Y-18623D01*
X30452Y-18606D01*
X30546Y-18570D01*
X30567Y-18558D01*
X30591Y-18471D01*
X30591Y-18636D01*
X30571Y-18636D01*
X30020Y-18636D01*
X29982Y-18644D01*
X29946Y-18659D01*
X29913Y-18680D01*
X29886Y-18708D01*
X29864Y-18740D01*
X29849Y-18776D01*
X29841Y-18815D01*
X29841Y-18854D01*
X29841Y-19405D01*
X29849Y-19443D01*
X29864Y-19479D01*
X29885Y-19512D01*
X29913Y-19539D01*
X29945Y-19561D01*
X29981Y-19576D01*
X30020Y-19584D01*
X30059Y-19584D01*
X30610Y-19584D01*
X30648Y-19576D01*
X30684Y-19561D01*
X30717Y-19540D01*
X30744Y-19512D01*
X30766Y-19480D01*
X30781Y-19444D01*
X30789Y-19405D01*
X30789Y-23150D01*
X29602Y-23150D01*
X29602Y-21801D01*
X29583Y-21705D01*
X29546Y-21614D01*
X29491Y-21532D01*
X29422Y-21463D01*
X29341Y-21408D01*
X29251Y-21370D01*
X29155Y-21350D01*
X29056Y-21350D01*
X28960Y-21368D01*
X28869Y-21405D01*
X28787Y-21458D01*
X28717Y-21527D01*
X28662Y-21608D01*
X28623Y-21698D01*
X28603Y-21794D01*
X28601Y-21892D01*
X28619Y-21988D01*
X28655Y-22080D01*
X28708Y-22162D01*
X28776Y-22233D01*
X28857Y-22289D01*
X28947Y-22328D01*
X29042Y-22349D01*
X29141Y-22351D01*
X29237Y-22334D01*
X29328Y-22298D01*
X29411Y-22246D01*
X29482Y-22178D01*
X29539Y-22098D01*
X29579Y-22009D01*
X29600Y-21913D01*
X29602Y-21801D01*
X29602Y-23150D01*
X28091Y-23150D01*
X28091Y-21801D01*
X28072Y-21705D01*
X28035Y-21614D01*
X27980Y-21532D01*
X27911Y-21463D01*
X27837Y-21412D01*
X27837Y-19760D01*
X27837Y-19670D01*
X27837Y-19550D01*
X27837Y-19460D01*
X27825Y-19353D01*
X27792Y-19251D01*
X27740Y-19157D01*
X27671Y-19075D01*
X27587Y-19008D01*
X27492Y-18959D01*
X27432Y-18940D01*
X27347Y-18984D01*
X27347Y-19550D01*
X27837Y-19550D01*
X27837Y-19670D01*
X27347Y-19670D01*
X27347Y-20236D01*
X27432Y-20280D01*
X27492Y-20261D01*
X27587Y-20212D01*
X27671Y-20145D01*
X27740Y-20063D01*
X27792Y-19969D01*
X27825Y-19867D01*
X27837Y-19760D01*
X27837Y-21412D01*
X27830Y-21408D01*
X27740Y-21370D01*
X27644Y-21350D01*
X27545Y-21350D01*
X27449Y-21368D01*
X27358Y-21405D01*
X27276Y-21458D01*
X27206Y-21527D01*
X27163Y-21590D01*
X26634Y-21590D01*
X25305Y-20261D01*
X25333Y-20261D01*
X25431Y-20243D01*
X25524Y-20205D01*
X25607Y-20151D01*
X25678Y-20081D01*
X25734Y-19999D01*
X25774Y-19907D01*
X25786Y-19844D01*
X25798Y-19901D01*
X25836Y-19993D01*
X25892Y-20076D01*
X25962Y-20146D01*
X26044Y-20202D01*
X26136Y-20241D01*
X26234Y-20261D01*
X26333Y-20261D01*
X26431Y-20243D01*
X26524Y-20205D01*
X26607Y-20151D01*
X26678Y-20081D01*
X26734Y-19999D01*
X26767Y-19922D01*
X26782Y-19969D01*
X26834Y-20063D01*
X26903Y-20145D01*
X26987Y-20212D01*
X27082Y-20261D01*
X27142Y-20280D01*
X27227Y-20236D01*
X27227Y-19710D01*
X27227Y-19670D01*
X27227Y-19550D01*
X27227Y-19510D01*
X27227Y-18984D01*
X27142Y-18940D01*
X27082Y-18959D01*
X26987Y-19008D01*
X26903Y-19075D01*
X26834Y-19157D01*
X26782Y-19251D01*
X26767Y-19297D01*
X26738Y-19227D01*
X26682Y-19144D01*
X26612Y-19074D01*
X26530Y-19018D01*
X26438Y-18979D01*
X26340Y-18959D01*
X26241Y-18959D01*
X26143Y-18977D01*
X26050Y-19015D01*
X25967Y-19069D01*
X25896Y-19139D01*
X25840Y-19221D01*
X25800Y-19313D01*
X25787Y-19375D01*
X25776Y-19319D01*
X25738Y-19227D01*
X25682Y-19144D01*
X25612Y-19074D01*
X25530Y-19018D01*
X25438Y-18979D01*
X25340Y-18959D01*
X25241Y-18959D01*
X25143Y-18977D01*
X25050Y-19015D01*
X24967Y-19069D01*
X24896Y-19139D01*
X24840Y-19221D01*
X24800Y-19313D01*
X24796Y-19332D01*
X24796Y-19140D01*
X24788Y-19102D01*
X24773Y-19066D01*
X24752Y-19033D01*
X24724Y-19006D01*
X24692Y-18984D01*
X24656Y-18969D01*
X24617Y-18961D01*
X24578Y-18961D01*
X23957Y-18961D01*
X23919Y-18969D01*
X23883Y-18984D01*
X23850Y-19005D01*
X23823Y-19033D01*
X23801Y-19065D01*
X23786Y-19101D01*
X23778Y-19140D01*
X23778Y-19179D01*
X23778Y-20080D01*
X23786Y-20118D01*
X23801Y-20154D01*
X23822Y-20187D01*
X23850Y-20214D01*
X23882Y-20236D01*
X23918Y-20251D01*
X23957Y-20259D01*
X23996Y-20259D01*
X24573Y-20259D01*
X24578Y-20265D01*
X24593Y-20284D01*
X24596Y-20287D01*
X26337Y-22027D01*
X26341Y-22032D01*
X26343Y-22033D01*
X26380Y-22065D01*
X26382Y-22066D01*
X26425Y-22089D01*
X26427Y-22089D01*
X26457Y-22099D01*
X26473Y-22104D01*
X26475Y-22105D01*
X26493Y-22106D01*
X26523Y-22110D01*
X26527Y-22110D01*
X27163Y-22110D01*
X27197Y-22162D01*
X27265Y-22233D01*
X27346Y-22289D01*
X27436Y-22328D01*
X27531Y-22349D01*
X27630Y-22351D01*
X27726Y-22334D01*
X27817Y-22298D01*
X27900Y-22246D01*
X27971Y-22178D01*
X28028Y-22098D01*
X28068Y-22009D01*
X28089Y-21913D01*
X28091Y-21801D01*
X28091Y-23150D01*
X24091Y-23150D01*
X24091Y-21801D01*
X24072Y-21705D01*
X24035Y-21614D01*
X23980Y-21532D01*
X23911Y-21463D01*
X23851Y-21422D01*
X23851Y-21368D01*
X23851Y-21366D01*
X23850Y-21357D01*
X23847Y-21318D01*
X23846Y-21315D01*
X23832Y-21269D01*
X23831Y-21267D01*
X23808Y-21222D01*
X23781Y-21191D01*
X23777Y-21185D01*
X23775Y-21183D01*
X23775Y-21182D01*
X23348Y-20755D01*
X23348Y-18572D01*
X23331Y-18473D01*
X23295Y-18379D01*
X23283Y-18358D01*
X23196Y-18334D01*
X22920Y-18610D01*
X23196Y-18886D01*
X23283Y-18862D01*
X23324Y-18771D01*
X23346Y-18672D01*
X23348Y-18572D01*
X23348Y-20755D01*
X23111Y-20518D01*
X23111Y-18971D01*
X22835Y-18695D01*
X22559Y-18971D01*
X22583Y-19058D01*
X22674Y-19099D01*
X22773Y-19121D01*
X22873Y-19123D01*
X22972Y-19106D01*
X23066Y-19070D01*
X23087Y-19058D01*
X23111Y-18971D01*
X23111Y-20518D01*
X21734Y-19141D01*
X21734Y-19078D01*
X22340Y-18472D01*
X22324Y-18548D01*
X22322Y-18648D01*
X22339Y-18747D01*
X22375Y-18841D01*
X22387Y-18862D01*
X22474Y-18886D01*
X22722Y-18638D01*
X22750Y-18610D01*
X22835Y-18525D01*
X22863Y-18497D01*
X23111Y-18249D01*
X23087Y-18162D01*
X22996Y-18121D01*
X22897Y-18099D01*
X22797Y-18097D01*
X22699Y-18113D01*
X22738Y-18074D01*
X22779Y-18084D01*
X22872Y-18086D01*
X22964Y-18070D01*
X23051Y-18036D01*
X23129Y-17986D01*
X23197Y-17922D01*
X23250Y-17845D01*
X23288Y-17760D01*
X23309Y-17669D01*
X23310Y-17563D01*
X23292Y-17472D01*
X23256Y-17386D01*
X23205Y-17308D01*
X23139Y-17242D01*
X23062Y-17190D01*
X22976Y-17154D01*
X22884Y-17135D01*
X22791Y-17135D01*
X22700Y-17152D01*
X22613Y-17187D01*
X22536Y-17238D01*
X22469Y-17304D01*
X22417Y-17380D01*
X22380Y-17466D01*
X22361Y-17557D01*
X22359Y-17650D01*
X22369Y-17707D01*
X21773Y-18303D01*
X21683Y-18392D01*
X21664Y-18373D01*
X21708Y-18362D01*
X21749Y-18271D01*
X21771Y-18172D01*
X21773Y-18072D01*
X21756Y-17973D01*
X21734Y-17915D01*
X21734Y-17405D01*
X21734Y-17366D01*
X21734Y-16815D01*
X21726Y-16777D01*
X21711Y-16741D01*
X21690Y-16708D01*
X21662Y-16681D01*
X21630Y-16659D01*
X21594Y-16644D01*
X21555Y-16636D01*
X21516Y-16636D01*
X20965Y-16636D01*
X20927Y-16644D01*
X20891Y-16659D01*
X20858Y-16680D01*
X20831Y-16708D01*
X20809Y-16740D01*
X20794Y-16776D01*
X20786Y-16815D01*
X20786Y-16854D01*
X20786Y-17405D01*
X20794Y-17443D01*
X20809Y-17479D01*
X20830Y-17512D01*
X20858Y-17539D01*
X20890Y-17561D01*
X20926Y-17576D01*
X20965Y-17584D01*
X21004Y-17584D01*
X21555Y-17584D01*
X21593Y-17576D01*
X21629Y-17561D01*
X21662Y-17540D01*
X21689Y-17512D01*
X21711Y-17480D01*
X21726Y-17444D01*
X21734Y-17405D01*
X21734Y-17915D01*
X21720Y-17879D01*
X21708Y-17858D01*
X21621Y-17834D01*
X21536Y-17919D01*
X21536Y-17749D01*
X21512Y-17662D01*
X21421Y-17621D01*
X21322Y-17599D01*
X21222Y-17597D01*
X21123Y-17614D01*
X21029Y-17650D01*
X21008Y-17662D01*
X20984Y-17749D01*
X21260Y-18025D01*
X21536Y-17749D01*
X21536Y-17919D01*
X21373Y-18082D01*
X21345Y-18110D01*
X21260Y-18195D01*
X21232Y-18223D01*
X21175Y-18280D01*
X21175Y-18110D01*
X20899Y-17834D01*
X20812Y-17858D01*
X20771Y-17949D01*
X20749Y-18048D01*
X20747Y-18148D01*
X20764Y-18247D01*
X20800Y-18341D01*
X20812Y-18362D01*
X20899Y-18386D01*
X21175Y-18110D01*
X21175Y-18280D01*
X20984Y-18471D01*
X21008Y-18558D01*
X21099Y-18599D01*
X21198Y-18621D01*
X21298Y-18623D01*
X21397Y-18606D01*
X21491Y-18570D01*
X21512Y-18558D01*
X21523Y-18514D01*
X21536Y-18527D01*
X21542Y-18533D01*
X21536Y-18540D01*
X21416Y-18660D01*
X21401Y-18654D01*
X21309Y-18635D01*
X21216Y-18635D01*
X21125Y-18652D01*
X21038Y-18687D01*
X20961Y-18738D01*
X20894Y-18804D01*
X20842Y-18880D01*
X20805Y-18966D01*
X20786Y-19057D01*
X20784Y-19150D01*
X20801Y-19242D01*
X20836Y-19329D01*
X20886Y-19407D01*
X20951Y-19474D01*
X21028Y-19527D01*
X21113Y-19564D01*
X21204Y-19584D01*
X21297Y-19586D01*
X21389Y-19570D01*
X21416Y-19559D01*
X23299Y-21442D01*
X23276Y-21458D01*
X23206Y-21527D01*
X23151Y-21608D01*
X23112Y-21698D01*
X23092Y-21794D01*
X23090Y-21892D01*
X23108Y-21988D01*
X23144Y-22080D01*
X23197Y-22162D01*
X23265Y-22233D01*
X23346Y-22289D01*
X23436Y-22328D01*
X23531Y-22349D01*
X23630Y-22351D01*
X23726Y-22334D01*
X23817Y-22298D01*
X23900Y-22246D01*
X23971Y-22178D01*
X24028Y-22098D01*
X24068Y-22009D01*
X24089Y-21913D01*
X24091Y-21801D01*
X24091Y-23150D01*
X22245Y-23150D01*
X22265Y-23138D01*
X22495Y-22918D01*
X22679Y-22657D01*
X22809Y-22366D01*
X22880Y-22055D01*
X22885Y-21691D01*
X22823Y-21378D01*
X22702Y-21083D01*
X22525Y-20818D01*
X22301Y-20591D01*
X22036Y-20413D01*
X21743Y-20289D01*
X21430Y-20225D01*
X21111Y-20223D01*
X20798Y-20283D01*
X20502Y-20402D01*
X20236Y-20576D01*
X20008Y-20800D01*
X19959Y-20871D01*
X19959Y-15354D01*
X19978Y-15384D01*
X20200Y-15614D01*
X20462Y-15796D01*
X20754Y-15924D01*
X21065Y-15992D01*
X21384Y-15999D01*
X21698Y-15944D01*
X21995Y-15828D01*
X22265Y-15658D01*
X22495Y-15438D01*
X22679Y-15177D01*
X22809Y-14886D01*
X22880Y-14575D01*
X22885Y-14211D01*
X22823Y-13898D01*
X22702Y-13603D01*
X22525Y-13338D01*
X22301Y-13111D01*
X22239Y-13070D01*
X36417Y-13070D01*
X36378Y-13096D01*
X36150Y-13320D01*
X35970Y-13583D01*
X35844Y-13876D01*
X35777Y-14187D01*
X35773Y-14506D01*
X35830Y-14820D01*
X35948Y-15116D01*
X36120Y-15384D01*
X36342Y-15614D01*
X36604Y-15796D01*
X36896Y-15924D01*
X37207Y-15992D01*
X37526Y-15999D01*
X37840Y-15944D01*
X38137Y-15828D01*
X38407Y-15658D01*
X38637Y-15438D01*
X38701Y-15347D01*
X38701Y-20868D01*
M02*
