G04 (created by PCBNEW-RS274X (2012-jan-04)-stable) date Sun 25 Mar 2012 04:02:59 PM CEST*
G01*
G70*
G90*
%MOIN*%
G04 Gerber Fmt 3.4, Leading zero omitted, Abs format*
%FSLAX34Y34*%
G04 APERTURE LIST*
%ADD10C,0.008000*%
%ADD11C,0.160000*%
%ADD12R,0.055000X0.055000*%
%ADD13C,0.055000*%
%ADD14R,0.060000X0.060000*%
%ADD15C,0.060000*%
%ADD16R,0.062000X0.090000*%
%ADD17O,0.062000X0.090000*%
%ADD18C,0.012000*%
G04 APERTURE END LIST*
G54D10*
G54D11*
X21259Y-14370D03*
G54D12*
X35433Y-20110D03*
G54D13*
X35433Y-19110D03*
X35433Y-18110D03*
X35433Y-17110D03*
X35433Y-16110D03*
G54D14*
X31783Y-17110D03*
G54D15*
X32783Y-17110D03*
X31783Y-18110D03*
X32783Y-18110D03*
X31783Y-19110D03*
X32783Y-19110D03*
G54D11*
X37401Y-21850D03*
X37401Y-14370D03*
X21259Y-21850D03*
G54D12*
X21260Y-17110D03*
G54D13*
X21260Y-18110D03*
X21260Y-19110D03*
G54D16*
X24484Y-19610D03*
G54D17*
X25484Y-19610D03*
X26484Y-19610D03*
X27484Y-19610D03*
X27484Y-16610D03*
X26484Y-16610D03*
X25484Y-16610D03*
X24484Y-16610D03*
G54D12*
X29724Y-19110D03*
G54D13*
X29724Y-18110D03*
X29724Y-17110D03*
G54D15*
X34055Y-20110D03*
X34055Y-16110D03*
X27590Y-14370D03*
X23590Y-14370D03*
X33102Y-21850D03*
X29102Y-21850D03*
X23591Y-21850D03*
X27591Y-21850D03*
X33102Y-14370D03*
X29102Y-14370D03*
G54D13*
X22835Y-17610D03*
X22835Y-18610D03*
G54D18*
X34442Y-15308D02*
X34764Y-15630D01*
X33102Y-15308D02*
X33983Y-15308D01*
X34764Y-16441D02*
X35433Y-17110D01*
X34764Y-15630D02*
X34764Y-16441D01*
X31783Y-17110D02*
X31783Y-16627D01*
X33983Y-15308D02*
X34442Y-15308D01*
X33102Y-15308D02*
X31783Y-16627D01*
X33102Y-14370D02*
X33102Y-15308D01*
X32783Y-18110D02*
X34108Y-19435D01*
X34055Y-19488D02*
X34108Y-19435D01*
X34055Y-20110D02*
X34055Y-19488D01*
X34108Y-19435D02*
X35433Y-18110D01*
X33102Y-21850D02*
X31783Y-20531D01*
X31783Y-20531D02*
X31783Y-19110D01*
X27590Y-14370D02*
X27590Y-14299D01*
X30709Y-13543D02*
X30669Y-13543D01*
X33937Y-13543D02*
X35433Y-15039D01*
X31783Y-18110D02*
X31299Y-18110D01*
X30709Y-17520D02*
X31299Y-18110D01*
X35433Y-15039D02*
X35433Y-16110D01*
X27590Y-14299D02*
X28346Y-13543D01*
X30669Y-13543D02*
X33937Y-13543D01*
X30709Y-17520D02*
X30709Y-13543D01*
X28346Y-13543D02*
X30669Y-13543D01*
X35433Y-16110D02*
X35433Y-16013D01*
X28984Y-17110D02*
X29724Y-17110D01*
X26977Y-19117D02*
X28984Y-17110D01*
X26977Y-19610D02*
X26977Y-19117D01*
X26484Y-19610D02*
X26977Y-19610D01*
X27484Y-19610D02*
X27977Y-19610D01*
X27977Y-19610D02*
X29477Y-18110D01*
X29477Y-18110D02*
X29724Y-18110D01*
X25484Y-16610D02*
X25484Y-15977D01*
X23590Y-14370D02*
X25197Y-15977D01*
X25197Y-15977D02*
X25484Y-15977D01*
X28871Y-14370D02*
X26977Y-16264D01*
X26977Y-16264D02*
X26977Y-16610D01*
X29102Y-14370D02*
X28871Y-14370D01*
X26484Y-16610D02*
X26977Y-16610D01*
X24484Y-19610D02*
X24977Y-19610D01*
X24977Y-20103D02*
X24977Y-19610D01*
X27591Y-21850D02*
X26724Y-21850D01*
X26724Y-21850D02*
X24977Y-20103D01*
X22835Y-17610D02*
X21335Y-19110D01*
X21335Y-19110D02*
X21260Y-19110D01*
X23591Y-21850D02*
X23591Y-21366D01*
X23991Y-16610D02*
X22991Y-17610D01*
X22991Y-17610D02*
X22835Y-17610D01*
X23591Y-21366D02*
X21335Y-19110D01*
X24484Y-16610D02*
X23991Y-16610D01*
G54D10*
G36*
X38741Y-20928D02*
X38667Y-20818D01*
X38443Y-20591D01*
X38178Y-20413D01*
X37885Y-20289D01*
X37572Y-20225D01*
X37253Y-20223D01*
X36940Y-20283D01*
X36644Y-20402D01*
X36378Y-20576D01*
X36150Y-20800D01*
X35970Y-21063D01*
X35946Y-21118D01*
X35946Y-19072D01*
X35929Y-18973D01*
X35893Y-18879D01*
X35881Y-18858D01*
X35868Y-18854D01*
X35868Y-18067D01*
X35868Y-17067D01*
X35868Y-16067D01*
X35851Y-15983D01*
X35819Y-15904D01*
X35772Y-15833D01*
X35711Y-15773D01*
X35653Y-15733D01*
X35653Y-15039D01*
X35649Y-14998D01*
X35649Y-14996D01*
X35641Y-14972D01*
X35637Y-14957D01*
X35636Y-14955D01*
X35617Y-14919D01*
X35616Y-14917D01*
X35596Y-14892D01*
X35590Y-14885D01*
X35589Y-14884D01*
X35588Y-14883D01*
X34094Y-13389D01*
X34093Y-13387D01*
X34071Y-13370D01*
X34061Y-13361D01*
X34059Y-13360D01*
X34024Y-13341D01*
X34021Y-13340D01*
X33983Y-13328D01*
X33980Y-13327D01*
X33949Y-13324D01*
X33940Y-13323D01*
X33938Y-13323D01*
X33937Y-13323D01*
X30716Y-13323D01*
X30712Y-13323D01*
X30711Y-13323D01*
X30709Y-13323D01*
X30672Y-13323D01*
X30669Y-13323D01*
X28348Y-13323D01*
X28346Y-13323D01*
X28303Y-13327D01*
X28267Y-13338D01*
X28265Y-13339D01*
X28264Y-13339D01*
X28262Y-13340D01*
X28224Y-13360D01*
X28214Y-13368D01*
X28192Y-13385D01*
X28190Y-13388D01*
X27662Y-13915D01*
X27638Y-13910D01*
X27548Y-13910D01*
X27460Y-13927D01*
X27376Y-13960D01*
X27300Y-14010D01*
X27236Y-14073D01*
X27185Y-14147D01*
X27149Y-14230D01*
X27131Y-14318D01*
X27129Y-14409D01*
X27146Y-14497D01*
X27179Y-14581D01*
X27228Y-14657D01*
X27290Y-14722D01*
X27364Y-14773D01*
X27447Y-14810D01*
X27535Y-14829D01*
X27625Y-14831D01*
X27714Y-14815D01*
X27798Y-14783D01*
X27874Y-14734D01*
X27940Y-14672D01*
X27992Y-14598D01*
X28029Y-14516D01*
X28049Y-14428D01*
X28050Y-14325D01*
X28032Y-14237D01*
X28012Y-14188D01*
X28437Y-13763D01*
X30489Y-13763D01*
X30489Y-17518D01*
X30489Y-17520D01*
X30493Y-17563D01*
X30504Y-17598D01*
X30505Y-17601D01*
X30506Y-17604D01*
X30512Y-17615D01*
X30524Y-17640D01*
X30526Y-17642D01*
X30551Y-17673D01*
X30553Y-17676D01*
X31142Y-18264D01*
X31143Y-18265D01*
X31175Y-18292D01*
X31176Y-18293D01*
X31192Y-18301D01*
X31212Y-18312D01*
X31214Y-18312D01*
X31215Y-18313D01*
X31217Y-18313D01*
X31253Y-18325D01*
X31256Y-18325D01*
X31296Y-18330D01*
X31298Y-18330D01*
X31299Y-18330D01*
X31377Y-18330D01*
X31421Y-18397D01*
X31483Y-18462D01*
X31557Y-18513D01*
X31640Y-18550D01*
X31728Y-18569D01*
X31818Y-18571D01*
X31907Y-18555D01*
X31991Y-18523D01*
X32067Y-18474D01*
X32133Y-18412D01*
X32185Y-18338D01*
X32222Y-18256D01*
X32242Y-18168D01*
X32243Y-18065D01*
X32225Y-17977D01*
X32191Y-17893D01*
X32141Y-17818D01*
X32078Y-17754D01*
X32003Y-17703D01*
X31920Y-17669D01*
X31831Y-17650D01*
X31741Y-17650D01*
X31653Y-17667D01*
X31569Y-17700D01*
X31493Y-17750D01*
X31429Y-17813D01*
X31381Y-17881D01*
X30929Y-17428D01*
X30929Y-13763D01*
X33845Y-13763D01*
X35213Y-15130D01*
X35213Y-15734D01*
X35159Y-15770D01*
X35098Y-15829D01*
X35050Y-15900D01*
X35016Y-15978D01*
X34999Y-16062D01*
X34997Y-16147D01*
X35013Y-16231D01*
X35044Y-16310D01*
X35091Y-16382D01*
X35150Y-16443D01*
X35220Y-16492D01*
X35298Y-16526D01*
X35382Y-16544D01*
X35467Y-16546D01*
X35551Y-16531D01*
X35630Y-16500D01*
X35702Y-16454D01*
X35764Y-16395D01*
X35813Y-16326D01*
X35848Y-16248D01*
X35867Y-16164D01*
X35868Y-16067D01*
X35868Y-17067D01*
X35851Y-16983D01*
X35819Y-16904D01*
X35772Y-16833D01*
X35711Y-16773D01*
X35641Y-16725D01*
X35562Y-16692D01*
X35478Y-16675D01*
X35393Y-16675D01*
X35322Y-16688D01*
X34984Y-16349D01*
X34984Y-15632D01*
X34984Y-15630D01*
X34980Y-15589D01*
X34980Y-15587D01*
X34972Y-15563D01*
X34968Y-15548D01*
X34967Y-15546D01*
X34948Y-15510D01*
X34947Y-15508D01*
X34927Y-15483D01*
X34921Y-15476D01*
X34920Y-15475D01*
X34919Y-15474D01*
X34599Y-15154D01*
X34598Y-15152D01*
X34576Y-15135D01*
X34566Y-15126D01*
X34564Y-15125D01*
X34529Y-15106D01*
X34526Y-15105D01*
X34488Y-15093D01*
X34485Y-15092D01*
X34454Y-15089D01*
X34445Y-15088D01*
X34443Y-15088D01*
X34442Y-15088D01*
X33986Y-15088D01*
X33983Y-15088D01*
X33322Y-15088D01*
X33322Y-14775D01*
X33386Y-14734D01*
X33452Y-14672D01*
X33504Y-14598D01*
X33541Y-14516D01*
X33561Y-14428D01*
X33562Y-14325D01*
X33544Y-14237D01*
X33510Y-14153D01*
X33460Y-14078D01*
X33397Y-14014D01*
X33322Y-13963D01*
X33239Y-13929D01*
X33150Y-13910D01*
X33060Y-13910D01*
X32972Y-13927D01*
X32888Y-13960D01*
X32812Y-14010D01*
X32748Y-14073D01*
X32697Y-14147D01*
X32661Y-14230D01*
X32643Y-14318D01*
X32641Y-14409D01*
X32658Y-14497D01*
X32691Y-14581D01*
X32740Y-14657D01*
X32802Y-14722D01*
X32876Y-14773D01*
X32882Y-14775D01*
X32882Y-15216D01*
X31627Y-16471D01*
X31610Y-16492D01*
X31601Y-16503D01*
X31581Y-16540D01*
X31580Y-16542D01*
X31580Y-16543D01*
X31567Y-16584D01*
X31564Y-16614D01*
X31563Y-16624D01*
X31563Y-16626D01*
X31563Y-16627D01*
X31563Y-16651D01*
X31467Y-16651D01*
X31436Y-16657D01*
X31408Y-16669D01*
X31382Y-16686D01*
X31360Y-16708D01*
X31342Y-16734D01*
X31330Y-16763D01*
X31324Y-16794D01*
X31324Y-16825D01*
X31324Y-17426D01*
X31330Y-17457D01*
X31342Y-17485D01*
X31359Y-17511D01*
X31381Y-17533D01*
X31407Y-17551D01*
X31436Y-17563D01*
X31467Y-17569D01*
X31498Y-17569D01*
X32099Y-17569D01*
X32130Y-17563D01*
X32158Y-17551D01*
X32184Y-17534D01*
X32206Y-17512D01*
X32224Y-17486D01*
X32236Y-17457D01*
X32242Y-17426D01*
X32242Y-17395D01*
X32242Y-16794D01*
X32236Y-16763D01*
X32224Y-16735D01*
X32207Y-16709D01*
X32185Y-16687D01*
X32159Y-16669D01*
X32130Y-16657D01*
X32099Y-16651D01*
X32070Y-16651D01*
X33193Y-15528D01*
X33980Y-15528D01*
X33983Y-15528D01*
X34350Y-15528D01*
X34544Y-15721D01*
X34544Y-16439D01*
X34544Y-16441D01*
X34548Y-16484D01*
X34559Y-16519D01*
X34560Y-16522D01*
X34561Y-16525D01*
X34567Y-16536D01*
X34579Y-16561D01*
X34581Y-16563D01*
X34606Y-16594D01*
X34608Y-16597D01*
X35011Y-16999D01*
X34999Y-17062D01*
X34997Y-17147D01*
X35013Y-17231D01*
X35044Y-17310D01*
X35091Y-17382D01*
X35150Y-17443D01*
X35220Y-17492D01*
X35298Y-17526D01*
X35382Y-17544D01*
X35467Y-17546D01*
X35551Y-17531D01*
X35630Y-17500D01*
X35702Y-17454D01*
X35764Y-17395D01*
X35813Y-17326D01*
X35848Y-17248D01*
X35867Y-17164D01*
X35868Y-17067D01*
X35868Y-18067D01*
X35851Y-17983D01*
X35819Y-17904D01*
X35772Y-17833D01*
X35711Y-17773D01*
X35641Y-17725D01*
X35562Y-17692D01*
X35478Y-17675D01*
X35393Y-17675D01*
X35309Y-17691D01*
X35230Y-17723D01*
X35159Y-17770D01*
X35098Y-17829D01*
X35050Y-17900D01*
X35016Y-17978D01*
X34999Y-18062D01*
X34997Y-18147D01*
X35011Y-18220D01*
X34515Y-18715D01*
X34515Y-16065D01*
X34497Y-15977D01*
X34463Y-15893D01*
X34413Y-15818D01*
X34350Y-15754D01*
X34275Y-15703D01*
X34192Y-15669D01*
X34103Y-15650D01*
X34013Y-15650D01*
X33925Y-15667D01*
X33841Y-15700D01*
X33765Y-15750D01*
X33701Y-15813D01*
X33650Y-15887D01*
X33614Y-15970D01*
X33596Y-16058D01*
X33594Y-16149D01*
X33611Y-16237D01*
X33644Y-16321D01*
X33693Y-16397D01*
X33755Y-16462D01*
X33829Y-16513D01*
X33912Y-16550D01*
X34000Y-16569D01*
X34090Y-16571D01*
X34179Y-16555D01*
X34263Y-16523D01*
X34339Y-16474D01*
X34405Y-16412D01*
X34457Y-16338D01*
X34494Y-16256D01*
X34514Y-16168D01*
X34515Y-16065D01*
X34515Y-18715D01*
X34107Y-19123D01*
X33225Y-18240D01*
X33242Y-18168D01*
X33243Y-18065D01*
X33243Y-17065D01*
X33225Y-16977D01*
X33191Y-16893D01*
X33141Y-16818D01*
X33078Y-16754D01*
X33003Y-16703D01*
X32920Y-16669D01*
X32831Y-16650D01*
X32741Y-16650D01*
X32653Y-16667D01*
X32569Y-16700D01*
X32493Y-16750D01*
X32429Y-16813D01*
X32378Y-16887D01*
X32342Y-16970D01*
X32324Y-17058D01*
X32322Y-17149D01*
X32339Y-17237D01*
X32372Y-17321D01*
X32421Y-17397D01*
X32483Y-17462D01*
X32557Y-17513D01*
X32640Y-17550D01*
X32728Y-17569D01*
X32818Y-17571D01*
X32907Y-17555D01*
X32991Y-17523D01*
X33067Y-17474D01*
X33133Y-17412D01*
X33185Y-17338D01*
X33222Y-17256D01*
X33242Y-17168D01*
X33243Y-17065D01*
X33243Y-18065D01*
X33225Y-17977D01*
X33191Y-17893D01*
X33141Y-17818D01*
X33078Y-17754D01*
X33003Y-17703D01*
X32920Y-17669D01*
X32831Y-17650D01*
X32741Y-17650D01*
X32653Y-17667D01*
X32569Y-17700D01*
X32493Y-17750D01*
X32429Y-17813D01*
X32378Y-17887D01*
X32342Y-17970D01*
X32324Y-18058D01*
X32322Y-18149D01*
X32339Y-18237D01*
X32372Y-18321D01*
X32421Y-18397D01*
X32483Y-18462D01*
X32557Y-18513D01*
X32640Y-18550D01*
X32728Y-18569D01*
X32818Y-18571D01*
X32907Y-18555D01*
X32913Y-18552D01*
X32965Y-18604D01*
X32953Y-18599D01*
X32851Y-18575D01*
X32746Y-18573D01*
X32642Y-18590D01*
X32544Y-18628D01*
X32516Y-18641D01*
X32489Y-18731D01*
X32755Y-18997D01*
X32783Y-19025D01*
X32868Y-19110D01*
X32896Y-19138D01*
X33162Y-19404D01*
X33252Y-19377D01*
X33294Y-19280D01*
X33318Y-19178D01*
X33320Y-19073D01*
X33303Y-18969D01*
X33285Y-18924D01*
X33836Y-19474D01*
X33836Y-19475D01*
X33835Y-19485D01*
X33835Y-19487D01*
X33835Y-19488D01*
X33835Y-19703D01*
X33765Y-19750D01*
X33701Y-19813D01*
X33650Y-19887D01*
X33614Y-19970D01*
X33596Y-20058D01*
X33594Y-20149D01*
X33611Y-20237D01*
X33644Y-20321D01*
X33693Y-20397D01*
X33755Y-20462D01*
X33829Y-20513D01*
X33912Y-20550D01*
X34000Y-20569D01*
X34090Y-20571D01*
X34179Y-20555D01*
X34263Y-20523D01*
X34339Y-20474D01*
X34405Y-20412D01*
X34457Y-20338D01*
X34494Y-20256D01*
X34514Y-20168D01*
X34515Y-20065D01*
X34497Y-19977D01*
X34463Y-19893D01*
X34413Y-19818D01*
X34350Y-19754D01*
X34275Y-19703D01*
X34275Y-19579D01*
X34975Y-18878D01*
X34944Y-18949D01*
X34922Y-19048D01*
X34920Y-19148D01*
X34937Y-19247D01*
X34973Y-19341D01*
X34985Y-19362D01*
X35072Y-19386D01*
X35320Y-19138D01*
X35348Y-19110D01*
X35433Y-19025D01*
X35461Y-18997D01*
X35709Y-18749D01*
X35685Y-18662D01*
X35594Y-18621D01*
X35495Y-18599D01*
X35395Y-18597D01*
X35296Y-18614D01*
X35205Y-18648D01*
X35322Y-18531D01*
X35382Y-18544D01*
X35467Y-18546D01*
X35551Y-18531D01*
X35630Y-18500D01*
X35702Y-18454D01*
X35764Y-18395D01*
X35813Y-18326D01*
X35848Y-18248D01*
X35867Y-18164D01*
X35868Y-18067D01*
X35868Y-18854D01*
X35794Y-18834D01*
X35518Y-19110D01*
X35794Y-19386D01*
X35881Y-19362D01*
X35922Y-19271D01*
X35944Y-19172D01*
X35946Y-19072D01*
X35946Y-21118D01*
X35867Y-21302D01*
X35867Y-20401D01*
X35867Y-20370D01*
X35867Y-19819D01*
X35861Y-19788D01*
X35849Y-19760D01*
X35832Y-19734D01*
X35810Y-19712D01*
X35784Y-19694D01*
X35755Y-19682D01*
X35724Y-19676D01*
X35709Y-19676D01*
X35709Y-19471D01*
X35433Y-19195D01*
X35157Y-19471D01*
X35181Y-19558D01*
X35272Y-19599D01*
X35371Y-19621D01*
X35471Y-19623D01*
X35570Y-19606D01*
X35664Y-19570D01*
X35685Y-19558D01*
X35709Y-19471D01*
X35709Y-19676D01*
X35693Y-19676D01*
X35142Y-19676D01*
X35111Y-19682D01*
X35083Y-19694D01*
X35057Y-19711D01*
X35035Y-19733D01*
X35017Y-19759D01*
X35005Y-19788D01*
X34999Y-19819D01*
X34999Y-19850D01*
X34999Y-20401D01*
X35005Y-20432D01*
X35017Y-20460D01*
X35034Y-20486D01*
X35056Y-20508D01*
X35082Y-20526D01*
X35111Y-20538D01*
X35142Y-20544D01*
X35173Y-20544D01*
X35724Y-20544D01*
X35755Y-20538D01*
X35783Y-20526D01*
X35809Y-20509D01*
X35831Y-20487D01*
X35849Y-20461D01*
X35861Y-20432D01*
X35867Y-20401D01*
X35867Y-21302D01*
X35844Y-21356D01*
X35777Y-21667D01*
X35773Y-21986D01*
X35830Y-22300D01*
X35948Y-22596D01*
X36120Y-22864D01*
X36342Y-23094D01*
X36480Y-23190D01*
X33562Y-23190D01*
X33562Y-21805D01*
X33544Y-21717D01*
X33510Y-21633D01*
X33460Y-21558D01*
X33397Y-21494D01*
X33322Y-21443D01*
X33239Y-21409D01*
X33150Y-21390D01*
X33077Y-21390D01*
X33077Y-19489D01*
X32783Y-19195D01*
X32698Y-19280D01*
X32698Y-19110D01*
X32404Y-18816D01*
X32314Y-18843D01*
X32272Y-18940D01*
X32248Y-19042D01*
X32246Y-19147D01*
X32263Y-19251D01*
X32301Y-19349D01*
X32314Y-19377D01*
X32404Y-19404D01*
X32698Y-19110D01*
X32698Y-19280D01*
X32489Y-19489D01*
X32516Y-19579D01*
X32613Y-19621D01*
X32715Y-19645D01*
X32820Y-19647D01*
X32924Y-19630D01*
X33022Y-19592D01*
X33050Y-19579D01*
X33077Y-19489D01*
X33077Y-21390D01*
X33060Y-21390D01*
X32972Y-21407D01*
X32970Y-21407D01*
X32003Y-20439D01*
X32003Y-19515D01*
X32067Y-19474D01*
X32133Y-19412D01*
X32185Y-19338D01*
X32222Y-19256D01*
X32242Y-19168D01*
X32243Y-19065D01*
X32225Y-18977D01*
X32191Y-18893D01*
X32141Y-18818D01*
X32078Y-18754D01*
X32003Y-18703D01*
X31920Y-18669D01*
X31831Y-18650D01*
X31741Y-18650D01*
X31653Y-18667D01*
X31569Y-18700D01*
X31493Y-18750D01*
X31429Y-18813D01*
X31378Y-18887D01*
X31342Y-18970D01*
X31324Y-19058D01*
X31322Y-19149D01*
X31339Y-19237D01*
X31372Y-19321D01*
X31421Y-19397D01*
X31483Y-19462D01*
X31557Y-19513D01*
X31563Y-19515D01*
X31563Y-20529D01*
X31563Y-20531D01*
X31567Y-20574D01*
X31578Y-20609D01*
X31579Y-20612D01*
X31580Y-20615D01*
X31586Y-20626D01*
X31598Y-20651D01*
X31600Y-20653D01*
X31625Y-20684D01*
X31627Y-20687D01*
X32659Y-21718D01*
X32643Y-21798D01*
X32641Y-21889D01*
X32658Y-21977D01*
X32691Y-22061D01*
X32740Y-22137D01*
X32802Y-22202D01*
X32876Y-22253D01*
X32959Y-22290D01*
X33047Y-22309D01*
X33137Y-22311D01*
X33226Y-22295D01*
X33310Y-22263D01*
X33386Y-22214D01*
X33452Y-22152D01*
X33504Y-22078D01*
X33541Y-21996D01*
X33561Y-21908D01*
X33562Y-21805D01*
X33562Y-23190D01*
X30237Y-23190D01*
X30237Y-18072D01*
X30220Y-17973D01*
X30184Y-17879D01*
X30172Y-17858D01*
X30159Y-17854D01*
X30159Y-17067D01*
X30142Y-16983D01*
X30110Y-16904D01*
X30063Y-16833D01*
X30002Y-16773D01*
X29932Y-16725D01*
X29853Y-16692D01*
X29769Y-16675D01*
X29684Y-16675D01*
X29600Y-16691D01*
X29562Y-16706D01*
X29562Y-14325D01*
X29544Y-14237D01*
X29510Y-14153D01*
X29460Y-14078D01*
X29397Y-14014D01*
X29322Y-13963D01*
X29239Y-13929D01*
X29150Y-13910D01*
X29060Y-13910D01*
X28972Y-13927D01*
X28888Y-13960D01*
X28812Y-14010D01*
X28748Y-14073D01*
X28697Y-14147D01*
X28661Y-14230D01*
X28650Y-14278D01*
X26821Y-16108D01*
X26805Y-16127D01*
X26784Y-16106D01*
X26708Y-16054D01*
X26623Y-16019D01*
X26533Y-16000D01*
X26441Y-16000D01*
X26351Y-16017D01*
X26266Y-16051D01*
X26189Y-16102D01*
X26124Y-16166D01*
X26072Y-16242D01*
X26036Y-16326D01*
X26017Y-16416D01*
X26015Y-16507D01*
X26016Y-16798D01*
X26034Y-16888D01*
X26069Y-16973D01*
X26120Y-17049D01*
X26184Y-17114D01*
X26260Y-17166D01*
X26345Y-17201D01*
X26435Y-17220D01*
X26527Y-17220D01*
X26617Y-17203D01*
X26702Y-17169D01*
X26779Y-17118D01*
X26844Y-17054D01*
X26896Y-16978D01*
X26932Y-16894D01*
X26945Y-16830D01*
X26975Y-16830D01*
X26977Y-16830D01*
X27018Y-16826D01*
X27020Y-16826D01*
X27021Y-16825D01*
X27034Y-16888D01*
X27069Y-16973D01*
X27120Y-17049D01*
X27184Y-17114D01*
X27260Y-17166D01*
X27345Y-17201D01*
X27435Y-17220D01*
X27527Y-17220D01*
X27617Y-17203D01*
X27702Y-17169D01*
X27779Y-17118D01*
X27844Y-17054D01*
X27896Y-16978D01*
X27932Y-16894D01*
X27951Y-16804D01*
X27953Y-16713D01*
X27952Y-16422D01*
X27934Y-16332D01*
X27899Y-16247D01*
X27848Y-16171D01*
X27784Y-16106D01*
X27708Y-16054D01*
X27623Y-16019D01*
X27549Y-16003D01*
X28818Y-14733D01*
X28876Y-14773D01*
X28959Y-14810D01*
X29047Y-14829D01*
X29137Y-14831D01*
X29226Y-14815D01*
X29310Y-14783D01*
X29386Y-14734D01*
X29452Y-14672D01*
X29504Y-14598D01*
X29541Y-14516D01*
X29561Y-14428D01*
X29562Y-14325D01*
X29562Y-16706D01*
X29521Y-16723D01*
X29450Y-16770D01*
X29389Y-16829D01*
X29347Y-16890D01*
X28986Y-16890D01*
X28984Y-16890D01*
X28941Y-16894D01*
X28917Y-16901D01*
X28902Y-16906D01*
X28900Y-16906D01*
X28900Y-16907D01*
X28862Y-16927D01*
X28837Y-16947D01*
X28830Y-16953D01*
X28829Y-16954D01*
X28828Y-16955D01*
X26821Y-18961D01*
X26804Y-18982D01*
X26795Y-18993D01*
X26775Y-19030D01*
X26774Y-19032D01*
X26774Y-19033D01*
X26761Y-19074D01*
X26759Y-19089D01*
X26708Y-19054D01*
X26623Y-19019D01*
X26533Y-19000D01*
X26441Y-19000D01*
X26351Y-19017D01*
X26266Y-19051D01*
X26189Y-19102D01*
X26124Y-19166D01*
X26072Y-19242D01*
X26036Y-19326D01*
X26017Y-19416D01*
X26015Y-19507D01*
X26016Y-19798D01*
X26034Y-19888D01*
X26069Y-19973D01*
X26120Y-20049D01*
X26184Y-20114D01*
X26260Y-20166D01*
X26345Y-20201D01*
X26435Y-20220D01*
X26527Y-20220D01*
X26617Y-20203D01*
X26702Y-20169D01*
X26779Y-20118D01*
X26844Y-20054D01*
X26896Y-19978D01*
X26932Y-19894D01*
X26943Y-19841D01*
X26946Y-19867D01*
X26979Y-19969D01*
X27031Y-20063D01*
X27100Y-20145D01*
X27184Y-20212D01*
X27279Y-20261D01*
X27339Y-20280D01*
X27424Y-20236D01*
X27424Y-19710D01*
X27424Y-19670D01*
X27424Y-19550D01*
X27544Y-19550D01*
X27584Y-19550D01*
X28034Y-19550D01*
X28034Y-19460D01*
X28022Y-19353D01*
X27989Y-19251D01*
X27937Y-19157D01*
X27868Y-19075D01*
X27784Y-19008D01*
X27689Y-18959D01*
X27629Y-18940D01*
X27584Y-18963D01*
X27584Y-18920D01*
X27485Y-18920D01*
X29075Y-17330D01*
X29348Y-17330D01*
X29382Y-17382D01*
X29441Y-17443D01*
X29511Y-17492D01*
X29589Y-17526D01*
X29673Y-17544D01*
X29758Y-17546D01*
X29842Y-17531D01*
X29921Y-17500D01*
X29993Y-17454D01*
X30055Y-17395D01*
X30104Y-17326D01*
X30139Y-17248D01*
X30158Y-17164D01*
X30159Y-17067D01*
X30159Y-17854D01*
X30085Y-17834D01*
X30000Y-17919D01*
X30000Y-17749D01*
X29976Y-17662D01*
X29885Y-17621D01*
X29786Y-17599D01*
X29686Y-17597D01*
X29587Y-17614D01*
X29493Y-17650D01*
X29472Y-17662D01*
X29448Y-17749D01*
X29724Y-18025D01*
X30000Y-17749D01*
X30000Y-17919D01*
X29809Y-18110D01*
X30085Y-18386D01*
X30172Y-18362D01*
X30213Y-18271D01*
X30235Y-18172D01*
X30237Y-18072D01*
X30237Y-23190D01*
X30158Y-23190D01*
X30158Y-19401D01*
X30158Y-19370D01*
X30158Y-18819D01*
X30152Y-18788D01*
X30140Y-18760D01*
X30123Y-18734D01*
X30101Y-18712D01*
X30075Y-18694D01*
X30046Y-18682D01*
X30015Y-18676D01*
X30000Y-18676D01*
X30000Y-18471D01*
X29724Y-18195D01*
X29639Y-18280D01*
X29639Y-18110D01*
X29363Y-17834D01*
X29276Y-17858D01*
X29235Y-17949D01*
X29213Y-18048D01*
X29211Y-18148D01*
X29228Y-18247D01*
X29264Y-18341D01*
X29276Y-18362D01*
X29363Y-18386D01*
X29639Y-18110D01*
X29639Y-18280D01*
X29448Y-18471D01*
X29472Y-18558D01*
X29563Y-18599D01*
X29662Y-18621D01*
X29762Y-18623D01*
X29861Y-18606D01*
X29955Y-18570D01*
X29976Y-18558D01*
X30000Y-18471D01*
X30000Y-18676D01*
X29984Y-18676D01*
X29433Y-18676D01*
X29402Y-18682D01*
X29374Y-18694D01*
X29348Y-18711D01*
X29326Y-18733D01*
X29308Y-18759D01*
X29296Y-18788D01*
X29290Y-18819D01*
X29290Y-18850D01*
X29290Y-19401D01*
X29296Y-19432D01*
X29308Y-19460D01*
X29325Y-19486D01*
X29347Y-19508D01*
X29373Y-19526D01*
X29402Y-19538D01*
X29433Y-19544D01*
X29464Y-19544D01*
X30015Y-19544D01*
X30046Y-19538D01*
X30074Y-19526D01*
X30100Y-19509D01*
X30122Y-19487D01*
X30140Y-19461D01*
X30152Y-19432D01*
X30158Y-19401D01*
X30158Y-23190D01*
X29562Y-23190D01*
X29562Y-21805D01*
X29544Y-21717D01*
X29510Y-21633D01*
X29460Y-21558D01*
X29397Y-21494D01*
X29322Y-21443D01*
X29239Y-21409D01*
X29150Y-21390D01*
X29060Y-21390D01*
X28972Y-21407D01*
X28888Y-21440D01*
X28812Y-21490D01*
X28748Y-21553D01*
X28697Y-21627D01*
X28661Y-21710D01*
X28643Y-21798D01*
X28641Y-21889D01*
X28658Y-21977D01*
X28691Y-22061D01*
X28740Y-22137D01*
X28802Y-22202D01*
X28876Y-22253D01*
X28959Y-22290D01*
X29047Y-22309D01*
X29137Y-22311D01*
X29226Y-22295D01*
X29310Y-22263D01*
X29386Y-22214D01*
X29452Y-22152D01*
X29504Y-22078D01*
X29541Y-21996D01*
X29561Y-21908D01*
X29562Y-21805D01*
X29562Y-23190D01*
X28051Y-23190D01*
X28051Y-21805D01*
X28034Y-21721D01*
X28034Y-19760D01*
X28034Y-19670D01*
X27544Y-19670D01*
X27544Y-20236D01*
X27629Y-20280D01*
X27689Y-20261D01*
X27784Y-20212D01*
X27868Y-20145D01*
X27937Y-20063D01*
X27989Y-19969D01*
X28022Y-19867D01*
X28034Y-19760D01*
X28034Y-21721D01*
X28033Y-21717D01*
X27999Y-21633D01*
X27949Y-21558D01*
X27886Y-21494D01*
X27811Y-21443D01*
X27728Y-21409D01*
X27639Y-21390D01*
X27549Y-21390D01*
X27461Y-21407D01*
X27377Y-21440D01*
X27301Y-21490D01*
X27237Y-21553D01*
X27186Y-21627D01*
X27184Y-21630D01*
X26815Y-21630D01*
X25398Y-20212D01*
X25435Y-20220D01*
X25527Y-20220D01*
X25617Y-20203D01*
X25702Y-20169D01*
X25779Y-20118D01*
X25844Y-20054D01*
X25896Y-19978D01*
X25932Y-19894D01*
X25951Y-19804D01*
X25953Y-19713D01*
X25953Y-16713D01*
X25952Y-16422D01*
X25934Y-16332D01*
X25899Y-16247D01*
X25848Y-16171D01*
X25784Y-16106D01*
X25708Y-16054D01*
X25704Y-16052D01*
X25704Y-15979D01*
X25704Y-15977D01*
X25700Y-15936D01*
X25700Y-15934D01*
X25692Y-15910D01*
X25688Y-15895D01*
X25687Y-15893D01*
X25668Y-15857D01*
X25667Y-15855D01*
X25647Y-15830D01*
X25641Y-15823D01*
X25640Y-15822D01*
X25635Y-15817D01*
X25608Y-15795D01*
X25571Y-15775D01*
X25570Y-15774D01*
X25569Y-15774D01*
X25528Y-15761D01*
X25491Y-15757D01*
X25487Y-15757D01*
X25486Y-15757D01*
X25484Y-15757D01*
X25288Y-15757D01*
X24032Y-14500D01*
X24049Y-14428D01*
X24050Y-14325D01*
X24032Y-14237D01*
X23998Y-14153D01*
X23948Y-14078D01*
X23885Y-14014D01*
X23810Y-13963D01*
X23727Y-13929D01*
X23638Y-13910D01*
X23548Y-13910D01*
X23460Y-13927D01*
X23376Y-13960D01*
X23300Y-14010D01*
X23236Y-14073D01*
X23185Y-14147D01*
X23149Y-14230D01*
X23131Y-14318D01*
X23129Y-14409D01*
X23146Y-14497D01*
X23179Y-14581D01*
X23228Y-14657D01*
X23290Y-14722D01*
X23364Y-14773D01*
X23447Y-14810D01*
X23535Y-14829D01*
X23625Y-14831D01*
X23714Y-14815D01*
X23720Y-14812D01*
X25040Y-16131D01*
X25041Y-16132D01*
X25073Y-16159D01*
X25074Y-16160D01*
X25085Y-16165D01*
X25110Y-16179D01*
X25112Y-16179D01*
X25114Y-16180D01*
X25072Y-16242D01*
X25036Y-16326D01*
X25017Y-16416D01*
X25015Y-16507D01*
X25016Y-16798D01*
X25034Y-16888D01*
X25069Y-16973D01*
X25120Y-17049D01*
X25184Y-17114D01*
X25260Y-17166D01*
X25345Y-17201D01*
X25435Y-17220D01*
X25527Y-17220D01*
X25617Y-17203D01*
X25702Y-17169D01*
X25779Y-17118D01*
X25844Y-17054D01*
X25896Y-16978D01*
X25932Y-16894D01*
X25951Y-16804D01*
X25953Y-16713D01*
X25953Y-19713D01*
X25952Y-19422D01*
X25934Y-19332D01*
X25899Y-19247D01*
X25848Y-19171D01*
X25784Y-19106D01*
X25708Y-19054D01*
X25623Y-19019D01*
X25533Y-19000D01*
X25441Y-19000D01*
X25351Y-19017D01*
X25266Y-19051D01*
X25189Y-19102D01*
X25124Y-19166D01*
X25072Y-19242D01*
X25036Y-19326D01*
X25021Y-19394D01*
X24984Y-19390D01*
X24980Y-19390D01*
X24979Y-19390D01*
X24977Y-19390D01*
X24953Y-19390D01*
X24953Y-19144D01*
X24953Y-16713D01*
X24952Y-16422D01*
X24934Y-16332D01*
X24899Y-16247D01*
X24848Y-16171D01*
X24784Y-16106D01*
X24708Y-16054D01*
X24623Y-16019D01*
X24533Y-16000D01*
X24441Y-16000D01*
X24351Y-16017D01*
X24266Y-16051D01*
X24189Y-16102D01*
X24124Y-16166D01*
X24072Y-16242D01*
X24036Y-16326D01*
X24022Y-16390D01*
X23993Y-16390D01*
X23991Y-16390D01*
X23948Y-16394D01*
X23912Y-16405D01*
X23910Y-16406D01*
X23909Y-16406D01*
X23907Y-16407D01*
X23869Y-16427D01*
X23859Y-16435D01*
X23837Y-16452D01*
X23835Y-16455D01*
X23055Y-17233D01*
X23043Y-17225D01*
X22964Y-17192D01*
X22880Y-17175D01*
X22795Y-17175D01*
X22711Y-17191D01*
X22632Y-17223D01*
X22561Y-17270D01*
X22500Y-17329D01*
X22452Y-17400D01*
X22418Y-17478D01*
X22401Y-17562D01*
X22399Y-17647D01*
X22413Y-17720D01*
X21773Y-18359D01*
X21773Y-18072D01*
X21756Y-17973D01*
X21720Y-17879D01*
X21708Y-17858D01*
X21694Y-17854D01*
X21694Y-17401D01*
X21694Y-17370D01*
X21694Y-16819D01*
X21688Y-16788D01*
X21676Y-16760D01*
X21659Y-16734D01*
X21637Y-16712D01*
X21611Y-16694D01*
X21582Y-16682D01*
X21551Y-16676D01*
X21520Y-16676D01*
X20969Y-16676D01*
X20938Y-16682D01*
X20910Y-16694D01*
X20884Y-16711D01*
X20862Y-16733D01*
X20844Y-16759D01*
X20832Y-16788D01*
X20826Y-16819D01*
X20826Y-16850D01*
X20826Y-17401D01*
X20832Y-17432D01*
X20844Y-17460D01*
X20861Y-17486D01*
X20883Y-17508D01*
X20909Y-17526D01*
X20938Y-17538D01*
X20969Y-17544D01*
X21000Y-17544D01*
X21551Y-17544D01*
X21582Y-17538D01*
X21610Y-17526D01*
X21636Y-17509D01*
X21658Y-17487D01*
X21676Y-17461D01*
X21688Y-17432D01*
X21694Y-17401D01*
X21694Y-17854D01*
X21621Y-17834D01*
X21536Y-17919D01*
X21536Y-17749D01*
X21512Y-17662D01*
X21421Y-17621D01*
X21322Y-17599D01*
X21222Y-17597D01*
X21123Y-17614D01*
X21029Y-17650D01*
X21008Y-17662D01*
X20984Y-17749D01*
X21260Y-18025D01*
X21536Y-17749D01*
X21536Y-17919D01*
X21345Y-18110D01*
X21621Y-18386D01*
X21708Y-18362D01*
X21749Y-18271D01*
X21771Y-18172D01*
X21773Y-18072D01*
X21773Y-18359D01*
X21536Y-18596D01*
X21536Y-18471D01*
X21260Y-18195D01*
X21175Y-18280D01*
X21175Y-18110D01*
X20899Y-17834D01*
X20812Y-17858D01*
X20771Y-17949D01*
X20749Y-18048D01*
X20747Y-18148D01*
X20764Y-18247D01*
X20800Y-18341D01*
X20812Y-18362D01*
X20899Y-18386D01*
X21175Y-18110D01*
X21175Y-18280D01*
X20984Y-18471D01*
X21008Y-18558D01*
X21099Y-18599D01*
X21198Y-18621D01*
X21298Y-18623D01*
X21397Y-18606D01*
X21491Y-18570D01*
X21512Y-18558D01*
X21536Y-18471D01*
X21536Y-18596D01*
X21425Y-18707D01*
X21389Y-18692D01*
X21305Y-18675D01*
X21220Y-18675D01*
X21136Y-18691D01*
X21057Y-18723D01*
X20986Y-18770D01*
X20925Y-18829D01*
X20877Y-18900D01*
X20843Y-18978D01*
X20826Y-19062D01*
X20824Y-19147D01*
X20840Y-19231D01*
X20871Y-19310D01*
X20918Y-19382D01*
X20977Y-19443D01*
X21047Y-19492D01*
X21125Y-19526D01*
X21209Y-19544D01*
X21294Y-19546D01*
X21378Y-19531D01*
X21425Y-19512D01*
X23363Y-21449D01*
X23301Y-21490D01*
X23237Y-21553D01*
X23186Y-21627D01*
X23150Y-21710D01*
X23132Y-21798D01*
X23130Y-21889D01*
X23147Y-21977D01*
X23180Y-22061D01*
X23229Y-22137D01*
X23291Y-22202D01*
X23365Y-22253D01*
X23448Y-22290D01*
X23536Y-22309D01*
X23626Y-22311D01*
X23715Y-22295D01*
X23799Y-22263D01*
X23875Y-22214D01*
X23941Y-22152D01*
X23993Y-22078D01*
X24030Y-21996D01*
X24050Y-21908D01*
X24051Y-21805D01*
X24033Y-21717D01*
X23999Y-21633D01*
X23949Y-21558D01*
X23886Y-21494D01*
X23811Y-21443D01*
X23811Y-21368D01*
X23811Y-21366D01*
X23807Y-21325D01*
X23807Y-21323D01*
X23799Y-21299D01*
X23795Y-21284D01*
X23794Y-21282D01*
X23775Y-21246D01*
X23774Y-21244D01*
X23754Y-21219D01*
X23748Y-21212D01*
X23747Y-21211D01*
X23746Y-21210D01*
X23348Y-20811D01*
X23348Y-18572D01*
X23331Y-18473D01*
X23295Y-18379D01*
X23283Y-18358D01*
X23196Y-18334D01*
X22920Y-18610D01*
X23196Y-18886D01*
X23283Y-18862D01*
X23324Y-18771D01*
X23346Y-18672D01*
X23348Y-18572D01*
X23348Y-20811D01*
X23111Y-20574D01*
X23111Y-18971D01*
X22835Y-18695D01*
X22559Y-18971D01*
X22583Y-19058D01*
X22674Y-19099D01*
X22773Y-19121D01*
X22873Y-19123D01*
X22972Y-19106D01*
X23066Y-19070D01*
X23087Y-19058D01*
X23111Y-18971D01*
X23111Y-20574D01*
X21694Y-19157D01*
X21695Y-19067D01*
X21694Y-19062D01*
X22377Y-18378D01*
X22346Y-18449D01*
X22324Y-18548D01*
X22322Y-18648D01*
X22339Y-18747D01*
X22375Y-18841D01*
X22387Y-18862D01*
X22474Y-18886D01*
X22722Y-18638D01*
X22750Y-18610D01*
X22835Y-18525D01*
X22863Y-18497D01*
X23111Y-18249D01*
X23087Y-18162D01*
X22996Y-18121D01*
X22897Y-18099D01*
X22797Y-18097D01*
X22698Y-18114D01*
X22607Y-18148D01*
X22724Y-18031D01*
X22784Y-18044D01*
X22869Y-18046D01*
X22953Y-18031D01*
X23032Y-18000D01*
X23104Y-17954D01*
X23166Y-17895D01*
X23215Y-17826D01*
X23250Y-17748D01*
X23269Y-17664D01*
X23269Y-17643D01*
X24032Y-16879D01*
X24034Y-16888D01*
X24069Y-16973D01*
X24120Y-17049D01*
X24184Y-17114D01*
X24260Y-17166D01*
X24345Y-17201D01*
X24435Y-17220D01*
X24527Y-17220D01*
X24617Y-17203D01*
X24702Y-17169D01*
X24779Y-17118D01*
X24844Y-17054D01*
X24896Y-16978D01*
X24932Y-16894D01*
X24951Y-16804D01*
X24953Y-16713D01*
X24953Y-19144D01*
X24947Y-19113D01*
X24935Y-19085D01*
X24918Y-19059D01*
X24896Y-19037D01*
X24870Y-19019D01*
X24841Y-19007D01*
X24810Y-19001D01*
X24779Y-19001D01*
X24158Y-19001D01*
X24127Y-19007D01*
X24099Y-19019D01*
X24073Y-19036D01*
X24051Y-19058D01*
X24033Y-19084D01*
X24021Y-19113D01*
X24015Y-19144D01*
X24015Y-19175D01*
X24015Y-20076D01*
X24021Y-20107D01*
X24033Y-20135D01*
X24050Y-20161D01*
X24072Y-20183D01*
X24098Y-20201D01*
X24127Y-20213D01*
X24158Y-20219D01*
X24189Y-20219D01*
X24790Y-20219D01*
X24792Y-20223D01*
X24794Y-20225D01*
X24819Y-20256D01*
X24821Y-20259D01*
X26567Y-22004D01*
X26568Y-22005D01*
X26600Y-22032D01*
X26601Y-22033D01*
X26612Y-22038D01*
X26637Y-22052D01*
X26639Y-22052D01*
X26678Y-22065D01*
X26680Y-22065D01*
X26721Y-22070D01*
X26724Y-22070D01*
X27185Y-22070D01*
X27229Y-22137D01*
X27291Y-22202D01*
X27365Y-22253D01*
X27448Y-22290D01*
X27536Y-22309D01*
X27626Y-22311D01*
X27715Y-22295D01*
X27799Y-22263D01*
X27875Y-22214D01*
X27941Y-22152D01*
X27993Y-22078D01*
X28030Y-21996D01*
X28050Y-21908D01*
X28051Y-21805D01*
X28051Y-23190D01*
X22182Y-23190D01*
X22265Y-23138D01*
X22495Y-22918D01*
X22679Y-22657D01*
X22809Y-22366D01*
X22880Y-22055D01*
X22885Y-21691D01*
X22823Y-21378D01*
X22702Y-21083D01*
X22525Y-20818D01*
X22301Y-20591D01*
X22036Y-20413D01*
X21743Y-20289D01*
X21430Y-20225D01*
X21111Y-20223D01*
X20798Y-20283D01*
X20502Y-20402D01*
X20236Y-20576D01*
X20008Y-20800D01*
X19919Y-20930D01*
X19919Y-15292D01*
X19978Y-15384D01*
X20200Y-15614D01*
X20462Y-15796D01*
X20754Y-15924D01*
X21065Y-15992D01*
X21384Y-15999D01*
X21698Y-15944D01*
X21995Y-15828D01*
X22265Y-15658D01*
X22495Y-15438D01*
X22679Y-15177D01*
X22809Y-14886D01*
X22880Y-14575D01*
X22885Y-14211D01*
X22823Y-13898D01*
X22702Y-13603D01*
X22525Y-13338D01*
X22301Y-13111D01*
X22180Y-13030D01*
X36478Y-13030D01*
X36378Y-13096D01*
X36150Y-13320D01*
X35970Y-13583D01*
X35844Y-13876D01*
X35777Y-14187D01*
X35773Y-14506D01*
X35830Y-14820D01*
X35948Y-15116D01*
X36120Y-15384D01*
X36342Y-15614D01*
X36604Y-15796D01*
X36896Y-15924D01*
X37207Y-15992D01*
X37526Y-15999D01*
X37840Y-15944D01*
X38137Y-15828D01*
X38407Y-15658D01*
X38637Y-15438D01*
X38741Y-15290D01*
X38741Y-20928D01*
X38741Y-20928D01*
G37*
X38741Y-20928D02*
X38667Y-20818D01*
X38443Y-20591D01*
X38178Y-20413D01*
X37885Y-20289D01*
X37572Y-20225D01*
X37253Y-20223D01*
X36940Y-20283D01*
X36644Y-20402D01*
X36378Y-20576D01*
X36150Y-20800D01*
X35970Y-21063D01*
X35946Y-21118D01*
X35946Y-19072D01*
X35929Y-18973D01*
X35893Y-18879D01*
X35881Y-18858D01*
X35868Y-18854D01*
X35868Y-18067D01*
X35868Y-17067D01*
X35868Y-16067D01*
X35851Y-15983D01*
X35819Y-15904D01*
X35772Y-15833D01*
X35711Y-15773D01*
X35653Y-15733D01*
X35653Y-15039D01*
X35649Y-14998D01*
X35649Y-14996D01*
X35641Y-14972D01*
X35637Y-14957D01*
X35636Y-14955D01*
X35617Y-14919D01*
X35616Y-14917D01*
X35596Y-14892D01*
X35590Y-14885D01*
X35589Y-14884D01*
X35588Y-14883D01*
X34094Y-13389D01*
X34093Y-13387D01*
X34071Y-13370D01*
X34061Y-13361D01*
X34059Y-13360D01*
X34024Y-13341D01*
X34021Y-13340D01*
X33983Y-13328D01*
X33980Y-13327D01*
X33949Y-13324D01*
X33940Y-13323D01*
X33938Y-13323D01*
X33937Y-13323D01*
X30716Y-13323D01*
X30712Y-13323D01*
X30711Y-13323D01*
X30709Y-13323D01*
X30672Y-13323D01*
X30669Y-13323D01*
X28348Y-13323D01*
X28346Y-13323D01*
X28303Y-13327D01*
X28267Y-13338D01*
X28265Y-13339D01*
X28264Y-13339D01*
X28262Y-13340D01*
X28224Y-13360D01*
X28214Y-13368D01*
X28192Y-13385D01*
X28190Y-13388D01*
X27662Y-13915D01*
X27638Y-13910D01*
X27548Y-13910D01*
X27460Y-13927D01*
X27376Y-13960D01*
X27300Y-14010D01*
X27236Y-14073D01*
X27185Y-14147D01*
X27149Y-14230D01*
X27131Y-14318D01*
X27129Y-14409D01*
X27146Y-14497D01*
X27179Y-14581D01*
X27228Y-14657D01*
X27290Y-14722D01*
X27364Y-14773D01*
X27447Y-14810D01*
X27535Y-14829D01*
X27625Y-14831D01*
X27714Y-14815D01*
X27798Y-14783D01*
X27874Y-14734D01*
X27940Y-14672D01*
X27992Y-14598D01*
X28029Y-14516D01*
X28049Y-14428D01*
X28050Y-14325D01*
X28032Y-14237D01*
X28012Y-14188D01*
X28437Y-13763D01*
X30489Y-13763D01*
X30489Y-17518D01*
X30489Y-17520D01*
X30493Y-17563D01*
X30504Y-17598D01*
X30505Y-17601D01*
X30506Y-17604D01*
X30512Y-17615D01*
X30524Y-17640D01*
X30526Y-17642D01*
X30551Y-17673D01*
X30553Y-17676D01*
X31142Y-18264D01*
X31143Y-18265D01*
X31175Y-18292D01*
X31176Y-18293D01*
X31192Y-18301D01*
X31212Y-18312D01*
X31214Y-18312D01*
X31215Y-18313D01*
X31217Y-18313D01*
X31253Y-18325D01*
X31256Y-18325D01*
X31296Y-18330D01*
X31298Y-18330D01*
X31299Y-18330D01*
X31377Y-18330D01*
X31421Y-18397D01*
X31483Y-18462D01*
X31557Y-18513D01*
X31640Y-18550D01*
X31728Y-18569D01*
X31818Y-18571D01*
X31907Y-18555D01*
X31991Y-18523D01*
X32067Y-18474D01*
X32133Y-18412D01*
X32185Y-18338D01*
X32222Y-18256D01*
X32242Y-18168D01*
X32243Y-18065D01*
X32225Y-17977D01*
X32191Y-17893D01*
X32141Y-17818D01*
X32078Y-17754D01*
X32003Y-17703D01*
X31920Y-17669D01*
X31831Y-17650D01*
X31741Y-17650D01*
X31653Y-17667D01*
X31569Y-17700D01*
X31493Y-17750D01*
X31429Y-17813D01*
X31381Y-17881D01*
X30929Y-17428D01*
X30929Y-13763D01*
X33845Y-13763D01*
X35213Y-15130D01*
X35213Y-15734D01*
X35159Y-15770D01*
X35098Y-15829D01*
X35050Y-15900D01*
X35016Y-15978D01*
X34999Y-16062D01*
X34997Y-16147D01*
X35013Y-16231D01*
X35044Y-16310D01*
X35091Y-16382D01*
X35150Y-16443D01*
X35220Y-16492D01*
X35298Y-16526D01*
X35382Y-16544D01*
X35467Y-16546D01*
X35551Y-16531D01*
X35630Y-16500D01*
X35702Y-16454D01*
X35764Y-16395D01*
X35813Y-16326D01*
X35848Y-16248D01*
X35867Y-16164D01*
X35868Y-16067D01*
X35868Y-17067D01*
X35851Y-16983D01*
X35819Y-16904D01*
X35772Y-16833D01*
X35711Y-16773D01*
X35641Y-16725D01*
X35562Y-16692D01*
X35478Y-16675D01*
X35393Y-16675D01*
X35322Y-16688D01*
X34984Y-16349D01*
X34984Y-15632D01*
X34984Y-15630D01*
X34980Y-15589D01*
X34980Y-15587D01*
X34972Y-15563D01*
X34968Y-15548D01*
X34967Y-15546D01*
X34948Y-15510D01*
X34947Y-15508D01*
X34927Y-15483D01*
X34921Y-15476D01*
X34920Y-15475D01*
X34919Y-15474D01*
X34599Y-15154D01*
X34598Y-15152D01*
X34576Y-15135D01*
X34566Y-15126D01*
X34564Y-15125D01*
X34529Y-15106D01*
X34526Y-15105D01*
X34488Y-15093D01*
X34485Y-15092D01*
X34454Y-15089D01*
X34445Y-15088D01*
X34443Y-15088D01*
X34442Y-15088D01*
X33986Y-15088D01*
X33983Y-15088D01*
X33322Y-15088D01*
X33322Y-14775D01*
X33386Y-14734D01*
X33452Y-14672D01*
X33504Y-14598D01*
X33541Y-14516D01*
X33561Y-14428D01*
X33562Y-14325D01*
X33544Y-14237D01*
X33510Y-14153D01*
X33460Y-14078D01*
X33397Y-14014D01*
X33322Y-13963D01*
X33239Y-13929D01*
X33150Y-13910D01*
X33060Y-13910D01*
X32972Y-13927D01*
X32888Y-13960D01*
X32812Y-14010D01*
X32748Y-14073D01*
X32697Y-14147D01*
X32661Y-14230D01*
X32643Y-14318D01*
X32641Y-14409D01*
X32658Y-14497D01*
X32691Y-14581D01*
X32740Y-14657D01*
X32802Y-14722D01*
X32876Y-14773D01*
X32882Y-14775D01*
X32882Y-15216D01*
X31627Y-16471D01*
X31610Y-16492D01*
X31601Y-16503D01*
X31581Y-16540D01*
X31580Y-16542D01*
X31580Y-16543D01*
X31567Y-16584D01*
X31564Y-16614D01*
X31563Y-16624D01*
X31563Y-16626D01*
X31563Y-16627D01*
X31563Y-16651D01*
X31467Y-16651D01*
X31436Y-16657D01*
X31408Y-16669D01*
X31382Y-16686D01*
X31360Y-16708D01*
X31342Y-16734D01*
X31330Y-16763D01*
X31324Y-16794D01*
X31324Y-16825D01*
X31324Y-17426D01*
X31330Y-17457D01*
X31342Y-17485D01*
X31359Y-17511D01*
X31381Y-17533D01*
X31407Y-17551D01*
X31436Y-17563D01*
X31467Y-17569D01*
X31498Y-17569D01*
X32099Y-17569D01*
X32130Y-17563D01*
X32158Y-17551D01*
X32184Y-17534D01*
X32206Y-17512D01*
X32224Y-17486D01*
X32236Y-17457D01*
X32242Y-17426D01*
X32242Y-17395D01*
X32242Y-16794D01*
X32236Y-16763D01*
X32224Y-16735D01*
X32207Y-16709D01*
X32185Y-16687D01*
X32159Y-16669D01*
X32130Y-16657D01*
X32099Y-16651D01*
X32070Y-16651D01*
X33193Y-15528D01*
X33980Y-15528D01*
X33983Y-15528D01*
X34350Y-15528D01*
X34544Y-15721D01*
X34544Y-16439D01*
X34544Y-16441D01*
X34548Y-16484D01*
X34559Y-16519D01*
X34560Y-16522D01*
X34561Y-16525D01*
X34567Y-16536D01*
X34579Y-16561D01*
X34581Y-16563D01*
X34606Y-16594D01*
X34608Y-16597D01*
X35011Y-16999D01*
X34999Y-17062D01*
X34997Y-17147D01*
X35013Y-17231D01*
X35044Y-17310D01*
X35091Y-17382D01*
X35150Y-17443D01*
X35220Y-17492D01*
X35298Y-17526D01*
X35382Y-17544D01*
X35467Y-17546D01*
X35551Y-17531D01*
X35630Y-17500D01*
X35702Y-17454D01*
X35764Y-17395D01*
X35813Y-17326D01*
X35848Y-17248D01*
X35867Y-17164D01*
X35868Y-17067D01*
X35868Y-18067D01*
X35851Y-17983D01*
X35819Y-17904D01*
X35772Y-17833D01*
X35711Y-17773D01*
X35641Y-17725D01*
X35562Y-17692D01*
X35478Y-17675D01*
X35393Y-17675D01*
X35309Y-17691D01*
X35230Y-17723D01*
X35159Y-17770D01*
X35098Y-17829D01*
X35050Y-17900D01*
X35016Y-17978D01*
X34999Y-18062D01*
X34997Y-18147D01*
X35011Y-18220D01*
X34515Y-18715D01*
X34515Y-16065D01*
X34497Y-15977D01*
X34463Y-15893D01*
X34413Y-15818D01*
X34350Y-15754D01*
X34275Y-15703D01*
X34192Y-15669D01*
X34103Y-15650D01*
X34013Y-15650D01*
X33925Y-15667D01*
X33841Y-15700D01*
X33765Y-15750D01*
X33701Y-15813D01*
X33650Y-15887D01*
X33614Y-15970D01*
X33596Y-16058D01*
X33594Y-16149D01*
X33611Y-16237D01*
X33644Y-16321D01*
X33693Y-16397D01*
X33755Y-16462D01*
X33829Y-16513D01*
X33912Y-16550D01*
X34000Y-16569D01*
X34090Y-16571D01*
X34179Y-16555D01*
X34263Y-16523D01*
X34339Y-16474D01*
X34405Y-16412D01*
X34457Y-16338D01*
X34494Y-16256D01*
X34514Y-16168D01*
X34515Y-16065D01*
X34515Y-18715D01*
X34107Y-19123D01*
X33225Y-18240D01*
X33242Y-18168D01*
X33243Y-18065D01*
X33243Y-17065D01*
X33225Y-16977D01*
X33191Y-16893D01*
X33141Y-16818D01*
X33078Y-16754D01*
X33003Y-16703D01*
X32920Y-16669D01*
X32831Y-16650D01*
X32741Y-16650D01*
X32653Y-16667D01*
X32569Y-16700D01*
X32493Y-16750D01*
X32429Y-16813D01*
X32378Y-16887D01*
X32342Y-16970D01*
X32324Y-17058D01*
X32322Y-17149D01*
X32339Y-17237D01*
X32372Y-17321D01*
X32421Y-17397D01*
X32483Y-17462D01*
X32557Y-17513D01*
X32640Y-17550D01*
X32728Y-17569D01*
X32818Y-17571D01*
X32907Y-17555D01*
X32991Y-17523D01*
X33067Y-17474D01*
X33133Y-17412D01*
X33185Y-17338D01*
X33222Y-17256D01*
X33242Y-17168D01*
X33243Y-17065D01*
X33243Y-18065D01*
X33225Y-17977D01*
X33191Y-17893D01*
X33141Y-17818D01*
X33078Y-17754D01*
X33003Y-17703D01*
X32920Y-17669D01*
X32831Y-17650D01*
X32741Y-17650D01*
X32653Y-17667D01*
X32569Y-17700D01*
X32493Y-17750D01*
X32429Y-17813D01*
X32378Y-17887D01*
X32342Y-17970D01*
X32324Y-18058D01*
X32322Y-18149D01*
X32339Y-18237D01*
X32372Y-18321D01*
X32421Y-18397D01*
X32483Y-18462D01*
X32557Y-18513D01*
X32640Y-18550D01*
X32728Y-18569D01*
X32818Y-18571D01*
X32907Y-18555D01*
X32913Y-18552D01*
X32965Y-18604D01*
X32953Y-18599D01*
X32851Y-18575D01*
X32746Y-18573D01*
X32642Y-18590D01*
X32544Y-18628D01*
X32516Y-18641D01*
X32489Y-18731D01*
X32755Y-18997D01*
X32783Y-19025D01*
X32868Y-19110D01*
X32896Y-19138D01*
X33162Y-19404D01*
X33252Y-19377D01*
X33294Y-19280D01*
X33318Y-19178D01*
X33320Y-19073D01*
X33303Y-18969D01*
X33285Y-18924D01*
X33836Y-19474D01*
X33836Y-19475D01*
X33835Y-19485D01*
X33835Y-19487D01*
X33835Y-19488D01*
X33835Y-19703D01*
X33765Y-19750D01*
X33701Y-19813D01*
X33650Y-19887D01*
X33614Y-19970D01*
X33596Y-20058D01*
X33594Y-20149D01*
X33611Y-20237D01*
X33644Y-20321D01*
X33693Y-20397D01*
X33755Y-20462D01*
X33829Y-20513D01*
X33912Y-20550D01*
X34000Y-20569D01*
X34090Y-20571D01*
X34179Y-20555D01*
X34263Y-20523D01*
X34339Y-20474D01*
X34405Y-20412D01*
X34457Y-20338D01*
X34494Y-20256D01*
X34514Y-20168D01*
X34515Y-20065D01*
X34497Y-19977D01*
X34463Y-19893D01*
X34413Y-19818D01*
X34350Y-19754D01*
X34275Y-19703D01*
X34275Y-19579D01*
X34975Y-18878D01*
X34944Y-18949D01*
X34922Y-19048D01*
X34920Y-19148D01*
X34937Y-19247D01*
X34973Y-19341D01*
X34985Y-19362D01*
X35072Y-19386D01*
X35320Y-19138D01*
X35348Y-19110D01*
X35433Y-19025D01*
X35461Y-18997D01*
X35709Y-18749D01*
X35685Y-18662D01*
X35594Y-18621D01*
X35495Y-18599D01*
X35395Y-18597D01*
X35296Y-18614D01*
X35205Y-18648D01*
X35322Y-18531D01*
X35382Y-18544D01*
X35467Y-18546D01*
X35551Y-18531D01*
X35630Y-18500D01*
X35702Y-18454D01*
X35764Y-18395D01*
X35813Y-18326D01*
X35848Y-18248D01*
X35867Y-18164D01*
X35868Y-18067D01*
X35868Y-18854D01*
X35794Y-18834D01*
X35518Y-19110D01*
X35794Y-19386D01*
X35881Y-19362D01*
X35922Y-19271D01*
X35944Y-19172D01*
X35946Y-19072D01*
X35946Y-21118D01*
X35867Y-21302D01*
X35867Y-20401D01*
X35867Y-20370D01*
X35867Y-19819D01*
X35861Y-19788D01*
X35849Y-19760D01*
X35832Y-19734D01*
X35810Y-19712D01*
X35784Y-19694D01*
X35755Y-19682D01*
X35724Y-19676D01*
X35709Y-19676D01*
X35709Y-19471D01*
X35433Y-19195D01*
X35157Y-19471D01*
X35181Y-19558D01*
X35272Y-19599D01*
X35371Y-19621D01*
X35471Y-19623D01*
X35570Y-19606D01*
X35664Y-19570D01*
X35685Y-19558D01*
X35709Y-19471D01*
X35709Y-19676D01*
X35693Y-19676D01*
X35142Y-19676D01*
X35111Y-19682D01*
X35083Y-19694D01*
X35057Y-19711D01*
X35035Y-19733D01*
X35017Y-19759D01*
X35005Y-19788D01*
X34999Y-19819D01*
X34999Y-19850D01*
X34999Y-20401D01*
X35005Y-20432D01*
X35017Y-20460D01*
X35034Y-20486D01*
X35056Y-20508D01*
X35082Y-20526D01*
X35111Y-20538D01*
X35142Y-20544D01*
X35173Y-20544D01*
X35724Y-20544D01*
X35755Y-20538D01*
X35783Y-20526D01*
X35809Y-20509D01*
X35831Y-20487D01*
X35849Y-20461D01*
X35861Y-20432D01*
X35867Y-20401D01*
X35867Y-21302D01*
X35844Y-21356D01*
X35777Y-21667D01*
X35773Y-21986D01*
X35830Y-22300D01*
X35948Y-22596D01*
X36120Y-22864D01*
X36342Y-23094D01*
X36480Y-23190D01*
X33562Y-23190D01*
X33562Y-21805D01*
X33544Y-21717D01*
X33510Y-21633D01*
X33460Y-21558D01*
X33397Y-21494D01*
X33322Y-21443D01*
X33239Y-21409D01*
X33150Y-21390D01*
X33077Y-21390D01*
X33077Y-19489D01*
X32783Y-19195D01*
X32698Y-19280D01*
X32698Y-19110D01*
X32404Y-18816D01*
X32314Y-18843D01*
X32272Y-18940D01*
X32248Y-19042D01*
X32246Y-19147D01*
X32263Y-19251D01*
X32301Y-19349D01*
X32314Y-19377D01*
X32404Y-19404D01*
X32698Y-19110D01*
X32698Y-19280D01*
X32489Y-19489D01*
X32516Y-19579D01*
X32613Y-19621D01*
X32715Y-19645D01*
X32820Y-19647D01*
X32924Y-19630D01*
X33022Y-19592D01*
X33050Y-19579D01*
X33077Y-19489D01*
X33077Y-21390D01*
X33060Y-21390D01*
X32972Y-21407D01*
X32970Y-21407D01*
X32003Y-20439D01*
X32003Y-19515D01*
X32067Y-19474D01*
X32133Y-19412D01*
X32185Y-19338D01*
X32222Y-19256D01*
X32242Y-19168D01*
X32243Y-19065D01*
X32225Y-18977D01*
X32191Y-18893D01*
X32141Y-18818D01*
X32078Y-18754D01*
X32003Y-18703D01*
X31920Y-18669D01*
X31831Y-18650D01*
X31741Y-18650D01*
X31653Y-18667D01*
X31569Y-18700D01*
X31493Y-18750D01*
X31429Y-18813D01*
X31378Y-18887D01*
X31342Y-18970D01*
X31324Y-19058D01*
X31322Y-19149D01*
X31339Y-19237D01*
X31372Y-19321D01*
X31421Y-19397D01*
X31483Y-19462D01*
X31557Y-19513D01*
X31563Y-19515D01*
X31563Y-20529D01*
X31563Y-20531D01*
X31567Y-20574D01*
X31578Y-20609D01*
X31579Y-20612D01*
X31580Y-20615D01*
X31586Y-20626D01*
X31598Y-20651D01*
X31600Y-20653D01*
X31625Y-20684D01*
X31627Y-20687D01*
X32659Y-21718D01*
X32643Y-21798D01*
X32641Y-21889D01*
X32658Y-21977D01*
X32691Y-22061D01*
X32740Y-22137D01*
X32802Y-22202D01*
X32876Y-22253D01*
X32959Y-22290D01*
X33047Y-22309D01*
X33137Y-22311D01*
X33226Y-22295D01*
X33310Y-22263D01*
X33386Y-22214D01*
X33452Y-22152D01*
X33504Y-22078D01*
X33541Y-21996D01*
X33561Y-21908D01*
X33562Y-21805D01*
X33562Y-23190D01*
X30237Y-23190D01*
X30237Y-18072D01*
X30220Y-17973D01*
X30184Y-17879D01*
X30172Y-17858D01*
X30159Y-17854D01*
X30159Y-17067D01*
X30142Y-16983D01*
X30110Y-16904D01*
X30063Y-16833D01*
X30002Y-16773D01*
X29932Y-16725D01*
X29853Y-16692D01*
X29769Y-16675D01*
X29684Y-16675D01*
X29600Y-16691D01*
X29562Y-16706D01*
X29562Y-14325D01*
X29544Y-14237D01*
X29510Y-14153D01*
X29460Y-14078D01*
X29397Y-14014D01*
X29322Y-13963D01*
X29239Y-13929D01*
X29150Y-13910D01*
X29060Y-13910D01*
X28972Y-13927D01*
X28888Y-13960D01*
X28812Y-14010D01*
X28748Y-14073D01*
X28697Y-14147D01*
X28661Y-14230D01*
X28650Y-14278D01*
X26821Y-16108D01*
X26805Y-16127D01*
X26784Y-16106D01*
X26708Y-16054D01*
X26623Y-16019D01*
X26533Y-16000D01*
X26441Y-16000D01*
X26351Y-16017D01*
X26266Y-16051D01*
X26189Y-16102D01*
X26124Y-16166D01*
X26072Y-16242D01*
X26036Y-16326D01*
X26017Y-16416D01*
X26015Y-16507D01*
X26016Y-16798D01*
X26034Y-16888D01*
X26069Y-16973D01*
X26120Y-17049D01*
X26184Y-17114D01*
X26260Y-17166D01*
X26345Y-17201D01*
X26435Y-17220D01*
X26527Y-17220D01*
X26617Y-17203D01*
X26702Y-17169D01*
X26779Y-17118D01*
X26844Y-17054D01*
X26896Y-16978D01*
X26932Y-16894D01*
X26945Y-16830D01*
X26975Y-16830D01*
X26977Y-16830D01*
X27018Y-16826D01*
X27020Y-16826D01*
X27021Y-16825D01*
X27034Y-16888D01*
X27069Y-16973D01*
X27120Y-17049D01*
X27184Y-17114D01*
X27260Y-17166D01*
X27345Y-17201D01*
X27435Y-17220D01*
X27527Y-17220D01*
X27617Y-17203D01*
X27702Y-17169D01*
X27779Y-17118D01*
X27844Y-17054D01*
X27896Y-16978D01*
X27932Y-16894D01*
X27951Y-16804D01*
X27953Y-16713D01*
X27952Y-16422D01*
X27934Y-16332D01*
X27899Y-16247D01*
X27848Y-16171D01*
X27784Y-16106D01*
X27708Y-16054D01*
X27623Y-16019D01*
X27549Y-16003D01*
X28818Y-14733D01*
X28876Y-14773D01*
X28959Y-14810D01*
X29047Y-14829D01*
X29137Y-14831D01*
X29226Y-14815D01*
X29310Y-14783D01*
X29386Y-14734D01*
X29452Y-14672D01*
X29504Y-14598D01*
X29541Y-14516D01*
X29561Y-14428D01*
X29562Y-14325D01*
X29562Y-16706D01*
X29521Y-16723D01*
X29450Y-16770D01*
X29389Y-16829D01*
X29347Y-16890D01*
X28986Y-16890D01*
X28984Y-16890D01*
X28941Y-16894D01*
X28917Y-16901D01*
X28902Y-16906D01*
X28900Y-16906D01*
X28900Y-16907D01*
X28862Y-16927D01*
X28837Y-16947D01*
X28830Y-16953D01*
X28829Y-16954D01*
X28828Y-16955D01*
X26821Y-18961D01*
X26804Y-18982D01*
X26795Y-18993D01*
X26775Y-19030D01*
X26774Y-19032D01*
X26774Y-19033D01*
X26761Y-19074D01*
X26759Y-19089D01*
X26708Y-19054D01*
X26623Y-19019D01*
X26533Y-19000D01*
X26441Y-19000D01*
X26351Y-19017D01*
X26266Y-19051D01*
X26189Y-19102D01*
X26124Y-19166D01*
X26072Y-19242D01*
X26036Y-19326D01*
X26017Y-19416D01*
X26015Y-19507D01*
X26016Y-19798D01*
X26034Y-19888D01*
X26069Y-19973D01*
X26120Y-20049D01*
X26184Y-20114D01*
X26260Y-20166D01*
X26345Y-20201D01*
X26435Y-20220D01*
X26527Y-20220D01*
X26617Y-20203D01*
X26702Y-20169D01*
X26779Y-20118D01*
X26844Y-20054D01*
X26896Y-19978D01*
X26932Y-19894D01*
X26943Y-19841D01*
X26946Y-19867D01*
X26979Y-19969D01*
X27031Y-20063D01*
X27100Y-20145D01*
X27184Y-20212D01*
X27279Y-20261D01*
X27339Y-20280D01*
X27424Y-20236D01*
X27424Y-19710D01*
X27424Y-19670D01*
X27424Y-19550D01*
X27544Y-19550D01*
X27584Y-19550D01*
X28034Y-19550D01*
X28034Y-19460D01*
X28022Y-19353D01*
X27989Y-19251D01*
X27937Y-19157D01*
X27868Y-19075D01*
X27784Y-19008D01*
X27689Y-18959D01*
X27629Y-18940D01*
X27584Y-18963D01*
X27584Y-18920D01*
X27485Y-18920D01*
X29075Y-17330D01*
X29348Y-17330D01*
X29382Y-17382D01*
X29441Y-17443D01*
X29511Y-17492D01*
X29589Y-17526D01*
X29673Y-17544D01*
X29758Y-17546D01*
X29842Y-17531D01*
X29921Y-17500D01*
X29993Y-17454D01*
X30055Y-17395D01*
X30104Y-17326D01*
X30139Y-17248D01*
X30158Y-17164D01*
X30159Y-17067D01*
X30159Y-17854D01*
X30085Y-17834D01*
X30000Y-17919D01*
X30000Y-17749D01*
X29976Y-17662D01*
X29885Y-17621D01*
X29786Y-17599D01*
X29686Y-17597D01*
X29587Y-17614D01*
X29493Y-17650D01*
X29472Y-17662D01*
X29448Y-17749D01*
X29724Y-18025D01*
X30000Y-17749D01*
X30000Y-17919D01*
X29809Y-18110D01*
X30085Y-18386D01*
X30172Y-18362D01*
X30213Y-18271D01*
X30235Y-18172D01*
X30237Y-18072D01*
X30237Y-23190D01*
X30158Y-23190D01*
X30158Y-19401D01*
X30158Y-19370D01*
X30158Y-18819D01*
X30152Y-18788D01*
X30140Y-18760D01*
X30123Y-18734D01*
X30101Y-18712D01*
X30075Y-18694D01*
X30046Y-18682D01*
X30015Y-18676D01*
X30000Y-18676D01*
X30000Y-18471D01*
X29724Y-18195D01*
X29639Y-18280D01*
X29639Y-18110D01*
X29363Y-17834D01*
X29276Y-17858D01*
X29235Y-17949D01*
X29213Y-18048D01*
X29211Y-18148D01*
X29228Y-18247D01*
X29264Y-18341D01*
X29276Y-18362D01*
X29363Y-18386D01*
X29639Y-18110D01*
X29639Y-18280D01*
X29448Y-18471D01*
X29472Y-18558D01*
X29563Y-18599D01*
X29662Y-18621D01*
X29762Y-18623D01*
X29861Y-18606D01*
X29955Y-18570D01*
X29976Y-18558D01*
X30000Y-18471D01*
X30000Y-18676D01*
X29984Y-18676D01*
X29433Y-18676D01*
X29402Y-18682D01*
X29374Y-18694D01*
X29348Y-18711D01*
X29326Y-18733D01*
X29308Y-18759D01*
X29296Y-18788D01*
X29290Y-18819D01*
X29290Y-18850D01*
X29290Y-19401D01*
X29296Y-19432D01*
X29308Y-19460D01*
X29325Y-19486D01*
X29347Y-19508D01*
X29373Y-19526D01*
X29402Y-19538D01*
X29433Y-19544D01*
X29464Y-19544D01*
X30015Y-19544D01*
X30046Y-19538D01*
X30074Y-19526D01*
X30100Y-19509D01*
X30122Y-19487D01*
X30140Y-19461D01*
X30152Y-19432D01*
X30158Y-19401D01*
X30158Y-23190D01*
X29562Y-23190D01*
X29562Y-21805D01*
X29544Y-21717D01*
X29510Y-21633D01*
X29460Y-21558D01*
X29397Y-21494D01*
X29322Y-21443D01*
X29239Y-21409D01*
X29150Y-21390D01*
X29060Y-21390D01*
X28972Y-21407D01*
X28888Y-21440D01*
X28812Y-21490D01*
X28748Y-21553D01*
X28697Y-21627D01*
X28661Y-21710D01*
X28643Y-21798D01*
X28641Y-21889D01*
X28658Y-21977D01*
X28691Y-22061D01*
X28740Y-22137D01*
X28802Y-22202D01*
X28876Y-22253D01*
X28959Y-22290D01*
X29047Y-22309D01*
X29137Y-22311D01*
X29226Y-22295D01*
X29310Y-22263D01*
X29386Y-22214D01*
X29452Y-22152D01*
X29504Y-22078D01*
X29541Y-21996D01*
X29561Y-21908D01*
X29562Y-21805D01*
X29562Y-23190D01*
X28051Y-23190D01*
X28051Y-21805D01*
X28034Y-21721D01*
X28034Y-19760D01*
X28034Y-19670D01*
X27544Y-19670D01*
X27544Y-20236D01*
X27629Y-20280D01*
X27689Y-20261D01*
X27784Y-20212D01*
X27868Y-20145D01*
X27937Y-20063D01*
X27989Y-19969D01*
X28022Y-19867D01*
X28034Y-19760D01*
X28034Y-21721D01*
X28033Y-21717D01*
X27999Y-21633D01*
X27949Y-21558D01*
X27886Y-21494D01*
X27811Y-21443D01*
X27728Y-21409D01*
X27639Y-21390D01*
X27549Y-21390D01*
X27461Y-21407D01*
X27377Y-21440D01*
X27301Y-21490D01*
X27237Y-21553D01*
X27186Y-21627D01*
X27184Y-21630D01*
X26815Y-21630D01*
X25398Y-20212D01*
X25435Y-20220D01*
X25527Y-20220D01*
X25617Y-20203D01*
X25702Y-20169D01*
X25779Y-20118D01*
X25844Y-20054D01*
X25896Y-19978D01*
X25932Y-19894D01*
X25951Y-19804D01*
X25953Y-19713D01*
X25953Y-16713D01*
X25952Y-16422D01*
X25934Y-16332D01*
X25899Y-16247D01*
X25848Y-16171D01*
X25784Y-16106D01*
X25708Y-16054D01*
X25704Y-16052D01*
X25704Y-15979D01*
X25704Y-15977D01*
X25700Y-15936D01*
X25700Y-15934D01*
X25692Y-15910D01*
X25688Y-15895D01*
X25687Y-15893D01*
X25668Y-15857D01*
X25667Y-15855D01*
X25647Y-15830D01*
X25641Y-15823D01*
X25640Y-15822D01*
X25635Y-15817D01*
X25608Y-15795D01*
X25571Y-15775D01*
X25570Y-15774D01*
X25569Y-15774D01*
X25528Y-15761D01*
X25491Y-15757D01*
X25487Y-15757D01*
X25486Y-15757D01*
X25484Y-15757D01*
X25288Y-15757D01*
X24032Y-14500D01*
X24049Y-14428D01*
X24050Y-14325D01*
X24032Y-14237D01*
X23998Y-14153D01*
X23948Y-14078D01*
X23885Y-14014D01*
X23810Y-13963D01*
X23727Y-13929D01*
X23638Y-13910D01*
X23548Y-13910D01*
X23460Y-13927D01*
X23376Y-13960D01*
X23300Y-14010D01*
X23236Y-14073D01*
X23185Y-14147D01*
X23149Y-14230D01*
X23131Y-14318D01*
X23129Y-14409D01*
X23146Y-14497D01*
X23179Y-14581D01*
X23228Y-14657D01*
X23290Y-14722D01*
X23364Y-14773D01*
X23447Y-14810D01*
X23535Y-14829D01*
X23625Y-14831D01*
X23714Y-14815D01*
X23720Y-14812D01*
X25040Y-16131D01*
X25041Y-16132D01*
X25073Y-16159D01*
X25074Y-16160D01*
X25085Y-16165D01*
X25110Y-16179D01*
X25112Y-16179D01*
X25114Y-16180D01*
X25072Y-16242D01*
X25036Y-16326D01*
X25017Y-16416D01*
X25015Y-16507D01*
X25016Y-16798D01*
X25034Y-16888D01*
X25069Y-16973D01*
X25120Y-17049D01*
X25184Y-17114D01*
X25260Y-17166D01*
X25345Y-17201D01*
X25435Y-17220D01*
X25527Y-17220D01*
X25617Y-17203D01*
X25702Y-17169D01*
X25779Y-17118D01*
X25844Y-17054D01*
X25896Y-16978D01*
X25932Y-16894D01*
X25951Y-16804D01*
X25953Y-16713D01*
X25953Y-19713D01*
X25952Y-19422D01*
X25934Y-19332D01*
X25899Y-19247D01*
X25848Y-19171D01*
X25784Y-19106D01*
X25708Y-19054D01*
X25623Y-19019D01*
X25533Y-19000D01*
X25441Y-19000D01*
X25351Y-19017D01*
X25266Y-19051D01*
X25189Y-19102D01*
X25124Y-19166D01*
X25072Y-19242D01*
X25036Y-19326D01*
X25021Y-19394D01*
X24984Y-19390D01*
X24980Y-19390D01*
X24979Y-19390D01*
X24977Y-19390D01*
X24953Y-19390D01*
X24953Y-19144D01*
X24953Y-16713D01*
X24952Y-16422D01*
X24934Y-16332D01*
X24899Y-16247D01*
X24848Y-16171D01*
X24784Y-16106D01*
X24708Y-16054D01*
X24623Y-16019D01*
X24533Y-16000D01*
X24441Y-16000D01*
X24351Y-16017D01*
X24266Y-16051D01*
X24189Y-16102D01*
X24124Y-16166D01*
X24072Y-16242D01*
X24036Y-16326D01*
X24022Y-16390D01*
X23993Y-16390D01*
X23991Y-16390D01*
X23948Y-16394D01*
X23912Y-16405D01*
X23910Y-16406D01*
X23909Y-16406D01*
X23907Y-16407D01*
X23869Y-16427D01*
X23859Y-16435D01*
X23837Y-16452D01*
X23835Y-16455D01*
X23055Y-17233D01*
X23043Y-17225D01*
X22964Y-17192D01*
X22880Y-17175D01*
X22795Y-17175D01*
X22711Y-17191D01*
X22632Y-17223D01*
X22561Y-17270D01*
X22500Y-17329D01*
X22452Y-17400D01*
X22418Y-17478D01*
X22401Y-17562D01*
X22399Y-17647D01*
X22413Y-17720D01*
X21773Y-18359D01*
X21773Y-18072D01*
X21756Y-17973D01*
X21720Y-17879D01*
X21708Y-17858D01*
X21694Y-17854D01*
X21694Y-17401D01*
X21694Y-17370D01*
X21694Y-16819D01*
X21688Y-16788D01*
X21676Y-16760D01*
X21659Y-16734D01*
X21637Y-16712D01*
X21611Y-16694D01*
X21582Y-16682D01*
X21551Y-16676D01*
X21520Y-16676D01*
X20969Y-16676D01*
X20938Y-16682D01*
X20910Y-16694D01*
X20884Y-16711D01*
X20862Y-16733D01*
X20844Y-16759D01*
X20832Y-16788D01*
X20826Y-16819D01*
X20826Y-16850D01*
X20826Y-17401D01*
X20832Y-17432D01*
X20844Y-17460D01*
X20861Y-17486D01*
X20883Y-17508D01*
X20909Y-17526D01*
X20938Y-17538D01*
X20969Y-17544D01*
X21000Y-17544D01*
X21551Y-17544D01*
X21582Y-17538D01*
X21610Y-17526D01*
X21636Y-17509D01*
X21658Y-17487D01*
X21676Y-17461D01*
X21688Y-17432D01*
X21694Y-17401D01*
X21694Y-17854D01*
X21621Y-17834D01*
X21536Y-17919D01*
X21536Y-17749D01*
X21512Y-17662D01*
X21421Y-17621D01*
X21322Y-17599D01*
X21222Y-17597D01*
X21123Y-17614D01*
X21029Y-17650D01*
X21008Y-17662D01*
X20984Y-17749D01*
X21260Y-18025D01*
X21536Y-17749D01*
X21536Y-17919D01*
X21345Y-18110D01*
X21621Y-18386D01*
X21708Y-18362D01*
X21749Y-18271D01*
X21771Y-18172D01*
X21773Y-18072D01*
X21773Y-18359D01*
X21536Y-18596D01*
X21536Y-18471D01*
X21260Y-18195D01*
X21175Y-18280D01*
X21175Y-18110D01*
X20899Y-17834D01*
X20812Y-17858D01*
X20771Y-17949D01*
X20749Y-18048D01*
X20747Y-18148D01*
X20764Y-18247D01*
X20800Y-18341D01*
X20812Y-18362D01*
X20899Y-18386D01*
X21175Y-18110D01*
X21175Y-18280D01*
X20984Y-18471D01*
X21008Y-18558D01*
X21099Y-18599D01*
X21198Y-18621D01*
X21298Y-18623D01*
X21397Y-18606D01*
X21491Y-18570D01*
X21512Y-18558D01*
X21536Y-18471D01*
X21536Y-18596D01*
X21425Y-18707D01*
X21389Y-18692D01*
X21305Y-18675D01*
X21220Y-18675D01*
X21136Y-18691D01*
X21057Y-18723D01*
X20986Y-18770D01*
X20925Y-18829D01*
X20877Y-18900D01*
X20843Y-18978D01*
X20826Y-19062D01*
X20824Y-19147D01*
X20840Y-19231D01*
X20871Y-19310D01*
X20918Y-19382D01*
X20977Y-19443D01*
X21047Y-19492D01*
X21125Y-19526D01*
X21209Y-19544D01*
X21294Y-19546D01*
X21378Y-19531D01*
X21425Y-19512D01*
X23363Y-21449D01*
X23301Y-21490D01*
X23237Y-21553D01*
X23186Y-21627D01*
X23150Y-21710D01*
X23132Y-21798D01*
X23130Y-21889D01*
X23147Y-21977D01*
X23180Y-22061D01*
X23229Y-22137D01*
X23291Y-22202D01*
X23365Y-22253D01*
X23448Y-22290D01*
X23536Y-22309D01*
X23626Y-22311D01*
X23715Y-22295D01*
X23799Y-22263D01*
X23875Y-22214D01*
X23941Y-22152D01*
X23993Y-22078D01*
X24030Y-21996D01*
X24050Y-21908D01*
X24051Y-21805D01*
X24033Y-21717D01*
X23999Y-21633D01*
X23949Y-21558D01*
X23886Y-21494D01*
X23811Y-21443D01*
X23811Y-21368D01*
X23811Y-21366D01*
X23807Y-21325D01*
X23807Y-21323D01*
X23799Y-21299D01*
X23795Y-21284D01*
X23794Y-21282D01*
X23775Y-21246D01*
X23774Y-21244D01*
X23754Y-21219D01*
X23748Y-21212D01*
X23747Y-21211D01*
X23746Y-21210D01*
X23348Y-20811D01*
X23348Y-18572D01*
X23331Y-18473D01*
X23295Y-18379D01*
X23283Y-18358D01*
X23196Y-18334D01*
X22920Y-18610D01*
X23196Y-18886D01*
X23283Y-18862D01*
X23324Y-18771D01*
X23346Y-18672D01*
X23348Y-18572D01*
X23348Y-20811D01*
X23111Y-20574D01*
X23111Y-18971D01*
X22835Y-18695D01*
X22559Y-18971D01*
X22583Y-19058D01*
X22674Y-19099D01*
X22773Y-19121D01*
X22873Y-19123D01*
X22972Y-19106D01*
X23066Y-19070D01*
X23087Y-19058D01*
X23111Y-18971D01*
X23111Y-20574D01*
X21694Y-19157D01*
X21695Y-19067D01*
X21694Y-19062D01*
X22377Y-18378D01*
X22346Y-18449D01*
X22324Y-18548D01*
X22322Y-18648D01*
X22339Y-18747D01*
X22375Y-18841D01*
X22387Y-18862D01*
X22474Y-18886D01*
X22722Y-18638D01*
X22750Y-18610D01*
X22835Y-18525D01*
X22863Y-18497D01*
X23111Y-18249D01*
X23087Y-18162D01*
X22996Y-18121D01*
X22897Y-18099D01*
X22797Y-18097D01*
X22698Y-18114D01*
X22607Y-18148D01*
X22724Y-18031D01*
X22784Y-18044D01*
X22869Y-18046D01*
X22953Y-18031D01*
X23032Y-18000D01*
X23104Y-17954D01*
X23166Y-17895D01*
X23215Y-17826D01*
X23250Y-17748D01*
X23269Y-17664D01*
X23269Y-17643D01*
X24032Y-16879D01*
X24034Y-16888D01*
X24069Y-16973D01*
X24120Y-17049D01*
X24184Y-17114D01*
X24260Y-17166D01*
X24345Y-17201D01*
X24435Y-17220D01*
X24527Y-17220D01*
X24617Y-17203D01*
X24702Y-17169D01*
X24779Y-17118D01*
X24844Y-17054D01*
X24896Y-16978D01*
X24932Y-16894D01*
X24951Y-16804D01*
X24953Y-16713D01*
X24953Y-19144D01*
X24947Y-19113D01*
X24935Y-19085D01*
X24918Y-19059D01*
X24896Y-19037D01*
X24870Y-19019D01*
X24841Y-19007D01*
X24810Y-19001D01*
X24779Y-19001D01*
X24158Y-19001D01*
X24127Y-19007D01*
X24099Y-19019D01*
X24073Y-19036D01*
X24051Y-19058D01*
X24033Y-19084D01*
X24021Y-19113D01*
X24015Y-19144D01*
X24015Y-19175D01*
X24015Y-20076D01*
X24021Y-20107D01*
X24033Y-20135D01*
X24050Y-20161D01*
X24072Y-20183D01*
X24098Y-20201D01*
X24127Y-20213D01*
X24158Y-20219D01*
X24189Y-20219D01*
X24790Y-20219D01*
X24792Y-20223D01*
X24794Y-20225D01*
X24819Y-20256D01*
X24821Y-20259D01*
X26567Y-22004D01*
X26568Y-22005D01*
X26600Y-22032D01*
X26601Y-22033D01*
X26612Y-22038D01*
X26637Y-22052D01*
X26639Y-22052D01*
X26678Y-22065D01*
X26680Y-22065D01*
X26721Y-22070D01*
X26724Y-22070D01*
X27185Y-22070D01*
X27229Y-22137D01*
X27291Y-22202D01*
X27365Y-22253D01*
X27448Y-22290D01*
X27536Y-22309D01*
X27626Y-22311D01*
X27715Y-22295D01*
X27799Y-22263D01*
X27875Y-22214D01*
X27941Y-22152D01*
X27993Y-22078D01*
X28030Y-21996D01*
X28050Y-21908D01*
X28051Y-21805D01*
X28051Y-23190D01*
X22182Y-23190D01*
X22265Y-23138D01*
X22495Y-22918D01*
X22679Y-22657D01*
X22809Y-22366D01*
X22880Y-22055D01*
X22885Y-21691D01*
X22823Y-21378D01*
X22702Y-21083D01*
X22525Y-20818D01*
X22301Y-20591D01*
X22036Y-20413D01*
X21743Y-20289D01*
X21430Y-20225D01*
X21111Y-20223D01*
X20798Y-20283D01*
X20502Y-20402D01*
X20236Y-20576D01*
X20008Y-20800D01*
X19919Y-20930D01*
X19919Y-15292D01*
X19978Y-15384D01*
X20200Y-15614D01*
X20462Y-15796D01*
X20754Y-15924D01*
X21065Y-15992D01*
X21384Y-15999D01*
X21698Y-15944D01*
X21995Y-15828D01*
X22265Y-15658D01*
X22495Y-15438D01*
X22679Y-15177D01*
X22809Y-14886D01*
X22880Y-14575D01*
X22885Y-14211D01*
X22823Y-13898D01*
X22702Y-13603D01*
X22525Y-13338D01*
X22301Y-13111D01*
X22180Y-13030D01*
X36478Y-13030D01*
X36378Y-13096D01*
X36150Y-13320D01*
X35970Y-13583D01*
X35844Y-13876D01*
X35777Y-14187D01*
X35773Y-14506D01*
X35830Y-14820D01*
X35948Y-15116D01*
X36120Y-15384D01*
X36342Y-15614D01*
X36604Y-15796D01*
X36896Y-15924D01*
X37207Y-15992D01*
X37526Y-15999D01*
X37840Y-15944D01*
X38137Y-15828D01*
X38407Y-15658D01*
X38637Y-15438D01*
X38741Y-15290D01*
X38741Y-20928D01*
M02*
