M48
INCH,TZ
T1C0.032
T2C0.040
T3C0.120
%
G90
G05
T1
X021260Y-017110
X021260Y-018110
X021260Y-019110
X022835Y-017610
X022835Y-018610
X023590Y-014370
X023591Y-021850
X024287Y-016610
X024287Y-019610
X025287Y-016610
X025287Y-019610
X026287Y-016610
X026287Y-019610
X027287Y-016610
X027287Y-019610
X027590Y-014370
X027591Y-021850
X028740Y-016110
X028740Y-020110
X029102Y-014370
X029102Y-021850
X030315Y-017110
X030315Y-018110
X030315Y-019110
X033102Y-014370
X033102Y-021850
X034449Y-016110
X034449Y-020110
X035630Y-016110
X035630Y-017110
X035630Y-018110
X035630Y-019110
X035630Y-020110
X037598Y-017610
X037598Y-018610
T2
X032177Y-017110
X032177Y-018110
X032177Y-019110
X033177Y-017110
X033177Y-018110
X033177Y-019110
T3
X021259Y-014370
X021259Y-021850
X037401Y-014370
X037401Y-021850
T0
M30
