G04 (created by PCBNEW-RS274X (2012-jan-04)-stable) date Sun 25 Mar 2012 06:39:35 PM CEST*
G01*
G70*
G90*
%MOIN*%
G04 Gerber Fmt 3.4, Leading zero omitted, Abs format*
%FSLAX34Y34*%
G04 APERTURE LIST*
%ADD10C,0.008000*%
%ADD11C,0.015000*%
%ADD12C,0.078000*%
%ADD13C,0.172000*%
%ADD14R,0.067000X0.067000*%
%ADD15C,0.067000*%
%ADD16R,0.072000X0.072000*%
%ADD17C,0.072000*%
%ADD18R,0.074000X0.102000*%
%ADD19O,0.074000X0.102000*%
G04 APERTURE END LIST*
G54D10*
X32483Y-22997D02*
X32483Y-22597D01*
X32330Y-22597D01*
X32292Y-22616D01*
X32273Y-22635D01*
X32254Y-22673D01*
X32254Y-22730D01*
X32273Y-22768D01*
X32292Y-22787D01*
X32330Y-22806D01*
X32483Y-22806D01*
X31854Y-22959D02*
X31873Y-22978D01*
X31930Y-22997D01*
X31968Y-22997D01*
X32026Y-22978D01*
X32064Y-22940D01*
X32083Y-22902D01*
X32102Y-22825D01*
X32102Y-22768D01*
X32083Y-22692D01*
X32064Y-22654D01*
X32026Y-22616D01*
X31968Y-22597D01*
X31930Y-22597D01*
X31873Y-22616D01*
X31854Y-22635D01*
X31549Y-22787D02*
X31492Y-22806D01*
X31473Y-22825D01*
X31454Y-22864D01*
X31454Y-22921D01*
X31473Y-22959D01*
X31492Y-22978D01*
X31530Y-22997D01*
X31683Y-22997D01*
X31683Y-22597D01*
X31549Y-22597D01*
X31511Y-22616D01*
X31492Y-22635D01*
X31473Y-22673D01*
X31473Y-22711D01*
X31492Y-22749D01*
X31511Y-22768D01*
X31549Y-22787D01*
X31683Y-22787D01*
X31283Y-22959D02*
X31264Y-22978D01*
X31283Y-22997D01*
X31302Y-22978D01*
X31283Y-22959D01*
X31283Y-22997D01*
X31283Y-22749D02*
X31264Y-22768D01*
X31283Y-22787D01*
X31302Y-22768D01*
X31283Y-22749D01*
X31283Y-22787D01*
X30788Y-22997D02*
X30788Y-22597D01*
X30655Y-22730D02*
X30503Y-22730D01*
X30598Y-22597D02*
X30598Y-22940D01*
X30579Y-22978D01*
X30541Y-22997D01*
X30503Y-22997D01*
X30216Y-22978D02*
X30254Y-22997D01*
X30331Y-22997D01*
X30369Y-22978D01*
X30388Y-22940D01*
X30388Y-22787D01*
X30369Y-22749D01*
X30331Y-22730D01*
X30254Y-22730D01*
X30216Y-22749D01*
X30197Y-22787D01*
X30197Y-22825D01*
X30388Y-22864D01*
X29854Y-22997D02*
X29854Y-22787D01*
X29873Y-22749D01*
X29911Y-22730D01*
X29988Y-22730D01*
X30026Y-22749D01*
X29854Y-22978D02*
X29892Y-22997D01*
X29988Y-22997D01*
X30026Y-22978D01*
X30045Y-22940D01*
X30045Y-22902D01*
X30026Y-22864D01*
X29988Y-22845D01*
X29892Y-22845D01*
X29854Y-22825D01*
X29492Y-22997D02*
X29492Y-22597D01*
X29492Y-22978D02*
X29530Y-22997D01*
X29607Y-22997D01*
X29645Y-22978D01*
X29664Y-22959D01*
X29683Y-22921D01*
X29683Y-22806D01*
X29664Y-22768D01*
X29645Y-22749D01*
X29607Y-22730D01*
X29530Y-22730D01*
X29492Y-22749D01*
X29321Y-22978D02*
X29264Y-22997D01*
X29168Y-22997D01*
X29130Y-22978D01*
X29111Y-22959D01*
X29092Y-22921D01*
X29092Y-22883D01*
X29111Y-22845D01*
X29130Y-22825D01*
X29168Y-22806D01*
X29245Y-22787D01*
X29283Y-22768D01*
X29302Y-22749D01*
X29321Y-22711D01*
X29321Y-22673D01*
X29302Y-22635D01*
X29283Y-22616D01*
X29245Y-22597D01*
X29149Y-22597D01*
X29092Y-22616D01*
X28978Y-22730D02*
X28826Y-22730D01*
X28921Y-22597D02*
X28921Y-22940D01*
X28902Y-22978D01*
X28864Y-22997D01*
X28826Y-22997D01*
X28520Y-22730D02*
X28520Y-22997D01*
X28692Y-22730D02*
X28692Y-22940D01*
X28673Y-22978D01*
X28635Y-22997D01*
X28577Y-22997D01*
X28539Y-22978D01*
X28520Y-22959D01*
X28158Y-22997D02*
X28158Y-22597D01*
X28158Y-22978D02*
X28196Y-22997D01*
X28273Y-22997D01*
X28311Y-22978D01*
X28330Y-22959D01*
X28349Y-22921D01*
X28349Y-22806D01*
X28330Y-22768D01*
X28311Y-22749D01*
X28273Y-22730D01*
X28196Y-22730D01*
X28158Y-22749D01*
X27968Y-22997D02*
X27968Y-22730D01*
X27968Y-22597D02*
X27987Y-22616D01*
X27968Y-22635D01*
X27949Y-22616D01*
X27968Y-22597D01*
X27968Y-22635D01*
X27721Y-22997D02*
X27759Y-22978D01*
X27778Y-22959D01*
X27797Y-22921D01*
X27797Y-22806D01*
X27778Y-22768D01*
X27759Y-22749D01*
X27721Y-22730D01*
X27663Y-22730D01*
X27625Y-22749D01*
X27606Y-22768D01*
X27587Y-22806D01*
X27587Y-22921D01*
X27606Y-22959D01*
X27625Y-22978D01*
X27663Y-22997D01*
X27721Y-22997D01*
X27416Y-22959D02*
X27397Y-22978D01*
X27416Y-22997D01*
X27435Y-22978D01*
X27416Y-22959D01*
X27416Y-22997D01*
X27054Y-22978D02*
X27092Y-22997D01*
X27169Y-22997D01*
X27207Y-22978D01*
X27226Y-22959D01*
X27245Y-22921D01*
X27245Y-22806D01*
X27226Y-22768D01*
X27207Y-22749D01*
X27169Y-22730D01*
X27092Y-22730D01*
X27054Y-22749D01*
X26826Y-22997D02*
X26864Y-22978D01*
X26883Y-22959D01*
X26902Y-22921D01*
X26902Y-22806D01*
X26883Y-22768D01*
X26864Y-22749D01*
X26826Y-22730D01*
X26768Y-22730D01*
X26730Y-22749D01*
X26711Y-22768D01*
X26692Y-22806D01*
X26692Y-22921D01*
X26711Y-22959D01*
X26730Y-22978D01*
X26768Y-22997D01*
X26826Y-22997D01*
X26521Y-22997D02*
X26521Y-22730D01*
X26521Y-22768D02*
X26502Y-22749D01*
X26464Y-22730D01*
X26406Y-22730D01*
X26368Y-22749D01*
X26349Y-22787D01*
X26349Y-22997D01*
X26349Y-22787D02*
X26330Y-22749D01*
X26292Y-22730D01*
X26235Y-22730D01*
X26197Y-22749D01*
X26178Y-22787D01*
X26178Y-22997D01*
G54D11*
X38976Y-12795D02*
X19684Y-12795D01*
X38976Y-23425D02*
X38976Y-12795D01*
X19684Y-23425D02*
X38976Y-23425D01*
X19684Y-12795D02*
X19684Y-23425D01*
%LPC*%
G54D12*
X37598Y-17610D03*
X37598Y-18610D03*
G54D13*
X21259Y-14370D03*
G54D14*
X35630Y-20110D03*
G54D15*
X35630Y-19110D03*
X35630Y-18110D03*
X35630Y-17110D03*
X35630Y-16110D03*
G54D16*
X32177Y-17110D03*
G54D17*
X33177Y-17110D03*
X32177Y-18110D03*
X33177Y-18110D03*
X32177Y-19110D03*
X33177Y-19110D03*
G54D13*
X37401Y-21850D03*
X37401Y-14370D03*
X21259Y-21850D03*
G54D14*
X21260Y-17110D03*
G54D15*
X21260Y-18110D03*
X21260Y-19110D03*
G54D18*
X24287Y-19610D03*
G54D19*
X25287Y-19610D03*
X26287Y-19610D03*
X27287Y-19610D03*
X27287Y-16610D03*
X26287Y-16610D03*
X25287Y-16610D03*
X24287Y-16610D03*
G54D14*
X30315Y-19110D03*
G54D15*
X30315Y-18110D03*
X30315Y-17110D03*
G54D17*
X34449Y-20110D03*
X34449Y-16110D03*
X27590Y-14370D03*
X23590Y-14370D03*
X33102Y-21850D03*
X29102Y-21850D03*
X23591Y-21850D03*
X27591Y-21850D03*
X33102Y-14370D03*
X29102Y-14370D03*
G54D15*
X22835Y-17610D03*
X22835Y-18610D03*
G54D17*
X28740Y-16110D03*
X28740Y-20110D03*
M02*
