G04 (created by PCBNEW-RS274X (2012-jan-04)-stable) date Sat 31 Mar 2012 08:46:18 PM CEST*
G01*
G70*
G90*
%MOIN*%
G04 Gerber Fmt 3.4, Leading zero omitted, Abs format*
%FSLAX34Y34*%
G04 APERTURE LIST*
%ADD10C,0.008000*%
%ADD11C,0.015000*%
%ADD12C,0.160000*%
%ADD13C,0.066000*%
%ADD14R,0.060000X0.060000*%
%ADD15C,0.060000*%
%ADD16R,0.055000X0.055000*%
%ADD17C,0.055000*%
%ADD18R,0.090000X0.062000*%
%ADD19O,0.090000X0.062000*%
%ADD20O,0.059100X0.047200*%
%ADD21C,0.012000*%
%ADD22C,0.010000*%
G04 APERTURE END LIST*
G54D10*
G54D11*
X19685Y-12795D02*
X19685Y-23425D01*
X36024Y-12795D02*
X19685Y-12795D01*
X36024Y-23425D02*
X36024Y-12795D01*
X19685Y-23425D02*
X36024Y-23425D01*
G54D12*
X21260Y-14370D03*
G54D13*
X34390Y-18110D03*
X35390Y-18110D03*
G54D14*
X25803Y-13771D03*
G54D15*
X25803Y-14771D03*
X24803Y-13771D03*
X24803Y-14771D03*
X23803Y-13771D03*
X23803Y-14771D03*
G54D12*
X34449Y-21850D03*
X34449Y-14370D03*
X21259Y-21850D03*
G54D16*
X20669Y-17110D03*
G54D17*
X20669Y-18110D03*
X20669Y-19110D03*
G54D18*
X23303Y-16610D03*
G54D19*
X23303Y-17610D03*
X23303Y-18610D03*
X23303Y-19610D03*
X26303Y-19610D03*
X26303Y-18610D03*
X26303Y-17610D03*
X26303Y-16610D03*
G54D16*
X27756Y-17110D03*
G54D17*
X27756Y-18110D03*
X27756Y-19110D03*
X22047Y-18610D03*
X22047Y-17610D03*
G54D16*
X31898Y-21850D03*
G54D17*
X30898Y-21850D03*
X30618Y-16338D03*
X29618Y-16338D03*
X29618Y-19882D03*
X30618Y-19882D03*
X24303Y-22441D03*
X25303Y-22441D03*
G54D16*
X31890Y-15610D03*
G54D17*
X31890Y-16610D03*
X31890Y-17610D03*
X31890Y-18610D03*
X31890Y-19610D03*
X31890Y-20610D03*
G54D20*
X30315Y-17610D03*
X30315Y-18610D03*
X29815Y-18110D03*
G54D17*
X28256Y-21752D03*
X27256Y-21752D03*
X31890Y-13575D03*
X31890Y-14575D03*
X28445Y-14575D03*
X28445Y-13575D03*
X27362Y-13575D03*
X27362Y-14575D03*
X29528Y-13575D03*
X29528Y-14575D03*
X30709Y-14575D03*
X30709Y-13575D03*
G54D21*
X29003Y-22499D02*
X28256Y-21752D01*
X32057Y-22499D02*
X29003Y-22499D01*
X32655Y-21901D02*
X32057Y-22499D01*
X32655Y-19845D02*
X32655Y-21901D01*
X34390Y-18110D02*
X32655Y-19845D01*
X32525Y-14210D02*
X31890Y-13575D01*
X32525Y-16576D02*
X32525Y-14210D01*
X32491Y-16610D02*
X32525Y-16576D01*
X31890Y-16610D02*
X32491Y-16610D01*
X31354Y-13039D02*
X31890Y-13575D01*
X28053Y-13039D02*
X31354Y-13039D01*
X28001Y-13091D02*
X28053Y-13039D01*
X26246Y-13771D02*
X26550Y-14075D01*
X26550Y-14075D02*
X27573Y-14075D01*
X27573Y-14075D02*
X28001Y-13647D01*
X28001Y-13647D02*
X28001Y-13091D01*
X25803Y-13771D02*
X26246Y-13771D01*
X32355Y-17258D02*
X32355Y-18145D01*
X31747Y-17178D02*
X32275Y-17178D01*
X31299Y-15165D02*
X30709Y-14575D01*
X32275Y-17178D02*
X32355Y-17258D01*
X31311Y-16742D02*
X31747Y-17178D01*
X31311Y-16574D02*
X31311Y-16742D01*
X32309Y-15199D02*
X32309Y-15943D01*
X31890Y-18610D02*
X32355Y-18145D01*
X31398Y-15165D02*
X31299Y-15165D01*
X32215Y-16037D02*
X31848Y-16037D01*
X32309Y-15943D02*
X32215Y-16037D01*
X31848Y-16037D02*
X31311Y-16574D01*
X31398Y-15165D02*
X32275Y-15165D01*
X32275Y-15165D02*
X32309Y-15199D01*
X24464Y-13110D02*
X23803Y-13771D01*
X26897Y-13110D02*
X24464Y-13110D01*
X27362Y-13575D02*
X26897Y-13110D01*
X30315Y-17610D02*
X30315Y-16641D01*
X30618Y-16338D02*
X31890Y-17610D01*
X30315Y-16641D02*
X30618Y-16338D01*
X29618Y-16338D02*
X29618Y-16150D01*
X25303Y-21547D02*
X26673Y-20177D01*
X25303Y-22441D02*
X25303Y-21547D01*
X28740Y-19185D02*
X29815Y-18110D01*
X28740Y-19489D02*
X28740Y-19185D01*
X29618Y-16150D02*
X30158Y-15610D01*
X28052Y-20177D02*
X28740Y-19489D01*
X29815Y-18110D02*
X27756Y-18110D01*
X29618Y-16338D02*
X29618Y-17913D01*
X26673Y-20177D02*
X28052Y-20177D01*
X29618Y-17913D02*
X29815Y-18110D01*
X30158Y-15610D02*
X31890Y-15610D01*
X23803Y-14771D02*
X23417Y-14771D01*
X30618Y-19481D02*
X30618Y-19882D01*
X31103Y-18996D02*
X30618Y-19481D01*
X31103Y-18110D02*
X31103Y-18996D01*
X29815Y-18110D02*
X31103Y-18110D01*
X22047Y-16141D02*
X22047Y-17610D01*
X23417Y-14771D02*
X22047Y-16141D01*
X27362Y-14575D02*
X28362Y-13575D01*
X28362Y-13575D02*
X28445Y-13575D01*
X28175Y-16535D02*
X28249Y-16535D01*
X30421Y-13575D02*
X30709Y-13575D01*
X30020Y-13976D02*
X30421Y-13575D01*
X30020Y-14764D02*
X30020Y-13976D01*
X28249Y-16535D02*
X30020Y-14764D01*
X26632Y-19157D02*
X26303Y-19157D01*
X27017Y-18772D02*
X26632Y-19157D01*
X27739Y-17537D02*
X27017Y-18259D01*
X27017Y-18259D02*
X27017Y-18772D01*
X26303Y-19610D02*
X26303Y-19157D01*
X28141Y-17537D02*
X27739Y-17537D01*
X28175Y-16525D02*
X28175Y-16535D01*
X28175Y-16535D02*
X28175Y-17503D01*
X28175Y-17503D02*
X28141Y-17537D01*
X26896Y-17224D02*
X26896Y-15919D01*
X29519Y-14575D02*
X29528Y-14575D01*
X28543Y-15551D02*
X29519Y-14575D01*
X27264Y-15551D02*
X28543Y-15551D01*
X26896Y-15919D02*
X27264Y-15551D01*
X26896Y-17207D02*
X26896Y-17224D01*
X26896Y-17224D02*
X26896Y-17610D01*
X26303Y-17610D02*
X26896Y-17610D01*
X24303Y-17331D02*
X25024Y-16610D01*
X30315Y-18610D02*
X30315Y-19185D01*
X30315Y-19185D02*
X29618Y-19882D01*
X24303Y-22441D02*
X24303Y-17331D01*
X29618Y-20570D02*
X30898Y-21850D01*
X25024Y-16610D02*
X26303Y-16610D01*
X25803Y-14771D02*
X25803Y-16110D01*
X25803Y-16110D02*
X26303Y-16610D01*
X29618Y-19882D02*
X29618Y-20570D01*
G54D10*
G36*
X35799Y-20925D02*
X35723Y-20811D01*
X35719Y-20806D01*
X35497Y-20584D01*
X35231Y-20404D01*
X34935Y-20280D01*
X34621Y-20215D01*
X34300Y-20213D01*
X33985Y-20273D01*
X33688Y-20393D01*
X33419Y-20569D01*
X33190Y-20793D01*
X33009Y-21058D01*
X32882Y-21353D01*
X32865Y-21432D01*
X32865Y-19931D01*
X34231Y-18564D01*
X34241Y-18569D01*
X34333Y-18589D01*
X34427Y-18591D01*
X34520Y-18575D01*
X34607Y-18541D01*
X34687Y-18490D01*
X34755Y-18425D01*
X34809Y-18348D01*
X34839Y-18281D01*
X34865Y-18354D01*
X34894Y-18408D01*
X34990Y-18439D01*
X35319Y-18110D01*
X34990Y-17781D01*
X34894Y-17812D01*
X34846Y-17913D01*
X34839Y-17939D01*
X34816Y-17884D01*
X34764Y-17805D01*
X34697Y-17738D01*
X34619Y-17686D01*
X34533Y-17649D01*
X34440Y-17630D01*
X34346Y-17630D01*
X34254Y-17647D01*
X34167Y-17683D01*
X34088Y-17734D01*
X34021Y-17800D01*
X33967Y-17878D01*
X33930Y-17964D01*
X33911Y-18056D01*
X33909Y-18150D01*
X33926Y-18243D01*
X33935Y-18267D01*
X32513Y-19690D01*
X32508Y-19695D01*
X32488Y-19718D01*
X32480Y-19728D01*
X32463Y-19760D01*
X32462Y-19762D01*
X32461Y-19762D01*
X32461Y-19764D01*
X32449Y-19803D01*
X32445Y-19834D01*
X32445Y-19842D01*
X32445Y-19844D01*
X32445Y-19845D01*
X32445Y-21814D01*
X32322Y-21937D01*
X32322Y-21560D01*
X32316Y-21531D01*
X32315Y-21528D01*
X32315Y-20568D01*
X32315Y-19568D01*
X32299Y-19486D01*
X32267Y-19409D01*
X32221Y-19340D01*
X32162Y-19281D01*
X32093Y-19234D01*
X32016Y-19202D01*
X31934Y-19185D01*
X31851Y-19185D01*
X31769Y-19200D01*
X31692Y-19232D01*
X31622Y-19277D01*
X31563Y-19336D01*
X31516Y-19405D01*
X31483Y-19481D01*
X31466Y-19563D01*
X31464Y-19646D01*
X31480Y-19728D01*
X31510Y-19806D01*
X31556Y-19876D01*
X31613Y-19935D01*
X31682Y-19983D01*
X31758Y-20016D01*
X31840Y-20034D01*
X31923Y-20036D01*
X32005Y-20021D01*
X32083Y-19991D01*
X32153Y-19946D01*
X32214Y-19889D01*
X32261Y-19821D01*
X32295Y-19744D01*
X32314Y-19663D01*
X32315Y-19568D01*
X32315Y-20568D01*
X32299Y-20486D01*
X32267Y-20409D01*
X32221Y-20340D01*
X32162Y-20281D01*
X32093Y-20234D01*
X32016Y-20202D01*
X31934Y-20185D01*
X31851Y-20185D01*
X31769Y-20200D01*
X31692Y-20232D01*
X31622Y-20277D01*
X31563Y-20336D01*
X31516Y-20405D01*
X31483Y-20481D01*
X31466Y-20563D01*
X31464Y-20646D01*
X31480Y-20728D01*
X31510Y-20806D01*
X31556Y-20876D01*
X31613Y-20935D01*
X31682Y-20983D01*
X31758Y-21016D01*
X31840Y-21034D01*
X31923Y-21036D01*
X32005Y-21021D01*
X32083Y-20991D01*
X32153Y-20946D01*
X32214Y-20889D01*
X32261Y-20821D01*
X32295Y-20744D01*
X32314Y-20663D01*
X32315Y-20568D01*
X32315Y-21528D01*
X32305Y-21504D01*
X32289Y-21480D01*
X32268Y-21459D01*
X32244Y-21443D01*
X32217Y-21432D01*
X32188Y-21426D01*
X32159Y-21426D01*
X31608Y-21426D01*
X31579Y-21432D01*
X31552Y-21443D01*
X31528Y-21459D01*
X31507Y-21480D01*
X31491Y-21504D01*
X31480Y-21531D01*
X31474Y-21560D01*
X31474Y-21589D01*
X31474Y-22140D01*
X31480Y-22169D01*
X31491Y-22196D01*
X31507Y-22220D01*
X31528Y-22241D01*
X31552Y-22257D01*
X31579Y-22268D01*
X31608Y-22274D01*
X31637Y-22274D01*
X31985Y-22274D01*
X31970Y-22289D01*
X31323Y-22289D01*
X31323Y-21808D01*
X31307Y-21726D01*
X31275Y-21649D01*
X31229Y-21580D01*
X31170Y-21521D01*
X31143Y-21502D01*
X31143Y-19854D01*
X31127Y-19752D01*
X31092Y-19656D01*
X31070Y-19615D01*
X30979Y-19592D01*
X30689Y-19882D01*
X30979Y-20172D01*
X31070Y-20149D01*
X31113Y-20056D01*
X31138Y-19956D01*
X31143Y-19854D01*
X31143Y-21502D01*
X31101Y-21474D01*
X31024Y-21442D01*
X30942Y-21425D01*
X30908Y-21425D01*
X30908Y-20243D01*
X30618Y-19953D01*
X30328Y-20243D01*
X30351Y-20334D01*
X30444Y-20377D01*
X30544Y-20402D01*
X30646Y-20407D01*
X30748Y-20391D01*
X30844Y-20356D01*
X30885Y-20334D01*
X30908Y-20243D01*
X30908Y-21425D01*
X30859Y-21425D01*
X30783Y-21438D01*
X29828Y-20483D01*
X29828Y-20252D01*
X29881Y-20218D01*
X29942Y-20161D01*
X29989Y-20093D01*
X30023Y-20016D01*
X30042Y-19935D01*
X30043Y-19840D01*
X30028Y-19767D01*
X30152Y-19643D01*
X30123Y-19708D01*
X30098Y-19808D01*
X30093Y-19910D01*
X30109Y-20012D01*
X30144Y-20108D01*
X30166Y-20149D01*
X30257Y-20172D01*
X30512Y-19917D01*
X30547Y-19882D01*
X30618Y-19811D01*
X30653Y-19776D01*
X30908Y-19521D01*
X30885Y-19430D01*
X30792Y-19387D01*
X30692Y-19362D01*
X30590Y-19357D01*
X30488Y-19373D01*
X30392Y-19408D01*
X30385Y-19411D01*
X30461Y-19335D01*
X30462Y-19335D01*
X30462Y-19334D01*
X30463Y-19334D01*
X30468Y-19327D01*
X30488Y-19304D01*
X30489Y-19302D01*
X30508Y-19268D01*
X30508Y-19266D01*
X30520Y-19229D01*
X30520Y-19227D01*
X30525Y-19188D01*
X30525Y-19186D01*
X30525Y-19185D01*
X30525Y-18963D01*
X30557Y-18951D01*
X30620Y-18909D01*
X30674Y-18856D01*
X30716Y-18793D01*
X30745Y-18724D01*
X30760Y-18650D01*
X30760Y-18575D01*
X30746Y-18501D01*
X30718Y-18431D01*
X30677Y-18368D01*
X30624Y-18314D01*
X30562Y-18272D01*
X30492Y-18242D01*
X30419Y-18226D01*
X30343Y-18226D01*
X30337Y-18226D01*
X30295Y-18160D01*
X29865Y-18160D01*
X29865Y-18533D01*
X29875Y-18541D01*
X29870Y-18570D01*
X29870Y-18645D01*
X29884Y-18719D01*
X29912Y-18789D01*
X29953Y-18852D01*
X30006Y-18906D01*
X30068Y-18948D01*
X30105Y-18963D01*
X30105Y-19098D01*
X29765Y-19438D01*
X29765Y-18533D01*
X29765Y-18160D01*
X29765Y-18060D01*
X29765Y-17687D01*
X29689Y-17630D01*
X29597Y-17652D01*
X29511Y-17692D01*
X29434Y-17748D01*
X29370Y-17817D01*
X29320Y-17898D01*
X29287Y-17985D01*
X29335Y-18060D01*
X29765Y-18060D01*
X29765Y-18160D01*
X29335Y-18160D01*
X29287Y-18235D01*
X29320Y-18322D01*
X29370Y-18403D01*
X29434Y-18472D01*
X29511Y-18528D01*
X29597Y-18568D01*
X29689Y-18590D01*
X29765Y-18533D01*
X29765Y-19438D01*
X29732Y-19471D01*
X29662Y-19457D01*
X29579Y-19457D01*
X29497Y-19472D01*
X29420Y-19504D01*
X29350Y-19549D01*
X29291Y-19608D01*
X29244Y-19677D01*
X29211Y-19753D01*
X29194Y-19835D01*
X29192Y-19918D01*
X29208Y-20000D01*
X29238Y-20078D01*
X29284Y-20148D01*
X29341Y-20207D01*
X29408Y-20253D01*
X29408Y-20568D01*
X29408Y-20570D01*
X29412Y-20611D01*
X29419Y-20636D01*
X29423Y-20648D01*
X29423Y-20649D01*
X29424Y-20650D01*
X29442Y-20684D01*
X29443Y-20686D01*
X29457Y-20704D01*
X29467Y-20716D01*
X29469Y-20718D01*
X29470Y-20718D01*
X29474Y-20722D01*
X30487Y-21736D01*
X30474Y-21803D01*
X30472Y-21886D01*
X30488Y-21968D01*
X30518Y-22046D01*
X30564Y-22116D01*
X30621Y-22175D01*
X30690Y-22223D01*
X30766Y-22256D01*
X30848Y-22274D01*
X30931Y-22276D01*
X31013Y-22261D01*
X31091Y-22231D01*
X31161Y-22186D01*
X31222Y-22129D01*
X31269Y-22061D01*
X31303Y-21984D01*
X31322Y-21903D01*
X31323Y-21808D01*
X31323Y-22289D01*
X29089Y-22289D01*
X28665Y-21865D01*
X28680Y-21805D01*
X28681Y-21710D01*
X28665Y-21628D01*
X28633Y-21551D01*
X28587Y-21482D01*
X28528Y-21423D01*
X28459Y-21376D01*
X28382Y-21344D01*
X28300Y-21327D01*
X28281Y-21327D01*
X28217Y-21327D01*
X28181Y-21333D01*
X28181Y-19068D01*
X28165Y-18986D01*
X28133Y-18909D01*
X28087Y-18840D01*
X28046Y-18799D01*
X28046Y-18471D01*
X27756Y-18181D01*
X27466Y-18471D01*
X27489Y-18562D01*
X27582Y-18605D01*
X27682Y-18630D01*
X27784Y-18635D01*
X27886Y-18619D01*
X27982Y-18584D01*
X28023Y-18562D01*
X28046Y-18471D01*
X28046Y-18799D01*
X28028Y-18781D01*
X27959Y-18734D01*
X27882Y-18702D01*
X27800Y-18685D01*
X27717Y-18685D01*
X27635Y-18700D01*
X27558Y-18732D01*
X27488Y-18777D01*
X27429Y-18836D01*
X27382Y-18905D01*
X27349Y-18981D01*
X27332Y-19063D01*
X27330Y-19146D01*
X27346Y-19228D01*
X27376Y-19306D01*
X27422Y-19376D01*
X27479Y-19435D01*
X27548Y-19483D01*
X27624Y-19516D01*
X27706Y-19534D01*
X27789Y-19536D01*
X27871Y-19521D01*
X27949Y-19491D01*
X28019Y-19446D01*
X28080Y-19389D01*
X28127Y-19321D01*
X28161Y-19244D01*
X28180Y-19163D01*
X28181Y-19068D01*
X28181Y-21333D01*
X28135Y-21342D01*
X28058Y-21374D01*
X27988Y-21419D01*
X27929Y-21478D01*
X27882Y-21547D01*
X27849Y-21623D01*
X27832Y-21705D01*
X27830Y-21788D01*
X27846Y-21870D01*
X27876Y-21948D01*
X27922Y-22018D01*
X27979Y-22077D01*
X28048Y-22125D01*
X28124Y-22158D01*
X28206Y-22176D01*
X28289Y-22178D01*
X28370Y-22163D01*
X28371Y-22163D01*
X28852Y-22645D01*
X28853Y-22646D01*
X28854Y-22647D01*
X28860Y-22652D01*
X28884Y-22672D01*
X28886Y-22673D01*
X28920Y-22692D01*
X28922Y-22692D01*
X28959Y-22704D01*
X28961Y-22704D01*
X29000Y-22709D01*
X29002Y-22709D01*
X29003Y-22709D01*
X32055Y-22709D01*
X32057Y-22709D01*
X32095Y-22705D01*
X32098Y-22705D01*
X32123Y-22697D01*
X32135Y-22694D01*
X32136Y-22693D01*
X32137Y-22693D01*
X32171Y-22675D01*
X32173Y-22674D01*
X32191Y-22659D01*
X32203Y-22650D01*
X32203Y-22649D01*
X32205Y-22648D01*
X32205Y-22647D01*
X32209Y-22642D01*
X32801Y-22051D01*
X32802Y-22051D01*
X32802Y-22050D01*
X32803Y-22050D01*
X32808Y-22043D01*
X32818Y-22030D01*
X32819Y-22030D01*
X32869Y-22303D01*
X32987Y-22601D01*
X33161Y-22871D01*
X33383Y-23102D01*
X33524Y-23200D01*
X27681Y-23200D01*
X27681Y-21710D01*
X27665Y-21628D01*
X27633Y-21551D01*
X27587Y-21482D01*
X27528Y-21423D01*
X27459Y-21376D01*
X27382Y-21344D01*
X27300Y-21327D01*
X27217Y-21327D01*
X27135Y-21342D01*
X27058Y-21374D01*
X26988Y-21419D01*
X26929Y-21478D01*
X26882Y-21547D01*
X26849Y-21623D01*
X26832Y-21705D01*
X26830Y-21788D01*
X26846Y-21870D01*
X26876Y-21948D01*
X26922Y-22018D01*
X26979Y-22077D01*
X27048Y-22125D01*
X27124Y-22158D01*
X27206Y-22176D01*
X27289Y-22178D01*
X27371Y-22163D01*
X27449Y-22133D01*
X27519Y-22088D01*
X27580Y-22031D01*
X27627Y-21963D01*
X27661Y-21886D01*
X27680Y-21805D01*
X27681Y-21710D01*
X27681Y-23200D01*
X25828Y-23200D01*
X25828Y-22413D01*
X25812Y-22311D01*
X25777Y-22215D01*
X25755Y-22174D01*
X25664Y-22151D01*
X25593Y-22222D01*
X25593Y-22080D01*
X25570Y-21989D01*
X25477Y-21946D01*
X25377Y-21921D01*
X25275Y-21916D01*
X25173Y-21932D01*
X25077Y-21967D01*
X25036Y-21989D01*
X25013Y-22080D01*
X25303Y-22370D01*
X25593Y-22080D01*
X25593Y-22222D01*
X25374Y-22441D01*
X25664Y-22731D01*
X25755Y-22708D01*
X25798Y-22615D01*
X25823Y-22515D01*
X25828Y-22413D01*
X25828Y-23200D01*
X25593Y-23200D01*
X25593Y-22802D01*
X25303Y-22512D01*
X25232Y-22583D01*
X25232Y-22441D01*
X24942Y-22151D01*
X24851Y-22174D01*
X24808Y-22267D01*
X24783Y-22367D01*
X24778Y-22469D01*
X24794Y-22571D01*
X24829Y-22667D01*
X24851Y-22708D01*
X24942Y-22731D01*
X25232Y-22441D01*
X25232Y-22583D01*
X25013Y-22802D01*
X25036Y-22893D01*
X25129Y-22936D01*
X25229Y-22961D01*
X25331Y-22966D01*
X25433Y-22950D01*
X25529Y-22915D01*
X25570Y-22893D01*
X25593Y-22802D01*
X25593Y-23200D01*
X23253Y-23200D01*
X23253Y-20170D01*
X23253Y-19660D01*
X22668Y-19660D01*
X22621Y-19747D01*
X22640Y-19808D01*
X22688Y-19906D01*
X22755Y-19993D01*
X22837Y-20065D01*
X22932Y-20120D01*
X23035Y-20155D01*
X23143Y-20170D01*
X23253Y-20170D01*
X23253Y-23200D01*
X22185Y-23200D01*
X22271Y-23146D01*
X22503Y-22924D01*
X22688Y-22662D01*
X22819Y-22369D01*
X22890Y-22056D01*
X22895Y-21690D01*
X22833Y-21375D01*
X22711Y-21079D01*
X22572Y-20869D01*
X22572Y-17582D01*
X22556Y-17480D01*
X22521Y-17384D01*
X22499Y-17343D01*
X22408Y-17320D01*
X22337Y-17391D01*
X22337Y-17249D01*
X22314Y-17158D01*
X22221Y-17115D01*
X22121Y-17090D01*
X22019Y-17085D01*
X21917Y-17101D01*
X21821Y-17136D01*
X21780Y-17158D01*
X21757Y-17249D01*
X22047Y-17539D01*
X22337Y-17249D01*
X22337Y-17391D01*
X22118Y-17610D01*
X22408Y-17900D01*
X22499Y-17877D01*
X22542Y-17784D01*
X22567Y-17684D01*
X22572Y-17582D01*
X22572Y-20869D01*
X22533Y-20811D01*
X22472Y-20749D01*
X22472Y-18568D01*
X22456Y-18486D01*
X22424Y-18409D01*
X22378Y-18340D01*
X22337Y-18299D01*
X22337Y-17971D01*
X22047Y-17681D01*
X21976Y-17752D01*
X21976Y-17610D01*
X21686Y-17320D01*
X21595Y-17343D01*
X21552Y-17436D01*
X21527Y-17536D01*
X21522Y-17638D01*
X21538Y-17740D01*
X21573Y-17836D01*
X21595Y-17877D01*
X21686Y-17900D01*
X21976Y-17610D01*
X21976Y-17752D01*
X21757Y-17971D01*
X21780Y-18062D01*
X21873Y-18105D01*
X21973Y-18130D01*
X22075Y-18135D01*
X22177Y-18119D01*
X22273Y-18084D01*
X22314Y-18062D01*
X22337Y-17971D01*
X22337Y-18299D01*
X22319Y-18281D01*
X22250Y-18234D01*
X22173Y-18202D01*
X22091Y-18185D01*
X22008Y-18185D01*
X21926Y-18200D01*
X21849Y-18232D01*
X21779Y-18277D01*
X21720Y-18336D01*
X21673Y-18405D01*
X21640Y-18481D01*
X21623Y-18563D01*
X21621Y-18646D01*
X21637Y-18728D01*
X21667Y-18806D01*
X21713Y-18876D01*
X21770Y-18935D01*
X21839Y-18983D01*
X21915Y-19016D01*
X21997Y-19034D01*
X22080Y-19036D01*
X22162Y-19021D01*
X22240Y-18991D01*
X22310Y-18946D01*
X22371Y-18889D01*
X22418Y-18821D01*
X22452Y-18744D01*
X22471Y-18663D01*
X22472Y-18568D01*
X22472Y-20749D01*
X22307Y-20584D01*
X22041Y-20404D01*
X21745Y-20280D01*
X21431Y-20215D01*
X21194Y-20213D01*
X21194Y-18082D01*
X21178Y-17980D01*
X21143Y-17884D01*
X21121Y-17843D01*
X21093Y-17835D01*
X21093Y-17400D01*
X21093Y-17371D01*
X21093Y-16820D01*
X21087Y-16791D01*
X21076Y-16764D01*
X21060Y-16740D01*
X21039Y-16719D01*
X21015Y-16703D01*
X20988Y-16692D01*
X20959Y-16686D01*
X20930Y-16686D01*
X20379Y-16686D01*
X20350Y-16692D01*
X20323Y-16703D01*
X20299Y-16719D01*
X20278Y-16740D01*
X20262Y-16764D01*
X20251Y-16791D01*
X20245Y-16820D01*
X20245Y-16849D01*
X20245Y-17400D01*
X20251Y-17429D01*
X20262Y-17456D01*
X20278Y-17480D01*
X20299Y-17501D01*
X20323Y-17517D01*
X20350Y-17528D01*
X20379Y-17534D01*
X20408Y-17534D01*
X20959Y-17534D01*
X20988Y-17528D01*
X21015Y-17517D01*
X21039Y-17501D01*
X21060Y-17480D01*
X21076Y-17456D01*
X21087Y-17429D01*
X21093Y-17400D01*
X21093Y-17835D01*
X21030Y-17820D01*
X20959Y-17891D01*
X20959Y-17749D01*
X20936Y-17658D01*
X20843Y-17615D01*
X20743Y-17590D01*
X20641Y-17585D01*
X20539Y-17601D01*
X20443Y-17636D01*
X20402Y-17658D01*
X20379Y-17749D01*
X20669Y-18039D01*
X20959Y-17749D01*
X20959Y-17891D01*
X20740Y-18110D01*
X21030Y-18400D01*
X21121Y-18377D01*
X21164Y-18284D01*
X21189Y-18184D01*
X21194Y-18082D01*
X21194Y-20213D01*
X21110Y-20213D01*
X21094Y-20216D01*
X21094Y-19068D01*
X21078Y-18986D01*
X21046Y-18909D01*
X21000Y-18840D01*
X20959Y-18799D01*
X20959Y-18471D01*
X20669Y-18181D01*
X20598Y-18252D01*
X20598Y-18110D01*
X20308Y-17820D01*
X20217Y-17843D01*
X20174Y-17936D01*
X20149Y-18036D01*
X20144Y-18138D01*
X20160Y-18240D01*
X20195Y-18336D01*
X20217Y-18377D01*
X20308Y-18400D01*
X20598Y-18110D01*
X20598Y-18252D01*
X20379Y-18471D01*
X20402Y-18562D01*
X20495Y-18605D01*
X20595Y-18630D01*
X20697Y-18635D01*
X20799Y-18619D01*
X20895Y-18584D01*
X20936Y-18562D01*
X20959Y-18471D01*
X20959Y-18799D01*
X20941Y-18781D01*
X20872Y-18734D01*
X20795Y-18702D01*
X20713Y-18685D01*
X20630Y-18685D01*
X20548Y-18700D01*
X20471Y-18732D01*
X20401Y-18777D01*
X20342Y-18836D01*
X20295Y-18905D01*
X20262Y-18981D01*
X20245Y-19063D01*
X20243Y-19146D01*
X20259Y-19228D01*
X20289Y-19306D01*
X20335Y-19376D01*
X20392Y-19435D01*
X20461Y-19483D01*
X20537Y-19516D01*
X20619Y-19534D01*
X20702Y-19536D01*
X20784Y-19521D01*
X20862Y-19491D01*
X20932Y-19446D01*
X20993Y-19389D01*
X21040Y-19321D01*
X21074Y-19244D01*
X21093Y-19163D01*
X21094Y-19068D01*
X21094Y-20216D01*
X20795Y-20273D01*
X20498Y-20393D01*
X20229Y-20569D01*
X20000Y-20793D01*
X19910Y-20924D01*
X19910Y-15294D01*
X19972Y-15391D01*
X20194Y-15622D01*
X20458Y-15805D01*
X20752Y-15933D01*
X21065Y-16002D01*
X21386Y-16009D01*
X21702Y-15953D01*
X22001Y-15837D01*
X22272Y-15666D01*
X22504Y-15444D01*
X22689Y-15182D01*
X22820Y-14889D01*
X22891Y-14576D01*
X22896Y-14210D01*
X22834Y-13895D01*
X22712Y-13599D01*
X22534Y-13331D01*
X22308Y-13104D01*
X22183Y-13020D01*
X24257Y-13020D01*
X23938Y-13339D01*
X23937Y-13339D01*
X23850Y-13321D01*
X23762Y-13321D01*
X23675Y-13337D01*
X23594Y-13370D01*
X23520Y-13419D01*
X23457Y-13480D01*
X23407Y-13553D01*
X23372Y-13634D01*
X23354Y-13720D01*
X23352Y-13809D01*
X23368Y-13896D01*
X23401Y-13978D01*
X23449Y-14052D01*
X23510Y-14115D01*
X23582Y-14166D01*
X23663Y-14201D01*
X23749Y-14220D01*
X23838Y-14222D01*
X23924Y-14207D01*
X24007Y-14175D01*
X24081Y-14127D01*
X24145Y-14067D01*
X24196Y-13994D01*
X24232Y-13914D01*
X24252Y-13828D01*
X24253Y-13727D01*
X24236Y-13640D01*
X24234Y-13636D01*
X24550Y-13320D01*
X26810Y-13320D01*
X26951Y-13461D01*
X26938Y-13528D01*
X26936Y-13611D01*
X26952Y-13693D01*
X26982Y-13771D01*
X27028Y-13841D01*
X27051Y-13865D01*
X26636Y-13865D01*
X26400Y-13629D01*
X26396Y-13624D01*
X26394Y-13623D01*
X26373Y-13604D01*
X26365Y-13598D01*
X26363Y-13596D01*
X26331Y-13579D01*
X26329Y-13578D01*
X26328Y-13577D01*
X26327Y-13577D01*
X26288Y-13565D01*
X26257Y-13561D01*
X26252Y-13561D01*
X26252Y-13456D01*
X26246Y-13427D01*
X26235Y-13400D01*
X26219Y-13376D01*
X26198Y-13355D01*
X26174Y-13339D01*
X26147Y-13328D01*
X26118Y-13322D01*
X26089Y-13322D01*
X25488Y-13322D01*
X25459Y-13328D01*
X25432Y-13339D01*
X25408Y-13355D01*
X25387Y-13376D01*
X25371Y-13400D01*
X25360Y-13427D01*
X25354Y-13456D01*
X25354Y-13485D01*
X25354Y-14086D01*
X25360Y-14115D01*
X25371Y-14142D01*
X25387Y-14166D01*
X25408Y-14187D01*
X25432Y-14203D01*
X25459Y-14214D01*
X25488Y-14220D01*
X25517Y-14220D01*
X26118Y-14220D01*
X26147Y-14214D01*
X26174Y-14203D01*
X26198Y-14187D01*
X26219Y-14166D01*
X26235Y-14142D01*
X26246Y-14115D01*
X26252Y-14086D01*
X26252Y-14073D01*
X26399Y-14221D01*
X26400Y-14222D01*
X26401Y-14223D01*
X26407Y-14228D01*
X26431Y-14248D01*
X26433Y-14249D01*
X26467Y-14268D01*
X26469Y-14268D01*
X26506Y-14280D01*
X26508Y-14280D01*
X26547Y-14285D01*
X26550Y-14285D01*
X27051Y-14285D01*
X27035Y-14301D01*
X26988Y-14370D01*
X26955Y-14446D01*
X26938Y-14528D01*
X26936Y-14611D01*
X26952Y-14693D01*
X26982Y-14771D01*
X27028Y-14841D01*
X27085Y-14900D01*
X27154Y-14948D01*
X27230Y-14981D01*
X27312Y-14999D01*
X27395Y-15001D01*
X27477Y-14986D01*
X27555Y-14956D01*
X27625Y-14911D01*
X27686Y-14854D01*
X27733Y-14786D01*
X27767Y-14709D01*
X27786Y-14628D01*
X27787Y-14533D01*
X27772Y-14460D01*
X28270Y-13962D01*
X28313Y-13981D01*
X28395Y-13999D01*
X28478Y-14001D01*
X28560Y-13986D01*
X28638Y-13956D01*
X28708Y-13911D01*
X28769Y-13854D01*
X28816Y-13786D01*
X28850Y-13709D01*
X28869Y-13628D01*
X28870Y-13533D01*
X28854Y-13451D01*
X28822Y-13374D01*
X28776Y-13305D01*
X28720Y-13249D01*
X29253Y-13249D01*
X29201Y-13301D01*
X29154Y-13370D01*
X29121Y-13446D01*
X29104Y-13528D01*
X29102Y-13611D01*
X29118Y-13693D01*
X29148Y-13771D01*
X29194Y-13841D01*
X29251Y-13900D01*
X29320Y-13948D01*
X29396Y-13981D01*
X29478Y-13999D01*
X29561Y-14001D01*
X29643Y-13986D01*
X29721Y-13956D01*
X29791Y-13911D01*
X29843Y-13862D01*
X29828Y-13891D01*
X29827Y-13893D01*
X29826Y-13893D01*
X29826Y-13895D01*
X29814Y-13934D01*
X29810Y-13965D01*
X29810Y-13973D01*
X29810Y-13975D01*
X29810Y-13976D01*
X29810Y-14256D01*
X29800Y-14246D01*
X29731Y-14199D01*
X29654Y-14167D01*
X29572Y-14150D01*
X29489Y-14150D01*
X29407Y-14165D01*
X29330Y-14197D01*
X29260Y-14242D01*
X29201Y-14301D01*
X29154Y-14370D01*
X29121Y-14446D01*
X29104Y-14528D01*
X29102Y-14611D01*
X29115Y-14681D01*
X28870Y-14926D01*
X28870Y-14533D01*
X28854Y-14451D01*
X28822Y-14374D01*
X28776Y-14305D01*
X28717Y-14246D01*
X28648Y-14199D01*
X28571Y-14167D01*
X28489Y-14150D01*
X28406Y-14150D01*
X28324Y-14165D01*
X28247Y-14197D01*
X28177Y-14242D01*
X28118Y-14301D01*
X28071Y-14370D01*
X28038Y-14446D01*
X28021Y-14528D01*
X28019Y-14611D01*
X28035Y-14693D01*
X28065Y-14771D01*
X28111Y-14841D01*
X28168Y-14900D01*
X28237Y-14948D01*
X28313Y-14981D01*
X28395Y-14999D01*
X28478Y-15001D01*
X28560Y-14986D01*
X28638Y-14956D01*
X28708Y-14911D01*
X28769Y-14854D01*
X28816Y-14786D01*
X28850Y-14709D01*
X28869Y-14628D01*
X28870Y-14533D01*
X28870Y-14926D01*
X28456Y-15341D01*
X27266Y-15341D01*
X27264Y-15341D01*
X27223Y-15345D01*
X27197Y-15352D01*
X27186Y-15356D01*
X27184Y-15356D01*
X27184Y-15357D01*
X27148Y-15376D01*
X27124Y-15395D01*
X27117Y-15401D01*
X27116Y-15402D01*
X27115Y-15403D01*
X26754Y-15764D01*
X26749Y-15769D01*
X26729Y-15792D01*
X26721Y-15802D01*
X26704Y-15834D01*
X26703Y-15836D01*
X26702Y-15836D01*
X26702Y-15838D01*
X26690Y-15877D01*
X26686Y-15908D01*
X26686Y-15916D01*
X26686Y-15918D01*
X26686Y-15919D01*
X26686Y-16219D01*
X26667Y-16207D01*
X26584Y-16171D01*
X26496Y-16153D01*
X26406Y-16151D01*
X26141Y-16151D01*
X26013Y-16023D01*
X26013Y-15171D01*
X26081Y-15127D01*
X26145Y-15067D01*
X26196Y-14994D01*
X26232Y-14914D01*
X26252Y-14828D01*
X26253Y-14727D01*
X26236Y-14640D01*
X26202Y-14559D01*
X26153Y-14485D01*
X26091Y-14423D01*
X26018Y-14373D01*
X25937Y-14339D01*
X25850Y-14321D01*
X25762Y-14321D01*
X25675Y-14337D01*
X25594Y-14370D01*
X25520Y-14419D01*
X25457Y-14480D01*
X25407Y-14553D01*
X25372Y-14634D01*
X25354Y-14720D01*
X25352Y-14809D01*
X25368Y-14896D01*
X25401Y-14978D01*
X25449Y-15052D01*
X25510Y-15115D01*
X25582Y-15166D01*
X25593Y-15170D01*
X25593Y-16108D01*
X25593Y-16110D01*
X25597Y-16151D01*
X25604Y-16176D01*
X25608Y-16188D01*
X25608Y-16189D01*
X25609Y-16190D01*
X25627Y-16224D01*
X25628Y-16226D01*
X25642Y-16244D01*
X25652Y-16256D01*
X25654Y-16258D01*
X25655Y-16258D01*
X25659Y-16262D01*
X25768Y-16372D01*
X25756Y-16391D01*
X25752Y-16400D01*
X25253Y-16400D01*
X25253Y-14727D01*
X25253Y-13727D01*
X25236Y-13640D01*
X25202Y-13559D01*
X25153Y-13485D01*
X25091Y-13423D01*
X25018Y-13373D01*
X24937Y-13339D01*
X24850Y-13321D01*
X24762Y-13321D01*
X24675Y-13337D01*
X24594Y-13370D01*
X24520Y-13419D01*
X24457Y-13480D01*
X24407Y-13553D01*
X24372Y-13634D01*
X24354Y-13720D01*
X24352Y-13809D01*
X24368Y-13896D01*
X24401Y-13978D01*
X24449Y-14052D01*
X24510Y-14115D01*
X24582Y-14166D01*
X24663Y-14201D01*
X24749Y-14220D01*
X24838Y-14222D01*
X24924Y-14207D01*
X25007Y-14175D01*
X25081Y-14127D01*
X25145Y-14067D01*
X25196Y-13994D01*
X25232Y-13914D01*
X25252Y-13828D01*
X25253Y-13727D01*
X25253Y-14727D01*
X25236Y-14640D01*
X25202Y-14559D01*
X25153Y-14485D01*
X25091Y-14423D01*
X25018Y-14373D01*
X24937Y-14339D01*
X24850Y-14321D01*
X24762Y-14321D01*
X24675Y-14337D01*
X24594Y-14370D01*
X24520Y-14419D01*
X24457Y-14480D01*
X24407Y-14553D01*
X24372Y-14634D01*
X24354Y-14720D01*
X24352Y-14809D01*
X24352Y-14744D01*
X24336Y-14638D01*
X24300Y-14537D01*
X24275Y-14490D01*
X24181Y-14463D01*
X24111Y-14533D01*
X24111Y-14393D01*
X24084Y-14299D01*
X23987Y-14253D01*
X23883Y-14227D01*
X23776Y-14222D01*
X23670Y-14238D01*
X23569Y-14274D01*
X23522Y-14299D01*
X23495Y-14393D01*
X23803Y-14700D01*
X24111Y-14393D01*
X24111Y-14533D01*
X23874Y-14771D01*
X24181Y-15079D01*
X24275Y-15052D01*
X24321Y-14955D01*
X24347Y-14851D01*
X24352Y-14744D01*
X24352Y-14809D01*
X24368Y-14896D01*
X24401Y-14978D01*
X24449Y-15052D01*
X24510Y-15115D01*
X24582Y-15166D01*
X24663Y-15201D01*
X24749Y-15220D01*
X24838Y-15222D01*
X24924Y-15207D01*
X25007Y-15175D01*
X25081Y-15127D01*
X25145Y-15067D01*
X25196Y-14994D01*
X25232Y-14914D01*
X25252Y-14828D01*
X25253Y-14727D01*
X25253Y-16400D01*
X25026Y-16400D01*
X25024Y-16400D01*
X24983Y-16404D01*
X24961Y-16410D01*
X24946Y-16415D01*
X24944Y-16415D01*
X24944Y-16416D01*
X24908Y-16435D01*
X24884Y-16454D01*
X24877Y-16460D01*
X24876Y-16461D01*
X24875Y-16462D01*
X24161Y-17176D01*
X24156Y-17181D01*
X24136Y-17204D01*
X24128Y-17214D01*
X24111Y-17246D01*
X24111Y-15149D01*
X23803Y-14842D01*
X23732Y-14912D01*
X23732Y-14771D01*
X23425Y-14463D01*
X23331Y-14490D01*
X23285Y-14587D01*
X23259Y-14691D01*
X23254Y-14798D01*
X23270Y-14904D01*
X23306Y-15005D01*
X23331Y-15052D01*
X23425Y-15079D01*
X23732Y-14771D01*
X23732Y-14912D01*
X23495Y-15149D01*
X23522Y-15243D01*
X23619Y-15289D01*
X23723Y-15315D01*
X23830Y-15320D01*
X23936Y-15304D01*
X24037Y-15268D01*
X24084Y-15243D01*
X24111Y-15149D01*
X24111Y-17246D01*
X24110Y-17248D01*
X24109Y-17248D01*
X24109Y-17250D01*
X24097Y-17289D01*
X24093Y-17320D01*
X24093Y-17328D01*
X24093Y-17330D01*
X24093Y-17331D01*
X24093Y-22070D01*
X24035Y-22108D01*
X23985Y-22158D01*
X23985Y-19747D01*
X23985Y-19473D01*
X23966Y-19412D01*
X23918Y-19314D01*
X23851Y-19227D01*
X23769Y-19155D01*
X23674Y-19100D01*
X23571Y-19065D01*
X23532Y-19059D01*
X23578Y-19051D01*
X23661Y-19016D01*
X23736Y-18967D01*
X23800Y-18903D01*
X23850Y-18829D01*
X23885Y-18746D01*
X23903Y-18658D01*
X23903Y-18568D01*
X23903Y-17658D01*
X23903Y-17568D01*
X23902Y-17562D01*
X23902Y-16935D01*
X23902Y-16906D01*
X23902Y-16285D01*
X23896Y-16256D01*
X23885Y-16229D01*
X23869Y-16205D01*
X23848Y-16184D01*
X23824Y-16168D01*
X23797Y-16157D01*
X23768Y-16151D01*
X23739Y-16151D01*
X22838Y-16151D01*
X22809Y-16157D01*
X22782Y-16168D01*
X22758Y-16184D01*
X22737Y-16205D01*
X22721Y-16229D01*
X22710Y-16256D01*
X22704Y-16285D01*
X22704Y-16314D01*
X22704Y-16935D01*
X22710Y-16964D01*
X22721Y-16991D01*
X22737Y-17015D01*
X22758Y-17036D01*
X22782Y-17052D01*
X22809Y-17063D01*
X22838Y-17069D01*
X22867Y-17069D01*
X23768Y-17069D01*
X23797Y-17063D01*
X23824Y-17052D01*
X23848Y-17036D01*
X23869Y-17015D01*
X23885Y-16991D01*
X23896Y-16964D01*
X23902Y-16935D01*
X23902Y-17562D01*
X23886Y-17480D01*
X23853Y-17397D01*
X23804Y-17322D01*
X23741Y-17257D01*
X23667Y-17207D01*
X23584Y-17171D01*
X23496Y-17153D01*
X23406Y-17151D01*
X23116Y-17152D01*
X23028Y-17169D01*
X22945Y-17204D01*
X22870Y-17253D01*
X22806Y-17317D01*
X22756Y-17391D01*
X22721Y-17474D01*
X22703Y-17562D01*
X22703Y-17652D01*
X22720Y-17740D01*
X22753Y-17823D01*
X22802Y-17898D01*
X22865Y-17963D01*
X22939Y-18013D01*
X23022Y-18049D01*
X23110Y-18067D01*
X23200Y-18069D01*
X23490Y-18068D01*
X23578Y-18051D01*
X23661Y-18016D01*
X23736Y-17967D01*
X23800Y-17903D01*
X23850Y-17829D01*
X23885Y-17746D01*
X23903Y-17658D01*
X23903Y-18568D01*
X23886Y-18480D01*
X23853Y-18397D01*
X23804Y-18322D01*
X23741Y-18257D01*
X23667Y-18207D01*
X23584Y-18171D01*
X23496Y-18153D01*
X23406Y-18151D01*
X23116Y-18152D01*
X23028Y-18169D01*
X22945Y-18204D01*
X22870Y-18253D01*
X22806Y-18317D01*
X22756Y-18391D01*
X22721Y-18474D01*
X22703Y-18562D01*
X22703Y-18652D01*
X22720Y-18740D01*
X22753Y-18823D01*
X22802Y-18898D01*
X22865Y-18963D01*
X22939Y-19013D01*
X23022Y-19049D01*
X23073Y-19059D01*
X23035Y-19065D01*
X22932Y-19100D01*
X22837Y-19155D01*
X22755Y-19227D01*
X22688Y-19314D01*
X22640Y-19412D01*
X22621Y-19473D01*
X22668Y-19560D01*
X23203Y-19560D01*
X23253Y-19560D01*
X23353Y-19560D01*
X23403Y-19560D01*
X23938Y-19560D01*
X23985Y-19473D01*
X23985Y-19747D01*
X23938Y-19660D01*
X23353Y-19660D01*
X23353Y-20170D01*
X23463Y-20170D01*
X23571Y-20155D01*
X23674Y-20120D01*
X23769Y-20065D01*
X23851Y-19993D01*
X23918Y-19906D01*
X23966Y-19808D01*
X23985Y-19747D01*
X23985Y-22158D01*
X23976Y-22167D01*
X23929Y-22236D01*
X23896Y-22312D01*
X23879Y-22394D01*
X23877Y-22477D01*
X23893Y-22559D01*
X23923Y-22637D01*
X23969Y-22707D01*
X24026Y-22766D01*
X24095Y-22814D01*
X24171Y-22847D01*
X24253Y-22865D01*
X24336Y-22867D01*
X24418Y-22852D01*
X24496Y-22822D01*
X24566Y-22777D01*
X24627Y-22720D01*
X24674Y-22652D01*
X24708Y-22575D01*
X24727Y-22494D01*
X24728Y-22399D01*
X24712Y-22317D01*
X24680Y-22240D01*
X24634Y-22171D01*
X24575Y-22112D01*
X24513Y-22069D01*
X24513Y-17417D01*
X25110Y-16820D01*
X25751Y-16820D01*
X25753Y-16823D01*
X25802Y-16898D01*
X25865Y-16963D01*
X25939Y-17013D01*
X26022Y-17049D01*
X26110Y-17067D01*
X26200Y-17069D01*
X26490Y-17068D01*
X26578Y-17051D01*
X26661Y-17016D01*
X26686Y-16999D01*
X26686Y-17204D01*
X26686Y-17207D01*
X26686Y-17219D01*
X26667Y-17207D01*
X26584Y-17171D01*
X26496Y-17153D01*
X26406Y-17151D01*
X26116Y-17152D01*
X26028Y-17169D01*
X25945Y-17204D01*
X25870Y-17253D01*
X25806Y-17317D01*
X25756Y-17391D01*
X25721Y-17474D01*
X25703Y-17562D01*
X25703Y-17652D01*
X25720Y-17740D01*
X25753Y-17823D01*
X25802Y-17898D01*
X25865Y-17963D01*
X25939Y-18013D01*
X26022Y-18049D01*
X26110Y-18067D01*
X26200Y-18069D01*
X26490Y-18068D01*
X26578Y-18051D01*
X26661Y-18016D01*
X26736Y-17967D01*
X26800Y-17903D01*
X26850Y-17829D01*
X26853Y-17820D01*
X26895Y-17820D01*
X26896Y-17820D01*
X26935Y-17816D01*
X26937Y-17816D01*
X26953Y-17810D01*
X26975Y-17805D01*
X26976Y-17804D01*
X27011Y-17786D01*
X27012Y-17785D01*
X27043Y-17760D01*
X27043Y-17759D01*
X27044Y-17759D01*
X27049Y-17752D01*
X27069Y-17729D01*
X27070Y-17727D01*
X27089Y-17693D01*
X27089Y-17692D01*
X27090Y-17691D01*
X27101Y-17654D01*
X27102Y-17652D01*
X27105Y-17621D01*
X27106Y-17613D01*
X27106Y-17611D01*
X27106Y-17610D01*
X27106Y-17227D01*
X27106Y-17224D01*
X27106Y-17207D01*
X27106Y-16005D01*
X27350Y-15761D01*
X28541Y-15761D01*
X28543Y-15761D01*
X28581Y-15757D01*
X28584Y-15757D01*
X28609Y-15749D01*
X28621Y-15746D01*
X28622Y-15745D01*
X28623Y-15745D01*
X28657Y-15727D01*
X28659Y-15726D01*
X28677Y-15711D01*
X28689Y-15702D01*
X28689Y-15701D01*
X28691Y-15700D01*
X28691Y-15699D01*
X28695Y-15694D01*
X29407Y-14983D01*
X29478Y-14999D01*
X29487Y-14999D01*
X28172Y-16315D01*
X28136Y-16319D01*
X28096Y-16330D01*
X28060Y-16349D01*
X28028Y-16375D01*
X28002Y-16406D01*
X27982Y-16442D01*
X27970Y-16481D01*
X27965Y-16522D01*
X27965Y-16524D01*
X27965Y-16525D01*
X27965Y-16532D01*
X27965Y-16534D01*
X27965Y-16535D01*
X27965Y-16686D01*
X27466Y-16686D01*
X27437Y-16692D01*
X27410Y-16703D01*
X27386Y-16719D01*
X27365Y-16740D01*
X27349Y-16764D01*
X27338Y-16791D01*
X27332Y-16820D01*
X27332Y-16849D01*
X27332Y-17400D01*
X27338Y-17429D01*
X27349Y-17456D01*
X27365Y-17480D01*
X27386Y-17501D01*
X27410Y-17517D01*
X27437Y-17528D01*
X27448Y-17530D01*
X26875Y-18104D01*
X26870Y-18109D01*
X26850Y-18132D01*
X26842Y-18142D01*
X26825Y-18174D01*
X26824Y-18176D01*
X26823Y-18176D01*
X26823Y-18178D01*
X26811Y-18217D01*
X26807Y-18248D01*
X26807Y-18256D01*
X26807Y-18258D01*
X26807Y-18259D01*
X26807Y-18326D01*
X26804Y-18322D01*
X26741Y-18257D01*
X26667Y-18207D01*
X26584Y-18171D01*
X26496Y-18153D01*
X26406Y-18151D01*
X26116Y-18152D01*
X26028Y-18169D01*
X25945Y-18204D01*
X25870Y-18253D01*
X25806Y-18317D01*
X25756Y-18391D01*
X25721Y-18474D01*
X25703Y-18562D01*
X25703Y-18652D01*
X25720Y-18740D01*
X25753Y-18823D01*
X25802Y-18898D01*
X25865Y-18963D01*
X25939Y-19013D01*
X26022Y-19049D01*
X26110Y-19067D01*
X26113Y-19067D01*
X26110Y-19074D01*
X26109Y-19074D01*
X26109Y-19076D01*
X26097Y-19115D01*
X26093Y-19146D01*
X26093Y-19154D01*
X26093Y-19156D01*
X26028Y-19169D01*
X25945Y-19204D01*
X25870Y-19253D01*
X25806Y-19317D01*
X25756Y-19391D01*
X25721Y-19474D01*
X25703Y-19562D01*
X25703Y-19652D01*
X25720Y-19740D01*
X25753Y-19823D01*
X25802Y-19898D01*
X25865Y-19963D01*
X25939Y-20013D01*
X26022Y-20049D01*
X26110Y-20067D01*
X26200Y-20069D01*
X26490Y-20068D01*
X26578Y-20051D01*
X26661Y-20016D01*
X26736Y-19967D01*
X26800Y-19903D01*
X26850Y-19829D01*
X26885Y-19746D01*
X26903Y-19658D01*
X26903Y-19568D01*
X26886Y-19480D01*
X26853Y-19397D01*
X26804Y-19322D01*
X26783Y-19301D01*
X26784Y-19300D01*
X27163Y-18922D01*
X27164Y-18922D01*
X27164Y-18921D01*
X27165Y-18921D01*
X27170Y-18914D01*
X27190Y-18891D01*
X27191Y-18889D01*
X27210Y-18855D01*
X27210Y-18853D01*
X27222Y-18816D01*
X27222Y-18814D01*
X27227Y-18775D01*
X27227Y-18773D01*
X27227Y-18772D01*
X27227Y-18345D01*
X27269Y-18302D01*
X27282Y-18336D01*
X27304Y-18377D01*
X27395Y-18400D01*
X27650Y-18145D01*
X27685Y-18110D01*
X27756Y-18039D01*
X27827Y-18110D01*
X27862Y-18145D01*
X28117Y-18400D01*
X28208Y-18377D01*
X28251Y-18284D01*
X28276Y-18184D01*
X28281Y-18082D01*
X28265Y-17980D01*
X28230Y-17884D01*
X28208Y-17843D01*
X28172Y-17834D01*
X28199Y-17808D01*
X28138Y-17747D01*
X28139Y-17747D01*
X28141Y-17747D01*
X28179Y-17743D01*
X28182Y-17743D01*
X28207Y-17735D01*
X28219Y-17732D01*
X28220Y-17731D01*
X28221Y-17731D01*
X28255Y-17713D01*
X28257Y-17712D01*
X28275Y-17697D01*
X28287Y-17688D01*
X28287Y-17687D01*
X28289Y-17686D01*
X28289Y-17685D01*
X28292Y-17681D01*
X28321Y-17653D01*
X28322Y-17653D01*
X28322Y-17652D01*
X28323Y-17652D01*
X28348Y-17622D01*
X28350Y-17620D01*
X28366Y-17588D01*
X28368Y-17586D01*
X28368Y-17585D01*
X28369Y-17584D01*
X28380Y-17547D01*
X28381Y-17545D01*
X28384Y-17514D01*
X28385Y-17506D01*
X28385Y-17504D01*
X28385Y-17503D01*
X28385Y-16693D01*
X28395Y-16686D01*
X28395Y-16685D01*
X28397Y-16684D01*
X28397Y-16683D01*
X28401Y-16678D01*
X30166Y-14914D01*
X30167Y-14914D01*
X30167Y-14913D01*
X30168Y-14913D01*
X30173Y-14906D01*
X30193Y-14883D01*
X30194Y-14881D01*
X30213Y-14847D01*
X30213Y-14845D01*
X30225Y-14808D01*
X30225Y-14806D01*
X30230Y-14767D01*
X30230Y-14765D01*
X30230Y-14764D01*
X30230Y-14062D01*
X30412Y-13879D01*
X30432Y-13900D01*
X30501Y-13948D01*
X30577Y-13981D01*
X30659Y-13999D01*
X30742Y-14001D01*
X30824Y-13986D01*
X30902Y-13956D01*
X30972Y-13911D01*
X31033Y-13854D01*
X31080Y-13786D01*
X31114Y-13709D01*
X31133Y-13628D01*
X31134Y-13533D01*
X31118Y-13451D01*
X31086Y-13374D01*
X31040Y-13305D01*
X30984Y-13249D01*
X31267Y-13249D01*
X31479Y-13461D01*
X31466Y-13528D01*
X31464Y-13611D01*
X31480Y-13693D01*
X31510Y-13771D01*
X31556Y-13841D01*
X31613Y-13900D01*
X31682Y-13948D01*
X31758Y-13981D01*
X31840Y-13999D01*
X31923Y-14001D01*
X32004Y-13986D01*
X32005Y-13986D01*
X32315Y-14296D01*
X32315Y-14533D01*
X32299Y-14451D01*
X32267Y-14374D01*
X32221Y-14305D01*
X32162Y-14246D01*
X32093Y-14199D01*
X32016Y-14167D01*
X31934Y-14150D01*
X31851Y-14150D01*
X31769Y-14165D01*
X31692Y-14197D01*
X31622Y-14242D01*
X31563Y-14301D01*
X31516Y-14370D01*
X31483Y-14446D01*
X31466Y-14528D01*
X31464Y-14611D01*
X31480Y-14693D01*
X31510Y-14771D01*
X31556Y-14841D01*
X31613Y-14900D01*
X31682Y-14948D01*
X31698Y-14955D01*
X31401Y-14955D01*
X31398Y-14955D01*
X31385Y-14955D01*
X31118Y-14688D01*
X31133Y-14628D01*
X31134Y-14533D01*
X31118Y-14451D01*
X31086Y-14374D01*
X31040Y-14305D01*
X30981Y-14246D01*
X30912Y-14199D01*
X30835Y-14167D01*
X30753Y-14150D01*
X30670Y-14150D01*
X30588Y-14165D01*
X30511Y-14197D01*
X30441Y-14242D01*
X30382Y-14301D01*
X30335Y-14370D01*
X30302Y-14446D01*
X30285Y-14528D01*
X30283Y-14611D01*
X30299Y-14693D01*
X30329Y-14771D01*
X30375Y-14841D01*
X30432Y-14900D01*
X30501Y-14948D01*
X30577Y-14981D01*
X30659Y-14999D01*
X30742Y-15001D01*
X30823Y-14986D01*
X30824Y-14986D01*
X31148Y-15311D01*
X31149Y-15312D01*
X31150Y-15313D01*
X31156Y-15318D01*
X31180Y-15338D01*
X31182Y-15339D01*
X31216Y-15358D01*
X31218Y-15358D01*
X31255Y-15370D01*
X31257Y-15370D01*
X31296Y-15375D01*
X31298Y-15375D01*
X31299Y-15375D01*
X31365Y-15375D01*
X31365Y-15498D01*
X31427Y-15560D01*
X31790Y-15560D01*
X31840Y-15560D01*
X31940Y-15560D01*
X31940Y-15660D01*
X31840Y-15660D01*
X31790Y-15660D01*
X31427Y-15660D01*
X31365Y-15722D01*
X31365Y-15909D01*
X31374Y-15957D01*
X31393Y-16002D01*
X31420Y-16043D01*
X31455Y-16078D01*
X31487Y-16100D01*
X31169Y-16419D01*
X31164Y-16424D01*
X31144Y-16447D01*
X31136Y-16457D01*
X31119Y-16489D01*
X31118Y-16491D01*
X31117Y-16491D01*
X31117Y-16493D01*
X31105Y-16529D01*
X31027Y-16451D01*
X31042Y-16391D01*
X31043Y-16296D01*
X31027Y-16214D01*
X30995Y-16137D01*
X30949Y-16068D01*
X30890Y-16009D01*
X30821Y-15962D01*
X30744Y-15930D01*
X30662Y-15913D01*
X30579Y-15913D01*
X30497Y-15928D01*
X30420Y-15960D01*
X30350Y-16005D01*
X30291Y-16064D01*
X30244Y-16133D01*
X30211Y-16209D01*
X30194Y-16291D01*
X30192Y-16374D01*
X30207Y-16452D01*
X30173Y-16486D01*
X30168Y-16491D01*
X30148Y-16514D01*
X30143Y-16520D01*
X30143Y-16310D01*
X30127Y-16208D01*
X30092Y-16112D01*
X30070Y-16071D01*
X29979Y-16048D01*
X29908Y-16119D01*
X29908Y-15977D01*
X29885Y-15886D01*
X29792Y-15843D01*
X29692Y-15818D01*
X29590Y-15813D01*
X29488Y-15829D01*
X29392Y-15864D01*
X29351Y-15886D01*
X29328Y-15977D01*
X29618Y-16267D01*
X29908Y-15977D01*
X29908Y-16119D01*
X29689Y-16338D01*
X29979Y-16628D01*
X30070Y-16605D01*
X30113Y-16512D01*
X30138Y-16412D01*
X30143Y-16310D01*
X30143Y-16520D01*
X30140Y-16524D01*
X30123Y-16556D01*
X30122Y-16558D01*
X30121Y-16558D01*
X30121Y-16560D01*
X30109Y-16599D01*
X30105Y-16630D01*
X30105Y-16638D01*
X30105Y-16640D01*
X30105Y-16641D01*
X30105Y-17256D01*
X30073Y-17269D01*
X30010Y-17311D01*
X29956Y-17364D01*
X29914Y-17427D01*
X29908Y-17441D01*
X29908Y-16699D01*
X29618Y-16409D01*
X29547Y-16480D01*
X29547Y-16338D01*
X29257Y-16048D01*
X29166Y-16071D01*
X29123Y-16164D01*
X29098Y-16264D01*
X29093Y-16366D01*
X29109Y-16468D01*
X29144Y-16564D01*
X29166Y-16605D01*
X29257Y-16628D01*
X29547Y-16338D01*
X29547Y-16480D01*
X29328Y-16699D01*
X29351Y-16790D01*
X29444Y-16833D01*
X29544Y-16858D01*
X29646Y-16863D01*
X29748Y-16847D01*
X29844Y-16812D01*
X29885Y-16790D01*
X29908Y-16699D01*
X29908Y-17441D01*
X29885Y-17496D01*
X29870Y-17570D01*
X29870Y-17645D01*
X29876Y-17678D01*
X29865Y-17687D01*
X29865Y-18060D01*
X30295Y-18060D01*
X30337Y-17994D01*
X30414Y-17994D01*
X30488Y-17979D01*
X30557Y-17951D01*
X30620Y-17909D01*
X30674Y-17856D01*
X30716Y-17793D01*
X30745Y-17724D01*
X30760Y-17650D01*
X30760Y-17575D01*
X30746Y-17501D01*
X30718Y-17431D01*
X30677Y-17368D01*
X30624Y-17314D01*
X30562Y-17272D01*
X30525Y-17256D01*
X30525Y-16752D01*
X30568Y-16762D01*
X30651Y-16764D01*
X30732Y-16749D01*
X30733Y-16749D01*
X31479Y-17496D01*
X31466Y-17563D01*
X31464Y-17646D01*
X31480Y-17728D01*
X31510Y-17806D01*
X31556Y-17876D01*
X31613Y-17935D01*
X31682Y-17983D01*
X31758Y-18016D01*
X31840Y-18034D01*
X31923Y-18036D01*
X32005Y-18021D01*
X32083Y-17991D01*
X32145Y-17951D01*
X32145Y-18058D01*
X32003Y-18199D01*
X31934Y-18185D01*
X31851Y-18185D01*
X31769Y-18200D01*
X31692Y-18232D01*
X31622Y-18277D01*
X31563Y-18336D01*
X31516Y-18405D01*
X31483Y-18481D01*
X31466Y-18563D01*
X31464Y-18646D01*
X31480Y-18728D01*
X31510Y-18806D01*
X31556Y-18876D01*
X31613Y-18935D01*
X31682Y-18983D01*
X31758Y-19016D01*
X31840Y-19034D01*
X31923Y-19036D01*
X32005Y-19021D01*
X32083Y-18991D01*
X32153Y-18946D01*
X32214Y-18889D01*
X32261Y-18821D01*
X32295Y-18744D01*
X32314Y-18663D01*
X32315Y-18568D01*
X32300Y-18495D01*
X32501Y-18295D01*
X32502Y-18295D01*
X32502Y-18294D01*
X32503Y-18294D01*
X32508Y-18287D01*
X32528Y-18264D01*
X32529Y-18262D01*
X32548Y-18228D01*
X32548Y-18226D01*
X32560Y-18189D01*
X32560Y-18187D01*
X32565Y-18148D01*
X32565Y-18146D01*
X32565Y-18145D01*
X32565Y-17260D01*
X32565Y-17258D01*
X32561Y-17220D01*
X32561Y-17217D01*
X32553Y-17191D01*
X32550Y-17180D01*
X32549Y-17178D01*
X32531Y-17144D01*
X32530Y-17142D01*
X32515Y-17124D01*
X32506Y-17112D01*
X32504Y-17110D01*
X32503Y-17109D01*
X32429Y-17035D01*
X32425Y-17031D01*
X32423Y-17030D01*
X32402Y-17011D01*
X32394Y-17005D01*
X32392Y-17003D01*
X32360Y-16986D01*
X32358Y-16985D01*
X32357Y-16984D01*
X32356Y-16984D01*
X32317Y-16972D01*
X32286Y-16968D01*
X32278Y-16968D01*
X32276Y-16968D01*
X32275Y-16968D01*
X32118Y-16968D01*
X32153Y-16946D01*
X32214Y-16889D01*
X32261Y-16821D01*
X32261Y-16820D01*
X32489Y-16820D01*
X32491Y-16820D01*
X32529Y-16816D01*
X32532Y-16816D01*
X32557Y-16808D01*
X32569Y-16805D01*
X32570Y-16804D01*
X32571Y-16804D01*
X32605Y-16786D01*
X32607Y-16785D01*
X32625Y-16770D01*
X32637Y-16761D01*
X32637Y-16760D01*
X32639Y-16759D01*
X32639Y-16758D01*
X32642Y-16754D01*
X32671Y-16726D01*
X32672Y-16726D01*
X32672Y-16725D01*
X32673Y-16725D01*
X32698Y-16695D01*
X32700Y-16693D01*
X32716Y-16661D01*
X32718Y-16659D01*
X32718Y-16658D01*
X32719Y-16657D01*
X32730Y-16620D01*
X32731Y-16618D01*
X32734Y-16587D01*
X32735Y-16579D01*
X32735Y-16577D01*
X32735Y-16576D01*
X32735Y-14212D01*
X32735Y-14210D01*
X32731Y-14172D01*
X32731Y-14169D01*
X32723Y-14143D01*
X32720Y-14132D01*
X32719Y-14130D01*
X32701Y-14096D01*
X32700Y-14094D01*
X32685Y-14076D01*
X32676Y-14064D01*
X32674Y-14062D01*
X32673Y-14061D01*
X32299Y-13688D01*
X32314Y-13628D01*
X32315Y-13533D01*
X32299Y-13451D01*
X32267Y-13374D01*
X32221Y-13305D01*
X32162Y-13246D01*
X32093Y-13199D01*
X32016Y-13167D01*
X31934Y-13150D01*
X31851Y-13150D01*
X31775Y-13163D01*
X31631Y-13020D01*
X33524Y-13020D01*
X33419Y-13089D01*
X33190Y-13313D01*
X33009Y-13578D01*
X32882Y-13873D01*
X32815Y-14186D01*
X32811Y-14507D01*
X32869Y-14823D01*
X32987Y-15121D01*
X33161Y-15391D01*
X33383Y-15622D01*
X33647Y-15805D01*
X33941Y-15933D01*
X34254Y-16002D01*
X34575Y-16009D01*
X34891Y-15953D01*
X35190Y-15837D01*
X35461Y-15666D01*
X35693Y-15444D01*
X35799Y-15293D01*
X35799Y-17696D01*
X35731Y-17628D01*
X35701Y-17657D01*
X35688Y-17614D01*
X35587Y-17566D01*
X35477Y-17538D01*
X35365Y-17532D01*
X35253Y-17547D01*
X35146Y-17585D01*
X35092Y-17614D01*
X35061Y-17710D01*
X35355Y-18004D01*
X35390Y-18039D01*
X35461Y-18110D01*
X35390Y-18181D01*
X35355Y-18216D01*
X35061Y-18510D01*
X35092Y-18606D01*
X35193Y-18654D01*
X35303Y-18682D01*
X35415Y-18688D01*
X35527Y-18673D01*
X35634Y-18635D01*
X35688Y-18606D01*
X35701Y-18562D01*
X35719Y-18580D01*
X35731Y-18592D01*
X35799Y-18524D01*
X35799Y-20925D01*
X35799Y-20925D01*
G37*
G54D22*
X35799Y-20925D02*
X35723Y-20811D01*
X35719Y-20806D01*
X35497Y-20584D01*
X35231Y-20404D01*
X34935Y-20280D01*
X34621Y-20215D01*
X34300Y-20213D01*
X33985Y-20273D01*
X33688Y-20393D01*
X33419Y-20569D01*
X33190Y-20793D01*
X33009Y-21058D01*
X32882Y-21353D01*
X32865Y-21432D01*
X32865Y-19931D01*
X34231Y-18564D01*
X34241Y-18569D01*
X34333Y-18589D01*
X34427Y-18591D01*
X34520Y-18575D01*
X34607Y-18541D01*
X34687Y-18490D01*
X34755Y-18425D01*
X34809Y-18348D01*
X34839Y-18281D01*
X34865Y-18354D01*
X34894Y-18408D01*
X34990Y-18439D01*
X35319Y-18110D01*
X34990Y-17781D01*
X34894Y-17812D01*
X34846Y-17913D01*
X34839Y-17939D01*
X34816Y-17884D01*
X34764Y-17805D01*
X34697Y-17738D01*
X34619Y-17686D01*
X34533Y-17649D01*
X34440Y-17630D01*
X34346Y-17630D01*
X34254Y-17647D01*
X34167Y-17683D01*
X34088Y-17734D01*
X34021Y-17800D01*
X33967Y-17878D01*
X33930Y-17964D01*
X33911Y-18056D01*
X33909Y-18150D01*
X33926Y-18243D01*
X33935Y-18267D01*
X32513Y-19690D01*
X32508Y-19695D01*
X32488Y-19718D01*
X32480Y-19728D01*
X32463Y-19760D01*
X32462Y-19762D01*
X32461Y-19762D01*
X32461Y-19764D01*
X32449Y-19803D01*
X32445Y-19834D01*
X32445Y-19842D01*
X32445Y-19844D01*
X32445Y-19845D01*
X32445Y-21814D01*
X32322Y-21937D01*
X32322Y-21560D01*
X32316Y-21531D01*
X32315Y-21528D01*
X32315Y-20568D01*
X32315Y-19568D01*
X32299Y-19486D01*
X32267Y-19409D01*
X32221Y-19340D01*
X32162Y-19281D01*
X32093Y-19234D01*
X32016Y-19202D01*
X31934Y-19185D01*
X31851Y-19185D01*
X31769Y-19200D01*
X31692Y-19232D01*
X31622Y-19277D01*
X31563Y-19336D01*
X31516Y-19405D01*
X31483Y-19481D01*
X31466Y-19563D01*
X31464Y-19646D01*
X31480Y-19728D01*
X31510Y-19806D01*
X31556Y-19876D01*
X31613Y-19935D01*
X31682Y-19983D01*
X31758Y-20016D01*
X31840Y-20034D01*
X31923Y-20036D01*
X32005Y-20021D01*
X32083Y-19991D01*
X32153Y-19946D01*
X32214Y-19889D01*
X32261Y-19821D01*
X32295Y-19744D01*
X32314Y-19663D01*
X32315Y-19568D01*
X32315Y-20568D01*
X32299Y-20486D01*
X32267Y-20409D01*
X32221Y-20340D01*
X32162Y-20281D01*
X32093Y-20234D01*
X32016Y-20202D01*
X31934Y-20185D01*
X31851Y-20185D01*
X31769Y-20200D01*
X31692Y-20232D01*
X31622Y-20277D01*
X31563Y-20336D01*
X31516Y-20405D01*
X31483Y-20481D01*
X31466Y-20563D01*
X31464Y-20646D01*
X31480Y-20728D01*
X31510Y-20806D01*
X31556Y-20876D01*
X31613Y-20935D01*
X31682Y-20983D01*
X31758Y-21016D01*
X31840Y-21034D01*
X31923Y-21036D01*
X32005Y-21021D01*
X32083Y-20991D01*
X32153Y-20946D01*
X32214Y-20889D01*
X32261Y-20821D01*
X32295Y-20744D01*
X32314Y-20663D01*
X32315Y-20568D01*
X32315Y-21528D01*
X32305Y-21504D01*
X32289Y-21480D01*
X32268Y-21459D01*
X32244Y-21443D01*
X32217Y-21432D01*
X32188Y-21426D01*
X32159Y-21426D01*
X31608Y-21426D01*
X31579Y-21432D01*
X31552Y-21443D01*
X31528Y-21459D01*
X31507Y-21480D01*
X31491Y-21504D01*
X31480Y-21531D01*
X31474Y-21560D01*
X31474Y-21589D01*
X31474Y-22140D01*
X31480Y-22169D01*
X31491Y-22196D01*
X31507Y-22220D01*
X31528Y-22241D01*
X31552Y-22257D01*
X31579Y-22268D01*
X31608Y-22274D01*
X31637Y-22274D01*
X31985Y-22274D01*
X31970Y-22289D01*
X31323Y-22289D01*
X31323Y-21808D01*
X31307Y-21726D01*
X31275Y-21649D01*
X31229Y-21580D01*
X31170Y-21521D01*
X31143Y-21502D01*
X31143Y-19854D01*
X31127Y-19752D01*
X31092Y-19656D01*
X31070Y-19615D01*
X30979Y-19592D01*
X30689Y-19882D01*
X30979Y-20172D01*
X31070Y-20149D01*
X31113Y-20056D01*
X31138Y-19956D01*
X31143Y-19854D01*
X31143Y-21502D01*
X31101Y-21474D01*
X31024Y-21442D01*
X30942Y-21425D01*
X30908Y-21425D01*
X30908Y-20243D01*
X30618Y-19953D01*
X30328Y-20243D01*
X30351Y-20334D01*
X30444Y-20377D01*
X30544Y-20402D01*
X30646Y-20407D01*
X30748Y-20391D01*
X30844Y-20356D01*
X30885Y-20334D01*
X30908Y-20243D01*
X30908Y-21425D01*
X30859Y-21425D01*
X30783Y-21438D01*
X29828Y-20483D01*
X29828Y-20252D01*
X29881Y-20218D01*
X29942Y-20161D01*
X29989Y-20093D01*
X30023Y-20016D01*
X30042Y-19935D01*
X30043Y-19840D01*
X30028Y-19767D01*
X30152Y-19643D01*
X30123Y-19708D01*
X30098Y-19808D01*
X30093Y-19910D01*
X30109Y-20012D01*
X30144Y-20108D01*
X30166Y-20149D01*
X30257Y-20172D01*
X30512Y-19917D01*
X30547Y-19882D01*
X30618Y-19811D01*
X30653Y-19776D01*
X30908Y-19521D01*
X30885Y-19430D01*
X30792Y-19387D01*
X30692Y-19362D01*
X30590Y-19357D01*
X30488Y-19373D01*
X30392Y-19408D01*
X30385Y-19411D01*
X30461Y-19335D01*
X30462Y-19335D01*
X30462Y-19334D01*
X30463Y-19334D01*
X30468Y-19327D01*
X30488Y-19304D01*
X30489Y-19302D01*
X30508Y-19268D01*
X30508Y-19266D01*
X30520Y-19229D01*
X30520Y-19227D01*
X30525Y-19188D01*
X30525Y-19186D01*
X30525Y-19185D01*
X30525Y-18963D01*
X30557Y-18951D01*
X30620Y-18909D01*
X30674Y-18856D01*
X30716Y-18793D01*
X30745Y-18724D01*
X30760Y-18650D01*
X30760Y-18575D01*
X30746Y-18501D01*
X30718Y-18431D01*
X30677Y-18368D01*
X30624Y-18314D01*
X30562Y-18272D01*
X30492Y-18242D01*
X30419Y-18226D01*
X30343Y-18226D01*
X30337Y-18226D01*
X30295Y-18160D01*
X29865Y-18160D01*
X29865Y-18533D01*
X29875Y-18541D01*
X29870Y-18570D01*
X29870Y-18645D01*
X29884Y-18719D01*
X29912Y-18789D01*
X29953Y-18852D01*
X30006Y-18906D01*
X30068Y-18948D01*
X30105Y-18963D01*
X30105Y-19098D01*
X29765Y-19438D01*
X29765Y-18533D01*
X29765Y-18160D01*
X29765Y-18060D01*
X29765Y-17687D01*
X29689Y-17630D01*
X29597Y-17652D01*
X29511Y-17692D01*
X29434Y-17748D01*
X29370Y-17817D01*
X29320Y-17898D01*
X29287Y-17985D01*
X29335Y-18060D01*
X29765Y-18060D01*
X29765Y-18160D01*
X29335Y-18160D01*
X29287Y-18235D01*
X29320Y-18322D01*
X29370Y-18403D01*
X29434Y-18472D01*
X29511Y-18528D01*
X29597Y-18568D01*
X29689Y-18590D01*
X29765Y-18533D01*
X29765Y-19438D01*
X29732Y-19471D01*
X29662Y-19457D01*
X29579Y-19457D01*
X29497Y-19472D01*
X29420Y-19504D01*
X29350Y-19549D01*
X29291Y-19608D01*
X29244Y-19677D01*
X29211Y-19753D01*
X29194Y-19835D01*
X29192Y-19918D01*
X29208Y-20000D01*
X29238Y-20078D01*
X29284Y-20148D01*
X29341Y-20207D01*
X29408Y-20253D01*
X29408Y-20568D01*
X29408Y-20570D01*
X29412Y-20611D01*
X29419Y-20636D01*
X29423Y-20648D01*
X29423Y-20649D01*
X29424Y-20650D01*
X29442Y-20684D01*
X29443Y-20686D01*
X29457Y-20704D01*
X29467Y-20716D01*
X29469Y-20718D01*
X29470Y-20718D01*
X29474Y-20722D01*
X30487Y-21736D01*
X30474Y-21803D01*
X30472Y-21886D01*
X30488Y-21968D01*
X30518Y-22046D01*
X30564Y-22116D01*
X30621Y-22175D01*
X30690Y-22223D01*
X30766Y-22256D01*
X30848Y-22274D01*
X30931Y-22276D01*
X31013Y-22261D01*
X31091Y-22231D01*
X31161Y-22186D01*
X31222Y-22129D01*
X31269Y-22061D01*
X31303Y-21984D01*
X31322Y-21903D01*
X31323Y-21808D01*
X31323Y-22289D01*
X29089Y-22289D01*
X28665Y-21865D01*
X28680Y-21805D01*
X28681Y-21710D01*
X28665Y-21628D01*
X28633Y-21551D01*
X28587Y-21482D01*
X28528Y-21423D01*
X28459Y-21376D01*
X28382Y-21344D01*
X28300Y-21327D01*
X28281Y-21327D01*
X28217Y-21327D01*
X28181Y-21333D01*
X28181Y-19068D01*
X28165Y-18986D01*
X28133Y-18909D01*
X28087Y-18840D01*
X28046Y-18799D01*
X28046Y-18471D01*
X27756Y-18181D01*
X27466Y-18471D01*
X27489Y-18562D01*
X27582Y-18605D01*
X27682Y-18630D01*
X27784Y-18635D01*
X27886Y-18619D01*
X27982Y-18584D01*
X28023Y-18562D01*
X28046Y-18471D01*
X28046Y-18799D01*
X28028Y-18781D01*
X27959Y-18734D01*
X27882Y-18702D01*
X27800Y-18685D01*
X27717Y-18685D01*
X27635Y-18700D01*
X27558Y-18732D01*
X27488Y-18777D01*
X27429Y-18836D01*
X27382Y-18905D01*
X27349Y-18981D01*
X27332Y-19063D01*
X27330Y-19146D01*
X27346Y-19228D01*
X27376Y-19306D01*
X27422Y-19376D01*
X27479Y-19435D01*
X27548Y-19483D01*
X27624Y-19516D01*
X27706Y-19534D01*
X27789Y-19536D01*
X27871Y-19521D01*
X27949Y-19491D01*
X28019Y-19446D01*
X28080Y-19389D01*
X28127Y-19321D01*
X28161Y-19244D01*
X28180Y-19163D01*
X28181Y-19068D01*
X28181Y-21333D01*
X28135Y-21342D01*
X28058Y-21374D01*
X27988Y-21419D01*
X27929Y-21478D01*
X27882Y-21547D01*
X27849Y-21623D01*
X27832Y-21705D01*
X27830Y-21788D01*
X27846Y-21870D01*
X27876Y-21948D01*
X27922Y-22018D01*
X27979Y-22077D01*
X28048Y-22125D01*
X28124Y-22158D01*
X28206Y-22176D01*
X28289Y-22178D01*
X28370Y-22163D01*
X28371Y-22163D01*
X28852Y-22645D01*
X28853Y-22646D01*
X28854Y-22647D01*
X28860Y-22652D01*
X28884Y-22672D01*
X28886Y-22673D01*
X28920Y-22692D01*
X28922Y-22692D01*
X28959Y-22704D01*
X28961Y-22704D01*
X29000Y-22709D01*
X29002Y-22709D01*
X29003Y-22709D01*
X32055Y-22709D01*
X32057Y-22709D01*
X32095Y-22705D01*
X32098Y-22705D01*
X32123Y-22697D01*
X32135Y-22694D01*
X32136Y-22693D01*
X32137Y-22693D01*
X32171Y-22675D01*
X32173Y-22674D01*
X32191Y-22659D01*
X32203Y-22650D01*
X32203Y-22649D01*
X32205Y-22648D01*
X32205Y-22647D01*
X32209Y-22642D01*
X32801Y-22051D01*
X32802Y-22051D01*
X32802Y-22050D01*
X32803Y-22050D01*
X32808Y-22043D01*
X32818Y-22030D01*
X32819Y-22030D01*
X32869Y-22303D01*
X32987Y-22601D01*
X33161Y-22871D01*
X33383Y-23102D01*
X33524Y-23200D01*
X27681Y-23200D01*
X27681Y-21710D01*
X27665Y-21628D01*
X27633Y-21551D01*
X27587Y-21482D01*
X27528Y-21423D01*
X27459Y-21376D01*
X27382Y-21344D01*
X27300Y-21327D01*
X27217Y-21327D01*
X27135Y-21342D01*
X27058Y-21374D01*
X26988Y-21419D01*
X26929Y-21478D01*
X26882Y-21547D01*
X26849Y-21623D01*
X26832Y-21705D01*
X26830Y-21788D01*
X26846Y-21870D01*
X26876Y-21948D01*
X26922Y-22018D01*
X26979Y-22077D01*
X27048Y-22125D01*
X27124Y-22158D01*
X27206Y-22176D01*
X27289Y-22178D01*
X27371Y-22163D01*
X27449Y-22133D01*
X27519Y-22088D01*
X27580Y-22031D01*
X27627Y-21963D01*
X27661Y-21886D01*
X27680Y-21805D01*
X27681Y-21710D01*
X27681Y-23200D01*
X25828Y-23200D01*
X25828Y-22413D01*
X25812Y-22311D01*
X25777Y-22215D01*
X25755Y-22174D01*
X25664Y-22151D01*
X25593Y-22222D01*
X25593Y-22080D01*
X25570Y-21989D01*
X25477Y-21946D01*
X25377Y-21921D01*
X25275Y-21916D01*
X25173Y-21932D01*
X25077Y-21967D01*
X25036Y-21989D01*
X25013Y-22080D01*
X25303Y-22370D01*
X25593Y-22080D01*
X25593Y-22222D01*
X25374Y-22441D01*
X25664Y-22731D01*
X25755Y-22708D01*
X25798Y-22615D01*
X25823Y-22515D01*
X25828Y-22413D01*
X25828Y-23200D01*
X25593Y-23200D01*
X25593Y-22802D01*
X25303Y-22512D01*
X25232Y-22583D01*
X25232Y-22441D01*
X24942Y-22151D01*
X24851Y-22174D01*
X24808Y-22267D01*
X24783Y-22367D01*
X24778Y-22469D01*
X24794Y-22571D01*
X24829Y-22667D01*
X24851Y-22708D01*
X24942Y-22731D01*
X25232Y-22441D01*
X25232Y-22583D01*
X25013Y-22802D01*
X25036Y-22893D01*
X25129Y-22936D01*
X25229Y-22961D01*
X25331Y-22966D01*
X25433Y-22950D01*
X25529Y-22915D01*
X25570Y-22893D01*
X25593Y-22802D01*
X25593Y-23200D01*
X23253Y-23200D01*
X23253Y-20170D01*
X23253Y-19660D01*
X22668Y-19660D01*
X22621Y-19747D01*
X22640Y-19808D01*
X22688Y-19906D01*
X22755Y-19993D01*
X22837Y-20065D01*
X22932Y-20120D01*
X23035Y-20155D01*
X23143Y-20170D01*
X23253Y-20170D01*
X23253Y-23200D01*
X22185Y-23200D01*
X22271Y-23146D01*
X22503Y-22924D01*
X22688Y-22662D01*
X22819Y-22369D01*
X22890Y-22056D01*
X22895Y-21690D01*
X22833Y-21375D01*
X22711Y-21079D01*
X22572Y-20869D01*
X22572Y-17582D01*
X22556Y-17480D01*
X22521Y-17384D01*
X22499Y-17343D01*
X22408Y-17320D01*
X22337Y-17391D01*
X22337Y-17249D01*
X22314Y-17158D01*
X22221Y-17115D01*
X22121Y-17090D01*
X22019Y-17085D01*
X21917Y-17101D01*
X21821Y-17136D01*
X21780Y-17158D01*
X21757Y-17249D01*
X22047Y-17539D01*
X22337Y-17249D01*
X22337Y-17391D01*
X22118Y-17610D01*
X22408Y-17900D01*
X22499Y-17877D01*
X22542Y-17784D01*
X22567Y-17684D01*
X22572Y-17582D01*
X22572Y-20869D01*
X22533Y-20811D01*
X22472Y-20749D01*
X22472Y-18568D01*
X22456Y-18486D01*
X22424Y-18409D01*
X22378Y-18340D01*
X22337Y-18299D01*
X22337Y-17971D01*
X22047Y-17681D01*
X21976Y-17752D01*
X21976Y-17610D01*
X21686Y-17320D01*
X21595Y-17343D01*
X21552Y-17436D01*
X21527Y-17536D01*
X21522Y-17638D01*
X21538Y-17740D01*
X21573Y-17836D01*
X21595Y-17877D01*
X21686Y-17900D01*
X21976Y-17610D01*
X21976Y-17752D01*
X21757Y-17971D01*
X21780Y-18062D01*
X21873Y-18105D01*
X21973Y-18130D01*
X22075Y-18135D01*
X22177Y-18119D01*
X22273Y-18084D01*
X22314Y-18062D01*
X22337Y-17971D01*
X22337Y-18299D01*
X22319Y-18281D01*
X22250Y-18234D01*
X22173Y-18202D01*
X22091Y-18185D01*
X22008Y-18185D01*
X21926Y-18200D01*
X21849Y-18232D01*
X21779Y-18277D01*
X21720Y-18336D01*
X21673Y-18405D01*
X21640Y-18481D01*
X21623Y-18563D01*
X21621Y-18646D01*
X21637Y-18728D01*
X21667Y-18806D01*
X21713Y-18876D01*
X21770Y-18935D01*
X21839Y-18983D01*
X21915Y-19016D01*
X21997Y-19034D01*
X22080Y-19036D01*
X22162Y-19021D01*
X22240Y-18991D01*
X22310Y-18946D01*
X22371Y-18889D01*
X22418Y-18821D01*
X22452Y-18744D01*
X22471Y-18663D01*
X22472Y-18568D01*
X22472Y-20749D01*
X22307Y-20584D01*
X22041Y-20404D01*
X21745Y-20280D01*
X21431Y-20215D01*
X21194Y-20213D01*
X21194Y-18082D01*
X21178Y-17980D01*
X21143Y-17884D01*
X21121Y-17843D01*
X21093Y-17835D01*
X21093Y-17400D01*
X21093Y-17371D01*
X21093Y-16820D01*
X21087Y-16791D01*
X21076Y-16764D01*
X21060Y-16740D01*
X21039Y-16719D01*
X21015Y-16703D01*
X20988Y-16692D01*
X20959Y-16686D01*
X20930Y-16686D01*
X20379Y-16686D01*
X20350Y-16692D01*
X20323Y-16703D01*
X20299Y-16719D01*
X20278Y-16740D01*
X20262Y-16764D01*
X20251Y-16791D01*
X20245Y-16820D01*
X20245Y-16849D01*
X20245Y-17400D01*
X20251Y-17429D01*
X20262Y-17456D01*
X20278Y-17480D01*
X20299Y-17501D01*
X20323Y-17517D01*
X20350Y-17528D01*
X20379Y-17534D01*
X20408Y-17534D01*
X20959Y-17534D01*
X20988Y-17528D01*
X21015Y-17517D01*
X21039Y-17501D01*
X21060Y-17480D01*
X21076Y-17456D01*
X21087Y-17429D01*
X21093Y-17400D01*
X21093Y-17835D01*
X21030Y-17820D01*
X20959Y-17891D01*
X20959Y-17749D01*
X20936Y-17658D01*
X20843Y-17615D01*
X20743Y-17590D01*
X20641Y-17585D01*
X20539Y-17601D01*
X20443Y-17636D01*
X20402Y-17658D01*
X20379Y-17749D01*
X20669Y-18039D01*
X20959Y-17749D01*
X20959Y-17891D01*
X20740Y-18110D01*
X21030Y-18400D01*
X21121Y-18377D01*
X21164Y-18284D01*
X21189Y-18184D01*
X21194Y-18082D01*
X21194Y-20213D01*
X21110Y-20213D01*
X21094Y-20216D01*
X21094Y-19068D01*
X21078Y-18986D01*
X21046Y-18909D01*
X21000Y-18840D01*
X20959Y-18799D01*
X20959Y-18471D01*
X20669Y-18181D01*
X20598Y-18252D01*
X20598Y-18110D01*
X20308Y-17820D01*
X20217Y-17843D01*
X20174Y-17936D01*
X20149Y-18036D01*
X20144Y-18138D01*
X20160Y-18240D01*
X20195Y-18336D01*
X20217Y-18377D01*
X20308Y-18400D01*
X20598Y-18110D01*
X20598Y-18252D01*
X20379Y-18471D01*
X20402Y-18562D01*
X20495Y-18605D01*
X20595Y-18630D01*
X20697Y-18635D01*
X20799Y-18619D01*
X20895Y-18584D01*
X20936Y-18562D01*
X20959Y-18471D01*
X20959Y-18799D01*
X20941Y-18781D01*
X20872Y-18734D01*
X20795Y-18702D01*
X20713Y-18685D01*
X20630Y-18685D01*
X20548Y-18700D01*
X20471Y-18732D01*
X20401Y-18777D01*
X20342Y-18836D01*
X20295Y-18905D01*
X20262Y-18981D01*
X20245Y-19063D01*
X20243Y-19146D01*
X20259Y-19228D01*
X20289Y-19306D01*
X20335Y-19376D01*
X20392Y-19435D01*
X20461Y-19483D01*
X20537Y-19516D01*
X20619Y-19534D01*
X20702Y-19536D01*
X20784Y-19521D01*
X20862Y-19491D01*
X20932Y-19446D01*
X20993Y-19389D01*
X21040Y-19321D01*
X21074Y-19244D01*
X21093Y-19163D01*
X21094Y-19068D01*
X21094Y-20216D01*
X20795Y-20273D01*
X20498Y-20393D01*
X20229Y-20569D01*
X20000Y-20793D01*
X19910Y-20924D01*
X19910Y-15294D01*
X19972Y-15391D01*
X20194Y-15622D01*
X20458Y-15805D01*
X20752Y-15933D01*
X21065Y-16002D01*
X21386Y-16009D01*
X21702Y-15953D01*
X22001Y-15837D01*
X22272Y-15666D01*
X22504Y-15444D01*
X22689Y-15182D01*
X22820Y-14889D01*
X22891Y-14576D01*
X22896Y-14210D01*
X22834Y-13895D01*
X22712Y-13599D01*
X22534Y-13331D01*
X22308Y-13104D01*
X22183Y-13020D01*
X24257Y-13020D01*
X23938Y-13339D01*
X23937Y-13339D01*
X23850Y-13321D01*
X23762Y-13321D01*
X23675Y-13337D01*
X23594Y-13370D01*
X23520Y-13419D01*
X23457Y-13480D01*
X23407Y-13553D01*
X23372Y-13634D01*
X23354Y-13720D01*
X23352Y-13809D01*
X23368Y-13896D01*
X23401Y-13978D01*
X23449Y-14052D01*
X23510Y-14115D01*
X23582Y-14166D01*
X23663Y-14201D01*
X23749Y-14220D01*
X23838Y-14222D01*
X23924Y-14207D01*
X24007Y-14175D01*
X24081Y-14127D01*
X24145Y-14067D01*
X24196Y-13994D01*
X24232Y-13914D01*
X24252Y-13828D01*
X24253Y-13727D01*
X24236Y-13640D01*
X24234Y-13636D01*
X24550Y-13320D01*
X26810Y-13320D01*
X26951Y-13461D01*
X26938Y-13528D01*
X26936Y-13611D01*
X26952Y-13693D01*
X26982Y-13771D01*
X27028Y-13841D01*
X27051Y-13865D01*
X26636Y-13865D01*
X26400Y-13629D01*
X26396Y-13624D01*
X26394Y-13623D01*
X26373Y-13604D01*
X26365Y-13598D01*
X26363Y-13596D01*
X26331Y-13579D01*
X26329Y-13578D01*
X26328Y-13577D01*
X26327Y-13577D01*
X26288Y-13565D01*
X26257Y-13561D01*
X26252Y-13561D01*
X26252Y-13456D01*
X26246Y-13427D01*
X26235Y-13400D01*
X26219Y-13376D01*
X26198Y-13355D01*
X26174Y-13339D01*
X26147Y-13328D01*
X26118Y-13322D01*
X26089Y-13322D01*
X25488Y-13322D01*
X25459Y-13328D01*
X25432Y-13339D01*
X25408Y-13355D01*
X25387Y-13376D01*
X25371Y-13400D01*
X25360Y-13427D01*
X25354Y-13456D01*
X25354Y-13485D01*
X25354Y-14086D01*
X25360Y-14115D01*
X25371Y-14142D01*
X25387Y-14166D01*
X25408Y-14187D01*
X25432Y-14203D01*
X25459Y-14214D01*
X25488Y-14220D01*
X25517Y-14220D01*
X26118Y-14220D01*
X26147Y-14214D01*
X26174Y-14203D01*
X26198Y-14187D01*
X26219Y-14166D01*
X26235Y-14142D01*
X26246Y-14115D01*
X26252Y-14086D01*
X26252Y-14073D01*
X26399Y-14221D01*
X26400Y-14222D01*
X26401Y-14223D01*
X26407Y-14228D01*
X26431Y-14248D01*
X26433Y-14249D01*
X26467Y-14268D01*
X26469Y-14268D01*
X26506Y-14280D01*
X26508Y-14280D01*
X26547Y-14285D01*
X26550Y-14285D01*
X27051Y-14285D01*
X27035Y-14301D01*
X26988Y-14370D01*
X26955Y-14446D01*
X26938Y-14528D01*
X26936Y-14611D01*
X26952Y-14693D01*
X26982Y-14771D01*
X27028Y-14841D01*
X27085Y-14900D01*
X27154Y-14948D01*
X27230Y-14981D01*
X27312Y-14999D01*
X27395Y-15001D01*
X27477Y-14986D01*
X27555Y-14956D01*
X27625Y-14911D01*
X27686Y-14854D01*
X27733Y-14786D01*
X27767Y-14709D01*
X27786Y-14628D01*
X27787Y-14533D01*
X27772Y-14460D01*
X28270Y-13962D01*
X28313Y-13981D01*
X28395Y-13999D01*
X28478Y-14001D01*
X28560Y-13986D01*
X28638Y-13956D01*
X28708Y-13911D01*
X28769Y-13854D01*
X28816Y-13786D01*
X28850Y-13709D01*
X28869Y-13628D01*
X28870Y-13533D01*
X28854Y-13451D01*
X28822Y-13374D01*
X28776Y-13305D01*
X28720Y-13249D01*
X29253Y-13249D01*
X29201Y-13301D01*
X29154Y-13370D01*
X29121Y-13446D01*
X29104Y-13528D01*
X29102Y-13611D01*
X29118Y-13693D01*
X29148Y-13771D01*
X29194Y-13841D01*
X29251Y-13900D01*
X29320Y-13948D01*
X29396Y-13981D01*
X29478Y-13999D01*
X29561Y-14001D01*
X29643Y-13986D01*
X29721Y-13956D01*
X29791Y-13911D01*
X29843Y-13862D01*
X29828Y-13891D01*
X29827Y-13893D01*
X29826Y-13893D01*
X29826Y-13895D01*
X29814Y-13934D01*
X29810Y-13965D01*
X29810Y-13973D01*
X29810Y-13975D01*
X29810Y-13976D01*
X29810Y-14256D01*
X29800Y-14246D01*
X29731Y-14199D01*
X29654Y-14167D01*
X29572Y-14150D01*
X29489Y-14150D01*
X29407Y-14165D01*
X29330Y-14197D01*
X29260Y-14242D01*
X29201Y-14301D01*
X29154Y-14370D01*
X29121Y-14446D01*
X29104Y-14528D01*
X29102Y-14611D01*
X29115Y-14681D01*
X28870Y-14926D01*
X28870Y-14533D01*
X28854Y-14451D01*
X28822Y-14374D01*
X28776Y-14305D01*
X28717Y-14246D01*
X28648Y-14199D01*
X28571Y-14167D01*
X28489Y-14150D01*
X28406Y-14150D01*
X28324Y-14165D01*
X28247Y-14197D01*
X28177Y-14242D01*
X28118Y-14301D01*
X28071Y-14370D01*
X28038Y-14446D01*
X28021Y-14528D01*
X28019Y-14611D01*
X28035Y-14693D01*
X28065Y-14771D01*
X28111Y-14841D01*
X28168Y-14900D01*
X28237Y-14948D01*
X28313Y-14981D01*
X28395Y-14999D01*
X28478Y-15001D01*
X28560Y-14986D01*
X28638Y-14956D01*
X28708Y-14911D01*
X28769Y-14854D01*
X28816Y-14786D01*
X28850Y-14709D01*
X28869Y-14628D01*
X28870Y-14533D01*
X28870Y-14926D01*
X28456Y-15341D01*
X27266Y-15341D01*
X27264Y-15341D01*
X27223Y-15345D01*
X27197Y-15352D01*
X27186Y-15356D01*
X27184Y-15356D01*
X27184Y-15357D01*
X27148Y-15376D01*
X27124Y-15395D01*
X27117Y-15401D01*
X27116Y-15402D01*
X27115Y-15403D01*
X26754Y-15764D01*
X26749Y-15769D01*
X26729Y-15792D01*
X26721Y-15802D01*
X26704Y-15834D01*
X26703Y-15836D01*
X26702Y-15836D01*
X26702Y-15838D01*
X26690Y-15877D01*
X26686Y-15908D01*
X26686Y-15916D01*
X26686Y-15918D01*
X26686Y-15919D01*
X26686Y-16219D01*
X26667Y-16207D01*
X26584Y-16171D01*
X26496Y-16153D01*
X26406Y-16151D01*
X26141Y-16151D01*
X26013Y-16023D01*
X26013Y-15171D01*
X26081Y-15127D01*
X26145Y-15067D01*
X26196Y-14994D01*
X26232Y-14914D01*
X26252Y-14828D01*
X26253Y-14727D01*
X26236Y-14640D01*
X26202Y-14559D01*
X26153Y-14485D01*
X26091Y-14423D01*
X26018Y-14373D01*
X25937Y-14339D01*
X25850Y-14321D01*
X25762Y-14321D01*
X25675Y-14337D01*
X25594Y-14370D01*
X25520Y-14419D01*
X25457Y-14480D01*
X25407Y-14553D01*
X25372Y-14634D01*
X25354Y-14720D01*
X25352Y-14809D01*
X25368Y-14896D01*
X25401Y-14978D01*
X25449Y-15052D01*
X25510Y-15115D01*
X25582Y-15166D01*
X25593Y-15170D01*
X25593Y-16108D01*
X25593Y-16110D01*
X25597Y-16151D01*
X25604Y-16176D01*
X25608Y-16188D01*
X25608Y-16189D01*
X25609Y-16190D01*
X25627Y-16224D01*
X25628Y-16226D01*
X25642Y-16244D01*
X25652Y-16256D01*
X25654Y-16258D01*
X25655Y-16258D01*
X25659Y-16262D01*
X25768Y-16372D01*
X25756Y-16391D01*
X25752Y-16400D01*
X25253Y-16400D01*
X25253Y-14727D01*
X25253Y-13727D01*
X25236Y-13640D01*
X25202Y-13559D01*
X25153Y-13485D01*
X25091Y-13423D01*
X25018Y-13373D01*
X24937Y-13339D01*
X24850Y-13321D01*
X24762Y-13321D01*
X24675Y-13337D01*
X24594Y-13370D01*
X24520Y-13419D01*
X24457Y-13480D01*
X24407Y-13553D01*
X24372Y-13634D01*
X24354Y-13720D01*
X24352Y-13809D01*
X24368Y-13896D01*
X24401Y-13978D01*
X24449Y-14052D01*
X24510Y-14115D01*
X24582Y-14166D01*
X24663Y-14201D01*
X24749Y-14220D01*
X24838Y-14222D01*
X24924Y-14207D01*
X25007Y-14175D01*
X25081Y-14127D01*
X25145Y-14067D01*
X25196Y-13994D01*
X25232Y-13914D01*
X25252Y-13828D01*
X25253Y-13727D01*
X25253Y-14727D01*
X25236Y-14640D01*
X25202Y-14559D01*
X25153Y-14485D01*
X25091Y-14423D01*
X25018Y-14373D01*
X24937Y-14339D01*
X24850Y-14321D01*
X24762Y-14321D01*
X24675Y-14337D01*
X24594Y-14370D01*
X24520Y-14419D01*
X24457Y-14480D01*
X24407Y-14553D01*
X24372Y-14634D01*
X24354Y-14720D01*
X24352Y-14809D01*
X24352Y-14744D01*
X24336Y-14638D01*
X24300Y-14537D01*
X24275Y-14490D01*
X24181Y-14463D01*
X24111Y-14533D01*
X24111Y-14393D01*
X24084Y-14299D01*
X23987Y-14253D01*
X23883Y-14227D01*
X23776Y-14222D01*
X23670Y-14238D01*
X23569Y-14274D01*
X23522Y-14299D01*
X23495Y-14393D01*
X23803Y-14700D01*
X24111Y-14393D01*
X24111Y-14533D01*
X23874Y-14771D01*
X24181Y-15079D01*
X24275Y-15052D01*
X24321Y-14955D01*
X24347Y-14851D01*
X24352Y-14744D01*
X24352Y-14809D01*
X24368Y-14896D01*
X24401Y-14978D01*
X24449Y-15052D01*
X24510Y-15115D01*
X24582Y-15166D01*
X24663Y-15201D01*
X24749Y-15220D01*
X24838Y-15222D01*
X24924Y-15207D01*
X25007Y-15175D01*
X25081Y-15127D01*
X25145Y-15067D01*
X25196Y-14994D01*
X25232Y-14914D01*
X25252Y-14828D01*
X25253Y-14727D01*
X25253Y-16400D01*
X25026Y-16400D01*
X25024Y-16400D01*
X24983Y-16404D01*
X24961Y-16410D01*
X24946Y-16415D01*
X24944Y-16415D01*
X24944Y-16416D01*
X24908Y-16435D01*
X24884Y-16454D01*
X24877Y-16460D01*
X24876Y-16461D01*
X24875Y-16462D01*
X24161Y-17176D01*
X24156Y-17181D01*
X24136Y-17204D01*
X24128Y-17214D01*
X24111Y-17246D01*
X24111Y-15149D01*
X23803Y-14842D01*
X23732Y-14912D01*
X23732Y-14771D01*
X23425Y-14463D01*
X23331Y-14490D01*
X23285Y-14587D01*
X23259Y-14691D01*
X23254Y-14798D01*
X23270Y-14904D01*
X23306Y-15005D01*
X23331Y-15052D01*
X23425Y-15079D01*
X23732Y-14771D01*
X23732Y-14912D01*
X23495Y-15149D01*
X23522Y-15243D01*
X23619Y-15289D01*
X23723Y-15315D01*
X23830Y-15320D01*
X23936Y-15304D01*
X24037Y-15268D01*
X24084Y-15243D01*
X24111Y-15149D01*
X24111Y-17246D01*
X24110Y-17248D01*
X24109Y-17248D01*
X24109Y-17250D01*
X24097Y-17289D01*
X24093Y-17320D01*
X24093Y-17328D01*
X24093Y-17330D01*
X24093Y-17331D01*
X24093Y-22070D01*
X24035Y-22108D01*
X23985Y-22158D01*
X23985Y-19747D01*
X23985Y-19473D01*
X23966Y-19412D01*
X23918Y-19314D01*
X23851Y-19227D01*
X23769Y-19155D01*
X23674Y-19100D01*
X23571Y-19065D01*
X23532Y-19059D01*
X23578Y-19051D01*
X23661Y-19016D01*
X23736Y-18967D01*
X23800Y-18903D01*
X23850Y-18829D01*
X23885Y-18746D01*
X23903Y-18658D01*
X23903Y-18568D01*
X23903Y-17658D01*
X23903Y-17568D01*
X23902Y-17562D01*
X23902Y-16935D01*
X23902Y-16906D01*
X23902Y-16285D01*
X23896Y-16256D01*
X23885Y-16229D01*
X23869Y-16205D01*
X23848Y-16184D01*
X23824Y-16168D01*
X23797Y-16157D01*
X23768Y-16151D01*
X23739Y-16151D01*
X22838Y-16151D01*
X22809Y-16157D01*
X22782Y-16168D01*
X22758Y-16184D01*
X22737Y-16205D01*
X22721Y-16229D01*
X22710Y-16256D01*
X22704Y-16285D01*
X22704Y-16314D01*
X22704Y-16935D01*
X22710Y-16964D01*
X22721Y-16991D01*
X22737Y-17015D01*
X22758Y-17036D01*
X22782Y-17052D01*
X22809Y-17063D01*
X22838Y-17069D01*
X22867Y-17069D01*
X23768Y-17069D01*
X23797Y-17063D01*
X23824Y-17052D01*
X23848Y-17036D01*
X23869Y-17015D01*
X23885Y-16991D01*
X23896Y-16964D01*
X23902Y-16935D01*
X23902Y-17562D01*
X23886Y-17480D01*
X23853Y-17397D01*
X23804Y-17322D01*
X23741Y-17257D01*
X23667Y-17207D01*
X23584Y-17171D01*
X23496Y-17153D01*
X23406Y-17151D01*
X23116Y-17152D01*
X23028Y-17169D01*
X22945Y-17204D01*
X22870Y-17253D01*
X22806Y-17317D01*
X22756Y-17391D01*
X22721Y-17474D01*
X22703Y-17562D01*
X22703Y-17652D01*
X22720Y-17740D01*
X22753Y-17823D01*
X22802Y-17898D01*
X22865Y-17963D01*
X22939Y-18013D01*
X23022Y-18049D01*
X23110Y-18067D01*
X23200Y-18069D01*
X23490Y-18068D01*
X23578Y-18051D01*
X23661Y-18016D01*
X23736Y-17967D01*
X23800Y-17903D01*
X23850Y-17829D01*
X23885Y-17746D01*
X23903Y-17658D01*
X23903Y-18568D01*
X23886Y-18480D01*
X23853Y-18397D01*
X23804Y-18322D01*
X23741Y-18257D01*
X23667Y-18207D01*
X23584Y-18171D01*
X23496Y-18153D01*
X23406Y-18151D01*
X23116Y-18152D01*
X23028Y-18169D01*
X22945Y-18204D01*
X22870Y-18253D01*
X22806Y-18317D01*
X22756Y-18391D01*
X22721Y-18474D01*
X22703Y-18562D01*
X22703Y-18652D01*
X22720Y-18740D01*
X22753Y-18823D01*
X22802Y-18898D01*
X22865Y-18963D01*
X22939Y-19013D01*
X23022Y-19049D01*
X23073Y-19059D01*
X23035Y-19065D01*
X22932Y-19100D01*
X22837Y-19155D01*
X22755Y-19227D01*
X22688Y-19314D01*
X22640Y-19412D01*
X22621Y-19473D01*
X22668Y-19560D01*
X23203Y-19560D01*
X23253Y-19560D01*
X23353Y-19560D01*
X23403Y-19560D01*
X23938Y-19560D01*
X23985Y-19473D01*
X23985Y-19747D01*
X23938Y-19660D01*
X23353Y-19660D01*
X23353Y-20170D01*
X23463Y-20170D01*
X23571Y-20155D01*
X23674Y-20120D01*
X23769Y-20065D01*
X23851Y-19993D01*
X23918Y-19906D01*
X23966Y-19808D01*
X23985Y-19747D01*
X23985Y-22158D01*
X23976Y-22167D01*
X23929Y-22236D01*
X23896Y-22312D01*
X23879Y-22394D01*
X23877Y-22477D01*
X23893Y-22559D01*
X23923Y-22637D01*
X23969Y-22707D01*
X24026Y-22766D01*
X24095Y-22814D01*
X24171Y-22847D01*
X24253Y-22865D01*
X24336Y-22867D01*
X24418Y-22852D01*
X24496Y-22822D01*
X24566Y-22777D01*
X24627Y-22720D01*
X24674Y-22652D01*
X24708Y-22575D01*
X24727Y-22494D01*
X24728Y-22399D01*
X24712Y-22317D01*
X24680Y-22240D01*
X24634Y-22171D01*
X24575Y-22112D01*
X24513Y-22069D01*
X24513Y-17417D01*
X25110Y-16820D01*
X25751Y-16820D01*
X25753Y-16823D01*
X25802Y-16898D01*
X25865Y-16963D01*
X25939Y-17013D01*
X26022Y-17049D01*
X26110Y-17067D01*
X26200Y-17069D01*
X26490Y-17068D01*
X26578Y-17051D01*
X26661Y-17016D01*
X26686Y-16999D01*
X26686Y-17204D01*
X26686Y-17207D01*
X26686Y-17219D01*
X26667Y-17207D01*
X26584Y-17171D01*
X26496Y-17153D01*
X26406Y-17151D01*
X26116Y-17152D01*
X26028Y-17169D01*
X25945Y-17204D01*
X25870Y-17253D01*
X25806Y-17317D01*
X25756Y-17391D01*
X25721Y-17474D01*
X25703Y-17562D01*
X25703Y-17652D01*
X25720Y-17740D01*
X25753Y-17823D01*
X25802Y-17898D01*
X25865Y-17963D01*
X25939Y-18013D01*
X26022Y-18049D01*
X26110Y-18067D01*
X26200Y-18069D01*
X26490Y-18068D01*
X26578Y-18051D01*
X26661Y-18016D01*
X26736Y-17967D01*
X26800Y-17903D01*
X26850Y-17829D01*
X26853Y-17820D01*
X26895Y-17820D01*
X26896Y-17820D01*
X26935Y-17816D01*
X26937Y-17816D01*
X26953Y-17810D01*
X26975Y-17805D01*
X26976Y-17804D01*
X27011Y-17786D01*
X27012Y-17785D01*
X27043Y-17760D01*
X27043Y-17759D01*
X27044Y-17759D01*
X27049Y-17752D01*
X27069Y-17729D01*
X27070Y-17727D01*
X27089Y-17693D01*
X27089Y-17692D01*
X27090Y-17691D01*
X27101Y-17654D01*
X27102Y-17652D01*
X27105Y-17621D01*
X27106Y-17613D01*
X27106Y-17611D01*
X27106Y-17610D01*
X27106Y-17227D01*
X27106Y-17224D01*
X27106Y-17207D01*
X27106Y-16005D01*
X27350Y-15761D01*
X28541Y-15761D01*
X28543Y-15761D01*
X28581Y-15757D01*
X28584Y-15757D01*
X28609Y-15749D01*
X28621Y-15746D01*
X28622Y-15745D01*
X28623Y-15745D01*
X28657Y-15727D01*
X28659Y-15726D01*
X28677Y-15711D01*
X28689Y-15702D01*
X28689Y-15701D01*
X28691Y-15700D01*
X28691Y-15699D01*
X28695Y-15694D01*
X29407Y-14983D01*
X29478Y-14999D01*
X29487Y-14999D01*
X28172Y-16315D01*
X28136Y-16319D01*
X28096Y-16330D01*
X28060Y-16349D01*
X28028Y-16375D01*
X28002Y-16406D01*
X27982Y-16442D01*
X27970Y-16481D01*
X27965Y-16522D01*
X27965Y-16524D01*
X27965Y-16525D01*
X27965Y-16532D01*
X27965Y-16534D01*
X27965Y-16535D01*
X27965Y-16686D01*
X27466Y-16686D01*
X27437Y-16692D01*
X27410Y-16703D01*
X27386Y-16719D01*
X27365Y-16740D01*
X27349Y-16764D01*
X27338Y-16791D01*
X27332Y-16820D01*
X27332Y-16849D01*
X27332Y-17400D01*
X27338Y-17429D01*
X27349Y-17456D01*
X27365Y-17480D01*
X27386Y-17501D01*
X27410Y-17517D01*
X27437Y-17528D01*
X27448Y-17530D01*
X26875Y-18104D01*
X26870Y-18109D01*
X26850Y-18132D01*
X26842Y-18142D01*
X26825Y-18174D01*
X26824Y-18176D01*
X26823Y-18176D01*
X26823Y-18178D01*
X26811Y-18217D01*
X26807Y-18248D01*
X26807Y-18256D01*
X26807Y-18258D01*
X26807Y-18259D01*
X26807Y-18326D01*
X26804Y-18322D01*
X26741Y-18257D01*
X26667Y-18207D01*
X26584Y-18171D01*
X26496Y-18153D01*
X26406Y-18151D01*
X26116Y-18152D01*
X26028Y-18169D01*
X25945Y-18204D01*
X25870Y-18253D01*
X25806Y-18317D01*
X25756Y-18391D01*
X25721Y-18474D01*
X25703Y-18562D01*
X25703Y-18652D01*
X25720Y-18740D01*
X25753Y-18823D01*
X25802Y-18898D01*
X25865Y-18963D01*
X25939Y-19013D01*
X26022Y-19049D01*
X26110Y-19067D01*
X26113Y-19067D01*
X26110Y-19074D01*
X26109Y-19074D01*
X26109Y-19076D01*
X26097Y-19115D01*
X26093Y-19146D01*
X26093Y-19154D01*
X26093Y-19156D01*
X26028Y-19169D01*
X25945Y-19204D01*
X25870Y-19253D01*
X25806Y-19317D01*
X25756Y-19391D01*
X25721Y-19474D01*
X25703Y-19562D01*
X25703Y-19652D01*
X25720Y-19740D01*
X25753Y-19823D01*
X25802Y-19898D01*
X25865Y-19963D01*
X25939Y-20013D01*
X26022Y-20049D01*
X26110Y-20067D01*
X26200Y-20069D01*
X26490Y-20068D01*
X26578Y-20051D01*
X26661Y-20016D01*
X26736Y-19967D01*
X26800Y-19903D01*
X26850Y-19829D01*
X26885Y-19746D01*
X26903Y-19658D01*
X26903Y-19568D01*
X26886Y-19480D01*
X26853Y-19397D01*
X26804Y-19322D01*
X26783Y-19301D01*
X26784Y-19300D01*
X27163Y-18922D01*
X27164Y-18922D01*
X27164Y-18921D01*
X27165Y-18921D01*
X27170Y-18914D01*
X27190Y-18891D01*
X27191Y-18889D01*
X27210Y-18855D01*
X27210Y-18853D01*
X27222Y-18816D01*
X27222Y-18814D01*
X27227Y-18775D01*
X27227Y-18773D01*
X27227Y-18772D01*
X27227Y-18345D01*
X27269Y-18302D01*
X27282Y-18336D01*
X27304Y-18377D01*
X27395Y-18400D01*
X27650Y-18145D01*
X27685Y-18110D01*
X27756Y-18039D01*
X27827Y-18110D01*
X27862Y-18145D01*
X28117Y-18400D01*
X28208Y-18377D01*
X28251Y-18284D01*
X28276Y-18184D01*
X28281Y-18082D01*
X28265Y-17980D01*
X28230Y-17884D01*
X28208Y-17843D01*
X28172Y-17834D01*
X28199Y-17808D01*
X28138Y-17747D01*
X28139Y-17747D01*
X28141Y-17747D01*
X28179Y-17743D01*
X28182Y-17743D01*
X28207Y-17735D01*
X28219Y-17732D01*
X28220Y-17731D01*
X28221Y-17731D01*
X28255Y-17713D01*
X28257Y-17712D01*
X28275Y-17697D01*
X28287Y-17688D01*
X28287Y-17687D01*
X28289Y-17686D01*
X28289Y-17685D01*
X28292Y-17681D01*
X28321Y-17653D01*
X28322Y-17653D01*
X28322Y-17652D01*
X28323Y-17652D01*
X28348Y-17622D01*
X28350Y-17620D01*
X28366Y-17588D01*
X28368Y-17586D01*
X28368Y-17585D01*
X28369Y-17584D01*
X28380Y-17547D01*
X28381Y-17545D01*
X28384Y-17514D01*
X28385Y-17506D01*
X28385Y-17504D01*
X28385Y-17503D01*
X28385Y-16693D01*
X28395Y-16686D01*
X28395Y-16685D01*
X28397Y-16684D01*
X28397Y-16683D01*
X28401Y-16678D01*
X30166Y-14914D01*
X30167Y-14914D01*
X30167Y-14913D01*
X30168Y-14913D01*
X30173Y-14906D01*
X30193Y-14883D01*
X30194Y-14881D01*
X30213Y-14847D01*
X30213Y-14845D01*
X30225Y-14808D01*
X30225Y-14806D01*
X30230Y-14767D01*
X30230Y-14765D01*
X30230Y-14764D01*
X30230Y-14062D01*
X30412Y-13879D01*
X30432Y-13900D01*
X30501Y-13948D01*
X30577Y-13981D01*
X30659Y-13999D01*
X30742Y-14001D01*
X30824Y-13986D01*
X30902Y-13956D01*
X30972Y-13911D01*
X31033Y-13854D01*
X31080Y-13786D01*
X31114Y-13709D01*
X31133Y-13628D01*
X31134Y-13533D01*
X31118Y-13451D01*
X31086Y-13374D01*
X31040Y-13305D01*
X30984Y-13249D01*
X31267Y-13249D01*
X31479Y-13461D01*
X31466Y-13528D01*
X31464Y-13611D01*
X31480Y-13693D01*
X31510Y-13771D01*
X31556Y-13841D01*
X31613Y-13900D01*
X31682Y-13948D01*
X31758Y-13981D01*
X31840Y-13999D01*
X31923Y-14001D01*
X32004Y-13986D01*
X32005Y-13986D01*
X32315Y-14296D01*
X32315Y-14533D01*
X32299Y-14451D01*
X32267Y-14374D01*
X32221Y-14305D01*
X32162Y-14246D01*
X32093Y-14199D01*
X32016Y-14167D01*
X31934Y-14150D01*
X31851Y-14150D01*
X31769Y-14165D01*
X31692Y-14197D01*
X31622Y-14242D01*
X31563Y-14301D01*
X31516Y-14370D01*
X31483Y-14446D01*
X31466Y-14528D01*
X31464Y-14611D01*
X31480Y-14693D01*
X31510Y-14771D01*
X31556Y-14841D01*
X31613Y-14900D01*
X31682Y-14948D01*
X31698Y-14955D01*
X31401Y-14955D01*
X31398Y-14955D01*
X31385Y-14955D01*
X31118Y-14688D01*
X31133Y-14628D01*
X31134Y-14533D01*
X31118Y-14451D01*
X31086Y-14374D01*
X31040Y-14305D01*
X30981Y-14246D01*
X30912Y-14199D01*
X30835Y-14167D01*
X30753Y-14150D01*
X30670Y-14150D01*
X30588Y-14165D01*
X30511Y-14197D01*
X30441Y-14242D01*
X30382Y-14301D01*
X30335Y-14370D01*
X30302Y-14446D01*
X30285Y-14528D01*
X30283Y-14611D01*
X30299Y-14693D01*
X30329Y-14771D01*
X30375Y-14841D01*
X30432Y-14900D01*
X30501Y-14948D01*
X30577Y-14981D01*
X30659Y-14999D01*
X30742Y-15001D01*
X30823Y-14986D01*
X30824Y-14986D01*
X31148Y-15311D01*
X31149Y-15312D01*
X31150Y-15313D01*
X31156Y-15318D01*
X31180Y-15338D01*
X31182Y-15339D01*
X31216Y-15358D01*
X31218Y-15358D01*
X31255Y-15370D01*
X31257Y-15370D01*
X31296Y-15375D01*
X31298Y-15375D01*
X31299Y-15375D01*
X31365Y-15375D01*
X31365Y-15498D01*
X31427Y-15560D01*
X31790Y-15560D01*
X31840Y-15560D01*
X31940Y-15560D01*
X31940Y-15660D01*
X31840Y-15660D01*
X31790Y-15660D01*
X31427Y-15660D01*
X31365Y-15722D01*
X31365Y-15909D01*
X31374Y-15957D01*
X31393Y-16002D01*
X31420Y-16043D01*
X31455Y-16078D01*
X31487Y-16100D01*
X31169Y-16419D01*
X31164Y-16424D01*
X31144Y-16447D01*
X31136Y-16457D01*
X31119Y-16489D01*
X31118Y-16491D01*
X31117Y-16491D01*
X31117Y-16493D01*
X31105Y-16529D01*
X31027Y-16451D01*
X31042Y-16391D01*
X31043Y-16296D01*
X31027Y-16214D01*
X30995Y-16137D01*
X30949Y-16068D01*
X30890Y-16009D01*
X30821Y-15962D01*
X30744Y-15930D01*
X30662Y-15913D01*
X30579Y-15913D01*
X30497Y-15928D01*
X30420Y-15960D01*
X30350Y-16005D01*
X30291Y-16064D01*
X30244Y-16133D01*
X30211Y-16209D01*
X30194Y-16291D01*
X30192Y-16374D01*
X30207Y-16452D01*
X30173Y-16486D01*
X30168Y-16491D01*
X30148Y-16514D01*
X30143Y-16520D01*
X30143Y-16310D01*
X30127Y-16208D01*
X30092Y-16112D01*
X30070Y-16071D01*
X29979Y-16048D01*
X29908Y-16119D01*
X29908Y-15977D01*
X29885Y-15886D01*
X29792Y-15843D01*
X29692Y-15818D01*
X29590Y-15813D01*
X29488Y-15829D01*
X29392Y-15864D01*
X29351Y-15886D01*
X29328Y-15977D01*
X29618Y-16267D01*
X29908Y-15977D01*
X29908Y-16119D01*
X29689Y-16338D01*
X29979Y-16628D01*
X30070Y-16605D01*
X30113Y-16512D01*
X30138Y-16412D01*
X30143Y-16310D01*
X30143Y-16520D01*
X30140Y-16524D01*
X30123Y-16556D01*
X30122Y-16558D01*
X30121Y-16558D01*
X30121Y-16560D01*
X30109Y-16599D01*
X30105Y-16630D01*
X30105Y-16638D01*
X30105Y-16640D01*
X30105Y-16641D01*
X30105Y-17256D01*
X30073Y-17269D01*
X30010Y-17311D01*
X29956Y-17364D01*
X29914Y-17427D01*
X29908Y-17441D01*
X29908Y-16699D01*
X29618Y-16409D01*
X29547Y-16480D01*
X29547Y-16338D01*
X29257Y-16048D01*
X29166Y-16071D01*
X29123Y-16164D01*
X29098Y-16264D01*
X29093Y-16366D01*
X29109Y-16468D01*
X29144Y-16564D01*
X29166Y-16605D01*
X29257Y-16628D01*
X29547Y-16338D01*
X29547Y-16480D01*
X29328Y-16699D01*
X29351Y-16790D01*
X29444Y-16833D01*
X29544Y-16858D01*
X29646Y-16863D01*
X29748Y-16847D01*
X29844Y-16812D01*
X29885Y-16790D01*
X29908Y-16699D01*
X29908Y-17441D01*
X29885Y-17496D01*
X29870Y-17570D01*
X29870Y-17645D01*
X29876Y-17678D01*
X29865Y-17687D01*
X29865Y-18060D01*
X30295Y-18060D01*
X30337Y-17994D01*
X30414Y-17994D01*
X30488Y-17979D01*
X30557Y-17951D01*
X30620Y-17909D01*
X30674Y-17856D01*
X30716Y-17793D01*
X30745Y-17724D01*
X30760Y-17650D01*
X30760Y-17575D01*
X30746Y-17501D01*
X30718Y-17431D01*
X30677Y-17368D01*
X30624Y-17314D01*
X30562Y-17272D01*
X30525Y-17256D01*
X30525Y-16752D01*
X30568Y-16762D01*
X30651Y-16764D01*
X30732Y-16749D01*
X30733Y-16749D01*
X31479Y-17496D01*
X31466Y-17563D01*
X31464Y-17646D01*
X31480Y-17728D01*
X31510Y-17806D01*
X31556Y-17876D01*
X31613Y-17935D01*
X31682Y-17983D01*
X31758Y-18016D01*
X31840Y-18034D01*
X31923Y-18036D01*
X32005Y-18021D01*
X32083Y-17991D01*
X32145Y-17951D01*
X32145Y-18058D01*
X32003Y-18199D01*
X31934Y-18185D01*
X31851Y-18185D01*
X31769Y-18200D01*
X31692Y-18232D01*
X31622Y-18277D01*
X31563Y-18336D01*
X31516Y-18405D01*
X31483Y-18481D01*
X31466Y-18563D01*
X31464Y-18646D01*
X31480Y-18728D01*
X31510Y-18806D01*
X31556Y-18876D01*
X31613Y-18935D01*
X31682Y-18983D01*
X31758Y-19016D01*
X31840Y-19034D01*
X31923Y-19036D01*
X32005Y-19021D01*
X32083Y-18991D01*
X32153Y-18946D01*
X32214Y-18889D01*
X32261Y-18821D01*
X32295Y-18744D01*
X32314Y-18663D01*
X32315Y-18568D01*
X32300Y-18495D01*
X32501Y-18295D01*
X32502Y-18295D01*
X32502Y-18294D01*
X32503Y-18294D01*
X32508Y-18287D01*
X32528Y-18264D01*
X32529Y-18262D01*
X32548Y-18228D01*
X32548Y-18226D01*
X32560Y-18189D01*
X32560Y-18187D01*
X32565Y-18148D01*
X32565Y-18146D01*
X32565Y-18145D01*
X32565Y-17260D01*
X32565Y-17258D01*
X32561Y-17220D01*
X32561Y-17217D01*
X32553Y-17191D01*
X32550Y-17180D01*
X32549Y-17178D01*
X32531Y-17144D01*
X32530Y-17142D01*
X32515Y-17124D01*
X32506Y-17112D01*
X32504Y-17110D01*
X32503Y-17109D01*
X32429Y-17035D01*
X32425Y-17031D01*
X32423Y-17030D01*
X32402Y-17011D01*
X32394Y-17005D01*
X32392Y-17003D01*
X32360Y-16986D01*
X32358Y-16985D01*
X32357Y-16984D01*
X32356Y-16984D01*
X32317Y-16972D01*
X32286Y-16968D01*
X32278Y-16968D01*
X32276Y-16968D01*
X32275Y-16968D01*
X32118Y-16968D01*
X32153Y-16946D01*
X32214Y-16889D01*
X32261Y-16821D01*
X32261Y-16820D01*
X32489Y-16820D01*
X32491Y-16820D01*
X32529Y-16816D01*
X32532Y-16816D01*
X32557Y-16808D01*
X32569Y-16805D01*
X32570Y-16804D01*
X32571Y-16804D01*
X32605Y-16786D01*
X32607Y-16785D01*
X32625Y-16770D01*
X32637Y-16761D01*
X32637Y-16760D01*
X32639Y-16759D01*
X32639Y-16758D01*
X32642Y-16754D01*
X32671Y-16726D01*
X32672Y-16726D01*
X32672Y-16725D01*
X32673Y-16725D01*
X32698Y-16695D01*
X32700Y-16693D01*
X32716Y-16661D01*
X32718Y-16659D01*
X32718Y-16658D01*
X32719Y-16657D01*
X32730Y-16620D01*
X32731Y-16618D01*
X32734Y-16587D01*
X32735Y-16579D01*
X32735Y-16577D01*
X32735Y-16576D01*
X32735Y-14212D01*
X32735Y-14210D01*
X32731Y-14172D01*
X32731Y-14169D01*
X32723Y-14143D01*
X32720Y-14132D01*
X32719Y-14130D01*
X32701Y-14096D01*
X32700Y-14094D01*
X32685Y-14076D01*
X32676Y-14064D01*
X32674Y-14062D01*
X32673Y-14061D01*
X32299Y-13688D01*
X32314Y-13628D01*
X32315Y-13533D01*
X32299Y-13451D01*
X32267Y-13374D01*
X32221Y-13305D01*
X32162Y-13246D01*
X32093Y-13199D01*
X32016Y-13167D01*
X31934Y-13150D01*
X31851Y-13150D01*
X31775Y-13163D01*
X31631Y-13020D01*
X33524Y-13020D01*
X33419Y-13089D01*
X33190Y-13313D01*
X33009Y-13578D01*
X32882Y-13873D01*
X32815Y-14186D01*
X32811Y-14507D01*
X32869Y-14823D01*
X32987Y-15121D01*
X33161Y-15391D01*
X33383Y-15622D01*
X33647Y-15805D01*
X33941Y-15933D01*
X34254Y-16002D01*
X34575Y-16009D01*
X34891Y-15953D01*
X35190Y-15837D01*
X35461Y-15666D01*
X35693Y-15444D01*
X35799Y-15293D01*
X35799Y-17696D01*
X35731Y-17628D01*
X35701Y-17657D01*
X35688Y-17614D01*
X35587Y-17566D01*
X35477Y-17538D01*
X35365Y-17532D01*
X35253Y-17547D01*
X35146Y-17585D01*
X35092Y-17614D01*
X35061Y-17710D01*
X35355Y-18004D01*
X35390Y-18039D01*
X35461Y-18110D01*
X35390Y-18181D01*
X35355Y-18216D01*
X35061Y-18510D01*
X35092Y-18606D01*
X35193Y-18654D01*
X35303Y-18682D01*
X35415Y-18688D01*
X35527Y-18673D01*
X35634Y-18635D01*
X35688Y-18606D01*
X35701Y-18562D01*
X35719Y-18580D01*
X35731Y-18592D01*
X35799Y-18524D01*
X35799Y-20925D01*
M02*
