M48
INCH,TZ
T1C0.024
T2C0.032
T3C0.040
T4C0.120
%
G90
G05
T1
X029815Y-018110
X030315Y-017610
X030315Y-018610
T2
X020669Y-017110
X020669Y-018110
X020669Y-019110
X022047Y-017610
X022047Y-018610
X023303Y-016610
X023303Y-017610
X023303Y-018610
X023303Y-019610
X024303Y-022441
X025303Y-022441
X026303Y-016610
X026303Y-017610
X026303Y-018610
X026303Y-019610
X027256Y-021752
X027362Y-013575
X027362Y-014575
X027756Y-017110
X027756Y-018110
X027756Y-019110
X028256Y-021752
X028445Y-013575
X028445Y-014575
X029528Y-013575
X029528Y-014575
X029618Y-016338
X029618Y-019882
X030618Y-016338
X030618Y-019882
X030709Y-013575
X030709Y-014575
X030898Y-021850
X031890Y-013575
X031890Y-014575
X031890Y-015610
X031890Y-016610
X031890Y-017610
X031890Y-018610
X031890Y-019610
X031890Y-020610
X031898Y-021850
X034390Y-018110
X035390Y-018110
T3
X023803Y-013771
X023803Y-014771
X024803Y-013771
X024803Y-014771
X025803Y-013771
X025803Y-014771
T4
X021259Y-021850
X021260Y-014370
X034449Y-014370
X034449Y-021850
T0
M30
