G04 (created by PCBNEW-RS274X (2012-jan-04)-stable) date Sun 01 Apr 2012 05:56:11 PM CEST*
G01*
G70*
G90*
%MOIN*%
G04 Gerber Fmt 3.4, Leading zero omitted, Abs format*
%FSLAX34Y34*%
G04 APERTURE LIST*
%ADD10C,0.008000*%
%ADD11C,0.007500*%
%ADD12C,0.015000*%
%ADD13R,0.055000X0.055000*%
%ADD14C,0.055000*%
%ADD15C,0.160000*%
%ADD16C,0.066000*%
%ADD17R,0.060000X0.060000*%
%ADD18C,0.060000*%
%ADD19R,0.090000X0.062000*%
%ADD20O,0.090000X0.062000*%
%ADD21O,0.059100X0.047200*%
G04 APERTURE END LIST*
G54D10*
X31423Y-17067D02*
X31442Y-17083D01*
X31461Y-17062D01*
X31442Y-17045D01*
X31423Y-17067D01*
X31461Y-17062D01*
X31309Y-17081D02*
X31080Y-17090D01*
X31061Y-17112D01*
X31080Y-17128D01*
X31309Y-17081D01*
X31061Y-17112D01*
X31461Y-17786D02*
X31270Y-17676D01*
X31461Y-17557D02*
X31061Y-17607D01*
X31061Y-17760D01*
X31080Y-17795D01*
X31099Y-17812D01*
X31137Y-17826D01*
X31194Y-17819D01*
X31232Y-17795D01*
X31251Y-17774D01*
X31270Y-17734D01*
X31270Y-17581D01*
X31461Y-17957D02*
X31194Y-17990D01*
X31061Y-18007D02*
X31080Y-17985D01*
X31099Y-18002D01*
X31080Y-18023D01*
X31061Y-18007D01*
X31099Y-18002D01*
X31442Y-18130D02*
X31461Y-18166D01*
X31461Y-18242D01*
X31442Y-18283D01*
X31404Y-18307D01*
X31385Y-18309D01*
X31347Y-18295D01*
X31328Y-18258D01*
X31328Y-18201D01*
X31309Y-18166D01*
X31270Y-18152D01*
X31251Y-18154D01*
X31213Y-18178D01*
X31194Y-18218D01*
X31194Y-18275D01*
X31213Y-18312D01*
X31442Y-18626D02*
X31461Y-18586D01*
X31461Y-18509D01*
X31442Y-18473D01*
X31404Y-18459D01*
X31251Y-18478D01*
X31213Y-18502D01*
X31194Y-18542D01*
X31194Y-18619D01*
X31213Y-18655D01*
X31251Y-18669D01*
X31289Y-18664D01*
X31328Y-18468D01*
X31423Y-19124D02*
X31442Y-19140D01*
X31461Y-19119D01*
X31442Y-19102D01*
X31423Y-19124D01*
X31461Y-19119D01*
X31309Y-19138D02*
X31080Y-19147D01*
X31061Y-19169D01*
X31080Y-19185D01*
X31309Y-19138D01*
X31061Y-19169D01*
X28705Y-15813D02*
X28305Y-15863D01*
X28305Y-15958D01*
X28324Y-16013D01*
X28362Y-16047D01*
X28400Y-16061D01*
X28476Y-16070D01*
X28533Y-16063D01*
X28610Y-16035D01*
X28648Y-16011D01*
X28686Y-15968D01*
X28705Y-15908D01*
X28705Y-15813D01*
X28705Y-16270D02*
X28686Y-16234D01*
X28667Y-16218D01*
X28629Y-16203D01*
X28514Y-16218D01*
X28476Y-16241D01*
X28457Y-16263D01*
X28438Y-16303D01*
X28438Y-16361D01*
X28457Y-16397D01*
X28476Y-16413D01*
X28514Y-16428D01*
X28629Y-16413D01*
X28667Y-16390D01*
X28686Y-16368D01*
X28705Y-16328D01*
X28705Y-16270D01*
X28438Y-16608D02*
X28705Y-16575D01*
X28476Y-16603D02*
X28457Y-16625D01*
X28438Y-16665D01*
X28438Y-16723D01*
X28457Y-16759D01*
X28495Y-16773D01*
X28705Y-16747D01*
X28305Y-17006D02*
X28381Y-16958D01*
X28438Y-17103D02*
X28438Y-17255D01*
X28305Y-17177D02*
X28648Y-17134D01*
X28686Y-17148D01*
X28705Y-17184D01*
X28705Y-17222D01*
X28438Y-17637D02*
X28438Y-17789D01*
X28305Y-17711D02*
X28648Y-17668D01*
X28686Y-17682D01*
X28705Y-17718D01*
X28705Y-17756D01*
X28705Y-17890D02*
X28438Y-17923D01*
X28514Y-17914D02*
X28476Y-17937D01*
X28457Y-17959D01*
X28438Y-17999D01*
X28438Y-18038D01*
X28438Y-18133D02*
X28705Y-18195D01*
X28438Y-18324D02*
X28705Y-18195D01*
X28800Y-18145D01*
X28819Y-18123D01*
X28838Y-18083D01*
X28553Y-18767D02*
X28553Y-19072D01*
X28705Y-19548D02*
X28305Y-19598D01*
X28305Y-19693D01*
X28324Y-19748D01*
X28362Y-19782D01*
X28400Y-19796D01*
X28476Y-19805D01*
X28533Y-19798D01*
X28610Y-19770D01*
X28648Y-19746D01*
X28686Y-19703D01*
X28705Y-19643D01*
X28705Y-19548D01*
X28305Y-20074D02*
X28305Y-20151D01*
X28324Y-20186D01*
X28362Y-20220D01*
X28438Y-20229D01*
X28572Y-20212D01*
X28648Y-20184D01*
X28686Y-20141D01*
X28705Y-20101D01*
X28705Y-20024D01*
X28686Y-19988D01*
X28648Y-19955D01*
X28572Y-19945D01*
X28438Y-19962D01*
X28362Y-19991D01*
X28324Y-20033D01*
X28305Y-20074D01*
X28667Y-20372D02*
X28686Y-20388D01*
X28705Y-20367D01*
X28686Y-20350D01*
X28667Y-20372D01*
X28705Y-20367D01*
X28553Y-20386D02*
X28324Y-20395D01*
X28305Y-20417D01*
X28324Y-20433D01*
X28553Y-20386D01*
X28305Y-20417D01*
G54D11*
X23974Y-16183D02*
X23974Y-16354D01*
X24374Y-16218D02*
X23974Y-16268D01*
X24374Y-16447D02*
X24355Y-16421D01*
X24336Y-16409D01*
X24298Y-16399D01*
X24183Y-16414D01*
X24145Y-16432D01*
X24126Y-16450D01*
X24107Y-16480D01*
X24107Y-16523D01*
X24126Y-16550D01*
X24145Y-16561D01*
X24183Y-16571D01*
X24298Y-16556D01*
X24336Y-16538D01*
X24355Y-16521D01*
X24374Y-16490D01*
X24374Y-16447D01*
X24107Y-16895D02*
X24107Y-17009D01*
X24374Y-16904D02*
X24031Y-16947D01*
X23993Y-16966D01*
X23974Y-16997D01*
X23974Y-17026D01*
X24374Y-17075D02*
X24107Y-17108D01*
X23974Y-17125D02*
X23993Y-17108D01*
X24012Y-17120D01*
X23993Y-17137D01*
X23974Y-17125D01*
X24012Y-17120D01*
X24107Y-17251D02*
X24374Y-17218D01*
X24145Y-17246D02*
X24126Y-17264D01*
X24107Y-17294D01*
X24107Y-17337D01*
X24126Y-17364D01*
X24164Y-17373D01*
X24374Y-17347D01*
X24374Y-17618D02*
X23974Y-17668D01*
X24355Y-17620D02*
X24374Y-17589D01*
X24374Y-17532D01*
X24355Y-17506D01*
X24336Y-17494D01*
X24298Y-17484D01*
X24183Y-17499D01*
X24145Y-17517D01*
X24126Y-17535D01*
X24107Y-17565D01*
X24107Y-17622D01*
X24126Y-17649D01*
X24107Y-17994D02*
X24374Y-18032D01*
X24107Y-18137D02*
X24374Y-18032D01*
X24469Y-17992D01*
X24488Y-17974D01*
X24507Y-17944D01*
X24374Y-18261D02*
X24355Y-18235D01*
X24336Y-18223D01*
X24298Y-18213D01*
X24183Y-18228D01*
X24145Y-18246D01*
X24126Y-18264D01*
X24107Y-18294D01*
X24107Y-18337D01*
X24126Y-18364D01*
X24145Y-18375D01*
X24183Y-18385D01*
X24298Y-18370D01*
X24336Y-18352D01*
X24355Y-18335D01*
X24374Y-18304D01*
X24374Y-18261D01*
X24107Y-18651D02*
X24374Y-18618D01*
X24107Y-18522D02*
X24317Y-18496D01*
X24355Y-18506D01*
X24374Y-18532D01*
X24374Y-18575D01*
X24355Y-18606D01*
X24336Y-18623D01*
X24374Y-18760D02*
X24107Y-18793D01*
X24183Y-18784D02*
X24145Y-18803D01*
X24126Y-18820D01*
X24107Y-18851D01*
X24107Y-18879D01*
X24107Y-19337D02*
X24431Y-19297D01*
X24469Y-19278D01*
X24488Y-19260D01*
X24507Y-19230D01*
X24507Y-19187D01*
X24488Y-19160D01*
X24355Y-19306D02*
X24374Y-19275D01*
X24374Y-19218D01*
X24355Y-19192D01*
X24336Y-19180D01*
X24298Y-19170D01*
X24183Y-19185D01*
X24145Y-19203D01*
X24126Y-19221D01*
X24107Y-19251D01*
X24107Y-19308D01*
X24126Y-19335D01*
X24374Y-19446D02*
X24107Y-19479D01*
X23974Y-19496D02*
X23993Y-19479D01*
X24012Y-19491D01*
X23993Y-19508D01*
X23974Y-19496D01*
X24012Y-19491D01*
X24107Y-19580D02*
X24107Y-19694D01*
X24374Y-19589D02*
X24031Y-19632D01*
X23993Y-19651D01*
X23974Y-19682D01*
X23974Y-19711D01*
X24107Y-19751D02*
X24107Y-19865D01*
X23974Y-19810D02*
X24317Y-19767D01*
X24355Y-19777D01*
X24374Y-19803D01*
X24374Y-19832D01*
X25009Y-16553D02*
X24742Y-16586D01*
X24609Y-16603D02*
X24628Y-16586D01*
X24647Y-16598D01*
X24628Y-16615D01*
X24609Y-16603D01*
X24647Y-16598D01*
X24990Y-16684D02*
X25009Y-16711D01*
X25009Y-16768D01*
X24990Y-16798D01*
X24952Y-16818D01*
X24933Y-16820D01*
X24895Y-16810D01*
X24876Y-16784D01*
X24876Y-16741D01*
X24857Y-16715D01*
X24818Y-16706D01*
X24799Y-16708D01*
X24761Y-16727D01*
X24742Y-16758D01*
X24742Y-16801D01*
X24761Y-16827D01*
X25009Y-17168D02*
X24609Y-17218D01*
X25009Y-17297D02*
X24799Y-17323D01*
X24761Y-17314D01*
X24742Y-17287D01*
X24742Y-17244D01*
X24761Y-17214D01*
X24780Y-17196D01*
X25009Y-17568D02*
X24799Y-17594D01*
X24761Y-17585D01*
X24742Y-17558D01*
X24742Y-17501D01*
X24761Y-17470D01*
X24990Y-17570D02*
X25009Y-17539D01*
X25009Y-17468D01*
X24990Y-17441D01*
X24952Y-17432D01*
X24914Y-17437D01*
X24876Y-17455D01*
X24857Y-17487D01*
X24857Y-17558D01*
X24837Y-17589D01*
X24742Y-17743D02*
X25142Y-17693D01*
X24761Y-17741D02*
X24742Y-17772D01*
X24742Y-17829D01*
X24761Y-17856D01*
X24780Y-17867D01*
X24818Y-17877D01*
X24933Y-17862D01*
X24971Y-17844D01*
X24990Y-17827D01*
X25009Y-17796D01*
X25009Y-17739D01*
X24990Y-17712D01*
X24742Y-18014D02*
X25142Y-17964D01*
X24761Y-18012D02*
X24742Y-18043D01*
X24742Y-18100D01*
X24761Y-18127D01*
X24780Y-18138D01*
X24818Y-18148D01*
X24933Y-18133D01*
X24971Y-18115D01*
X24990Y-18098D01*
X25009Y-18067D01*
X25009Y-18010D01*
X24990Y-17983D01*
X25009Y-18252D02*
X24742Y-18285D01*
X24609Y-18302D02*
X24628Y-18285D01*
X24647Y-18297D01*
X24628Y-18314D01*
X24609Y-18302D01*
X24647Y-18297D01*
X24742Y-18428D02*
X25009Y-18395D01*
X24780Y-18423D02*
X24761Y-18441D01*
X24742Y-18471D01*
X24742Y-18514D01*
X24761Y-18541D01*
X24799Y-18550D01*
X25009Y-18524D01*
X24990Y-18783D02*
X25009Y-18752D01*
X25009Y-18695D01*
X24990Y-18668D01*
X24952Y-18659D01*
X24799Y-18678D01*
X24761Y-18697D01*
X24742Y-18728D01*
X24742Y-18785D01*
X24761Y-18812D01*
X24799Y-18821D01*
X24837Y-18816D01*
X24876Y-18668D01*
X24990Y-18911D02*
X25009Y-18938D01*
X25009Y-18995D01*
X24990Y-19025D01*
X24952Y-19045D01*
X24933Y-19047D01*
X24895Y-19037D01*
X24876Y-19011D01*
X24876Y-18968D01*
X24857Y-18942D01*
X24818Y-18933D01*
X24799Y-18935D01*
X24761Y-18954D01*
X24742Y-18985D01*
X24742Y-19028D01*
X24761Y-19054D01*
X24990Y-19154D02*
X25009Y-19181D01*
X25009Y-19238D01*
X24990Y-19268D01*
X24952Y-19288D01*
X24933Y-19290D01*
X24895Y-19280D01*
X24876Y-19254D01*
X24876Y-19211D01*
X24857Y-19185D01*
X24818Y-19176D01*
X24799Y-19178D01*
X24761Y-19197D01*
X24742Y-19228D01*
X24742Y-19271D01*
X24761Y-19297D01*
X24971Y-19414D02*
X24990Y-19426D01*
X25009Y-19409D01*
X24990Y-19397D01*
X24971Y-19414D01*
X25009Y-19409D01*
X25644Y-15174D02*
X25244Y-15224D01*
X25644Y-15346D01*
X25244Y-15396D01*
X25625Y-15605D02*
X25644Y-15574D01*
X25644Y-15517D01*
X25625Y-15490D01*
X25587Y-15481D01*
X25434Y-15500D01*
X25396Y-15519D01*
X25377Y-15550D01*
X25377Y-15607D01*
X25396Y-15634D01*
X25434Y-15643D01*
X25472Y-15638D01*
X25511Y-15490D01*
X25377Y-15750D02*
X25644Y-15788D01*
X25377Y-15893D01*
X25625Y-16091D02*
X25644Y-16060D01*
X25644Y-16003D01*
X25625Y-15976D01*
X25587Y-15967D01*
X25434Y-15986D01*
X25396Y-16005D01*
X25377Y-16036D01*
X25377Y-16093D01*
X25396Y-16120D01*
X25434Y-16129D01*
X25472Y-16124D01*
X25511Y-15976D01*
X25644Y-16231D02*
X25377Y-16264D01*
X25453Y-16255D02*
X25415Y-16274D01*
X25396Y-16291D01*
X25377Y-16322D01*
X25377Y-16350D01*
X25377Y-16637D02*
X25377Y-16751D01*
X25244Y-16696D02*
X25587Y-16653D01*
X25625Y-16663D01*
X25644Y-16689D01*
X25644Y-16718D01*
X25644Y-16860D02*
X25625Y-16834D01*
X25606Y-16822D01*
X25568Y-16812D01*
X25453Y-16827D01*
X25415Y-16845D01*
X25396Y-16863D01*
X25377Y-16893D01*
X25377Y-16936D01*
X25396Y-16963D01*
X25415Y-16974D01*
X25453Y-16984D01*
X25568Y-16969D01*
X25606Y-16951D01*
X25625Y-16934D01*
X25644Y-16903D01*
X25644Y-16860D01*
X25377Y-17308D02*
X25377Y-17422D01*
X25644Y-17317D02*
X25301Y-17360D01*
X25263Y-17379D01*
X25244Y-17410D01*
X25244Y-17439D01*
X25644Y-17488D02*
X25377Y-17521D01*
X25244Y-17538D02*
X25263Y-17521D01*
X25282Y-17533D01*
X25263Y-17550D01*
X25244Y-17538D01*
X25282Y-17533D01*
X25377Y-17664D02*
X25644Y-17631D01*
X25415Y-17659D02*
X25396Y-17677D01*
X25377Y-17707D01*
X25377Y-17750D01*
X25396Y-17777D01*
X25434Y-17786D01*
X25644Y-17760D01*
X25644Y-18031D02*
X25244Y-18081D01*
X25625Y-18033D02*
X25644Y-18002D01*
X25644Y-17945D01*
X25625Y-17919D01*
X25606Y-17907D01*
X25568Y-17897D01*
X25453Y-17912D01*
X25415Y-17930D01*
X25396Y-17948D01*
X25377Y-17978D01*
X25377Y-18035D01*
X25396Y-18062D01*
X25644Y-18402D02*
X25377Y-18435D01*
X25244Y-18452D02*
X25263Y-18435D01*
X25282Y-18447D01*
X25263Y-18464D01*
X25244Y-18452D01*
X25282Y-18447D01*
X25377Y-18536D02*
X25377Y-18650D01*
X25244Y-18595D02*
X25587Y-18552D01*
X25625Y-18562D01*
X25644Y-18588D01*
X25644Y-18617D01*
X25644Y-18945D02*
X25377Y-18978D01*
X25244Y-18995D02*
X25263Y-18978D01*
X25282Y-18990D01*
X25263Y-19007D01*
X25244Y-18995D01*
X25282Y-18990D01*
X25625Y-19076D02*
X25644Y-19103D01*
X25644Y-19160D01*
X25625Y-19190D01*
X25587Y-19210D01*
X25568Y-19212D01*
X25530Y-19202D01*
X25511Y-19176D01*
X25511Y-19133D01*
X25492Y-19107D01*
X25453Y-19098D01*
X25434Y-19100D01*
X25396Y-19119D01*
X25377Y-19150D01*
X25377Y-19193D01*
X25396Y-19219D01*
X25644Y-19560D02*
X25377Y-19593D01*
X25415Y-19588D02*
X25396Y-19606D01*
X25377Y-19636D01*
X25377Y-19679D01*
X25396Y-19706D01*
X25434Y-19715D01*
X25644Y-19689D01*
X25434Y-19715D02*
X25396Y-19734D01*
X25377Y-19765D01*
X25377Y-19808D01*
X25396Y-19834D01*
X25434Y-19844D01*
X25644Y-19818D01*
X25644Y-19960D02*
X25377Y-19993D01*
X25244Y-20010D02*
X25263Y-19993D01*
X25282Y-20005D01*
X25263Y-20022D01*
X25244Y-20010D01*
X25282Y-20005D01*
X25625Y-20091D02*
X25644Y-20118D01*
X25644Y-20175D01*
X25625Y-20205D01*
X25587Y-20225D01*
X25568Y-20227D01*
X25530Y-20217D01*
X25511Y-20191D01*
X25511Y-20148D01*
X25492Y-20122D01*
X25453Y-20113D01*
X25434Y-20115D01*
X25396Y-20134D01*
X25377Y-20165D01*
X25377Y-20208D01*
X25396Y-20234D01*
X25625Y-20463D02*
X25644Y-20432D01*
X25644Y-20375D01*
X25625Y-20348D01*
X25587Y-20339D01*
X25434Y-20358D01*
X25396Y-20377D01*
X25377Y-20408D01*
X25377Y-20465D01*
X25396Y-20492D01*
X25434Y-20501D01*
X25472Y-20496D01*
X25511Y-20348D01*
X25644Y-20603D02*
X25377Y-20636D01*
X25453Y-20627D02*
X25415Y-20646D01*
X25396Y-20663D01*
X25377Y-20694D01*
X25377Y-20722D01*
X25377Y-20794D02*
X25644Y-20832D01*
X25377Y-20937D02*
X25644Y-20832D01*
X25739Y-20792D01*
X25758Y-20774D01*
X25777Y-20744D01*
X25606Y-21023D02*
X25625Y-21035D01*
X25644Y-21018D01*
X25625Y-21006D01*
X25606Y-21023D01*
X25644Y-21018D01*
G54D10*
X35203Y-15561D02*
X34898Y-15561D01*
X35660Y-17360D02*
X35527Y-17760D01*
X35393Y-17360D01*
X35260Y-17760D02*
X35260Y-17493D01*
X35260Y-17360D02*
X35279Y-17379D01*
X35260Y-17398D01*
X35241Y-17379D01*
X35260Y-17360D01*
X35260Y-17398D01*
X35070Y-17493D02*
X35070Y-17760D01*
X35070Y-17531D02*
X35051Y-17512D01*
X35013Y-17493D01*
X34955Y-17493D01*
X34917Y-17512D01*
X34898Y-17550D01*
X34898Y-17760D01*
X35527Y-20792D02*
X35527Y-20392D01*
X35298Y-20792D01*
X35298Y-20392D01*
X34879Y-20754D02*
X34898Y-20773D01*
X34955Y-20792D01*
X34993Y-20792D01*
X35051Y-20773D01*
X35089Y-20735D01*
X35108Y-20697D01*
X35127Y-20620D01*
X35127Y-20563D01*
X35108Y-20487D01*
X35089Y-20449D01*
X35051Y-20411D01*
X34993Y-20392D01*
X34955Y-20392D01*
X34898Y-20411D01*
X34879Y-20430D01*
X35889Y-19768D02*
X35889Y-19368D01*
X35736Y-19368D01*
X35698Y-19387D01*
X35679Y-19406D01*
X35660Y-19444D01*
X35660Y-19501D01*
X35679Y-19539D01*
X35698Y-19558D01*
X35736Y-19577D01*
X35889Y-19577D01*
X35355Y-19558D02*
X35298Y-19577D01*
X35279Y-19596D01*
X35260Y-19635D01*
X35260Y-19692D01*
X35279Y-19730D01*
X35298Y-19749D01*
X35336Y-19768D01*
X35489Y-19768D01*
X35489Y-19368D01*
X35355Y-19368D01*
X35317Y-19387D01*
X35298Y-19406D01*
X35279Y-19444D01*
X35279Y-19482D01*
X35298Y-19520D01*
X35317Y-19539D01*
X35355Y-19558D01*
X35489Y-19558D01*
X35108Y-19406D02*
X35089Y-19387D01*
X35051Y-19368D01*
X34955Y-19368D01*
X34917Y-19387D01*
X34898Y-19406D01*
X34879Y-19444D01*
X34879Y-19482D01*
X34898Y-19539D01*
X35127Y-19768D01*
X34879Y-19768D01*
X35889Y-18784D02*
X35889Y-18384D01*
X35736Y-18384D01*
X35698Y-18403D01*
X35679Y-18422D01*
X35660Y-18460D01*
X35660Y-18517D01*
X35679Y-18555D01*
X35698Y-18574D01*
X35736Y-18593D01*
X35889Y-18593D01*
X35355Y-18574D02*
X35298Y-18593D01*
X35279Y-18612D01*
X35260Y-18651D01*
X35260Y-18708D01*
X35279Y-18746D01*
X35298Y-18765D01*
X35336Y-18784D01*
X35489Y-18784D01*
X35489Y-18384D01*
X35355Y-18384D01*
X35317Y-18403D01*
X35298Y-18422D01*
X35279Y-18460D01*
X35279Y-18498D01*
X35298Y-18536D01*
X35317Y-18555D01*
X35355Y-18574D01*
X35489Y-18574D01*
X35013Y-18384D02*
X34974Y-18384D01*
X34936Y-18403D01*
X34917Y-18422D01*
X34898Y-18460D01*
X34879Y-18536D01*
X34879Y-18632D01*
X34898Y-18708D01*
X34917Y-18746D01*
X34936Y-18765D01*
X34974Y-18784D01*
X35013Y-18784D01*
X35051Y-18765D01*
X35070Y-18746D01*
X35089Y-18708D01*
X35108Y-18632D01*
X35108Y-18536D01*
X35089Y-18460D01*
X35070Y-18422D01*
X35051Y-18403D01*
X35013Y-18384D01*
X35889Y-16776D02*
X35889Y-16376D01*
X35736Y-16376D01*
X35698Y-16395D01*
X35679Y-16414D01*
X35660Y-16452D01*
X35660Y-16509D01*
X35679Y-16547D01*
X35698Y-16566D01*
X35736Y-16585D01*
X35889Y-16585D01*
X35355Y-16566D02*
X35298Y-16585D01*
X35279Y-16604D01*
X35260Y-16643D01*
X35260Y-16700D01*
X35279Y-16738D01*
X35298Y-16757D01*
X35336Y-16776D01*
X35489Y-16776D01*
X35489Y-16376D01*
X35355Y-16376D01*
X35317Y-16395D01*
X35298Y-16414D01*
X35279Y-16452D01*
X35279Y-16490D01*
X35298Y-16528D01*
X35317Y-16547D01*
X35355Y-16566D01*
X35489Y-16566D01*
X34879Y-16776D02*
X35108Y-16776D01*
X34994Y-16776D02*
X34994Y-16376D01*
X35032Y-16433D01*
X35070Y-16471D01*
X35108Y-16490D01*
X32626Y-22997D02*
X32626Y-22597D01*
X32473Y-22597D01*
X32435Y-22616D01*
X32416Y-22635D01*
X32397Y-22673D01*
X32397Y-22730D01*
X32416Y-22768D01*
X32435Y-22787D01*
X32473Y-22806D01*
X32626Y-22806D01*
X31997Y-22959D02*
X32016Y-22978D01*
X32073Y-22997D01*
X32111Y-22997D01*
X32169Y-22978D01*
X32207Y-22940D01*
X32226Y-22902D01*
X32245Y-22825D01*
X32245Y-22768D01*
X32226Y-22692D01*
X32207Y-22654D01*
X32169Y-22616D01*
X32111Y-22597D01*
X32073Y-22597D01*
X32016Y-22616D01*
X31997Y-22635D01*
X31692Y-22787D02*
X31635Y-22806D01*
X31616Y-22825D01*
X31597Y-22864D01*
X31597Y-22921D01*
X31616Y-22959D01*
X31635Y-22978D01*
X31673Y-22997D01*
X31826Y-22997D01*
X31826Y-22597D01*
X31692Y-22597D01*
X31654Y-22616D01*
X31635Y-22635D01*
X31616Y-22673D01*
X31616Y-22711D01*
X31635Y-22749D01*
X31654Y-22768D01*
X31692Y-22787D01*
X31826Y-22787D01*
X31426Y-22959D02*
X31407Y-22978D01*
X31426Y-22997D01*
X31445Y-22978D01*
X31426Y-22959D01*
X31426Y-22997D01*
X31426Y-22749D02*
X31407Y-22768D01*
X31426Y-22787D01*
X31445Y-22768D01*
X31426Y-22749D01*
X31426Y-22787D01*
X30950Y-22978D02*
X30893Y-22997D01*
X30797Y-22997D01*
X30759Y-22978D01*
X30740Y-22959D01*
X30721Y-22921D01*
X30721Y-22883D01*
X30740Y-22845D01*
X30759Y-22825D01*
X30797Y-22806D01*
X30874Y-22787D01*
X30912Y-22768D01*
X30931Y-22749D01*
X30950Y-22711D01*
X30950Y-22673D01*
X30931Y-22635D01*
X30912Y-22616D01*
X30874Y-22597D01*
X30778Y-22597D01*
X30721Y-22616D01*
X30397Y-22978D02*
X30435Y-22997D01*
X30512Y-22997D01*
X30550Y-22978D01*
X30569Y-22940D01*
X30569Y-22787D01*
X30550Y-22749D01*
X30512Y-22730D01*
X30435Y-22730D01*
X30397Y-22749D01*
X30378Y-22787D01*
X30378Y-22825D01*
X30569Y-22864D01*
X30054Y-22978D02*
X30092Y-22997D01*
X30169Y-22997D01*
X30207Y-22978D01*
X30226Y-22940D01*
X30226Y-22787D01*
X30207Y-22749D01*
X30169Y-22730D01*
X30092Y-22730D01*
X30054Y-22749D01*
X30035Y-22787D01*
X30035Y-22825D01*
X30226Y-22864D01*
X29711Y-22978D02*
X29749Y-22997D01*
X29826Y-22997D01*
X29864Y-22978D01*
X29883Y-22940D01*
X29883Y-22787D01*
X29864Y-22749D01*
X29826Y-22730D01*
X29749Y-22730D01*
X29711Y-22749D01*
X29692Y-22787D01*
X29692Y-22825D01*
X29883Y-22864D01*
X29349Y-22997D02*
X29349Y-22597D01*
X29349Y-22978D02*
X29387Y-22997D01*
X29464Y-22997D01*
X29502Y-22978D01*
X29521Y-22959D01*
X29540Y-22921D01*
X29540Y-22806D01*
X29521Y-22768D01*
X29502Y-22749D01*
X29464Y-22730D01*
X29387Y-22730D01*
X29349Y-22749D01*
X29178Y-22978D02*
X29121Y-22997D01*
X29025Y-22997D01*
X28987Y-22978D01*
X28968Y-22959D01*
X28949Y-22921D01*
X28949Y-22883D01*
X28968Y-22845D01*
X28987Y-22825D01*
X29025Y-22806D01*
X29102Y-22787D01*
X29140Y-22768D01*
X29159Y-22749D01*
X29178Y-22711D01*
X29178Y-22673D01*
X29159Y-22635D01*
X29140Y-22616D01*
X29102Y-22597D01*
X29006Y-22597D01*
X28949Y-22616D01*
X28835Y-22730D02*
X28683Y-22730D01*
X28778Y-22597D02*
X28778Y-22940D01*
X28759Y-22978D01*
X28721Y-22997D01*
X28683Y-22997D01*
X28377Y-22730D02*
X28377Y-22997D01*
X28549Y-22730D02*
X28549Y-22940D01*
X28530Y-22978D01*
X28492Y-22997D01*
X28434Y-22997D01*
X28396Y-22978D01*
X28377Y-22959D01*
X28015Y-22997D02*
X28015Y-22597D01*
X28015Y-22978D02*
X28053Y-22997D01*
X28130Y-22997D01*
X28168Y-22978D01*
X28187Y-22959D01*
X28206Y-22921D01*
X28206Y-22806D01*
X28187Y-22768D01*
X28168Y-22749D01*
X28130Y-22730D01*
X28053Y-22730D01*
X28015Y-22749D01*
X27825Y-22997D02*
X27825Y-22730D01*
X27825Y-22597D02*
X27844Y-22616D01*
X27825Y-22635D01*
X27806Y-22616D01*
X27825Y-22597D01*
X27825Y-22635D01*
X27578Y-22997D02*
X27616Y-22978D01*
X27635Y-22959D01*
X27654Y-22921D01*
X27654Y-22806D01*
X27635Y-22768D01*
X27616Y-22749D01*
X27578Y-22730D01*
X27520Y-22730D01*
X27482Y-22749D01*
X27463Y-22768D01*
X27444Y-22806D01*
X27444Y-22921D01*
X27463Y-22959D01*
X27482Y-22978D01*
X27520Y-22997D01*
X27578Y-22997D01*
X27273Y-22959D02*
X27254Y-22978D01*
X27273Y-22997D01*
X27292Y-22978D01*
X27273Y-22959D01*
X27273Y-22997D01*
X26911Y-22978D02*
X26949Y-22997D01*
X27026Y-22997D01*
X27064Y-22978D01*
X27083Y-22959D01*
X27102Y-22921D01*
X27102Y-22806D01*
X27083Y-22768D01*
X27064Y-22749D01*
X27026Y-22730D01*
X26949Y-22730D01*
X26911Y-22749D01*
X26683Y-22997D02*
X26721Y-22978D01*
X26740Y-22959D01*
X26759Y-22921D01*
X26759Y-22806D01*
X26740Y-22768D01*
X26721Y-22749D01*
X26683Y-22730D01*
X26625Y-22730D01*
X26587Y-22749D01*
X26568Y-22768D01*
X26549Y-22806D01*
X26549Y-22921D01*
X26568Y-22959D01*
X26587Y-22978D01*
X26625Y-22997D01*
X26683Y-22997D01*
X26378Y-22997D02*
X26378Y-22730D01*
X26378Y-22768D02*
X26359Y-22749D01*
X26321Y-22730D01*
X26263Y-22730D01*
X26225Y-22749D01*
X26206Y-22787D01*
X26206Y-22997D01*
X26206Y-22787D02*
X26187Y-22749D01*
X26149Y-22730D01*
X26092Y-22730D01*
X26054Y-22749D01*
X26035Y-22787D01*
X26035Y-22997D01*
G54D12*
X38976Y-12795D02*
X19684Y-12795D01*
X38976Y-23425D02*
X38976Y-12795D01*
X19684Y-23425D02*
X38976Y-23425D01*
X19684Y-12795D02*
X19684Y-23425D01*
X34555Y-16110D02*
X33555Y-16110D01*
X34555Y-15110D02*
X34555Y-21110D01*
X34555Y-21110D02*
X33555Y-21110D01*
X33555Y-21110D02*
X33555Y-15110D01*
X33555Y-15110D02*
X34555Y-15110D01*
%LPC*%
G54D13*
X34055Y-15610D03*
G54D14*
X34055Y-16610D03*
X34055Y-17610D03*
X34055Y-18610D03*
X34055Y-19610D03*
X34055Y-20610D03*
G54D15*
X21260Y-14370D03*
G54D16*
X37795Y-17610D03*
X37795Y-18610D03*
G54D17*
X29421Y-17110D03*
G54D18*
X30421Y-17110D03*
X29421Y-18110D03*
X30421Y-18110D03*
X29421Y-19110D03*
X30421Y-19110D03*
G54D15*
X37401Y-21850D03*
X37401Y-14370D03*
X21259Y-21850D03*
G54D13*
X20669Y-17110D03*
G54D14*
X20669Y-18110D03*
X20669Y-19110D03*
G54D19*
X23303Y-16610D03*
G54D20*
X23303Y-17610D03*
X23303Y-18610D03*
X23303Y-19610D03*
X26303Y-19610D03*
X26303Y-18610D03*
X26303Y-17610D03*
X26303Y-16610D03*
G54D13*
X27756Y-17110D03*
G54D14*
X27756Y-18110D03*
X27756Y-19110D03*
G54D18*
X27394Y-15157D03*
X23394Y-15157D03*
X27394Y-14173D03*
X23394Y-14173D03*
X32315Y-15157D03*
X28315Y-15157D03*
X30740Y-20472D03*
X26740Y-20472D03*
X32315Y-14173D03*
X28315Y-14173D03*
G54D14*
X22047Y-18610D03*
X22047Y-17610D03*
G54D18*
X36417Y-16110D03*
X36417Y-20110D03*
G54D13*
X31799Y-21850D03*
G54D14*
X30799Y-21850D03*
X32783Y-16338D03*
X31783Y-16338D03*
X31783Y-19882D03*
X32783Y-19882D03*
X24303Y-21653D03*
X25303Y-21653D03*
G54D21*
X32677Y-17610D03*
X32677Y-18610D03*
X32177Y-18110D03*
M02*
