G04 (created by PCBNEW (2013-01-23 BZR 3920)-testing) date Thu 24 Jan 2013 03:16:15 AM CET*
%MOIN*%
G04 Gerber Fmt 3.4, Leading zero omitted, Abs format*
%FSLAX34Y34*%
G01*
G70*
G90*
G04 APERTURE LIST*
%ADD10C,3.14961e-06*%
%ADD11C,0.015*%
%ADD12R,0.06X0.06*%
%ADD13C,0.06*%
%ADD14C,0.16*%
%ADD15C,0.066*%
%ADD16R,0.09X0.062*%
%ADD17O,0.09X0.062*%
%ADD18R,0.055X0.055*%
%ADD19C,0.055*%
%ADD20O,0.0591X0.0472*%
%ADD21C,0.012*%
%ADD22C,0.01*%
G04 APERTURE END LIST*
G54D10*
G54D11*
X38976Y-12795D02*
X19684Y-12795D01*
X38976Y-23425D02*
X38976Y-12795D01*
X19684Y-23425D02*
X38976Y-23425D01*
X19684Y-12795D02*
X19684Y-23425D01*
G54D12*
X34055Y-15610D03*
G54D13*
X34055Y-16610D03*
X34055Y-17610D03*
X34055Y-18610D03*
X34055Y-19610D03*
X34055Y-20610D03*
G54D12*
X20669Y-17110D03*
G54D13*
X20669Y-18110D03*
X20669Y-19110D03*
G54D14*
X21260Y-14370D03*
G54D15*
X37795Y-17610D03*
X37795Y-18610D03*
G54D12*
X29421Y-17110D03*
G54D13*
X30421Y-17110D03*
X29421Y-18110D03*
X30421Y-18110D03*
X29421Y-19110D03*
X30421Y-19110D03*
G54D14*
X37401Y-21850D03*
X37401Y-14370D03*
X21259Y-21850D03*
G54D16*
X23303Y-16610D03*
G54D17*
X23303Y-17610D03*
X23303Y-18610D03*
X23303Y-19610D03*
X26303Y-19610D03*
X26303Y-18610D03*
X26303Y-17610D03*
X26303Y-16610D03*
G54D18*
X27756Y-17110D03*
G54D19*
X27756Y-18110D03*
X27756Y-19110D03*
G54D13*
X27394Y-15157D03*
X23394Y-15157D03*
X27394Y-14173D03*
X23394Y-14173D03*
X32315Y-15157D03*
X28315Y-15157D03*
X30740Y-20472D03*
X26740Y-20472D03*
X32315Y-14173D03*
X28315Y-14173D03*
G54D19*
X22047Y-18610D03*
X22047Y-17610D03*
G54D13*
X36417Y-16110D03*
X36417Y-20110D03*
G54D12*
X31799Y-21850D03*
G54D13*
X30799Y-21850D03*
G54D19*
X32783Y-16338D03*
X31783Y-16338D03*
X31783Y-19882D03*
X32783Y-19882D03*
X24303Y-21653D03*
X25303Y-21653D03*
G54D20*
X32677Y-17610D03*
X32677Y-18610D03*
X32177Y-18110D03*
G54D21*
X37795Y-17488D02*
X37795Y-17610D01*
X36417Y-16110D02*
X37795Y-17488D01*
X29821Y-16667D02*
X29421Y-16667D01*
X32315Y-14173D02*
X29821Y-16667D01*
X29421Y-17110D02*
X29421Y-16667D01*
X28898Y-14031D02*
X28898Y-17666D01*
X28489Y-13622D02*
X28898Y-14031D01*
X27945Y-13622D02*
X28489Y-13622D01*
X27394Y-14173D02*
X27945Y-13622D01*
X28977Y-17666D02*
X29421Y-18110D01*
X28898Y-17666D02*
X28977Y-17666D01*
X32677Y-17610D02*
X34055Y-17610D01*
X32783Y-17504D02*
X32677Y-17610D01*
X32783Y-16338D02*
X32783Y-17504D01*
X27756Y-20461D02*
X27756Y-19110D01*
X27209Y-21008D02*
X27756Y-20461D01*
X25701Y-21008D02*
X27209Y-21008D01*
X23756Y-19063D02*
X25701Y-21008D01*
X23303Y-19063D02*
X23756Y-19063D01*
X23303Y-18610D02*
X23303Y-19063D01*
X21547Y-18110D02*
X22047Y-17610D01*
X20669Y-18110D02*
X21547Y-18110D01*
X31783Y-17716D02*
X32177Y-18110D01*
X31783Y-16338D02*
X31783Y-17716D01*
X32783Y-22335D02*
X32783Y-19882D01*
X35197Y-15610D02*
X35433Y-15846D01*
X22539Y-18846D02*
X23303Y-19610D01*
X29036Y-21653D02*
X30020Y-20669D01*
X31890Y-16338D02*
X32618Y-15610D01*
X36327Y-18610D02*
X37795Y-18610D01*
X35433Y-17716D02*
X36327Y-18610D01*
X24319Y-20669D02*
X25303Y-21653D01*
X22047Y-17610D02*
X22047Y-17815D01*
X22047Y-17815D02*
X22539Y-18307D01*
X25984Y-22933D02*
X32185Y-22933D01*
X31783Y-16338D02*
X31890Y-16338D01*
X35433Y-15846D02*
X35433Y-17716D01*
X23819Y-20669D02*
X24319Y-20669D01*
X34055Y-15610D02*
X35197Y-15610D01*
X28543Y-18111D02*
X28543Y-21653D01*
X28544Y-18110D02*
X28543Y-18111D01*
X27756Y-18110D02*
X28544Y-18110D01*
X30020Y-19511D02*
X30421Y-19110D01*
X30020Y-20669D02*
X30020Y-19511D01*
X23303Y-20153D02*
X23819Y-20669D01*
X25303Y-21653D02*
X28543Y-21653D01*
X25303Y-22252D02*
X25984Y-22933D01*
X25303Y-21653D02*
X25303Y-22252D01*
X32185Y-22933D02*
X32783Y-22335D01*
X32618Y-15610D02*
X34055Y-15610D01*
X28543Y-21653D02*
X29036Y-21653D01*
X22539Y-18307D02*
X22539Y-18846D01*
X23303Y-19610D02*
X23303Y-20153D01*
X27221Y-19991D02*
X27221Y-19110D01*
X26740Y-20472D02*
X27221Y-19991D01*
X28315Y-15597D02*
X28315Y-15157D01*
X27221Y-16691D02*
X28315Y-15597D01*
X27221Y-19110D02*
X27221Y-16691D01*
X23896Y-16986D02*
X23896Y-16610D01*
X26020Y-19110D02*
X23896Y-16986D01*
X27221Y-19110D02*
X26020Y-19110D01*
X23303Y-16610D02*
X23896Y-16610D01*
X23578Y-17103D02*
X22743Y-17103D01*
X22670Y-17030D02*
X22670Y-15881D01*
X25710Y-19610D02*
X25710Y-19235D01*
X22670Y-15881D02*
X23394Y-15157D01*
X25710Y-19235D02*
X23578Y-17103D01*
X22743Y-17103D02*
X22670Y-17030D01*
X26303Y-19610D02*
X25710Y-19610D01*
X28315Y-14173D02*
X27855Y-14633D01*
X26632Y-18157D02*
X26303Y-18157D01*
X27017Y-17772D02*
X26632Y-18157D01*
X27855Y-15601D02*
X27017Y-16439D01*
X27855Y-14633D02*
X27855Y-15601D01*
X26303Y-18610D02*
X26303Y-18157D01*
X27017Y-16439D02*
X27017Y-17772D01*
X25974Y-17157D02*
X26303Y-17157D01*
X25016Y-16199D02*
X25974Y-17157D01*
X25016Y-15795D02*
X25016Y-16199D01*
X23394Y-14173D02*
X25016Y-15795D01*
X26303Y-17610D02*
X26303Y-17157D01*
X31783Y-19504D02*
X32677Y-18610D01*
X31783Y-19882D02*
X31783Y-19504D01*
X31783Y-19882D02*
X31398Y-19882D01*
X31330Y-19882D02*
X30740Y-20472D01*
X31398Y-19882D02*
X31330Y-19882D01*
X30799Y-20531D02*
X30740Y-20472D01*
X30799Y-21850D02*
X30799Y-20531D01*
X21547Y-19110D02*
X22047Y-18610D01*
X20669Y-19110D02*
X21547Y-19110D01*
X31398Y-17224D02*
X31398Y-19882D01*
X31284Y-17110D02*
X31398Y-17224D01*
X30421Y-17110D02*
X31284Y-17110D01*
G54D10*
G36*
X38751Y-20923D02*
X38675Y-20810D01*
X38449Y-20582D01*
X38377Y-20533D01*
X38377Y-18584D01*
X38361Y-18471D01*
X38323Y-18364D01*
X38294Y-18309D01*
X38196Y-18279D01*
X37865Y-18610D01*
X38196Y-18940D01*
X38294Y-18910D01*
X38343Y-18808D01*
X38371Y-18697D01*
X38377Y-18584D01*
X38377Y-20533D01*
X38183Y-20403D01*
X38125Y-20378D01*
X38125Y-19011D01*
X37795Y-18680D01*
X37724Y-18751D01*
X37724Y-18610D01*
X37393Y-18279D01*
X37295Y-18309D01*
X37246Y-18411D01*
X37218Y-18522D01*
X37212Y-18635D01*
X37228Y-18748D01*
X37266Y-18855D01*
X37295Y-18910D01*
X37393Y-18940D01*
X37724Y-18610D01*
X37724Y-18751D01*
X37464Y-19011D01*
X37494Y-19109D01*
X37596Y-19158D01*
X37707Y-19186D01*
X37820Y-19192D01*
X37933Y-19176D01*
X38040Y-19138D01*
X38095Y-19109D01*
X38125Y-19011D01*
X38125Y-20378D01*
X37887Y-20278D01*
X37572Y-20214D01*
X37251Y-20211D01*
X36936Y-20272D01*
X36815Y-20320D01*
X36846Y-20252D01*
X36865Y-20166D01*
X36867Y-20065D01*
X36849Y-19979D01*
X36816Y-19897D01*
X36767Y-19824D01*
X36705Y-19761D01*
X36632Y-19712D01*
X36550Y-19678D01*
X36464Y-19660D01*
X36376Y-19659D01*
X36289Y-19676D01*
X36207Y-19709D01*
X36133Y-19757D01*
X36070Y-19819D01*
X36020Y-19892D01*
X35985Y-19973D01*
X35967Y-20059D01*
X35966Y-20147D01*
X35982Y-20234D01*
X36014Y-20316D01*
X36062Y-20390D01*
X36123Y-20454D01*
X36196Y-20504D01*
X36277Y-20540D01*
X36363Y-20558D01*
X36383Y-20559D01*
X36370Y-20568D01*
X36140Y-20792D01*
X35959Y-21057D01*
X35833Y-21352D01*
X35766Y-21666D01*
X35761Y-21987D01*
X35819Y-22303D01*
X35937Y-22601D01*
X36111Y-22871D01*
X36334Y-23102D01*
X36474Y-23200D01*
X34605Y-23200D01*
X34605Y-15934D01*
X34605Y-15285D01*
X34595Y-15237D01*
X34576Y-15192D01*
X34549Y-15151D01*
X34515Y-15116D01*
X34474Y-15089D01*
X34429Y-15070D01*
X34381Y-15060D01*
X34332Y-15059D01*
X34167Y-15060D01*
X34105Y-15122D01*
X34105Y-15560D01*
X34542Y-15560D01*
X34605Y-15497D01*
X34605Y-15285D01*
X34605Y-15934D01*
X34605Y-15722D01*
X34542Y-15660D01*
X34155Y-15660D01*
X34105Y-15660D01*
X34005Y-15660D01*
X34005Y-15560D01*
X34005Y-15122D01*
X33942Y-15060D01*
X33777Y-15059D01*
X33728Y-15060D01*
X33680Y-15070D01*
X33635Y-15089D01*
X33594Y-15116D01*
X33560Y-15151D01*
X33533Y-15192D01*
X33514Y-15237D01*
X33504Y-15285D01*
X33505Y-15497D01*
X33567Y-15560D01*
X34005Y-15560D01*
X34005Y-15660D01*
X33955Y-15660D01*
X33567Y-15660D01*
X33505Y-15722D01*
X33504Y-15934D01*
X33514Y-15982D01*
X33533Y-16027D01*
X33560Y-16068D01*
X33594Y-16103D01*
X33635Y-16130D01*
X33680Y-16149D01*
X33728Y-16159D01*
X33777Y-16160D01*
X33942Y-16160D01*
X33955Y-16147D01*
X33955Y-16160D01*
X34005Y-16160D01*
X34012Y-16160D01*
X34005Y-16161D01*
X33927Y-16176D01*
X33845Y-16209D01*
X33771Y-16257D01*
X33708Y-16319D01*
X33658Y-16392D01*
X33623Y-16473D01*
X33605Y-16559D01*
X33604Y-16647D01*
X33620Y-16734D01*
X33652Y-16816D01*
X33700Y-16890D01*
X33761Y-16954D01*
X33834Y-17004D01*
X33915Y-17040D01*
X34001Y-17058D01*
X34089Y-17060D01*
X34176Y-17045D01*
X34258Y-17013D01*
X34333Y-16966D01*
X34397Y-16905D01*
X34448Y-16833D01*
X34484Y-16752D01*
X34503Y-16666D01*
X34505Y-16565D01*
X34487Y-16479D01*
X34454Y-16397D01*
X34405Y-16324D01*
X34343Y-16261D01*
X34270Y-16212D01*
X34188Y-16178D01*
X34102Y-16160D01*
X34059Y-16160D01*
X34155Y-16160D01*
X34155Y-16147D01*
X34167Y-16160D01*
X34332Y-16160D01*
X34381Y-16159D01*
X34429Y-16149D01*
X34474Y-16130D01*
X34515Y-16103D01*
X34549Y-16068D01*
X34576Y-16027D01*
X34595Y-15982D01*
X34605Y-15934D01*
X34605Y-23200D01*
X34505Y-23200D01*
X34505Y-20565D01*
X34505Y-19565D01*
X34505Y-18565D01*
X34505Y-17565D01*
X34487Y-17479D01*
X34454Y-17397D01*
X34405Y-17324D01*
X34343Y-17261D01*
X34270Y-17212D01*
X34188Y-17178D01*
X34102Y-17160D01*
X34014Y-17159D01*
X33927Y-17176D01*
X33845Y-17209D01*
X33771Y-17257D01*
X33708Y-17319D01*
X33658Y-17392D01*
X33655Y-17400D01*
X33062Y-17400D01*
X33061Y-17398D01*
X33014Y-17339D01*
X32993Y-17321D01*
X32993Y-16708D01*
X33045Y-16674D01*
X33106Y-16617D01*
X33154Y-16548D01*
X33188Y-16472D01*
X33206Y-16391D01*
X33208Y-16296D01*
X33191Y-16214D01*
X33160Y-16137D01*
X33113Y-16068D01*
X33055Y-16008D01*
X32986Y-15962D01*
X32909Y-15930D01*
X32827Y-15913D01*
X32765Y-15912D01*
X32765Y-15112D01*
X32765Y-14128D01*
X32747Y-14042D01*
X32714Y-13960D01*
X32665Y-13887D01*
X32603Y-13824D01*
X32530Y-13775D01*
X32448Y-13741D01*
X32362Y-13723D01*
X32274Y-13722D01*
X32187Y-13739D01*
X32105Y-13772D01*
X32031Y-13820D01*
X31968Y-13882D01*
X31918Y-13955D01*
X31883Y-14036D01*
X31865Y-14122D01*
X31864Y-14210D01*
X31880Y-14297D01*
X31884Y-14306D01*
X29734Y-16457D01*
X29421Y-16457D01*
X29401Y-16458D01*
X29381Y-16460D01*
X29380Y-16460D01*
X29380Y-16460D01*
X29361Y-16466D01*
X29342Y-16472D01*
X29341Y-16472D01*
X29340Y-16472D01*
X29323Y-16482D01*
X29306Y-16491D01*
X29305Y-16491D01*
X29304Y-16492D01*
X29289Y-16504D01*
X29274Y-16516D01*
X29273Y-16517D01*
X29273Y-16517D01*
X29260Y-16533D01*
X29247Y-16548D01*
X29247Y-16549D01*
X29246Y-16549D01*
X29237Y-16566D01*
X29227Y-16584D01*
X29227Y-16584D01*
X29227Y-16585D01*
X29221Y-16604D01*
X29215Y-16623D01*
X29215Y-16624D01*
X29215Y-16624D01*
X29213Y-16644D01*
X29211Y-16659D01*
X29108Y-16659D01*
X29108Y-14031D01*
X29106Y-14011D01*
X29104Y-13992D01*
X29104Y-13991D01*
X29104Y-13990D01*
X29098Y-13971D01*
X29092Y-13953D01*
X29092Y-13952D01*
X29092Y-13950D01*
X29083Y-13933D01*
X29074Y-13916D01*
X29073Y-13915D01*
X29072Y-13914D01*
X29060Y-13899D01*
X29048Y-13884D01*
X29047Y-13883D01*
X29047Y-13883D01*
X29046Y-13883D01*
X29046Y-13882D01*
X28637Y-13473D01*
X28622Y-13461D01*
X28607Y-13448D01*
X28606Y-13448D01*
X28605Y-13447D01*
X28588Y-13438D01*
X28571Y-13428D01*
X28570Y-13428D01*
X28569Y-13428D01*
X28551Y-13422D01*
X28532Y-13416D01*
X28531Y-13416D01*
X28530Y-13416D01*
X28511Y-13414D01*
X28491Y-13412D01*
X28489Y-13412D01*
X28489Y-13412D01*
X28489Y-13412D01*
X28489Y-13412D01*
X27945Y-13412D01*
X27925Y-13413D01*
X27906Y-13415D01*
X27905Y-13415D01*
X27904Y-13415D01*
X27885Y-13421D01*
X27867Y-13427D01*
X27866Y-13427D01*
X27864Y-13427D01*
X27847Y-13436D01*
X27830Y-13445D01*
X27829Y-13446D01*
X27828Y-13447D01*
X27813Y-13459D01*
X27798Y-13471D01*
X27797Y-13472D01*
X27797Y-13472D01*
X27797Y-13473D01*
X27796Y-13473D01*
X27528Y-13741D01*
X27527Y-13741D01*
X27441Y-13723D01*
X27353Y-13722D01*
X27266Y-13739D01*
X27184Y-13772D01*
X27110Y-13820D01*
X27047Y-13882D01*
X26997Y-13955D01*
X26962Y-14036D01*
X26944Y-14122D01*
X26943Y-14210D01*
X26959Y-14297D01*
X26991Y-14379D01*
X27039Y-14453D01*
X27100Y-14517D01*
X27173Y-14567D01*
X27254Y-14603D01*
X27340Y-14621D01*
X27428Y-14623D01*
X27515Y-14608D01*
X27597Y-14576D01*
X27672Y-14529D01*
X27674Y-14527D01*
X27671Y-14533D01*
X27661Y-14550D01*
X27661Y-14551D01*
X27661Y-14552D01*
X27655Y-14570D01*
X27649Y-14589D01*
X27649Y-14590D01*
X27649Y-14591D01*
X27647Y-14610D01*
X27645Y-14630D01*
X27645Y-14632D01*
X27645Y-14632D01*
X27645Y-14632D01*
X27645Y-14633D01*
X27645Y-14783D01*
X27609Y-14759D01*
X27527Y-14725D01*
X27441Y-14707D01*
X27353Y-14706D01*
X27266Y-14723D01*
X27184Y-14756D01*
X27110Y-14804D01*
X27047Y-14866D01*
X26997Y-14939D01*
X26962Y-15020D01*
X26944Y-15106D01*
X26943Y-15194D01*
X26959Y-15281D01*
X26991Y-15363D01*
X27039Y-15437D01*
X27100Y-15501D01*
X27173Y-15551D01*
X27254Y-15587D01*
X27340Y-15605D01*
X27428Y-15607D01*
X27515Y-15592D01*
X27597Y-15560D01*
X27599Y-15559D01*
X26868Y-16290D01*
X26856Y-16305D01*
X26843Y-16320D01*
X26843Y-16321D01*
X26842Y-16322D01*
X26833Y-16339D01*
X26826Y-16352D01*
X26774Y-16288D01*
X26705Y-16230D01*
X26627Y-16187D01*
X26541Y-16160D01*
X26452Y-16150D01*
X26445Y-16150D01*
X26160Y-16150D01*
X26070Y-16158D01*
X25984Y-16184D01*
X25905Y-16226D01*
X25835Y-16283D01*
X25778Y-16352D01*
X25736Y-16431D01*
X25709Y-16517D01*
X25702Y-16588D01*
X25226Y-16112D01*
X25226Y-15795D01*
X25224Y-15775D01*
X25222Y-15756D01*
X25222Y-15755D01*
X25222Y-15754D01*
X25216Y-15735D01*
X25210Y-15717D01*
X25210Y-15716D01*
X25210Y-15714D01*
X25201Y-15697D01*
X25192Y-15680D01*
X25191Y-15679D01*
X25190Y-15678D01*
X25178Y-15663D01*
X25166Y-15648D01*
X25165Y-15647D01*
X25165Y-15647D01*
X25164Y-15647D01*
X25164Y-15646D01*
X23825Y-14307D01*
X23842Y-14229D01*
X23844Y-14128D01*
X23826Y-14042D01*
X23793Y-13960D01*
X23744Y-13887D01*
X23682Y-13824D01*
X23609Y-13775D01*
X23527Y-13741D01*
X23441Y-13723D01*
X23353Y-13722D01*
X23266Y-13739D01*
X23184Y-13772D01*
X23110Y-13820D01*
X23047Y-13882D01*
X22997Y-13955D01*
X22962Y-14036D01*
X22944Y-14122D01*
X22943Y-14210D01*
X22959Y-14297D01*
X22991Y-14379D01*
X23039Y-14453D01*
X23100Y-14517D01*
X23173Y-14567D01*
X23254Y-14603D01*
X23340Y-14621D01*
X23428Y-14623D01*
X23515Y-14608D01*
X23527Y-14603D01*
X24806Y-15881D01*
X24806Y-16199D01*
X24807Y-16218D01*
X24809Y-16237D01*
X24809Y-16238D01*
X24809Y-16239D01*
X24815Y-16258D01*
X24821Y-16276D01*
X24821Y-16277D01*
X24821Y-16279D01*
X24830Y-16296D01*
X24839Y-16313D01*
X24840Y-16314D01*
X24841Y-16315D01*
X24853Y-16330D01*
X24865Y-16345D01*
X24866Y-16346D01*
X24866Y-16346D01*
X24867Y-16346D01*
X24867Y-16347D01*
X25821Y-17301D01*
X25778Y-17352D01*
X25736Y-17431D01*
X25709Y-17517D01*
X25700Y-17606D01*
X25708Y-17696D01*
X25733Y-17782D01*
X25775Y-17861D01*
X25831Y-17931D01*
X25900Y-17989D01*
X25978Y-18032D01*
X26064Y-18059D01*
X26114Y-18065D01*
X26109Y-18074D01*
X26109Y-18074D01*
X26109Y-18075D01*
X26103Y-18094D01*
X26097Y-18113D01*
X26097Y-18114D01*
X26097Y-18114D01*
X26095Y-18134D01*
X26093Y-18154D01*
X26093Y-18155D01*
X26093Y-18155D01*
X26093Y-18155D01*
X26093Y-18156D01*
X26070Y-18158D01*
X25984Y-18184D01*
X25905Y-18226D01*
X25835Y-18283D01*
X25778Y-18352D01*
X25736Y-18431D01*
X25713Y-18506D01*
X24106Y-16899D01*
X24106Y-16610D01*
X24104Y-16590D01*
X24102Y-16570D01*
X24102Y-16569D01*
X24102Y-16569D01*
X24096Y-16550D01*
X24090Y-16531D01*
X24090Y-16530D01*
X24090Y-16529D01*
X24080Y-16512D01*
X24071Y-16495D01*
X24071Y-16494D01*
X24070Y-16493D01*
X24058Y-16478D01*
X24046Y-16463D01*
X24045Y-16462D01*
X24045Y-16462D01*
X24029Y-16449D01*
X24014Y-16436D01*
X24013Y-16436D01*
X24013Y-16435D01*
X23996Y-16426D01*
X23978Y-16416D01*
X23978Y-16416D01*
X23977Y-16416D01*
X23958Y-16410D01*
X23939Y-16404D01*
X23938Y-16404D01*
X23938Y-16404D01*
X23918Y-16402D01*
X23903Y-16400D01*
X23903Y-16285D01*
X23897Y-16256D01*
X23886Y-16229D01*
X23869Y-16204D01*
X23849Y-16183D01*
X23824Y-16167D01*
X23797Y-16156D01*
X23768Y-16150D01*
X23739Y-16149D01*
X22880Y-16149D01*
X22880Y-15967D01*
X23259Y-15588D01*
X23340Y-15605D01*
X23428Y-15607D01*
X23515Y-15592D01*
X23597Y-15560D01*
X23672Y-15513D01*
X23736Y-15452D01*
X23787Y-15380D01*
X23823Y-15299D01*
X23842Y-15213D01*
X23844Y-15112D01*
X23826Y-15026D01*
X23793Y-14944D01*
X23744Y-14871D01*
X23682Y-14808D01*
X23609Y-14759D01*
X23527Y-14725D01*
X23441Y-14707D01*
X23353Y-14706D01*
X23266Y-14723D01*
X23184Y-14756D01*
X23110Y-14804D01*
X23047Y-14866D01*
X22997Y-14939D01*
X22962Y-15020D01*
X22944Y-15106D01*
X22943Y-15194D01*
X22959Y-15281D01*
X22963Y-15290D01*
X22521Y-15732D01*
X22509Y-15747D01*
X22496Y-15762D01*
X22496Y-15763D01*
X22495Y-15764D01*
X22486Y-15781D01*
X22476Y-15798D01*
X22476Y-15799D01*
X22476Y-15800D01*
X22470Y-15818D01*
X22464Y-15837D01*
X22464Y-15838D01*
X22464Y-15839D01*
X22462Y-15858D01*
X22460Y-15878D01*
X22460Y-15880D01*
X22460Y-15880D01*
X22460Y-15880D01*
X22460Y-15881D01*
X22460Y-17030D01*
X22461Y-17049D01*
X22463Y-17068D01*
X22463Y-17069D01*
X22463Y-17070D01*
X22469Y-17089D01*
X22475Y-17107D01*
X22475Y-17108D01*
X22475Y-17110D01*
X22484Y-17127D01*
X22493Y-17144D01*
X22494Y-17145D01*
X22495Y-17146D01*
X22507Y-17161D01*
X22519Y-17176D01*
X22520Y-17177D01*
X22520Y-17177D01*
X22521Y-17177D01*
X22521Y-17178D01*
X22594Y-17251D01*
X22609Y-17263D01*
X22624Y-17276D01*
X22625Y-17276D01*
X22626Y-17277D01*
X22643Y-17286D01*
X22660Y-17296D01*
X22661Y-17296D01*
X22662Y-17296D01*
X22680Y-17302D01*
X22699Y-17308D01*
X22700Y-17308D01*
X22701Y-17308D01*
X22720Y-17310D01*
X22740Y-17312D01*
X22742Y-17312D01*
X22742Y-17312D01*
X22742Y-17312D01*
X22743Y-17313D01*
X22811Y-17313D01*
X22778Y-17352D01*
X22736Y-17431D01*
X22709Y-17517D01*
X22700Y-17606D01*
X22708Y-17696D01*
X22733Y-17782D01*
X22775Y-17861D01*
X22831Y-17931D01*
X22900Y-17989D01*
X22978Y-18032D01*
X23064Y-18059D01*
X23153Y-18069D01*
X23160Y-18070D01*
X23445Y-18070D01*
X23535Y-18061D01*
X23621Y-18035D01*
X23700Y-17993D01*
X23770Y-17936D01*
X23827Y-17867D01*
X23869Y-17788D01*
X23892Y-17714D01*
X25500Y-19321D01*
X25500Y-19610D01*
X25501Y-19629D01*
X25503Y-19649D01*
X25503Y-19650D01*
X25503Y-19650D01*
X25509Y-19669D01*
X25515Y-19688D01*
X25515Y-19689D01*
X25515Y-19690D01*
X25525Y-19707D01*
X25534Y-19724D01*
X25534Y-19725D01*
X25535Y-19726D01*
X25547Y-19741D01*
X25559Y-19756D01*
X25560Y-19757D01*
X25560Y-19757D01*
X25576Y-19770D01*
X25591Y-19783D01*
X25592Y-19783D01*
X25592Y-19784D01*
X25609Y-19793D01*
X25627Y-19803D01*
X25627Y-19803D01*
X25628Y-19803D01*
X25647Y-19809D01*
X25666Y-19815D01*
X25667Y-19815D01*
X25667Y-19815D01*
X25687Y-19817D01*
X25707Y-19819D01*
X25708Y-19819D01*
X25708Y-19819D01*
X25708Y-19819D01*
X25710Y-19820D01*
X25753Y-19820D01*
X25775Y-19861D01*
X25831Y-19931D01*
X25900Y-19989D01*
X25978Y-20032D01*
X26064Y-20059D01*
X26153Y-20069D01*
X26160Y-20070D01*
X26445Y-20070D01*
X26535Y-20061D01*
X26621Y-20035D01*
X26700Y-19993D01*
X26770Y-19936D01*
X26827Y-19867D01*
X26869Y-19788D01*
X26896Y-19702D01*
X26905Y-19613D01*
X26897Y-19523D01*
X26872Y-19437D01*
X26830Y-19358D01*
X26800Y-19320D01*
X27011Y-19320D01*
X27011Y-19904D01*
X26874Y-20040D01*
X26873Y-20040D01*
X26787Y-20022D01*
X26699Y-20021D01*
X26612Y-20038D01*
X26530Y-20071D01*
X26456Y-20119D01*
X26393Y-20181D01*
X26343Y-20254D01*
X26308Y-20335D01*
X26290Y-20421D01*
X26289Y-20509D01*
X26305Y-20596D01*
X26337Y-20678D01*
X26385Y-20752D01*
X26429Y-20798D01*
X25787Y-20798D01*
X23904Y-18914D01*
X23889Y-18902D01*
X23874Y-18889D01*
X23873Y-18889D01*
X23872Y-18888D01*
X23855Y-18879D01*
X23838Y-18869D01*
X23837Y-18869D01*
X23836Y-18869D01*
X23827Y-18866D01*
X23869Y-18788D01*
X23896Y-18702D01*
X23905Y-18613D01*
X23897Y-18523D01*
X23872Y-18437D01*
X23830Y-18358D01*
X23774Y-18288D01*
X23705Y-18230D01*
X23627Y-18187D01*
X23541Y-18160D01*
X23452Y-18150D01*
X23445Y-18150D01*
X23160Y-18150D01*
X23070Y-18158D01*
X22984Y-18184D01*
X22905Y-18226D01*
X22835Y-18283D01*
X22778Y-18352D01*
X22736Y-18431D01*
X22709Y-18517D01*
X22700Y-18606D01*
X22708Y-18696D01*
X22733Y-18782D01*
X22775Y-18861D01*
X22831Y-18931D01*
X22900Y-18989D01*
X22978Y-19032D01*
X23062Y-19059D01*
X23005Y-19070D01*
X22903Y-19111D01*
X22811Y-19171D01*
X22732Y-19247D01*
X22670Y-19338D01*
X22627Y-19439D01*
X22619Y-19473D01*
X22668Y-19560D01*
X23203Y-19560D01*
X23253Y-19560D01*
X23353Y-19560D01*
X23403Y-19560D01*
X23937Y-19560D01*
X23944Y-19548D01*
X25552Y-21156D01*
X25567Y-21168D01*
X25582Y-21181D01*
X25583Y-21181D01*
X25584Y-21182D01*
X25601Y-21191D01*
X25618Y-21201D01*
X25619Y-21201D01*
X25620Y-21201D01*
X25638Y-21207D01*
X25657Y-21213D01*
X25658Y-21213D01*
X25659Y-21213D01*
X25678Y-21215D01*
X25698Y-21217D01*
X25700Y-21217D01*
X25700Y-21217D01*
X25700Y-21217D01*
X25701Y-21218D01*
X27209Y-21218D01*
X27228Y-21216D01*
X27247Y-21214D01*
X27248Y-21214D01*
X27249Y-21214D01*
X27268Y-21208D01*
X27286Y-21202D01*
X27287Y-21202D01*
X27289Y-21202D01*
X27306Y-21193D01*
X27323Y-21184D01*
X27324Y-21183D01*
X27325Y-21182D01*
X27340Y-21170D01*
X27355Y-21158D01*
X27356Y-21157D01*
X27356Y-21157D01*
X27356Y-21156D01*
X27357Y-21156D01*
X27904Y-20609D01*
X27916Y-20594D01*
X27929Y-20579D01*
X27929Y-20578D01*
X27930Y-20577D01*
X27939Y-20560D01*
X27949Y-20543D01*
X27949Y-20542D01*
X27949Y-20541D01*
X27955Y-20523D01*
X27961Y-20504D01*
X27961Y-20503D01*
X27961Y-20502D01*
X27963Y-20483D01*
X27965Y-20463D01*
X27965Y-20461D01*
X27965Y-20461D01*
X27965Y-20461D01*
X27966Y-20461D01*
X27966Y-19480D01*
X28018Y-19446D01*
X28079Y-19389D01*
X28127Y-19320D01*
X28161Y-19244D01*
X28179Y-19163D01*
X28181Y-19068D01*
X28164Y-18986D01*
X28133Y-18909D01*
X28086Y-18840D01*
X28047Y-18800D01*
X28028Y-18780D01*
X27959Y-18734D01*
X27882Y-18702D01*
X27800Y-18685D01*
X27717Y-18684D01*
X27635Y-18700D01*
X27558Y-18731D01*
X27488Y-18777D01*
X27431Y-18833D01*
X27431Y-18530D01*
X27453Y-18553D01*
X27478Y-18528D01*
X27487Y-18564D01*
X27581Y-18607D01*
X27681Y-18632D01*
X27783Y-18636D01*
X27885Y-18621D01*
X27982Y-18586D01*
X28024Y-18564D01*
X28047Y-18472D01*
X27791Y-18216D01*
X27756Y-18180D01*
X27685Y-18110D01*
X27756Y-18039D01*
X27791Y-18003D01*
X27791Y-18003D01*
X28047Y-17747D01*
X28024Y-17655D01*
X27930Y-17612D01*
X27830Y-17587D01*
X27728Y-17583D01*
X27626Y-17598D01*
X27529Y-17633D01*
X27487Y-17655D01*
X27478Y-17691D01*
X27453Y-17666D01*
X27431Y-17689D01*
X27431Y-17526D01*
X27436Y-17528D01*
X27465Y-17534D01*
X27494Y-17535D01*
X28045Y-17535D01*
X28074Y-17529D01*
X28101Y-17518D01*
X28126Y-17501D01*
X28147Y-17481D01*
X28163Y-17456D01*
X28174Y-17429D01*
X28180Y-17400D01*
X28181Y-17371D01*
X28181Y-16820D01*
X28175Y-16791D01*
X28164Y-16764D01*
X28147Y-16739D01*
X28127Y-16718D01*
X28102Y-16702D01*
X28075Y-16691D01*
X28046Y-16685D01*
X28017Y-16684D01*
X27524Y-16684D01*
X28463Y-15745D01*
X28475Y-15730D01*
X28488Y-15715D01*
X28488Y-15714D01*
X28489Y-15713D01*
X28498Y-15696D01*
X28508Y-15679D01*
X28508Y-15678D01*
X28508Y-15677D01*
X28514Y-15659D01*
X28520Y-15640D01*
X28520Y-15639D01*
X28520Y-15638D01*
X28522Y-15619D01*
X28524Y-15599D01*
X28524Y-15597D01*
X28524Y-15597D01*
X28524Y-15597D01*
X28525Y-15597D01*
X28525Y-15556D01*
X28593Y-15513D01*
X28657Y-15452D01*
X28688Y-15408D01*
X28688Y-17666D01*
X28689Y-17685D01*
X28691Y-17705D01*
X28691Y-17706D01*
X28691Y-17706D01*
X28697Y-17725D01*
X28703Y-17744D01*
X28703Y-17745D01*
X28703Y-17746D01*
X28713Y-17763D01*
X28722Y-17780D01*
X28722Y-17781D01*
X28723Y-17782D01*
X28735Y-17797D01*
X28747Y-17812D01*
X28748Y-17813D01*
X28748Y-17813D01*
X28764Y-17826D01*
X28779Y-17839D01*
X28780Y-17839D01*
X28780Y-17840D01*
X28797Y-17849D01*
X28815Y-17859D01*
X28815Y-17859D01*
X28816Y-17859D01*
X28835Y-17865D01*
X28854Y-17871D01*
X28855Y-17871D01*
X28855Y-17871D01*
X28875Y-17873D01*
X28889Y-17875D01*
X28989Y-17975D01*
X28971Y-18059D01*
X28970Y-18147D01*
X28986Y-18234D01*
X29018Y-18316D01*
X29066Y-18390D01*
X29127Y-18454D01*
X29200Y-18504D01*
X29281Y-18540D01*
X29367Y-18558D01*
X29455Y-18560D01*
X29542Y-18545D01*
X29624Y-18513D01*
X29699Y-18466D01*
X29763Y-18405D01*
X29814Y-18333D01*
X29850Y-18252D01*
X29869Y-18166D01*
X29871Y-18065D01*
X29853Y-17979D01*
X29820Y-17897D01*
X29771Y-17824D01*
X29709Y-17761D01*
X29636Y-17712D01*
X29554Y-17678D01*
X29468Y-17660D01*
X29380Y-17659D01*
X29293Y-17676D01*
X29286Y-17678D01*
X29168Y-17560D01*
X29735Y-17560D01*
X29764Y-17554D01*
X29791Y-17543D01*
X29816Y-17526D01*
X29837Y-17506D01*
X29853Y-17481D01*
X29864Y-17454D01*
X29870Y-17425D01*
X29871Y-17396D01*
X29871Y-16870D01*
X29880Y-16867D01*
X29898Y-16861D01*
X29899Y-16861D01*
X29901Y-16861D01*
X29918Y-16852D01*
X29935Y-16843D01*
X29936Y-16842D01*
X29937Y-16841D01*
X29952Y-16829D01*
X29967Y-16817D01*
X29968Y-16816D01*
X29968Y-16816D01*
X29968Y-16815D01*
X29969Y-16815D01*
X32180Y-14604D01*
X32261Y-14621D01*
X32349Y-14623D01*
X32436Y-14608D01*
X32518Y-14576D01*
X32593Y-14529D01*
X32657Y-14468D01*
X32708Y-14396D01*
X32744Y-14315D01*
X32763Y-14229D01*
X32765Y-14128D01*
X32765Y-15112D01*
X32747Y-15026D01*
X32714Y-14944D01*
X32665Y-14871D01*
X32603Y-14808D01*
X32530Y-14759D01*
X32448Y-14725D01*
X32362Y-14707D01*
X32274Y-14706D01*
X32187Y-14723D01*
X32105Y-14756D01*
X32031Y-14804D01*
X31968Y-14866D01*
X31918Y-14939D01*
X31883Y-15020D01*
X31865Y-15106D01*
X31864Y-15194D01*
X31880Y-15281D01*
X31912Y-15363D01*
X31960Y-15437D01*
X32021Y-15501D01*
X32094Y-15551D01*
X32175Y-15587D01*
X32261Y-15605D01*
X32349Y-15607D01*
X32436Y-15592D01*
X32518Y-15560D01*
X32593Y-15513D01*
X32657Y-15452D01*
X32708Y-15380D01*
X32744Y-15299D01*
X32763Y-15213D01*
X32765Y-15112D01*
X32765Y-15912D01*
X32744Y-15912D01*
X32662Y-15928D01*
X32585Y-15959D01*
X32515Y-16005D01*
X32455Y-16063D01*
X32408Y-16132D01*
X32375Y-16208D01*
X32358Y-16290D01*
X32357Y-16373D01*
X32372Y-16455D01*
X32403Y-16533D01*
X32448Y-16603D01*
X32506Y-16663D01*
X32573Y-16709D01*
X32573Y-17228D01*
X32540Y-17231D01*
X32468Y-17253D01*
X32401Y-17288D01*
X32343Y-17336D01*
X32309Y-17376D01*
X32309Y-16310D01*
X32294Y-16208D01*
X32259Y-16111D01*
X32237Y-16069D01*
X32145Y-16046D01*
X32074Y-16117D01*
X32074Y-15975D01*
X32051Y-15883D01*
X31957Y-15840D01*
X31857Y-15815D01*
X31755Y-15811D01*
X31653Y-15826D01*
X31556Y-15861D01*
X31514Y-15883D01*
X31491Y-15975D01*
X31783Y-16267D01*
X32074Y-15975D01*
X32074Y-16117D01*
X31853Y-16338D01*
X32145Y-16629D01*
X32237Y-16606D01*
X32280Y-16512D01*
X32305Y-16412D01*
X32309Y-16310D01*
X32309Y-17376D01*
X32295Y-17394D01*
X32259Y-17460D01*
X32237Y-17532D01*
X32229Y-17607D01*
X32235Y-17679D01*
X32227Y-17686D01*
X32227Y-18060D01*
X32657Y-18060D01*
X32698Y-17996D01*
X32738Y-17996D01*
X32813Y-17988D01*
X32885Y-17966D01*
X32952Y-17931D01*
X33010Y-17883D01*
X33058Y-17825D01*
X33061Y-17820D01*
X33654Y-17820D01*
X33700Y-17890D01*
X33761Y-17954D01*
X33834Y-18004D01*
X33915Y-18040D01*
X34001Y-18058D01*
X34089Y-18060D01*
X34176Y-18045D01*
X34258Y-18013D01*
X34333Y-17966D01*
X34397Y-17905D01*
X34448Y-17833D01*
X34484Y-17752D01*
X34503Y-17666D01*
X34505Y-17565D01*
X34505Y-18565D01*
X34487Y-18479D01*
X34454Y-18397D01*
X34405Y-18324D01*
X34343Y-18261D01*
X34270Y-18212D01*
X34188Y-18178D01*
X34102Y-18160D01*
X34014Y-18159D01*
X33927Y-18176D01*
X33845Y-18209D01*
X33771Y-18257D01*
X33708Y-18319D01*
X33658Y-18392D01*
X33623Y-18473D01*
X33605Y-18559D01*
X33604Y-18647D01*
X33620Y-18734D01*
X33652Y-18816D01*
X33700Y-18890D01*
X33761Y-18954D01*
X33834Y-19004D01*
X33915Y-19040D01*
X34001Y-19058D01*
X34089Y-19060D01*
X34176Y-19045D01*
X34258Y-19013D01*
X34333Y-18966D01*
X34397Y-18905D01*
X34448Y-18833D01*
X34484Y-18752D01*
X34503Y-18666D01*
X34505Y-18565D01*
X34505Y-19565D01*
X34487Y-19479D01*
X34454Y-19397D01*
X34405Y-19324D01*
X34343Y-19261D01*
X34270Y-19212D01*
X34188Y-19178D01*
X34102Y-19160D01*
X34014Y-19159D01*
X33927Y-19176D01*
X33845Y-19209D01*
X33771Y-19257D01*
X33708Y-19319D01*
X33658Y-19392D01*
X33623Y-19473D01*
X33605Y-19559D01*
X33604Y-19647D01*
X33620Y-19734D01*
X33652Y-19816D01*
X33700Y-19890D01*
X33761Y-19954D01*
X33834Y-20004D01*
X33915Y-20040D01*
X34001Y-20058D01*
X34089Y-20060D01*
X34176Y-20045D01*
X34258Y-20013D01*
X34333Y-19966D01*
X34397Y-19905D01*
X34448Y-19833D01*
X34484Y-19752D01*
X34503Y-19666D01*
X34505Y-19565D01*
X34505Y-20565D01*
X34487Y-20479D01*
X34454Y-20397D01*
X34405Y-20324D01*
X34343Y-20261D01*
X34270Y-20212D01*
X34188Y-20178D01*
X34102Y-20160D01*
X34014Y-20159D01*
X33927Y-20176D01*
X33845Y-20209D01*
X33771Y-20257D01*
X33708Y-20319D01*
X33658Y-20392D01*
X33623Y-20473D01*
X33605Y-20559D01*
X33604Y-20647D01*
X33620Y-20734D01*
X33652Y-20816D01*
X33700Y-20890D01*
X33761Y-20954D01*
X33834Y-21004D01*
X33915Y-21040D01*
X34001Y-21058D01*
X34089Y-21060D01*
X34176Y-21045D01*
X34258Y-21013D01*
X34333Y-20966D01*
X34397Y-20905D01*
X34448Y-20833D01*
X34484Y-20752D01*
X34503Y-20666D01*
X34505Y-20565D01*
X34505Y-23200D01*
X33309Y-23200D01*
X33309Y-19854D01*
X33294Y-19752D01*
X33259Y-19655D01*
X33237Y-19613D01*
X33145Y-19590D01*
X33124Y-19611D01*
X33124Y-18612D01*
X33117Y-18537D01*
X33096Y-18465D01*
X33061Y-18398D01*
X33014Y-18339D01*
X32956Y-18291D01*
X32890Y-18255D01*
X32818Y-18232D01*
X32744Y-18224D01*
X32738Y-18224D01*
X32698Y-18224D01*
X32657Y-18160D01*
X32227Y-18160D01*
X32227Y-18533D01*
X32236Y-18541D01*
X32229Y-18607D01*
X32236Y-18682D01*
X32252Y-18737D01*
X32127Y-18863D01*
X32127Y-18533D01*
X32127Y-18160D01*
X32127Y-18060D01*
X32127Y-17686D01*
X32074Y-17646D01*
X32074Y-16700D01*
X31783Y-16408D01*
X31712Y-16479D01*
X31712Y-16338D01*
X31420Y-16046D01*
X31328Y-16069D01*
X31285Y-16163D01*
X31260Y-16263D01*
X31256Y-16365D01*
X31271Y-16467D01*
X31306Y-16564D01*
X31328Y-16606D01*
X31420Y-16629D01*
X31712Y-16338D01*
X31712Y-16479D01*
X31491Y-16700D01*
X31514Y-16792D01*
X31608Y-16835D01*
X31708Y-16860D01*
X31810Y-16864D01*
X31912Y-16849D01*
X32009Y-16814D01*
X32051Y-16792D01*
X32074Y-16700D01*
X32074Y-17646D01*
X32050Y-17628D01*
X31958Y-17650D01*
X31872Y-17689D01*
X31795Y-17745D01*
X31730Y-17815D01*
X31680Y-17895D01*
X31647Y-17984D01*
X31696Y-18060D01*
X32127Y-18060D01*
X32127Y-18160D01*
X31696Y-18160D01*
X31647Y-18235D01*
X31680Y-18324D01*
X31730Y-18404D01*
X31795Y-18474D01*
X31872Y-18530D01*
X31958Y-18569D01*
X32050Y-18591D01*
X32127Y-18533D01*
X32127Y-18863D01*
X31634Y-19355D01*
X31622Y-19370D01*
X31609Y-19385D01*
X31609Y-19386D01*
X31608Y-19387D01*
X31608Y-19388D01*
X31608Y-17224D01*
X31606Y-17204D01*
X31604Y-17185D01*
X31604Y-17184D01*
X31604Y-17183D01*
X31598Y-17164D01*
X31592Y-17146D01*
X31592Y-17145D01*
X31592Y-17143D01*
X31583Y-17126D01*
X31574Y-17109D01*
X31573Y-17108D01*
X31572Y-17107D01*
X31560Y-17092D01*
X31548Y-17077D01*
X31547Y-17076D01*
X31547Y-17076D01*
X31546Y-17076D01*
X31546Y-17075D01*
X31432Y-16961D01*
X31417Y-16949D01*
X31402Y-16936D01*
X31401Y-16936D01*
X31400Y-16935D01*
X31383Y-16926D01*
X31366Y-16916D01*
X31365Y-16916D01*
X31364Y-16916D01*
X31346Y-16910D01*
X31327Y-16904D01*
X31326Y-16904D01*
X31325Y-16904D01*
X31306Y-16902D01*
X31286Y-16900D01*
X31284Y-16900D01*
X31284Y-16900D01*
X31284Y-16900D01*
X31284Y-16900D01*
X30821Y-16900D01*
X30820Y-16897D01*
X30771Y-16824D01*
X30709Y-16761D01*
X30636Y-16712D01*
X30554Y-16678D01*
X30468Y-16660D01*
X30380Y-16659D01*
X30293Y-16676D01*
X30211Y-16709D01*
X30137Y-16757D01*
X30074Y-16819D01*
X30024Y-16892D01*
X29989Y-16973D01*
X29971Y-17059D01*
X29970Y-17147D01*
X29986Y-17234D01*
X30018Y-17316D01*
X30066Y-17390D01*
X30127Y-17454D01*
X30200Y-17504D01*
X30281Y-17540D01*
X30367Y-17558D01*
X30455Y-17560D01*
X30542Y-17545D01*
X30624Y-17513D01*
X30699Y-17466D01*
X30763Y-17405D01*
X30814Y-17333D01*
X30820Y-17320D01*
X31188Y-17320D01*
X31188Y-19727D01*
X31183Y-19731D01*
X31182Y-19732D01*
X31182Y-19732D01*
X31182Y-19733D01*
X31181Y-19733D01*
X30973Y-19942D01*
X30973Y-19083D01*
X30957Y-18976D01*
X30921Y-18874D01*
X30895Y-18826D01*
X30871Y-18820D01*
X30871Y-18065D01*
X30853Y-17979D01*
X30820Y-17897D01*
X30771Y-17824D01*
X30709Y-17761D01*
X30636Y-17712D01*
X30554Y-17678D01*
X30468Y-17660D01*
X30380Y-17659D01*
X30293Y-17676D01*
X30211Y-17709D01*
X30137Y-17757D01*
X30074Y-17819D01*
X30024Y-17892D01*
X29989Y-17973D01*
X29971Y-18059D01*
X29970Y-18147D01*
X29986Y-18234D01*
X30018Y-18316D01*
X30066Y-18390D01*
X30127Y-18454D01*
X30200Y-18504D01*
X30281Y-18540D01*
X30367Y-18558D01*
X30384Y-18559D01*
X30287Y-18573D01*
X30185Y-18609D01*
X30137Y-18635D01*
X30111Y-18729D01*
X30421Y-19039D01*
X30730Y-18729D01*
X30704Y-18635D01*
X30606Y-18589D01*
X30501Y-18563D01*
X30449Y-18560D01*
X30455Y-18560D01*
X30542Y-18545D01*
X30624Y-18513D01*
X30699Y-18466D01*
X30763Y-18405D01*
X30814Y-18333D01*
X30850Y-18252D01*
X30869Y-18166D01*
X30871Y-18065D01*
X30871Y-18820D01*
X30801Y-18800D01*
X30491Y-19110D01*
X30801Y-19419D01*
X30895Y-19393D01*
X30941Y-19295D01*
X30967Y-19190D01*
X30973Y-19083D01*
X30973Y-19942D01*
X30874Y-20040D01*
X30873Y-20040D01*
X30787Y-20022D01*
X30730Y-20021D01*
X30730Y-19490D01*
X30421Y-19180D01*
X30350Y-19251D01*
X30350Y-19110D01*
X30040Y-18800D01*
X29946Y-18826D01*
X29900Y-18924D01*
X29874Y-19029D01*
X29870Y-19107D01*
X29871Y-19065D01*
X29853Y-18979D01*
X29820Y-18897D01*
X29771Y-18824D01*
X29709Y-18761D01*
X29636Y-18712D01*
X29554Y-18678D01*
X29468Y-18660D01*
X29380Y-18659D01*
X29293Y-18676D01*
X29211Y-18709D01*
X29137Y-18757D01*
X29074Y-18819D01*
X29024Y-18892D01*
X28989Y-18973D01*
X28971Y-19059D01*
X28970Y-19147D01*
X28986Y-19234D01*
X29018Y-19316D01*
X29066Y-19390D01*
X29127Y-19454D01*
X29200Y-19504D01*
X29281Y-19540D01*
X29367Y-19558D01*
X29455Y-19560D01*
X29542Y-19545D01*
X29624Y-19513D01*
X29699Y-19466D01*
X29763Y-19405D01*
X29814Y-19333D01*
X29850Y-19252D01*
X29869Y-19166D01*
X29869Y-19143D01*
X29884Y-19243D01*
X29920Y-19345D01*
X29946Y-19393D01*
X30040Y-19419D01*
X30350Y-19110D01*
X30350Y-19251D01*
X30111Y-19490D01*
X30137Y-19584D01*
X30235Y-19630D01*
X30340Y-19656D01*
X30447Y-19662D01*
X30554Y-19646D01*
X30656Y-19610D01*
X30704Y-19584D01*
X30730Y-19490D01*
X30730Y-20021D01*
X30699Y-20021D01*
X30612Y-20038D01*
X30530Y-20071D01*
X30456Y-20119D01*
X30393Y-20181D01*
X30343Y-20254D01*
X30308Y-20335D01*
X30290Y-20421D01*
X30289Y-20509D01*
X30305Y-20596D01*
X30337Y-20678D01*
X30385Y-20752D01*
X30446Y-20816D01*
X30519Y-20866D01*
X30589Y-20897D01*
X30589Y-21449D01*
X30515Y-21497D01*
X30452Y-21559D01*
X30402Y-21632D01*
X30367Y-21713D01*
X30349Y-21799D01*
X30348Y-21887D01*
X30364Y-21974D01*
X30396Y-22056D01*
X30444Y-22130D01*
X30505Y-22194D01*
X30578Y-22244D01*
X30659Y-22280D01*
X30745Y-22298D01*
X30833Y-22300D01*
X30920Y-22285D01*
X31002Y-22253D01*
X31077Y-22206D01*
X31141Y-22145D01*
X31192Y-22073D01*
X31228Y-21992D01*
X31247Y-21906D01*
X31249Y-21805D01*
X31231Y-21719D01*
X31198Y-21637D01*
X31149Y-21564D01*
X31087Y-21501D01*
X31014Y-21452D01*
X31009Y-21450D01*
X31009Y-20834D01*
X31018Y-20828D01*
X31082Y-20767D01*
X31133Y-20695D01*
X31169Y-20614D01*
X31188Y-20528D01*
X31190Y-20427D01*
X31172Y-20341D01*
X31171Y-20337D01*
X31414Y-20094D01*
X31448Y-20147D01*
X31506Y-20207D01*
X31574Y-20254D01*
X31651Y-20288D01*
X31732Y-20306D01*
X31815Y-20307D01*
X31897Y-20293D01*
X31975Y-20263D01*
X32045Y-20218D01*
X32106Y-20161D01*
X32154Y-20092D01*
X32188Y-20016D01*
X32206Y-19935D01*
X32208Y-19840D01*
X32191Y-19758D01*
X32160Y-19681D01*
X32113Y-19612D01*
X32055Y-19552D01*
X32040Y-19543D01*
X32590Y-18993D01*
X32609Y-18995D01*
X32615Y-18996D01*
X32738Y-18996D01*
X32813Y-18988D01*
X32885Y-18966D01*
X32952Y-18931D01*
X33010Y-18883D01*
X33058Y-18825D01*
X33094Y-18759D01*
X33116Y-18687D01*
X33124Y-18612D01*
X33124Y-19611D01*
X33074Y-19661D01*
X33074Y-19519D01*
X33051Y-19427D01*
X32957Y-19384D01*
X32857Y-19359D01*
X32755Y-19355D01*
X32653Y-19370D01*
X32556Y-19405D01*
X32514Y-19427D01*
X32491Y-19519D01*
X32783Y-19811D01*
X33074Y-19519D01*
X33074Y-19661D01*
X32853Y-19882D01*
X33145Y-20173D01*
X33237Y-20150D01*
X33280Y-20056D01*
X33305Y-19956D01*
X33309Y-19854D01*
X33309Y-23200D01*
X33074Y-23200D01*
X33074Y-20244D01*
X32783Y-19952D01*
X32712Y-20023D01*
X32712Y-19882D01*
X32420Y-19590D01*
X32328Y-19613D01*
X32285Y-19707D01*
X32260Y-19807D01*
X32256Y-19909D01*
X32271Y-20011D01*
X32306Y-20108D01*
X32328Y-20150D01*
X32420Y-20173D01*
X32712Y-19882D01*
X32712Y-20023D01*
X32491Y-20244D01*
X32514Y-20336D01*
X32608Y-20379D01*
X32708Y-20404D01*
X32810Y-20408D01*
X32912Y-20393D01*
X33009Y-20358D01*
X33051Y-20336D01*
X33074Y-20244D01*
X33074Y-23200D01*
X32249Y-23200D01*
X32249Y-22136D01*
X32249Y-21535D01*
X32243Y-21506D01*
X32232Y-21479D01*
X32215Y-21454D01*
X32195Y-21433D01*
X32170Y-21417D01*
X32143Y-21406D01*
X32114Y-21400D01*
X32085Y-21399D01*
X31484Y-21399D01*
X31455Y-21405D01*
X31428Y-21416D01*
X31403Y-21433D01*
X31382Y-21453D01*
X31366Y-21478D01*
X31355Y-21505D01*
X31349Y-21534D01*
X31348Y-21563D01*
X31348Y-22164D01*
X31354Y-22193D01*
X31365Y-22220D01*
X31382Y-22245D01*
X31402Y-22266D01*
X31427Y-22282D01*
X31454Y-22293D01*
X31483Y-22299D01*
X31512Y-22300D01*
X32113Y-22300D01*
X32142Y-22294D01*
X32169Y-22283D01*
X32194Y-22266D01*
X32215Y-22246D01*
X32231Y-22221D01*
X32242Y-22194D01*
X32248Y-22165D01*
X32249Y-22136D01*
X32249Y-23200D01*
X28282Y-23200D01*
X28282Y-18082D01*
X28267Y-17980D01*
X28232Y-17883D01*
X28210Y-17841D01*
X28118Y-17818D01*
X28047Y-17889D01*
X27826Y-18110D01*
X28118Y-18401D01*
X28210Y-18378D01*
X28253Y-18284D01*
X28278Y-18184D01*
X28282Y-18082D01*
X28282Y-23200D01*
X25829Y-23200D01*
X25829Y-21625D01*
X25814Y-21523D01*
X25779Y-21426D01*
X25757Y-21384D01*
X25665Y-21361D01*
X25594Y-21432D01*
X25594Y-21290D01*
X25571Y-21198D01*
X25477Y-21155D01*
X25377Y-21130D01*
X25275Y-21126D01*
X25173Y-21141D01*
X25076Y-21176D01*
X25034Y-21198D01*
X25011Y-21290D01*
X25303Y-21582D01*
X25594Y-21290D01*
X25594Y-21432D01*
X25373Y-21653D01*
X25665Y-21944D01*
X25757Y-21921D01*
X25800Y-21827D01*
X25825Y-21727D01*
X25829Y-21625D01*
X25829Y-23200D01*
X25594Y-23200D01*
X25594Y-22015D01*
X25303Y-21723D01*
X25232Y-21794D01*
X25232Y-21653D01*
X24940Y-21361D01*
X24848Y-21384D01*
X24805Y-21478D01*
X24780Y-21578D01*
X24776Y-21680D01*
X24791Y-21782D01*
X24826Y-21879D01*
X24848Y-21921D01*
X24940Y-21944D01*
X25232Y-21653D01*
X25232Y-21794D01*
X25011Y-22015D01*
X25034Y-22107D01*
X25128Y-22150D01*
X25228Y-22175D01*
X25330Y-22179D01*
X25432Y-22164D01*
X25529Y-22129D01*
X25571Y-22107D01*
X25594Y-22015D01*
X25594Y-23200D01*
X24728Y-23200D01*
X24728Y-21611D01*
X24711Y-21529D01*
X24680Y-21452D01*
X24633Y-21383D01*
X24575Y-21323D01*
X24506Y-21277D01*
X24429Y-21245D01*
X24347Y-21228D01*
X24264Y-21227D01*
X24182Y-21243D01*
X24105Y-21274D01*
X24035Y-21320D01*
X23986Y-21368D01*
X23986Y-19746D01*
X23937Y-19660D01*
X23353Y-19660D01*
X23353Y-20170D01*
X23493Y-20170D01*
X23600Y-20149D01*
X23702Y-20108D01*
X23794Y-20048D01*
X23873Y-19972D01*
X23935Y-19881D01*
X23978Y-19780D01*
X23986Y-19746D01*
X23986Y-21368D01*
X23975Y-21378D01*
X23928Y-21447D01*
X23895Y-21523D01*
X23878Y-21605D01*
X23877Y-21688D01*
X23892Y-21770D01*
X23923Y-21848D01*
X23968Y-21918D01*
X24026Y-21978D01*
X24094Y-22025D01*
X24171Y-22059D01*
X24252Y-22077D01*
X24335Y-22078D01*
X24417Y-22064D01*
X24495Y-22034D01*
X24565Y-21989D01*
X24626Y-21932D01*
X24674Y-21863D01*
X24708Y-21787D01*
X24726Y-21706D01*
X24728Y-21611D01*
X24728Y-23200D01*
X23253Y-23200D01*
X23253Y-20170D01*
X23253Y-19660D01*
X22668Y-19660D01*
X22619Y-19746D01*
X22627Y-19780D01*
X22670Y-19881D01*
X22732Y-19972D01*
X22811Y-20048D01*
X22903Y-20108D01*
X23005Y-20149D01*
X23113Y-20170D01*
X23253Y-20170D01*
X23253Y-23200D01*
X22186Y-23200D01*
X22271Y-23146D01*
X22504Y-22924D01*
X22689Y-22662D01*
X22819Y-22369D01*
X22890Y-22056D01*
X22896Y-21689D01*
X22833Y-21374D01*
X22711Y-21077D01*
X22573Y-20870D01*
X22573Y-17582D01*
X22558Y-17480D01*
X22523Y-17383D01*
X22501Y-17341D01*
X22409Y-17318D01*
X22338Y-17389D01*
X22338Y-17247D01*
X22315Y-17155D01*
X22221Y-17112D01*
X22121Y-17087D01*
X22019Y-17083D01*
X21917Y-17098D01*
X21820Y-17133D01*
X21778Y-17155D01*
X21755Y-17247D01*
X22047Y-17539D01*
X22338Y-17247D01*
X22338Y-17389D01*
X22117Y-17610D01*
X22409Y-17901D01*
X22501Y-17878D01*
X22544Y-17784D01*
X22569Y-17684D01*
X22573Y-17582D01*
X22573Y-20870D01*
X22533Y-20810D01*
X22472Y-20748D01*
X22472Y-18568D01*
X22455Y-18486D01*
X22424Y-18409D01*
X22377Y-18340D01*
X22338Y-18300D01*
X22338Y-17972D01*
X22047Y-17680D01*
X21976Y-17751D01*
X21976Y-17610D01*
X21684Y-17318D01*
X21592Y-17341D01*
X21549Y-17435D01*
X21524Y-17535D01*
X21520Y-17637D01*
X21535Y-17739D01*
X21570Y-17836D01*
X21592Y-17878D01*
X21684Y-17901D01*
X21976Y-17610D01*
X21976Y-17751D01*
X21755Y-17972D01*
X21778Y-18064D01*
X21872Y-18107D01*
X21972Y-18132D01*
X22074Y-18136D01*
X22176Y-18121D01*
X22273Y-18086D01*
X22315Y-18064D01*
X22338Y-17972D01*
X22338Y-18300D01*
X22319Y-18280D01*
X22250Y-18234D01*
X22173Y-18202D01*
X22091Y-18185D01*
X22008Y-18184D01*
X21926Y-18200D01*
X21849Y-18231D01*
X21779Y-18277D01*
X21719Y-18335D01*
X21672Y-18404D01*
X21639Y-18480D01*
X21622Y-18562D01*
X21621Y-18645D01*
X21635Y-18724D01*
X21460Y-18900D01*
X21221Y-18900D01*
X21221Y-18083D01*
X21205Y-17976D01*
X21169Y-17874D01*
X21143Y-17826D01*
X21119Y-17820D01*
X21119Y-17396D01*
X21119Y-16795D01*
X21113Y-16766D01*
X21102Y-16739D01*
X21085Y-16714D01*
X21065Y-16693D01*
X21040Y-16677D01*
X21013Y-16666D01*
X20984Y-16660D01*
X20955Y-16659D01*
X20354Y-16659D01*
X20325Y-16665D01*
X20298Y-16676D01*
X20273Y-16693D01*
X20252Y-16713D01*
X20236Y-16738D01*
X20225Y-16765D01*
X20219Y-16794D01*
X20218Y-16823D01*
X20218Y-17424D01*
X20224Y-17453D01*
X20235Y-17480D01*
X20252Y-17505D01*
X20272Y-17526D01*
X20297Y-17542D01*
X20324Y-17553D01*
X20353Y-17559D01*
X20382Y-17560D01*
X20628Y-17560D01*
X20535Y-17573D01*
X20433Y-17609D01*
X20385Y-17635D01*
X20359Y-17729D01*
X20669Y-18039D01*
X20978Y-17729D01*
X20952Y-17635D01*
X20854Y-17589D01*
X20749Y-17563D01*
X20684Y-17560D01*
X20983Y-17560D01*
X21012Y-17554D01*
X21039Y-17543D01*
X21064Y-17526D01*
X21085Y-17506D01*
X21101Y-17481D01*
X21112Y-17454D01*
X21118Y-17425D01*
X21119Y-17396D01*
X21119Y-17820D01*
X21049Y-17800D01*
X20739Y-18110D01*
X21049Y-18419D01*
X21143Y-18393D01*
X21189Y-18295D01*
X21215Y-18190D01*
X21221Y-18083D01*
X21221Y-18900D01*
X21069Y-18900D01*
X21068Y-18897D01*
X21019Y-18824D01*
X20957Y-18761D01*
X20884Y-18712D01*
X20802Y-18678D01*
X20716Y-18660D01*
X20707Y-18660D01*
X20802Y-18646D01*
X20904Y-18610D01*
X20952Y-18584D01*
X20978Y-18490D01*
X20669Y-18180D01*
X20598Y-18251D01*
X20598Y-18110D01*
X20288Y-17800D01*
X20194Y-17826D01*
X20148Y-17924D01*
X20122Y-18029D01*
X20116Y-18136D01*
X20132Y-18243D01*
X20168Y-18345D01*
X20194Y-18393D01*
X20288Y-18419D01*
X20598Y-18110D01*
X20598Y-18251D01*
X20359Y-18490D01*
X20385Y-18584D01*
X20483Y-18630D01*
X20588Y-18656D01*
X20652Y-18659D01*
X20628Y-18659D01*
X20541Y-18676D01*
X20459Y-18709D01*
X20385Y-18757D01*
X20322Y-18819D01*
X20272Y-18892D01*
X20237Y-18973D01*
X20219Y-19059D01*
X20218Y-19147D01*
X20234Y-19234D01*
X20266Y-19316D01*
X20314Y-19390D01*
X20375Y-19454D01*
X20448Y-19504D01*
X20529Y-19540D01*
X20615Y-19558D01*
X20703Y-19560D01*
X20790Y-19545D01*
X20872Y-19513D01*
X20947Y-19466D01*
X21011Y-19405D01*
X21062Y-19333D01*
X21068Y-19320D01*
X21547Y-19320D01*
X21566Y-19318D01*
X21585Y-19316D01*
X21586Y-19316D01*
X21587Y-19316D01*
X21606Y-19310D01*
X21624Y-19304D01*
X21625Y-19304D01*
X21627Y-19304D01*
X21644Y-19295D01*
X21661Y-19286D01*
X21662Y-19285D01*
X21663Y-19284D01*
X21678Y-19272D01*
X21693Y-19260D01*
X21694Y-19259D01*
X21694Y-19259D01*
X21694Y-19258D01*
X21695Y-19258D01*
X21933Y-19020D01*
X21996Y-19034D01*
X22079Y-19035D01*
X22161Y-19021D01*
X22239Y-18991D01*
X22309Y-18946D01*
X22370Y-18889D01*
X22418Y-18820D01*
X22452Y-18744D01*
X22470Y-18663D01*
X22472Y-18568D01*
X22472Y-20748D01*
X22307Y-20582D01*
X22041Y-20403D01*
X21745Y-20278D01*
X21430Y-20214D01*
X21109Y-20211D01*
X20794Y-20272D01*
X20496Y-20392D01*
X20228Y-20568D01*
X19998Y-20792D01*
X19909Y-20923D01*
X19909Y-15295D01*
X19970Y-15391D01*
X20193Y-15622D01*
X20457Y-15805D01*
X20751Y-15934D01*
X21065Y-16003D01*
X21386Y-16010D01*
X21702Y-15954D01*
X22001Y-15838D01*
X22272Y-15666D01*
X22505Y-15444D01*
X22690Y-15182D01*
X22820Y-14889D01*
X22891Y-14576D01*
X22897Y-14209D01*
X22834Y-13894D01*
X22712Y-13597D01*
X22534Y-13330D01*
X22308Y-13102D01*
X22186Y-13020D01*
X36474Y-13020D01*
X36370Y-13088D01*
X36140Y-13312D01*
X35959Y-13577D01*
X35833Y-13872D01*
X35766Y-14186D01*
X35761Y-14507D01*
X35819Y-14823D01*
X35937Y-15121D01*
X36111Y-15391D01*
X36334Y-15622D01*
X36388Y-15659D01*
X36376Y-15659D01*
X36289Y-15676D01*
X36207Y-15709D01*
X36133Y-15757D01*
X36070Y-15819D01*
X36020Y-15892D01*
X35985Y-15973D01*
X35967Y-16059D01*
X35966Y-16147D01*
X35982Y-16234D01*
X36014Y-16316D01*
X36062Y-16390D01*
X36123Y-16454D01*
X36196Y-16504D01*
X36277Y-16540D01*
X36363Y-16558D01*
X36451Y-16560D01*
X36538Y-16545D01*
X36550Y-16540D01*
X37378Y-17368D01*
X37372Y-17377D01*
X37335Y-17464D01*
X37315Y-17556D01*
X37314Y-17650D01*
X37331Y-17742D01*
X37366Y-17830D01*
X37417Y-17909D01*
X37482Y-17977D01*
X37559Y-18031D01*
X37619Y-18057D01*
X37549Y-18081D01*
X37494Y-18110D01*
X37464Y-18208D01*
X37795Y-18539D01*
X38125Y-18208D01*
X38095Y-18110D01*
X37993Y-18061D01*
X37971Y-18056D01*
X38012Y-18040D01*
X38091Y-17990D01*
X38160Y-17925D01*
X38214Y-17848D01*
X38252Y-17762D01*
X38273Y-17670D01*
X38275Y-17562D01*
X38256Y-17470D01*
X38220Y-17383D01*
X38168Y-17305D01*
X38102Y-17238D01*
X38024Y-17185D01*
X37937Y-17149D01*
X37845Y-17130D01*
X37751Y-17129D01*
X37736Y-17132D01*
X36848Y-16244D01*
X36865Y-16166D01*
X36867Y-16065D01*
X36849Y-15979D01*
X36817Y-15901D01*
X36892Y-15934D01*
X37206Y-16003D01*
X37527Y-16010D01*
X37843Y-15954D01*
X38142Y-15838D01*
X38413Y-15666D01*
X38646Y-15444D01*
X38751Y-15296D01*
X38751Y-20923D01*
X38751Y-20923D01*
G37*
G54D22*
X38751Y-20923D02*
X38675Y-20810D01*
X38449Y-20582D01*
X38377Y-20533D01*
X38377Y-18584D01*
X38361Y-18471D01*
X38323Y-18364D01*
X38294Y-18309D01*
X38196Y-18279D01*
X37865Y-18610D01*
X38196Y-18940D01*
X38294Y-18910D01*
X38343Y-18808D01*
X38371Y-18697D01*
X38377Y-18584D01*
X38377Y-20533D01*
X38183Y-20403D01*
X38125Y-20378D01*
X38125Y-19011D01*
X37795Y-18680D01*
X37724Y-18751D01*
X37724Y-18610D01*
X37393Y-18279D01*
X37295Y-18309D01*
X37246Y-18411D01*
X37218Y-18522D01*
X37212Y-18635D01*
X37228Y-18748D01*
X37266Y-18855D01*
X37295Y-18910D01*
X37393Y-18940D01*
X37724Y-18610D01*
X37724Y-18751D01*
X37464Y-19011D01*
X37494Y-19109D01*
X37596Y-19158D01*
X37707Y-19186D01*
X37820Y-19192D01*
X37933Y-19176D01*
X38040Y-19138D01*
X38095Y-19109D01*
X38125Y-19011D01*
X38125Y-20378D01*
X37887Y-20278D01*
X37572Y-20214D01*
X37251Y-20211D01*
X36936Y-20272D01*
X36815Y-20320D01*
X36846Y-20252D01*
X36865Y-20166D01*
X36867Y-20065D01*
X36849Y-19979D01*
X36816Y-19897D01*
X36767Y-19824D01*
X36705Y-19761D01*
X36632Y-19712D01*
X36550Y-19678D01*
X36464Y-19660D01*
X36376Y-19659D01*
X36289Y-19676D01*
X36207Y-19709D01*
X36133Y-19757D01*
X36070Y-19819D01*
X36020Y-19892D01*
X35985Y-19973D01*
X35967Y-20059D01*
X35966Y-20147D01*
X35982Y-20234D01*
X36014Y-20316D01*
X36062Y-20390D01*
X36123Y-20454D01*
X36196Y-20504D01*
X36277Y-20540D01*
X36363Y-20558D01*
X36383Y-20559D01*
X36370Y-20568D01*
X36140Y-20792D01*
X35959Y-21057D01*
X35833Y-21352D01*
X35766Y-21666D01*
X35761Y-21987D01*
X35819Y-22303D01*
X35937Y-22601D01*
X36111Y-22871D01*
X36334Y-23102D01*
X36474Y-23200D01*
X34605Y-23200D01*
X34605Y-15934D01*
X34605Y-15285D01*
X34595Y-15237D01*
X34576Y-15192D01*
X34549Y-15151D01*
X34515Y-15116D01*
X34474Y-15089D01*
X34429Y-15070D01*
X34381Y-15060D01*
X34332Y-15059D01*
X34167Y-15060D01*
X34105Y-15122D01*
X34105Y-15560D01*
X34542Y-15560D01*
X34605Y-15497D01*
X34605Y-15285D01*
X34605Y-15934D01*
X34605Y-15722D01*
X34542Y-15660D01*
X34155Y-15660D01*
X34105Y-15660D01*
X34005Y-15660D01*
X34005Y-15560D01*
X34005Y-15122D01*
X33942Y-15060D01*
X33777Y-15059D01*
X33728Y-15060D01*
X33680Y-15070D01*
X33635Y-15089D01*
X33594Y-15116D01*
X33560Y-15151D01*
X33533Y-15192D01*
X33514Y-15237D01*
X33504Y-15285D01*
X33505Y-15497D01*
X33567Y-15560D01*
X34005Y-15560D01*
X34005Y-15660D01*
X33955Y-15660D01*
X33567Y-15660D01*
X33505Y-15722D01*
X33504Y-15934D01*
X33514Y-15982D01*
X33533Y-16027D01*
X33560Y-16068D01*
X33594Y-16103D01*
X33635Y-16130D01*
X33680Y-16149D01*
X33728Y-16159D01*
X33777Y-16160D01*
X33942Y-16160D01*
X33955Y-16147D01*
X33955Y-16160D01*
X34005Y-16160D01*
X34012Y-16160D01*
X34005Y-16161D01*
X33927Y-16176D01*
X33845Y-16209D01*
X33771Y-16257D01*
X33708Y-16319D01*
X33658Y-16392D01*
X33623Y-16473D01*
X33605Y-16559D01*
X33604Y-16647D01*
X33620Y-16734D01*
X33652Y-16816D01*
X33700Y-16890D01*
X33761Y-16954D01*
X33834Y-17004D01*
X33915Y-17040D01*
X34001Y-17058D01*
X34089Y-17060D01*
X34176Y-17045D01*
X34258Y-17013D01*
X34333Y-16966D01*
X34397Y-16905D01*
X34448Y-16833D01*
X34484Y-16752D01*
X34503Y-16666D01*
X34505Y-16565D01*
X34487Y-16479D01*
X34454Y-16397D01*
X34405Y-16324D01*
X34343Y-16261D01*
X34270Y-16212D01*
X34188Y-16178D01*
X34102Y-16160D01*
X34059Y-16160D01*
X34155Y-16160D01*
X34155Y-16147D01*
X34167Y-16160D01*
X34332Y-16160D01*
X34381Y-16159D01*
X34429Y-16149D01*
X34474Y-16130D01*
X34515Y-16103D01*
X34549Y-16068D01*
X34576Y-16027D01*
X34595Y-15982D01*
X34605Y-15934D01*
X34605Y-23200D01*
X34505Y-23200D01*
X34505Y-20565D01*
X34505Y-19565D01*
X34505Y-18565D01*
X34505Y-17565D01*
X34487Y-17479D01*
X34454Y-17397D01*
X34405Y-17324D01*
X34343Y-17261D01*
X34270Y-17212D01*
X34188Y-17178D01*
X34102Y-17160D01*
X34014Y-17159D01*
X33927Y-17176D01*
X33845Y-17209D01*
X33771Y-17257D01*
X33708Y-17319D01*
X33658Y-17392D01*
X33655Y-17400D01*
X33062Y-17400D01*
X33061Y-17398D01*
X33014Y-17339D01*
X32993Y-17321D01*
X32993Y-16708D01*
X33045Y-16674D01*
X33106Y-16617D01*
X33154Y-16548D01*
X33188Y-16472D01*
X33206Y-16391D01*
X33208Y-16296D01*
X33191Y-16214D01*
X33160Y-16137D01*
X33113Y-16068D01*
X33055Y-16008D01*
X32986Y-15962D01*
X32909Y-15930D01*
X32827Y-15913D01*
X32765Y-15912D01*
X32765Y-15112D01*
X32765Y-14128D01*
X32747Y-14042D01*
X32714Y-13960D01*
X32665Y-13887D01*
X32603Y-13824D01*
X32530Y-13775D01*
X32448Y-13741D01*
X32362Y-13723D01*
X32274Y-13722D01*
X32187Y-13739D01*
X32105Y-13772D01*
X32031Y-13820D01*
X31968Y-13882D01*
X31918Y-13955D01*
X31883Y-14036D01*
X31865Y-14122D01*
X31864Y-14210D01*
X31880Y-14297D01*
X31884Y-14306D01*
X29734Y-16457D01*
X29421Y-16457D01*
X29401Y-16458D01*
X29381Y-16460D01*
X29380Y-16460D01*
X29380Y-16460D01*
X29361Y-16466D01*
X29342Y-16472D01*
X29341Y-16472D01*
X29340Y-16472D01*
X29323Y-16482D01*
X29306Y-16491D01*
X29305Y-16491D01*
X29304Y-16492D01*
X29289Y-16504D01*
X29274Y-16516D01*
X29273Y-16517D01*
X29273Y-16517D01*
X29260Y-16533D01*
X29247Y-16548D01*
X29247Y-16549D01*
X29246Y-16549D01*
X29237Y-16566D01*
X29227Y-16584D01*
X29227Y-16584D01*
X29227Y-16585D01*
X29221Y-16604D01*
X29215Y-16623D01*
X29215Y-16624D01*
X29215Y-16624D01*
X29213Y-16644D01*
X29211Y-16659D01*
X29108Y-16659D01*
X29108Y-14031D01*
X29106Y-14011D01*
X29104Y-13992D01*
X29104Y-13991D01*
X29104Y-13990D01*
X29098Y-13971D01*
X29092Y-13953D01*
X29092Y-13952D01*
X29092Y-13950D01*
X29083Y-13933D01*
X29074Y-13916D01*
X29073Y-13915D01*
X29072Y-13914D01*
X29060Y-13899D01*
X29048Y-13884D01*
X29047Y-13883D01*
X29047Y-13883D01*
X29046Y-13883D01*
X29046Y-13882D01*
X28637Y-13473D01*
X28622Y-13461D01*
X28607Y-13448D01*
X28606Y-13448D01*
X28605Y-13447D01*
X28588Y-13438D01*
X28571Y-13428D01*
X28570Y-13428D01*
X28569Y-13428D01*
X28551Y-13422D01*
X28532Y-13416D01*
X28531Y-13416D01*
X28530Y-13416D01*
X28511Y-13414D01*
X28491Y-13412D01*
X28489Y-13412D01*
X28489Y-13412D01*
X28489Y-13412D01*
X28489Y-13412D01*
X27945Y-13412D01*
X27925Y-13413D01*
X27906Y-13415D01*
X27905Y-13415D01*
X27904Y-13415D01*
X27885Y-13421D01*
X27867Y-13427D01*
X27866Y-13427D01*
X27864Y-13427D01*
X27847Y-13436D01*
X27830Y-13445D01*
X27829Y-13446D01*
X27828Y-13447D01*
X27813Y-13459D01*
X27798Y-13471D01*
X27797Y-13472D01*
X27797Y-13472D01*
X27797Y-13473D01*
X27796Y-13473D01*
X27528Y-13741D01*
X27527Y-13741D01*
X27441Y-13723D01*
X27353Y-13722D01*
X27266Y-13739D01*
X27184Y-13772D01*
X27110Y-13820D01*
X27047Y-13882D01*
X26997Y-13955D01*
X26962Y-14036D01*
X26944Y-14122D01*
X26943Y-14210D01*
X26959Y-14297D01*
X26991Y-14379D01*
X27039Y-14453D01*
X27100Y-14517D01*
X27173Y-14567D01*
X27254Y-14603D01*
X27340Y-14621D01*
X27428Y-14623D01*
X27515Y-14608D01*
X27597Y-14576D01*
X27672Y-14529D01*
X27674Y-14527D01*
X27671Y-14533D01*
X27661Y-14550D01*
X27661Y-14551D01*
X27661Y-14552D01*
X27655Y-14570D01*
X27649Y-14589D01*
X27649Y-14590D01*
X27649Y-14591D01*
X27647Y-14610D01*
X27645Y-14630D01*
X27645Y-14632D01*
X27645Y-14632D01*
X27645Y-14632D01*
X27645Y-14633D01*
X27645Y-14783D01*
X27609Y-14759D01*
X27527Y-14725D01*
X27441Y-14707D01*
X27353Y-14706D01*
X27266Y-14723D01*
X27184Y-14756D01*
X27110Y-14804D01*
X27047Y-14866D01*
X26997Y-14939D01*
X26962Y-15020D01*
X26944Y-15106D01*
X26943Y-15194D01*
X26959Y-15281D01*
X26991Y-15363D01*
X27039Y-15437D01*
X27100Y-15501D01*
X27173Y-15551D01*
X27254Y-15587D01*
X27340Y-15605D01*
X27428Y-15607D01*
X27515Y-15592D01*
X27597Y-15560D01*
X27599Y-15559D01*
X26868Y-16290D01*
X26856Y-16305D01*
X26843Y-16320D01*
X26843Y-16321D01*
X26842Y-16322D01*
X26833Y-16339D01*
X26826Y-16352D01*
X26774Y-16288D01*
X26705Y-16230D01*
X26627Y-16187D01*
X26541Y-16160D01*
X26452Y-16150D01*
X26445Y-16150D01*
X26160Y-16150D01*
X26070Y-16158D01*
X25984Y-16184D01*
X25905Y-16226D01*
X25835Y-16283D01*
X25778Y-16352D01*
X25736Y-16431D01*
X25709Y-16517D01*
X25702Y-16588D01*
X25226Y-16112D01*
X25226Y-15795D01*
X25224Y-15775D01*
X25222Y-15756D01*
X25222Y-15755D01*
X25222Y-15754D01*
X25216Y-15735D01*
X25210Y-15717D01*
X25210Y-15716D01*
X25210Y-15714D01*
X25201Y-15697D01*
X25192Y-15680D01*
X25191Y-15679D01*
X25190Y-15678D01*
X25178Y-15663D01*
X25166Y-15648D01*
X25165Y-15647D01*
X25165Y-15647D01*
X25164Y-15647D01*
X25164Y-15646D01*
X23825Y-14307D01*
X23842Y-14229D01*
X23844Y-14128D01*
X23826Y-14042D01*
X23793Y-13960D01*
X23744Y-13887D01*
X23682Y-13824D01*
X23609Y-13775D01*
X23527Y-13741D01*
X23441Y-13723D01*
X23353Y-13722D01*
X23266Y-13739D01*
X23184Y-13772D01*
X23110Y-13820D01*
X23047Y-13882D01*
X22997Y-13955D01*
X22962Y-14036D01*
X22944Y-14122D01*
X22943Y-14210D01*
X22959Y-14297D01*
X22991Y-14379D01*
X23039Y-14453D01*
X23100Y-14517D01*
X23173Y-14567D01*
X23254Y-14603D01*
X23340Y-14621D01*
X23428Y-14623D01*
X23515Y-14608D01*
X23527Y-14603D01*
X24806Y-15881D01*
X24806Y-16199D01*
X24807Y-16218D01*
X24809Y-16237D01*
X24809Y-16238D01*
X24809Y-16239D01*
X24815Y-16258D01*
X24821Y-16276D01*
X24821Y-16277D01*
X24821Y-16279D01*
X24830Y-16296D01*
X24839Y-16313D01*
X24840Y-16314D01*
X24841Y-16315D01*
X24853Y-16330D01*
X24865Y-16345D01*
X24866Y-16346D01*
X24866Y-16346D01*
X24867Y-16346D01*
X24867Y-16347D01*
X25821Y-17301D01*
X25778Y-17352D01*
X25736Y-17431D01*
X25709Y-17517D01*
X25700Y-17606D01*
X25708Y-17696D01*
X25733Y-17782D01*
X25775Y-17861D01*
X25831Y-17931D01*
X25900Y-17989D01*
X25978Y-18032D01*
X26064Y-18059D01*
X26114Y-18065D01*
X26109Y-18074D01*
X26109Y-18074D01*
X26109Y-18075D01*
X26103Y-18094D01*
X26097Y-18113D01*
X26097Y-18114D01*
X26097Y-18114D01*
X26095Y-18134D01*
X26093Y-18154D01*
X26093Y-18155D01*
X26093Y-18155D01*
X26093Y-18155D01*
X26093Y-18156D01*
X26070Y-18158D01*
X25984Y-18184D01*
X25905Y-18226D01*
X25835Y-18283D01*
X25778Y-18352D01*
X25736Y-18431D01*
X25713Y-18506D01*
X24106Y-16899D01*
X24106Y-16610D01*
X24104Y-16590D01*
X24102Y-16570D01*
X24102Y-16569D01*
X24102Y-16569D01*
X24096Y-16550D01*
X24090Y-16531D01*
X24090Y-16530D01*
X24090Y-16529D01*
X24080Y-16512D01*
X24071Y-16495D01*
X24071Y-16494D01*
X24070Y-16493D01*
X24058Y-16478D01*
X24046Y-16463D01*
X24045Y-16462D01*
X24045Y-16462D01*
X24029Y-16449D01*
X24014Y-16436D01*
X24013Y-16436D01*
X24013Y-16435D01*
X23996Y-16426D01*
X23978Y-16416D01*
X23978Y-16416D01*
X23977Y-16416D01*
X23958Y-16410D01*
X23939Y-16404D01*
X23938Y-16404D01*
X23938Y-16404D01*
X23918Y-16402D01*
X23903Y-16400D01*
X23903Y-16285D01*
X23897Y-16256D01*
X23886Y-16229D01*
X23869Y-16204D01*
X23849Y-16183D01*
X23824Y-16167D01*
X23797Y-16156D01*
X23768Y-16150D01*
X23739Y-16149D01*
X22880Y-16149D01*
X22880Y-15967D01*
X23259Y-15588D01*
X23340Y-15605D01*
X23428Y-15607D01*
X23515Y-15592D01*
X23597Y-15560D01*
X23672Y-15513D01*
X23736Y-15452D01*
X23787Y-15380D01*
X23823Y-15299D01*
X23842Y-15213D01*
X23844Y-15112D01*
X23826Y-15026D01*
X23793Y-14944D01*
X23744Y-14871D01*
X23682Y-14808D01*
X23609Y-14759D01*
X23527Y-14725D01*
X23441Y-14707D01*
X23353Y-14706D01*
X23266Y-14723D01*
X23184Y-14756D01*
X23110Y-14804D01*
X23047Y-14866D01*
X22997Y-14939D01*
X22962Y-15020D01*
X22944Y-15106D01*
X22943Y-15194D01*
X22959Y-15281D01*
X22963Y-15290D01*
X22521Y-15732D01*
X22509Y-15747D01*
X22496Y-15762D01*
X22496Y-15763D01*
X22495Y-15764D01*
X22486Y-15781D01*
X22476Y-15798D01*
X22476Y-15799D01*
X22476Y-15800D01*
X22470Y-15818D01*
X22464Y-15837D01*
X22464Y-15838D01*
X22464Y-15839D01*
X22462Y-15858D01*
X22460Y-15878D01*
X22460Y-15880D01*
X22460Y-15880D01*
X22460Y-15880D01*
X22460Y-15881D01*
X22460Y-17030D01*
X22461Y-17049D01*
X22463Y-17068D01*
X22463Y-17069D01*
X22463Y-17070D01*
X22469Y-17089D01*
X22475Y-17107D01*
X22475Y-17108D01*
X22475Y-17110D01*
X22484Y-17127D01*
X22493Y-17144D01*
X22494Y-17145D01*
X22495Y-17146D01*
X22507Y-17161D01*
X22519Y-17176D01*
X22520Y-17177D01*
X22520Y-17177D01*
X22521Y-17177D01*
X22521Y-17178D01*
X22594Y-17251D01*
X22609Y-17263D01*
X22624Y-17276D01*
X22625Y-17276D01*
X22626Y-17277D01*
X22643Y-17286D01*
X22660Y-17296D01*
X22661Y-17296D01*
X22662Y-17296D01*
X22680Y-17302D01*
X22699Y-17308D01*
X22700Y-17308D01*
X22701Y-17308D01*
X22720Y-17310D01*
X22740Y-17312D01*
X22742Y-17312D01*
X22742Y-17312D01*
X22742Y-17312D01*
X22743Y-17313D01*
X22811Y-17313D01*
X22778Y-17352D01*
X22736Y-17431D01*
X22709Y-17517D01*
X22700Y-17606D01*
X22708Y-17696D01*
X22733Y-17782D01*
X22775Y-17861D01*
X22831Y-17931D01*
X22900Y-17989D01*
X22978Y-18032D01*
X23064Y-18059D01*
X23153Y-18069D01*
X23160Y-18070D01*
X23445Y-18070D01*
X23535Y-18061D01*
X23621Y-18035D01*
X23700Y-17993D01*
X23770Y-17936D01*
X23827Y-17867D01*
X23869Y-17788D01*
X23892Y-17714D01*
X25500Y-19321D01*
X25500Y-19610D01*
X25501Y-19629D01*
X25503Y-19649D01*
X25503Y-19650D01*
X25503Y-19650D01*
X25509Y-19669D01*
X25515Y-19688D01*
X25515Y-19689D01*
X25515Y-19690D01*
X25525Y-19707D01*
X25534Y-19724D01*
X25534Y-19725D01*
X25535Y-19726D01*
X25547Y-19741D01*
X25559Y-19756D01*
X25560Y-19757D01*
X25560Y-19757D01*
X25576Y-19770D01*
X25591Y-19783D01*
X25592Y-19783D01*
X25592Y-19784D01*
X25609Y-19793D01*
X25627Y-19803D01*
X25627Y-19803D01*
X25628Y-19803D01*
X25647Y-19809D01*
X25666Y-19815D01*
X25667Y-19815D01*
X25667Y-19815D01*
X25687Y-19817D01*
X25707Y-19819D01*
X25708Y-19819D01*
X25708Y-19819D01*
X25708Y-19819D01*
X25710Y-19820D01*
X25753Y-19820D01*
X25775Y-19861D01*
X25831Y-19931D01*
X25900Y-19989D01*
X25978Y-20032D01*
X26064Y-20059D01*
X26153Y-20069D01*
X26160Y-20070D01*
X26445Y-20070D01*
X26535Y-20061D01*
X26621Y-20035D01*
X26700Y-19993D01*
X26770Y-19936D01*
X26827Y-19867D01*
X26869Y-19788D01*
X26896Y-19702D01*
X26905Y-19613D01*
X26897Y-19523D01*
X26872Y-19437D01*
X26830Y-19358D01*
X26800Y-19320D01*
X27011Y-19320D01*
X27011Y-19904D01*
X26874Y-20040D01*
X26873Y-20040D01*
X26787Y-20022D01*
X26699Y-20021D01*
X26612Y-20038D01*
X26530Y-20071D01*
X26456Y-20119D01*
X26393Y-20181D01*
X26343Y-20254D01*
X26308Y-20335D01*
X26290Y-20421D01*
X26289Y-20509D01*
X26305Y-20596D01*
X26337Y-20678D01*
X26385Y-20752D01*
X26429Y-20798D01*
X25787Y-20798D01*
X23904Y-18914D01*
X23889Y-18902D01*
X23874Y-18889D01*
X23873Y-18889D01*
X23872Y-18888D01*
X23855Y-18879D01*
X23838Y-18869D01*
X23837Y-18869D01*
X23836Y-18869D01*
X23827Y-18866D01*
X23869Y-18788D01*
X23896Y-18702D01*
X23905Y-18613D01*
X23897Y-18523D01*
X23872Y-18437D01*
X23830Y-18358D01*
X23774Y-18288D01*
X23705Y-18230D01*
X23627Y-18187D01*
X23541Y-18160D01*
X23452Y-18150D01*
X23445Y-18150D01*
X23160Y-18150D01*
X23070Y-18158D01*
X22984Y-18184D01*
X22905Y-18226D01*
X22835Y-18283D01*
X22778Y-18352D01*
X22736Y-18431D01*
X22709Y-18517D01*
X22700Y-18606D01*
X22708Y-18696D01*
X22733Y-18782D01*
X22775Y-18861D01*
X22831Y-18931D01*
X22900Y-18989D01*
X22978Y-19032D01*
X23062Y-19059D01*
X23005Y-19070D01*
X22903Y-19111D01*
X22811Y-19171D01*
X22732Y-19247D01*
X22670Y-19338D01*
X22627Y-19439D01*
X22619Y-19473D01*
X22668Y-19560D01*
X23203Y-19560D01*
X23253Y-19560D01*
X23353Y-19560D01*
X23403Y-19560D01*
X23937Y-19560D01*
X23944Y-19548D01*
X25552Y-21156D01*
X25567Y-21168D01*
X25582Y-21181D01*
X25583Y-21181D01*
X25584Y-21182D01*
X25601Y-21191D01*
X25618Y-21201D01*
X25619Y-21201D01*
X25620Y-21201D01*
X25638Y-21207D01*
X25657Y-21213D01*
X25658Y-21213D01*
X25659Y-21213D01*
X25678Y-21215D01*
X25698Y-21217D01*
X25700Y-21217D01*
X25700Y-21217D01*
X25700Y-21217D01*
X25701Y-21218D01*
X27209Y-21218D01*
X27228Y-21216D01*
X27247Y-21214D01*
X27248Y-21214D01*
X27249Y-21214D01*
X27268Y-21208D01*
X27286Y-21202D01*
X27287Y-21202D01*
X27289Y-21202D01*
X27306Y-21193D01*
X27323Y-21184D01*
X27324Y-21183D01*
X27325Y-21182D01*
X27340Y-21170D01*
X27355Y-21158D01*
X27356Y-21157D01*
X27356Y-21157D01*
X27356Y-21156D01*
X27357Y-21156D01*
X27904Y-20609D01*
X27916Y-20594D01*
X27929Y-20579D01*
X27929Y-20578D01*
X27930Y-20577D01*
X27939Y-20560D01*
X27949Y-20543D01*
X27949Y-20542D01*
X27949Y-20541D01*
X27955Y-20523D01*
X27961Y-20504D01*
X27961Y-20503D01*
X27961Y-20502D01*
X27963Y-20483D01*
X27965Y-20463D01*
X27965Y-20461D01*
X27965Y-20461D01*
X27965Y-20461D01*
X27966Y-20461D01*
X27966Y-19480D01*
X28018Y-19446D01*
X28079Y-19389D01*
X28127Y-19320D01*
X28161Y-19244D01*
X28179Y-19163D01*
X28181Y-19068D01*
X28164Y-18986D01*
X28133Y-18909D01*
X28086Y-18840D01*
X28047Y-18800D01*
X28028Y-18780D01*
X27959Y-18734D01*
X27882Y-18702D01*
X27800Y-18685D01*
X27717Y-18684D01*
X27635Y-18700D01*
X27558Y-18731D01*
X27488Y-18777D01*
X27431Y-18833D01*
X27431Y-18530D01*
X27453Y-18553D01*
X27478Y-18528D01*
X27487Y-18564D01*
X27581Y-18607D01*
X27681Y-18632D01*
X27783Y-18636D01*
X27885Y-18621D01*
X27982Y-18586D01*
X28024Y-18564D01*
X28047Y-18472D01*
X27791Y-18216D01*
X27756Y-18180D01*
X27685Y-18110D01*
X27756Y-18039D01*
X27791Y-18003D01*
X27791Y-18003D01*
X28047Y-17747D01*
X28024Y-17655D01*
X27930Y-17612D01*
X27830Y-17587D01*
X27728Y-17583D01*
X27626Y-17598D01*
X27529Y-17633D01*
X27487Y-17655D01*
X27478Y-17691D01*
X27453Y-17666D01*
X27431Y-17689D01*
X27431Y-17526D01*
X27436Y-17528D01*
X27465Y-17534D01*
X27494Y-17535D01*
X28045Y-17535D01*
X28074Y-17529D01*
X28101Y-17518D01*
X28126Y-17501D01*
X28147Y-17481D01*
X28163Y-17456D01*
X28174Y-17429D01*
X28180Y-17400D01*
X28181Y-17371D01*
X28181Y-16820D01*
X28175Y-16791D01*
X28164Y-16764D01*
X28147Y-16739D01*
X28127Y-16718D01*
X28102Y-16702D01*
X28075Y-16691D01*
X28046Y-16685D01*
X28017Y-16684D01*
X27524Y-16684D01*
X28463Y-15745D01*
X28475Y-15730D01*
X28488Y-15715D01*
X28488Y-15714D01*
X28489Y-15713D01*
X28498Y-15696D01*
X28508Y-15679D01*
X28508Y-15678D01*
X28508Y-15677D01*
X28514Y-15659D01*
X28520Y-15640D01*
X28520Y-15639D01*
X28520Y-15638D01*
X28522Y-15619D01*
X28524Y-15599D01*
X28524Y-15597D01*
X28524Y-15597D01*
X28524Y-15597D01*
X28525Y-15597D01*
X28525Y-15556D01*
X28593Y-15513D01*
X28657Y-15452D01*
X28688Y-15408D01*
X28688Y-17666D01*
X28689Y-17685D01*
X28691Y-17705D01*
X28691Y-17706D01*
X28691Y-17706D01*
X28697Y-17725D01*
X28703Y-17744D01*
X28703Y-17745D01*
X28703Y-17746D01*
X28713Y-17763D01*
X28722Y-17780D01*
X28722Y-17781D01*
X28723Y-17782D01*
X28735Y-17797D01*
X28747Y-17812D01*
X28748Y-17813D01*
X28748Y-17813D01*
X28764Y-17826D01*
X28779Y-17839D01*
X28780Y-17839D01*
X28780Y-17840D01*
X28797Y-17849D01*
X28815Y-17859D01*
X28815Y-17859D01*
X28816Y-17859D01*
X28835Y-17865D01*
X28854Y-17871D01*
X28855Y-17871D01*
X28855Y-17871D01*
X28875Y-17873D01*
X28889Y-17875D01*
X28989Y-17975D01*
X28971Y-18059D01*
X28970Y-18147D01*
X28986Y-18234D01*
X29018Y-18316D01*
X29066Y-18390D01*
X29127Y-18454D01*
X29200Y-18504D01*
X29281Y-18540D01*
X29367Y-18558D01*
X29455Y-18560D01*
X29542Y-18545D01*
X29624Y-18513D01*
X29699Y-18466D01*
X29763Y-18405D01*
X29814Y-18333D01*
X29850Y-18252D01*
X29869Y-18166D01*
X29871Y-18065D01*
X29853Y-17979D01*
X29820Y-17897D01*
X29771Y-17824D01*
X29709Y-17761D01*
X29636Y-17712D01*
X29554Y-17678D01*
X29468Y-17660D01*
X29380Y-17659D01*
X29293Y-17676D01*
X29286Y-17678D01*
X29168Y-17560D01*
X29735Y-17560D01*
X29764Y-17554D01*
X29791Y-17543D01*
X29816Y-17526D01*
X29837Y-17506D01*
X29853Y-17481D01*
X29864Y-17454D01*
X29870Y-17425D01*
X29871Y-17396D01*
X29871Y-16870D01*
X29880Y-16867D01*
X29898Y-16861D01*
X29899Y-16861D01*
X29901Y-16861D01*
X29918Y-16852D01*
X29935Y-16843D01*
X29936Y-16842D01*
X29937Y-16841D01*
X29952Y-16829D01*
X29967Y-16817D01*
X29968Y-16816D01*
X29968Y-16816D01*
X29968Y-16815D01*
X29969Y-16815D01*
X32180Y-14604D01*
X32261Y-14621D01*
X32349Y-14623D01*
X32436Y-14608D01*
X32518Y-14576D01*
X32593Y-14529D01*
X32657Y-14468D01*
X32708Y-14396D01*
X32744Y-14315D01*
X32763Y-14229D01*
X32765Y-14128D01*
X32765Y-15112D01*
X32747Y-15026D01*
X32714Y-14944D01*
X32665Y-14871D01*
X32603Y-14808D01*
X32530Y-14759D01*
X32448Y-14725D01*
X32362Y-14707D01*
X32274Y-14706D01*
X32187Y-14723D01*
X32105Y-14756D01*
X32031Y-14804D01*
X31968Y-14866D01*
X31918Y-14939D01*
X31883Y-15020D01*
X31865Y-15106D01*
X31864Y-15194D01*
X31880Y-15281D01*
X31912Y-15363D01*
X31960Y-15437D01*
X32021Y-15501D01*
X32094Y-15551D01*
X32175Y-15587D01*
X32261Y-15605D01*
X32349Y-15607D01*
X32436Y-15592D01*
X32518Y-15560D01*
X32593Y-15513D01*
X32657Y-15452D01*
X32708Y-15380D01*
X32744Y-15299D01*
X32763Y-15213D01*
X32765Y-15112D01*
X32765Y-15912D01*
X32744Y-15912D01*
X32662Y-15928D01*
X32585Y-15959D01*
X32515Y-16005D01*
X32455Y-16063D01*
X32408Y-16132D01*
X32375Y-16208D01*
X32358Y-16290D01*
X32357Y-16373D01*
X32372Y-16455D01*
X32403Y-16533D01*
X32448Y-16603D01*
X32506Y-16663D01*
X32573Y-16709D01*
X32573Y-17228D01*
X32540Y-17231D01*
X32468Y-17253D01*
X32401Y-17288D01*
X32343Y-17336D01*
X32309Y-17376D01*
X32309Y-16310D01*
X32294Y-16208D01*
X32259Y-16111D01*
X32237Y-16069D01*
X32145Y-16046D01*
X32074Y-16117D01*
X32074Y-15975D01*
X32051Y-15883D01*
X31957Y-15840D01*
X31857Y-15815D01*
X31755Y-15811D01*
X31653Y-15826D01*
X31556Y-15861D01*
X31514Y-15883D01*
X31491Y-15975D01*
X31783Y-16267D01*
X32074Y-15975D01*
X32074Y-16117D01*
X31853Y-16338D01*
X32145Y-16629D01*
X32237Y-16606D01*
X32280Y-16512D01*
X32305Y-16412D01*
X32309Y-16310D01*
X32309Y-17376D01*
X32295Y-17394D01*
X32259Y-17460D01*
X32237Y-17532D01*
X32229Y-17607D01*
X32235Y-17679D01*
X32227Y-17686D01*
X32227Y-18060D01*
X32657Y-18060D01*
X32698Y-17996D01*
X32738Y-17996D01*
X32813Y-17988D01*
X32885Y-17966D01*
X32952Y-17931D01*
X33010Y-17883D01*
X33058Y-17825D01*
X33061Y-17820D01*
X33654Y-17820D01*
X33700Y-17890D01*
X33761Y-17954D01*
X33834Y-18004D01*
X33915Y-18040D01*
X34001Y-18058D01*
X34089Y-18060D01*
X34176Y-18045D01*
X34258Y-18013D01*
X34333Y-17966D01*
X34397Y-17905D01*
X34448Y-17833D01*
X34484Y-17752D01*
X34503Y-17666D01*
X34505Y-17565D01*
X34505Y-18565D01*
X34487Y-18479D01*
X34454Y-18397D01*
X34405Y-18324D01*
X34343Y-18261D01*
X34270Y-18212D01*
X34188Y-18178D01*
X34102Y-18160D01*
X34014Y-18159D01*
X33927Y-18176D01*
X33845Y-18209D01*
X33771Y-18257D01*
X33708Y-18319D01*
X33658Y-18392D01*
X33623Y-18473D01*
X33605Y-18559D01*
X33604Y-18647D01*
X33620Y-18734D01*
X33652Y-18816D01*
X33700Y-18890D01*
X33761Y-18954D01*
X33834Y-19004D01*
X33915Y-19040D01*
X34001Y-19058D01*
X34089Y-19060D01*
X34176Y-19045D01*
X34258Y-19013D01*
X34333Y-18966D01*
X34397Y-18905D01*
X34448Y-18833D01*
X34484Y-18752D01*
X34503Y-18666D01*
X34505Y-18565D01*
X34505Y-19565D01*
X34487Y-19479D01*
X34454Y-19397D01*
X34405Y-19324D01*
X34343Y-19261D01*
X34270Y-19212D01*
X34188Y-19178D01*
X34102Y-19160D01*
X34014Y-19159D01*
X33927Y-19176D01*
X33845Y-19209D01*
X33771Y-19257D01*
X33708Y-19319D01*
X33658Y-19392D01*
X33623Y-19473D01*
X33605Y-19559D01*
X33604Y-19647D01*
X33620Y-19734D01*
X33652Y-19816D01*
X33700Y-19890D01*
X33761Y-19954D01*
X33834Y-20004D01*
X33915Y-20040D01*
X34001Y-20058D01*
X34089Y-20060D01*
X34176Y-20045D01*
X34258Y-20013D01*
X34333Y-19966D01*
X34397Y-19905D01*
X34448Y-19833D01*
X34484Y-19752D01*
X34503Y-19666D01*
X34505Y-19565D01*
X34505Y-20565D01*
X34487Y-20479D01*
X34454Y-20397D01*
X34405Y-20324D01*
X34343Y-20261D01*
X34270Y-20212D01*
X34188Y-20178D01*
X34102Y-20160D01*
X34014Y-20159D01*
X33927Y-20176D01*
X33845Y-20209D01*
X33771Y-20257D01*
X33708Y-20319D01*
X33658Y-20392D01*
X33623Y-20473D01*
X33605Y-20559D01*
X33604Y-20647D01*
X33620Y-20734D01*
X33652Y-20816D01*
X33700Y-20890D01*
X33761Y-20954D01*
X33834Y-21004D01*
X33915Y-21040D01*
X34001Y-21058D01*
X34089Y-21060D01*
X34176Y-21045D01*
X34258Y-21013D01*
X34333Y-20966D01*
X34397Y-20905D01*
X34448Y-20833D01*
X34484Y-20752D01*
X34503Y-20666D01*
X34505Y-20565D01*
X34505Y-23200D01*
X33309Y-23200D01*
X33309Y-19854D01*
X33294Y-19752D01*
X33259Y-19655D01*
X33237Y-19613D01*
X33145Y-19590D01*
X33124Y-19611D01*
X33124Y-18612D01*
X33117Y-18537D01*
X33096Y-18465D01*
X33061Y-18398D01*
X33014Y-18339D01*
X32956Y-18291D01*
X32890Y-18255D01*
X32818Y-18232D01*
X32744Y-18224D01*
X32738Y-18224D01*
X32698Y-18224D01*
X32657Y-18160D01*
X32227Y-18160D01*
X32227Y-18533D01*
X32236Y-18541D01*
X32229Y-18607D01*
X32236Y-18682D01*
X32252Y-18737D01*
X32127Y-18863D01*
X32127Y-18533D01*
X32127Y-18160D01*
X32127Y-18060D01*
X32127Y-17686D01*
X32074Y-17646D01*
X32074Y-16700D01*
X31783Y-16408D01*
X31712Y-16479D01*
X31712Y-16338D01*
X31420Y-16046D01*
X31328Y-16069D01*
X31285Y-16163D01*
X31260Y-16263D01*
X31256Y-16365D01*
X31271Y-16467D01*
X31306Y-16564D01*
X31328Y-16606D01*
X31420Y-16629D01*
X31712Y-16338D01*
X31712Y-16479D01*
X31491Y-16700D01*
X31514Y-16792D01*
X31608Y-16835D01*
X31708Y-16860D01*
X31810Y-16864D01*
X31912Y-16849D01*
X32009Y-16814D01*
X32051Y-16792D01*
X32074Y-16700D01*
X32074Y-17646D01*
X32050Y-17628D01*
X31958Y-17650D01*
X31872Y-17689D01*
X31795Y-17745D01*
X31730Y-17815D01*
X31680Y-17895D01*
X31647Y-17984D01*
X31696Y-18060D01*
X32127Y-18060D01*
X32127Y-18160D01*
X31696Y-18160D01*
X31647Y-18235D01*
X31680Y-18324D01*
X31730Y-18404D01*
X31795Y-18474D01*
X31872Y-18530D01*
X31958Y-18569D01*
X32050Y-18591D01*
X32127Y-18533D01*
X32127Y-18863D01*
X31634Y-19355D01*
X31622Y-19370D01*
X31609Y-19385D01*
X31609Y-19386D01*
X31608Y-19387D01*
X31608Y-19388D01*
X31608Y-17224D01*
X31606Y-17204D01*
X31604Y-17185D01*
X31604Y-17184D01*
X31604Y-17183D01*
X31598Y-17164D01*
X31592Y-17146D01*
X31592Y-17145D01*
X31592Y-17143D01*
X31583Y-17126D01*
X31574Y-17109D01*
X31573Y-17108D01*
X31572Y-17107D01*
X31560Y-17092D01*
X31548Y-17077D01*
X31547Y-17076D01*
X31547Y-17076D01*
X31546Y-17076D01*
X31546Y-17075D01*
X31432Y-16961D01*
X31417Y-16949D01*
X31402Y-16936D01*
X31401Y-16936D01*
X31400Y-16935D01*
X31383Y-16926D01*
X31366Y-16916D01*
X31365Y-16916D01*
X31364Y-16916D01*
X31346Y-16910D01*
X31327Y-16904D01*
X31326Y-16904D01*
X31325Y-16904D01*
X31306Y-16902D01*
X31286Y-16900D01*
X31284Y-16900D01*
X31284Y-16900D01*
X31284Y-16900D01*
X31284Y-16900D01*
X30821Y-16900D01*
X30820Y-16897D01*
X30771Y-16824D01*
X30709Y-16761D01*
X30636Y-16712D01*
X30554Y-16678D01*
X30468Y-16660D01*
X30380Y-16659D01*
X30293Y-16676D01*
X30211Y-16709D01*
X30137Y-16757D01*
X30074Y-16819D01*
X30024Y-16892D01*
X29989Y-16973D01*
X29971Y-17059D01*
X29970Y-17147D01*
X29986Y-17234D01*
X30018Y-17316D01*
X30066Y-17390D01*
X30127Y-17454D01*
X30200Y-17504D01*
X30281Y-17540D01*
X30367Y-17558D01*
X30455Y-17560D01*
X30542Y-17545D01*
X30624Y-17513D01*
X30699Y-17466D01*
X30763Y-17405D01*
X30814Y-17333D01*
X30820Y-17320D01*
X31188Y-17320D01*
X31188Y-19727D01*
X31183Y-19731D01*
X31182Y-19732D01*
X31182Y-19732D01*
X31182Y-19733D01*
X31181Y-19733D01*
X30973Y-19942D01*
X30973Y-19083D01*
X30957Y-18976D01*
X30921Y-18874D01*
X30895Y-18826D01*
X30871Y-18820D01*
X30871Y-18065D01*
X30853Y-17979D01*
X30820Y-17897D01*
X30771Y-17824D01*
X30709Y-17761D01*
X30636Y-17712D01*
X30554Y-17678D01*
X30468Y-17660D01*
X30380Y-17659D01*
X30293Y-17676D01*
X30211Y-17709D01*
X30137Y-17757D01*
X30074Y-17819D01*
X30024Y-17892D01*
X29989Y-17973D01*
X29971Y-18059D01*
X29970Y-18147D01*
X29986Y-18234D01*
X30018Y-18316D01*
X30066Y-18390D01*
X30127Y-18454D01*
X30200Y-18504D01*
X30281Y-18540D01*
X30367Y-18558D01*
X30384Y-18559D01*
X30287Y-18573D01*
X30185Y-18609D01*
X30137Y-18635D01*
X30111Y-18729D01*
X30421Y-19039D01*
X30730Y-18729D01*
X30704Y-18635D01*
X30606Y-18589D01*
X30501Y-18563D01*
X30449Y-18560D01*
X30455Y-18560D01*
X30542Y-18545D01*
X30624Y-18513D01*
X30699Y-18466D01*
X30763Y-18405D01*
X30814Y-18333D01*
X30850Y-18252D01*
X30869Y-18166D01*
X30871Y-18065D01*
X30871Y-18820D01*
X30801Y-18800D01*
X30491Y-19110D01*
X30801Y-19419D01*
X30895Y-19393D01*
X30941Y-19295D01*
X30967Y-19190D01*
X30973Y-19083D01*
X30973Y-19942D01*
X30874Y-20040D01*
X30873Y-20040D01*
X30787Y-20022D01*
X30730Y-20021D01*
X30730Y-19490D01*
X30421Y-19180D01*
X30350Y-19251D01*
X30350Y-19110D01*
X30040Y-18800D01*
X29946Y-18826D01*
X29900Y-18924D01*
X29874Y-19029D01*
X29870Y-19107D01*
X29871Y-19065D01*
X29853Y-18979D01*
X29820Y-18897D01*
X29771Y-18824D01*
X29709Y-18761D01*
X29636Y-18712D01*
X29554Y-18678D01*
X29468Y-18660D01*
X29380Y-18659D01*
X29293Y-18676D01*
X29211Y-18709D01*
X29137Y-18757D01*
X29074Y-18819D01*
X29024Y-18892D01*
X28989Y-18973D01*
X28971Y-19059D01*
X28970Y-19147D01*
X28986Y-19234D01*
X29018Y-19316D01*
X29066Y-19390D01*
X29127Y-19454D01*
X29200Y-19504D01*
X29281Y-19540D01*
X29367Y-19558D01*
X29455Y-19560D01*
X29542Y-19545D01*
X29624Y-19513D01*
X29699Y-19466D01*
X29763Y-19405D01*
X29814Y-19333D01*
X29850Y-19252D01*
X29869Y-19166D01*
X29869Y-19143D01*
X29884Y-19243D01*
X29920Y-19345D01*
X29946Y-19393D01*
X30040Y-19419D01*
X30350Y-19110D01*
X30350Y-19251D01*
X30111Y-19490D01*
X30137Y-19584D01*
X30235Y-19630D01*
X30340Y-19656D01*
X30447Y-19662D01*
X30554Y-19646D01*
X30656Y-19610D01*
X30704Y-19584D01*
X30730Y-19490D01*
X30730Y-20021D01*
X30699Y-20021D01*
X30612Y-20038D01*
X30530Y-20071D01*
X30456Y-20119D01*
X30393Y-20181D01*
X30343Y-20254D01*
X30308Y-20335D01*
X30290Y-20421D01*
X30289Y-20509D01*
X30305Y-20596D01*
X30337Y-20678D01*
X30385Y-20752D01*
X30446Y-20816D01*
X30519Y-20866D01*
X30589Y-20897D01*
X30589Y-21449D01*
X30515Y-21497D01*
X30452Y-21559D01*
X30402Y-21632D01*
X30367Y-21713D01*
X30349Y-21799D01*
X30348Y-21887D01*
X30364Y-21974D01*
X30396Y-22056D01*
X30444Y-22130D01*
X30505Y-22194D01*
X30578Y-22244D01*
X30659Y-22280D01*
X30745Y-22298D01*
X30833Y-22300D01*
X30920Y-22285D01*
X31002Y-22253D01*
X31077Y-22206D01*
X31141Y-22145D01*
X31192Y-22073D01*
X31228Y-21992D01*
X31247Y-21906D01*
X31249Y-21805D01*
X31231Y-21719D01*
X31198Y-21637D01*
X31149Y-21564D01*
X31087Y-21501D01*
X31014Y-21452D01*
X31009Y-21450D01*
X31009Y-20834D01*
X31018Y-20828D01*
X31082Y-20767D01*
X31133Y-20695D01*
X31169Y-20614D01*
X31188Y-20528D01*
X31190Y-20427D01*
X31172Y-20341D01*
X31171Y-20337D01*
X31414Y-20094D01*
X31448Y-20147D01*
X31506Y-20207D01*
X31574Y-20254D01*
X31651Y-20288D01*
X31732Y-20306D01*
X31815Y-20307D01*
X31897Y-20293D01*
X31975Y-20263D01*
X32045Y-20218D01*
X32106Y-20161D01*
X32154Y-20092D01*
X32188Y-20016D01*
X32206Y-19935D01*
X32208Y-19840D01*
X32191Y-19758D01*
X32160Y-19681D01*
X32113Y-19612D01*
X32055Y-19552D01*
X32040Y-19543D01*
X32590Y-18993D01*
X32609Y-18995D01*
X32615Y-18996D01*
X32738Y-18996D01*
X32813Y-18988D01*
X32885Y-18966D01*
X32952Y-18931D01*
X33010Y-18883D01*
X33058Y-18825D01*
X33094Y-18759D01*
X33116Y-18687D01*
X33124Y-18612D01*
X33124Y-19611D01*
X33074Y-19661D01*
X33074Y-19519D01*
X33051Y-19427D01*
X32957Y-19384D01*
X32857Y-19359D01*
X32755Y-19355D01*
X32653Y-19370D01*
X32556Y-19405D01*
X32514Y-19427D01*
X32491Y-19519D01*
X32783Y-19811D01*
X33074Y-19519D01*
X33074Y-19661D01*
X32853Y-19882D01*
X33145Y-20173D01*
X33237Y-20150D01*
X33280Y-20056D01*
X33305Y-19956D01*
X33309Y-19854D01*
X33309Y-23200D01*
X33074Y-23200D01*
X33074Y-20244D01*
X32783Y-19952D01*
X32712Y-20023D01*
X32712Y-19882D01*
X32420Y-19590D01*
X32328Y-19613D01*
X32285Y-19707D01*
X32260Y-19807D01*
X32256Y-19909D01*
X32271Y-20011D01*
X32306Y-20108D01*
X32328Y-20150D01*
X32420Y-20173D01*
X32712Y-19882D01*
X32712Y-20023D01*
X32491Y-20244D01*
X32514Y-20336D01*
X32608Y-20379D01*
X32708Y-20404D01*
X32810Y-20408D01*
X32912Y-20393D01*
X33009Y-20358D01*
X33051Y-20336D01*
X33074Y-20244D01*
X33074Y-23200D01*
X32249Y-23200D01*
X32249Y-22136D01*
X32249Y-21535D01*
X32243Y-21506D01*
X32232Y-21479D01*
X32215Y-21454D01*
X32195Y-21433D01*
X32170Y-21417D01*
X32143Y-21406D01*
X32114Y-21400D01*
X32085Y-21399D01*
X31484Y-21399D01*
X31455Y-21405D01*
X31428Y-21416D01*
X31403Y-21433D01*
X31382Y-21453D01*
X31366Y-21478D01*
X31355Y-21505D01*
X31349Y-21534D01*
X31348Y-21563D01*
X31348Y-22164D01*
X31354Y-22193D01*
X31365Y-22220D01*
X31382Y-22245D01*
X31402Y-22266D01*
X31427Y-22282D01*
X31454Y-22293D01*
X31483Y-22299D01*
X31512Y-22300D01*
X32113Y-22300D01*
X32142Y-22294D01*
X32169Y-22283D01*
X32194Y-22266D01*
X32215Y-22246D01*
X32231Y-22221D01*
X32242Y-22194D01*
X32248Y-22165D01*
X32249Y-22136D01*
X32249Y-23200D01*
X28282Y-23200D01*
X28282Y-18082D01*
X28267Y-17980D01*
X28232Y-17883D01*
X28210Y-17841D01*
X28118Y-17818D01*
X28047Y-17889D01*
X27826Y-18110D01*
X28118Y-18401D01*
X28210Y-18378D01*
X28253Y-18284D01*
X28278Y-18184D01*
X28282Y-18082D01*
X28282Y-23200D01*
X25829Y-23200D01*
X25829Y-21625D01*
X25814Y-21523D01*
X25779Y-21426D01*
X25757Y-21384D01*
X25665Y-21361D01*
X25594Y-21432D01*
X25594Y-21290D01*
X25571Y-21198D01*
X25477Y-21155D01*
X25377Y-21130D01*
X25275Y-21126D01*
X25173Y-21141D01*
X25076Y-21176D01*
X25034Y-21198D01*
X25011Y-21290D01*
X25303Y-21582D01*
X25594Y-21290D01*
X25594Y-21432D01*
X25373Y-21653D01*
X25665Y-21944D01*
X25757Y-21921D01*
X25800Y-21827D01*
X25825Y-21727D01*
X25829Y-21625D01*
X25829Y-23200D01*
X25594Y-23200D01*
X25594Y-22015D01*
X25303Y-21723D01*
X25232Y-21794D01*
X25232Y-21653D01*
X24940Y-21361D01*
X24848Y-21384D01*
X24805Y-21478D01*
X24780Y-21578D01*
X24776Y-21680D01*
X24791Y-21782D01*
X24826Y-21879D01*
X24848Y-21921D01*
X24940Y-21944D01*
X25232Y-21653D01*
X25232Y-21794D01*
X25011Y-22015D01*
X25034Y-22107D01*
X25128Y-22150D01*
X25228Y-22175D01*
X25330Y-22179D01*
X25432Y-22164D01*
X25529Y-22129D01*
X25571Y-22107D01*
X25594Y-22015D01*
X25594Y-23200D01*
X24728Y-23200D01*
X24728Y-21611D01*
X24711Y-21529D01*
X24680Y-21452D01*
X24633Y-21383D01*
X24575Y-21323D01*
X24506Y-21277D01*
X24429Y-21245D01*
X24347Y-21228D01*
X24264Y-21227D01*
X24182Y-21243D01*
X24105Y-21274D01*
X24035Y-21320D01*
X23986Y-21368D01*
X23986Y-19746D01*
X23937Y-19660D01*
X23353Y-19660D01*
X23353Y-20170D01*
X23493Y-20170D01*
X23600Y-20149D01*
X23702Y-20108D01*
X23794Y-20048D01*
X23873Y-19972D01*
X23935Y-19881D01*
X23978Y-19780D01*
X23986Y-19746D01*
X23986Y-21368D01*
X23975Y-21378D01*
X23928Y-21447D01*
X23895Y-21523D01*
X23878Y-21605D01*
X23877Y-21688D01*
X23892Y-21770D01*
X23923Y-21848D01*
X23968Y-21918D01*
X24026Y-21978D01*
X24094Y-22025D01*
X24171Y-22059D01*
X24252Y-22077D01*
X24335Y-22078D01*
X24417Y-22064D01*
X24495Y-22034D01*
X24565Y-21989D01*
X24626Y-21932D01*
X24674Y-21863D01*
X24708Y-21787D01*
X24726Y-21706D01*
X24728Y-21611D01*
X24728Y-23200D01*
X23253Y-23200D01*
X23253Y-20170D01*
X23253Y-19660D01*
X22668Y-19660D01*
X22619Y-19746D01*
X22627Y-19780D01*
X22670Y-19881D01*
X22732Y-19972D01*
X22811Y-20048D01*
X22903Y-20108D01*
X23005Y-20149D01*
X23113Y-20170D01*
X23253Y-20170D01*
X23253Y-23200D01*
X22186Y-23200D01*
X22271Y-23146D01*
X22504Y-22924D01*
X22689Y-22662D01*
X22819Y-22369D01*
X22890Y-22056D01*
X22896Y-21689D01*
X22833Y-21374D01*
X22711Y-21077D01*
X22573Y-20870D01*
X22573Y-17582D01*
X22558Y-17480D01*
X22523Y-17383D01*
X22501Y-17341D01*
X22409Y-17318D01*
X22338Y-17389D01*
X22338Y-17247D01*
X22315Y-17155D01*
X22221Y-17112D01*
X22121Y-17087D01*
X22019Y-17083D01*
X21917Y-17098D01*
X21820Y-17133D01*
X21778Y-17155D01*
X21755Y-17247D01*
X22047Y-17539D01*
X22338Y-17247D01*
X22338Y-17389D01*
X22117Y-17610D01*
X22409Y-17901D01*
X22501Y-17878D01*
X22544Y-17784D01*
X22569Y-17684D01*
X22573Y-17582D01*
X22573Y-20870D01*
X22533Y-20810D01*
X22472Y-20748D01*
X22472Y-18568D01*
X22455Y-18486D01*
X22424Y-18409D01*
X22377Y-18340D01*
X22338Y-18300D01*
X22338Y-17972D01*
X22047Y-17680D01*
X21976Y-17751D01*
X21976Y-17610D01*
X21684Y-17318D01*
X21592Y-17341D01*
X21549Y-17435D01*
X21524Y-17535D01*
X21520Y-17637D01*
X21535Y-17739D01*
X21570Y-17836D01*
X21592Y-17878D01*
X21684Y-17901D01*
X21976Y-17610D01*
X21976Y-17751D01*
X21755Y-17972D01*
X21778Y-18064D01*
X21872Y-18107D01*
X21972Y-18132D01*
X22074Y-18136D01*
X22176Y-18121D01*
X22273Y-18086D01*
X22315Y-18064D01*
X22338Y-17972D01*
X22338Y-18300D01*
X22319Y-18280D01*
X22250Y-18234D01*
X22173Y-18202D01*
X22091Y-18185D01*
X22008Y-18184D01*
X21926Y-18200D01*
X21849Y-18231D01*
X21779Y-18277D01*
X21719Y-18335D01*
X21672Y-18404D01*
X21639Y-18480D01*
X21622Y-18562D01*
X21621Y-18645D01*
X21635Y-18724D01*
X21460Y-18900D01*
X21221Y-18900D01*
X21221Y-18083D01*
X21205Y-17976D01*
X21169Y-17874D01*
X21143Y-17826D01*
X21119Y-17820D01*
X21119Y-17396D01*
X21119Y-16795D01*
X21113Y-16766D01*
X21102Y-16739D01*
X21085Y-16714D01*
X21065Y-16693D01*
X21040Y-16677D01*
X21013Y-16666D01*
X20984Y-16660D01*
X20955Y-16659D01*
X20354Y-16659D01*
X20325Y-16665D01*
X20298Y-16676D01*
X20273Y-16693D01*
X20252Y-16713D01*
X20236Y-16738D01*
X20225Y-16765D01*
X20219Y-16794D01*
X20218Y-16823D01*
X20218Y-17424D01*
X20224Y-17453D01*
X20235Y-17480D01*
X20252Y-17505D01*
X20272Y-17526D01*
X20297Y-17542D01*
X20324Y-17553D01*
X20353Y-17559D01*
X20382Y-17560D01*
X20628Y-17560D01*
X20535Y-17573D01*
X20433Y-17609D01*
X20385Y-17635D01*
X20359Y-17729D01*
X20669Y-18039D01*
X20978Y-17729D01*
X20952Y-17635D01*
X20854Y-17589D01*
X20749Y-17563D01*
X20684Y-17560D01*
X20983Y-17560D01*
X21012Y-17554D01*
X21039Y-17543D01*
X21064Y-17526D01*
X21085Y-17506D01*
X21101Y-17481D01*
X21112Y-17454D01*
X21118Y-17425D01*
X21119Y-17396D01*
X21119Y-17820D01*
X21049Y-17800D01*
X20739Y-18110D01*
X21049Y-18419D01*
X21143Y-18393D01*
X21189Y-18295D01*
X21215Y-18190D01*
X21221Y-18083D01*
X21221Y-18900D01*
X21069Y-18900D01*
X21068Y-18897D01*
X21019Y-18824D01*
X20957Y-18761D01*
X20884Y-18712D01*
X20802Y-18678D01*
X20716Y-18660D01*
X20707Y-18660D01*
X20802Y-18646D01*
X20904Y-18610D01*
X20952Y-18584D01*
X20978Y-18490D01*
X20669Y-18180D01*
X20598Y-18251D01*
X20598Y-18110D01*
X20288Y-17800D01*
X20194Y-17826D01*
X20148Y-17924D01*
X20122Y-18029D01*
X20116Y-18136D01*
X20132Y-18243D01*
X20168Y-18345D01*
X20194Y-18393D01*
X20288Y-18419D01*
X20598Y-18110D01*
X20598Y-18251D01*
X20359Y-18490D01*
X20385Y-18584D01*
X20483Y-18630D01*
X20588Y-18656D01*
X20652Y-18659D01*
X20628Y-18659D01*
X20541Y-18676D01*
X20459Y-18709D01*
X20385Y-18757D01*
X20322Y-18819D01*
X20272Y-18892D01*
X20237Y-18973D01*
X20219Y-19059D01*
X20218Y-19147D01*
X20234Y-19234D01*
X20266Y-19316D01*
X20314Y-19390D01*
X20375Y-19454D01*
X20448Y-19504D01*
X20529Y-19540D01*
X20615Y-19558D01*
X20703Y-19560D01*
X20790Y-19545D01*
X20872Y-19513D01*
X20947Y-19466D01*
X21011Y-19405D01*
X21062Y-19333D01*
X21068Y-19320D01*
X21547Y-19320D01*
X21566Y-19318D01*
X21585Y-19316D01*
X21586Y-19316D01*
X21587Y-19316D01*
X21606Y-19310D01*
X21624Y-19304D01*
X21625Y-19304D01*
X21627Y-19304D01*
X21644Y-19295D01*
X21661Y-19286D01*
X21662Y-19285D01*
X21663Y-19284D01*
X21678Y-19272D01*
X21693Y-19260D01*
X21694Y-19259D01*
X21694Y-19259D01*
X21694Y-19258D01*
X21695Y-19258D01*
X21933Y-19020D01*
X21996Y-19034D01*
X22079Y-19035D01*
X22161Y-19021D01*
X22239Y-18991D01*
X22309Y-18946D01*
X22370Y-18889D01*
X22418Y-18820D01*
X22452Y-18744D01*
X22470Y-18663D01*
X22472Y-18568D01*
X22472Y-20748D01*
X22307Y-20582D01*
X22041Y-20403D01*
X21745Y-20278D01*
X21430Y-20214D01*
X21109Y-20211D01*
X20794Y-20272D01*
X20496Y-20392D01*
X20228Y-20568D01*
X19998Y-20792D01*
X19909Y-20923D01*
X19909Y-15295D01*
X19970Y-15391D01*
X20193Y-15622D01*
X20457Y-15805D01*
X20751Y-15934D01*
X21065Y-16003D01*
X21386Y-16010D01*
X21702Y-15954D01*
X22001Y-15838D01*
X22272Y-15666D01*
X22505Y-15444D01*
X22690Y-15182D01*
X22820Y-14889D01*
X22891Y-14576D01*
X22897Y-14209D01*
X22834Y-13894D01*
X22712Y-13597D01*
X22534Y-13330D01*
X22308Y-13102D01*
X22186Y-13020D01*
X36474Y-13020D01*
X36370Y-13088D01*
X36140Y-13312D01*
X35959Y-13577D01*
X35833Y-13872D01*
X35766Y-14186D01*
X35761Y-14507D01*
X35819Y-14823D01*
X35937Y-15121D01*
X36111Y-15391D01*
X36334Y-15622D01*
X36388Y-15659D01*
X36376Y-15659D01*
X36289Y-15676D01*
X36207Y-15709D01*
X36133Y-15757D01*
X36070Y-15819D01*
X36020Y-15892D01*
X35985Y-15973D01*
X35967Y-16059D01*
X35966Y-16147D01*
X35982Y-16234D01*
X36014Y-16316D01*
X36062Y-16390D01*
X36123Y-16454D01*
X36196Y-16504D01*
X36277Y-16540D01*
X36363Y-16558D01*
X36451Y-16560D01*
X36538Y-16545D01*
X36550Y-16540D01*
X37378Y-17368D01*
X37372Y-17377D01*
X37335Y-17464D01*
X37315Y-17556D01*
X37314Y-17650D01*
X37331Y-17742D01*
X37366Y-17830D01*
X37417Y-17909D01*
X37482Y-17977D01*
X37559Y-18031D01*
X37619Y-18057D01*
X37549Y-18081D01*
X37494Y-18110D01*
X37464Y-18208D01*
X37795Y-18539D01*
X38125Y-18208D01*
X38095Y-18110D01*
X37993Y-18061D01*
X37971Y-18056D01*
X38012Y-18040D01*
X38091Y-17990D01*
X38160Y-17925D01*
X38214Y-17848D01*
X38252Y-17762D01*
X38273Y-17670D01*
X38275Y-17562D01*
X38256Y-17470D01*
X38220Y-17383D01*
X38168Y-17305D01*
X38102Y-17238D01*
X38024Y-17185D01*
X37937Y-17149D01*
X37845Y-17130D01*
X37751Y-17129D01*
X37736Y-17132D01*
X36848Y-16244D01*
X36865Y-16166D01*
X36867Y-16065D01*
X36849Y-15979D01*
X36817Y-15901D01*
X36892Y-15934D01*
X37206Y-16003D01*
X37527Y-16010D01*
X37843Y-15954D01*
X38142Y-15838D01*
X38413Y-15666D01*
X38646Y-15444D01*
X38751Y-15296D01*
X38751Y-20923D01*
M02*
