M48
INCH,TZ
T1C0.032
T2C0.040
T3C0.120
%
G90
G05
T1
X021260Y-017110
X021260Y-018110
X021260Y-019110
X022835Y-017610
X022835Y-018610
X023590Y-014370
X023591Y-021850
X024484Y-016610
X024484Y-019610
X025484Y-016610
X025484Y-019610
X026484Y-016610
X026484Y-019610
X027484Y-016610
X027484Y-019610
X027590Y-014370
X027591Y-021850
X029102Y-014370
X029102Y-021850
X029724Y-017110
X029724Y-018110
X029724Y-019110
X033102Y-014370
X033102Y-021850
X034055Y-016110
X034055Y-020110
X035433Y-016110
X035433Y-017110
X035433Y-018110
X035433Y-019110
X035433Y-020110
T2
X031783Y-017110
X031783Y-018110
X031783Y-019110
X032783Y-017110
X032783Y-018110
X032783Y-019110
T3
X021259Y-014370
X021259Y-021850
X037401Y-014370
X037401Y-021850
T0
M30
