G04 (created by PCBNEW-RS274X (2012-jan-04)-stable) date Sat 31 Mar 2012 08:46:18 PM CEST*
G01*
G70*
G90*
%MOIN*%
G04 Gerber Fmt 3.4, Leading zero omitted, Abs format*
%FSLAX34Y34*%
G04 APERTURE LIST*
%ADD10C,0.008000*%
%ADD11C,0.015000*%
%ADD12C,0.010000*%
%ADD13C,0.006000*%
%ADD14C,0.000100*%
%ADD15C,0.012000*%
%ADD16C,0.172000*%
%ADD17C,0.078000*%
%ADD18R,0.072000X0.072000*%
%ADD19C,0.072000*%
%ADD20R,0.067000X0.067000*%
%ADD21C,0.067000*%
%ADD22R,0.102000X0.074000*%
%ADD23O,0.102000X0.074000*%
%ADD24O,0.071100X0.059200*%
G04 APERTURE END LIST*
G54D10*
G54D11*
X19685Y-12795D02*
X19685Y-23425D01*
X36024Y-12795D02*
X19685Y-12795D01*
X36024Y-23425D02*
X36024Y-12795D01*
X19685Y-23425D02*
X36024Y-23425D01*
G54D10*
X20469Y-16402D02*
X20469Y-16002D01*
X20888Y-16402D02*
X20754Y-16211D01*
X20659Y-16402D02*
X20659Y-16002D01*
X20812Y-16002D01*
X20850Y-16021D01*
X20869Y-16040D01*
X20888Y-16078D01*
X20888Y-16135D01*
X20869Y-16173D01*
X20850Y-16192D01*
X20812Y-16211D01*
X20659Y-16211D01*
X32650Y-20772D02*
X32650Y-20372D01*
X32879Y-20772D01*
X32879Y-20372D01*
X33298Y-20734D02*
X33279Y-20753D01*
X33222Y-20772D01*
X33184Y-20772D01*
X33126Y-20753D01*
X33088Y-20715D01*
X33069Y-20677D01*
X33050Y-20600D01*
X33050Y-20543D01*
X33069Y-20467D01*
X33088Y-20429D01*
X33126Y-20391D01*
X33184Y-20372D01*
X33222Y-20372D01*
X33279Y-20391D01*
X33298Y-20410D01*
X32541Y-19372D02*
X32770Y-19372D01*
X32655Y-19772D02*
X32655Y-19372D01*
X32865Y-19372D02*
X33132Y-19772D01*
X33132Y-19372D02*
X32865Y-19772D01*
X33360Y-19372D02*
X33437Y-19372D01*
X33475Y-19391D01*
X33513Y-19429D01*
X33532Y-19505D01*
X33532Y-19639D01*
X33513Y-19715D01*
X33475Y-19753D01*
X33437Y-19772D01*
X33360Y-19772D01*
X33322Y-19753D01*
X33284Y-19715D01*
X33265Y-19639D01*
X33265Y-19505D01*
X33284Y-19429D01*
X33322Y-19391D01*
X33360Y-19372D01*
X32798Y-18772D02*
X32607Y-18772D01*
X32607Y-18372D01*
X32931Y-18562D02*
X33065Y-18562D01*
X33122Y-18772D02*
X32931Y-18772D01*
X32931Y-18372D01*
X33122Y-18372D01*
X33293Y-18772D02*
X33293Y-18372D01*
X33388Y-18372D01*
X33446Y-18391D01*
X33484Y-18429D01*
X33503Y-18467D01*
X33522Y-18543D01*
X33522Y-18600D01*
X33503Y-18677D01*
X33484Y-18715D01*
X33446Y-18753D01*
X33388Y-18772D01*
X33293Y-18772D01*
X32593Y-17372D02*
X32726Y-17772D01*
X32860Y-17372D01*
X32993Y-17772D02*
X32993Y-17505D01*
X32993Y-17372D02*
X32974Y-17391D01*
X32993Y-17410D01*
X33012Y-17391D01*
X32993Y-17372D01*
X32993Y-17410D01*
X33183Y-17505D02*
X33183Y-17772D01*
X33183Y-17543D02*
X33202Y-17524D01*
X33240Y-17505D01*
X33298Y-17505D01*
X33336Y-17524D01*
X33355Y-17562D01*
X33355Y-17772D01*
X32650Y-16772D02*
X32650Y-16372D01*
X33069Y-16772D02*
X32935Y-16581D01*
X32840Y-16772D02*
X32840Y-16372D01*
X32993Y-16372D01*
X33031Y-16391D01*
X33050Y-16410D01*
X33069Y-16448D01*
X33069Y-16505D01*
X33050Y-16543D01*
X33031Y-16562D01*
X32993Y-16581D01*
X32840Y-16581D01*
X32650Y-15620D02*
X32955Y-15620D01*
X22574Y-20567D02*
X22593Y-20548D01*
X22631Y-20529D01*
X22727Y-20529D01*
X22765Y-20548D01*
X22784Y-20567D01*
X22803Y-20605D01*
X22803Y-20643D01*
X22784Y-20700D01*
X22555Y-20929D01*
X22803Y-20929D01*
X23050Y-20529D02*
X23089Y-20529D01*
X23127Y-20548D01*
X23146Y-20567D01*
X23165Y-20605D01*
X23184Y-20681D01*
X23184Y-20777D01*
X23165Y-20853D01*
X23146Y-20891D01*
X23127Y-20910D01*
X23089Y-20929D01*
X23050Y-20929D01*
X23012Y-20910D01*
X22993Y-20891D01*
X22974Y-20853D01*
X22955Y-20777D01*
X22955Y-20681D01*
X22974Y-20605D01*
X22993Y-20567D01*
X23012Y-20548D01*
X23050Y-20529D01*
X23565Y-20929D02*
X23336Y-20929D01*
X23450Y-20929D02*
X23450Y-20529D01*
X23412Y-20586D01*
X23374Y-20624D01*
X23336Y-20643D01*
X23717Y-20567D02*
X23736Y-20548D01*
X23774Y-20529D01*
X23870Y-20529D01*
X23908Y-20548D01*
X23927Y-20567D01*
X23946Y-20605D01*
X23946Y-20643D01*
X23927Y-20700D01*
X23698Y-20929D01*
X23946Y-20929D01*
X24422Y-20777D02*
X24727Y-20777D01*
X25222Y-20929D02*
X25222Y-20529D01*
X25222Y-20681D02*
X25260Y-20662D01*
X25337Y-20662D01*
X25375Y-20681D01*
X25394Y-20700D01*
X25413Y-20738D01*
X25413Y-20853D01*
X25394Y-20891D01*
X25375Y-20910D01*
X25337Y-20929D01*
X25260Y-20929D01*
X25222Y-20910D01*
X25641Y-20929D02*
X25603Y-20910D01*
X25584Y-20872D01*
X25584Y-20529D01*
X25851Y-20929D02*
X25813Y-20910D01*
X25794Y-20891D01*
X25775Y-20853D01*
X25775Y-20738D01*
X25794Y-20700D01*
X25813Y-20681D01*
X25851Y-20662D01*
X25909Y-20662D01*
X25947Y-20681D01*
X25966Y-20700D01*
X25985Y-20738D01*
X25985Y-20853D01*
X25966Y-20891D01*
X25947Y-20910D01*
X25909Y-20929D01*
X25851Y-20929D01*
X26328Y-20662D02*
X26328Y-20986D01*
X26309Y-21024D01*
X26290Y-21043D01*
X26251Y-21062D01*
X26194Y-21062D01*
X26156Y-21043D01*
X26328Y-20910D02*
X26290Y-20929D01*
X26213Y-20929D01*
X26175Y-20910D01*
X26156Y-20891D01*
X26137Y-20853D01*
X26137Y-20738D01*
X26156Y-20700D01*
X26175Y-20681D01*
X26213Y-20662D01*
X26290Y-20662D01*
X26328Y-20681D01*
X26518Y-20891D02*
X26537Y-20910D01*
X26518Y-20929D01*
X26499Y-20910D01*
X26518Y-20891D01*
X26518Y-20929D01*
X26689Y-20910D02*
X26727Y-20929D01*
X26803Y-20929D01*
X26842Y-20910D01*
X26861Y-20872D01*
X26861Y-20853D01*
X26842Y-20815D01*
X26803Y-20796D01*
X26746Y-20796D01*
X26708Y-20777D01*
X26689Y-20738D01*
X26689Y-20719D01*
X26708Y-20681D01*
X26746Y-20662D01*
X26803Y-20662D01*
X26842Y-20681D01*
X27032Y-20662D02*
X27032Y-21062D01*
X27032Y-20681D02*
X27070Y-20662D01*
X27147Y-20662D01*
X27185Y-20681D01*
X27204Y-20700D01*
X27223Y-20738D01*
X27223Y-20853D01*
X27204Y-20891D01*
X27185Y-20910D01*
X27147Y-20929D01*
X27070Y-20929D01*
X27032Y-20910D01*
X27394Y-20929D02*
X27394Y-20662D01*
X27394Y-20529D02*
X27375Y-20548D01*
X27394Y-20567D01*
X27413Y-20548D01*
X27394Y-20529D01*
X27394Y-20567D01*
X27527Y-20662D02*
X27679Y-20662D01*
X27584Y-20529D02*
X27584Y-20872D01*
X27603Y-20910D01*
X27641Y-20929D01*
X27679Y-20929D01*
X27775Y-20662D02*
X27985Y-20662D01*
X27775Y-20929D01*
X27985Y-20929D01*
X28290Y-20910D02*
X28252Y-20929D01*
X28175Y-20929D01*
X28137Y-20910D01*
X28118Y-20872D01*
X28118Y-20719D01*
X28137Y-20681D01*
X28175Y-20662D01*
X28252Y-20662D01*
X28290Y-20681D01*
X28309Y-20719D01*
X28309Y-20757D01*
X28118Y-20796D01*
X28480Y-20662D02*
X28480Y-20929D01*
X28480Y-20700D02*
X28499Y-20681D01*
X28537Y-20662D01*
X28595Y-20662D01*
X28633Y-20681D01*
X28652Y-20719D01*
X28652Y-20929D01*
X28842Y-20662D02*
X28842Y-21062D01*
X28842Y-20681D02*
X28880Y-20662D01*
X28957Y-20662D01*
X28995Y-20681D01*
X29014Y-20700D01*
X29033Y-20738D01*
X29033Y-20853D01*
X29014Y-20891D01*
X28995Y-20910D01*
X28957Y-20929D01*
X28880Y-20929D01*
X28842Y-20910D01*
X29147Y-20662D02*
X29299Y-20662D01*
X29204Y-20929D02*
X29204Y-20586D01*
X29223Y-20548D01*
X29261Y-20529D01*
X29299Y-20529D01*
X29586Y-20910D02*
X29548Y-20929D01*
X29471Y-20929D01*
X29433Y-20910D01*
X29414Y-20872D01*
X29414Y-20719D01*
X29433Y-20681D01*
X29471Y-20662D01*
X29548Y-20662D01*
X29586Y-20681D01*
X29605Y-20719D01*
X29605Y-20757D01*
X29414Y-20796D01*
X29776Y-20929D02*
X29776Y-20662D01*
X29776Y-20529D02*
X29757Y-20548D01*
X29776Y-20567D01*
X29795Y-20548D01*
X29776Y-20529D01*
X29776Y-20567D01*
X30023Y-20929D02*
X29985Y-20910D01*
X29966Y-20872D01*
X29966Y-20529D01*
X30176Y-20891D02*
X30195Y-20910D01*
X30176Y-20929D01*
X30157Y-20910D01*
X30176Y-20891D01*
X30176Y-20929D01*
X30423Y-20929D02*
X30385Y-20910D01*
X30366Y-20891D01*
X30347Y-20853D01*
X30347Y-20738D01*
X30366Y-20700D01*
X30385Y-20681D01*
X30423Y-20662D01*
X30481Y-20662D01*
X30519Y-20681D01*
X30538Y-20700D01*
X30557Y-20738D01*
X30557Y-20853D01*
X30538Y-20891D01*
X30519Y-20910D01*
X30481Y-20929D01*
X30423Y-20929D01*
X30728Y-20929D02*
X30728Y-20662D01*
X30728Y-20738D02*
X30747Y-20700D01*
X30766Y-20681D01*
X30804Y-20662D01*
X30843Y-20662D01*
X31148Y-20662D02*
X31148Y-20986D01*
X31129Y-21024D01*
X31110Y-21043D01*
X31071Y-21062D01*
X31014Y-21062D01*
X30976Y-21043D01*
X31148Y-20910D02*
X31110Y-20929D01*
X31033Y-20929D01*
X30995Y-20910D01*
X30976Y-20891D01*
X30957Y-20853D01*
X30957Y-20738D01*
X30976Y-20700D01*
X30995Y-20681D01*
X31033Y-20662D01*
X31110Y-20662D01*
X31148Y-20681D01*
X26803Y-23095D02*
X26803Y-22695D01*
X27222Y-23095D02*
X27088Y-22904D01*
X26993Y-23095D02*
X26993Y-22695D01*
X27146Y-22695D01*
X27184Y-22714D01*
X27203Y-22733D01*
X27222Y-22771D01*
X27222Y-22828D01*
X27203Y-22866D01*
X27184Y-22885D01*
X27146Y-22904D01*
X26993Y-22904D01*
X27698Y-23095D02*
X27698Y-22828D01*
X27698Y-22904D02*
X27717Y-22866D01*
X27736Y-22847D01*
X27774Y-22828D01*
X27813Y-22828D01*
X28118Y-23095D02*
X28118Y-22885D01*
X28099Y-22847D01*
X28061Y-22828D01*
X27984Y-22828D01*
X27946Y-22847D01*
X28118Y-23076D02*
X28080Y-23095D01*
X27984Y-23095D01*
X27946Y-23076D01*
X27927Y-23038D01*
X27927Y-23000D01*
X27946Y-22962D01*
X27984Y-22943D01*
X28080Y-22943D01*
X28118Y-22923D01*
X28270Y-22828D02*
X28346Y-23095D01*
X28423Y-22904D01*
X28499Y-23095D01*
X28575Y-22828D01*
X29032Y-23095D02*
X29032Y-22828D01*
X29032Y-22904D02*
X29051Y-22866D01*
X29070Y-22847D01*
X29108Y-22828D01*
X29147Y-22828D01*
X29433Y-23076D02*
X29395Y-23095D01*
X29318Y-23095D01*
X29280Y-23076D01*
X29261Y-23038D01*
X29261Y-22885D01*
X29280Y-22847D01*
X29318Y-22828D01*
X29395Y-22828D01*
X29433Y-22847D01*
X29452Y-22885D01*
X29452Y-22923D01*
X29261Y-22962D01*
X29795Y-23076D02*
X29757Y-23095D01*
X29680Y-23095D01*
X29642Y-23076D01*
X29623Y-23057D01*
X29604Y-23019D01*
X29604Y-22904D01*
X29623Y-22866D01*
X29642Y-22847D01*
X29680Y-22828D01*
X29757Y-22828D01*
X29795Y-22847D01*
X30119Y-23076D02*
X30081Y-23095D01*
X30004Y-23095D01*
X29966Y-23076D01*
X29947Y-23038D01*
X29947Y-22885D01*
X29966Y-22847D01*
X30004Y-22828D01*
X30081Y-22828D01*
X30119Y-22847D01*
X30138Y-22885D01*
X30138Y-22923D01*
X29947Y-22962D01*
X30309Y-23095D02*
X30309Y-22828D01*
X30309Y-22695D02*
X30290Y-22714D01*
X30309Y-22733D01*
X30328Y-22714D01*
X30309Y-22695D01*
X30309Y-22733D01*
X30461Y-22828D02*
X30556Y-23095D01*
X30652Y-22828D01*
X30957Y-23076D02*
X30919Y-23095D01*
X30842Y-23095D01*
X30804Y-23076D01*
X30785Y-23038D01*
X30785Y-22885D01*
X30804Y-22847D01*
X30842Y-22828D01*
X30919Y-22828D01*
X30957Y-22847D01*
X30976Y-22885D01*
X30976Y-22923D01*
X30785Y-22962D01*
X31147Y-23095D02*
X31147Y-22828D01*
X31147Y-22904D02*
X31166Y-22866D01*
X31185Y-22847D01*
X31223Y-22828D01*
X31262Y-22828D01*
X31910Y-23095D02*
X31681Y-23095D01*
X31795Y-23095D02*
X31795Y-22695D01*
X31757Y-22752D01*
X31719Y-22790D01*
X31681Y-22809D01*
X32081Y-23057D02*
X32100Y-23076D01*
X32081Y-23095D01*
X32062Y-23076D01*
X32081Y-23057D01*
X32081Y-23095D01*
X32252Y-22733D02*
X32271Y-22714D01*
X32309Y-22695D01*
X32405Y-22695D01*
X32443Y-22714D01*
X32462Y-22733D01*
X32481Y-22771D01*
X32481Y-22809D01*
X32462Y-22866D01*
X32233Y-23095D01*
X32481Y-23095D01*
X32728Y-22695D02*
X32767Y-22695D01*
X32805Y-22714D01*
X32824Y-22733D01*
X32843Y-22771D01*
X32862Y-22847D01*
X32862Y-22943D01*
X32843Y-23019D01*
X32824Y-23057D01*
X32805Y-23076D01*
X32767Y-23095D01*
X32728Y-23095D01*
X32690Y-23076D01*
X32671Y-23057D01*
X32652Y-23019D01*
X32633Y-22943D01*
X32633Y-22847D01*
X32652Y-22771D01*
X32671Y-22733D01*
X32690Y-22714D01*
X32728Y-22695D01*
X20517Y-19892D02*
X20822Y-19892D01*
X20670Y-20044D02*
X20670Y-19739D01*
X23273Y-22451D02*
X23578Y-22451D01*
X23426Y-22603D02*
X23426Y-22298D01*
G54D11*
X22638Y-14370D02*
X22611Y-14637D01*
X22534Y-14895D01*
X22407Y-15132D01*
X22237Y-15340D01*
X22030Y-15512D01*
X21793Y-15640D01*
X21537Y-15719D01*
X21269Y-15747D01*
X21002Y-15723D01*
X20744Y-15647D01*
X20506Y-15523D01*
X20296Y-15354D01*
X20123Y-15148D01*
X19994Y-14912D01*
X19913Y-14656D01*
X19883Y-14389D01*
X19905Y-14122D01*
X19979Y-13863D01*
X20102Y-13624D01*
X20269Y-13413D01*
X20474Y-13239D01*
X20709Y-13108D01*
X20965Y-13025D01*
X21232Y-12993D01*
X21499Y-13013D01*
X21758Y-13086D01*
X21998Y-13207D01*
X22210Y-13373D01*
X22386Y-13576D01*
X22518Y-13810D01*
X22603Y-14065D01*
X22637Y-14332D01*
X22638Y-14370D01*
X22160Y-14370D02*
X22142Y-14544D01*
X22092Y-14712D01*
X22009Y-14868D01*
X21898Y-15004D01*
X21763Y-15116D01*
X21608Y-15199D01*
X21440Y-15251D01*
X21266Y-15269D01*
X21092Y-15254D01*
X20923Y-15204D01*
X20768Y-15123D01*
X20631Y-15013D01*
X20518Y-14878D01*
X20433Y-14724D01*
X20380Y-14557D01*
X20361Y-14382D01*
X20375Y-14208D01*
X20424Y-14039D01*
X20504Y-13883D01*
X20613Y-13745D01*
X20747Y-13631D01*
X20900Y-13546D01*
X21067Y-13491D01*
X21242Y-13471D01*
X21416Y-13484D01*
X21585Y-13531D01*
X21742Y-13611D01*
X21880Y-13719D01*
X21995Y-13852D01*
X22082Y-14004D01*
X22137Y-14171D01*
X22159Y-14345D01*
X22160Y-14370D01*
G54D12*
X35610Y-18610D02*
X35610Y-17610D01*
G54D13*
X34530Y-17726D02*
X34498Y-17768D01*
X34470Y-17812D01*
X34446Y-17859D01*
X34426Y-17907D01*
X34410Y-17957D01*
X34399Y-18008D01*
X34393Y-18060D01*
X34390Y-18110D01*
X34391Y-18110D02*
X34394Y-18162D01*
X34401Y-18214D01*
X34412Y-18265D01*
X34428Y-18314D01*
X34448Y-18363D01*
X34472Y-18409D01*
X34500Y-18453D01*
X34532Y-18495D01*
X34543Y-18507D01*
X35589Y-18110D02*
X35586Y-18058D01*
X35579Y-18006D01*
X35568Y-17955D01*
X35552Y-17906D01*
X35532Y-17857D01*
X35508Y-17811D01*
X35480Y-17767D01*
X35448Y-17725D01*
X35444Y-17721D01*
X35450Y-18494D02*
X35482Y-18452D01*
X35510Y-18408D01*
X35534Y-18361D01*
X35554Y-18313D01*
X35570Y-18263D01*
X35581Y-18212D01*
X35587Y-18160D01*
X35590Y-18110D01*
X35477Y-17761D02*
X35445Y-17720D01*
X35409Y-17682D01*
X35370Y-17647D01*
X35328Y-17615D01*
X35284Y-17588D01*
X35237Y-17564D01*
X35189Y-17545D01*
X35139Y-17529D01*
X35087Y-17519D01*
X35036Y-17512D01*
X34990Y-17510D01*
X34990Y-17510D02*
X34938Y-17513D01*
X34886Y-17520D01*
X34835Y-17531D01*
X34785Y-17547D01*
X34737Y-17567D01*
X34691Y-17591D01*
X34646Y-17619D01*
X34605Y-17651D01*
X34566Y-17686D01*
X34531Y-17725D01*
X34511Y-17750D01*
X34990Y-18709D02*
X35042Y-18706D01*
X35094Y-18699D01*
X35145Y-18688D01*
X35194Y-18672D01*
X35243Y-18652D01*
X35289Y-18628D01*
X35333Y-18600D01*
X35375Y-18568D01*
X35413Y-18533D01*
X35448Y-18495D01*
X35462Y-18477D01*
X34517Y-18478D02*
X34551Y-18518D01*
X34588Y-18555D01*
X34629Y-18588D01*
X34672Y-18618D01*
X34717Y-18644D01*
X34765Y-18665D01*
X34814Y-18683D01*
X34865Y-18696D01*
X34916Y-18705D01*
X34969Y-18709D01*
X34990Y-18710D01*
X34990Y-17860D02*
X34969Y-17861D01*
X34947Y-17864D01*
X34926Y-17869D01*
X34905Y-17876D01*
X34885Y-17884D01*
X34866Y-17894D01*
X34847Y-17906D01*
X34830Y-17919D01*
X34814Y-17934D01*
X34799Y-17950D01*
X34786Y-17967D01*
X34774Y-17986D01*
X34764Y-18005D01*
X34756Y-18025D01*
X34749Y-18046D01*
X34744Y-18067D01*
X34741Y-18089D01*
X34740Y-18110D01*
X34990Y-17710D02*
X34956Y-17712D01*
X34921Y-17717D01*
X34887Y-17724D01*
X34854Y-17735D01*
X34821Y-17748D01*
X34791Y-17764D01*
X34761Y-17783D01*
X34733Y-17804D01*
X34708Y-17828D01*
X34684Y-17853D01*
X34663Y-17881D01*
X34644Y-17911D01*
X34628Y-17941D01*
X34615Y-17974D01*
X34604Y-18007D01*
X34597Y-18041D01*
X34592Y-18076D01*
X34590Y-18110D01*
X34990Y-18360D02*
X35011Y-18359D01*
X35033Y-18356D01*
X35054Y-18351D01*
X35075Y-18344D01*
X35095Y-18336D01*
X35115Y-18326D01*
X35133Y-18314D01*
X35150Y-18301D01*
X35166Y-18286D01*
X35181Y-18270D01*
X35194Y-18253D01*
X35206Y-18234D01*
X35216Y-18215D01*
X35224Y-18195D01*
X35231Y-18174D01*
X35236Y-18153D01*
X35239Y-18131D01*
X35240Y-18110D01*
X34990Y-18510D02*
X35024Y-18508D01*
X35059Y-18503D01*
X35093Y-18496D01*
X35126Y-18485D01*
X35159Y-18472D01*
X35190Y-18456D01*
X35219Y-18437D01*
X35247Y-18416D01*
X35272Y-18392D01*
X35296Y-18367D01*
X35317Y-18339D01*
X35336Y-18309D01*
X35352Y-18279D01*
X35365Y-18246D01*
X35376Y-18213D01*
X35383Y-18179D01*
X35388Y-18144D01*
X35390Y-18110D01*
G54D12*
X35603Y-17597D02*
X35556Y-17546D01*
X35505Y-17499D01*
X35450Y-17456D01*
X35391Y-17418D01*
X35329Y-17386D01*
X35264Y-17359D01*
X35198Y-17338D01*
X35130Y-17323D01*
X35061Y-17314D01*
X34991Y-17311D01*
X34990Y-17310D01*
X34990Y-17311D02*
X34921Y-17315D01*
X34852Y-17324D01*
X34784Y-17339D01*
X34717Y-17360D01*
X34653Y-17386D01*
X34591Y-17419D01*
X34532Y-17456D01*
X34477Y-17498D01*
X34426Y-17546D01*
X34378Y-17597D01*
X34336Y-17652D01*
X34299Y-17711D01*
X34286Y-17734D01*
X34991Y-18907D02*
X35060Y-18904D01*
X35129Y-18895D01*
X35197Y-18880D01*
X35264Y-18859D01*
X35328Y-18832D01*
X35390Y-18800D01*
X35448Y-18762D01*
X35504Y-18720D01*
X35555Y-18673D01*
X35599Y-18625D01*
X34296Y-18507D02*
X34334Y-18566D01*
X34376Y-18622D01*
X34423Y-18673D01*
X34474Y-18721D01*
X34529Y-18763D01*
X34588Y-18801D01*
X34650Y-18833D01*
X34714Y-18860D01*
X34781Y-18882D01*
X34849Y-18897D01*
X34918Y-18906D01*
X34988Y-18909D01*
X34990Y-18910D01*
X34286Y-17731D02*
X34256Y-17794D01*
X34231Y-17859D01*
X34212Y-17926D01*
X34199Y-17995D01*
X34192Y-18064D01*
X34190Y-18110D01*
X34191Y-18110D02*
X34195Y-18179D01*
X34204Y-18248D01*
X34219Y-18316D01*
X34240Y-18383D01*
X34266Y-18447D01*
X34299Y-18509D01*
X34310Y-18528D01*
G54D11*
X26299Y-15255D02*
X26299Y-13287D01*
X23307Y-13287D02*
X23307Y-15255D01*
X23307Y-15255D02*
X26299Y-15255D01*
X26299Y-13287D02*
X23346Y-13287D01*
X23346Y-13287D02*
X23307Y-13287D01*
X26535Y-13051D02*
X26535Y-14271D01*
X26535Y-13051D02*
X25275Y-13051D01*
X35827Y-21850D02*
X35800Y-22117D01*
X35723Y-22375D01*
X35596Y-22612D01*
X35426Y-22820D01*
X35219Y-22992D01*
X34982Y-23120D01*
X34726Y-23199D01*
X34458Y-23227D01*
X34191Y-23203D01*
X33933Y-23127D01*
X33695Y-23003D01*
X33485Y-22834D01*
X33312Y-22628D01*
X33183Y-22392D01*
X33102Y-22136D01*
X33072Y-21869D01*
X33094Y-21602D01*
X33168Y-21343D01*
X33291Y-21104D01*
X33458Y-20893D01*
X33663Y-20719D01*
X33898Y-20588D01*
X34154Y-20505D01*
X34421Y-20473D01*
X34688Y-20493D01*
X34947Y-20566D01*
X35187Y-20687D01*
X35399Y-20853D01*
X35575Y-21056D01*
X35707Y-21290D01*
X35792Y-21545D01*
X35826Y-21812D01*
X35827Y-21850D01*
X35349Y-21850D02*
X35331Y-22024D01*
X35281Y-22192D01*
X35198Y-22348D01*
X35087Y-22484D01*
X34952Y-22596D01*
X34797Y-22679D01*
X34629Y-22731D01*
X34455Y-22749D01*
X34281Y-22734D01*
X34112Y-22684D01*
X33957Y-22603D01*
X33820Y-22493D01*
X33707Y-22358D01*
X33622Y-22204D01*
X33569Y-22037D01*
X33550Y-21862D01*
X33564Y-21688D01*
X33613Y-21519D01*
X33693Y-21363D01*
X33802Y-21225D01*
X33936Y-21111D01*
X34089Y-21026D01*
X34256Y-20971D01*
X34431Y-20951D01*
X34605Y-20964D01*
X34774Y-21011D01*
X34931Y-21091D01*
X35069Y-21199D01*
X35184Y-21332D01*
X35271Y-21484D01*
X35326Y-21651D01*
X35348Y-21825D01*
X35349Y-21850D01*
X35827Y-14370D02*
X35800Y-14637D01*
X35723Y-14895D01*
X35596Y-15132D01*
X35426Y-15340D01*
X35219Y-15512D01*
X34982Y-15640D01*
X34726Y-15719D01*
X34458Y-15747D01*
X34191Y-15723D01*
X33933Y-15647D01*
X33695Y-15523D01*
X33485Y-15354D01*
X33312Y-15148D01*
X33183Y-14912D01*
X33102Y-14656D01*
X33072Y-14389D01*
X33094Y-14122D01*
X33168Y-13863D01*
X33291Y-13624D01*
X33458Y-13413D01*
X33663Y-13239D01*
X33898Y-13108D01*
X34154Y-13025D01*
X34421Y-12993D01*
X34688Y-13013D01*
X34947Y-13086D01*
X35187Y-13207D01*
X35399Y-13373D01*
X35575Y-13576D01*
X35707Y-13810D01*
X35792Y-14065D01*
X35826Y-14332D01*
X35827Y-14370D01*
X35349Y-14370D02*
X35331Y-14544D01*
X35281Y-14712D01*
X35198Y-14868D01*
X35087Y-15004D01*
X34952Y-15116D01*
X34797Y-15199D01*
X34629Y-15251D01*
X34455Y-15269D01*
X34281Y-15254D01*
X34112Y-15204D01*
X33957Y-15123D01*
X33820Y-15013D01*
X33707Y-14878D01*
X33622Y-14724D01*
X33569Y-14557D01*
X33550Y-14382D01*
X33564Y-14208D01*
X33613Y-14039D01*
X33693Y-13883D01*
X33802Y-13745D01*
X33936Y-13631D01*
X34089Y-13546D01*
X34256Y-13491D01*
X34431Y-13471D01*
X34605Y-13484D01*
X34774Y-13531D01*
X34931Y-13611D01*
X35069Y-13719D01*
X35184Y-13852D01*
X35271Y-14004D01*
X35326Y-14171D01*
X35348Y-14345D01*
X35349Y-14370D01*
X22637Y-21850D02*
X22610Y-22117D01*
X22533Y-22375D01*
X22406Y-22612D01*
X22236Y-22820D01*
X22029Y-22992D01*
X21792Y-23120D01*
X21536Y-23199D01*
X21268Y-23227D01*
X21001Y-23203D01*
X20743Y-23127D01*
X20505Y-23003D01*
X20295Y-22834D01*
X20122Y-22628D01*
X19993Y-22392D01*
X19912Y-22136D01*
X19882Y-21869D01*
X19904Y-21602D01*
X19978Y-21343D01*
X20101Y-21104D01*
X20268Y-20893D01*
X20473Y-20719D01*
X20708Y-20588D01*
X20964Y-20505D01*
X21231Y-20473D01*
X21498Y-20493D01*
X21757Y-20566D01*
X21997Y-20687D01*
X22209Y-20853D01*
X22385Y-21056D01*
X22517Y-21290D01*
X22602Y-21545D01*
X22636Y-21812D01*
X22637Y-21850D01*
X22159Y-21850D02*
X22141Y-22024D01*
X22091Y-22192D01*
X22008Y-22348D01*
X21897Y-22484D01*
X21762Y-22596D01*
X21607Y-22679D01*
X21439Y-22731D01*
X21265Y-22749D01*
X21091Y-22734D01*
X20922Y-22684D01*
X20767Y-22603D01*
X20630Y-22493D01*
X20517Y-22358D01*
X20432Y-22204D01*
X20379Y-22037D01*
X20360Y-21862D01*
X20374Y-21688D01*
X20423Y-21519D01*
X20503Y-21363D01*
X20612Y-21225D01*
X20746Y-21111D01*
X20899Y-21026D01*
X21066Y-20971D01*
X21241Y-20951D01*
X21415Y-20964D01*
X21584Y-21011D01*
X21741Y-21091D01*
X21879Y-21199D01*
X21994Y-21332D01*
X22081Y-21484D01*
X22136Y-21651D01*
X22158Y-21825D01*
X22159Y-21850D01*
G54D14*
G36*
X34605Y-17223D02*
X34622Y-17221D01*
X34638Y-17216D01*
X34645Y-17212D01*
X34659Y-17202D01*
X34670Y-17190D01*
X34679Y-17176D01*
X34685Y-17160D01*
X34687Y-17144D01*
X34687Y-17127D01*
X34683Y-17111D01*
X34675Y-17095D01*
X34670Y-17088D01*
X34663Y-17080D01*
X34656Y-17073D01*
X34648Y-17068D01*
X34646Y-17066D01*
X34632Y-17060D01*
X34617Y-17056D01*
X34600Y-17055D01*
X34594Y-17056D01*
X34585Y-17057D01*
X34577Y-17059D01*
X34568Y-17063D01*
X34558Y-17068D01*
X34544Y-17079D01*
X34533Y-17092D01*
X34525Y-17108D01*
X34522Y-17115D01*
X34520Y-17123D01*
X34519Y-17130D01*
X34519Y-17131D01*
X34519Y-17131D01*
X34518Y-17128D01*
X34518Y-17127D01*
X34516Y-17116D01*
X34512Y-17105D01*
X34507Y-17095D01*
X34497Y-17083D01*
X34484Y-17071D01*
X34470Y-17062D01*
X34453Y-17057D01*
X34435Y-17055D01*
X34431Y-17055D01*
X34417Y-17057D01*
X34405Y-17060D01*
X34402Y-17061D01*
X34388Y-17069D01*
X34375Y-17080D01*
X34365Y-17092D01*
X34357Y-17107D01*
X34352Y-17122D01*
X34352Y-17122D01*
X34351Y-17126D01*
X34351Y-17128D01*
X34351Y-17128D01*
X34351Y-17126D01*
X34350Y-17122D01*
X34349Y-17120D01*
X34344Y-17105D01*
X34336Y-17091D01*
X34325Y-17078D01*
X34315Y-17070D01*
X34301Y-17062D01*
X34285Y-17057D01*
X34267Y-17055D01*
X34254Y-17056D01*
X34237Y-17060D01*
X34222Y-17068D01*
X34209Y-17079D01*
X34197Y-17092D01*
X34196Y-17094D01*
X34192Y-17100D01*
X34190Y-17105D01*
X34188Y-17109D01*
X34186Y-17117D01*
X34184Y-17124D01*
X34183Y-17130D01*
X34183Y-17131D01*
X34183Y-17131D01*
X34182Y-17127D01*
X34180Y-17118D01*
X34176Y-17106D01*
X34171Y-17096D01*
X34161Y-17083D01*
X34148Y-17071D01*
X34133Y-17062D01*
X34117Y-17057D01*
X34099Y-17055D01*
X34083Y-17056D01*
X34067Y-17061D01*
X34052Y-17069D01*
X34038Y-17081D01*
X34032Y-17088D01*
X34025Y-17097D01*
X34020Y-17108D01*
X34017Y-17117D01*
X34015Y-17134D01*
X34015Y-17150D01*
X34019Y-17166D01*
X34025Y-17181D01*
X34035Y-17194D01*
X34046Y-17205D01*
X34060Y-17214D01*
X34075Y-17220D01*
X34092Y-17223D01*
X34094Y-17223D01*
X34111Y-17222D01*
X34127Y-17219D01*
X34143Y-17211D01*
X34148Y-17208D01*
X34159Y-17198D01*
X34169Y-17186D01*
X34176Y-17173D01*
X34178Y-17168D01*
X34180Y-17161D01*
X34182Y-17154D01*
X34183Y-17148D01*
X34183Y-17145D01*
X34183Y-17148D01*
X34184Y-17151D01*
X34185Y-17158D01*
X34188Y-17167D01*
X34190Y-17174D01*
X34194Y-17181D01*
X34205Y-17195D01*
X34217Y-17207D01*
X34232Y-17216D01*
X34249Y-17222D01*
X34252Y-17222D01*
X34264Y-17223D01*
X34276Y-17223D01*
X34287Y-17221D01*
X34298Y-17218D01*
X34314Y-17209D01*
X34328Y-17198D01*
X34329Y-17197D01*
X34338Y-17185D01*
X34345Y-17171D01*
X34350Y-17157D01*
X34350Y-17156D01*
X34351Y-17152D01*
X34351Y-17150D01*
X34351Y-17151D01*
X34352Y-17155D01*
X34352Y-17156D01*
X34354Y-17165D01*
X34358Y-17174D01*
X34363Y-17184D01*
X34371Y-17194D01*
X34383Y-17206D01*
X34398Y-17215D01*
X34415Y-17221D01*
X34418Y-17222D01*
X34429Y-17223D01*
X34441Y-17223D01*
X34452Y-17222D01*
X34462Y-17219D01*
X34477Y-17212D01*
X34491Y-17201D01*
X34503Y-17189D01*
X34512Y-17174D01*
X34514Y-17169D01*
X34516Y-17161D01*
X34518Y-17154D01*
X34519Y-17148D01*
X34519Y-17147D01*
X34519Y-17147D01*
X34520Y-17151D01*
X34520Y-17151D01*
X34522Y-17162D01*
X34526Y-17173D01*
X34531Y-17183D01*
X34534Y-17186D01*
X34544Y-17199D01*
X34558Y-17210D01*
X34572Y-17218D01*
X34588Y-17222D01*
X34605Y-17223D01*
X34605Y-17223D01*
G37*
G36*
X33925Y-17055D02*
X33935Y-17055D01*
X33945Y-17054D01*
X33956Y-17051D01*
X33972Y-17044D01*
X33986Y-17034D01*
X33998Y-17021D01*
X34006Y-17007D01*
X34012Y-16991D01*
X34014Y-16973D01*
X34013Y-16956D01*
X34009Y-16940D01*
X34001Y-16925D01*
X33991Y-16912D01*
X33977Y-16901D01*
X33973Y-16898D01*
X33957Y-16890D01*
X33940Y-16887D01*
X33922Y-16887D01*
X33905Y-16890D01*
X33891Y-16896D01*
X33876Y-16906D01*
X33864Y-16918D01*
X33855Y-16933D01*
X33848Y-16950D01*
X33847Y-16958D01*
X33846Y-16969D01*
X33846Y-16980D01*
X33848Y-16989D01*
X33849Y-16992D01*
X33855Y-17009D01*
X33865Y-17024D01*
X33878Y-17037D01*
X33893Y-17046D01*
X33900Y-17049D01*
X33910Y-17053D01*
X33919Y-17054D01*
X33925Y-17055D01*
X33925Y-17055D01*
G37*
G36*
X34774Y-17055D02*
X34791Y-17053D01*
X34808Y-17047D01*
X34823Y-17037D01*
X34827Y-17035D01*
X34838Y-17022D01*
X34848Y-17008D01*
X34854Y-16991D01*
X34855Y-16983D01*
X34856Y-16972D01*
X34856Y-16961D01*
X34854Y-16952D01*
X34853Y-16948D01*
X34846Y-16931D01*
X34837Y-16917D01*
X34825Y-16905D01*
X34810Y-16896D01*
X34794Y-16889D01*
X34776Y-16886D01*
X34770Y-16886D01*
X34753Y-16888D01*
X34737Y-16894D01*
X34723Y-16902D01*
X34711Y-16913D01*
X34701Y-16926D01*
X34693Y-16941D01*
X34689Y-16957D01*
X34688Y-16974D01*
X34689Y-16985D01*
X34691Y-16994D01*
X34694Y-17004D01*
X34701Y-17017D01*
X34712Y-17030D01*
X34725Y-17041D01*
X34740Y-17049D01*
X34756Y-17054D01*
X34774Y-17055D01*
X34774Y-17055D01*
G37*
G36*
X33757Y-16886D02*
X33769Y-16886D01*
X33779Y-16885D01*
X33791Y-16881D01*
X33807Y-16873D01*
X33821Y-16862D01*
X33830Y-16851D01*
X33839Y-16837D01*
X33844Y-16820D01*
X33845Y-16813D01*
X33846Y-16803D01*
X33845Y-16793D01*
X33844Y-16785D01*
X33843Y-16779D01*
X33836Y-16763D01*
X33827Y-16748D01*
X33814Y-16736D01*
X33799Y-16727D01*
X33793Y-16724D01*
X33782Y-16720D01*
X33771Y-16718D01*
X33759Y-16718D01*
X33751Y-16719D01*
X33742Y-16720D01*
X33733Y-16722D01*
X33724Y-16727D01*
X33719Y-16729D01*
X33705Y-16740D01*
X33693Y-16753D01*
X33684Y-16768D01*
X33679Y-16785D01*
X33678Y-16789D01*
X33677Y-16799D01*
X33678Y-16810D01*
X33679Y-16819D01*
X33680Y-16825D01*
X33687Y-16841D01*
X33696Y-16856D01*
X33709Y-16868D01*
X33724Y-16877D01*
X33741Y-16884D01*
X33746Y-16885D01*
X33757Y-16886D01*
X33757Y-16886D01*
G37*
G36*
X34433Y-16886D02*
X34450Y-16885D01*
X34466Y-16881D01*
X34475Y-16876D01*
X34489Y-16866D01*
X34501Y-16854D01*
X34511Y-16839D01*
X34516Y-16822D01*
X34517Y-16819D01*
X34519Y-16805D01*
X34519Y-16792D01*
X34515Y-16778D01*
X34509Y-16761D01*
X34499Y-16747D01*
X34486Y-16735D01*
X34471Y-16726D01*
X34454Y-16720D01*
X34443Y-16717D01*
X34449Y-16717D01*
X34450Y-16716D01*
X34462Y-16713D01*
X34475Y-16708D01*
X34486Y-16700D01*
X34488Y-16698D01*
X34501Y-16686D01*
X34510Y-16672D01*
X34516Y-16656D01*
X34519Y-16640D01*
X34518Y-16624D01*
X34515Y-16607D01*
X34507Y-16592D01*
X34507Y-16591D01*
X34497Y-16577D01*
X34484Y-16566D01*
X34470Y-16558D01*
X34454Y-16553D01*
X34438Y-16550D01*
X34422Y-16551D01*
X34406Y-16555D01*
X34391Y-16563D01*
X34377Y-16573D01*
X34369Y-16581D01*
X34361Y-16594D01*
X34355Y-16607D01*
X34352Y-16619D01*
X34351Y-16622D01*
X34351Y-16624D01*
X34351Y-16623D01*
X34350Y-16619D01*
X34347Y-16608D01*
X34342Y-16596D01*
X34335Y-16585D01*
X34331Y-16579D01*
X34318Y-16567D01*
X34304Y-16558D01*
X34287Y-16553D01*
X34270Y-16550D01*
X34253Y-16551D01*
X34243Y-16554D01*
X34226Y-16561D01*
X34212Y-16571D01*
X34200Y-16583D01*
X34191Y-16598D01*
X34185Y-16614D01*
X34184Y-16623D01*
X34183Y-16639D01*
X34186Y-16656D01*
X34192Y-16672D01*
X34202Y-16686D01*
X34214Y-16698D01*
X34229Y-16708D01*
X34235Y-16711D01*
X34243Y-16714D01*
X34250Y-16716D01*
X34256Y-16717D01*
X34257Y-16717D01*
X34256Y-16718D01*
X34253Y-16719D01*
X34244Y-16721D01*
X34233Y-16725D01*
X34223Y-16730D01*
X34218Y-16733D01*
X34207Y-16743D01*
X34197Y-16755D01*
X34190Y-16768D01*
X34185Y-16782D01*
X34183Y-16797D01*
X34183Y-16812D01*
X34184Y-16815D01*
X34189Y-16832D01*
X34196Y-16848D01*
X34208Y-16862D01*
X34217Y-16870D01*
X34232Y-16879D01*
X34249Y-16885D01*
X34256Y-16885D01*
X34265Y-16886D01*
X34274Y-16885D01*
X34283Y-16885D01*
X34290Y-16883D01*
X34296Y-16882D01*
X34312Y-16873D01*
X34326Y-16862D01*
X34337Y-16849D01*
X34341Y-16842D01*
X34347Y-16831D01*
X34350Y-16820D01*
X34350Y-16819D01*
X34351Y-16815D01*
X34351Y-16813D01*
X34351Y-16813D01*
X34351Y-16791D01*
X34351Y-16791D01*
X34351Y-16789D01*
X34350Y-16785D01*
X34350Y-16783D01*
X34345Y-16768D01*
X34336Y-16754D01*
X34326Y-16742D01*
X34313Y-16731D01*
X34299Y-16724D01*
X34298Y-16723D01*
X34290Y-16721D01*
X34283Y-16719D01*
X34276Y-16718D01*
X34283Y-16716D01*
X34293Y-16714D01*
X34308Y-16707D01*
X34322Y-16698D01*
X34333Y-16686D01*
X34342Y-16672D01*
X34346Y-16665D01*
X34349Y-16656D01*
X34350Y-16649D01*
X34351Y-16646D01*
X34351Y-16644D01*
X34351Y-16645D01*
X34352Y-16649D01*
X34353Y-16655D01*
X34356Y-16664D01*
X34360Y-16672D01*
X34365Y-16681D01*
X34376Y-16693D01*
X34389Y-16704D01*
X34404Y-16712D01*
X34419Y-16716D01*
X34427Y-16718D01*
X34419Y-16719D01*
X34418Y-16719D01*
X34411Y-16721D01*
X34403Y-16724D01*
X34402Y-16724D01*
X34388Y-16732D01*
X34375Y-16743D01*
X34365Y-16755D01*
X34357Y-16770D01*
X34352Y-16784D01*
X34352Y-16785D01*
X34351Y-16789D01*
X34351Y-16791D01*
X34351Y-16813D01*
X34351Y-16813D01*
X34351Y-16815D01*
X34352Y-16820D01*
X34355Y-16830D01*
X34362Y-16845D01*
X34373Y-16859D01*
X34385Y-16870D01*
X34400Y-16879D01*
X34400Y-16879D01*
X34416Y-16884D01*
X34433Y-16886D01*
X34433Y-16886D01*
G37*
G36*
X34934Y-16886D02*
X34948Y-16886D01*
X34960Y-16884D01*
X34968Y-16882D01*
X34984Y-16874D01*
X34998Y-16864D01*
X35009Y-16851D01*
X35018Y-16836D01*
X35023Y-16820D01*
X35025Y-16802D01*
X35024Y-16795D01*
X35021Y-16778D01*
X35014Y-16761D01*
X35004Y-16746D01*
X35001Y-16743D01*
X34989Y-16733D01*
X34975Y-16725D01*
X34960Y-16720D01*
X34960Y-16720D01*
X34947Y-16718D01*
X34933Y-16718D01*
X34921Y-16720D01*
X34916Y-16721D01*
X34900Y-16728D01*
X34886Y-16737D01*
X34875Y-16749D01*
X34866Y-16763D01*
X34859Y-16778D01*
X34856Y-16795D01*
X34857Y-16812D01*
X34860Y-16829D01*
X34866Y-16842D01*
X34876Y-16856D01*
X34888Y-16868D01*
X34903Y-16877D01*
X34919Y-16884D01*
X34921Y-16884D01*
X34934Y-16886D01*
X34934Y-16886D01*
G37*
G36*
X34101Y-16382D02*
X34118Y-16380D01*
X34134Y-16374D01*
X34142Y-16370D01*
X34149Y-16365D01*
X34157Y-16358D01*
X34166Y-16348D01*
X34175Y-16334D01*
X34181Y-16318D01*
X34182Y-16313D01*
X34183Y-16302D01*
X34183Y-16290D01*
X34181Y-16280D01*
X34177Y-16266D01*
X34169Y-16251D01*
X34159Y-16238D01*
X34157Y-16236D01*
X34149Y-16230D01*
X34140Y-16224D01*
X34132Y-16220D01*
X34129Y-16219D01*
X34122Y-16216D01*
X34115Y-16215D01*
X34110Y-16214D01*
X34107Y-16214D01*
X34110Y-16213D01*
X34114Y-16212D01*
X34120Y-16211D01*
X34126Y-16209D01*
X34138Y-16203D01*
X34151Y-16195D01*
X34161Y-16186D01*
X34162Y-16184D01*
X34173Y-16170D01*
X34179Y-16154D01*
X34183Y-16137D01*
X34183Y-16120D01*
X34182Y-16116D01*
X34177Y-16099D01*
X34169Y-16083D01*
X34158Y-16069D01*
X34148Y-16060D01*
X34133Y-16052D01*
X34117Y-16046D01*
X34113Y-16046D01*
X34102Y-16045D01*
X34090Y-16045D01*
X34079Y-16047D01*
X34070Y-16050D01*
X34054Y-16057D01*
X34041Y-16068D01*
X34030Y-16080D01*
X34021Y-16095D01*
X34016Y-16111D01*
X34016Y-16113D01*
X34015Y-16117D01*
X34014Y-16119D01*
X34014Y-16117D01*
X34013Y-16113D01*
X34011Y-16106D01*
X34009Y-16099D01*
X34006Y-16092D01*
X34003Y-16087D01*
X33993Y-16073D01*
X33980Y-16061D01*
X33965Y-16052D01*
X33949Y-16047D01*
X33931Y-16045D01*
X33917Y-16046D01*
X33901Y-16050D01*
X33886Y-16057D01*
X33877Y-16063D01*
X33865Y-16075D01*
X33856Y-16090D01*
X33849Y-16105D01*
X33846Y-16122D01*
X33846Y-16139D01*
X33850Y-16154D01*
X33857Y-16171D01*
X33867Y-16185D01*
X33880Y-16196D01*
X33895Y-16205D01*
X33912Y-16211D01*
X33922Y-16214D01*
X33916Y-16214D01*
X33913Y-16215D01*
X33899Y-16219D01*
X33886Y-16226D01*
X33874Y-16235D01*
X33864Y-16245D01*
X33858Y-16254D01*
X33852Y-16266D01*
X33848Y-16277D01*
X33847Y-16286D01*
X33846Y-16296D01*
X33846Y-16307D01*
X33848Y-16316D01*
X33851Y-16326D01*
X33859Y-16342D01*
X33869Y-16356D01*
X33883Y-16367D01*
X33898Y-16375D01*
X33916Y-16381D01*
X33920Y-16381D01*
X33931Y-16382D01*
X33942Y-16381D01*
X33951Y-16379D01*
X33958Y-16377D01*
X33974Y-16369D01*
X33988Y-16359D01*
X33999Y-16346D01*
X34008Y-16331D01*
X34013Y-16314D01*
X34013Y-16313D01*
X34014Y-16309D01*
X34015Y-16309D01*
X34015Y-16286D01*
X34014Y-16285D01*
X34013Y-16282D01*
X34013Y-16281D01*
X34010Y-16270D01*
X34005Y-16258D01*
X33998Y-16247D01*
X33993Y-16241D01*
X33980Y-16229D01*
X33964Y-16220D01*
X33947Y-16215D01*
X33939Y-16213D01*
X33945Y-16212D01*
X33950Y-16211D01*
X33955Y-16209D01*
X33959Y-16208D01*
X33974Y-16201D01*
X33988Y-16190D01*
X33999Y-16178D01*
X34007Y-16163D01*
X34013Y-16147D01*
X34013Y-16143D01*
X34014Y-16140D01*
X34015Y-16142D01*
X34016Y-16147D01*
X34016Y-16147D01*
X34019Y-16156D01*
X34023Y-16166D01*
X34028Y-16175D01*
X34033Y-16181D01*
X34040Y-16189D01*
X34049Y-16197D01*
X34057Y-16202D01*
X34057Y-16202D01*
X34070Y-16208D01*
X34084Y-16212D01*
X34090Y-16213D01*
X34083Y-16214D01*
X34068Y-16219D01*
X34053Y-16227D01*
X34040Y-16237D01*
X34029Y-16250D01*
X34026Y-16254D01*
X34022Y-16262D01*
X34019Y-16271D01*
X34016Y-16279D01*
X34015Y-16284D01*
X34015Y-16284D01*
X34015Y-16286D01*
X34015Y-16309D01*
X34015Y-16309D01*
X34016Y-16313D01*
X34017Y-16318D01*
X34018Y-16323D01*
X34022Y-16332D01*
X34030Y-16347D01*
X34041Y-16359D01*
X34054Y-16369D01*
X34069Y-16376D01*
X34085Y-16381D01*
X34101Y-16382D01*
X34101Y-16382D01*
G37*
G36*
X34608Y-16382D02*
X34624Y-16379D01*
X34640Y-16373D01*
X34654Y-16364D01*
X34667Y-16353D01*
X34676Y-16339D01*
X34684Y-16323D01*
X34685Y-16318D01*
X34686Y-16313D01*
X34686Y-16312D01*
X34687Y-16309D01*
X34687Y-16309D01*
X34687Y-16286D01*
X34687Y-16283D01*
X34685Y-16277D01*
X34682Y-16268D01*
X34675Y-16253D01*
X34664Y-16239D01*
X34652Y-16228D01*
X34637Y-16220D01*
X34620Y-16215D01*
X34612Y-16213D01*
X34618Y-16212D01*
X34619Y-16212D01*
X34632Y-16208D01*
X34645Y-16202D01*
X34651Y-16199D01*
X34659Y-16192D01*
X34667Y-16183D01*
X34674Y-16175D01*
X34678Y-16168D01*
X34683Y-16157D01*
X34686Y-16147D01*
X34687Y-16143D01*
X34687Y-16140D01*
X34688Y-16142D01*
X34689Y-16147D01*
X34693Y-16158D01*
X34700Y-16173D01*
X34711Y-16187D01*
X34724Y-16198D01*
X34740Y-16207D01*
X34757Y-16212D01*
X34763Y-16213D01*
X34755Y-16215D01*
X34747Y-16217D01*
X34731Y-16224D01*
X34716Y-16234D01*
X34704Y-16247D01*
X34701Y-16252D01*
X34696Y-16260D01*
X34693Y-16269D01*
X34691Y-16275D01*
X34689Y-16281D01*
X34689Y-16281D01*
X34688Y-16285D01*
X34687Y-16286D01*
X34687Y-16309D01*
X34688Y-16310D01*
X34689Y-16314D01*
X34690Y-16320D01*
X34695Y-16332D01*
X34702Y-16344D01*
X34707Y-16351D01*
X34719Y-16363D01*
X34734Y-16373D01*
X34751Y-16379D01*
X34759Y-16381D01*
X34770Y-16381D01*
X34782Y-16381D01*
X34793Y-16379D01*
X34794Y-16379D01*
X34811Y-16372D01*
X34825Y-16362D01*
X34838Y-16350D01*
X34847Y-16335D01*
X34854Y-16318D01*
X34855Y-16311D01*
X34856Y-16299D01*
X34855Y-16287D01*
X34854Y-16277D01*
X34851Y-16268D01*
X34845Y-16256D01*
X34838Y-16245D01*
X34830Y-16237D01*
X34820Y-16228D01*
X34809Y-16222D01*
X34805Y-16220D01*
X34797Y-16217D01*
X34789Y-16215D01*
X34783Y-16214D01*
X34783Y-16214D01*
X34785Y-16213D01*
X34790Y-16211D01*
X34799Y-16208D01*
X34810Y-16204D01*
X34820Y-16199D01*
X34821Y-16197D01*
X34832Y-16187D01*
X34842Y-16175D01*
X34849Y-16163D01*
X34852Y-16157D01*
X34855Y-16140D01*
X34856Y-16122D01*
X34853Y-16105D01*
X34852Y-16102D01*
X34845Y-16086D01*
X34834Y-16072D01*
X34821Y-16061D01*
X34806Y-16052D01*
X34790Y-16046D01*
X34787Y-16046D01*
X34776Y-16045D01*
X34763Y-16045D01*
X34752Y-16047D01*
X34750Y-16047D01*
X34733Y-16054D01*
X34718Y-16064D01*
X34706Y-16076D01*
X34696Y-16092D01*
X34694Y-16097D01*
X34691Y-16104D01*
X34689Y-16111D01*
X34688Y-16117D01*
X34688Y-16118D01*
X34688Y-16119D01*
X34687Y-16116D01*
X34686Y-16112D01*
X34683Y-16100D01*
X34676Y-16085D01*
X34665Y-16072D01*
X34653Y-16061D01*
X34638Y-16052D01*
X34638Y-16052D01*
X34622Y-16047D01*
X34605Y-16045D01*
X34588Y-16046D01*
X34572Y-16050D01*
X34563Y-16055D01*
X34549Y-16065D01*
X34537Y-16077D01*
X34527Y-16092D01*
X34522Y-16108D01*
X34521Y-16112D01*
X34519Y-16126D01*
X34519Y-16139D01*
X34523Y-16154D01*
X34530Y-16170D01*
X34540Y-16185D01*
X34553Y-16196D01*
X34568Y-16205D01*
X34585Y-16211D01*
X34589Y-16212D01*
X34592Y-16213D01*
X34592Y-16214D01*
X34587Y-16214D01*
X34577Y-16217D01*
X34567Y-16222D01*
X34557Y-16227D01*
X34547Y-16234D01*
X34536Y-16247D01*
X34527Y-16263D01*
X34525Y-16265D01*
X34520Y-16282D01*
X34519Y-16299D01*
X34521Y-16316D01*
X34527Y-16332D01*
X34530Y-16340D01*
X34536Y-16348D01*
X34543Y-16356D01*
X34543Y-16356D01*
X34557Y-16368D01*
X34572Y-16376D01*
X34589Y-16381D01*
X34591Y-16381D01*
X34608Y-16382D01*
X34608Y-16382D01*
G37*
G36*
X33953Y-20176D02*
X33960Y-20172D01*
X33975Y-20163D01*
X33997Y-20148D01*
X34023Y-20131D01*
X34049Y-20113D01*
X34071Y-20099D01*
X34086Y-20089D01*
X34092Y-20086D01*
X34095Y-20087D01*
X34108Y-20093D01*
X34125Y-20102D01*
X34136Y-20108D01*
X34152Y-20115D01*
X34161Y-20116D01*
X34162Y-20114D01*
X34168Y-20102D01*
X34177Y-20080D01*
X34190Y-20052D01*
X34204Y-20018D01*
X34219Y-19982D01*
X34235Y-19946D01*
X34249Y-19911D01*
X34262Y-19879D01*
X34272Y-19853D01*
X34279Y-19836D01*
X34282Y-19828D01*
X34281Y-19826D01*
X34273Y-19818D01*
X34258Y-19808D01*
X34227Y-19782D01*
X34196Y-19744D01*
X34178Y-19701D01*
X34171Y-19652D01*
X34177Y-19607D01*
X34194Y-19565D01*
X34224Y-19526D01*
X34261Y-19497D01*
X34303Y-19479D01*
X34351Y-19473D01*
X34396Y-19478D01*
X34440Y-19496D01*
X34479Y-19525D01*
X34496Y-19544D01*
X34518Y-19583D01*
X34531Y-19625D01*
X34532Y-19636D01*
X34530Y-19682D01*
X34517Y-19726D01*
X34492Y-19765D01*
X34459Y-19798D01*
X34454Y-19801D01*
X34439Y-19813D01*
X34428Y-19821D01*
X34420Y-19827D01*
X34479Y-19969D01*
X34488Y-19991D01*
X34504Y-20030D01*
X34518Y-20063D01*
X34530Y-20090D01*
X34538Y-20108D01*
X34541Y-20115D01*
X34541Y-20115D01*
X34547Y-20116D01*
X34557Y-20112D01*
X34577Y-20103D01*
X34590Y-20096D01*
X34605Y-20089D01*
X34612Y-20086D01*
X34618Y-20089D01*
X34632Y-20098D01*
X34653Y-20112D01*
X34679Y-20130D01*
X34703Y-20146D01*
X34725Y-20161D01*
X34741Y-20171D01*
X34749Y-20175D01*
X34750Y-20175D01*
X34757Y-20171D01*
X34770Y-20161D01*
X34789Y-20143D01*
X34816Y-20116D01*
X34820Y-20111D01*
X34843Y-20089D01*
X34861Y-20070D01*
X34873Y-20056D01*
X34878Y-20050D01*
X34878Y-20050D01*
X34874Y-20042D01*
X34863Y-20026D01*
X34849Y-20003D01*
X34831Y-19977D01*
X34784Y-19909D01*
X34810Y-19845D01*
X34818Y-19825D01*
X34828Y-19801D01*
X34835Y-19784D01*
X34839Y-19777D01*
X34846Y-19774D01*
X34863Y-19770D01*
X34889Y-19765D01*
X34919Y-19759D01*
X34948Y-19754D01*
X34974Y-19749D01*
X34993Y-19745D01*
X35002Y-19744D01*
X35004Y-19742D01*
X35006Y-19738D01*
X35007Y-19729D01*
X35007Y-19713D01*
X35008Y-19688D01*
X35008Y-19652D01*
X35008Y-19648D01*
X35007Y-19614D01*
X35007Y-19586D01*
X35006Y-19569D01*
X35005Y-19562D01*
X35005Y-19562D01*
X34996Y-19560D01*
X34978Y-19556D01*
X34952Y-19551D01*
X34921Y-19545D01*
X34919Y-19544D01*
X34888Y-19538D01*
X34861Y-19533D01*
X34843Y-19529D01*
X34836Y-19526D01*
X34834Y-19524D01*
X34828Y-19512D01*
X34819Y-19493D01*
X34808Y-19469D01*
X34798Y-19445D01*
X34790Y-19423D01*
X34784Y-19406D01*
X34782Y-19399D01*
X34782Y-19399D01*
X34787Y-19391D01*
X34797Y-19375D01*
X34812Y-19353D01*
X34831Y-19326D01*
X34832Y-19324D01*
X34850Y-19298D01*
X34864Y-19276D01*
X34874Y-19260D01*
X34878Y-19253D01*
X34877Y-19252D01*
X34872Y-19245D01*
X34858Y-19230D01*
X34839Y-19210D01*
X34816Y-19186D01*
X34809Y-19179D01*
X34783Y-19154D01*
X34765Y-19138D01*
X34754Y-19129D01*
X34749Y-19127D01*
X34749Y-19127D01*
X34741Y-19132D01*
X34724Y-19143D01*
X34702Y-19158D01*
X34675Y-19176D01*
X34673Y-19178D01*
X34647Y-19196D01*
X34625Y-19210D01*
X34610Y-19221D01*
X34603Y-19225D01*
X34602Y-19225D01*
X34591Y-19222D01*
X34572Y-19215D01*
X34549Y-19206D01*
X34525Y-19196D01*
X34503Y-19187D01*
X34486Y-19180D01*
X34479Y-19175D01*
X34478Y-19175D01*
X34476Y-19165D01*
X34471Y-19146D01*
X34465Y-19119D01*
X34459Y-19086D01*
X34458Y-19081D01*
X34452Y-19050D01*
X34447Y-19024D01*
X34444Y-19006D01*
X34442Y-18999D01*
X34437Y-18998D01*
X34422Y-18997D01*
X34399Y-18996D01*
X34371Y-18996D01*
X34341Y-18996D01*
X34312Y-18997D01*
X34288Y-18997D01*
X34270Y-18999D01*
X34262Y-19000D01*
X34262Y-19001D01*
X34259Y-19010D01*
X34255Y-19030D01*
X34250Y-19057D01*
X34243Y-19089D01*
X34242Y-19095D01*
X34236Y-19126D01*
X34231Y-19152D01*
X34227Y-19170D01*
X34225Y-19177D01*
X34223Y-19178D01*
X34210Y-19184D01*
X34189Y-19192D01*
X34163Y-19203D01*
X34103Y-19227D01*
X34029Y-19177D01*
X34022Y-19172D01*
X33996Y-19154D01*
X33974Y-19139D01*
X33959Y-19130D01*
X33952Y-19126D01*
X33952Y-19126D01*
X33944Y-19133D01*
X33930Y-19146D01*
X33910Y-19166D01*
X33887Y-19189D01*
X33869Y-19206D01*
X33849Y-19227D01*
X33836Y-19241D01*
X33829Y-19250D01*
X33827Y-19255D01*
X33827Y-19259D01*
X33832Y-19266D01*
X33843Y-19283D01*
X33858Y-19305D01*
X33876Y-19331D01*
X33891Y-19353D01*
X33907Y-19378D01*
X33917Y-19395D01*
X33921Y-19404D01*
X33920Y-19408D01*
X33915Y-19422D01*
X33906Y-19444D01*
X33895Y-19470D01*
X33869Y-19528D01*
X33831Y-19536D01*
X33808Y-19540D01*
X33775Y-19546D01*
X33744Y-19552D01*
X33696Y-19562D01*
X33694Y-19739D01*
X33702Y-19742D01*
X33709Y-19744D01*
X33727Y-19748D01*
X33752Y-19753D01*
X33783Y-19759D01*
X33808Y-19764D01*
X33834Y-19769D01*
X33853Y-19772D01*
X33861Y-19774D01*
X33863Y-19777D01*
X33870Y-19789D01*
X33879Y-19809D01*
X33889Y-19833D01*
X33900Y-19858D01*
X33909Y-19881D01*
X33915Y-19899D01*
X33918Y-19908D01*
X33914Y-19915D01*
X33904Y-19930D01*
X33890Y-19952D01*
X33872Y-19978D01*
X33855Y-20003D01*
X33840Y-20026D01*
X33830Y-20041D01*
X33825Y-20049D01*
X33827Y-20054D01*
X33838Y-20066D01*
X33857Y-20086D01*
X33886Y-20115D01*
X33891Y-20119D01*
X33914Y-20142D01*
X33933Y-20160D01*
X33947Y-20172D01*
X33953Y-20176D01*
X33953Y-20176D01*
G37*
G54D15*
X20169Y-16610D02*
X21169Y-16610D01*
X21169Y-16610D02*
X21169Y-19610D01*
X21169Y-19610D02*
X20169Y-19610D01*
X20169Y-19610D02*
X20169Y-16610D01*
X21169Y-17610D02*
X20169Y-17610D01*
G54D11*
X25303Y-16110D02*
X25303Y-16610D01*
X25303Y-16610D02*
X24303Y-16610D01*
X24303Y-16610D02*
X24303Y-16110D01*
X25803Y-16110D02*
X25803Y-20110D01*
X25803Y-20110D02*
X23803Y-20110D01*
X23803Y-20110D02*
X23803Y-16110D01*
X23803Y-16110D02*
X25803Y-16110D01*
G54D15*
X27256Y-16610D02*
X28256Y-16610D01*
X28256Y-16610D02*
X28256Y-19610D01*
X28256Y-19610D02*
X27256Y-19610D01*
X27256Y-19610D02*
X27256Y-16610D01*
X28256Y-17610D02*
X27256Y-17610D01*
X21547Y-19090D02*
X21547Y-17110D01*
X21547Y-17110D02*
X22547Y-17110D01*
X22547Y-17110D02*
X22547Y-19110D01*
X22547Y-19110D02*
X21547Y-19110D01*
X21797Y-19110D02*
X21547Y-18860D01*
X32398Y-21350D02*
X32398Y-22350D01*
X32398Y-22350D02*
X30398Y-22350D01*
X30398Y-22350D02*
X30398Y-21350D01*
X30398Y-21350D02*
X32398Y-21350D01*
X31098Y-16838D02*
X29118Y-16838D01*
X29118Y-16838D02*
X29118Y-15838D01*
X29118Y-15838D02*
X31118Y-15838D01*
X31118Y-15838D02*
X31118Y-16838D01*
X31118Y-16588D02*
X30868Y-16838D01*
X29138Y-19382D02*
X31118Y-19382D01*
X31118Y-19382D02*
X31118Y-20382D01*
X31118Y-20382D02*
X29118Y-20382D01*
X29118Y-20382D02*
X29118Y-19382D01*
X29118Y-19632D02*
X29368Y-19382D01*
X23823Y-21941D02*
X25803Y-21941D01*
X25803Y-21941D02*
X25803Y-22941D01*
X25803Y-22941D02*
X23803Y-22941D01*
X23803Y-22941D02*
X23803Y-21941D01*
X23803Y-22191D02*
X24053Y-21941D01*
X31390Y-15110D02*
X32390Y-15110D01*
X32390Y-15110D02*
X32390Y-21110D01*
X32390Y-21110D02*
X31390Y-21110D01*
X31390Y-21110D02*
X31390Y-15110D01*
X31390Y-16110D02*
X32390Y-16110D01*
G54D11*
X29566Y-17611D02*
X29525Y-17678D01*
X29490Y-17748D01*
X29462Y-17822D01*
X29440Y-17897D01*
X29425Y-17974D01*
X29416Y-18052D01*
X29415Y-18130D01*
X29420Y-18208D01*
X29432Y-18286D01*
X29451Y-18362D01*
X29476Y-18437D01*
X29508Y-18509D01*
X29546Y-18578D01*
X29589Y-18643D01*
X29639Y-18704D01*
X29693Y-18761D01*
X29752Y-18813D01*
X29816Y-18859D01*
X30814Y-17361D02*
X30747Y-17320D01*
X30677Y-17285D01*
X30603Y-17257D01*
X30528Y-17235D01*
X30451Y-17220D01*
X30373Y-17211D01*
X30295Y-17210D01*
X30217Y-17215D01*
X30139Y-17227D01*
X30063Y-17246D01*
X29988Y-17271D01*
X29916Y-17303D01*
X29847Y-17341D01*
X29782Y-17384D01*
X29721Y-17434D01*
X29664Y-17488D01*
X29612Y-17547D01*
X29566Y-17611D01*
X29566Y-18609D02*
X29612Y-18673D01*
X29664Y-18732D01*
X29721Y-18786D01*
X29782Y-18836D01*
X29847Y-18879D01*
X29916Y-18917D01*
X29988Y-18949D01*
X30063Y-18974D01*
X30139Y-18993D01*
X30217Y-19005D01*
X30295Y-19010D01*
X30373Y-19009D01*
X30451Y-19000D01*
X30528Y-18985D01*
X30603Y-18963D01*
X30677Y-18935D01*
X30747Y-18900D01*
X30814Y-18859D01*
X30815Y-17360D02*
X30815Y-18860D01*
X28256Y-21752D02*
X27256Y-21752D01*
X28815Y-21752D02*
X28804Y-21860D01*
X28772Y-21965D01*
X28721Y-22061D01*
X28652Y-22145D01*
X28568Y-22215D01*
X28472Y-22267D01*
X28368Y-22299D01*
X28259Y-22310D01*
X28152Y-22301D01*
X28047Y-22270D01*
X27950Y-22219D01*
X27865Y-22151D01*
X27795Y-22067D01*
X27743Y-21972D01*
X27710Y-21868D01*
X27698Y-21759D01*
X27707Y-21652D01*
X27737Y-21547D01*
X27787Y-21450D01*
X27854Y-21364D01*
X27937Y-21293D01*
X28033Y-21240D01*
X28136Y-21207D01*
X28245Y-21194D01*
X28353Y-21202D01*
X28458Y-21231D01*
X28555Y-21281D01*
X28641Y-21348D01*
X28712Y-21430D01*
X28766Y-21525D01*
X28801Y-21629D01*
X28814Y-21737D01*
X28815Y-21752D01*
X31890Y-13575D02*
X31890Y-14575D01*
X32449Y-13575D02*
X32438Y-13683D01*
X32406Y-13788D01*
X32355Y-13884D01*
X32286Y-13968D01*
X32202Y-14038D01*
X32106Y-14090D01*
X32002Y-14122D01*
X31893Y-14133D01*
X31786Y-14124D01*
X31681Y-14093D01*
X31584Y-14042D01*
X31499Y-13974D01*
X31429Y-13890D01*
X31377Y-13795D01*
X31344Y-13691D01*
X31332Y-13582D01*
X31341Y-13475D01*
X31371Y-13370D01*
X31421Y-13273D01*
X31488Y-13187D01*
X31571Y-13116D01*
X31667Y-13063D01*
X31770Y-13030D01*
X31879Y-13017D01*
X31987Y-13025D01*
X32092Y-13054D01*
X32189Y-13104D01*
X32275Y-13171D01*
X32346Y-13253D01*
X32400Y-13348D01*
X32435Y-13452D01*
X32448Y-13560D01*
X32449Y-13575D01*
X28445Y-14575D02*
X28445Y-13575D01*
X29004Y-14575D02*
X28993Y-14683D01*
X28961Y-14788D01*
X28910Y-14884D01*
X28841Y-14968D01*
X28757Y-15038D01*
X28661Y-15090D01*
X28557Y-15122D01*
X28448Y-15133D01*
X28341Y-15124D01*
X28236Y-15093D01*
X28139Y-15042D01*
X28054Y-14974D01*
X27984Y-14890D01*
X27932Y-14795D01*
X27899Y-14691D01*
X27887Y-14582D01*
X27896Y-14475D01*
X27926Y-14370D01*
X27976Y-14273D01*
X28043Y-14187D01*
X28126Y-14116D01*
X28222Y-14063D01*
X28325Y-14030D01*
X28434Y-14017D01*
X28542Y-14025D01*
X28647Y-14054D01*
X28744Y-14104D01*
X28830Y-14171D01*
X28901Y-14253D01*
X28955Y-14348D01*
X28990Y-14452D01*
X29003Y-14560D01*
X29004Y-14575D01*
X27362Y-13575D02*
X27362Y-14575D01*
X27921Y-13575D02*
X27910Y-13683D01*
X27878Y-13788D01*
X27827Y-13884D01*
X27758Y-13968D01*
X27674Y-14038D01*
X27578Y-14090D01*
X27474Y-14122D01*
X27365Y-14133D01*
X27258Y-14124D01*
X27153Y-14093D01*
X27056Y-14042D01*
X26971Y-13974D01*
X26901Y-13890D01*
X26849Y-13795D01*
X26816Y-13691D01*
X26804Y-13582D01*
X26813Y-13475D01*
X26843Y-13370D01*
X26893Y-13273D01*
X26960Y-13187D01*
X27043Y-13116D01*
X27139Y-13063D01*
X27242Y-13030D01*
X27351Y-13017D01*
X27459Y-13025D01*
X27564Y-13054D01*
X27661Y-13104D01*
X27747Y-13171D01*
X27818Y-13253D01*
X27872Y-13348D01*
X27907Y-13452D01*
X27920Y-13560D01*
X27921Y-13575D01*
X29528Y-13575D02*
X29528Y-14575D01*
X30087Y-13575D02*
X30076Y-13683D01*
X30044Y-13788D01*
X29993Y-13884D01*
X29924Y-13968D01*
X29840Y-14038D01*
X29744Y-14090D01*
X29640Y-14122D01*
X29531Y-14133D01*
X29424Y-14124D01*
X29319Y-14093D01*
X29222Y-14042D01*
X29137Y-13974D01*
X29067Y-13890D01*
X29015Y-13795D01*
X28982Y-13691D01*
X28970Y-13582D01*
X28979Y-13475D01*
X29009Y-13370D01*
X29059Y-13273D01*
X29126Y-13187D01*
X29209Y-13116D01*
X29305Y-13063D01*
X29408Y-13030D01*
X29517Y-13017D01*
X29625Y-13025D01*
X29730Y-13054D01*
X29827Y-13104D01*
X29913Y-13171D01*
X29984Y-13253D01*
X30038Y-13348D01*
X30073Y-13452D01*
X30086Y-13560D01*
X30087Y-13575D01*
X30709Y-14575D02*
X30709Y-13575D01*
X31268Y-14575D02*
X31257Y-14683D01*
X31225Y-14788D01*
X31174Y-14884D01*
X31105Y-14968D01*
X31021Y-15038D01*
X30925Y-15090D01*
X30821Y-15122D01*
X30712Y-15133D01*
X30605Y-15124D01*
X30500Y-15093D01*
X30403Y-15042D01*
X30318Y-14974D01*
X30248Y-14890D01*
X30196Y-14795D01*
X30163Y-14691D01*
X30151Y-14582D01*
X30160Y-14475D01*
X30190Y-14370D01*
X30240Y-14273D01*
X30307Y-14187D01*
X30390Y-14116D01*
X30486Y-14063D01*
X30589Y-14030D01*
X30698Y-14017D01*
X30806Y-14025D01*
X30911Y-14054D01*
X31008Y-14104D01*
X31094Y-14171D01*
X31165Y-14253D01*
X31219Y-14348D01*
X31254Y-14452D01*
X31267Y-14560D01*
X31268Y-14575D01*
G54D10*
X23194Y-14071D02*
X22794Y-14071D01*
X23175Y-13900D02*
X23194Y-13843D01*
X23194Y-13747D01*
X23175Y-13709D01*
X23156Y-13690D01*
X23118Y-13671D01*
X23080Y-13671D01*
X23042Y-13690D01*
X23022Y-13709D01*
X23003Y-13747D01*
X22984Y-13824D01*
X22965Y-13862D01*
X22946Y-13881D01*
X22908Y-13900D01*
X22870Y-13900D01*
X22832Y-13881D01*
X22813Y-13862D01*
X22794Y-13824D01*
X22794Y-13728D01*
X22813Y-13671D01*
X23194Y-13500D02*
X22794Y-13500D01*
X22794Y-13347D01*
X22813Y-13309D01*
X22832Y-13290D01*
X22870Y-13271D01*
X22927Y-13271D01*
X22965Y-13290D01*
X22984Y-13309D01*
X23003Y-13347D01*
X23003Y-13500D01*
X23631Y-15796D02*
X23822Y-15796D01*
X23593Y-15910D02*
X23726Y-15510D01*
X23860Y-15910D01*
X23936Y-15510D02*
X24165Y-15510D01*
X24050Y-15910D02*
X24050Y-15510D01*
X24241Y-15643D02*
X24393Y-15643D01*
X24298Y-15510D02*
X24298Y-15853D01*
X24317Y-15891D01*
X24355Y-15910D01*
X24393Y-15910D01*
X24527Y-15910D02*
X24527Y-15643D01*
X24527Y-15510D02*
X24508Y-15529D01*
X24527Y-15548D01*
X24546Y-15529D01*
X24527Y-15510D01*
X24527Y-15548D01*
X24717Y-15643D02*
X24717Y-15910D01*
X24717Y-15681D02*
X24736Y-15662D01*
X24774Y-15643D01*
X24832Y-15643D01*
X24870Y-15662D01*
X24889Y-15700D01*
X24889Y-15910D01*
X25041Y-15643D02*
X25136Y-15910D01*
X25232Y-15643D02*
X25136Y-15910D01*
X25098Y-16005D01*
X25079Y-16024D01*
X25041Y-16043D01*
X25441Y-15681D02*
X25403Y-15662D01*
X25384Y-15643D01*
X25365Y-15605D01*
X25365Y-15586D01*
X25384Y-15548D01*
X25403Y-15529D01*
X25441Y-15510D01*
X25518Y-15510D01*
X25556Y-15529D01*
X25575Y-15548D01*
X25594Y-15586D01*
X25594Y-15605D01*
X25575Y-15643D01*
X25556Y-15662D01*
X25518Y-15681D01*
X25441Y-15681D01*
X25403Y-15700D01*
X25384Y-15719D01*
X25365Y-15758D01*
X25365Y-15834D01*
X25384Y-15872D01*
X25403Y-15891D01*
X25441Y-15910D01*
X25518Y-15910D01*
X25556Y-15891D01*
X25575Y-15872D01*
X25594Y-15834D01*
X25594Y-15758D01*
X25575Y-15719D01*
X25556Y-15700D01*
X25518Y-15681D01*
X25956Y-15510D02*
X25765Y-15510D01*
X25746Y-15700D01*
X25765Y-15681D01*
X25803Y-15662D01*
X25899Y-15662D01*
X25937Y-15681D01*
X25956Y-15700D01*
X25975Y-15738D01*
X25975Y-15834D01*
X25956Y-15872D01*
X25937Y-15891D01*
X25899Y-15910D01*
X25803Y-15910D01*
X25765Y-15891D01*
X25746Y-15872D01*
X27718Y-16440D02*
X27680Y-16421D01*
X27642Y-16383D01*
X27585Y-16326D01*
X27546Y-16307D01*
X27508Y-16307D01*
X27527Y-16402D02*
X27489Y-16383D01*
X27451Y-16345D01*
X27432Y-16269D01*
X27432Y-16135D01*
X27451Y-16059D01*
X27489Y-16021D01*
X27527Y-16002D01*
X27604Y-16002D01*
X27642Y-16021D01*
X27680Y-16059D01*
X27699Y-16135D01*
X27699Y-16269D01*
X27680Y-16345D01*
X27642Y-16383D01*
X27604Y-16402D01*
X27527Y-16402D01*
X28080Y-16402D02*
X27851Y-16402D01*
X27965Y-16402D02*
X27965Y-16002D01*
X27927Y-16059D01*
X27889Y-16097D01*
X27851Y-16116D01*
X21981Y-16856D02*
X21962Y-16875D01*
X21905Y-16894D01*
X21867Y-16894D01*
X21809Y-16875D01*
X21771Y-16837D01*
X21752Y-16799D01*
X21733Y-16722D01*
X21733Y-16665D01*
X21752Y-16589D01*
X21771Y-16551D01*
X21809Y-16513D01*
X21867Y-16494D01*
X21905Y-16494D01*
X21962Y-16513D01*
X21981Y-16532D01*
X22362Y-16894D02*
X22133Y-16894D01*
X22247Y-16894D02*
X22247Y-16494D01*
X22209Y-16551D01*
X22171Y-16589D01*
X22133Y-16608D01*
X29221Y-21612D02*
X29354Y-22012D01*
X29488Y-21612D01*
X29621Y-22012D02*
X29621Y-21745D01*
X29621Y-21612D02*
X29602Y-21631D01*
X29621Y-21650D01*
X29640Y-21631D01*
X29621Y-21612D01*
X29621Y-21650D01*
X29811Y-21745D02*
X29811Y-22012D01*
X29811Y-21783D02*
X29830Y-21764D01*
X29868Y-21745D01*
X29926Y-21745D01*
X29964Y-21764D01*
X29983Y-21802D01*
X29983Y-22012D01*
X30173Y-21974D02*
X30192Y-21993D01*
X30173Y-22012D01*
X30154Y-21993D01*
X30173Y-21974D01*
X30173Y-22012D01*
X30173Y-21860D02*
X30154Y-21631D01*
X30173Y-21612D01*
X30192Y-21631D01*
X30173Y-21860D01*
X30173Y-21612D01*
X28864Y-16404D02*
X28883Y-16423D01*
X28902Y-16480D01*
X28902Y-16518D01*
X28883Y-16576D01*
X28845Y-16614D01*
X28807Y-16633D01*
X28730Y-16652D01*
X28673Y-16652D01*
X28597Y-16633D01*
X28559Y-16614D01*
X28521Y-16576D01*
X28502Y-16518D01*
X28502Y-16480D01*
X28521Y-16423D01*
X28540Y-16404D01*
X28540Y-16252D02*
X28521Y-16233D01*
X28502Y-16195D01*
X28502Y-16099D01*
X28521Y-16061D01*
X28540Y-16042D01*
X28578Y-16023D01*
X28616Y-16023D01*
X28673Y-16042D01*
X28902Y-16271D01*
X28902Y-16023D01*
X28864Y-19948D02*
X28883Y-19967D01*
X28902Y-20024D01*
X28902Y-20062D01*
X28883Y-20120D01*
X28845Y-20158D01*
X28807Y-20177D01*
X28730Y-20196D01*
X28673Y-20196D01*
X28597Y-20177D01*
X28559Y-20158D01*
X28521Y-20120D01*
X28502Y-20062D01*
X28502Y-20024D01*
X28521Y-19967D01*
X28540Y-19948D01*
X28502Y-19815D02*
X28502Y-19567D01*
X28654Y-19701D01*
X28654Y-19643D01*
X28673Y-19605D01*
X28692Y-19586D01*
X28730Y-19567D01*
X28826Y-19567D01*
X28864Y-19586D01*
X28883Y-19605D01*
X28902Y-19643D01*
X28902Y-19758D01*
X28883Y-19796D01*
X28864Y-19815D01*
X26214Y-22565D02*
X26195Y-22584D01*
X26138Y-22603D01*
X26100Y-22603D01*
X26042Y-22584D01*
X26004Y-22546D01*
X25985Y-22508D01*
X25966Y-22431D01*
X25966Y-22374D01*
X25985Y-22298D01*
X26004Y-22260D01*
X26042Y-22222D01*
X26100Y-22203D01*
X26138Y-22203D01*
X26195Y-22222D01*
X26214Y-22241D01*
X26557Y-22336D02*
X26557Y-22603D01*
X26461Y-22184D02*
X26366Y-22470D01*
X26614Y-22470D01*
X29198Y-18910D02*
X29198Y-19101D01*
X28798Y-19101D01*
X28798Y-18815D02*
X28798Y-18548D01*
X29198Y-18720D01*
X28969Y-18339D02*
X28950Y-18377D01*
X28931Y-18396D01*
X28893Y-18415D01*
X28874Y-18415D01*
X28836Y-18396D01*
X28817Y-18377D01*
X28798Y-18339D01*
X28798Y-18262D01*
X28817Y-18224D01*
X28836Y-18205D01*
X28874Y-18186D01*
X28893Y-18186D01*
X28931Y-18205D01*
X28950Y-18224D01*
X28969Y-18262D01*
X28969Y-18339D01*
X28988Y-18377D01*
X29007Y-18396D01*
X29046Y-18415D01*
X29122Y-18415D01*
X29160Y-18396D01*
X29179Y-18377D01*
X29198Y-18339D01*
X29198Y-18262D01*
X29179Y-18224D01*
X29160Y-18205D01*
X29122Y-18186D01*
X29046Y-18186D01*
X29007Y-18205D01*
X28988Y-18224D01*
X28969Y-18262D01*
X29198Y-17824D02*
X29198Y-18015D01*
X28798Y-18015D01*
X28798Y-17615D02*
X28798Y-17576D01*
X28817Y-17538D01*
X28836Y-17519D01*
X28874Y-17500D01*
X28950Y-17481D01*
X29046Y-17481D01*
X29122Y-17500D01*
X29160Y-17519D01*
X29179Y-17538D01*
X29198Y-17576D01*
X29198Y-17615D01*
X29179Y-17653D01*
X29160Y-17672D01*
X29122Y-17691D01*
X29046Y-17710D01*
X28950Y-17710D01*
X28874Y-17691D01*
X28836Y-17672D01*
X28817Y-17653D01*
X28798Y-17615D01*
X28798Y-17119D02*
X28798Y-17310D01*
X28988Y-17329D01*
X28969Y-17310D01*
X28950Y-17272D01*
X28950Y-17176D01*
X28969Y-17138D01*
X28988Y-17119D01*
X29026Y-17100D01*
X29122Y-17100D01*
X29160Y-17119D01*
X29179Y-17138D01*
X29198Y-17176D01*
X29198Y-17272D01*
X29179Y-17310D01*
X29160Y-17329D01*
X26411Y-21914D02*
X26277Y-21723D01*
X26182Y-21914D02*
X26182Y-21514D01*
X26335Y-21514D01*
X26373Y-21533D01*
X26392Y-21552D01*
X26411Y-21590D01*
X26411Y-21647D01*
X26392Y-21685D01*
X26373Y-21704D01*
X26335Y-21723D01*
X26182Y-21723D01*
X26754Y-21514D02*
X26677Y-21514D01*
X26639Y-21533D01*
X26620Y-21552D01*
X26582Y-21609D01*
X26563Y-21685D01*
X26563Y-21838D01*
X26582Y-21876D01*
X26601Y-21895D01*
X26639Y-21914D01*
X26716Y-21914D01*
X26754Y-21895D01*
X26773Y-21876D01*
X26792Y-21838D01*
X26792Y-21742D01*
X26773Y-21704D01*
X26754Y-21685D01*
X26716Y-21666D01*
X26639Y-21666D01*
X26601Y-21685D01*
X26582Y-21704D01*
X26563Y-21742D01*
X33036Y-13452D02*
X32845Y-13586D01*
X33036Y-13681D02*
X32636Y-13681D01*
X32636Y-13528D01*
X32655Y-13490D01*
X32674Y-13471D01*
X32712Y-13452D01*
X32769Y-13452D01*
X32807Y-13471D01*
X32826Y-13490D01*
X32845Y-13528D01*
X32845Y-13681D01*
X32636Y-13319D02*
X32636Y-13071D01*
X32788Y-13205D01*
X32788Y-13147D01*
X32807Y-13109D01*
X32826Y-13090D01*
X32864Y-13071D01*
X32960Y-13071D01*
X32998Y-13090D01*
X33017Y-13109D01*
X33036Y-13147D01*
X33036Y-13262D01*
X33017Y-13300D01*
X32998Y-13319D01*
X28379Y-15713D02*
X28245Y-15522D01*
X28150Y-15713D02*
X28150Y-15313D01*
X28303Y-15313D01*
X28341Y-15332D01*
X28360Y-15351D01*
X28379Y-15389D01*
X28379Y-15446D01*
X28360Y-15484D01*
X28341Y-15503D01*
X28303Y-15522D01*
X28150Y-15522D01*
X28760Y-15713D02*
X28531Y-15713D01*
X28645Y-15713D02*
X28645Y-15313D01*
X28607Y-15370D01*
X28569Y-15408D01*
X28531Y-15427D01*
X27296Y-15418D02*
X27162Y-15227D01*
X27067Y-15418D02*
X27067Y-15018D01*
X27220Y-15018D01*
X27258Y-15037D01*
X27277Y-15056D01*
X27296Y-15094D01*
X27296Y-15151D01*
X27277Y-15189D01*
X27258Y-15208D01*
X27220Y-15227D01*
X27067Y-15227D01*
X27658Y-15018D02*
X27467Y-15018D01*
X27448Y-15208D01*
X27467Y-15189D01*
X27505Y-15170D01*
X27601Y-15170D01*
X27639Y-15189D01*
X27658Y-15208D01*
X27677Y-15246D01*
X27677Y-15342D01*
X27658Y-15380D01*
X27639Y-15399D01*
X27601Y-15418D01*
X27505Y-15418D01*
X27467Y-15399D01*
X27448Y-15380D01*
X29462Y-15418D02*
X29328Y-15227D01*
X29233Y-15418D02*
X29233Y-15018D01*
X29386Y-15018D01*
X29424Y-15037D01*
X29443Y-15056D01*
X29462Y-15094D01*
X29462Y-15151D01*
X29443Y-15189D01*
X29424Y-15208D01*
X29386Y-15227D01*
X29233Y-15227D01*
X29805Y-15151D02*
X29805Y-15418D01*
X29709Y-14999D02*
X29614Y-15285D01*
X29862Y-15285D01*
X30643Y-15713D02*
X30509Y-15522D01*
X30414Y-15713D02*
X30414Y-15313D01*
X30567Y-15313D01*
X30605Y-15332D01*
X30624Y-15351D01*
X30643Y-15389D01*
X30643Y-15446D01*
X30624Y-15484D01*
X30605Y-15503D01*
X30567Y-15522D01*
X30414Y-15522D01*
X30795Y-15351D02*
X30814Y-15332D01*
X30852Y-15313D01*
X30948Y-15313D01*
X30986Y-15332D01*
X31005Y-15351D01*
X31024Y-15389D01*
X31024Y-15427D01*
X31005Y-15484D01*
X30776Y-15713D01*
X31024Y-15713D01*
%LPC*%
G54D16*
X21260Y-14370D03*
G54D17*
X34390Y-18110D03*
X35390Y-18110D03*
G54D18*
X25803Y-13771D03*
G54D19*
X25803Y-14771D03*
X24803Y-13771D03*
X24803Y-14771D03*
X23803Y-13771D03*
X23803Y-14771D03*
G54D16*
X34449Y-21850D03*
X34449Y-14370D03*
X21259Y-21850D03*
G54D20*
X20669Y-17110D03*
G54D21*
X20669Y-18110D03*
X20669Y-19110D03*
G54D22*
X23303Y-16610D03*
G54D23*
X23303Y-17610D03*
X23303Y-18610D03*
X23303Y-19610D03*
X26303Y-19610D03*
X26303Y-18610D03*
X26303Y-17610D03*
X26303Y-16610D03*
G54D20*
X27756Y-17110D03*
G54D21*
X27756Y-18110D03*
X27756Y-19110D03*
X22047Y-18610D03*
X22047Y-17610D03*
G54D20*
X31898Y-21850D03*
G54D21*
X30898Y-21850D03*
X30618Y-16338D03*
X29618Y-16338D03*
X29618Y-19882D03*
X30618Y-19882D03*
X24303Y-22441D03*
X25303Y-22441D03*
G54D20*
X31890Y-15610D03*
G54D21*
X31890Y-16610D03*
X31890Y-17610D03*
X31890Y-18610D03*
X31890Y-19610D03*
X31890Y-20610D03*
G54D24*
X30315Y-17610D03*
X30315Y-18610D03*
X29815Y-18110D03*
G54D21*
X28256Y-21752D03*
X27256Y-21752D03*
X31890Y-13575D03*
X31890Y-14575D03*
X28445Y-14575D03*
X28445Y-13575D03*
X27362Y-13575D03*
X27362Y-14575D03*
X29528Y-13575D03*
X29528Y-14575D03*
X30709Y-14575D03*
X30709Y-13575D03*
M02*
