M48
INCH,TZ
T1C0.032
T2C0.040
T3C0.120
%
G90
G05
T1
X021259Y-017307
X021259Y-018307
X021259Y-019307
X022834Y-017807
X022834Y-018807
X023590Y-014370
X023590Y-021850
X024484Y-016807
X024484Y-019807
X025484Y-016807
X025484Y-019807
X026484Y-016807
X026484Y-019807
X027484Y-016807
X027484Y-019807
X027590Y-014370
X027590Y-021850
X029102Y-014370
X029102Y-021850
X029724Y-017307
X029724Y-018307
X029724Y-019307
X033102Y-014370
X033102Y-021850
X034055Y-016307
X034055Y-020307
X035432Y-016019
X035432Y-017019
X035432Y-018019
X035432Y-019019
X035432Y-020019
T2
X031783Y-017307
X031783Y-018307
X031783Y-019307
X032783Y-017307
X032783Y-018307
X032783Y-019307
T3
X021259Y-014370
X021259Y-021850
X037401Y-014370
X037401Y-021850
T0
M30
