G04 (created by PCBNEW-RS274X (2012-jan-04)-stable) date Sun 25 Mar 2012 02:15:37 PM CEST*
G01*
G70*
G90*
%MOIN*%
G04 Gerber Fmt 3.4, Leading zero omitted, Abs format*
%FSLAX34Y34*%
G04 APERTURE LIST*
%ADD10C,0.008000*%
%ADD11C,0.015000*%
%ADD12C,0.000100*%
%ADD13C,0.012000*%
%ADD14R,0.072000X0.072000*%
%ADD15C,0.072000*%
%ADD16C,0.172000*%
%ADD17R,0.067000X0.067000*%
%ADD18C,0.067000*%
%ADD19R,0.074000X0.102000*%
%ADD20O,0.074000X0.102000*%
G04 APERTURE END LIST*
G54D10*
X24050Y-22634D02*
X24069Y-22615D01*
X24107Y-22596D01*
X24203Y-22596D01*
X24241Y-22615D01*
X24260Y-22634D01*
X24279Y-22672D01*
X24279Y-22710D01*
X24260Y-22767D01*
X24031Y-22996D01*
X24279Y-22996D01*
X24526Y-22596D02*
X24565Y-22596D01*
X24603Y-22615D01*
X24622Y-22634D01*
X24641Y-22672D01*
X24660Y-22748D01*
X24660Y-22844D01*
X24641Y-22920D01*
X24622Y-22958D01*
X24603Y-22977D01*
X24565Y-22996D01*
X24526Y-22996D01*
X24488Y-22977D01*
X24469Y-22958D01*
X24450Y-22920D01*
X24431Y-22844D01*
X24431Y-22748D01*
X24450Y-22672D01*
X24469Y-22634D01*
X24488Y-22615D01*
X24526Y-22596D01*
X25041Y-22996D02*
X24812Y-22996D01*
X24926Y-22996D02*
X24926Y-22596D01*
X24888Y-22653D01*
X24850Y-22691D01*
X24812Y-22710D01*
X25193Y-22634D02*
X25212Y-22615D01*
X25250Y-22596D01*
X25346Y-22596D01*
X25384Y-22615D01*
X25403Y-22634D01*
X25422Y-22672D01*
X25422Y-22710D01*
X25403Y-22767D01*
X25174Y-22996D01*
X25422Y-22996D01*
X25898Y-22844D02*
X26203Y-22844D01*
X26698Y-22996D02*
X26698Y-22596D01*
X26698Y-22748D02*
X26736Y-22729D01*
X26813Y-22729D01*
X26851Y-22748D01*
X26870Y-22767D01*
X26889Y-22805D01*
X26889Y-22920D01*
X26870Y-22958D01*
X26851Y-22977D01*
X26813Y-22996D01*
X26736Y-22996D01*
X26698Y-22977D01*
X27117Y-22996D02*
X27079Y-22977D01*
X27060Y-22939D01*
X27060Y-22596D01*
X27327Y-22996D02*
X27289Y-22977D01*
X27270Y-22958D01*
X27251Y-22920D01*
X27251Y-22805D01*
X27270Y-22767D01*
X27289Y-22748D01*
X27327Y-22729D01*
X27385Y-22729D01*
X27423Y-22748D01*
X27442Y-22767D01*
X27461Y-22805D01*
X27461Y-22920D01*
X27442Y-22958D01*
X27423Y-22977D01*
X27385Y-22996D01*
X27327Y-22996D01*
X27804Y-22729D02*
X27804Y-23053D01*
X27785Y-23091D01*
X27766Y-23110D01*
X27727Y-23129D01*
X27670Y-23129D01*
X27632Y-23110D01*
X27804Y-22977D02*
X27766Y-22996D01*
X27689Y-22996D01*
X27651Y-22977D01*
X27632Y-22958D01*
X27613Y-22920D01*
X27613Y-22805D01*
X27632Y-22767D01*
X27651Y-22748D01*
X27689Y-22729D01*
X27766Y-22729D01*
X27804Y-22748D01*
X27994Y-22958D02*
X28013Y-22977D01*
X27994Y-22996D01*
X27975Y-22977D01*
X27994Y-22958D01*
X27994Y-22996D01*
X28165Y-22977D02*
X28203Y-22996D01*
X28279Y-22996D01*
X28318Y-22977D01*
X28337Y-22939D01*
X28337Y-22920D01*
X28318Y-22882D01*
X28279Y-22863D01*
X28222Y-22863D01*
X28184Y-22844D01*
X28165Y-22805D01*
X28165Y-22786D01*
X28184Y-22748D01*
X28222Y-22729D01*
X28279Y-22729D01*
X28318Y-22748D01*
X28508Y-22729D02*
X28508Y-23129D01*
X28508Y-22748D02*
X28546Y-22729D01*
X28623Y-22729D01*
X28661Y-22748D01*
X28680Y-22767D01*
X28699Y-22805D01*
X28699Y-22920D01*
X28680Y-22958D01*
X28661Y-22977D01*
X28623Y-22996D01*
X28546Y-22996D01*
X28508Y-22977D01*
X28870Y-22996D02*
X28870Y-22729D01*
X28870Y-22596D02*
X28851Y-22615D01*
X28870Y-22634D01*
X28889Y-22615D01*
X28870Y-22596D01*
X28870Y-22634D01*
X29003Y-22729D02*
X29155Y-22729D01*
X29060Y-22596D02*
X29060Y-22939D01*
X29079Y-22977D01*
X29117Y-22996D01*
X29155Y-22996D01*
X29251Y-22729D02*
X29461Y-22729D01*
X29251Y-22996D01*
X29461Y-22996D01*
X29766Y-22977D02*
X29728Y-22996D01*
X29651Y-22996D01*
X29613Y-22977D01*
X29594Y-22939D01*
X29594Y-22786D01*
X29613Y-22748D01*
X29651Y-22729D01*
X29728Y-22729D01*
X29766Y-22748D01*
X29785Y-22786D01*
X29785Y-22824D01*
X29594Y-22863D01*
X29956Y-22729D02*
X29956Y-22996D01*
X29956Y-22767D02*
X29975Y-22748D01*
X30013Y-22729D01*
X30071Y-22729D01*
X30109Y-22748D01*
X30128Y-22786D01*
X30128Y-22996D01*
X30318Y-22729D02*
X30318Y-23129D01*
X30318Y-22748D02*
X30356Y-22729D01*
X30433Y-22729D01*
X30471Y-22748D01*
X30490Y-22767D01*
X30509Y-22805D01*
X30509Y-22920D01*
X30490Y-22958D01*
X30471Y-22977D01*
X30433Y-22996D01*
X30356Y-22996D01*
X30318Y-22977D01*
X30623Y-22729D02*
X30775Y-22729D01*
X30680Y-22996D02*
X30680Y-22653D01*
X30699Y-22615D01*
X30737Y-22596D01*
X30775Y-22596D01*
X31062Y-22977D02*
X31024Y-22996D01*
X30947Y-22996D01*
X30909Y-22977D01*
X30890Y-22939D01*
X30890Y-22786D01*
X30909Y-22748D01*
X30947Y-22729D01*
X31024Y-22729D01*
X31062Y-22748D01*
X31081Y-22786D01*
X31081Y-22824D01*
X30890Y-22863D01*
X31252Y-22996D02*
X31252Y-22729D01*
X31252Y-22596D02*
X31233Y-22615D01*
X31252Y-22634D01*
X31271Y-22615D01*
X31252Y-22596D01*
X31252Y-22634D01*
X31499Y-22996D02*
X31461Y-22977D01*
X31442Y-22939D01*
X31442Y-22596D01*
X31652Y-22958D02*
X31671Y-22977D01*
X31652Y-22996D01*
X31633Y-22977D01*
X31652Y-22958D01*
X31652Y-22996D01*
X31899Y-22996D02*
X31861Y-22977D01*
X31842Y-22958D01*
X31823Y-22920D01*
X31823Y-22805D01*
X31842Y-22767D01*
X31861Y-22748D01*
X31899Y-22729D01*
X31957Y-22729D01*
X31995Y-22748D01*
X32014Y-22767D01*
X32033Y-22805D01*
X32033Y-22920D01*
X32014Y-22958D01*
X31995Y-22977D01*
X31957Y-22996D01*
X31899Y-22996D01*
X32204Y-22996D02*
X32204Y-22729D01*
X32204Y-22805D02*
X32223Y-22767D01*
X32242Y-22748D01*
X32280Y-22729D01*
X32319Y-22729D01*
X32624Y-22729D02*
X32624Y-23053D01*
X32605Y-23091D01*
X32586Y-23110D01*
X32547Y-23129D01*
X32490Y-23129D01*
X32452Y-23110D01*
X32624Y-22977D02*
X32586Y-22996D01*
X32509Y-22996D01*
X32471Y-22977D01*
X32452Y-22958D01*
X32433Y-22920D01*
X32433Y-22805D01*
X32452Y-22767D01*
X32471Y-22748D01*
X32509Y-22729D01*
X32586Y-22729D01*
X32624Y-22748D01*
X25326Y-13548D02*
X25326Y-13148D01*
X25745Y-13548D02*
X25611Y-13357D01*
X25516Y-13548D02*
X25516Y-13148D01*
X25669Y-13148D01*
X25707Y-13167D01*
X25726Y-13186D01*
X25745Y-13224D01*
X25745Y-13281D01*
X25726Y-13319D01*
X25707Y-13338D01*
X25669Y-13357D01*
X25516Y-13357D01*
X25821Y-13586D02*
X26126Y-13586D01*
X26221Y-13548D02*
X26221Y-13281D01*
X26221Y-13357D02*
X26240Y-13319D01*
X26259Y-13300D01*
X26297Y-13281D01*
X26336Y-13281D01*
X26641Y-13548D02*
X26641Y-13338D01*
X26622Y-13300D01*
X26584Y-13281D01*
X26507Y-13281D01*
X26469Y-13300D01*
X26641Y-13529D02*
X26603Y-13548D01*
X26507Y-13548D01*
X26469Y-13529D01*
X26450Y-13491D01*
X26450Y-13453D01*
X26469Y-13415D01*
X26507Y-13396D01*
X26603Y-13396D01*
X26641Y-13376D01*
X26793Y-13281D02*
X26869Y-13548D01*
X26946Y-13357D01*
X27022Y-13548D01*
X27098Y-13281D01*
X27155Y-13586D02*
X27460Y-13586D01*
X27555Y-13548D02*
X27555Y-13281D01*
X27555Y-13357D02*
X27574Y-13319D01*
X27593Y-13300D01*
X27631Y-13281D01*
X27670Y-13281D01*
X27956Y-13529D02*
X27918Y-13548D01*
X27841Y-13548D01*
X27803Y-13529D01*
X27784Y-13491D01*
X27784Y-13338D01*
X27803Y-13300D01*
X27841Y-13281D01*
X27918Y-13281D01*
X27956Y-13300D01*
X27975Y-13338D01*
X27975Y-13376D01*
X27784Y-13415D01*
X28318Y-13529D02*
X28280Y-13548D01*
X28203Y-13548D01*
X28165Y-13529D01*
X28146Y-13510D01*
X28127Y-13472D01*
X28127Y-13357D01*
X28146Y-13319D01*
X28165Y-13300D01*
X28203Y-13281D01*
X28280Y-13281D01*
X28318Y-13300D01*
X28642Y-13529D02*
X28604Y-13548D01*
X28527Y-13548D01*
X28489Y-13529D01*
X28470Y-13491D01*
X28470Y-13338D01*
X28489Y-13300D01*
X28527Y-13281D01*
X28604Y-13281D01*
X28642Y-13300D01*
X28661Y-13338D01*
X28661Y-13376D01*
X28470Y-13415D01*
X28832Y-13548D02*
X28832Y-13281D01*
X28832Y-13148D02*
X28813Y-13167D01*
X28832Y-13186D01*
X28851Y-13167D01*
X28832Y-13148D01*
X28832Y-13186D01*
X28984Y-13281D02*
X29079Y-13548D01*
X29175Y-13281D01*
X29480Y-13529D02*
X29442Y-13548D01*
X29365Y-13548D01*
X29327Y-13529D01*
X29308Y-13491D01*
X29308Y-13338D01*
X29327Y-13300D01*
X29365Y-13281D01*
X29442Y-13281D01*
X29480Y-13300D01*
X29499Y-13338D01*
X29499Y-13376D01*
X29308Y-13415D01*
X29670Y-13548D02*
X29670Y-13281D01*
X29670Y-13357D02*
X29689Y-13319D01*
X29708Y-13300D01*
X29746Y-13281D01*
X29785Y-13281D01*
X30433Y-13548D02*
X30204Y-13548D01*
X30318Y-13548D02*
X30318Y-13148D01*
X30280Y-13205D01*
X30242Y-13243D01*
X30204Y-13262D01*
X30604Y-13510D02*
X30623Y-13529D01*
X30604Y-13548D01*
X30585Y-13529D01*
X30604Y-13510D01*
X30604Y-13548D01*
X30870Y-13148D02*
X30909Y-13148D01*
X30947Y-13167D01*
X30966Y-13186D01*
X30985Y-13224D01*
X31004Y-13300D01*
X31004Y-13396D01*
X30985Y-13472D01*
X30966Y-13510D01*
X30947Y-13529D01*
X30909Y-13548D01*
X30870Y-13548D01*
X30832Y-13529D01*
X30813Y-13510D01*
X30794Y-13472D01*
X30775Y-13396D01*
X30775Y-13300D01*
X30794Y-13224D01*
X30813Y-13186D01*
X30832Y-13167D01*
X30870Y-13148D01*
X31251Y-13148D02*
X31290Y-13148D01*
X31328Y-13167D01*
X31347Y-13186D01*
X31366Y-13224D01*
X31385Y-13300D01*
X31385Y-13396D01*
X31366Y-13472D01*
X31347Y-13510D01*
X31328Y-13529D01*
X31290Y-13548D01*
X31251Y-13548D01*
X31213Y-13529D01*
X31194Y-13510D01*
X31175Y-13472D01*
X31156Y-13396D01*
X31156Y-13300D01*
X31175Y-13224D01*
X31194Y-13186D01*
X31213Y-13167D01*
X31251Y-13148D01*
X29086Y-16075D02*
X29048Y-16056D01*
X29029Y-16037D01*
X29010Y-15999D01*
X29010Y-15980D01*
X29029Y-15942D01*
X29048Y-15923D01*
X29086Y-15904D01*
X29163Y-15904D01*
X29201Y-15923D01*
X29220Y-15942D01*
X29239Y-15980D01*
X29239Y-15999D01*
X29220Y-16037D01*
X29201Y-16056D01*
X29163Y-16075D01*
X29086Y-16075D01*
X29048Y-16094D01*
X29029Y-16113D01*
X29010Y-16152D01*
X29010Y-16228D01*
X29029Y-16266D01*
X29048Y-16285D01*
X29086Y-16304D01*
X29163Y-16304D01*
X29201Y-16285D01*
X29220Y-16266D01*
X29239Y-16228D01*
X29239Y-16152D01*
X29220Y-16113D01*
X29201Y-16094D01*
X29163Y-16075D01*
X29410Y-16304D02*
X29410Y-15904D01*
X29544Y-16190D01*
X29677Y-15904D01*
X29677Y-16304D01*
X29867Y-16304D02*
X29867Y-15904D01*
X29867Y-16094D02*
X30096Y-16094D01*
X30096Y-16304D02*
X30096Y-15904D01*
X30248Y-16037D02*
X30458Y-16037D01*
X30248Y-16304D01*
X30458Y-16304D01*
X21107Y-16348D02*
X21412Y-16348D01*
X21260Y-16500D02*
X21260Y-16195D01*
X36248Y-16335D02*
X36248Y-15935D01*
X36401Y-15935D01*
X36439Y-15954D01*
X36458Y-15973D01*
X36477Y-16011D01*
X36477Y-16068D01*
X36458Y-16106D01*
X36439Y-16125D01*
X36401Y-16144D01*
X36248Y-16144D01*
X36782Y-16125D02*
X36839Y-16144D01*
X36858Y-16163D01*
X36877Y-16202D01*
X36877Y-16259D01*
X36858Y-16297D01*
X36839Y-16316D01*
X36801Y-16335D01*
X36648Y-16335D01*
X36648Y-15935D01*
X36782Y-15935D01*
X36820Y-15954D01*
X36839Y-15973D01*
X36858Y-16011D01*
X36858Y-16049D01*
X36839Y-16087D01*
X36820Y-16106D01*
X36782Y-16125D01*
X36648Y-16125D01*
X37029Y-15973D02*
X37048Y-15954D01*
X37086Y-15935D01*
X37182Y-15935D01*
X37220Y-15954D01*
X37239Y-15973D01*
X37258Y-16011D01*
X37258Y-16049D01*
X37239Y-16106D01*
X37010Y-16335D01*
X37258Y-16335D01*
X36248Y-17335D02*
X36248Y-16935D01*
X36401Y-16935D01*
X36439Y-16954D01*
X36458Y-16973D01*
X36477Y-17011D01*
X36477Y-17068D01*
X36458Y-17106D01*
X36439Y-17125D01*
X36401Y-17144D01*
X36248Y-17144D01*
X36782Y-17125D02*
X36839Y-17144D01*
X36858Y-17163D01*
X36877Y-17202D01*
X36877Y-17259D01*
X36858Y-17297D01*
X36839Y-17316D01*
X36801Y-17335D01*
X36648Y-17335D01*
X36648Y-16935D01*
X36782Y-16935D01*
X36820Y-16954D01*
X36839Y-16973D01*
X36858Y-17011D01*
X36858Y-17049D01*
X36839Y-17087D01*
X36820Y-17106D01*
X36782Y-17125D01*
X36648Y-17125D01*
X37258Y-17335D02*
X37029Y-17335D01*
X37143Y-17335D02*
X37143Y-16935D01*
X37105Y-16992D01*
X37067Y-17030D01*
X37029Y-17049D01*
X36248Y-18335D02*
X36248Y-17935D01*
X36401Y-17935D01*
X36439Y-17954D01*
X36458Y-17973D01*
X36477Y-18011D01*
X36477Y-18068D01*
X36458Y-18106D01*
X36439Y-18125D01*
X36401Y-18144D01*
X36248Y-18144D01*
X36782Y-18125D02*
X36839Y-18144D01*
X36858Y-18163D01*
X36877Y-18202D01*
X36877Y-18259D01*
X36858Y-18297D01*
X36839Y-18316D01*
X36801Y-18335D01*
X36648Y-18335D01*
X36648Y-17935D01*
X36782Y-17935D01*
X36820Y-17954D01*
X36839Y-17973D01*
X36858Y-18011D01*
X36858Y-18049D01*
X36839Y-18087D01*
X36820Y-18106D01*
X36782Y-18125D01*
X36648Y-18125D01*
X37124Y-17935D02*
X37163Y-17935D01*
X37201Y-17954D01*
X37220Y-17973D01*
X37239Y-18011D01*
X37258Y-18087D01*
X37258Y-18183D01*
X37239Y-18259D01*
X37220Y-18297D01*
X37201Y-18316D01*
X37163Y-18335D01*
X37124Y-18335D01*
X37086Y-18316D01*
X37067Y-18297D01*
X37048Y-18259D01*
X37029Y-18183D01*
X37029Y-18087D01*
X37048Y-18011D01*
X37067Y-17973D01*
X37086Y-17954D01*
X37124Y-17935D01*
X36453Y-19325D02*
X36453Y-19020D01*
X36291Y-20183D02*
X36596Y-20183D01*
X36444Y-20335D02*
X36444Y-20030D01*
X22682Y-16742D02*
X22987Y-16742D01*
X22835Y-16894D02*
X22835Y-16589D01*
G54D11*
X33267Y-16811D02*
X31299Y-16811D01*
X31299Y-19803D02*
X33267Y-19803D01*
X33267Y-19803D02*
X33267Y-16811D01*
X31299Y-16811D02*
X31299Y-19764D01*
X31299Y-19764D02*
X31299Y-19803D01*
X31063Y-16575D02*
X32283Y-16575D01*
X31063Y-16575D02*
X31063Y-17835D01*
X38779Y-21850D02*
X38752Y-22117D01*
X38675Y-22375D01*
X38548Y-22612D01*
X38378Y-22820D01*
X38171Y-22992D01*
X37934Y-23120D01*
X37678Y-23199D01*
X37410Y-23227D01*
X37143Y-23203D01*
X36885Y-23127D01*
X36647Y-23003D01*
X36437Y-22834D01*
X36264Y-22628D01*
X36135Y-22392D01*
X36054Y-22136D01*
X36024Y-21869D01*
X36046Y-21602D01*
X36120Y-21343D01*
X36243Y-21104D01*
X36410Y-20893D01*
X36615Y-20719D01*
X36850Y-20588D01*
X37106Y-20505D01*
X37373Y-20473D01*
X37640Y-20493D01*
X37899Y-20566D01*
X38139Y-20687D01*
X38351Y-20853D01*
X38527Y-21056D01*
X38659Y-21290D01*
X38744Y-21545D01*
X38778Y-21812D01*
X38779Y-21850D01*
X38301Y-21850D02*
X38283Y-22024D01*
X38233Y-22192D01*
X38150Y-22348D01*
X38039Y-22484D01*
X37904Y-22596D01*
X37749Y-22679D01*
X37581Y-22731D01*
X37407Y-22749D01*
X37233Y-22734D01*
X37064Y-22684D01*
X36909Y-22603D01*
X36772Y-22493D01*
X36659Y-22358D01*
X36574Y-22204D01*
X36521Y-22037D01*
X36502Y-21862D01*
X36516Y-21688D01*
X36565Y-21519D01*
X36645Y-21363D01*
X36754Y-21225D01*
X36888Y-21111D01*
X37041Y-21026D01*
X37208Y-20971D01*
X37383Y-20951D01*
X37557Y-20964D01*
X37726Y-21011D01*
X37883Y-21091D01*
X38021Y-21199D01*
X38136Y-21332D01*
X38223Y-21484D01*
X38278Y-21651D01*
X38300Y-21825D01*
X38301Y-21850D01*
X38779Y-14370D02*
X38752Y-14637D01*
X38675Y-14895D01*
X38548Y-15132D01*
X38378Y-15340D01*
X38171Y-15512D01*
X37934Y-15640D01*
X37678Y-15719D01*
X37410Y-15747D01*
X37143Y-15723D01*
X36885Y-15647D01*
X36647Y-15523D01*
X36437Y-15354D01*
X36264Y-15148D01*
X36135Y-14912D01*
X36054Y-14656D01*
X36024Y-14389D01*
X36046Y-14122D01*
X36120Y-13863D01*
X36243Y-13624D01*
X36410Y-13413D01*
X36615Y-13239D01*
X36850Y-13108D01*
X37106Y-13025D01*
X37373Y-12993D01*
X37640Y-13013D01*
X37899Y-13086D01*
X38139Y-13207D01*
X38351Y-13373D01*
X38527Y-13576D01*
X38659Y-13810D01*
X38744Y-14065D01*
X38778Y-14332D01*
X38779Y-14370D01*
X38301Y-14370D02*
X38283Y-14544D01*
X38233Y-14712D01*
X38150Y-14868D01*
X38039Y-15004D01*
X37904Y-15116D01*
X37749Y-15199D01*
X37581Y-15251D01*
X37407Y-15269D01*
X37233Y-15254D01*
X37064Y-15204D01*
X36909Y-15123D01*
X36772Y-15013D01*
X36659Y-14878D01*
X36574Y-14724D01*
X36521Y-14557D01*
X36502Y-14382D01*
X36516Y-14208D01*
X36565Y-14039D01*
X36645Y-13883D01*
X36754Y-13745D01*
X36888Y-13631D01*
X37041Y-13546D01*
X37208Y-13491D01*
X37383Y-13471D01*
X37557Y-13484D01*
X37726Y-13531D01*
X37883Y-13611D01*
X38021Y-13719D01*
X38136Y-13852D01*
X38223Y-14004D01*
X38278Y-14171D01*
X38300Y-14345D01*
X38301Y-14370D01*
X22637Y-21850D02*
X22610Y-22117D01*
X22533Y-22375D01*
X22406Y-22612D01*
X22236Y-22820D01*
X22029Y-22992D01*
X21792Y-23120D01*
X21536Y-23199D01*
X21268Y-23227D01*
X21001Y-23203D01*
X20743Y-23127D01*
X20505Y-23003D01*
X20295Y-22834D01*
X20122Y-22628D01*
X19993Y-22392D01*
X19912Y-22136D01*
X19882Y-21869D01*
X19904Y-21602D01*
X19978Y-21343D01*
X20101Y-21104D01*
X20268Y-20893D01*
X20473Y-20719D01*
X20708Y-20588D01*
X20964Y-20505D01*
X21231Y-20473D01*
X21498Y-20493D01*
X21757Y-20566D01*
X21997Y-20687D01*
X22209Y-20853D01*
X22385Y-21056D01*
X22517Y-21290D01*
X22602Y-21545D01*
X22636Y-21812D01*
X22637Y-21850D01*
X22159Y-21850D02*
X22141Y-22024D01*
X22091Y-22192D01*
X22008Y-22348D01*
X21897Y-22484D01*
X21762Y-22596D01*
X21607Y-22679D01*
X21439Y-22731D01*
X21265Y-22749D01*
X21091Y-22734D01*
X20922Y-22684D01*
X20767Y-22603D01*
X20630Y-22493D01*
X20517Y-22358D01*
X20432Y-22204D01*
X20379Y-22037D01*
X20360Y-21862D01*
X20374Y-21688D01*
X20423Y-21519D01*
X20503Y-21363D01*
X20612Y-21225D01*
X20746Y-21111D01*
X20899Y-21026D01*
X21066Y-20971D01*
X21241Y-20951D01*
X21415Y-20964D01*
X21584Y-21011D01*
X21741Y-21091D01*
X21879Y-21199D01*
X21994Y-21332D01*
X22081Y-21484D01*
X22136Y-21651D01*
X22158Y-21825D01*
X22159Y-21850D01*
X22637Y-14370D02*
X22610Y-14637D01*
X22533Y-14895D01*
X22406Y-15132D01*
X22236Y-15340D01*
X22029Y-15512D01*
X21792Y-15640D01*
X21536Y-15719D01*
X21268Y-15747D01*
X21001Y-15723D01*
X20743Y-15647D01*
X20505Y-15523D01*
X20295Y-15354D01*
X20122Y-15148D01*
X19993Y-14912D01*
X19912Y-14656D01*
X19882Y-14389D01*
X19904Y-14122D01*
X19978Y-13863D01*
X20101Y-13624D01*
X20268Y-13413D01*
X20473Y-13239D01*
X20708Y-13108D01*
X20964Y-13025D01*
X21231Y-12993D01*
X21498Y-13013D01*
X21757Y-13086D01*
X21997Y-13207D01*
X22209Y-13373D01*
X22385Y-13576D01*
X22517Y-13810D01*
X22602Y-14065D01*
X22636Y-14332D01*
X22637Y-14370D01*
X22159Y-14370D02*
X22141Y-14544D01*
X22091Y-14712D01*
X22008Y-14868D01*
X21897Y-15004D01*
X21762Y-15116D01*
X21607Y-15199D01*
X21439Y-15251D01*
X21265Y-15269D01*
X21091Y-15254D01*
X20922Y-15204D01*
X20767Y-15123D01*
X20630Y-15013D01*
X20517Y-14878D01*
X20432Y-14724D01*
X20379Y-14557D01*
X20360Y-14382D01*
X20374Y-14208D01*
X20423Y-14039D01*
X20503Y-13883D01*
X20612Y-13745D01*
X20746Y-13631D01*
X20899Y-13546D01*
X21066Y-13491D01*
X21241Y-13471D01*
X21415Y-13484D01*
X21584Y-13531D01*
X21741Y-13611D01*
X21879Y-13719D01*
X21994Y-13852D01*
X22081Y-14004D01*
X22136Y-14171D01*
X22158Y-14345D01*
X22159Y-14370D01*
G54D12*
G36*
X34899Y-22833D02*
X34916Y-22831D01*
X34932Y-22826D01*
X34939Y-22822D01*
X34953Y-22812D01*
X34964Y-22800D01*
X34973Y-22786D01*
X34979Y-22770D01*
X34981Y-22754D01*
X34981Y-22737D01*
X34977Y-22721D01*
X34969Y-22705D01*
X34964Y-22698D01*
X34957Y-22690D01*
X34950Y-22683D01*
X34942Y-22678D01*
X34940Y-22676D01*
X34926Y-22670D01*
X34911Y-22666D01*
X34894Y-22665D01*
X34888Y-22666D01*
X34879Y-22667D01*
X34871Y-22669D01*
X34862Y-22673D01*
X34852Y-22678D01*
X34838Y-22689D01*
X34827Y-22702D01*
X34819Y-22718D01*
X34816Y-22725D01*
X34814Y-22733D01*
X34813Y-22740D01*
X34813Y-22741D01*
X34813Y-22741D01*
X34812Y-22738D01*
X34812Y-22737D01*
X34810Y-22726D01*
X34806Y-22715D01*
X34801Y-22705D01*
X34791Y-22693D01*
X34778Y-22681D01*
X34764Y-22672D01*
X34747Y-22667D01*
X34729Y-22665D01*
X34725Y-22665D01*
X34711Y-22667D01*
X34699Y-22670D01*
X34696Y-22671D01*
X34682Y-22679D01*
X34669Y-22690D01*
X34659Y-22702D01*
X34651Y-22717D01*
X34646Y-22732D01*
X34646Y-22732D01*
X34645Y-22736D01*
X34645Y-22738D01*
X34645Y-22738D01*
X34645Y-22736D01*
X34644Y-22732D01*
X34643Y-22730D01*
X34638Y-22715D01*
X34630Y-22701D01*
X34619Y-22688D01*
X34609Y-22680D01*
X34595Y-22672D01*
X34579Y-22667D01*
X34561Y-22665D01*
X34548Y-22666D01*
X34531Y-22670D01*
X34516Y-22678D01*
X34503Y-22689D01*
X34491Y-22702D01*
X34490Y-22704D01*
X34486Y-22710D01*
X34484Y-22715D01*
X34482Y-22719D01*
X34480Y-22727D01*
X34478Y-22734D01*
X34477Y-22740D01*
X34477Y-22741D01*
X34477Y-22741D01*
X34476Y-22737D01*
X34474Y-22728D01*
X34470Y-22716D01*
X34465Y-22706D01*
X34455Y-22693D01*
X34442Y-22681D01*
X34427Y-22672D01*
X34411Y-22667D01*
X34393Y-22665D01*
X34377Y-22666D01*
X34361Y-22671D01*
X34346Y-22679D01*
X34332Y-22691D01*
X34326Y-22698D01*
X34319Y-22707D01*
X34314Y-22718D01*
X34311Y-22727D01*
X34309Y-22744D01*
X34309Y-22760D01*
X34313Y-22776D01*
X34319Y-22791D01*
X34329Y-22804D01*
X34340Y-22815D01*
X34354Y-22824D01*
X34369Y-22830D01*
X34386Y-22833D01*
X34388Y-22833D01*
X34405Y-22832D01*
X34421Y-22829D01*
X34437Y-22821D01*
X34442Y-22818D01*
X34453Y-22808D01*
X34463Y-22796D01*
X34470Y-22783D01*
X34472Y-22778D01*
X34474Y-22771D01*
X34476Y-22764D01*
X34477Y-22758D01*
X34477Y-22755D01*
X34477Y-22758D01*
X34478Y-22761D01*
X34479Y-22768D01*
X34482Y-22777D01*
X34484Y-22784D01*
X34488Y-22791D01*
X34499Y-22805D01*
X34511Y-22817D01*
X34526Y-22826D01*
X34543Y-22832D01*
X34546Y-22832D01*
X34558Y-22833D01*
X34570Y-22833D01*
X34581Y-22831D01*
X34592Y-22828D01*
X34608Y-22819D01*
X34622Y-22808D01*
X34623Y-22807D01*
X34632Y-22795D01*
X34639Y-22781D01*
X34644Y-22767D01*
X34644Y-22766D01*
X34645Y-22762D01*
X34645Y-22760D01*
X34645Y-22761D01*
X34646Y-22765D01*
X34646Y-22766D01*
X34648Y-22775D01*
X34652Y-22784D01*
X34657Y-22794D01*
X34665Y-22804D01*
X34677Y-22816D01*
X34692Y-22825D01*
X34709Y-22831D01*
X34712Y-22832D01*
X34723Y-22833D01*
X34735Y-22833D01*
X34746Y-22832D01*
X34756Y-22829D01*
X34771Y-22822D01*
X34785Y-22811D01*
X34797Y-22799D01*
X34806Y-22784D01*
X34808Y-22779D01*
X34810Y-22771D01*
X34812Y-22764D01*
X34813Y-22758D01*
X34813Y-22757D01*
X34813Y-22757D01*
X34814Y-22761D01*
X34814Y-22761D01*
X34816Y-22772D01*
X34820Y-22783D01*
X34825Y-22793D01*
X34828Y-22796D01*
X34838Y-22809D01*
X34852Y-22820D01*
X34866Y-22828D01*
X34882Y-22832D01*
X34899Y-22833D01*
X34899Y-22833D01*
G37*
G36*
X34219Y-22665D02*
X34229Y-22665D01*
X34239Y-22664D01*
X34250Y-22661D01*
X34266Y-22654D01*
X34280Y-22644D01*
X34292Y-22631D01*
X34300Y-22617D01*
X34306Y-22601D01*
X34308Y-22583D01*
X34307Y-22566D01*
X34303Y-22550D01*
X34295Y-22535D01*
X34285Y-22522D01*
X34271Y-22511D01*
X34267Y-22508D01*
X34251Y-22500D01*
X34234Y-22497D01*
X34216Y-22497D01*
X34199Y-22500D01*
X34185Y-22506D01*
X34170Y-22516D01*
X34158Y-22528D01*
X34149Y-22543D01*
X34142Y-22560D01*
X34141Y-22568D01*
X34140Y-22579D01*
X34140Y-22590D01*
X34142Y-22599D01*
X34143Y-22602D01*
X34149Y-22619D01*
X34159Y-22634D01*
X34172Y-22647D01*
X34187Y-22656D01*
X34194Y-22659D01*
X34204Y-22663D01*
X34213Y-22664D01*
X34219Y-22665D01*
X34219Y-22665D01*
G37*
G36*
X35068Y-22665D02*
X35085Y-22663D01*
X35102Y-22657D01*
X35117Y-22647D01*
X35121Y-22645D01*
X35132Y-22632D01*
X35142Y-22618D01*
X35148Y-22601D01*
X35149Y-22593D01*
X35150Y-22582D01*
X35150Y-22571D01*
X35148Y-22562D01*
X35147Y-22558D01*
X35140Y-22541D01*
X35131Y-22527D01*
X35119Y-22515D01*
X35104Y-22506D01*
X35088Y-22499D01*
X35070Y-22496D01*
X35064Y-22496D01*
X35047Y-22498D01*
X35031Y-22504D01*
X35017Y-22512D01*
X35005Y-22523D01*
X34995Y-22536D01*
X34987Y-22551D01*
X34983Y-22567D01*
X34982Y-22584D01*
X34983Y-22595D01*
X34985Y-22604D01*
X34988Y-22614D01*
X34995Y-22627D01*
X35006Y-22640D01*
X35019Y-22651D01*
X35034Y-22659D01*
X35050Y-22664D01*
X35068Y-22665D01*
X35068Y-22665D01*
G37*
G36*
X34051Y-22496D02*
X34063Y-22496D01*
X34073Y-22495D01*
X34085Y-22491D01*
X34101Y-22483D01*
X34115Y-22472D01*
X34124Y-22461D01*
X34133Y-22447D01*
X34138Y-22430D01*
X34139Y-22423D01*
X34140Y-22413D01*
X34139Y-22403D01*
X34138Y-22395D01*
X34137Y-22389D01*
X34130Y-22373D01*
X34121Y-22358D01*
X34108Y-22346D01*
X34093Y-22337D01*
X34087Y-22334D01*
X34076Y-22330D01*
X34065Y-22328D01*
X34053Y-22328D01*
X34045Y-22329D01*
X34036Y-22330D01*
X34027Y-22332D01*
X34018Y-22337D01*
X34013Y-22339D01*
X33999Y-22350D01*
X33987Y-22363D01*
X33978Y-22378D01*
X33973Y-22395D01*
X33972Y-22399D01*
X33971Y-22409D01*
X33972Y-22420D01*
X33973Y-22429D01*
X33974Y-22435D01*
X33981Y-22451D01*
X33990Y-22466D01*
X34003Y-22478D01*
X34018Y-22487D01*
X34035Y-22494D01*
X34040Y-22495D01*
X34051Y-22496D01*
X34051Y-22496D01*
G37*
G36*
X34727Y-22496D02*
X34744Y-22495D01*
X34760Y-22491D01*
X34769Y-22486D01*
X34783Y-22476D01*
X34795Y-22464D01*
X34805Y-22449D01*
X34810Y-22432D01*
X34811Y-22429D01*
X34813Y-22415D01*
X34813Y-22402D01*
X34809Y-22388D01*
X34803Y-22371D01*
X34793Y-22357D01*
X34780Y-22345D01*
X34765Y-22336D01*
X34748Y-22330D01*
X34737Y-22327D01*
X34743Y-22327D01*
X34744Y-22326D01*
X34756Y-22323D01*
X34769Y-22318D01*
X34780Y-22310D01*
X34782Y-22308D01*
X34795Y-22296D01*
X34804Y-22282D01*
X34810Y-22266D01*
X34813Y-22250D01*
X34812Y-22234D01*
X34809Y-22217D01*
X34801Y-22202D01*
X34801Y-22201D01*
X34791Y-22187D01*
X34778Y-22176D01*
X34764Y-22168D01*
X34748Y-22163D01*
X34732Y-22160D01*
X34716Y-22161D01*
X34700Y-22165D01*
X34685Y-22173D01*
X34671Y-22183D01*
X34663Y-22191D01*
X34655Y-22204D01*
X34649Y-22217D01*
X34646Y-22229D01*
X34645Y-22232D01*
X34645Y-22234D01*
X34645Y-22233D01*
X34644Y-22229D01*
X34641Y-22218D01*
X34636Y-22206D01*
X34629Y-22195D01*
X34625Y-22189D01*
X34612Y-22177D01*
X34598Y-22168D01*
X34581Y-22163D01*
X34564Y-22160D01*
X34547Y-22161D01*
X34537Y-22164D01*
X34520Y-22171D01*
X34506Y-22181D01*
X34494Y-22193D01*
X34485Y-22208D01*
X34479Y-22224D01*
X34478Y-22233D01*
X34477Y-22249D01*
X34480Y-22266D01*
X34486Y-22282D01*
X34496Y-22296D01*
X34508Y-22308D01*
X34523Y-22318D01*
X34529Y-22321D01*
X34537Y-22324D01*
X34544Y-22326D01*
X34550Y-22327D01*
X34551Y-22327D01*
X34550Y-22328D01*
X34547Y-22329D01*
X34538Y-22331D01*
X34527Y-22335D01*
X34517Y-22340D01*
X34512Y-22343D01*
X34501Y-22353D01*
X34491Y-22365D01*
X34484Y-22378D01*
X34479Y-22392D01*
X34477Y-22407D01*
X34477Y-22422D01*
X34478Y-22425D01*
X34483Y-22442D01*
X34490Y-22458D01*
X34502Y-22472D01*
X34511Y-22480D01*
X34526Y-22489D01*
X34543Y-22495D01*
X34550Y-22495D01*
X34559Y-22496D01*
X34568Y-22495D01*
X34577Y-22495D01*
X34584Y-22493D01*
X34590Y-22492D01*
X34606Y-22483D01*
X34620Y-22472D01*
X34631Y-22459D01*
X34635Y-22452D01*
X34641Y-22441D01*
X34644Y-22430D01*
X34644Y-22429D01*
X34645Y-22425D01*
X34645Y-22423D01*
X34645Y-22423D01*
X34645Y-22401D01*
X34645Y-22401D01*
X34645Y-22399D01*
X34644Y-22395D01*
X34644Y-22393D01*
X34639Y-22378D01*
X34630Y-22364D01*
X34620Y-22352D01*
X34607Y-22341D01*
X34593Y-22334D01*
X34592Y-22333D01*
X34584Y-22331D01*
X34577Y-22329D01*
X34570Y-22328D01*
X34577Y-22326D01*
X34587Y-22324D01*
X34602Y-22317D01*
X34616Y-22308D01*
X34627Y-22296D01*
X34636Y-22282D01*
X34640Y-22275D01*
X34643Y-22266D01*
X34644Y-22259D01*
X34645Y-22256D01*
X34645Y-22254D01*
X34645Y-22255D01*
X34646Y-22259D01*
X34647Y-22265D01*
X34650Y-22274D01*
X34654Y-22282D01*
X34659Y-22291D01*
X34670Y-22303D01*
X34683Y-22314D01*
X34698Y-22322D01*
X34713Y-22326D01*
X34721Y-22328D01*
X34713Y-22329D01*
X34712Y-22329D01*
X34705Y-22331D01*
X34697Y-22334D01*
X34696Y-22334D01*
X34682Y-22342D01*
X34669Y-22353D01*
X34659Y-22365D01*
X34651Y-22380D01*
X34646Y-22394D01*
X34646Y-22395D01*
X34645Y-22399D01*
X34645Y-22401D01*
X34645Y-22423D01*
X34645Y-22423D01*
X34645Y-22425D01*
X34646Y-22430D01*
X34649Y-22440D01*
X34656Y-22455D01*
X34667Y-22469D01*
X34679Y-22480D01*
X34694Y-22489D01*
X34694Y-22489D01*
X34710Y-22494D01*
X34727Y-22496D01*
X34727Y-22496D01*
G37*
G36*
X35228Y-22496D02*
X35242Y-22496D01*
X35254Y-22494D01*
X35262Y-22492D01*
X35278Y-22484D01*
X35292Y-22474D01*
X35303Y-22461D01*
X35312Y-22446D01*
X35317Y-22430D01*
X35319Y-22412D01*
X35318Y-22405D01*
X35315Y-22388D01*
X35308Y-22371D01*
X35298Y-22356D01*
X35295Y-22353D01*
X35283Y-22343D01*
X35269Y-22335D01*
X35254Y-22330D01*
X35254Y-22330D01*
X35241Y-22328D01*
X35227Y-22328D01*
X35215Y-22330D01*
X35210Y-22331D01*
X35194Y-22338D01*
X35180Y-22347D01*
X35169Y-22359D01*
X35160Y-22373D01*
X35153Y-22388D01*
X35150Y-22405D01*
X35151Y-22422D01*
X35154Y-22439D01*
X35160Y-22452D01*
X35170Y-22466D01*
X35182Y-22478D01*
X35197Y-22487D01*
X35213Y-22494D01*
X35215Y-22494D01*
X35228Y-22496D01*
X35228Y-22496D01*
G37*
G36*
X34395Y-21992D02*
X34412Y-21990D01*
X34428Y-21984D01*
X34436Y-21980D01*
X34443Y-21975D01*
X34451Y-21968D01*
X34460Y-21958D01*
X34469Y-21944D01*
X34475Y-21928D01*
X34476Y-21923D01*
X34477Y-21912D01*
X34477Y-21900D01*
X34475Y-21890D01*
X34471Y-21876D01*
X34463Y-21861D01*
X34453Y-21848D01*
X34451Y-21846D01*
X34443Y-21840D01*
X34434Y-21834D01*
X34426Y-21830D01*
X34423Y-21829D01*
X34416Y-21826D01*
X34409Y-21825D01*
X34404Y-21824D01*
X34401Y-21824D01*
X34404Y-21823D01*
X34408Y-21822D01*
X34414Y-21821D01*
X34420Y-21819D01*
X34432Y-21813D01*
X34445Y-21805D01*
X34455Y-21796D01*
X34456Y-21794D01*
X34467Y-21780D01*
X34473Y-21764D01*
X34477Y-21747D01*
X34477Y-21730D01*
X34476Y-21726D01*
X34471Y-21709D01*
X34463Y-21693D01*
X34452Y-21679D01*
X34442Y-21670D01*
X34427Y-21662D01*
X34411Y-21656D01*
X34407Y-21656D01*
X34396Y-21655D01*
X34384Y-21655D01*
X34373Y-21657D01*
X34364Y-21660D01*
X34348Y-21667D01*
X34335Y-21678D01*
X34324Y-21690D01*
X34315Y-21705D01*
X34310Y-21721D01*
X34310Y-21723D01*
X34309Y-21727D01*
X34308Y-21729D01*
X34308Y-21727D01*
X34307Y-21723D01*
X34305Y-21716D01*
X34303Y-21709D01*
X34300Y-21702D01*
X34297Y-21697D01*
X34287Y-21683D01*
X34274Y-21671D01*
X34259Y-21662D01*
X34243Y-21657D01*
X34225Y-21655D01*
X34211Y-21656D01*
X34195Y-21660D01*
X34180Y-21667D01*
X34171Y-21673D01*
X34159Y-21685D01*
X34150Y-21700D01*
X34143Y-21715D01*
X34140Y-21732D01*
X34140Y-21749D01*
X34144Y-21764D01*
X34151Y-21781D01*
X34161Y-21795D01*
X34174Y-21806D01*
X34189Y-21815D01*
X34206Y-21821D01*
X34216Y-21824D01*
X34210Y-21824D01*
X34207Y-21825D01*
X34193Y-21829D01*
X34180Y-21836D01*
X34168Y-21845D01*
X34158Y-21855D01*
X34152Y-21864D01*
X34146Y-21876D01*
X34142Y-21887D01*
X34141Y-21896D01*
X34140Y-21906D01*
X34140Y-21917D01*
X34142Y-21926D01*
X34145Y-21936D01*
X34153Y-21952D01*
X34163Y-21966D01*
X34177Y-21977D01*
X34192Y-21985D01*
X34210Y-21991D01*
X34214Y-21991D01*
X34225Y-21992D01*
X34236Y-21991D01*
X34245Y-21989D01*
X34252Y-21987D01*
X34268Y-21979D01*
X34282Y-21969D01*
X34293Y-21956D01*
X34302Y-21941D01*
X34307Y-21924D01*
X34307Y-21923D01*
X34308Y-21919D01*
X34309Y-21919D01*
X34309Y-21896D01*
X34308Y-21895D01*
X34307Y-21892D01*
X34307Y-21891D01*
X34304Y-21880D01*
X34299Y-21868D01*
X34292Y-21857D01*
X34287Y-21851D01*
X34274Y-21839D01*
X34258Y-21830D01*
X34241Y-21825D01*
X34233Y-21823D01*
X34239Y-21822D01*
X34244Y-21821D01*
X34249Y-21819D01*
X34253Y-21818D01*
X34268Y-21811D01*
X34282Y-21800D01*
X34293Y-21788D01*
X34301Y-21773D01*
X34307Y-21757D01*
X34307Y-21753D01*
X34308Y-21750D01*
X34309Y-21752D01*
X34310Y-21757D01*
X34310Y-21757D01*
X34313Y-21766D01*
X34317Y-21776D01*
X34322Y-21785D01*
X34327Y-21791D01*
X34334Y-21799D01*
X34343Y-21807D01*
X34351Y-21812D01*
X34351Y-21812D01*
X34364Y-21818D01*
X34378Y-21822D01*
X34384Y-21823D01*
X34377Y-21824D01*
X34362Y-21829D01*
X34347Y-21837D01*
X34334Y-21847D01*
X34323Y-21860D01*
X34320Y-21864D01*
X34316Y-21872D01*
X34313Y-21881D01*
X34310Y-21889D01*
X34309Y-21894D01*
X34309Y-21894D01*
X34309Y-21896D01*
X34309Y-21919D01*
X34309Y-21919D01*
X34310Y-21923D01*
X34311Y-21928D01*
X34312Y-21933D01*
X34316Y-21942D01*
X34324Y-21957D01*
X34335Y-21969D01*
X34348Y-21979D01*
X34363Y-21986D01*
X34379Y-21991D01*
X34395Y-21992D01*
X34395Y-21992D01*
G37*
G36*
X34902Y-21992D02*
X34918Y-21989D01*
X34934Y-21983D01*
X34948Y-21974D01*
X34961Y-21963D01*
X34970Y-21949D01*
X34978Y-21933D01*
X34979Y-21928D01*
X34980Y-21923D01*
X34980Y-21922D01*
X34981Y-21919D01*
X34981Y-21919D01*
X34981Y-21896D01*
X34981Y-21893D01*
X34979Y-21887D01*
X34976Y-21878D01*
X34969Y-21863D01*
X34958Y-21849D01*
X34946Y-21838D01*
X34931Y-21830D01*
X34914Y-21825D01*
X34906Y-21823D01*
X34912Y-21822D01*
X34913Y-21822D01*
X34926Y-21818D01*
X34939Y-21812D01*
X34945Y-21809D01*
X34953Y-21802D01*
X34961Y-21793D01*
X34968Y-21785D01*
X34972Y-21778D01*
X34977Y-21767D01*
X34980Y-21757D01*
X34981Y-21753D01*
X34981Y-21750D01*
X34982Y-21752D01*
X34983Y-21757D01*
X34987Y-21768D01*
X34994Y-21783D01*
X35005Y-21797D01*
X35018Y-21808D01*
X35034Y-21817D01*
X35051Y-21822D01*
X35057Y-21823D01*
X35049Y-21825D01*
X35041Y-21827D01*
X35025Y-21834D01*
X35010Y-21844D01*
X34998Y-21857D01*
X34995Y-21862D01*
X34990Y-21870D01*
X34987Y-21879D01*
X34985Y-21885D01*
X34983Y-21891D01*
X34983Y-21891D01*
X34982Y-21895D01*
X34981Y-21896D01*
X34981Y-21919D01*
X34982Y-21920D01*
X34983Y-21924D01*
X34984Y-21930D01*
X34989Y-21942D01*
X34996Y-21954D01*
X35001Y-21961D01*
X35013Y-21973D01*
X35028Y-21983D01*
X35045Y-21989D01*
X35053Y-21991D01*
X35064Y-21991D01*
X35076Y-21991D01*
X35087Y-21989D01*
X35088Y-21989D01*
X35105Y-21982D01*
X35119Y-21972D01*
X35132Y-21960D01*
X35141Y-21945D01*
X35148Y-21928D01*
X35149Y-21921D01*
X35150Y-21909D01*
X35149Y-21897D01*
X35148Y-21887D01*
X35145Y-21878D01*
X35139Y-21866D01*
X35132Y-21855D01*
X35124Y-21847D01*
X35114Y-21838D01*
X35103Y-21832D01*
X35099Y-21830D01*
X35091Y-21827D01*
X35083Y-21825D01*
X35077Y-21824D01*
X35077Y-21824D01*
X35079Y-21823D01*
X35084Y-21821D01*
X35093Y-21818D01*
X35104Y-21814D01*
X35114Y-21809D01*
X35115Y-21807D01*
X35126Y-21797D01*
X35136Y-21785D01*
X35143Y-21773D01*
X35146Y-21767D01*
X35149Y-21750D01*
X35150Y-21732D01*
X35147Y-21715D01*
X35146Y-21712D01*
X35139Y-21696D01*
X35128Y-21682D01*
X35115Y-21671D01*
X35100Y-21662D01*
X35084Y-21656D01*
X35081Y-21656D01*
X35070Y-21655D01*
X35057Y-21655D01*
X35046Y-21657D01*
X35044Y-21657D01*
X35027Y-21664D01*
X35012Y-21674D01*
X35000Y-21686D01*
X34990Y-21702D01*
X34988Y-21707D01*
X34985Y-21714D01*
X34983Y-21721D01*
X34982Y-21727D01*
X34982Y-21728D01*
X34982Y-21729D01*
X34981Y-21726D01*
X34980Y-21722D01*
X34977Y-21710D01*
X34970Y-21695D01*
X34959Y-21682D01*
X34947Y-21671D01*
X34932Y-21662D01*
X34932Y-21662D01*
X34916Y-21657D01*
X34899Y-21655D01*
X34882Y-21656D01*
X34866Y-21660D01*
X34857Y-21665D01*
X34843Y-21675D01*
X34831Y-21687D01*
X34821Y-21702D01*
X34816Y-21718D01*
X34815Y-21722D01*
X34813Y-21736D01*
X34813Y-21749D01*
X34817Y-21764D01*
X34824Y-21780D01*
X34834Y-21795D01*
X34847Y-21806D01*
X34862Y-21815D01*
X34879Y-21821D01*
X34883Y-21822D01*
X34886Y-21823D01*
X34886Y-21824D01*
X34881Y-21824D01*
X34871Y-21827D01*
X34861Y-21832D01*
X34851Y-21837D01*
X34841Y-21844D01*
X34830Y-21857D01*
X34821Y-21873D01*
X34819Y-21875D01*
X34814Y-21892D01*
X34813Y-21909D01*
X34815Y-21926D01*
X34821Y-21942D01*
X34824Y-21950D01*
X34830Y-21958D01*
X34837Y-21966D01*
X34837Y-21966D01*
X34851Y-21978D01*
X34866Y-21986D01*
X34883Y-21991D01*
X34885Y-21991D01*
X34902Y-21992D01*
X34902Y-21992D01*
G37*
G36*
X34247Y-14566D02*
X34254Y-14562D01*
X34269Y-14553D01*
X34291Y-14538D01*
X34317Y-14521D01*
X34343Y-14503D01*
X34365Y-14489D01*
X34380Y-14479D01*
X34386Y-14476D01*
X34389Y-14477D01*
X34402Y-14483D01*
X34419Y-14492D01*
X34430Y-14498D01*
X34446Y-14505D01*
X34455Y-14506D01*
X34456Y-14504D01*
X34462Y-14492D01*
X34471Y-14470D01*
X34484Y-14442D01*
X34498Y-14408D01*
X34513Y-14372D01*
X34529Y-14336D01*
X34543Y-14301D01*
X34556Y-14269D01*
X34566Y-14243D01*
X34573Y-14226D01*
X34576Y-14218D01*
X34575Y-14216D01*
X34567Y-14208D01*
X34552Y-14198D01*
X34521Y-14172D01*
X34490Y-14134D01*
X34472Y-14091D01*
X34465Y-14042D01*
X34471Y-13997D01*
X34488Y-13955D01*
X34518Y-13916D01*
X34555Y-13887D01*
X34597Y-13869D01*
X34645Y-13863D01*
X34690Y-13868D01*
X34734Y-13886D01*
X34773Y-13915D01*
X34790Y-13934D01*
X34812Y-13973D01*
X34825Y-14015D01*
X34826Y-14026D01*
X34824Y-14072D01*
X34811Y-14116D01*
X34786Y-14155D01*
X34753Y-14188D01*
X34748Y-14191D01*
X34733Y-14203D01*
X34722Y-14211D01*
X34714Y-14217D01*
X34773Y-14359D01*
X34782Y-14381D01*
X34798Y-14420D01*
X34812Y-14453D01*
X34824Y-14480D01*
X34832Y-14498D01*
X34835Y-14505D01*
X34835Y-14505D01*
X34841Y-14506D01*
X34851Y-14502D01*
X34871Y-14493D01*
X34884Y-14486D01*
X34899Y-14479D01*
X34906Y-14476D01*
X34912Y-14479D01*
X34926Y-14488D01*
X34947Y-14502D01*
X34973Y-14520D01*
X34997Y-14536D01*
X35019Y-14551D01*
X35035Y-14561D01*
X35043Y-14565D01*
X35044Y-14565D01*
X35051Y-14561D01*
X35064Y-14551D01*
X35083Y-14533D01*
X35110Y-14506D01*
X35114Y-14501D01*
X35137Y-14479D01*
X35155Y-14460D01*
X35167Y-14446D01*
X35172Y-14440D01*
X35172Y-14440D01*
X35168Y-14432D01*
X35157Y-14416D01*
X35143Y-14393D01*
X35125Y-14367D01*
X35078Y-14299D01*
X35104Y-14235D01*
X35112Y-14215D01*
X35122Y-14191D01*
X35129Y-14174D01*
X35133Y-14167D01*
X35140Y-14164D01*
X35157Y-14160D01*
X35183Y-14155D01*
X35213Y-14149D01*
X35242Y-14144D01*
X35268Y-14139D01*
X35287Y-14135D01*
X35296Y-14134D01*
X35298Y-14132D01*
X35300Y-14128D01*
X35301Y-14119D01*
X35301Y-14103D01*
X35302Y-14078D01*
X35302Y-14042D01*
X35302Y-14038D01*
X35301Y-14004D01*
X35301Y-13976D01*
X35300Y-13959D01*
X35299Y-13952D01*
X35299Y-13952D01*
X35290Y-13950D01*
X35272Y-13946D01*
X35246Y-13941D01*
X35215Y-13935D01*
X35213Y-13934D01*
X35182Y-13928D01*
X35155Y-13923D01*
X35137Y-13919D01*
X35130Y-13916D01*
X35128Y-13914D01*
X35122Y-13902D01*
X35113Y-13883D01*
X35102Y-13859D01*
X35092Y-13835D01*
X35084Y-13813D01*
X35078Y-13796D01*
X35076Y-13789D01*
X35076Y-13789D01*
X35081Y-13781D01*
X35091Y-13765D01*
X35106Y-13743D01*
X35125Y-13716D01*
X35126Y-13714D01*
X35144Y-13688D01*
X35158Y-13666D01*
X35168Y-13650D01*
X35172Y-13643D01*
X35171Y-13642D01*
X35166Y-13635D01*
X35152Y-13620D01*
X35133Y-13600D01*
X35110Y-13576D01*
X35103Y-13569D01*
X35077Y-13544D01*
X35059Y-13528D01*
X35048Y-13519D01*
X35043Y-13517D01*
X35043Y-13517D01*
X35035Y-13522D01*
X35018Y-13533D01*
X34996Y-13548D01*
X34969Y-13566D01*
X34967Y-13568D01*
X34941Y-13586D01*
X34919Y-13600D01*
X34904Y-13611D01*
X34897Y-13615D01*
X34896Y-13615D01*
X34885Y-13612D01*
X34866Y-13605D01*
X34843Y-13596D01*
X34819Y-13586D01*
X34797Y-13577D01*
X34780Y-13570D01*
X34773Y-13565D01*
X34772Y-13565D01*
X34770Y-13555D01*
X34765Y-13536D01*
X34759Y-13509D01*
X34753Y-13476D01*
X34752Y-13471D01*
X34746Y-13440D01*
X34741Y-13414D01*
X34738Y-13396D01*
X34736Y-13389D01*
X34731Y-13388D01*
X34716Y-13387D01*
X34693Y-13386D01*
X34665Y-13386D01*
X34635Y-13386D01*
X34606Y-13387D01*
X34582Y-13387D01*
X34564Y-13389D01*
X34556Y-13390D01*
X34556Y-13391D01*
X34553Y-13400D01*
X34549Y-13420D01*
X34544Y-13447D01*
X34537Y-13479D01*
X34536Y-13485D01*
X34530Y-13516D01*
X34525Y-13542D01*
X34521Y-13560D01*
X34519Y-13567D01*
X34517Y-13568D01*
X34504Y-13574D01*
X34483Y-13582D01*
X34457Y-13593D01*
X34397Y-13617D01*
X34323Y-13567D01*
X34316Y-13562D01*
X34290Y-13544D01*
X34268Y-13529D01*
X34253Y-13520D01*
X34246Y-13516D01*
X34246Y-13516D01*
X34238Y-13523D01*
X34224Y-13536D01*
X34204Y-13556D01*
X34181Y-13579D01*
X34163Y-13596D01*
X34143Y-13617D01*
X34130Y-13631D01*
X34123Y-13640D01*
X34121Y-13645D01*
X34121Y-13649D01*
X34126Y-13656D01*
X34137Y-13673D01*
X34152Y-13695D01*
X34170Y-13721D01*
X34185Y-13743D01*
X34201Y-13768D01*
X34211Y-13785D01*
X34215Y-13794D01*
X34214Y-13798D01*
X34209Y-13812D01*
X34200Y-13834D01*
X34189Y-13860D01*
X34163Y-13918D01*
X34125Y-13926D01*
X34102Y-13930D01*
X34069Y-13936D01*
X34038Y-13942D01*
X33990Y-13952D01*
X33988Y-14129D01*
X33996Y-14132D01*
X34003Y-14134D01*
X34021Y-14138D01*
X34046Y-14143D01*
X34077Y-14149D01*
X34102Y-14154D01*
X34128Y-14159D01*
X34147Y-14162D01*
X34155Y-14164D01*
X34157Y-14167D01*
X34164Y-14179D01*
X34173Y-14199D01*
X34183Y-14223D01*
X34194Y-14248D01*
X34203Y-14271D01*
X34209Y-14289D01*
X34212Y-14298D01*
X34208Y-14305D01*
X34198Y-14320D01*
X34184Y-14342D01*
X34166Y-14368D01*
X34149Y-14393D01*
X34134Y-14416D01*
X34124Y-14431D01*
X34119Y-14439D01*
X34121Y-14444D01*
X34132Y-14456D01*
X34151Y-14476D01*
X34180Y-14505D01*
X34185Y-14509D01*
X34208Y-14532D01*
X34227Y-14550D01*
X34241Y-14562D01*
X34247Y-14566D01*
X34247Y-14566D01*
G37*
G54D13*
X35932Y-20519D02*
X34932Y-20519D01*
X34932Y-20519D02*
X34932Y-15519D01*
X34932Y-15519D02*
X35932Y-15519D01*
X35932Y-15519D02*
X35932Y-20519D01*
X35932Y-19519D02*
X34932Y-19519D01*
X21759Y-19807D02*
X20759Y-19807D01*
X20759Y-19807D02*
X20759Y-16807D01*
X20759Y-16807D02*
X21759Y-16807D01*
X21759Y-16807D02*
X21759Y-19807D01*
X20759Y-18807D02*
X21759Y-18807D01*
G54D11*
X23984Y-17807D02*
X24484Y-17807D01*
X24484Y-17807D02*
X24484Y-18807D01*
X24484Y-18807D02*
X23984Y-18807D01*
X23984Y-17307D02*
X27984Y-17307D01*
X27984Y-17307D02*
X27984Y-19307D01*
X27984Y-19307D02*
X23984Y-19307D01*
X23984Y-19307D02*
X23984Y-17307D01*
G54D13*
X30224Y-19807D02*
X29224Y-19807D01*
X29224Y-19807D02*
X29224Y-16807D01*
X29224Y-16807D02*
X30224Y-16807D01*
X30224Y-16807D02*
X30224Y-19807D01*
X29224Y-18807D02*
X30224Y-18807D01*
X34055Y-20307D02*
X34055Y-19907D01*
X34055Y-19907D02*
X33655Y-19907D01*
X33655Y-19907D02*
X33655Y-16707D01*
X33655Y-16707D02*
X34455Y-16707D01*
X34455Y-16707D02*
X34455Y-19907D01*
X34455Y-19907D02*
X34055Y-19907D01*
X33855Y-19907D02*
X33655Y-19707D01*
X34055Y-16307D02*
X34055Y-16707D01*
X27590Y-14370D02*
X27190Y-14370D01*
X27190Y-14370D02*
X27190Y-14770D01*
X27190Y-14770D02*
X23990Y-14770D01*
X23990Y-14770D02*
X23990Y-13970D01*
X23990Y-13970D02*
X27190Y-13970D01*
X27190Y-13970D02*
X27190Y-14370D01*
X27190Y-14570D02*
X26990Y-14770D01*
X23590Y-14370D02*
X23990Y-14370D01*
X33102Y-21850D02*
X32702Y-21850D01*
X32702Y-21850D02*
X32702Y-22250D01*
X32702Y-22250D02*
X29502Y-22250D01*
X29502Y-22250D02*
X29502Y-21450D01*
X29502Y-21450D02*
X32702Y-21450D01*
X32702Y-21450D02*
X32702Y-21850D01*
X32702Y-22050D02*
X32502Y-22250D01*
X29102Y-21850D02*
X29502Y-21850D01*
X23590Y-21850D02*
X23990Y-21850D01*
X23990Y-21850D02*
X23990Y-21450D01*
X23990Y-21450D02*
X27190Y-21450D01*
X27190Y-21450D02*
X27190Y-22250D01*
X27190Y-22250D02*
X23990Y-22250D01*
X23990Y-22250D02*
X23990Y-21850D01*
X23990Y-21650D02*
X24190Y-21450D01*
X27590Y-21850D02*
X27190Y-21850D01*
X33102Y-14370D02*
X32702Y-14370D01*
X32702Y-14370D02*
X32702Y-14770D01*
X32702Y-14770D02*
X29502Y-14770D01*
X29502Y-14770D02*
X29502Y-13970D01*
X29502Y-13970D02*
X32702Y-13970D01*
X32702Y-13970D02*
X32702Y-14370D01*
X32702Y-14570D02*
X32502Y-14770D01*
X29102Y-14370D02*
X29502Y-14370D01*
X23334Y-17327D02*
X23334Y-19307D01*
X23334Y-19307D02*
X22334Y-19307D01*
X22334Y-19307D02*
X22334Y-17307D01*
X22334Y-17307D02*
X23334Y-17307D01*
X23084Y-17307D02*
X23334Y-17557D01*
G54D10*
X31893Y-20437D02*
X31893Y-20037D01*
X32064Y-20418D02*
X32121Y-20437D01*
X32217Y-20437D01*
X32255Y-20418D01*
X32274Y-20399D01*
X32293Y-20361D01*
X32293Y-20323D01*
X32274Y-20285D01*
X32255Y-20265D01*
X32217Y-20246D01*
X32140Y-20227D01*
X32102Y-20208D01*
X32083Y-20189D01*
X32064Y-20151D01*
X32064Y-20113D01*
X32083Y-20075D01*
X32102Y-20056D01*
X32140Y-20037D01*
X32236Y-20037D01*
X32293Y-20056D01*
X32464Y-20437D02*
X32464Y-20037D01*
X32617Y-20037D01*
X32655Y-20056D01*
X32674Y-20075D01*
X32693Y-20113D01*
X32693Y-20170D01*
X32674Y-20208D01*
X32655Y-20227D01*
X32617Y-20246D01*
X32464Y-20246D01*
X35137Y-15319D02*
X35137Y-14919D01*
X35290Y-14919D01*
X35328Y-14938D01*
X35347Y-14957D01*
X35366Y-14995D01*
X35366Y-15052D01*
X35347Y-15090D01*
X35328Y-15109D01*
X35290Y-15128D01*
X35137Y-15128D01*
X35747Y-15319D02*
X35518Y-15319D01*
X35632Y-15319D02*
X35632Y-14919D01*
X35594Y-14976D01*
X35556Y-15014D01*
X35518Y-15033D01*
X20037Y-19974D02*
X20037Y-19745D01*
X20437Y-19860D02*
X20037Y-19860D01*
X20418Y-19631D02*
X20437Y-19574D01*
X20437Y-19478D01*
X20418Y-19440D01*
X20399Y-19421D01*
X20361Y-19402D01*
X20323Y-19402D01*
X20285Y-19421D01*
X20265Y-19440D01*
X20246Y-19478D01*
X20227Y-19555D01*
X20208Y-19593D01*
X20189Y-19612D01*
X20151Y-19631D01*
X20113Y-19631D01*
X20075Y-19612D01*
X20056Y-19593D01*
X20037Y-19555D01*
X20037Y-19459D01*
X20056Y-19402D01*
X20037Y-19155D02*
X20037Y-19078D01*
X20056Y-19040D01*
X20094Y-19002D01*
X20170Y-18983D01*
X20304Y-18983D01*
X20380Y-19002D01*
X20418Y-19040D01*
X20437Y-19078D01*
X20437Y-19155D01*
X20418Y-19193D01*
X20380Y-19231D01*
X20304Y-19250D01*
X20170Y-19250D01*
X20094Y-19231D01*
X20056Y-19193D01*
X20037Y-19155D01*
X20437Y-18812D02*
X20037Y-18812D01*
X20037Y-18659D01*
X20056Y-18621D01*
X20075Y-18602D01*
X20113Y-18583D01*
X20170Y-18583D01*
X20208Y-18602D01*
X20227Y-18621D01*
X20246Y-18659D01*
X20246Y-18812D01*
X20037Y-18450D02*
X20037Y-18202D01*
X20189Y-18336D01*
X20189Y-18278D01*
X20208Y-18240D01*
X20227Y-18221D01*
X20265Y-18202D01*
X20361Y-18202D01*
X20399Y-18221D01*
X20418Y-18240D01*
X20437Y-18278D01*
X20437Y-18393D01*
X20418Y-18431D01*
X20399Y-18450D01*
X20208Y-17974D02*
X20189Y-18012D01*
X20170Y-18031D01*
X20132Y-18050D01*
X20113Y-18050D01*
X20075Y-18031D01*
X20056Y-18012D01*
X20037Y-17974D01*
X20037Y-17897D01*
X20056Y-17859D01*
X20075Y-17840D01*
X20113Y-17821D01*
X20132Y-17821D01*
X20170Y-17840D01*
X20189Y-17859D01*
X20208Y-17897D01*
X20208Y-17974D01*
X20227Y-18012D01*
X20246Y-18031D01*
X20285Y-18050D01*
X20361Y-18050D01*
X20399Y-18031D01*
X20418Y-18012D01*
X20437Y-17974D01*
X20437Y-17897D01*
X20418Y-17859D01*
X20399Y-17840D01*
X20361Y-17821D01*
X20285Y-17821D01*
X20246Y-17840D01*
X20227Y-17859D01*
X20208Y-17897D01*
X20075Y-17669D02*
X20056Y-17650D01*
X20037Y-17612D01*
X20037Y-17516D01*
X20056Y-17478D01*
X20075Y-17459D01*
X20113Y-17440D01*
X20151Y-17440D01*
X20208Y-17459D01*
X20437Y-17688D01*
X20437Y-17440D01*
X20037Y-17307D02*
X20037Y-17059D01*
X20189Y-17193D01*
X20189Y-17135D01*
X20208Y-17097D01*
X20227Y-17078D01*
X20265Y-17059D01*
X20361Y-17059D01*
X20399Y-17078D01*
X20418Y-17097D01*
X20437Y-17135D01*
X20437Y-17250D01*
X20418Y-17288D01*
X20399Y-17307D01*
X20208Y-16831D02*
X20189Y-16869D01*
X20170Y-16888D01*
X20132Y-16907D01*
X20113Y-16907D01*
X20075Y-16888D01*
X20056Y-16869D01*
X20037Y-16831D01*
X20037Y-16754D01*
X20056Y-16716D01*
X20075Y-16697D01*
X20113Y-16678D01*
X20132Y-16678D01*
X20170Y-16697D01*
X20189Y-16716D01*
X20208Y-16754D01*
X20208Y-16831D01*
X20227Y-16869D01*
X20246Y-16888D01*
X20285Y-16907D01*
X20361Y-16907D01*
X20399Y-16888D01*
X20418Y-16869D01*
X20437Y-16831D01*
X20437Y-16754D01*
X20418Y-16716D01*
X20399Y-16697D01*
X20361Y-16678D01*
X20285Y-16678D01*
X20246Y-16697D01*
X20227Y-16716D01*
X20208Y-16754D01*
X24279Y-15796D02*
X24470Y-15796D01*
X24241Y-15910D02*
X24374Y-15510D01*
X24508Y-15910D01*
X24584Y-15510D02*
X24813Y-15510D01*
X24698Y-15910D02*
X24698Y-15510D01*
X24889Y-15510D02*
X25118Y-15510D01*
X25003Y-15910D02*
X25003Y-15510D01*
X25251Y-15910D02*
X25251Y-15510D01*
X25441Y-15910D02*
X25441Y-15510D01*
X25670Y-15910D01*
X25670Y-15510D01*
X25936Y-15719D02*
X25936Y-15910D01*
X25803Y-15510D02*
X25936Y-15719D01*
X26070Y-15510D01*
X26260Y-15681D02*
X26222Y-15662D01*
X26203Y-15643D01*
X26184Y-15605D01*
X26184Y-15586D01*
X26203Y-15548D01*
X26222Y-15529D01*
X26260Y-15510D01*
X26337Y-15510D01*
X26375Y-15529D01*
X26394Y-15548D01*
X26413Y-15586D01*
X26413Y-15605D01*
X26394Y-15643D01*
X26375Y-15662D01*
X26337Y-15681D01*
X26260Y-15681D01*
X26222Y-15700D01*
X26203Y-15719D01*
X26184Y-15758D01*
X26184Y-15834D01*
X26203Y-15872D01*
X26222Y-15891D01*
X26260Y-15910D01*
X26337Y-15910D01*
X26375Y-15891D01*
X26394Y-15872D01*
X26413Y-15834D01*
X26413Y-15758D01*
X26394Y-15719D01*
X26375Y-15700D01*
X26337Y-15681D01*
X26775Y-15510D02*
X26584Y-15510D01*
X26565Y-15700D01*
X26584Y-15681D01*
X26622Y-15662D01*
X26718Y-15662D01*
X26756Y-15681D01*
X26775Y-15700D01*
X26794Y-15738D01*
X26794Y-15834D01*
X26775Y-15872D01*
X26756Y-15891D01*
X26718Y-15910D01*
X26622Y-15910D01*
X26584Y-15891D01*
X26565Y-15872D01*
X26965Y-15758D02*
X27270Y-15758D01*
X27460Y-15910D02*
X27460Y-15510D01*
X27613Y-15510D01*
X27651Y-15529D01*
X27670Y-15548D01*
X27689Y-15586D01*
X27689Y-15643D01*
X27670Y-15681D01*
X27651Y-15700D01*
X27613Y-15719D01*
X27460Y-15719D01*
X29686Y-20475D02*
X29648Y-20456D01*
X29610Y-20418D01*
X29553Y-20361D01*
X29514Y-20342D01*
X29476Y-20342D01*
X29495Y-20437D02*
X29457Y-20418D01*
X29419Y-20380D01*
X29400Y-20304D01*
X29400Y-20170D01*
X29419Y-20094D01*
X29457Y-20056D01*
X29495Y-20037D01*
X29572Y-20037D01*
X29610Y-20056D01*
X29648Y-20094D01*
X29667Y-20170D01*
X29667Y-20304D01*
X29648Y-20380D01*
X29610Y-20418D01*
X29572Y-20437D01*
X29495Y-20437D01*
X30048Y-20437D02*
X29819Y-20437D01*
X29933Y-20437D02*
X29933Y-20037D01*
X29895Y-20094D01*
X29857Y-20132D01*
X29819Y-20151D01*
X34217Y-19357D02*
X34026Y-19491D01*
X34217Y-19586D02*
X33817Y-19586D01*
X33817Y-19433D01*
X33836Y-19395D01*
X33855Y-19376D01*
X33893Y-19357D01*
X33950Y-19357D01*
X33988Y-19376D01*
X34007Y-19395D01*
X34026Y-19433D01*
X34026Y-19586D01*
X33855Y-19205D02*
X33836Y-19186D01*
X33817Y-19148D01*
X33817Y-19052D01*
X33836Y-19014D01*
X33855Y-18995D01*
X33893Y-18976D01*
X33931Y-18976D01*
X33988Y-18995D01*
X34217Y-19224D01*
X34217Y-18976D01*
X34217Y-17370D02*
X34217Y-17599D01*
X34217Y-17485D02*
X33817Y-17485D01*
X33874Y-17523D01*
X33912Y-17561D01*
X33931Y-17599D01*
X34217Y-17199D02*
X33817Y-17199D01*
X34065Y-17161D02*
X34217Y-17046D01*
X33950Y-17046D02*
X34103Y-17199D01*
X24540Y-14532D02*
X24406Y-14341D01*
X24311Y-14532D02*
X24311Y-14132D01*
X24464Y-14132D01*
X24502Y-14151D01*
X24521Y-14170D01*
X24540Y-14208D01*
X24540Y-14265D01*
X24521Y-14303D01*
X24502Y-14322D01*
X24464Y-14341D01*
X24311Y-14341D01*
X24883Y-14265D02*
X24883Y-14532D01*
X24787Y-14113D02*
X24692Y-14399D01*
X24940Y-14399D01*
X26527Y-14532D02*
X26298Y-14532D01*
X26412Y-14532D02*
X26412Y-14132D01*
X26374Y-14189D01*
X26336Y-14227D01*
X26298Y-14246D01*
X26698Y-14532D02*
X26698Y-14132D01*
X26736Y-14380D02*
X26851Y-14532D01*
X26851Y-14265D02*
X26698Y-14418D01*
X30052Y-22012D02*
X29918Y-21821D01*
X29823Y-22012D02*
X29823Y-21612D01*
X29976Y-21612D01*
X30014Y-21631D01*
X30033Y-21650D01*
X30052Y-21688D01*
X30052Y-21745D01*
X30033Y-21783D01*
X30014Y-21802D01*
X29976Y-21821D01*
X29823Y-21821D01*
X30414Y-21612D02*
X30223Y-21612D01*
X30204Y-21802D01*
X30223Y-21783D01*
X30261Y-21764D01*
X30357Y-21764D01*
X30395Y-21783D01*
X30414Y-21802D01*
X30433Y-21840D01*
X30433Y-21936D01*
X30414Y-21974D01*
X30395Y-21993D01*
X30357Y-22012D01*
X30261Y-22012D01*
X30223Y-21993D01*
X30204Y-21974D01*
X32039Y-22012D02*
X31810Y-22012D01*
X31924Y-22012D02*
X31924Y-21612D01*
X31886Y-21669D01*
X31848Y-21707D01*
X31810Y-21726D01*
X32210Y-22012D02*
X32210Y-21612D01*
X32248Y-21860D02*
X32363Y-22012D01*
X32363Y-21745D02*
X32210Y-21898D01*
X24540Y-22012D02*
X24406Y-21821D01*
X24311Y-22012D02*
X24311Y-21612D01*
X24464Y-21612D01*
X24502Y-21631D01*
X24521Y-21650D01*
X24540Y-21688D01*
X24540Y-21745D01*
X24521Y-21783D01*
X24502Y-21802D01*
X24464Y-21821D01*
X24311Y-21821D01*
X24921Y-22012D02*
X24692Y-22012D01*
X24806Y-22012D02*
X24806Y-21612D01*
X24768Y-21669D01*
X24730Y-21707D01*
X24692Y-21726D01*
X26139Y-22012D02*
X25910Y-22012D01*
X26024Y-22012D02*
X26024Y-21612D01*
X25986Y-21669D01*
X25948Y-21707D01*
X25910Y-21726D01*
X26386Y-21612D02*
X26425Y-21612D01*
X26463Y-21631D01*
X26482Y-21650D01*
X26501Y-21688D01*
X26520Y-21764D01*
X26520Y-21860D01*
X26501Y-21936D01*
X26482Y-21974D01*
X26463Y-21993D01*
X26425Y-22012D01*
X26386Y-22012D01*
X26348Y-21993D01*
X26329Y-21974D01*
X26310Y-21936D01*
X26291Y-21860D01*
X26291Y-21764D01*
X26310Y-21688D01*
X26329Y-21650D01*
X26348Y-21631D01*
X26386Y-21612D01*
X26691Y-22012D02*
X26691Y-21612D01*
X26729Y-21860D02*
X26844Y-22012D01*
X26844Y-21745D02*
X26691Y-21898D01*
X30052Y-14532D02*
X29918Y-14341D01*
X29823Y-14532D02*
X29823Y-14132D01*
X29976Y-14132D01*
X30014Y-14151D01*
X30033Y-14170D01*
X30052Y-14208D01*
X30052Y-14265D01*
X30033Y-14303D01*
X30014Y-14322D01*
X29976Y-14341D01*
X29823Y-14341D01*
X30185Y-14132D02*
X30433Y-14132D01*
X30299Y-14284D01*
X30357Y-14284D01*
X30395Y-14303D01*
X30414Y-14322D01*
X30433Y-14360D01*
X30433Y-14456D01*
X30414Y-14494D01*
X30395Y-14513D01*
X30357Y-14532D01*
X30242Y-14532D01*
X30204Y-14513D01*
X30185Y-14494D01*
X32039Y-14532D02*
X31810Y-14532D01*
X31924Y-14532D02*
X31924Y-14132D01*
X31886Y-14189D01*
X31848Y-14227D01*
X31810Y-14246D01*
X32210Y-14532D02*
X32210Y-14132D01*
X32248Y-14380D02*
X32363Y-14532D01*
X32363Y-14265D02*
X32210Y-14418D01*
X22768Y-20006D02*
X22749Y-20025D01*
X22692Y-20044D01*
X22654Y-20044D01*
X22596Y-20025D01*
X22558Y-19987D01*
X22539Y-19949D01*
X22520Y-19872D01*
X22520Y-19815D01*
X22539Y-19739D01*
X22558Y-19701D01*
X22596Y-19663D01*
X22654Y-19644D01*
X22692Y-19644D01*
X22749Y-19663D01*
X22768Y-19682D01*
X23149Y-20044D02*
X22920Y-20044D01*
X23034Y-20044D02*
X23034Y-19644D01*
X22996Y-19701D01*
X22958Y-19739D01*
X22920Y-19758D01*
%LPC*%
G54D14*
X31783Y-17307D03*
G54D15*
X32783Y-17307D03*
X31783Y-18307D03*
X32783Y-18307D03*
X31783Y-19307D03*
X32783Y-19307D03*
G54D16*
X37401Y-21850D03*
X37401Y-14370D03*
X21259Y-21850D03*
X21259Y-14370D03*
G54D17*
X35432Y-20019D03*
G54D18*
X35432Y-19019D03*
X35432Y-18019D03*
X35432Y-17019D03*
X35432Y-16019D03*
G54D17*
X21259Y-19307D03*
G54D18*
X21259Y-18307D03*
X21259Y-17307D03*
G54D19*
X24484Y-19807D03*
G54D20*
X25484Y-19807D03*
X26484Y-19807D03*
X27484Y-19807D03*
X27484Y-16807D03*
X26484Y-16807D03*
X25484Y-16807D03*
X24484Y-16807D03*
G54D17*
X29724Y-19307D03*
G54D18*
X29724Y-18307D03*
X29724Y-17307D03*
G54D15*
X34055Y-20307D03*
X34055Y-16307D03*
X27590Y-14370D03*
X23590Y-14370D03*
X33102Y-21850D03*
X29102Y-21850D03*
X23590Y-21850D03*
X27590Y-21850D03*
X33102Y-14370D03*
X29102Y-14370D03*
G54D18*
X22834Y-17807D03*
X22834Y-18807D03*
M02*
