G04 (created by PCBNEW-RS274X (2012-jan-04)-stable) date Sat 31 Mar 2012 10:17:58 PM CEST*
G01*
G70*
G90*
%MOIN*%
G04 Gerber Fmt 3.4, Leading zero omitted, Abs format*
%FSLAX34Y34*%
G04 APERTURE LIST*
%ADD10C,0.008000*%
%ADD11C,0.015000*%
%ADD12R,0.055000X0.055000*%
%ADD13C,0.055000*%
%ADD14C,0.160000*%
%ADD15C,0.066000*%
%ADD16R,0.060000X0.060000*%
%ADD17C,0.060000*%
%ADD18R,0.090000X0.062000*%
%ADD19O,0.090000X0.062000*%
%ADD20O,0.059100X0.047200*%
%ADD21C,0.012000*%
%ADD22C,0.010000*%
G04 APERTURE END LIST*
G54D10*
G54D11*
X38976Y-12795D02*
X19684Y-12795D01*
X38976Y-23425D02*
X38976Y-12795D01*
X19684Y-23425D02*
X38976Y-23425D01*
X19684Y-12795D02*
X19684Y-23425D01*
G54D12*
X34055Y-15610D03*
G54D13*
X34055Y-16610D03*
X34055Y-17610D03*
X34055Y-18610D03*
X34055Y-19610D03*
X34055Y-20610D03*
G54D14*
X21260Y-14370D03*
G54D15*
X37795Y-17610D03*
X37795Y-18610D03*
G54D16*
X29421Y-17110D03*
G54D17*
X30421Y-17110D03*
X29421Y-18110D03*
X30421Y-18110D03*
X29421Y-19110D03*
X30421Y-19110D03*
G54D14*
X37401Y-21850D03*
X37401Y-14370D03*
X21259Y-21850D03*
G54D12*
X20669Y-17110D03*
G54D13*
X20669Y-18110D03*
X20669Y-19110D03*
G54D18*
X23303Y-16610D03*
G54D19*
X23303Y-17610D03*
X23303Y-18610D03*
X23303Y-19610D03*
X26303Y-19610D03*
X26303Y-18610D03*
X26303Y-17610D03*
X26303Y-16610D03*
G54D12*
X27756Y-17110D03*
G54D13*
X27756Y-18110D03*
X27756Y-19110D03*
G54D17*
X27394Y-15157D03*
X23394Y-15157D03*
X27394Y-14173D03*
X23394Y-14173D03*
X32315Y-15157D03*
X28315Y-15157D03*
X30740Y-20472D03*
X26740Y-20472D03*
X32315Y-14173D03*
X28315Y-14173D03*
G54D13*
X22047Y-18610D03*
X22047Y-17610D03*
G54D17*
X36417Y-16110D03*
X36417Y-20110D03*
G54D12*
X31799Y-21850D03*
G54D13*
X30799Y-21850D03*
X32783Y-16338D03*
X31783Y-16338D03*
X31783Y-19882D03*
X32783Y-19882D03*
X24303Y-21653D03*
X25303Y-21653D03*
G54D20*
X32677Y-17610D03*
X32677Y-18610D03*
X32177Y-18110D03*
G54D21*
X33340Y-15198D02*
X32315Y-14173D01*
X33340Y-15895D02*
X33340Y-15198D01*
X34055Y-16610D02*
X33340Y-15895D01*
X22339Y-15858D02*
X21087Y-17110D01*
X27726Y-15858D02*
X22339Y-15858D01*
X28978Y-17110D02*
X27726Y-15858D01*
X29421Y-17110D02*
X28978Y-17110D01*
X20669Y-17110D02*
X21087Y-17110D01*
X33386Y-17941D02*
X34055Y-18610D01*
X32795Y-17144D02*
X31387Y-17144D01*
X32809Y-17144D02*
X32795Y-17144D01*
X33077Y-15224D02*
X33077Y-15943D01*
X27886Y-14665D02*
X32518Y-14665D01*
X33385Y-16568D02*
X32809Y-17144D01*
X32518Y-14665D02*
X33077Y-15224D01*
X31387Y-17144D02*
X30421Y-18110D01*
X33049Y-17144D02*
X33386Y-17481D01*
X27394Y-15157D02*
X27886Y-14665D01*
X33077Y-15943D02*
X33385Y-16251D01*
X33386Y-17481D02*
X33386Y-17941D01*
X32795Y-17144D02*
X33049Y-17144D01*
X33385Y-16251D02*
X33385Y-16568D01*
X28888Y-18577D02*
X29421Y-19110D01*
X28888Y-17780D02*
X28888Y-18577D01*
X29040Y-17628D02*
X28888Y-17780D01*
X29757Y-17628D02*
X29040Y-17628D01*
X29944Y-17441D02*
X29757Y-17628D01*
X29944Y-16828D02*
X29944Y-17441D01*
X31615Y-15157D02*
X29944Y-16828D01*
X32315Y-15157D02*
X31615Y-15157D01*
X34055Y-19610D02*
X33343Y-20322D01*
X32385Y-20322D02*
X32312Y-20249D01*
X32312Y-19723D02*
X31199Y-18610D01*
X29921Y-18610D02*
X29421Y-18110D01*
X32312Y-20249D02*
X32312Y-19723D01*
X33343Y-20322D02*
X32385Y-20322D01*
X31199Y-18610D02*
X29921Y-18610D01*
X34736Y-17610D02*
X34055Y-17610D01*
X35532Y-18406D02*
X34736Y-17610D01*
X35532Y-21062D02*
X35532Y-18406D01*
X34744Y-21850D02*
X35532Y-21062D01*
X31799Y-21850D02*
X34744Y-21850D01*
X27756Y-17110D02*
X27338Y-17110D01*
X27338Y-16692D02*
X27338Y-17110D01*
X23303Y-17610D02*
X23303Y-17157D01*
X26730Y-16084D02*
X27338Y-16692D01*
X23303Y-17157D02*
X23756Y-17157D01*
X24829Y-16084D02*
X26730Y-16084D01*
X23756Y-17157D02*
X24829Y-16084D01*
X32087Y-18110D02*
X31890Y-18307D01*
X31890Y-18307D02*
X31890Y-18989D01*
X31890Y-18989D02*
X32783Y-19882D01*
X32177Y-18110D02*
X32087Y-18110D01*
X36417Y-20110D02*
X35748Y-20779D01*
X35748Y-20779D02*
X35748Y-21319D01*
X35748Y-21319D02*
X34700Y-22367D01*
X31281Y-21717D02*
X29174Y-19610D01*
X31414Y-22367D02*
X31281Y-22234D01*
X31281Y-22234D02*
X31281Y-21717D01*
X34700Y-22367D02*
X31414Y-22367D01*
X29174Y-19610D02*
X26303Y-19610D01*
X24016Y-21653D02*
X24303Y-21653D01*
X26303Y-16610D02*
X24878Y-16610D01*
X24878Y-16610D02*
X24303Y-17185D01*
X24303Y-17185D02*
X24303Y-21653D01*
X22047Y-18610D02*
X22047Y-19684D01*
X22047Y-19684D02*
X24016Y-21653D01*
X24303Y-22334D02*
X24607Y-22638D01*
X24303Y-21653D02*
X24303Y-22334D01*
X30011Y-22638D02*
X30799Y-21850D01*
X24607Y-22638D02*
X30011Y-22638D01*
G54D10*
G36*
X30702Y-21435D02*
X30678Y-21440D01*
X30601Y-21472D01*
X30531Y-21517D01*
X30472Y-21576D01*
X30425Y-21645D01*
X30392Y-21721D01*
X30375Y-21803D01*
X30373Y-21886D01*
X30388Y-21964D01*
X29924Y-22428D01*
X25828Y-22428D01*
X25828Y-21625D01*
X25812Y-21523D01*
X25777Y-21427D01*
X25755Y-21386D01*
X25664Y-21363D01*
X25593Y-21434D01*
X25593Y-21292D01*
X25570Y-21201D01*
X25477Y-21158D01*
X25377Y-21133D01*
X25275Y-21128D01*
X25173Y-21144D01*
X25077Y-21179D01*
X25036Y-21201D01*
X25013Y-21292D01*
X25303Y-21582D01*
X25593Y-21292D01*
X25593Y-21434D01*
X25374Y-21653D01*
X25664Y-21943D01*
X25755Y-21920D01*
X25798Y-21827D01*
X25823Y-21727D01*
X25828Y-21625D01*
X25828Y-22428D01*
X25593Y-22428D01*
X25593Y-22014D01*
X25303Y-21724D01*
X25232Y-21795D01*
X25232Y-21653D01*
X24942Y-21363D01*
X24851Y-21386D01*
X24808Y-21479D01*
X24783Y-21579D01*
X24778Y-21681D01*
X24794Y-21783D01*
X24829Y-21879D01*
X24851Y-21920D01*
X24942Y-21943D01*
X25232Y-21653D01*
X25232Y-21795D01*
X25013Y-22014D01*
X25036Y-22105D01*
X25129Y-22148D01*
X25229Y-22173D01*
X25331Y-22178D01*
X25433Y-22162D01*
X25529Y-22127D01*
X25570Y-22105D01*
X25593Y-22014D01*
X25593Y-22428D01*
X24693Y-22428D01*
X24513Y-22247D01*
X24513Y-22023D01*
X24566Y-21989D01*
X24627Y-21932D01*
X24674Y-21864D01*
X24708Y-21787D01*
X24727Y-21706D01*
X24728Y-21611D01*
X24712Y-21529D01*
X24680Y-21452D01*
X24634Y-21383D01*
X24575Y-21324D01*
X24513Y-21281D01*
X24513Y-17271D01*
X24964Y-16820D01*
X25751Y-16820D01*
X25753Y-16823D01*
X25802Y-16898D01*
X25865Y-16963D01*
X25939Y-17013D01*
X26022Y-17049D01*
X26110Y-17067D01*
X26200Y-17069D01*
X26490Y-17068D01*
X26578Y-17051D01*
X26661Y-17016D01*
X26736Y-16967D01*
X26800Y-16903D01*
X26850Y-16829D01*
X26885Y-16746D01*
X26903Y-16658D01*
X26903Y-16568D01*
X26899Y-16550D01*
X27128Y-16778D01*
X27128Y-17109D01*
X27128Y-17110D01*
X27132Y-17151D01*
X27137Y-17167D01*
X27143Y-17189D01*
X27144Y-17190D01*
X27162Y-17225D01*
X27163Y-17226D01*
X27188Y-17257D01*
X27189Y-17258D01*
X27195Y-17263D01*
X27219Y-17283D01*
X27221Y-17284D01*
X27255Y-17303D01*
X27257Y-17304D01*
X27294Y-17315D01*
X27296Y-17316D01*
X27327Y-17319D01*
X27332Y-17319D01*
X27332Y-17400D01*
X27338Y-17429D01*
X27349Y-17456D01*
X27365Y-17480D01*
X27386Y-17501D01*
X27410Y-17517D01*
X27437Y-17528D01*
X27466Y-17534D01*
X27495Y-17534D01*
X28046Y-17534D01*
X28075Y-17528D01*
X28102Y-17517D01*
X28126Y-17501D01*
X28147Y-17480D01*
X28163Y-17456D01*
X28174Y-17429D01*
X28180Y-17400D01*
X28180Y-17371D01*
X28180Y-16820D01*
X28174Y-16791D01*
X28163Y-16764D01*
X28147Y-16740D01*
X28126Y-16719D01*
X28102Y-16703D01*
X28075Y-16692D01*
X28046Y-16686D01*
X28017Y-16686D01*
X27547Y-16686D01*
X27544Y-16653D01*
X27544Y-16651D01*
X27537Y-16629D01*
X27533Y-16614D01*
X27532Y-16612D01*
X27513Y-16576D01*
X27490Y-16548D01*
X27488Y-16545D01*
X27487Y-16544D01*
X27486Y-16543D01*
X27010Y-16068D01*
X27639Y-16068D01*
X28827Y-17256D01*
X28828Y-17257D01*
X28829Y-17258D01*
X28835Y-17263D01*
X28859Y-17283D01*
X28861Y-17284D01*
X28895Y-17303D01*
X28897Y-17303D01*
X28934Y-17315D01*
X28936Y-17315D01*
X28972Y-17319D01*
X28972Y-17425D01*
X28973Y-17429D01*
X28973Y-17430D01*
X28960Y-17434D01*
X28924Y-17453D01*
X28899Y-17473D01*
X28893Y-17478D01*
X28892Y-17479D01*
X28891Y-17480D01*
X28746Y-17625D01*
X28741Y-17630D01*
X28721Y-17653D01*
X28713Y-17663D01*
X28696Y-17695D01*
X28695Y-17697D01*
X28694Y-17697D01*
X28694Y-17699D01*
X28682Y-17738D01*
X28678Y-17769D01*
X28678Y-17777D01*
X28678Y-17779D01*
X28678Y-17780D01*
X28678Y-18575D01*
X28678Y-18577D01*
X28682Y-18618D01*
X28689Y-18643D01*
X28693Y-18655D01*
X28693Y-18656D01*
X28694Y-18657D01*
X28712Y-18691D01*
X28713Y-18693D01*
X28727Y-18711D01*
X28737Y-18723D01*
X28739Y-18725D01*
X28740Y-18725D01*
X28744Y-18729D01*
X28989Y-18975D01*
X28972Y-19059D01*
X28970Y-19148D01*
X28986Y-19235D01*
X29019Y-19317D01*
X29067Y-19391D01*
X29075Y-19400D01*
X28281Y-19400D01*
X28281Y-18082D01*
X28265Y-17980D01*
X28230Y-17884D01*
X28208Y-17843D01*
X28117Y-17820D01*
X28046Y-17891D01*
X28046Y-17749D01*
X28023Y-17658D01*
X27930Y-17615D01*
X27830Y-17590D01*
X27728Y-17585D01*
X27626Y-17601D01*
X27530Y-17636D01*
X27489Y-17658D01*
X27466Y-17749D01*
X27756Y-18039D01*
X28046Y-17749D01*
X28046Y-17891D01*
X27827Y-18110D01*
X28117Y-18400D01*
X28208Y-18377D01*
X28251Y-18284D01*
X28276Y-18184D01*
X28281Y-18082D01*
X28281Y-19400D01*
X28068Y-19400D01*
X28080Y-19389D01*
X28127Y-19321D01*
X28161Y-19244D01*
X28180Y-19163D01*
X28181Y-19068D01*
X28165Y-18986D01*
X28133Y-18909D01*
X28087Y-18840D01*
X28046Y-18799D01*
X28046Y-18471D01*
X27756Y-18181D01*
X27685Y-18252D01*
X27685Y-18110D01*
X27395Y-17820D01*
X27304Y-17843D01*
X27261Y-17936D01*
X27236Y-18036D01*
X27231Y-18138D01*
X27247Y-18240D01*
X27282Y-18336D01*
X27304Y-18377D01*
X27395Y-18400D01*
X27685Y-18110D01*
X27685Y-18252D01*
X27466Y-18471D01*
X27489Y-18562D01*
X27582Y-18605D01*
X27682Y-18630D01*
X27784Y-18635D01*
X27886Y-18619D01*
X27982Y-18584D01*
X28023Y-18562D01*
X28046Y-18471D01*
X28046Y-18799D01*
X28028Y-18781D01*
X27959Y-18734D01*
X27882Y-18702D01*
X27800Y-18685D01*
X27717Y-18685D01*
X27635Y-18700D01*
X27558Y-18732D01*
X27488Y-18777D01*
X27429Y-18836D01*
X27382Y-18905D01*
X27349Y-18981D01*
X27332Y-19063D01*
X27330Y-19146D01*
X27346Y-19228D01*
X27376Y-19306D01*
X27422Y-19376D01*
X27445Y-19400D01*
X26903Y-19400D01*
X26903Y-18658D01*
X26903Y-18568D01*
X26903Y-17658D01*
X26903Y-17568D01*
X26886Y-17480D01*
X26853Y-17397D01*
X26804Y-17322D01*
X26741Y-17257D01*
X26667Y-17207D01*
X26584Y-17171D01*
X26496Y-17153D01*
X26406Y-17151D01*
X26116Y-17152D01*
X26028Y-17169D01*
X25945Y-17204D01*
X25870Y-17253D01*
X25806Y-17317D01*
X25756Y-17391D01*
X25721Y-17474D01*
X25703Y-17562D01*
X25703Y-17652D01*
X25720Y-17740D01*
X25753Y-17823D01*
X25802Y-17898D01*
X25865Y-17963D01*
X25939Y-18013D01*
X26022Y-18049D01*
X26110Y-18067D01*
X26200Y-18069D01*
X26490Y-18068D01*
X26578Y-18051D01*
X26661Y-18016D01*
X26736Y-17967D01*
X26800Y-17903D01*
X26850Y-17829D01*
X26885Y-17746D01*
X26903Y-17658D01*
X26903Y-18568D01*
X26886Y-18480D01*
X26853Y-18397D01*
X26804Y-18322D01*
X26741Y-18257D01*
X26667Y-18207D01*
X26584Y-18171D01*
X26496Y-18153D01*
X26406Y-18151D01*
X26116Y-18152D01*
X26028Y-18169D01*
X25945Y-18204D01*
X25870Y-18253D01*
X25806Y-18317D01*
X25756Y-18391D01*
X25721Y-18474D01*
X25703Y-18562D01*
X25703Y-18652D01*
X25720Y-18740D01*
X25753Y-18823D01*
X25802Y-18898D01*
X25865Y-18963D01*
X25939Y-19013D01*
X26022Y-19049D01*
X26110Y-19067D01*
X26200Y-19069D01*
X26490Y-19068D01*
X26578Y-19051D01*
X26661Y-19016D01*
X26736Y-18967D01*
X26800Y-18903D01*
X26850Y-18829D01*
X26885Y-18746D01*
X26903Y-18658D01*
X26903Y-19400D01*
X26854Y-19400D01*
X26853Y-19397D01*
X26804Y-19322D01*
X26741Y-19257D01*
X26667Y-19207D01*
X26584Y-19171D01*
X26496Y-19153D01*
X26406Y-19151D01*
X26116Y-19152D01*
X26028Y-19169D01*
X25945Y-19204D01*
X25870Y-19253D01*
X25806Y-19317D01*
X25756Y-19391D01*
X25721Y-19474D01*
X25703Y-19562D01*
X25703Y-19652D01*
X25720Y-19740D01*
X25753Y-19823D01*
X25802Y-19898D01*
X25865Y-19963D01*
X25939Y-20013D01*
X26022Y-20049D01*
X26110Y-20067D01*
X26200Y-20069D01*
X26490Y-20068D01*
X26578Y-20051D01*
X26531Y-20071D01*
X26457Y-20120D01*
X26394Y-20181D01*
X26344Y-20254D01*
X26309Y-20335D01*
X26291Y-20421D01*
X26289Y-20510D01*
X26305Y-20597D01*
X26338Y-20679D01*
X26386Y-20753D01*
X26447Y-20816D01*
X26519Y-20867D01*
X26600Y-20902D01*
X26686Y-20921D01*
X26775Y-20923D01*
X26861Y-20908D01*
X26944Y-20876D01*
X27018Y-20828D01*
X27082Y-20768D01*
X27133Y-20695D01*
X27169Y-20615D01*
X27189Y-20529D01*
X27190Y-20428D01*
X27173Y-20341D01*
X27139Y-20260D01*
X27090Y-20186D01*
X27028Y-20124D01*
X26955Y-20074D01*
X26874Y-20040D01*
X26787Y-20022D01*
X26699Y-20022D01*
X26612Y-20038D01*
X26578Y-20051D01*
X26661Y-20016D01*
X26736Y-19967D01*
X26800Y-19903D01*
X26850Y-19829D01*
X26853Y-19820D01*
X29087Y-19820D01*
X30702Y-21435D01*
X30702Y-21435D01*
G37*
G54D22*
X30702Y-21435D02*
X30678Y-21440D01*
X30601Y-21472D01*
X30531Y-21517D01*
X30472Y-21576D01*
X30425Y-21645D01*
X30392Y-21721D01*
X30375Y-21803D01*
X30373Y-21886D01*
X30388Y-21964D01*
X29924Y-22428D01*
X25828Y-22428D01*
X25828Y-21625D01*
X25812Y-21523D01*
X25777Y-21427D01*
X25755Y-21386D01*
X25664Y-21363D01*
X25593Y-21434D01*
X25593Y-21292D01*
X25570Y-21201D01*
X25477Y-21158D01*
X25377Y-21133D01*
X25275Y-21128D01*
X25173Y-21144D01*
X25077Y-21179D01*
X25036Y-21201D01*
X25013Y-21292D01*
X25303Y-21582D01*
X25593Y-21292D01*
X25593Y-21434D01*
X25374Y-21653D01*
X25664Y-21943D01*
X25755Y-21920D01*
X25798Y-21827D01*
X25823Y-21727D01*
X25828Y-21625D01*
X25828Y-22428D01*
X25593Y-22428D01*
X25593Y-22014D01*
X25303Y-21724D01*
X25232Y-21795D01*
X25232Y-21653D01*
X24942Y-21363D01*
X24851Y-21386D01*
X24808Y-21479D01*
X24783Y-21579D01*
X24778Y-21681D01*
X24794Y-21783D01*
X24829Y-21879D01*
X24851Y-21920D01*
X24942Y-21943D01*
X25232Y-21653D01*
X25232Y-21795D01*
X25013Y-22014D01*
X25036Y-22105D01*
X25129Y-22148D01*
X25229Y-22173D01*
X25331Y-22178D01*
X25433Y-22162D01*
X25529Y-22127D01*
X25570Y-22105D01*
X25593Y-22014D01*
X25593Y-22428D01*
X24693Y-22428D01*
X24513Y-22247D01*
X24513Y-22023D01*
X24566Y-21989D01*
X24627Y-21932D01*
X24674Y-21864D01*
X24708Y-21787D01*
X24727Y-21706D01*
X24728Y-21611D01*
X24712Y-21529D01*
X24680Y-21452D01*
X24634Y-21383D01*
X24575Y-21324D01*
X24513Y-21281D01*
X24513Y-17271D01*
X24964Y-16820D01*
X25751Y-16820D01*
X25753Y-16823D01*
X25802Y-16898D01*
X25865Y-16963D01*
X25939Y-17013D01*
X26022Y-17049D01*
X26110Y-17067D01*
X26200Y-17069D01*
X26490Y-17068D01*
X26578Y-17051D01*
X26661Y-17016D01*
X26736Y-16967D01*
X26800Y-16903D01*
X26850Y-16829D01*
X26885Y-16746D01*
X26903Y-16658D01*
X26903Y-16568D01*
X26899Y-16550D01*
X27128Y-16778D01*
X27128Y-17109D01*
X27128Y-17110D01*
X27132Y-17151D01*
X27137Y-17167D01*
X27143Y-17189D01*
X27144Y-17190D01*
X27162Y-17225D01*
X27163Y-17226D01*
X27188Y-17257D01*
X27189Y-17258D01*
X27195Y-17263D01*
X27219Y-17283D01*
X27221Y-17284D01*
X27255Y-17303D01*
X27257Y-17304D01*
X27294Y-17315D01*
X27296Y-17316D01*
X27327Y-17319D01*
X27332Y-17319D01*
X27332Y-17400D01*
X27338Y-17429D01*
X27349Y-17456D01*
X27365Y-17480D01*
X27386Y-17501D01*
X27410Y-17517D01*
X27437Y-17528D01*
X27466Y-17534D01*
X27495Y-17534D01*
X28046Y-17534D01*
X28075Y-17528D01*
X28102Y-17517D01*
X28126Y-17501D01*
X28147Y-17480D01*
X28163Y-17456D01*
X28174Y-17429D01*
X28180Y-17400D01*
X28180Y-17371D01*
X28180Y-16820D01*
X28174Y-16791D01*
X28163Y-16764D01*
X28147Y-16740D01*
X28126Y-16719D01*
X28102Y-16703D01*
X28075Y-16692D01*
X28046Y-16686D01*
X28017Y-16686D01*
X27547Y-16686D01*
X27544Y-16653D01*
X27544Y-16651D01*
X27537Y-16629D01*
X27533Y-16614D01*
X27532Y-16612D01*
X27513Y-16576D01*
X27490Y-16548D01*
X27488Y-16545D01*
X27487Y-16544D01*
X27486Y-16543D01*
X27010Y-16068D01*
X27639Y-16068D01*
X28827Y-17256D01*
X28828Y-17257D01*
X28829Y-17258D01*
X28835Y-17263D01*
X28859Y-17283D01*
X28861Y-17284D01*
X28895Y-17303D01*
X28897Y-17303D01*
X28934Y-17315D01*
X28936Y-17315D01*
X28972Y-17319D01*
X28972Y-17425D01*
X28973Y-17429D01*
X28973Y-17430D01*
X28960Y-17434D01*
X28924Y-17453D01*
X28899Y-17473D01*
X28893Y-17478D01*
X28892Y-17479D01*
X28891Y-17480D01*
X28746Y-17625D01*
X28741Y-17630D01*
X28721Y-17653D01*
X28713Y-17663D01*
X28696Y-17695D01*
X28695Y-17697D01*
X28694Y-17697D01*
X28694Y-17699D01*
X28682Y-17738D01*
X28678Y-17769D01*
X28678Y-17777D01*
X28678Y-17779D01*
X28678Y-17780D01*
X28678Y-18575D01*
X28678Y-18577D01*
X28682Y-18618D01*
X28689Y-18643D01*
X28693Y-18655D01*
X28693Y-18656D01*
X28694Y-18657D01*
X28712Y-18691D01*
X28713Y-18693D01*
X28727Y-18711D01*
X28737Y-18723D01*
X28739Y-18725D01*
X28740Y-18725D01*
X28744Y-18729D01*
X28989Y-18975D01*
X28972Y-19059D01*
X28970Y-19148D01*
X28986Y-19235D01*
X29019Y-19317D01*
X29067Y-19391D01*
X29075Y-19400D01*
X28281Y-19400D01*
X28281Y-18082D01*
X28265Y-17980D01*
X28230Y-17884D01*
X28208Y-17843D01*
X28117Y-17820D01*
X28046Y-17891D01*
X28046Y-17749D01*
X28023Y-17658D01*
X27930Y-17615D01*
X27830Y-17590D01*
X27728Y-17585D01*
X27626Y-17601D01*
X27530Y-17636D01*
X27489Y-17658D01*
X27466Y-17749D01*
X27756Y-18039D01*
X28046Y-17749D01*
X28046Y-17891D01*
X27827Y-18110D01*
X28117Y-18400D01*
X28208Y-18377D01*
X28251Y-18284D01*
X28276Y-18184D01*
X28281Y-18082D01*
X28281Y-19400D01*
X28068Y-19400D01*
X28080Y-19389D01*
X28127Y-19321D01*
X28161Y-19244D01*
X28180Y-19163D01*
X28181Y-19068D01*
X28165Y-18986D01*
X28133Y-18909D01*
X28087Y-18840D01*
X28046Y-18799D01*
X28046Y-18471D01*
X27756Y-18181D01*
X27685Y-18252D01*
X27685Y-18110D01*
X27395Y-17820D01*
X27304Y-17843D01*
X27261Y-17936D01*
X27236Y-18036D01*
X27231Y-18138D01*
X27247Y-18240D01*
X27282Y-18336D01*
X27304Y-18377D01*
X27395Y-18400D01*
X27685Y-18110D01*
X27685Y-18252D01*
X27466Y-18471D01*
X27489Y-18562D01*
X27582Y-18605D01*
X27682Y-18630D01*
X27784Y-18635D01*
X27886Y-18619D01*
X27982Y-18584D01*
X28023Y-18562D01*
X28046Y-18471D01*
X28046Y-18799D01*
X28028Y-18781D01*
X27959Y-18734D01*
X27882Y-18702D01*
X27800Y-18685D01*
X27717Y-18685D01*
X27635Y-18700D01*
X27558Y-18732D01*
X27488Y-18777D01*
X27429Y-18836D01*
X27382Y-18905D01*
X27349Y-18981D01*
X27332Y-19063D01*
X27330Y-19146D01*
X27346Y-19228D01*
X27376Y-19306D01*
X27422Y-19376D01*
X27445Y-19400D01*
X26903Y-19400D01*
X26903Y-18658D01*
X26903Y-18568D01*
X26903Y-17658D01*
X26903Y-17568D01*
X26886Y-17480D01*
X26853Y-17397D01*
X26804Y-17322D01*
X26741Y-17257D01*
X26667Y-17207D01*
X26584Y-17171D01*
X26496Y-17153D01*
X26406Y-17151D01*
X26116Y-17152D01*
X26028Y-17169D01*
X25945Y-17204D01*
X25870Y-17253D01*
X25806Y-17317D01*
X25756Y-17391D01*
X25721Y-17474D01*
X25703Y-17562D01*
X25703Y-17652D01*
X25720Y-17740D01*
X25753Y-17823D01*
X25802Y-17898D01*
X25865Y-17963D01*
X25939Y-18013D01*
X26022Y-18049D01*
X26110Y-18067D01*
X26200Y-18069D01*
X26490Y-18068D01*
X26578Y-18051D01*
X26661Y-18016D01*
X26736Y-17967D01*
X26800Y-17903D01*
X26850Y-17829D01*
X26885Y-17746D01*
X26903Y-17658D01*
X26903Y-18568D01*
X26886Y-18480D01*
X26853Y-18397D01*
X26804Y-18322D01*
X26741Y-18257D01*
X26667Y-18207D01*
X26584Y-18171D01*
X26496Y-18153D01*
X26406Y-18151D01*
X26116Y-18152D01*
X26028Y-18169D01*
X25945Y-18204D01*
X25870Y-18253D01*
X25806Y-18317D01*
X25756Y-18391D01*
X25721Y-18474D01*
X25703Y-18562D01*
X25703Y-18652D01*
X25720Y-18740D01*
X25753Y-18823D01*
X25802Y-18898D01*
X25865Y-18963D01*
X25939Y-19013D01*
X26022Y-19049D01*
X26110Y-19067D01*
X26200Y-19069D01*
X26490Y-19068D01*
X26578Y-19051D01*
X26661Y-19016D01*
X26736Y-18967D01*
X26800Y-18903D01*
X26850Y-18829D01*
X26885Y-18746D01*
X26903Y-18658D01*
X26903Y-19400D01*
X26854Y-19400D01*
X26853Y-19397D01*
X26804Y-19322D01*
X26741Y-19257D01*
X26667Y-19207D01*
X26584Y-19171D01*
X26496Y-19153D01*
X26406Y-19151D01*
X26116Y-19152D01*
X26028Y-19169D01*
X25945Y-19204D01*
X25870Y-19253D01*
X25806Y-19317D01*
X25756Y-19391D01*
X25721Y-19474D01*
X25703Y-19562D01*
X25703Y-19652D01*
X25720Y-19740D01*
X25753Y-19823D01*
X25802Y-19898D01*
X25865Y-19963D01*
X25939Y-20013D01*
X26022Y-20049D01*
X26110Y-20067D01*
X26200Y-20069D01*
X26490Y-20068D01*
X26578Y-20051D01*
X26531Y-20071D01*
X26457Y-20120D01*
X26394Y-20181D01*
X26344Y-20254D01*
X26309Y-20335D01*
X26291Y-20421D01*
X26289Y-20510D01*
X26305Y-20597D01*
X26338Y-20679D01*
X26386Y-20753D01*
X26447Y-20816D01*
X26519Y-20867D01*
X26600Y-20902D01*
X26686Y-20921D01*
X26775Y-20923D01*
X26861Y-20908D01*
X26944Y-20876D01*
X27018Y-20828D01*
X27082Y-20768D01*
X27133Y-20695D01*
X27169Y-20615D01*
X27189Y-20529D01*
X27190Y-20428D01*
X27173Y-20341D01*
X27139Y-20260D01*
X27090Y-20186D01*
X27028Y-20124D01*
X26955Y-20074D01*
X26874Y-20040D01*
X26787Y-20022D01*
X26699Y-20022D01*
X26612Y-20038D01*
X26578Y-20051D01*
X26661Y-20016D01*
X26736Y-19967D01*
X26800Y-19903D01*
X26850Y-19829D01*
X26853Y-19820D01*
X29087Y-19820D01*
X30702Y-21435D01*
G54D10*
G36*
X32913Y-16743D02*
X32722Y-16934D01*
X32308Y-16934D01*
X32308Y-16310D01*
X32292Y-16208D01*
X32257Y-16112D01*
X32235Y-16071D01*
X32144Y-16048D01*
X32073Y-16119D01*
X32073Y-15977D01*
X32050Y-15886D01*
X31957Y-15843D01*
X31857Y-15818D01*
X31755Y-15813D01*
X31653Y-15829D01*
X31557Y-15864D01*
X31516Y-15886D01*
X31493Y-15977D01*
X31783Y-16267D01*
X32073Y-15977D01*
X32073Y-16119D01*
X31854Y-16338D01*
X32144Y-16628D01*
X32235Y-16605D01*
X32278Y-16512D01*
X32303Y-16412D01*
X32308Y-16310D01*
X32308Y-16934D01*
X32073Y-16934D01*
X32073Y-16699D01*
X31783Y-16409D01*
X31712Y-16480D01*
X31712Y-16338D01*
X31422Y-16048D01*
X31331Y-16071D01*
X31288Y-16164D01*
X31263Y-16264D01*
X31258Y-16366D01*
X31274Y-16468D01*
X31309Y-16564D01*
X31331Y-16605D01*
X31422Y-16628D01*
X31712Y-16338D01*
X31712Y-16480D01*
X31493Y-16699D01*
X31516Y-16790D01*
X31609Y-16833D01*
X31709Y-16858D01*
X31811Y-16863D01*
X31913Y-16847D01*
X32009Y-16812D01*
X32050Y-16790D01*
X32073Y-16699D01*
X32073Y-16934D01*
X31389Y-16934D01*
X31387Y-16934D01*
X31346Y-16938D01*
X31320Y-16945D01*
X31309Y-16949D01*
X31307Y-16949D01*
X31307Y-16950D01*
X31271Y-16969D01*
X31253Y-16983D01*
X31241Y-16993D01*
X31239Y-16995D01*
X31238Y-16996D01*
X30556Y-17678D01*
X30555Y-17678D01*
X30468Y-17660D01*
X30380Y-17660D01*
X30293Y-17676D01*
X30212Y-17709D01*
X30138Y-17758D01*
X30075Y-17819D01*
X30025Y-17892D01*
X29990Y-17973D01*
X29972Y-18059D01*
X29970Y-18148D01*
X29986Y-18235D01*
X30019Y-18317D01*
X30067Y-18391D01*
X30075Y-18400D01*
X30007Y-18400D01*
X29851Y-18244D01*
X29870Y-18167D01*
X29871Y-18066D01*
X29854Y-17979D01*
X29820Y-17898D01*
X29778Y-17835D01*
X29795Y-17834D01*
X29798Y-17834D01*
X29823Y-17826D01*
X29835Y-17823D01*
X29836Y-17822D01*
X29837Y-17822D01*
X29871Y-17804D01*
X29873Y-17803D01*
X29891Y-17788D01*
X29903Y-17779D01*
X29903Y-17778D01*
X29905Y-17777D01*
X29905Y-17776D01*
X29909Y-17771D01*
X30090Y-17591D01*
X30091Y-17591D01*
X30091Y-17590D01*
X30092Y-17590D01*
X30097Y-17583D01*
X30117Y-17560D01*
X30118Y-17558D01*
X30137Y-17524D01*
X30137Y-17522D01*
X30149Y-17485D01*
X30149Y-17483D01*
X30150Y-17470D01*
X30200Y-17505D01*
X30281Y-17540D01*
X30367Y-17559D01*
X30456Y-17561D01*
X30542Y-17546D01*
X30625Y-17514D01*
X30699Y-17466D01*
X30763Y-17406D01*
X30814Y-17333D01*
X30850Y-17253D01*
X30870Y-17167D01*
X30871Y-17066D01*
X30854Y-16979D01*
X30820Y-16898D01*
X30771Y-16824D01*
X30709Y-16762D01*
X30636Y-16712D01*
X30555Y-16678D01*
X30468Y-16660D01*
X30408Y-16660D01*
X31701Y-15367D01*
X31914Y-15367D01*
X31961Y-15438D01*
X32022Y-15501D01*
X32094Y-15552D01*
X32175Y-15587D01*
X32261Y-15606D01*
X32350Y-15608D01*
X32436Y-15593D01*
X32519Y-15561D01*
X32593Y-15513D01*
X32657Y-15453D01*
X32708Y-15380D01*
X32744Y-15300D01*
X32764Y-15214D01*
X32764Y-15207D01*
X32867Y-15310D01*
X32867Y-15921D01*
X32827Y-15913D01*
X32744Y-15913D01*
X32662Y-15928D01*
X32585Y-15960D01*
X32515Y-16005D01*
X32456Y-16064D01*
X32409Y-16133D01*
X32376Y-16209D01*
X32359Y-16291D01*
X32357Y-16374D01*
X32373Y-16456D01*
X32403Y-16534D01*
X32449Y-16604D01*
X32506Y-16663D01*
X32575Y-16711D01*
X32651Y-16744D01*
X32733Y-16762D01*
X32816Y-16764D01*
X32898Y-16749D01*
X32913Y-16743D01*
X32913Y-16743D01*
G37*
G54D22*
X32913Y-16743D02*
X32722Y-16934D01*
X32308Y-16934D01*
X32308Y-16310D01*
X32292Y-16208D01*
X32257Y-16112D01*
X32235Y-16071D01*
X32144Y-16048D01*
X32073Y-16119D01*
X32073Y-15977D01*
X32050Y-15886D01*
X31957Y-15843D01*
X31857Y-15818D01*
X31755Y-15813D01*
X31653Y-15829D01*
X31557Y-15864D01*
X31516Y-15886D01*
X31493Y-15977D01*
X31783Y-16267D01*
X32073Y-15977D01*
X32073Y-16119D01*
X31854Y-16338D01*
X32144Y-16628D01*
X32235Y-16605D01*
X32278Y-16512D01*
X32303Y-16412D01*
X32308Y-16310D01*
X32308Y-16934D01*
X32073Y-16934D01*
X32073Y-16699D01*
X31783Y-16409D01*
X31712Y-16480D01*
X31712Y-16338D01*
X31422Y-16048D01*
X31331Y-16071D01*
X31288Y-16164D01*
X31263Y-16264D01*
X31258Y-16366D01*
X31274Y-16468D01*
X31309Y-16564D01*
X31331Y-16605D01*
X31422Y-16628D01*
X31712Y-16338D01*
X31712Y-16480D01*
X31493Y-16699D01*
X31516Y-16790D01*
X31609Y-16833D01*
X31709Y-16858D01*
X31811Y-16863D01*
X31913Y-16847D01*
X32009Y-16812D01*
X32050Y-16790D01*
X32073Y-16699D01*
X32073Y-16934D01*
X31389Y-16934D01*
X31387Y-16934D01*
X31346Y-16938D01*
X31320Y-16945D01*
X31309Y-16949D01*
X31307Y-16949D01*
X31307Y-16950D01*
X31271Y-16969D01*
X31253Y-16983D01*
X31241Y-16993D01*
X31239Y-16995D01*
X31238Y-16996D01*
X30556Y-17678D01*
X30555Y-17678D01*
X30468Y-17660D01*
X30380Y-17660D01*
X30293Y-17676D01*
X30212Y-17709D01*
X30138Y-17758D01*
X30075Y-17819D01*
X30025Y-17892D01*
X29990Y-17973D01*
X29972Y-18059D01*
X29970Y-18148D01*
X29986Y-18235D01*
X30019Y-18317D01*
X30067Y-18391D01*
X30075Y-18400D01*
X30007Y-18400D01*
X29851Y-18244D01*
X29870Y-18167D01*
X29871Y-18066D01*
X29854Y-17979D01*
X29820Y-17898D01*
X29778Y-17835D01*
X29795Y-17834D01*
X29798Y-17834D01*
X29823Y-17826D01*
X29835Y-17823D01*
X29836Y-17822D01*
X29837Y-17822D01*
X29871Y-17804D01*
X29873Y-17803D01*
X29891Y-17788D01*
X29903Y-17779D01*
X29903Y-17778D01*
X29905Y-17777D01*
X29905Y-17776D01*
X29909Y-17771D01*
X30090Y-17591D01*
X30091Y-17591D01*
X30091Y-17590D01*
X30092Y-17590D01*
X30097Y-17583D01*
X30117Y-17560D01*
X30118Y-17558D01*
X30137Y-17524D01*
X30137Y-17522D01*
X30149Y-17485D01*
X30149Y-17483D01*
X30150Y-17470D01*
X30200Y-17505D01*
X30281Y-17540D01*
X30367Y-17559D01*
X30456Y-17561D01*
X30542Y-17546D01*
X30625Y-17514D01*
X30699Y-17466D01*
X30763Y-17406D01*
X30814Y-17333D01*
X30850Y-17253D01*
X30870Y-17167D01*
X30871Y-17066D01*
X30854Y-16979D01*
X30820Y-16898D01*
X30771Y-16824D01*
X30709Y-16762D01*
X30636Y-16712D01*
X30555Y-16678D01*
X30468Y-16660D01*
X30408Y-16660D01*
X31701Y-15367D01*
X31914Y-15367D01*
X31961Y-15438D01*
X32022Y-15501D01*
X32094Y-15552D01*
X32175Y-15587D01*
X32261Y-15606D01*
X32350Y-15608D01*
X32436Y-15593D01*
X32519Y-15561D01*
X32593Y-15513D01*
X32657Y-15453D01*
X32708Y-15380D01*
X32744Y-15300D01*
X32764Y-15214D01*
X32764Y-15207D01*
X32867Y-15310D01*
X32867Y-15921D01*
X32827Y-15913D01*
X32744Y-15913D01*
X32662Y-15928D01*
X32585Y-15960D01*
X32515Y-16005D01*
X32456Y-16064D01*
X32409Y-16133D01*
X32376Y-16209D01*
X32359Y-16291D01*
X32357Y-16374D01*
X32373Y-16456D01*
X32403Y-16534D01*
X32449Y-16604D01*
X32506Y-16663D01*
X32575Y-16711D01*
X32651Y-16744D01*
X32733Y-16762D01*
X32816Y-16764D01*
X32898Y-16749D01*
X32913Y-16743D01*
G54D10*
G36*
X36476Y-23200D02*
X22185Y-23200D01*
X22271Y-23146D01*
X22503Y-22924D01*
X22688Y-22662D01*
X22819Y-22369D01*
X22890Y-22056D01*
X22895Y-21690D01*
X22833Y-21375D01*
X22711Y-21079D01*
X22533Y-20811D01*
X22307Y-20584D01*
X22041Y-20404D01*
X21745Y-20280D01*
X21431Y-20215D01*
X21194Y-20213D01*
X21194Y-18082D01*
X21178Y-17980D01*
X21143Y-17884D01*
X21121Y-17843D01*
X21030Y-17820D01*
X20959Y-17891D01*
X20959Y-17749D01*
X20936Y-17658D01*
X20843Y-17615D01*
X20743Y-17590D01*
X20641Y-17585D01*
X20539Y-17601D01*
X20443Y-17636D01*
X20402Y-17658D01*
X20379Y-17749D01*
X20669Y-18039D01*
X20959Y-17749D01*
X20959Y-17891D01*
X20740Y-18110D01*
X21030Y-18400D01*
X21121Y-18377D01*
X21164Y-18284D01*
X21189Y-18184D01*
X21194Y-18082D01*
X21194Y-20213D01*
X21110Y-20213D01*
X21094Y-20216D01*
X21094Y-19068D01*
X21078Y-18986D01*
X21046Y-18909D01*
X21000Y-18840D01*
X20959Y-18799D01*
X20959Y-18471D01*
X20669Y-18181D01*
X20598Y-18252D01*
X20598Y-18110D01*
X20308Y-17820D01*
X20217Y-17843D01*
X20174Y-17936D01*
X20149Y-18036D01*
X20144Y-18138D01*
X20160Y-18240D01*
X20195Y-18336D01*
X20217Y-18377D01*
X20308Y-18400D01*
X20598Y-18110D01*
X20598Y-18252D01*
X20379Y-18471D01*
X20402Y-18562D01*
X20495Y-18605D01*
X20595Y-18630D01*
X20697Y-18635D01*
X20799Y-18619D01*
X20895Y-18584D01*
X20936Y-18562D01*
X20959Y-18471D01*
X20959Y-18799D01*
X20941Y-18781D01*
X20872Y-18734D01*
X20795Y-18702D01*
X20713Y-18685D01*
X20630Y-18685D01*
X20548Y-18700D01*
X20471Y-18732D01*
X20401Y-18777D01*
X20342Y-18836D01*
X20295Y-18905D01*
X20262Y-18981D01*
X20245Y-19063D01*
X20243Y-19146D01*
X20259Y-19228D01*
X20289Y-19306D01*
X20335Y-19376D01*
X20392Y-19435D01*
X20461Y-19483D01*
X20537Y-19516D01*
X20619Y-19534D01*
X20702Y-19536D01*
X20784Y-19521D01*
X20862Y-19491D01*
X20932Y-19446D01*
X20993Y-19389D01*
X21040Y-19321D01*
X21074Y-19244D01*
X21093Y-19163D01*
X21094Y-19068D01*
X21094Y-20216D01*
X20795Y-20273D01*
X20498Y-20393D01*
X20229Y-20569D01*
X20000Y-20793D01*
X19909Y-20926D01*
X19909Y-15293D01*
X19972Y-15391D01*
X20194Y-15622D01*
X20458Y-15805D01*
X20752Y-15933D01*
X21065Y-16002D01*
X21386Y-16009D01*
X21702Y-15953D01*
X22001Y-15837D01*
X22169Y-15730D01*
X21090Y-16809D01*
X21087Y-16791D01*
X21076Y-16764D01*
X21060Y-16740D01*
X21039Y-16719D01*
X21015Y-16703D01*
X20988Y-16692D01*
X20959Y-16686D01*
X20930Y-16686D01*
X20379Y-16686D01*
X20350Y-16692D01*
X20323Y-16703D01*
X20299Y-16719D01*
X20278Y-16740D01*
X20262Y-16764D01*
X20251Y-16791D01*
X20245Y-16820D01*
X20245Y-16849D01*
X20245Y-17400D01*
X20251Y-17429D01*
X20262Y-17456D01*
X20278Y-17480D01*
X20299Y-17501D01*
X20323Y-17517D01*
X20350Y-17528D01*
X20379Y-17534D01*
X20408Y-17534D01*
X20959Y-17534D01*
X20988Y-17528D01*
X21015Y-17517D01*
X21039Y-17501D01*
X21060Y-17480D01*
X21076Y-17456D01*
X21087Y-17429D01*
X21093Y-17400D01*
X21093Y-17371D01*
X21093Y-17319D01*
X21125Y-17316D01*
X21128Y-17316D01*
X21153Y-17308D01*
X21165Y-17305D01*
X21166Y-17304D01*
X21167Y-17304D01*
X21201Y-17286D01*
X21203Y-17285D01*
X21221Y-17270D01*
X21233Y-17261D01*
X21233Y-17260D01*
X21235Y-17259D01*
X21235Y-17258D01*
X21239Y-17253D01*
X22425Y-16068D01*
X24548Y-16068D01*
X23902Y-16714D01*
X23902Y-16285D01*
X23896Y-16256D01*
X23885Y-16229D01*
X23869Y-16205D01*
X23848Y-16184D01*
X23824Y-16168D01*
X23797Y-16157D01*
X23768Y-16151D01*
X23739Y-16151D01*
X22838Y-16151D01*
X22809Y-16157D01*
X22782Y-16168D01*
X22758Y-16184D01*
X22737Y-16205D01*
X22721Y-16229D01*
X22710Y-16256D01*
X22704Y-16285D01*
X22704Y-16314D01*
X22704Y-16935D01*
X22710Y-16964D01*
X22721Y-16991D01*
X22737Y-17015D01*
X22758Y-17036D01*
X22782Y-17052D01*
X22809Y-17063D01*
X22838Y-17069D01*
X22867Y-17069D01*
X23112Y-17069D01*
X23110Y-17074D01*
X23109Y-17074D01*
X23109Y-17076D01*
X23097Y-17115D01*
X23093Y-17146D01*
X23093Y-17154D01*
X23093Y-17156D01*
X23028Y-17169D01*
X22945Y-17204D01*
X22870Y-17253D01*
X22806Y-17317D01*
X22756Y-17391D01*
X22721Y-17474D01*
X22703Y-17562D01*
X22703Y-17652D01*
X22720Y-17740D01*
X22753Y-17823D01*
X22802Y-17898D01*
X22865Y-17963D01*
X22939Y-18013D01*
X23022Y-18049D01*
X23110Y-18067D01*
X23200Y-18069D01*
X23490Y-18068D01*
X23578Y-18051D01*
X23661Y-18016D01*
X23736Y-17967D01*
X23800Y-17903D01*
X23850Y-17829D01*
X23885Y-17746D01*
X23903Y-17658D01*
X23903Y-17568D01*
X23886Y-17480D01*
X23853Y-17397D01*
X23825Y-17354D01*
X23834Y-17352D01*
X23835Y-17351D01*
X23836Y-17351D01*
X23870Y-17333D01*
X23872Y-17332D01*
X23890Y-17317D01*
X23902Y-17308D01*
X23902Y-17307D01*
X23904Y-17306D01*
X23904Y-17305D01*
X23908Y-17300D01*
X24113Y-17095D01*
X24111Y-17100D01*
X24110Y-17102D01*
X24109Y-17102D01*
X24109Y-17104D01*
X24097Y-17143D01*
X24093Y-17174D01*
X24093Y-17182D01*
X24093Y-17184D01*
X24093Y-17185D01*
X24093Y-21282D01*
X24035Y-21320D01*
X24007Y-21347D01*
X23985Y-21325D01*
X23985Y-19747D01*
X23985Y-19473D01*
X23966Y-19412D01*
X23918Y-19314D01*
X23851Y-19227D01*
X23769Y-19155D01*
X23674Y-19100D01*
X23571Y-19065D01*
X23532Y-19059D01*
X23578Y-19051D01*
X23661Y-19016D01*
X23736Y-18967D01*
X23800Y-18903D01*
X23850Y-18829D01*
X23885Y-18746D01*
X23903Y-18658D01*
X23903Y-18568D01*
X23886Y-18480D01*
X23853Y-18397D01*
X23804Y-18322D01*
X23741Y-18257D01*
X23667Y-18207D01*
X23584Y-18171D01*
X23496Y-18153D01*
X23406Y-18151D01*
X23116Y-18152D01*
X23028Y-18169D01*
X22945Y-18204D01*
X22870Y-18253D01*
X22806Y-18317D01*
X22756Y-18391D01*
X22721Y-18474D01*
X22703Y-18562D01*
X22703Y-18652D01*
X22720Y-18740D01*
X22753Y-18823D01*
X22802Y-18898D01*
X22865Y-18963D01*
X22939Y-19013D01*
X23022Y-19049D01*
X23073Y-19059D01*
X23035Y-19065D01*
X22932Y-19100D01*
X22837Y-19155D01*
X22755Y-19227D01*
X22688Y-19314D01*
X22640Y-19412D01*
X22621Y-19473D01*
X22668Y-19560D01*
X23203Y-19560D01*
X23253Y-19560D01*
X23353Y-19560D01*
X23403Y-19560D01*
X23938Y-19560D01*
X23985Y-19473D01*
X23985Y-19747D01*
X23938Y-19660D01*
X23353Y-19660D01*
X23353Y-20170D01*
X23463Y-20170D01*
X23571Y-20155D01*
X23674Y-20120D01*
X23769Y-20065D01*
X23851Y-19993D01*
X23918Y-19906D01*
X23966Y-19808D01*
X23985Y-19747D01*
X23985Y-21325D01*
X23253Y-20593D01*
X23253Y-20170D01*
X23253Y-19660D01*
X22668Y-19660D01*
X22621Y-19747D01*
X22640Y-19808D01*
X22688Y-19906D01*
X22755Y-19993D01*
X22837Y-20065D01*
X22932Y-20120D01*
X23035Y-20155D01*
X23143Y-20170D01*
X23253Y-20170D01*
X23253Y-20593D01*
X22572Y-19912D01*
X22572Y-17582D01*
X22556Y-17480D01*
X22521Y-17384D01*
X22499Y-17343D01*
X22408Y-17320D01*
X22337Y-17391D01*
X22337Y-17249D01*
X22314Y-17158D01*
X22221Y-17115D01*
X22121Y-17090D01*
X22019Y-17085D01*
X21917Y-17101D01*
X21821Y-17136D01*
X21780Y-17158D01*
X21757Y-17249D01*
X22047Y-17539D01*
X22337Y-17249D01*
X22337Y-17391D01*
X22118Y-17610D01*
X22408Y-17900D01*
X22499Y-17877D01*
X22542Y-17784D01*
X22567Y-17684D01*
X22572Y-17582D01*
X22572Y-19912D01*
X22257Y-19597D01*
X22257Y-18980D01*
X22310Y-18946D01*
X22371Y-18889D01*
X22418Y-18821D01*
X22452Y-18744D01*
X22471Y-18663D01*
X22472Y-18568D01*
X22456Y-18486D01*
X22424Y-18409D01*
X22378Y-18340D01*
X22337Y-18299D01*
X22337Y-17971D01*
X22047Y-17681D01*
X21976Y-17752D01*
X21976Y-17610D01*
X21686Y-17320D01*
X21595Y-17343D01*
X21552Y-17436D01*
X21527Y-17536D01*
X21522Y-17638D01*
X21538Y-17740D01*
X21573Y-17836D01*
X21595Y-17877D01*
X21686Y-17900D01*
X21976Y-17610D01*
X21976Y-17752D01*
X21757Y-17971D01*
X21780Y-18062D01*
X21873Y-18105D01*
X21973Y-18130D01*
X22075Y-18135D01*
X22177Y-18119D01*
X22273Y-18084D01*
X22314Y-18062D01*
X22337Y-17971D01*
X22337Y-18299D01*
X22319Y-18281D01*
X22250Y-18234D01*
X22173Y-18202D01*
X22091Y-18185D01*
X22008Y-18185D01*
X21926Y-18200D01*
X21849Y-18232D01*
X21779Y-18277D01*
X21720Y-18336D01*
X21673Y-18405D01*
X21640Y-18481D01*
X21623Y-18563D01*
X21621Y-18646D01*
X21637Y-18728D01*
X21667Y-18806D01*
X21713Y-18876D01*
X21770Y-18935D01*
X21837Y-18981D01*
X21837Y-19682D01*
X21837Y-19684D01*
X21841Y-19725D01*
X21848Y-19750D01*
X21852Y-19762D01*
X21852Y-19763D01*
X21853Y-19764D01*
X21871Y-19798D01*
X21872Y-19800D01*
X21886Y-19818D01*
X21896Y-19830D01*
X21898Y-19832D01*
X21899Y-19832D01*
X21903Y-19836D01*
X23865Y-21799D01*
X23866Y-21800D01*
X23867Y-21801D01*
X23873Y-21806D01*
X23897Y-21826D01*
X23899Y-21827D01*
X23918Y-21837D01*
X23918Y-21838D01*
X23923Y-21849D01*
X23969Y-21919D01*
X24026Y-21978D01*
X24093Y-22024D01*
X24093Y-22332D01*
X24093Y-22334D01*
X24097Y-22375D01*
X24104Y-22400D01*
X24108Y-22412D01*
X24108Y-22413D01*
X24109Y-22414D01*
X24127Y-22448D01*
X24128Y-22450D01*
X24142Y-22468D01*
X24152Y-22480D01*
X24154Y-22482D01*
X24155Y-22482D01*
X24159Y-22486D01*
X24456Y-22784D01*
X24457Y-22785D01*
X24458Y-22786D01*
X24464Y-22791D01*
X24488Y-22811D01*
X24490Y-22812D01*
X24524Y-22831D01*
X24526Y-22831D01*
X24563Y-22843D01*
X24565Y-22843D01*
X24604Y-22848D01*
X24607Y-22848D01*
X30009Y-22848D01*
X30011Y-22848D01*
X30049Y-22844D01*
X30052Y-22844D01*
X30077Y-22836D01*
X30089Y-22833D01*
X30090Y-22832D01*
X30091Y-22832D01*
X30125Y-22814D01*
X30127Y-22813D01*
X30145Y-22798D01*
X30157Y-22789D01*
X30157Y-22788D01*
X30159Y-22787D01*
X30159Y-22786D01*
X30163Y-22781D01*
X30685Y-22260D01*
X30749Y-22274D01*
X30832Y-22276D01*
X30914Y-22261D01*
X30992Y-22231D01*
X31062Y-22186D01*
X31071Y-22177D01*
X31071Y-22232D01*
X31071Y-22234D01*
X31075Y-22275D01*
X31082Y-22300D01*
X31086Y-22312D01*
X31086Y-22313D01*
X31087Y-22314D01*
X31105Y-22348D01*
X31106Y-22350D01*
X31120Y-22368D01*
X31130Y-22380D01*
X31132Y-22382D01*
X31133Y-22382D01*
X31137Y-22386D01*
X31263Y-22513D01*
X31264Y-22514D01*
X31265Y-22515D01*
X31295Y-22540D01*
X31297Y-22542D01*
X31329Y-22558D01*
X31331Y-22560D01*
X31333Y-22561D01*
X31370Y-22572D01*
X31372Y-22573D01*
X31403Y-22576D01*
X31411Y-22577D01*
X31413Y-22577D01*
X31414Y-22577D01*
X34698Y-22577D01*
X34700Y-22577D01*
X34738Y-22573D01*
X34741Y-22573D01*
X34766Y-22565D01*
X34778Y-22562D01*
X34779Y-22561D01*
X34780Y-22561D01*
X34814Y-22543D01*
X34816Y-22542D01*
X34834Y-22527D01*
X34846Y-22518D01*
X34846Y-22517D01*
X34848Y-22516D01*
X34848Y-22515D01*
X34852Y-22510D01*
X35785Y-21578D01*
X35767Y-21666D01*
X35763Y-21987D01*
X35821Y-22303D01*
X35939Y-22601D01*
X36113Y-22871D01*
X36335Y-23102D01*
X36476Y-23200D01*
X36476Y-23200D01*
G37*
G54D22*
X36476Y-23200D02*
X22185Y-23200D01*
X22271Y-23146D01*
X22503Y-22924D01*
X22688Y-22662D01*
X22819Y-22369D01*
X22890Y-22056D01*
X22895Y-21690D01*
X22833Y-21375D01*
X22711Y-21079D01*
X22533Y-20811D01*
X22307Y-20584D01*
X22041Y-20404D01*
X21745Y-20280D01*
X21431Y-20215D01*
X21194Y-20213D01*
X21194Y-18082D01*
X21178Y-17980D01*
X21143Y-17884D01*
X21121Y-17843D01*
X21030Y-17820D01*
X20959Y-17891D01*
X20959Y-17749D01*
X20936Y-17658D01*
X20843Y-17615D01*
X20743Y-17590D01*
X20641Y-17585D01*
X20539Y-17601D01*
X20443Y-17636D01*
X20402Y-17658D01*
X20379Y-17749D01*
X20669Y-18039D01*
X20959Y-17749D01*
X20959Y-17891D01*
X20740Y-18110D01*
X21030Y-18400D01*
X21121Y-18377D01*
X21164Y-18284D01*
X21189Y-18184D01*
X21194Y-18082D01*
X21194Y-20213D01*
X21110Y-20213D01*
X21094Y-20216D01*
X21094Y-19068D01*
X21078Y-18986D01*
X21046Y-18909D01*
X21000Y-18840D01*
X20959Y-18799D01*
X20959Y-18471D01*
X20669Y-18181D01*
X20598Y-18252D01*
X20598Y-18110D01*
X20308Y-17820D01*
X20217Y-17843D01*
X20174Y-17936D01*
X20149Y-18036D01*
X20144Y-18138D01*
X20160Y-18240D01*
X20195Y-18336D01*
X20217Y-18377D01*
X20308Y-18400D01*
X20598Y-18110D01*
X20598Y-18252D01*
X20379Y-18471D01*
X20402Y-18562D01*
X20495Y-18605D01*
X20595Y-18630D01*
X20697Y-18635D01*
X20799Y-18619D01*
X20895Y-18584D01*
X20936Y-18562D01*
X20959Y-18471D01*
X20959Y-18799D01*
X20941Y-18781D01*
X20872Y-18734D01*
X20795Y-18702D01*
X20713Y-18685D01*
X20630Y-18685D01*
X20548Y-18700D01*
X20471Y-18732D01*
X20401Y-18777D01*
X20342Y-18836D01*
X20295Y-18905D01*
X20262Y-18981D01*
X20245Y-19063D01*
X20243Y-19146D01*
X20259Y-19228D01*
X20289Y-19306D01*
X20335Y-19376D01*
X20392Y-19435D01*
X20461Y-19483D01*
X20537Y-19516D01*
X20619Y-19534D01*
X20702Y-19536D01*
X20784Y-19521D01*
X20862Y-19491D01*
X20932Y-19446D01*
X20993Y-19389D01*
X21040Y-19321D01*
X21074Y-19244D01*
X21093Y-19163D01*
X21094Y-19068D01*
X21094Y-20216D01*
X20795Y-20273D01*
X20498Y-20393D01*
X20229Y-20569D01*
X20000Y-20793D01*
X19909Y-20926D01*
X19909Y-15293D01*
X19972Y-15391D01*
X20194Y-15622D01*
X20458Y-15805D01*
X20752Y-15933D01*
X21065Y-16002D01*
X21386Y-16009D01*
X21702Y-15953D01*
X22001Y-15837D01*
X22169Y-15730D01*
X21090Y-16809D01*
X21087Y-16791D01*
X21076Y-16764D01*
X21060Y-16740D01*
X21039Y-16719D01*
X21015Y-16703D01*
X20988Y-16692D01*
X20959Y-16686D01*
X20930Y-16686D01*
X20379Y-16686D01*
X20350Y-16692D01*
X20323Y-16703D01*
X20299Y-16719D01*
X20278Y-16740D01*
X20262Y-16764D01*
X20251Y-16791D01*
X20245Y-16820D01*
X20245Y-16849D01*
X20245Y-17400D01*
X20251Y-17429D01*
X20262Y-17456D01*
X20278Y-17480D01*
X20299Y-17501D01*
X20323Y-17517D01*
X20350Y-17528D01*
X20379Y-17534D01*
X20408Y-17534D01*
X20959Y-17534D01*
X20988Y-17528D01*
X21015Y-17517D01*
X21039Y-17501D01*
X21060Y-17480D01*
X21076Y-17456D01*
X21087Y-17429D01*
X21093Y-17400D01*
X21093Y-17371D01*
X21093Y-17319D01*
X21125Y-17316D01*
X21128Y-17316D01*
X21153Y-17308D01*
X21165Y-17305D01*
X21166Y-17304D01*
X21167Y-17304D01*
X21201Y-17286D01*
X21203Y-17285D01*
X21221Y-17270D01*
X21233Y-17261D01*
X21233Y-17260D01*
X21235Y-17259D01*
X21235Y-17258D01*
X21239Y-17253D01*
X22425Y-16068D01*
X24548Y-16068D01*
X23902Y-16714D01*
X23902Y-16285D01*
X23896Y-16256D01*
X23885Y-16229D01*
X23869Y-16205D01*
X23848Y-16184D01*
X23824Y-16168D01*
X23797Y-16157D01*
X23768Y-16151D01*
X23739Y-16151D01*
X22838Y-16151D01*
X22809Y-16157D01*
X22782Y-16168D01*
X22758Y-16184D01*
X22737Y-16205D01*
X22721Y-16229D01*
X22710Y-16256D01*
X22704Y-16285D01*
X22704Y-16314D01*
X22704Y-16935D01*
X22710Y-16964D01*
X22721Y-16991D01*
X22737Y-17015D01*
X22758Y-17036D01*
X22782Y-17052D01*
X22809Y-17063D01*
X22838Y-17069D01*
X22867Y-17069D01*
X23112Y-17069D01*
X23110Y-17074D01*
X23109Y-17074D01*
X23109Y-17076D01*
X23097Y-17115D01*
X23093Y-17146D01*
X23093Y-17154D01*
X23093Y-17156D01*
X23028Y-17169D01*
X22945Y-17204D01*
X22870Y-17253D01*
X22806Y-17317D01*
X22756Y-17391D01*
X22721Y-17474D01*
X22703Y-17562D01*
X22703Y-17652D01*
X22720Y-17740D01*
X22753Y-17823D01*
X22802Y-17898D01*
X22865Y-17963D01*
X22939Y-18013D01*
X23022Y-18049D01*
X23110Y-18067D01*
X23200Y-18069D01*
X23490Y-18068D01*
X23578Y-18051D01*
X23661Y-18016D01*
X23736Y-17967D01*
X23800Y-17903D01*
X23850Y-17829D01*
X23885Y-17746D01*
X23903Y-17658D01*
X23903Y-17568D01*
X23886Y-17480D01*
X23853Y-17397D01*
X23825Y-17354D01*
X23834Y-17352D01*
X23835Y-17351D01*
X23836Y-17351D01*
X23870Y-17333D01*
X23872Y-17332D01*
X23890Y-17317D01*
X23902Y-17308D01*
X23902Y-17307D01*
X23904Y-17306D01*
X23904Y-17305D01*
X23908Y-17300D01*
X24113Y-17095D01*
X24111Y-17100D01*
X24110Y-17102D01*
X24109Y-17102D01*
X24109Y-17104D01*
X24097Y-17143D01*
X24093Y-17174D01*
X24093Y-17182D01*
X24093Y-17184D01*
X24093Y-17185D01*
X24093Y-21282D01*
X24035Y-21320D01*
X24007Y-21347D01*
X23985Y-21325D01*
X23985Y-19747D01*
X23985Y-19473D01*
X23966Y-19412D01*
X23918Y-19314D01*
X23851Y-19227D01*
X23769Y-19155D01*
X23674Y-19100D01*
X23571Y-19065D01*
X23532Y-19059D01*
X23578Y-19051D01*
X23661Y-19016D01*
X23736Y-18967D01*
X23800Y-18903D01*
X23850Y-18829D01*
X23885Y-18746D01*
X23903Y-18658D01*
X23903Y-18568D01*
X23886Y-18480D01*
X23853Y-18397D01*
X23804Y-18322D01*
X23741Y-18257D01*
X23667Y-18207D01*
X23584Y-18171D01*
X23496Y-18153D01*
X23406Y-18151D01*
X23116Y-18152D01*
X23028Y-18169D01*
X22945Y-18204D01*
X22870Y-18253D01*
X22806Y-18317D01*
X22756Y-18391D01*
X22721Y-18474D01*
X22703Y-18562D01*
X22703Y-18652D01*
X22720Y-18740D01*
X22753Y-18823D01*
X22802Y-18898D01*
X22865Y-18963D01*
X22939Y-19013D01*
X23022Y-19049D01*
X23073Y-19059D01*
X23035Y-19065D01*
X22932Y-19100D01*
X22837Y-19155D01*
X22755Y-19227D01*
X22688Y-19314D01*
X22640Y-19412D01*
X22621Y-19473D01*
X22668Y-19560D01*
X23203Y-19560D01*
X23253Y-19560D01*
X23353Y-19560D01*
X23403Y-19560D01*
X23938Y-19560D01*
X23985Y-19473D01*
X23985Y-19747D01*
X23938Y-19660D01*
X23353Y-19660D01*
X23353Y-20170D01*
X23463Y-20170D01*
X23571Y-20155D01*
X23674Y-20120D01*
X23769Y-20065D01*
X23851Y-19993D01*
X23918Y-19906D01*
X23966Y-19808D01*
X23985Y-19747D01*
X23985Y-21325D01*
X23253Y-20593D01*
X23253Y-20170D01*
X23253Y-19660D01*
X22668Y-19660D01*
X22621Y-19747D01*
X22640Y-19808D01*
X22688Y-19906D01*
X22755Y-19993D01*
X22837Y-20065D01*
X22932Y-20120D01*
X23035Y-20155D01*
X23143Y-20170D01*
X23253Y-20170D01*
X23253Y-20593D01*
X22572Y-19912D01*
X22572Y-17582D01*
X22556Y-17480D01*
X22521Y-17384D01*
X22499Y-17343D01*
X22408Y-17320D01*
X22337Y-17391D01*
X22337Y-17249D01*
X22314Y-17158D01*
X22221Y-17115D01*
X22121Y-17090D01*
X22019Y-17085D01*
X21917Y-17101D01*
X21821Y-17136D01*
X21780Y-17158D01*
X21757Y-17249D01*
X22047Y-17539D01*
X22337Y-17249D01*
X22337Y-17391D01*
X22118Y-17610D01*
X22408Y-17900D01*
X22499Y-17877D01*
X22542Y-17784D01*
X22567Y-17684D01*
X22572Y-17582D01*
X22572Y-19912D01*
X22257Y-19597D01*
X22257Y-18980D01*
X22310Y-18946D01*
X22371Y-18889D01*
X22418Y-18821D01*
X22452Y-18744D01*
X22471Y-18663D01*
X22472Y-18568D01*
X22456Y-18486D01*
X22424Y-18409D01*
X22378Y-18340D01*
X22337Y-18299D01*
X22337Y-17971D01*
X22047Y-17681D01*
X21976Y-17752D01*
X21976Y-17610D01*
X21686Y-17320D01*
X21595Y-17343D01*
X21552Y-17436D01*
X21527Y-17536D01*
X21522Y-17638D01*
X21538Y-17740D01*
X21573Y-17836D01*
X21595Y-17877D01*
X21686Y-17900D01*
X21976Y-17610D01*
X21976Y-17752D01*
X21757Y-17971D01*
X21780Y-18062D01*
X21873Y-18105D01*
X21973Y-18130D01*
X22075Y-18135D01*
X22177Y-18119D01*
X22273Y-18084D01*
X22314Y-18062D01*
X22337Y-17971D01*
X22337Y-18299D01*
X22319Y-18281D01*
X22250Y-18234D01*
X22173Y-18202D01*
X22091Y-18185D01*
X22008Y-18185D01*
X21926Y-18200D01*
X21849Y-18232D01*
X21779Y-18277D01*
X21720Y-18336D01*
X21673Y-18405D01*
X21640Y-18481D01*
X21623Y-18563D01*
X21621Y-18646D01*
X21637Y-18728D01*
X21667Y-18806D01*
X21713Y-18876D01*
X21770Y-18935D01*
X21837Y-18981D01*
X21837Y-19682D01*
X21837Y-19684D01*
X21841Y-19725D01*
X21848Y-19750D01*
X21852Y-19762D01*
X21852Y-19763D01*
X21853Y-19764D01*
X21871Y-19798D01*
X21872Y-19800D01*
X21886Y-19818D01*
X21896Y-19830D01*
X21898Y-19832D01*
X21899Y-19832D01*
X21903Y-19836D01*
X23865Y-21799D01*
X23866Y-21800D01*
X23867Y-21801D01*
X23873Y-21806D01*
X23897Y-21826D01*
X23899Y-21827D01*
X23918Y-21837D01*
X23918Y-21838D01*
X23923Y-21849D01*
X23969Y-21919D01*
X24026Y-21978D01*
X24093Y-22024D01*
X24093Y-22332D01*
X24093Y-22334D01*
X24097Y-22375D01*
X24104Y-22400D01*
X24108Y-22412D01*
X24108Y-22413D01*
X24109Y-22414D01*
X24127Y-22448D01*
X24128Y-22450D01*
X24142Y-22468D01*
X24152Y-22480D01*
X24154Y-22482D01*
X24155Y-22482D01*
X24159Y-22486D01*
X24456Y-22784D01*
X24457Y-22785D01*
X24458Y-22786D01*
X24464Y-22791D01*
X24488Y-22811D01*
X24490Y-22812D01*
X24524Y-22831D01*
X24526Y-22831D01*
X24563Y-22843D01*
X24565Y-22843D01*
X24604Y-22848D01*
X24607Y-22848D01*
X30009Y-22848D01*
X30011Y-22848D01*
X30049Y-22844D01*
X30052Y-22844D01*
X30077Y-22836D01*
X30089Y-22833D01*
X30090Y-22832D01*
X30091Y-22832D01*
X30125Y-22814D01*
X30127Y-22813D01*
X30145Y-22798D01*
X30157Y-22789D01*
X30157Y-22788D01*
X30159Y-22787D01*
X30159Y-22786D01*
X30163Y-22781D01*
X30685Y-22260D01*
X30749Y-22274D01*
X30832Y-22276D01*
X30914Y-22261D01*
X30992Y-22231D01*
X31062Y-22186D01*
X31071Y-22177D01*
X31071Y-22232D01*
X31071Y-22234D01*
X31075Y-22275D01*
X31082Y-22300D01*
X31086Y-22312D01*
X31086Y-22313D01*
X31087Y-22314D01*
X31105Y-22348D01*
X31106Y-22350D01*
X31120Y-22368D01*
X31130Y-22380D01*
X31132Y-22382D01*
X31133Y-22382D01*
X31137Y-22386D01*
X31263Y-22513D01*
X31264Y-22514D01*
X31265Y-22515D01*
X31295Y-22540D01*
X31297Y-22542D01*
X31329Y-22558D01*
X31331Y-22560D01*
X31333Y-22561D01*
X31370Y-22572D01*
X31372Y-22573D01*
X31403Y-22576D01*
X31411Y-22577D01*
X31413Y-22577D01*
X31414Y-22577D01*
X34698Y-22577D01*
X34700Y-22577D01*
X34738Y-22573D01*
X34741Y-22573D01*
X34766Y-22565D01*
X34778Y-22562D01*
X34779Y-22561D01*
X34780Y-22561D01*
X34814Y-22543D01*
X34816Y-22542D01*
X34834Y-22527D01*
X34846Y-22518D01*
X34846Y-22517D01*
X34848Y-22516D01*
X34848Y-22515D01*
X34852Y-22510D01*
X35785Y-21578D01*
X35767Y-21666D01*
X35763Y-21987D01*
X35821Y-22303D01*
X35939Y-22601D01*
X36113Y-22871D01*
X36335Y-23102D01*
X36476Y-23200D01*
G54D10*
G36*
X38751Y-20925D02*
X38675Y-20811D01*
X38449Y-20584D01*
X38373Y-20532D01*
X38373Y-18585D01*
X38358Y-18473D01*
X38320Y-18366D01*
X38291Y-18312D01*
X38275Y-18306D01*
X38275Y-17563D01*
X38257Y-17471D01*
X38221Y-17384D01*
X38169Y-17305D01*
X38102Y-17238D01*
X38024Y-17186D01*
X37938Y-17149D01*
X37845Y-17130D01*
X37751Y-17130D01*
X37659Y-17147D01*
X37572Y-17183D01*
X37493Y-17234D01*
X37426Y-17300D01*
X37372Y-17378D01*
X37335Y-17464D01*
X37316Y-17556D01*
X37314Y-17650D01*
X37331Y-17743D01*
X37366Y-17830D01*
X37417Y-17910D01*
X37482Y-17977D01*
X37560Y-18031D01*
X37623Y-18059D01*
X37551Y-18085D01*
X37497Y-18114D01*
X37466Y-18210D01*
X37795Y-18539D01*
X38124Y-18210D01*
X38093Y-18114D01*
X37992Y-18066D01*
X37965Y-18059D01*
X38012Y-18041D01*
X38092Y-17990D01*
X38160Y-17925D01*
X38214Y-17848D01*
X38253Y-17762D01*
X38273Y-17671D01*
X38275Y-17563D01*
X38275Y-18306D01*
X38195Y-18281D01*
X37866Y-18610D01*
X38195Y-18939D01*
X38291Y-18908D01*
X38339Y-18807D01*
X38367Y-18697D01*
X38373Y-18585D01*
X38373Y-20532D01*
X38183Y-20404D01*
X38124Y-20379D01*
X38124Y-19010D01*
X37795Y-18681D01*
X37724Y-18752D01*
X37724Y-18610D01*
X37395Y-18281D01*
X37299Y-18312D01*
X37251Y-18413D01*
X37223Y-18523D01*
X37217Y-18635D01*
X37232Y-18747D01*
X37270Y-18854D01*
X37299Y-18908D01*
X37395Y-18939D01*
X37724Y-18610D01*
X37724Y-18752D01*
X37466Y-19010D01*
X37497Y-19106D01*
X37598Y-19154D01*
X37708Y-19182D01*
X37820Y-19188D01*
X37932Y-19173D01*
X38039Y-19135D01*
X38093Y-19106D01*
X38124Y-19010D01*
X38124Y-20379D01*
X37887Y-20280D01*
X37573Y-20215D01*
X37252Y-20213D01*
X36937Y-20273D01*
X36814Y-20322D01*
X36846Y-20253D01*
X36866Y-20167D01*
X36867Y-20066D01*
X36850Y-19979D01*
X36816Y-19898D01*
X36767Y-19824D01*
X36705Y-19762D01*
X36632Y-19712D01*
X36551Y-19678D01*
X36464Y-19660D01*
X36376Y-19660D01*
X36289Y-19676D01*
X36208Y-19709D01*
X36134Y-19758D01*
X36071Y-19819D01*
X36021Y-19892D01*
X35986Y-19973D01*
X35968Y-20059D01*
X35966Y-20148D01*
X35982Y-20235D01*
X35985Y-20244D01*
X35742Y-20488D01*
X35742Y-18408D01*
X35742Y-18406D01*
X35738Y-18367D01*
X35738Y-18365D01*
X35731Y-18343D01*
X35727Y-18328D01*
X35726Y-18326D01*
X35708Y-18292D01*
X35707Y-18290D01*
X35688Y-18266D01*
X35682Y-18259D01*
X35681Y-18258D01*
X35680Y-18257D01*
X34890Y-17468D01*
X34886Y-17463D01*
X34884Y-17462D01*
X34863Y-17443D01*
X34855Y-17437D01*
X34853Y-17435D01*
X34821Y-17418D01*
X34819Y-17417D01*
X34818Y-17416D01*
X34817Y-17416D01*
X34778Y-17404D01*
X34747Y-17400D01*
X34739Y-17400D01*
X34737Y-17400D01*
X34736Y-17400D01*
X34580Y-17400D01*
X34580Y-15909D01*
X34580Y-15722D01*
X34580Y-15498D01*
X34580Y-15311D01*
X34571Y-15263D01*
X34552Y-15218D01*
X34525Y-15177D01*
X34490Y-15142D01*
X34450Y-15114D01*
X34405Y-15095D01*
X34357Y-15085D01*
X34308Y-15085D01*
X34167Y-15085D01*
X34105Y-15147D01*
X34105Y-15560D01*
X34518Y-15560D01*
X34580Y-15498D01*
X34580Y-15722D01*
X34518Y-15660D01*
X34105Y-15660D01*
X34105Y-16073D01*
X34167Y-16135D01*
X34308Y-16135D01*
X34357Y-16135D01*
X34405Y-16125D01*
X34450Y-16106D01*
X34490Y-16078D01*
X34525Y-16043D01*
X34552Y-16002D01*
X34571Y-15957D01*
X34580Y-15909D01*
X34580Y-17400D01*
X34426Y-17400D01*
X34386Y-17340D01*
X34327Y-17281D01*
X34258Y-17234D01*
X34181Y-17202D01*
X34099Y-17185D01*
X34016Y-17185D01*
X33934Y-17200D01*
X33857Y-17232D01*
X33787Y-17277D01*
X33728Y-17336D01*
X33681Y-17405D01*
X33648Y-17481D01*
X33631Y-17563D01*
X33629Y-17646D01*
X33645Y-17728D01*
X33675Y-17806D01*
X33721Y-17876D01*
X33778Y-17935D01*
X33847Y-17983D01*
X33923Y-18016D01*
X34005Y-18034D01*
X34088Y-18036D01*
X34170Y-18021D01*
X34248Y-17991D01*
X34318Y-17946D01*
X34379Y-17889D01*
X34426Y-17821D01*
X34426Y-17820D01*
X34649Y-17820D01*
X35322Y-18492D01*
X35322Y-20975D01*
X34657Y-21640D01*
X34480Y-21640D01*
X34480Y-20568D01*
X34464Y-20486D01*
X34432Y-20409D01*
X34386Y-20340D01*
X34327Y-20281D01*
X34258Y-20234D01*
X34181Y-20202D01*
X34099Y-20185D01*
X34016Y-20185D01*
X33934Y-20200D01*
X33857Y-20232D01*
X33787Y-20277D01*
X33728Y-20336D01*
X33681Y-20405D01*
X33648Y-20481D01*
X33631Y-20563D01*
X33629Y-20646D01*
X33645Y-20728D01*
X33675Y-20806D01*
X33721Y-20876D01*
X33778Y-20935D01*
X33847Y-20983D01*
X33923Y-21016D01*
X34005Y-21034D01*
X34088Y-21036D01*
X34170Y-21021D01*
X34248Y-20991D01*
X34318Y-20946D01*
X34379Y-20889D01*
X34426Y-20821D01*
X34460Y-20744D01*
X34479Y-20663D01*
X34480Y-20568D01*
X34480Y-21640D01*
X32223Y-21640D01*
X32223Y-21560D01*
X32217Y-21531D01*
X32206Y-21504D01*
X32190Y-21480D01*
X32169Y-21459D01*
X32145Y-21443D01*
X32118Y-21432D01*
X32089Y-21426D01*
X32060Y-21426D01*
X31509Y-21426D01*
X31480Y-21432D01*
X31453Y-21443D01*
X31429Y-21459D01*
X31408Y-21480D01*
X31392Y-21504D01*
X31384Y-21523D01*
X30782Y-20921D01*
X30861Y-20908D01*
X30944Y-20876D01*
X31018Y-20828D01*
X31082Y-20768D01*
X31133Y-20695D01*
X31169Y-20615D01*
X31189Y-20529D01*
X31190Y-20428D01*
X31173Y-20341D01*
X31139Y-20260D01*
X31090Y-20186D01*
X31028Y-20124D01*
X30955Y-20074D01*
X30874Y-20040D01*
X30787Y-20022D01*
X30729Y-20022D01*
X30729Y-19488D01*
X30421Y-19181D01*
X30113Y-19488D01*
X30140Y-19582D01*
X30237Y-19628D01*
X30341Y-19654D01*
X30448Y-19659D01*
X30554Y-19643D01*
X30655Y-19607D01*
X30702Y-19582D01*
X30729Y-19488D01*
X30729Y-20022D01*
X30699Y-20022D01*
X30612Y-20038D01*
X30531Y-20071D01*
X30457Y-20120D01*
X30394Y-20181D01*
X30344Y-20254D01*
X30309Y-20335D01*
X30291Y-20421D01*
X30290Y-20430D01*
X29420Y-19560D01*
X29456Y-19561D01*
X29542Y-19546D01*
X29625Y-19514D01*
X29699Y-19466D01*
X29763Y-19406D01*
X29814Y-19333D01*
X29850Y-19253D01*
X29870Y-19167D01*
X29871Y-19066D01*
X29854Y-18979D01*
X29820Y-18898D01*
X29771Y-18824D01*
X29709Y-18762D01*
X29636Y-18712D01*
X29555Y-18678D01*
X29468Y-18660D01*
X29380Y-18660D01*
X29293Y-18676D01*
X29286Y-18678D01*
X29098Y-18490D01*
X29098Y-18423D01*
X29128Y-18454D01*
X29200Y-18505D01*
X29281Y-18540D01*
X29367Y-18559D01*
X29456Y-18561D01*
X29542Y-18546D01*
X29555Y-18540D01*
X29770Y-18756D01*
X29771Y-18757D01*
X29772Y-18758D01*
X29802Y-18783D01*
X29804Y-18785D01*
X29836Y-18801D01*
X29838Y-18803D01*
X29840Y-18804D01*
X29877Y-18815D01*
X29879Y-18816D01*
X29910Y-18819D01*
X29918Y-18820D01*
X29920Y-18820D01*
X29921Y-18820D01*
X29980Y-18820D01*
X29949Y-18829D01*
X29903Y-18926D01*
X29877Y-19030D01*
X29872Y-19137D01*
X29888Y-19243D01*
X29924Y-19344D01*
X29949Y-19391D01*
X30043Y-19418D01*
X30315Y-19145D01*
X30350Y-19110D01*
X30421Y-19039D01*
X30492Y-19110D01*
X30527Y-19145D01*
X30799Y-19418D01*
X30893Y-19391D01*
X30939Y-19294D01*
X30965Y-19190D01*
X30970Y-19083D01*
X30954Y-18977D01*
X30918Y-18876D01*
X30893Y-18829D01*
X30861Y-18820D01*
X31112Y-18820D01*
X31749Y-19457D01*
X31744Y-19457D01*
X31662Y-19472D01*
X31585Y-19504D01*
X31515Y-19549D01*
X31456Y-19608D01*
X31409Y-19677D01*
X31376Y-19753D01*
X31359Y-19835D01*
X31357Y-19918D01*
X31373Y-20000D01*
X31403Y-20078D01*
X31449Y-20148D01*
X31506Y-20207D01*
X31575Y-20255D01*
X31651Y-20288D01*
X31733Y-20306D01*
X31816Y-20308D01*
X31898Y-20293D01*
X31976Y-20263D01*
X32046Y-20218D01*
X32102Y-20165D01*
X32102Y-20247D01*
X32102Y-20249D01*
X32106Y-20290D01*
X32113Y-20315D01*
X32117Y-20327D01*
X32117Y-20328D01*
X32118Y-20329D01*
X32136Y-20363D01*
X32137Y-20365D01*
X32151Y-20383D01*
X32161Y-20395D01*
X32163Y-20397D01*
X32164Y-20397D01*
X32168Y-20401D01*
X32234Y-20468D01*
X32235Y-20469D01*
X32236Y-20470D01*
X32242Y-20475D01*
X32266Y-20495D01*
X32268Y-20496D01*
X32302Y-20515D01*
X32304Y-20516D01*
X32341Y-20527D01*
X32343Y-20528D01*
X32374Y-20531D01*
X32382Y-20532D01*
X32384Y-20532D01*
X32385Y-20532D01*
X33341Y-20532D01*
X33343Y-20532D01*
X33381Y-20528D01*
X33384Y-20528D01*
X33409Y-20520D01*
X33421Y-20517D01*
X33422Y-20516D01*
X33423Y-20516D01*
X33457Y-20498D01*
X33459Y-20497D01*
X33477Y-20482D01*
X33489Y-20473D01*
X33489Y-20472D01*
X33491Y-20471D01*
X33491Y-20470D01*
X33495Y-20465D01*
X33941Y-20020D01*
X34005Y-20034D01*
X34088Y-20036D01*
X34170Y-20021D01*
X34248Y-19991D01*
X34318Y-19946D01*
X34379Y-19889D01*
X34426Y-19821D01*
X34460Y-19744D01*
X34479Y-19663D01*
X34480Y-19568D01*
X34464Y-19486D01*
X34432Y-19409D01*
X34386Y-19340D01*
X34327Y-19281D01*
X34258Y-19234D01*
X34181Y-19202D01*
X34099Y-19185D01*
X34016Y-19185D01*
X33934Y-19200D01*
X33857Y-19232D01*
X33787Y-19277D01*
X33728Y-19336D01*
X33681Y-19405D01*
X33648Y-19481D01*
X33631Y-19563D01*
X33629Y-19646D01*
X33644Y-19724D01*
X33256Y-20112D01*
X33252Y-20112D01*
X33278Y-20056D01*
X33303Y-19956D01*
X33308Y-19854D01*
X33292Y-19752D01*
X33257Y-19656D01*
X33235Y-19615D01*
X33144Y-19592D01*
X33122Y-19614D01*
X33122Y-18650D01*
X33122Y-18575D01*
X33108Y-18501D01*
X33080Y-18431D01*
X33039Y-18368D01*
X32986Y-18314D01*
X32924Y-18272D01*
X32854Y-18242D01*
X32781Y-18226D01*
X32705Y-18226D01*
X32699Y-18226D01*
X32657Y-18160D01*
X32227Y-18160D01*
X32227Y-18533D01*
X32237Y-18541D01*
X32232Y-18570D01*
X32232Y-18645D01*
X32246Y-18719D01*
X32274Y-18789D01*
X32315Y-18852D01*
X32368Y-18906D01*
X32430Y-18948D01*
X32500Y-18978D01*
X32573Y-18994D01*
X32649Y-18994D01*
X32776Y-18994D01*
X32850Y-18979D01*
X32919Y-18951D01*
X32982Y-18909D01*
X33036Y-18856D01*
X33078Y-18793D01*
X33107Y-18724D01*
X33122Y-18650D01*
X33122Y-19614D01*
X33073Y-19663D01*
X33073Y-19521D01*
X33050Y-19430D01*
X32957Y-19387D01*
X32857Y-19362D01*
X32755Y-19357D01*
X32653Y-19373D01*
X32557Y-19408D01*
X32516Y-19430D01*
X32493Y-19521D01*
X32783Y-19811D01*
X33073Y-19521D01*
X33073Y-19663D01*
X32889Y-19847D01*
X32854Y-19882D01*
X32783Y-19953D01*
X32712Y-19882D01*
X32677Y-19847D01*
X32518Y-19688D01*
X32518Y-19685D01*
X32518Y-19682D01*
X32510Y-19656D01*
X32507Y-19645D01*
X32506Y-19643D01*
X32488Y-19609D01*
X32487Y-19607D01*
X32472Y-19589D01*
X32463Y-19577D01*
X32461Y-19575D01*
X32460Y-19574D01*
X32127Y-19241D01*
X32127Y-18533D01*
X32127Y-18160D01*
X32127Y-18060D01*
X32127Y-17687D01*
X32051Y-17630D01*
X31959Y-17652D01*
X31873Y-17692D01*
X31796Y-17748D01*
X31732Y-17817D01*
X31682Y-17898D01*
X31649Y-17985D01*
X31697Y-18060D01*
X32127Y-18060D01*
X32127Y-18160D01*
X31697Y-18160D01*
X31649Y-18235D01*
X31682Y-18322D01*
X31732Y-18403D01*
X31796Y-18472D01*
X31873Y-18528D01*
X31959Y-18568D01*
X32051Y-18590D01*
X32127Y-18533D01*
X32127Y-19241D01*
X31353Y-18468D01*
X31349Y-18463D01*
X31347Y-18462D01*
X31326Y-18443D01*
X31318Y-18437D01*
X31316Y-18435D01*
X31284Y-18418D01*
X31282Y-18417D01*
X31281Y-18416D01*
X31280Y-18416D01*
X31241Y-18404D01*
X31210Y-18400D01*
X31202Y-18400D01*
X31200Y-18400D01*
X31199Y-18400D01*
X30767Y-18400D01*
X30814Y-18333D01*
X30850Y-18253D01*
X30870Y-18167D01*
X30871Y-18066D01*
X30854Y-17979D01*
X30852Y-17974D01*
X31473Y-17354D01*
X32328Y-17354D01*
X32318Y-17364D01*
X32276Y-17427D01*
X32247Y-17496D01*
X32232Y-17570D01*
X32232Y-17645D01*
X32238Y-17678D01*
X32227Y-17687D01*
X32227Y-18060D01*
X32657Y-18060D01*
X32699Y-17994D01*
X32776Y-17994D01*
X32850Y-17979D01*
X32919Y-17951D01*
X32982Y-17909D01*
X33036Y-17856D01*
X33078Y-17793D01*
X33107Y-17724D01*
X33122Y-17650D01*
X33122Y-17575D01*
X33108Y-17501D01*
X33107Y-17498D01*
X33176Y-17567D01*
X33176Y-17939D01*
X33176Y-17941D01*
X33180Y-17982D01*
X33187Y-18007D01*
X33191Y-18019D01*
X33191Y-18020D01*
X33192Y-18021D01*
X33210Y-18055D01*
X33211Y-18057D01*
X33225Y-18075D01*
X33235Y-18087D01*
X33237Y-18089D01*
X33238Y-18089D01*
X33242Y-18093D01*
X33644Y-18496D01*
X33631Y-18563D01*
X33629Y-18646D01*
X33645Y-18728D01*
X33675Y-18806D01*
X33721Y-18876D01*
X33778Y-18935D01*
X33847Y-18983D01*
X33923Y-19016D01*
X34005Y-19034D01*
X34088Y-19036D01*
X34170Y-19021D01*
X34248Y-18991D01*
X34318Y-18946D01*
X34379Y-18889D01*
X34426Y-18821D01*
X34460Y-18744D01*
X34479Y-18663D01*
X34480Y-18568D01*
X34464Y-18486D01*
X34432Y-18409D01*
X34386Y-18340D01*
X34327Y-18281D01*
X34258Y-18234D01*
X34181Y-18202D01*
X34099Y-18185D01*
X34016Y-18185D01*
X33940Y-18198D01*
X33596Y-17854D01*
X33596Y-17483D01*
X33596Y-17481D01*
X33592Y-17442D01*
X33592Y-17440D01*
X33585Y-17418D01*
X33581Y-17403D01*
X33580Y-17401D01*
X33562Y-17367D01*
X33561Y-17365D01*
X33542Y-17341D01*
X33536Y-17334D01*
X33535Y-17333D01*
X33534Y-17332D01*
X33225Y-17024D01*
X33531Y-16718D01*
X33532Y-16718D01*
X33532Y-16717D01*
X33533Y-16717D01*
X33538Y-16710D01*
X33558Y-16687D01*
X33559Y-16685D01*
X33578Y-16651D01*
X33578Y-16649D01*
X33590Y-16612D01*
X33590Y-16610D01*
X33595Y-16571D01*
X33595Y-16569D01*
X33595Y-16568D01*
X33595Y-16446D01*
X33644Y-16496D01*
X33631Y-16563D01*
X33629Y-16646D01*
X33645Y-16728D01*
X33675Y-16806D01*
X33721Y-16876D01*
X33778Y-16935D01*
X33847Y-16983D01*
X33923Y-17016D01*
X34005Y-17034D01*
X34088Y-17036D01*
X34170Y-17021D01*
X34248Y-16991D01*
X34318Y-16946D01*
X34379Y-16889D01*
X34426Y-16821D01*
X34460Y-16744D01*
X34479Y-16663D01*
X34480Y-16568D01*
X34464Y-16486D01*
X34432Y-16409D01*
X34386Y-16340D01*
X34327Y-16281D01*
X34258Y-16234D01*
X34181Y-16202D01*
X34099Y-16185D01*
X34016Y-16185D01*
X33940Y-16198D01*
X33876Y-16135D01*
X33943Y-16135D01*
X34005Y-16073D01*
X34005Y-15710D01*
X34005Y-15660D01*
X34005Y-15560D01*
X34005Y-15510D01*
X34005Y-15147D01*
X33943Y-15085D01*
X33802Y-15085D01*
X33753Y-15085D01*
X33705Y-15095D01*
X33660Y-15114D01*
X33620Y-15142D01*
X33585Y-15177D01*
X33558Y-15218D01*
X33550Y-15236D01*
X33550Y-15200D01*
X33550Y-15198D01*
X33546Y-15159D01*
X33546Y-15157D01*
X33539Y-15135D01*
X33535Y-15120D01*
X33534Y-15118D01*
X33516Y-15084D01*
X33515Y-15082D01*
X33496Y-15058D01*
X33490Y-15051D01*
X33489Y-15050D01*
X33488Y-15049D01*
X32745Y-14307D01*
X32764Y-14230D01*
X32765Y-14129D01*
X32748Y-14042D01*
X32714Y-13961D01*
X32665Y-13887D01*
X32603Y-13825D01*
X32530Y-13775D01*
X32449Y-13741D01*
X32362Y-13723D01*
X32274Y-13723D01*
X32187Y-13739D01*
X32106Y-13772D01*
X32032Y-13821D01*
X31969Y-13882D01*
X31919Y-13955D01*
X31884Y-14036D01*
X31866Y-14122D01*
X31864Y-14211D01*
X31880Y-14298D01*
X31913Y-14380D01*
X31961Y-14454D01*
X31961Y-14455D01*
X28666Y-14455D01*
X28708Y-14396D01*
X28744Y-14316D01*
X28764Y-14230D01*
X28765Y-14129D01*
X28748Y-14042D01*
X28714Y-13961D01*
X28665Y-13887D01*
X28603Y-13825D01*
X28530Y-13775D01*
X28449Y-13741D01*
X28362Y-13723D01*
X28274Y-13723D01*
X28187Y-13739D01*
X28106Y-13772D01*
X28032Y-13821D01*
X27969Y-13882D01*
X27919Y-13955D01*
X27884Y-14036D01*
X27866Y-14122D01*
X27864Y-14211D01*
X27880Y-14298D01*
X27913Y-14380D01*
X27961Y-14454D01*
X27961Y-14455D01*
X27886Y-14455D01*
X27845Y-14459D01*
X27844Y-14459D01*
X27844Y-14129D01*
X27827Y-14042D01*
X27793Y-13961D01*
X27744Y-13887D01*
X27682Y-13825D01*
X27609Y-13775D01*
X27528Y-13741D01*
X27441Y-13723D01*
X27353Y-13723D01*
X27266Y-13739D01*
X27185Y-13772D01*
X27111Y-13821D01*
X27048Y-13882D01*
X26998Y-13955D01*
X26963Y-14036D01*
X26945Y-14122D01*
X26943Y-14211D01*
X26959Y-14298D01*
X26992Y-14380D01*
X27040Y-14454D01*
X27101Y-14517D01*
X27173Y-14568D01*
X27254Y-14603D01*
X27340Y-14622D01*
X27429Y-14624D01*
X27515Y-14609D01*
X27598Y-14577D01*
X27672Y-14529D01*
X27736Y-14469D01*
X27787Y-14396D01*
X27823Y-14316D01*
X27843Y-14230D01*
X27844Y-14129D01*
X27844Y-14459D01*
X27823Y-14465D01*
X27808Y-14470D01*
X27806Y-14470D01*
X27806Y-14471D01*
X27770Y-14490D01*
X27746Y-14509D01*
X27739Y-14515D01*
X27738Y-14516D01*
X27737Y-14517D01*
X27529Y-14725D01*
X27528Y-14725D01*
X27441Y-14707D01*
X27353Y-14707D01*
X27266Y-14723D01*
X27185Y-14756D01*
X27111Y-14805D01*
X27048Y-14866D01*
X26998Y-14939D01*
X26963Y-15020D01*
X26945Y-15106D01*
X26943Y-15195D01*
X26959Y-15282D01*
X26992Y-15364D01*
X27040Y-15438D01*
X27101Y-15501D01*
X27173Y-15552D01*
X27254Y-15587D01*
X27340Y-15606D01*
X27429Y-15608D01*
X27515Y-15593D01*
X27598Y-15561D01*
X27672Y-15513D01*
X27736Y-15453D01*
X27787Y-15380D01*
X27823Y-15300D01*
X27843Y-15214D01*
X27844Y-15113D01*
X27827Y-15026D01*
X27825Y-15022D01*
X27941Y-14906D01*
X27919Y-14939D01*
X27884Y-15020D01*
X27866Y-15106D01*
X27864Y-15195D01*
X27880Y-15282D01*
X27913Y-15364D01*
X27961Y-15438D01*
X28022Y-15501D01*
X28094Y-15552D01*
X28175Y-15587D01*
X28261Y-15606D01*
X28350Y-15608D01*
X28436Y-15593D01*
X28519Y-15561D01*
X28593Y-15513D01*
X28657Y-15453D01*
X28708Y-15380D01*
X28744Y-15300D01*
X28764Y-15214D01*
X28765Y-15113D01*
X28748Y-15026D01*
X28714Y-14945D01*
X28667Y-14875D01*
X31962Y-14875D01*
X31919Y-14939D01*
X31915Y-14947D01*
X31617Y-14947D01*
X31615Y-14947D01*
X31574Y-14951D01*
X31548Y-14958D01*
X31537Y-14962D01*
X31535Y-14962D01*
X31535Y-14963D01*
X31499Y-14982D01*
X31481Y-14996D01*
X31469Y-15006D01*
X31467Y-15008D01*
X31466Y-15009D01*
X29802Y-16673D01*
X29797Y-16678D01*
X29795Y-16680D01*
X29792Y-16678D01*
X29765Y-16667D01*
X29736Y-16661D01*
X29707Y-16661D01*
X29106Y-16661D01*
X29077Y-16667D01*
X29050Y-16678D01*
X29026Y-16694D01*
X29005Y-16715D01*
X28989Y-16739D01*
X28978Y-16766D01*
X28972Y-16795D01*
X28972Y-16807D01*
X27880Y-15716D01*
X27876Y-15711D01*
X27874Y-15710D01*
X27853Y-15691D01*
X27845Y-15685D01*
X27843Y-15683D01*
X27811Y-15666D01*
X27809Y-15665D01*
X27808Y-15664D01*
X27807Y-15664D01*
X27768Y-15652D01*
X27737Y-15648D01*
X27729Y-15648D01*
X27727Y-15648D01*
X27726Y-15648D01*
X23844Y-15648D01*
X23844Y-15113D01*
X23844Y-14129D01*
X23827Y-14042D01*
X23793Y-13961D01*
X23744Y-13887D01*
X23682Y-13825D01*
X23609Y-13775D01*
X23528Y-13741D01*
X23441Y-13723D01*
X23353Y-13723D01*
X23266Y-13739D01*
X23185Y-13772D01*
X23111Y-13821D01*
X23048Y-13882D01*
X22998Y-13955D01*
X22963Y-14036D01*
X22945Y-14122D01*
X22943Y-14211D01*
X22959Y-14298D01*
X22992Y-14380D01*
X23040Y-14454D01*
X23101Y-14517D01*
X23173Y-14568D01*
X23254Y-14603D01*
X23340Y-14622D01*
X23429Y-14624D01*
X23515Y-14609D01*
X23598Y-14577D01*
X23672Y-14529D01*
X23736Y-14469D01*
X23787Y-14396D01*
X23823Y-14316D01*
X23843Y-14230D01*
X23844Y-14129D01*
X23844Y-15113D01*
X23827Y-15026D01*
X23793Y-14945D01*
X23744Y-14871D01*
X23682Y-14809D01*
X23609Y-14759D01*
X23528Y-14725D01*
X23441Y-14707D01*
X23353Y-14707D01*
X23266Y-14723D01*
X23185Y-14756D01*
X23111Y-14805D01*
X23048Y-14866D01*
X22998Y-14939D01*
X22963Y-15020D01*
X22945Y-15106D01*
X22943Y-15195D01*
X22959Y-15282D01*
X22992Y-15364D01*
X23040Y-15438D01*
X23101Y-15501D01*
X23173Y-15552D01*
X23254Y-15587D01*
X23340Y-15606D01*
X23429Y-15608D01*
X23515Y-15593D01*
X23598Y-15561D01*
X23672Y-15513D01*
X23736Y-15453D01*
X23787Y-15380D01*
X23823Y-15300D01*
X23843Y-15214D01*
X23844Y-15113D01*
X23844Y-15648D01*
X22341Y-15648D01*
X22339Y-15648D01*
X22298Y-15652D01*
X22281Y-15657D01*
X22504Y-15444D01*
X22689Y-15182D01*
X22820Y-14889D01*
X22891Y-14576D01*
X22896Y-14210D01*
X22834Y-13895D01*
X22712Y-13599D01*
X22534Y-13331D01*
X22308Y-13104D01*
X22183Y-13020D01*
X36476Y-13020D01*
X36371Y-13089D01*
X36142Y-13313D01*
X35961Y-13578D01*
X35834Y-13873D01*
X35767Y-14186D01*
X35763Y-14507D01*
X35821Y-14823D01*
X35939Y-15121D01*
X36113Y-15391D01*
X36335Y-15622D01*
X36389Y-15660D01*
X36376Y-15660D01*
X36289Y-15676D01*
X36208Y-15709D01*
X36134Y-15758D01*
X36071Y-15819D01*
X36021Y-15892D01*
X35986Y-15973D01*
X35968Y-16059D01*
X35966Y-16148D01*
X35982Y-16235D01*
X36015Y-16317D01*
X36063Y-16391D01*
X36124Y-16454D01*
X36196Y-16505D01*
X36277Y-16540D01*
X36363Y-16559D01*
X36452Y-16561D01*
X36538Y-16546D01*
X36621Y-16514D01*
X36695Y-16466D01*
X36759Y-16406D01*
X36810Y-16333D01*
X36846Y-16253D01*
X36866Y-16167D01*
X36867Y-16066D01*
X36850Y-15979D01*
X36816Y-15899D01*
X36893Y-15933D01*
X37206Y-16002D01*
X37527Y-16009D01*
X37843Y-15953D01*
X38142Y-15837D01*
X38413Y-15666D01*
X38645Y-15444D01*
X38751Y-15293D01*
X38751Y-20925D01*
X38751Y-20925D01*
G37*
G54D22*
X38751Y-20925D02*
X38675Y-20811D01*
X38449Y-20584D01*
X38373Y-20532D01*
X38373Y-18585D01*
X38358Y-18473D01*
X38320Y-18366D01*
X38291Y-18312D01*
X38275Y-18306D01*
X38275Y-17563D01*
X38257Y-17471D01*
X38221Y-17384D01*
X38169Y-17305D01*
X38102Y-17238D01*
X38024Y-17186D01*
X37938Y-17149D01*
X37845Y-17130D01*
X37751Y-17130D01*
X37659Y-17147D01*
X37572Y-17183D01*
X37493Y-17234D01*
X37426Y-17300D01*
X37372Y-17378D01*
X37335Y-17464D01*
X37316Y-17556D01*
X37314Y-17650D01*
X37331Y-17743D01*
X37366Y-17830D01*
X37417Y-17910D01*
X37482Y-17977D01*
X37560Y-18031D01*
X37623Y-18059D01*
X37551Y-18085D01*
X37497Y-18114D01*
X37466Y-18210D01*
X37795Y-18539D01*
X38124Y-18210D01*
X38093Y-18114D01*
X37992Y-18066D01*
X37965Y-18059D01*
X38012Y-18041D01*
X38092Y-17990D01*
X38160Y-17925D01*
X38214Y-17848D01*
X38253Y-17762D01*
X38273Y-17671D01*
X38275Y-17563D01*
X38275Y-18306D01*
X38195Y-18281D01*
X37866Y-18610D01*
X38195Y-18939D01*
X38291Y-18908D01*
X38339Y-18807D01*
X38367Y-18697D01*
X38373Y-18585D01*
X38373Y-20532D01*
X38183Y-20404D01*
X38124Y-20379D01*
X38124Y-19010D01*
X37795Y-18681D01*
X37724Y-18752D01*
X37724Y-18610D01*
X37395Y-18281D01*
X37299Y-18312D01*
X37251Y-18413D01*
X37223Y-18523D01*
X37217Y-18635D01*
X37232Y-18747D01*
X37270Y-18854D01*
X37299Y-18908D01*
X37395Y-18939D01*
X37724Y-18610D01*
X37724Y-18752D01*
X37466Y-19010D01*
X37497Y-19106D01*
X37598Y-19154D01*
X37708Y-19182D01*
X37820Y-19188D01*
X37932Y-19173D01*
X38039Y-19135D01*
X38093Y-19106D01*
X38124Y-19010D01*
X38124Y-20379D01*
X37887Y-20280D01*
X37573Y-20215D01*
X37252Y-20213D01*
X36937Y-20273D01*
X36814Y-20322D01*
X36846Y-20253D01*
X36866Y-20167D01*
X36867Y-20066D01*
X36850Y-19979D01*
X36816Y-19898D01*
X36767Y-19824D01*
X36705Y-19762D01*
X36632Y-19712D01*
X36551Y-19678D01*
X36464Y-19660D01*
X36376Y-19660D01*
X36289Y-19676D01*
X36208Y-19709D01*
X36134Y-19758D01*
X36071Y-19819D01*
X36021Y-19892D01*
X35986Y-19973D01*
X35968Y-20059D01*
X35966Y-20148D01*
X35982Y-20235D01*
X35985Y-20244D01*
X35742Y-20488D01*
X35742Y-18408D01*
X35742Y-18406D01*
X35738Y-18367D01*
X35738Y-18365D01*
X35731Y-18343D01*
X35727Y-18328D01*
X35726Y-18326D01*
X35708Y-18292D01*
X35707Y-18290D01*
X35688Y-18266D01*
X35682Y-18259D01*
X35681Y-18258D01*
X35680Y-18257D01*
X34890Y-17468D01*
X34886Y-17463D01*
X34884Y-17462D01*
X34863Y-17443D01*
X34855Y-17437D01*
X34853Y-17435D01*
X34821Y-17418D01*
X34819Y-17417D01*
X34818Y-17416D01*
X34817Y-17416D01*
X34778Y-17404D01*
X34747Y-17400D01*
X34739Y-17400D01*
X34737Y-17400D01*
X34736Y-17400D01*
X34580Y-17400D01*
X34580Y-15909D01*
X34580Y-15722D01*
X34580Y-15498D01*
X34580Y-15311D01*
X34571Y-15263D01*
X34552Y-15218D01*
X34525Y-15177D01*
X34490Y-15142D01*
X34450Y-15114D01*
X34405Y-15095D01*
X34357Y-15085D01*
X34308Y-15085D01*
X34167Y-15085D01*
X34105Y-15147D01*
X34105Y-15560D01*
X34518Y-15560D01*
X34580Y-15498D01*
X34580Y-15722D01*
X34518Y-15660D01*
X34105Y-15660D01*
X34105Y-16073D01*
X34167Y-16135D01*
X34308Y-16135D01*
X34357Y-16135D01*
X34405Y-16125D01*
X34450Y-16106D01*
X34490Y-16078D01*
X34525Y-16043D01*
X34552Y-16002D01*
X34571Y-15957D01*
X34580Y-15909D01*
X34580Y-17400D01*
X34426Y-17400D01*
X34386Y-17340D01*
X34327Y-17281D01*
X34258Y-17234D01*
X34181Y-17202D01*
X34099Y-17185D01*
X34016Y-17185D01*
X33934Y-17200D01*
X33857Y-17232D01*
X33787Y-17277D01*
X33728Y-17336D01*
X33681Y-17405D01*
X33648Y-17481D01*
X33631Y-17563D01*
X33629Y-17646D01*
X33645Y-17728D01*
X33675Y-17806D01*
X33721Y-17876D01*
X33778Y-17935D01*
X33847Y-17983D01*
X33923Y-18016D01*
X34005Y-18034D01*
X34088Y-18036D01*
X34170Y-18021D01*
X34248Y-17991D01*
X34318Y-17946D01*
X34379Y-17889D01*
X34426Y-17821D01*
X34426Y-17820D01*
X34649Y-17820D01*
X35322Y-18492D01*
X35322Y-20975D01*
X34657Y-21640D01*
X34480Y-21640D01*
X34480Y-20568D01*
X34464Y-20486D01*
X34432Y-20409D01*
X34386Y-20340D01*
X34327Y-20281D01*
X34258Y-20234D01*
X34181Y-20202D01*
X34099Y-20185D01*
X34016Y-20185D01*
X33934Y-20200D01*
X33857Y-20232D01*
X33787Y-20277D01*
X33728Y-20336D01*
X33681Y-20405D01*
X33648Y-20481D01*
X33631Y-20563D01*
X33629Y-20646D01*
X33645Y-20728D01*
X33675Y-20806D01*
X33721Y-20876D01*
X33778Y-20935D01*
X33847Y-20983D01*
X33923Y-21016D01*
X34005Y-21034D01*
X34088Y-21036D01*
X34170Y-21021D01*
X34248Y-20991D01*
X34318Y-20946D01*
X34379Y-20889D01*
X34426Y-20821D01*
X34460Y-20744D01*
X34479Y-20663D01*
X34480Y-20568D01*
X34480Y-21640D01*
X32223Y-21640D01*
X32223Y-21560D01*
X32217Y-21531D01*
X32206Y-21504D01*
X32190Y-21480D01*
X32169Y-21459D01*
X32145Y-21443D01*
X32118Y-21432D01*
X32089Y-21426D01*
X32060Y-21426D01*
X31509Y-21426D01*
X31480Y-21432D01*
X31453Y-21443D01*
X31429Y-21459D01*
X31408Y-21480D01*
X31392Y-21504D01*
X31384Y-21523D01*
X30782Y-20921D01*
X30861Y-20908D01*
X30944Y-20876D01*
X31018Y-20828D01*
X31082Y-20768D01*
X31133Y-20695D01*
X31169Y-20615D01*
X31189Y-20529D01*
X31190Y-20428D01*
X31173Y-20341D01*
X31139Y-20260D01*
X31090Y-20186D01*
X31028Y-20124D01*
X30955Y-20074D01*
X30874Y-20040D01*
X30787Y-20022D01*
X30729Y-20022D01*
X30729Y-19488D01*
X30421Y-19181D01*
X30113Y-19488D01*
X30140Y-19582D01*
X30237Y-19628D01*
X30341Y-19654D01*
X30448Y-19659D01*
X30554Y-19643D01*
X30655Y-19607D01*
X30702Y-19582D01*
X30729Y-19488D01*
X30729Y-20022D01*
X30699Y-20022D01*
X30612Y-20038D01*
X30531Y-20071D01*
X30457Y-20120D01*
X30394Y-20181D01*
X30344Y-20254D01*
X30309Y-20335D01*
X30291Y-20421D01*
X30290Y-20430D01*
X29420Y-19560D01*
X29456Y-19561D01*
X29542Y-19546D01*
X29625Y-19514D01*
X29699Y-19466D01*
X29763Y-19406D01*
X29814Y-19333D01*
X29850Y-19253D01*
X29870Y-19167D01*
X29871Y-19066D01*
X29854Y-18979D01*
X29820Y-18898D01*
X29771Y-18824D01*
X29709Y-18762D01*
X29636Y-18712D01*
X29555Y-18678D01*
X29468Y-18660D01*
X29380Y-18660D01*
X29293Y-18676D01*
X29286Y-18678D01*
X29098Y-18490D01*
X29098Y-18423D01*
X29128Y-18454D01*
X29200Y-18505D01*
X29281Y-18540D01*
X29367Y-18559D01*
X29456Y-18561D01*
X29542Y-18546D01*
X29555Y-18540D01*
X29770Y-18756D01*
X29771Y-18757D01*
X29772Y-18758D01*
X29802Y-18783D01*
X29804Y-18785D01*
X29836Y-18801D01*
X29838Y-18803D01*
X29840Y-18804D01*
X29877Y-18815D01*
X29879Y-18816D01*
X29910Y-18819D01*
X29918Y-18820D01*
X29920Y-18820D01*
X29921Y-18820D01*
X29980Y-18820D01*
X29949Y-18829D01*
X29903Y-18926D01*
X29877Y-19030D01*
X29872Y-19137D01*
X29888Y-19243D01*
X29924Y-19344D01*
X29949Y-19391D01*
X30043Y-19418D01*
X30315Y-19145D01*
X30350Y-19110D01*
X30421Y-19039D01*
X30492Y-19110D01*
X30527Y-19145D01*
X30799Y-19418D01*
X30893Y-19391D01*
X30939Y-19294D01*
X30965Y-19190D01*
X30970Y-19083D01*
X30954Y-18977D01*
X30918Y-18876D01*
X30893Y-18829D01*
X30861Y-18820D01*
X31112Y-18820D01*
X31749Y-19457D01*
X31744Y-19457D01*
X31662Y-19472D01*
X31585Y-19504D01*
X31515Y-19549D01*
X31456Y-19608D01*
X31409Y-19677D01*
X31376Y-19753D01*
X31359Y-19835D01*
X31357Y-19918D01*
X31373Y-20000D01*
X31403Y-20078D01*
X31449Y-20148D01*
X31506Y-20207D01*
X31575Y-20255D01*
X31651Y-20288D01*
X31733Y-20306D01*
X31816Y-20308D01*
X31898Y-20293D01*
X31976Y-20263D01*
X32046Y-20218D01*
X32102Y-20165D01*
X32102Y-20247D01*
X32102Y-20249D01*
X32106Y-20290D01*
X32113Y-20315D01*
X32117Y-20327D01*
X32117Y-20328D01*
X32118Y-20329D01*
X32136Y-20363D01*
X32137Y-20365D01*
X32151Y-20383D01*
X32161Y-20395D01*
X32163Y-20397D01*
X32164Y-20397D01*
X32168Y-20401D01*
X32234Y-20468D01*
X32235Y-20469D01*
X32236Y-20470D01*
X32242Y-20475D01*
X32266Y-20495D01*
X32268Y-20496D01*
X32302Y-20515D01*
X32304Y-20516D01*
X32341Y-20527D01*
X32343Y-20528D01*
X32374Y-20531D01*
X32382Y-20532D01*
X32384Y-20532D01*
X32385Y-20532D01*
X33341Y-20532D01*
X33343Y-20532D01*
X33381Y-20528D01*
X33384Y-20528D01*
X33409Y-20520D01*
X33421Y-20517D01*
X33422Y-20516D01*
X33423Y-20516D01*
X33457Y-20498D01*
X33459Y-20497D01*
X33477Y-20482D01*
X33489Y-20473D01*
X33489Y-20472D01*
X33491Y-20471D01*
X33491Y-20470D01*
X33495Y-20465D01*
X33941Y-20020D01*
X34005Y-20034D01*
X34088Y-20036D01*
X34170Y-20021D01*
X34248Y-19991D01*
X34318Y-19946D01*
X34379Y-19889D01*
X34426Y-19821D01*
X34460Y-19744D01*
X34479Y-19663D01*
X34480Y-19568D01*
X34464Y-19486D01*
X34432Y-19409D01*
X34386Y-19340D01*
X34327Y-19281D01*
X34258Y-19234D01*
X34181Y-19202D01*
X34099Y-19185D01*
X34016Y-19185D01*
X33934Y-19200D01*
X33857Y-19232D01*
X33787Y-19277D01*
X33728Y-19336D01*
X33681Y-19405D01*
X33648Y-19481D01*
X33631Y-19563D01*
X33629Y-19646D01*
X33644Y-19724D01*
X33256Y-20112D01*
X33252Y-20112D01*
X33278Y-20056D01*
X33303Y-19956D01*
X33308Y-19854D01*
X33292Y-19752D01*
X33257Y-19656D01*
X33235Y-19615D01*
X33144Y-19592D01*
X33122Y-19614D01*
X33122Y-18650D01*
X33122Y-18575D01*
X33108Y-18501D01*
X33080Y-18431D01*
X33039Y-18368D01*
X32986Y-18314D01*
X32924Y-18272D01*
X32854Y-18242D01*
X32781Y-18226D01*
X32705Y-18226D01*
X32699Y-18226D01*
X32657Y-18160D01*
X32227Y-18160D01*
X32227Y-18533D01*
X32237Y-18541D01*
X32232Y-18570D01*
X32232Y-18645D01*
X32246Y-18719D01*
X32274Y-18789D01*
X32315Y-18852D01*
X32368Y-18906D01*
X32430Y-18948D01*
X32500Y-18978D01*
X32573Y-18994D01*
X32649Y-18994D01*
X32776Y-18994D01*
X32850Y-18979D01*
X32919Y-18951D01*
X32982Y-18909D01*
X33036Y-18856D01*
X33078Y-18793D01*
X33107Y-18724D01*
X33122Y-18650D01*
X33122Y-19614D01*
X33073Y-19663D01*
X33073Y-19521D01*
X33050Y-19430D01*
X32957Y-19387D01*
X32857Y-19362D01*
X32755Y-19357D01*
X32653Y-19373D01*
X32557Y-19408D01*
X32516Y-19430D01*
X32493Y-19521D01*
X32783Y-19811D01*
X33073Y-19521D01*
X33073Y-19663D01*
X32889Y-19847D01*
X32854Y-19882D01*
X32783Y-19953D01*
X32712Y-19882D01*
X32677Y-19847D01*
X32518Y-19688D01*
X32518Y-19685D01*
X32518Y-19682D01*
X32510Y-19656D01*
X32507Y-19645D01*
X32506Y-19643D01*
X32488Y-19609D01*
X32487Y-19607D01*
X32472Y-19589D01*
X32463Y-19577D01*
X32461Y-19575D01*
X32460Y-19574D01*
X32127Y-19241D01*
X32127Y-18533D01*
X32127Y-18160D01*
X32127Y-18060D01*
X32127Y-17687D01*
X32051Y-17630D01*
X31959Y-17652D01*
X31873Y-17692D01*
X31796Y-17748D01*
X31732Y-17817D01*
X31682Y-17898D01*
X31649Y-17985D01*
X31697Y-18060D01*
X32127Y-18060D01*
X32127Y-18160D01*
X31697Y-18160D01*
X31649Y-18235D01*
X31682Y-18322D01*
X31732Y-18403D01*
X31796Y-18472D01*
X31873Y-18528D01*
X31959Y-18568D01*
X32051Y-18590D01*
X32127Y-18533D01*
X32127Y-19241D01*
X31353Y-18468D01*
X31349Y-18463D01*
X31347Y-18462D01*
X31326Y-18443D01*
X31318Y-18437D01*
X31316Y-18435D01*
X31284Y-18418D01*
X31282Y-18417D01*
X31281Y-18416D01*
X31280Y-18416D01*
X31241Y-18404D01*
X31210Y-18400D01*
X31202Y-18400D01*
X31200Y-18400D01*
X31199Y-18400D01*
X30767Y-18400D01*
X30814Y-18333D01*
X30850Y-18253D01*
X30870Y-18167D01*
X30871Y-18066D01*
X30854Y-17979D01*
X30852Y-17974D01*
X31473Y-17354D01*
X32328Y-17354D01*
X32318Y-17364D01*
X32276Y-17427D01*
X32247Y-17496D01*
X32232Y-17570D01*
X32232Y-17645D01*
X32238Y-17678D01*
X32227Y-17687D01*
X32227Y-18060D01*
X32657Y-18060D01*
X32699Y-17994D01*
X32776Y-17994D01*
X32850Y-17979D01*
X32919Y-17951D01*
X32982Y-17909D01*
X33036Y-17856D01*
X33078Y-17793D01*
X33107Y-17724D01*
X33122Y-17650D01*
X33122Y-17575D01*
X33108Y-17501D01*
X33107Y-17498D01*
X33176Y-17567D01*
X33176Y-17939D01*
X33176Y-17941D01*
X33180Y-17982D01*
X33187Y-18007D01*
X33191Y-18019D01*
X33191Y-18020D01*
X33192Y-18021D01*
X33210Y-18055D01*
X33211Y-18057D01*
X33225Y-18075D01*
X33235Y-18087D01*
X33237Y-18089D01*
X33238Y-18089D01*
X33242Y-18093D01*
X33644Y-18496D01*
X33631Y-18563D01*
X33629Y-18646D01*
X33645Y-18728D01*
X33675Y-18806D01*
X33721Y-18876D01*
X33778Y-18935D01*
X33847Y-18983D01*
X33923Y-19016D01*
X34005Y-19034D01*
X34088Y-19036D01*
X34170Y-19021D01*
X34248Y-18991D01*
X34318Y-18946D01*
X34379Y-18889D01*
X34426Y-18821D01*
X34460Y-18744D01*
X34479Y-18663D01*
X34480Y-18568D01*
X34464Y-18486D01*
X34432Y-18409D01*
X34386Y-18340D01*
X34327Y-18281D01*
X34258Y-18234D01*
X34181Y-18202D01*
X34099Y-18185D01*
X34016Y-18185D01*
X33940Y-18198D01*
X33596Y-17854D01*
X33596Y-17483D01*
X33596Y-17481D01*
X33592Y-17442D01*
X33592Y-17440D01*
X33585Y-17418D01*
X33581Y-17403D01*
X33580Y-17401D01*
X33562Y-17367D01*
X33561Y-17365D01*
X33542Y-17341D01*
X33536Y-17334D01*
X33535Y-17333D01*
X33534Y-17332D01*
X33225Y-17024D01*
X33531Y-16718D01*
X33532Y-16718D01*
X33532Y-16717D01*
X33533Y-16717D01*
X33538Y-16710D01*
X33558Y-16687D01*
X33559Y-16685D01*
X33578Y-16651D01*
X33578Y-16649D01*
X33590Y-16612D01*
X33590Y-16610D01*
X33595Y-16571D01*
X33595Y-16569D01*
X33595Y-16568D01*
X33595Y-16446D01*
X33644Y-16496D01*
X33631Y-16563D01*
X33629Y-16646D01*
X33645Y-16728D01*
X33675Y-16806D01*
X33721Y-16876D01*
X33778Y-16935D01*
X33847Y-16983D01*
X33923Y-17016D01*
X34005Y-17034D01*
X34088Y-17036D01*
X34170Y-17021D01*
X34248Y-16991D01*
X34318Y-16946D01*
X34379Y-16889D01*
X34426Y-16821D01*
X34460Y-16744D01*
X34479Y-16663D01*
X34480Y-16568D01*
X34464Y-16486D01*
X34432Y-16409D01*
X34386Y-16340D01*
X34327Y-16281D01*
X34258Y-16234D01*
X34181Y-16202D01*
X34099Y-16185D01*
X34016Y-16185D01*
X33940Y-16198D01*
X33876Y-16135D01*
X33943Y-16135D01*
X34005Y-16073D01*
X34005Y-15710D01*
X34005Y-15660D01*
X34005Y-15560D01*
X34005Y-15510D01*
X34005Y-15147D01*
X33943Y-15085D01*
X33802Y-15085D01*
X33753Y-15085D01*
X33705Y-15095D01*
X33660Y-15114D01*
X33620Y-15142D01*
X33585Y-15177D01*
X33558Y-15218D01*
X33550Y-15236D01*
X33550Y-15200D01*
X33550Y-15198D01*
X33546Y-15159D01*
X33546Y-15157D01*
X33539Y-15135D01*
X33535Y-15120D01*
X33534Y-15118D01*
X33516Y-15084D01*
X33515Y-15082D01*
X33496Y-15058D01*
X33490Y-15051D01*
X33489Y-15050D01*
X33488Y-15049D01*
X32745Y-14307D01*
X32764Y-14230D01*
X32765Y-14129D01*
X32748Y-14042D01*
X32714Y-13961D01*
X32665Y-13887D01*
X32603Y-13825D01*
X32530Y-13775D01*
X32449Y-13741D01*
X32362Y-13723D01*
X32274Y-13723D01*
X32187Y-13739D01*
X32106Y-13772D01*
X32032Y-13821D01*
X31969Y-13882D01*
X31919Y-13955D01*
X31884Y-14036D01*
X31866Y-14122D01*
X31864Y-14211D01*
X31880Y-14298D01*
X31913Y-14380D01*
X31961Y-14454D01*
X31961Y-14455D01*
X28666Y-14455D01*
X28708Y-14396D01*
X28744Y-14316D01*
X28764Y-14230D01*
X28765Y-14129D01*
X28748Y-14042D01*
X28714Y-13961D01*
X28665Y-13887D01*
X28603Y-13825D01*
X28530Y-13775D01*
X28449Y-13741D01*
X28362Y-13723D01*
X28274Y-13723D01*
X28187Y-13739D01*
X28106Y-13772D01*
X28032Y-13821D01*
X27969Y-13882D01*
X27919Y-13955D01*
X27884Y-14036D01*
X27866Y-14122D01*
X27864Y-14211D01*
X27880Y-14298D01*
X27913Y-14380D01*
X27961Y-14454D01*
X27961Y-14455D01*
X27886Y-14455D01*
X27845Y-14459D01*
X27844Y-14459D01*
X27844Y-14129D01*
X27827Y-14042D01*
X27793Y-13961D01*
X27744Y-13887D01*
X27682Y-13825D01*
X27609Y-13775D01*
X27528Y-13741D01*
X27441Y-13723D01*
X27353Y-13723D01*
X27266Y-13739D01*
X27185Y-13772D01*
X27111Y-13821D01*
X27048Y-13882D01*
X26998Y-13955D01*
X26963Y-14036D01*
X26945Y-14122D01*
X26943Y-14211D01*
X26959Y-14298D01*
X26992Y-14380D01*
X27040Y-14454D01*
X27101Y-14517D01*
X27173Y-14568D01*
X27254Y-14603D01*
X27340Y-14622D01*
X27429Y-14624D01*
X27515Y-14609D01*
X27598Y-14577D01*
X27672Y-14529D01*
X27736Y-14469D01*
X27787Y-14396D01*
X27823Y-14316D01*
X27843Y-14230D01*
X27844Y-14129D01*
X27844Y-14459D01*
X27823Y-14465D01*
X27808Y-14470D01*
X27806Y-14470D01*
X27806Y-14471D01*
X27770Y-14490D01*
X27746Y-14509D01*
X27739Y-14515D01*
X27738Y-14516D01*
X27737Y-14517D01*
X27529Y-14725D01*
X27528Y-14725D01*
X27441Y-14707D01*
X27353Y-14707D01*
X27266Y-14723D01*
X27185Y-14756D01*
X27111Y-14805D01*
X27048Y-14866D01*
X26998Y-14939D01*
X26963Y-15020D01*
X26945Y-15106D01*
X26943Y-15195D01*
X26959Y-15282D01*
X26992Y-15364D01*
X27040Y-15438D01*
X27101Y-15501D01*
X27173Y-15552D01*
X27254Y-15587D01*
X27340Y-15606D01*
X27429Y-15608D01*
X27515Y-15593D01*
X27598Y-15561D01*
X27672Y-15513D01*
X27736Y-15453D01*
X27787Y-15380D01*
X27823Y-15300D01*
X27843Y-15214D01*
X27844Y-15113D01*
X27827Y-15026D01*
X27825Y-15022D01*
X27941Y-14906D01*
X27919Y-14939D01*
X27884Y-15020D01*
X27866Y-15106D01*
X27864Y-15195D01*
X27880Y-15282D01*
X27913Y-15364D01*
X27961Y-15438D01*
X28022Y-15501D01*
X28094Y-15552D01*
X28175Y-15587D01*
X28261Y-15606D01*
X28350Y-15608D01*
X28436Y-15593D01*
X28519Y-15561D01*
X28593Y-15513D01*
X28657Y-15453D01*
X28708Y-15380D01*
X28744Y-15300D01*
X28764Y-15214D01*
X28765Y-15113D01*
X28748Y-15026D01*
X28714Y-14945D01*
X28667Y-14875D01*
X31962Y-14875D01*
X31919Y-14939D01*
X31915Y-14947D01*
X31617Y-14947D01*
X31615Y-14947D01*
X31574Y-14951D01*
X31548Y-14958D01*
X31537Y-14962D01*
X31535Y-14962D01*
X31535Y-14963D01*
X31499Y-14982D01*
X31481Y-14996D01*
X31469Y-15006D01*
X31467Y-15008D01*
X31466Y-15009D01*
X29802Y-16673D01*
X29797Y-16678D01*
X29795Y-16680D01*
X29792Y-16678D01*
X29765Y-16667D01*
X29736Y-16661D01*
X29707Y-16661D01*
X29106Y-16661D01*
X29077Y-16667D01*
X29050Y-16678D01*
X29026Y-16694D01*
X29005Y-16715D01*
X28989Y-16739D01*
X28978Y-16766D01*
X28972Y-16795D01*
X28972Y-16807D01*
X27880Y-15716D01*
X27876Y-15711D01*
X27874Y-15710D01*
X27853Y-15691D01*
X27845Y-15685D01*
X27843Y-15683D01*
X27811Y-15666D01*
X27809Y-15665D01*
X27808Y-15664D01*
X27807Y-15664D01*
X27768Y-15652D01*
X27737Y-15648D01*
X27729Y-15648D01*
X27727Y-15648D01*
X27726Y-15648D01*
X23844Y-15648D01*
X23844Y-15113D01*
X23844Y-14129D01*
X23827Y-14042D01*
X23793Y-13961D01*
X23744Y-13887D01*
X23682Y-13825D01*
X23609Y-13775D01*
X23528Y-13741D01*
X23441Y-13723D01*
X23353Y-13723D01*
X23266Y-13739D01*
X23185Y-13772D01*
X23111Y-13821D01*
X23048Y-13882D01*
X22998Y-13955D01*
X22963Y-14036D01*
X22945Y-14122D01*
X22943Y-14211D01*
X22959Y-14298D01*
X22992Y-14380D01*
X23040Y-14454D01*
X23101Y-14517D01*
X23173Y-14568D01*
X23254Y-14603D01*
X23340Y-14622D01*
X23429Y-14624D01*
X23515Y-14609D01*
X23598Y-14577D01*
X23672Y-14529D01*
X23736Y-14469D01*
X23787Y-14396D01*
X23823Y-14316D01*
X23843Y-14230D01*
X23844Y-14129D01*
X23844Y-15113D01*
X23827Y-15026D01*
X23793Y-14945D01*
X23744Y-14871D01*
X23682Y-14809D01*
X23609Y-14759D01*
X23528Y-14725D01*
X23441Y-14707D01*
X23353Y-14707D01*
X23266Y-14723D01*
X23185Y-14756D01*
X23111Y-14805D01*
X23048Y-14866D01*
X22998Y-14939D01*
X22963Y-15020D01*
X22945Y-15106D01*
X22943Y-15195D01*
X22959Y-15282D01*
X22992Y-15364D01*
X23040Y-15438D01*
X23101Y-15501D01*
X23173Y-15552D01*
X23254Y-15587D01*
X23340Y-15606D01*
X23429Y-15608D01*
X23515Y-15593D01*
X23598Y-15561D01*
X23672Y-15513D01*
X23736Y-15453D01*
X23787Y-15380D01*
X23823Y-15300D01*
X23843Y-15214D01*
X23844Y-15113D01*
X23844Y-15648D01*
X22341Y-15648D01*
X22339Y-15648D01*
X22298Y-15652D01*
X22281Y-15657D01*
X22504Y-15444D01*
X22689Y-15182D01*
X22820Y-14889D01*
X22891Y-14576D01*
X22896Y-14210D01*
X22834Y-13895D01*
X22712Y-13599D01*
X22534Y-13331D01*
X22308Y-13104D01*
X22183Y-13020D01*
X36476Y-13020D01*
X36371Y-13089D01*
X36142Y-13313D01*
X35961Y-13578D01*
X35834Y-13873D01*
X35767Y-14186D01*
X35763Y-14507D01*
X35821Y-14823D01*
X35939Y-15121D01*
X36113Y-15391D01*
X36335Y-15622D01*
X36389Y-15660D01*
X36376Y-15660D01*
X36289Y-15676D01*
X36208Y-15709D01*
X36134Y-15758D01*
X36071Y-15819D01*
X36021Y-15892D01*
X35986Y-15973D01*
X35968Y-16059D01*
X35966Y-16148D01*
X35982Y-16235D01*
X36015Y-16317D01*
X36063Y-16391D01*
X36124Y-16454D01*
X36196Y-16505D01*
X36277Y-16540D01*
X36363Y-16559D01*
X36452Y-16561D01*
X36538Y-16546D01*
X36621Y-16514D01*
X36695Y-16466D01*
X36759Y-16406D01*
X36810Y-16333D01*
X36846Y-16253D01*
X36866Y-16167D01*
X36867Y-16066D01*
X36850Y-15979D01*
X36816Y-15899D01*
X36893Y-15933D01*
X37206Y-16002D01*
X37527Y-16009D01*
X37843Y-15953D01*
X38142Y-15837D01*
X38413Y-15666D01*
X38645Y-15444D01*
X38751Y-15293D01*
X38751Y-20925D01*
M02*
