G04 (created by PCBNEW-RS274X (2012-jan-04)-stable) date Sat 31 Mar 2012 05:41:53 PM CEST*
G01*
G70*
G90*
%MOIN*%
G04 Gerber Fmt 3.4, Leading zero omitted, Abs format*
%FSLAX34Y34*%
G04 APERTURE LIST*
%ADD10C,0.008000*%
%ADD11C,0.015000*%
%ADD12C,0.172000*%
%ADD13C,0.078000*%
%ADD14R,0.072000X0.072000*%
%ADD15C,0.072000*%
%ADD16R,0.067000X0.067000*%
%ADD17C,0.067000*%
%ADD18R,0.102000X0.074000*%
%ADD19O,0.102000X0.074000*%
%ADD20O,0.071100X0.059200*%
G04 APERTURE END LIST*
G54D10*
X32626Y-22997D02*
X32626Y-22597D01*
X32473Y-22597D01*
X32435Y-22616D01*
X32416Y-22635D01*
X32397Y-22673D01*
X32397Y-22730D01*
X32416Y-22768D01*
X32435Y-22787D01*
X32473Y-22806D01*
X32626Y-22806D01*
X31997Y-22959D02*
X32016Y-22978D01*
X32073Y-22997D01*
X32111Y-22997D01*
X32169Y-22978D01*
X32207Y-22940D01*
X32226Y-22902D01*
X32245Y-22825D01*
X32245Y-22768D01*
X32226Y-22692D01*
X32207Y-22654D01*
X32169Y-22616D01*
X32111Y-22597D01*
X32073Y-22597D01*
X32016Y-22616D01*
X31997Y-22635D01*
X31692Y-22787D02*
X31635Y-22806D01*
X31616Y-22825D01*
X31597Y-22864D01*
X31597Y-22921D01*
X31616Y-22959D01*
X31635Y-22978D01*
X31673Y-22997D01*
X31826Y-22997D01*
X31826Y-22597D01*
X31692Y-22597D01*
X31654Y-22616D01*
X31635Y-22635D01*
X31616Y-22673D01*
X31616Y-22711D01*
X31635Y-22749D01*
X31654Y-22768D01*
X31692Y-22787D01*
X31826Y-22787D01*
X31426Y-22959D02*
X31407Y-22978D01*
X31426Y-22997D01*
X31445Y-22978D01*
X31426Y-22959D01*
X31426Y-22997D01*
X31426Y-22749D02*
X31407Y-22768D01*
X31426Y-22787D01*
X31445Y-22768D01*
X31426Y-22749D01*
X31426Y-22787D01*
X30950Y-22978D02*
X30893Y-22997D01*
X30797Y-22997D01*
X30759Y-22978D01*
X30740Y-22959D01*
X30721Y-22921D01*
X30721Y-22883D01*
X30740Y-22845D01*
X30759Y-22825D01*
X30797Y-22806D01*
X30874Y-22787D01*
X30912Y-22768D01*
X30931Y-22749D01*
X30950Y-22711D01*
X30950Y-22673D01*
X30931Y-22635D01*
X30912Y-22616D01*
X30874Y-22597D01*
X30778Y-22597D01*
X30721Y-22616D01*
X30397Y-22978D02*
X30435Y-22997D01*
X30512Y-22997D01*
X30550Y-22978D01*
X30569Y-22940D01*
X30569Y-22787D01*
X30550Y-22749D01*
X30512Y-22730D01*
X30435Y-22730D01*
X30397Y-22749D01*
X30378Y-22787D01*
X30378Y-22825D01*
X30569Y-22864D01*
X30054Y-22978D02*
X30092Y-22997D01*
X30169Y-22997D01*
X30207Y-22978D01*
X30226Y-22940D01*
X30226Y-22787D01*
X30207Y-22749D01*
X30169Y-22730D01*
X30092Y-22730D01*
X30054Y-22749D01*
X30035Y-22787D01*
X30035Y-22825D01*
X30226Y-22864D01*
X29711Y-22978D02*
X29749Y-22997D01*
X29826Y-22997D01*
X29864Y-22978D01*
X29883Y-22940D01*
X29883Y-22787D01*
X29864Y-22749D01*
X29826Y-22730D01*
X29749Y-22730D01*
X29711Y-22749D01*
X29692Y-22787D01*
X29692Y-22825D01*
X29883Y-22864D01*
X29349Y-22997D02*
X29349Y-22597D01*
X29349Y-22978D02*
X29387Y-22997D01*
X29464Y-22997D01*
X29502Y-22978D01*
X29521Y-22959D01*
X29540Y-22921D01*
X29540Y-22806D01*
X29521Y-22768D01*
X29502Y-22749D01*
X29464Y-22730D01*
X29387Y-22730D01*
X29349Y-22749D01*
X29178Y-22978D02*
X29121Y-22997D01*
X29025Y-22997D01*
X28987Y-22978D01*
X28968Y-22959D01*
X28949Y-22921D01*
X28949Y-22883D01*
X28968Y-22845D01*
X28987Y-22825D01*
X29025Y-22806D01*
X29102Y-22787D01*
X29140Y-22768D01*
X29159Y-22749D01*
X29178Y-22711D01*
X29178Y-22673D01*
X29159Y-22635D01*
X29140Y-22616D01*
X29102Y-22597D01*
X29006Y-22597D01*
X28949Y-22616D01*
X28835Y-22730D02*
X28683Y-22730D01*
X28778Y-22597D02*
X28778Y-22940D01*
X28759Y-22978D01*
X28721Y-22997D01*
X28683Y-22997D01*
X28377Y-22730D02*
X28377Y-22997D01*
X28549Y-22730D02*
X28549Y-22940D01*
X28530Y-22978D01*
X28492Y-22997D01*
X28434Y-22997D01*
X28396Y-22978D01*
X28377Y-22959D01*
X28015Y-22997D02*
X28015Y-22597D01*
X28015Y-22978D02*
X28053Y-22997D01*
X28130Y-22997D01*
X28168Y-22978D01*
X28187Y-22959D01*
X28206Y-22921D01*
X28206Y-22806D01*
X28187Y-22768D01*
X28168Y-22749D01*
X28130Y-22730D01*
X28053Y-22730D01*
X28015Y-22749D01*
X27825Y-22997D02*
X27825Y-22730D01*
X27825Y-22597D02*
X27844Y-22616D01*
X27825Y-22635D01*
X27806Y-22616D01*
X27825Y-22597D01*
X27825Y-22635D01*
X27578Y-22997D02*
X27616Y-22978D01*
X27635Y-22959D01*
X27654Y-22921D01*
X27654Y-22806D01*
X27635Y-22768D01*
X27616Y-22749D01*
X27578Y-22730D01*
X27520Y-22730D01*
X27482Y-22749D01*
X27463Y-22768D01*
X27444Y-22806D01*
X27444Y-22921D01*
X27463Y-22959D01*
X27482Y-22978D01*
X27520Y-22997D01*
X27578Y-22997D01*
X27273Y-22959D02*
X27254Y-22978D01*
X27273Y-22997D01*
X27292Y-22978D01*
X27273Y-22959D01*
X27273Y-22997D01*
X26911Y-22978D02*
X26949Y-22997D01*
X27026Y-22997D01*
X27064Y-22978D01*
X27083Y-22959D01*
X27102Y-22921D01*
X27102Y-22806D01*
X27083Y-22768D01*
X27064Y-22749D01*
X27026Y-22730D01*
X26949Y-22730D01*
X26911Y-22749D01*
X26683Y-22997D02*
X26721Y-22978D01*
X26740Y-22959D01*
X26759Y-22921D01*
X26759Y-22806D01*
X26740Y-22768D01*
X26721Y-22749D01*
X26683Y-22730D01*
X26625Y-22730D01*
X26587Y-22749D01*
X26568Y-22768D01*
X26549Y-22806D01*
X26549Y-22921D01*
X26568Y-22959D01*
X26587Y-22978D01*
X26625Y-22997D01*
X26683Y-22997D01*
X26378Y-22997D02*
X26378Y-22730D01*
X26378Y-22768D02*
X26359Y-22749D01*
X26321Y-22730D01*
X26263Y-22730D01*
X26225Y-22749D01*
X26206Y-22787D01*
X26206Y-22997D01*
X26206Y-22787D02*
X26187Y-22749D01*
X26149Y-22730D01*
X26092Y-22730D01*
X26054Y-22749D01*
X26035Y-22787D01*
X26035Y-22997D01*
G54D11*
X38976Y-12795D02*
X19684Y-12795D01*
X38976Y-23425D02*
X38976Y-12795D01*
X19684Y-23425D02*
X38976Y-23425D01*
X19684Y-12795D02*
X19684Y-23425D01*
%LPC*%
G54D12*
X21260Y-14370D03*
G54D13*
X37795Y-17610D03*
X37795Y-18610D03*
G54D14*
X29421Y-17110D03*
G54D15*
X30421Y-17110D03*
X29421Y-18110D03*
X30421Y-18110D03*
X29421Y-19110D03*
X30421Y-19110D03*
G54D12*
X37401Y-21850D03*
X37401Y-14370D03*
X21259Y-21850D03*
G54D16*
X20669Y-17110D03*
G54D17*
X20669Y-18110D03*
X20669Y-19110D03*
G54D18*
X23303Y-16610D03*
G54D19*
X23303Y-17610D03*
X23303Y-18610D03*
X23303Y-19610D03*
X26303Y-19610D03*
X26303Y-18610D03*
X26303Y-17610D03*
X26303Y-16610D03*
G54D16*
X27756Y-17110D03*
G54D17*
X27756Y-18110D03*
X27756Y-19110D03*
G54D15*
X27394Y-15157D03*
X23394Y-15157D03*
X27394Y-14173D03*
X23394Y-14173D03*
X32315Y-15157D03*
X28315Y-15157D03*
X30740Y-20472D03*
X26740Y-20472D03*
X32315Y-14173D03*
X28315Y-14173D03*
G54D17*
X22047Y-18610D03*
X22047Y-17610D03*
G54D15*
X36417Y-16110D03*
X36417Y-20110D03*
G54D16*
X31799Y-21850D03*
G54D17*
X30799Y-21850D03*
X32783Y-16338D03*
X31783Y-16338D03*
X31783Y-19882D03*
X32783Y-19882D03*
X24303Y-21653D03*
X25303Y-21653D03*
G54D16*
X34055Y-15610D03*
G54D17*
X34055Y-16610D03*
X34055Y-17610D03*
X34055Y-18610D03*
X34055Y-19610D03*
X34055Y-20610D03*
G54D20*
X32677Y-17610D03*
X32677Y-18610D03*
X32177Y-18110D03*
M02*
