G04 (created by PCBNEW-RS274X (2012-jan-04)-stable) date Sun 25 Mar 2012 02:15:37 PM CEST*
G01*
G70*
G90*
%MOIN*%
G04 Gerber Fmt 3.4, Leading zero omitted, Abs format*
%FSLAX34Y34*%
G04 APERTURE LIST*
%ADD10C,0.008000*%
%ADD11R,0.060000X0.060000*%
%ADD12C,0.060000*%
%ADD13C,0.160000*%
%ADD14R,0.055000X0.055000*%
%ADD15C,0.055000*%
%ADD16R,0.062000X0.090000*%
%ADD17O,0.062000X0.090000*%
%ADD18C,0.012000*%
G04 APERTURE END LIST*
G54D10*
G54D11*
X31783Y-17307D03*
G54D12*
X32783Y-17307D03*
X31783Y-18307D03*
X32783Y-18307D03*
X31783Y-19307D03*
X32783Y-19307D03*
G54D13*
X37401Y-21850D03*
X37401Y-14370D03*
X21259Y-21850D03*
X21259Y-14370D03*
G54D14*
X35432Y-20019D03*
G54D15*
X35432Y-19019D03*
X35432Y-18019D03*
X35432Y-17019D03*
X35432Y-16019D03*
G54D14*
X21259Y-19307D03*
G54D15*
X21259Y-18307D03*
X21259Y-17307D03*
G54D16*
X24484Y-19807D03*
G54D17*
X25484Y-19807D03*
X26484Y-19807D03*
X27484Y-19807D03*
X27484Y-16807D03*
X26484Y-16807D03*
X25484Y-16807D03*
X24484Y-16807D03*
G54D14*
X29724Y-19307D03*
G54D15*
X29724Y-18307D03*
X29724Y-17307D03*
G54D12*
X34055Y-20307D03*
X34055Y-16307D03*
X27590Y-14370D03*
X23590Y-14370D03*
X33102Y-21850D03*
X29102Y-21850D03*
X23590Y-21850D03*
X27590Y-21850D03*
X33102Y-14370D03*
X29102Y-14370D03*
G54D15*
X22834Y-17807D03*
X22834Y-18807D03*
G54D18*
X20801Y-16619D02*
X21263Y-16157D01*
X34539Y-16824D02*
X32300Y-16824D01*
X30817Y-16824D02*
X31300Y-17307D01*
X29560Y-16824D02*
X30817Y-16824D01*
X28864Y-17520D02*
X29560Y-16824D01*
X26097Y-17520D02*
X28864Y-17520D01*
X34539Y-15807D02*
X34539Y-16824D01*
X33102Y-14370D02*
X34539Y-15807D01*
X35237Y-16824D02*
X34539Y-16824D01*
X35432Y-17019D02*
X35237Y-16824D01*
X32266Y-16858D02*
X32266Y-17307D01*
X32300Y-16824D02*
X32266Y-16858D01*
X20801Y-18815D02*
X20801Y-16619D01*
X20835Y-18849D02*
X20801Y-18815D01*
X21259Y-18849D02*
X20835Y-18849D01*
X21259Y-19307D02*
X21259Y-18849D01*
X31783Y-17307D02*
X31300Y-17307D01*
X31783Y-17307D02*
X32266Y-17307D01*
X25984Y-17407D02*
X26097Y-17520D01*
X25984Y-16191D02*
X25984Y-17407D01*
X25950Y-16157D02*
X25984Y-16191D01*
X21263Y-16157D02*
X25950Y-16157D01*
X29132Y-19173D02*
X29266Y-19307D01*
X26118Y-19173D02*
X29132Y-19173D01*
X25977Y-19314D02*
X26118Y-19173D01*
X25977Y-19807D02*
X25977Y-19314D01*
X25484Y-19807D02*
X25977Y-19807D01*
X29724Y-19307D02*
X29266Y-19307D01*
X33071Y-19019D02*
X32783Y-19307D01*
X26991Y-20153D02*
X26991Y-19807D01*
X27484Y-19807D02*
X26991Y-19807D01*
X26477Y-20667D02*
X26991Y-20153D01*
X23753Y-20667D02*
X26477Y-20667D01*
X22834Y-18807D02*
X22834Y-19748D01*
X35432Y-19019D02*
X33071Y-19019D01*
X22834Y-19748D02*
X23753Y-20667D01*
X29724Y-18307D02*
X30224Y-18807D01*
X30224Y-18807D02*
X32283Y-18807D01*
X32283Y-18807D02*
X32783Y-19307D01*
X21259Y-18307D02*
X21759Y-18807D01*
X21759Y-18807D02*
X22834Y-18807D01*
X28477Y-16307D02*
X27977Y-16807D01*
X34055Y-16307D02*
X28477Y-16307D01*
X27484Y-16807D02*
X27977Y-16807D01*
X27590Y-21850D02*
X29102Y-21850D01*
X24484Y-16807D02*
X24977Y-16807D01*
X32299Y-17791D02*
X32783Y-17307D01*
X25468Y-17791D02*
X32299Y-17791D01*
X24977Y-17300D02*
X25468Y-17791D01*
X24977Y-16807D02*
X24977Y-17300D01*
X35432Y-20019D02*
X35432Y-19561D01*
X34029Y-18553D02*
X32783Y-17307D01*
X35856Y-18553D02*
X34029Y-18553D01*
X35890Y-18587D02*
X35856Y-18553D01*
X35890Y-19527D02*
X35890Y-18587D01*
X35856Y-19561D02*
X35890Y-19527D01*
X35432Y-19561D02*
X35856Y-19561D01*
X21759Y-17807D02*
X21259Y-17307D01*
X22834Y-17807D02*
X21759Y-17807D01*
M02*
