G04 (created by PCBNEW-RS274X (2012-jan-04)-stable) date Sat 31 Mar 2012 08:46:18 PM CEST*
G01*
G70*
G90*
%MOIN*%
G04 Gerber Fmt 3.4, Leading zero omitted, Abs format*
%FSLAX34Y34*%
G04 APERTURE LIST*
%ADD10C,0.008000*%
%ADD11C,0.015000*%
%ADD12C,0.160000*%
%ADD13C,0.066000*%
%ADD14R,0.060000X0.060000*%
%ADD15C,0.060000*%
%ADD16R,0.055000X0.055000*%
%ADD17C,0.055000*%
%ADD18R,0.090000X0.062000*%
%ADD19O,0.090000X0.062000*%
%ADD20O,0.059100X0.047200*%
%ADD21C,0.012000*%
%ADD22C,0.010000*%
G04 APERTURE END LIST*
G54D10*
G54D11*
X19685Y-12795D02*
X19685Y-23425D01*
X36024Y-12795D02*
X19685Y-12795D01*
X36024Y-23425D02*
X36024Y-12795D01*
X19685Y-23425D02*
X36024Y-23425D01*
G54D12*
X21260Y-14370D03*
G54D13*
X34390Y-18110D03*
X35390Y-18110D03*
G54D14*
X25803Y-13771D03*
G54D15*
X25803Y-14771D03*
X24803Y-13771D03*
X24803Y-14771D03*
X23803Y-13771D03*
X23803Y-14771D03*
G54D12*
X34449Y-21850D03*
X34449Y-14370D03*
X21259Y-21850D03*
G54D16*
X20669Y-17110D03*
G54D17*
X20669Y-18110D03*
X20669Y-19110D03*
G54D18*
X23303Y-16610D03*
G54D19*
X23303Y-17610D03*
X23303Y-18610D03*
X23303Y-19610D03*
X26303Y-19610D03*
X26303Y-18610D03*
X26303Y-17610D03*
X26303Y-16610D03*
G54D16*
X27756Y-17110D03*
G54D17*
X27756Y-18110D03*
X27756Y-19110D03*
X22047Y-18610D03*
X22047Y-17610D03*
G54D16*
X31898Y-21850D03*
G54D17*
X30898Y-21850D03*
X30618Y-16338D03*
X29618Y-16338D03*
X29618Y-19882D03*
X30618Y-19882D03*
X24303Y-22441D03*
X25303Y-22441D03*
G54D16*
X31890Y-15610D03*
G54D17*
X31890Y-16610D03*
X31890Y-17610D03*
X31890Y-18610D03*
X31890Y-19610D03*
X31890Y-20610D03*
G54D20*
X30315Y-17610D03*
X30315Y-18610D03*
X29815Y-18110D03*
G54D17*
X28256Y-21752D03*
X27256Y-21752D03*
X31890Y-13575D03*
X31890Y-14575D03*
X28445Y-14575D03*
X28445Y-13575D03*
X27362Y-13575D03*
X27362Y-14575D03*
X29528Y-13575D03*
X29528Y-14575D03*
X30709Y-14575D03*
X30709Y-13575D03*
G54D21*
X20669Y-17110D02*
X21087Y-17110D01*
X21087Y-17110D02*
X21198Y-17110D01*
X25803Y-13771D02*
X25360Y-13771D01*
X25360Y-13925D02*
X25360Y-13771D01*
X25020Y-14265D02*
X25360Y-13925D01*
X23580Y-14265D02*
X25020Y-14265D01*
X23273Y-14572D02*
X23580Y-14265D01*
X23273Y-15035D02*
X23273Y-14572D01*
X21198Y-17110D02*
X23273Y-15035D01*
X30382Y-14248D02*
X30709Y-14575D01*
X26312Y-14149D02*
X26246Y-14215D01*
X24803Y-14771D02*
X25359Y-14215D01*
X26246Y-14215D02*
X25359Y-14215D01*
X30382Y-14149D02*
X30382Y-14248D01*
X30382Y-14149D02*
X26312Y-14149D01*
X32228Y-13994D02*
X32340Y-14106D01*
X32340Y-14106D02*
X32340Y-14960D01*
X28992Y-13039D02*
X29528Y-13575D01*
X25535Y-13039D02*
X28992Y-13039D01*
X24803Y-13771D02*
X25535Y-13039D01*
X31406Y-19126D02*
X31890Y-19610D01*
X32340Y-14960D02*
X32241Y-15059D01*
X32241Y-15059D02*
X31679Y-15059D01*
X30516Y-13994D02*
X32228Y-13994D01*
X30097Y-13575D02*
X30516Y-13994D01*
X29528Y-13575D02*
X30097Y-13575D01*
X31679Y-15059D02*
X31406Y-15332D01*
X31406Y-15332D02*
X31406Y-19126D01*
X31890Y-17610D02*
X32768Y-17610D01*
X32776Y-17618D02*
X32776Y-20972D01*
X32768Y-17610D02*
X32776Y-17618D01*
X32776Y-20972D02*
X31898Y-21850D01*
X27291Y-17157D02*
X27338Y-17110D01*
X23303Y-17157D02*
X27291Y-17157D01*
X23303Y-17610D02*
X23303Y-17157D01*
X27756Y-17110D02*
X27338Y-17110D01*
X27709Y-19063D02*
X27756Y-19110D01*
X23303Y-19063D02*
X27709Y-19063D01*
X23303Y-18610D02*
X23303Y-19063D01*
X25303Y-22441D02*
X25303Y-21610D01*
X34842Y-16338D02*
X35390Y-16886D01*
X21547Y-18110D02*
X22047Y-17610D01*
X20669Y-18110D02*
X21547Y-18110D01*
X22638Y-18945D02*
X23303Y-19610D01*
X22638Y-18012D02*
X22638Y-18945D01*
X22236Y-17610D02*
X22638Y-18012D01*
X22047Y-17610D02*
X22236Y-17610D01*
X35390Y-16886D02*
X35390Y-18110D01*
X25303Y-21610D02*
X23303Y-19610D01*
X33858Y-16338D02*
X34842Y-16338D01*
X33130Y-15610D02*
X33858Y-16338D01*
X31890Y-15610D02*
X33130Y-15610D01*
X25327Y-16610D02*
X23303Y-16610D01*
X27362Y-14575D02*
X25327Y-16610D01*
X27256Y-21016D02*
X27256Y-21752D01*
X26303Y-20063D02*
X27256Y-21016D01*
X26303Y-19610D02*
X26303Y-20063D01*
X31137Y-18425D02*
X30476Y-19086D01*
X31890Y-14575D02*
X31603Y-14575D01*
X28364Y-19086D02*
X27888Y-18610D01*
X31137Y-15041D02*
X31137Y-18425D01*
X27888Y-18610D02*
X26303Y-18610D01*
X30476Y-19086D02*
X28364Y-19086D01*
X31603Y-14575D02*
X31137Y-15041D01*
X28445Y-15059D02*
X28445Y-14575D01*
X28121Y-15383D02*
X28445Y-15059D01*
X28702Y-17609D02*
X29703Y-18610D01*
X29703Y-18610D02*
X30315Y-18610D01*
X28702Y-15964D02*
X28702Y-17609D01*
X26303Y-16610D02*
X27264Y-15649D01*
X28121Y-15383D02*
X28702Y-15964D01*
X24303Y-22137D02*
X22047Y-19881D01*
X27855Y-15649D02*
X28121Y-15383D01*
X24303Y-22441D02*
X24303Y-22137D01*
X27264Y-15649D02*
X27855Y-15649D01*
X22047Y-19881D02*
X22047Y-18610D01*
X20669Y-19110D02*
X21547Y-19110D01*
X21547Y-19110D02*
X22047Y-18610D01*
G54D10*
G36*
X30972Y-14911D02*
X30970Y-14914D01*
X30962Y-14924D01*
X30945Y-14956D01*
X30944Y-14958D01*
X30943Y-14958D01*
X30943Y-14960D01*
X30931Y-14999D01*
X30927Y-15030D01*
X30927Y-15038D01*
X30927Y-15040D01*
X30927Y-15041D01*
X30927Y-16046D01*
X30890Y-16009D01*
X30821Y-15962D01*
X30744Y-15930D01*
X30662Y-15913D01*
X30579Y-15913D01*
X30497Y-15928D01*
X30420Y-15960D01*
X30350Y-16005D01*
X30291Y-16064D01*
X30244Y-16133D01*
X30211Y-16209D01*
X30194Y-16291D01*
X30192Y-16374D01*
X30208Y-16456D01*
X30238Y-16534D01*
X30284Y-16604D01*
X30341Y-16663D01*
X30410Y-16711D01*
X30486Y-16744D01*
X30568Y-16762D01*
X30651Y-16764D01*
X30733Y-16749D01*
X30811Y-16719D01*
X30881Y-16674D01*
X30927Y-16631D01*
X30927Y-18338D01*
X30760Y-18504D01*
X30760Y-17650D01*
X30760Y-17575D01*
X30746Y-17501D01*
X30718Y-17431D01*
X30677Y-17368D01*
X30624Y-17314D01*
X30562Y-17272D01*
X30492Y-17242D01*
X30419Y-17226D01*
X30343Y-17226D01*
X30216Y-17226D01*
X30143Y-17240D01*
X30143Y-16310D01*
X30127Y-16208D01*
X30092Y-16112D01*
X30070Y-16071D01*
X29979Y-16048D01*
X29908Y-16119D01*
X29908Y-15977D01*
X29885Y-15886D01*
X29792Y-15843D01*
X29692Y-15818D01*
X29590Y-15813D01*
X29488Y-15829D01*
X29392Y-15864D01*
X29351Y-15886D01*
X29328Y-15977D01*
X29618Y-16267D01*
X29908Y-15977D01*
X29908Y-16119D01*
X29689Y-16338D01*
X29979Y-16628D01*
X30070Y-16605D01*
X30113Y-16512D01*
X30138Y-16412D01*
X30143Y-16310D01*
X30143Y-17240D01*
X30142Y-17241D01*
X30073Y-17269D01*
X30010Y-17311D01*
X29956Y-17364D01*
X29914Y-17427D01*
X29908Y-17441D01*
X29908Y-16699D01*
X29618Y-16409D01*
X29547Y-16480D01*
X29547Y-16338D01*
X29257Y-16048D01*
X29166Y-16071D01*
X29123Y-16164D01*
X29098Y-16264D01*
X29093Y-16366D01*
X29109Y-16468D01*
X29144Y-16564D01*
X29166Y-16605D01*
X29257Y-16628D01*
X29547Y-16338D01*
X29547Y-16480D01*
X29328Y-16699D01*
X29351Y-16790D01*
X29444Y-16833D01*
X29544Y-16858D01*
X29646Y-16863D01*
X29748Y-16847D01*
X29844Y-16812D01*
X29885Y-16790D01*
X29908Y-16699D01*
X29908Y-17441D01*
X29885Y-17496D01*
X29870Y-17570D01*
X29870Y-17645D01*
X29876Y-17678D01*
X29865Y-17687D01*
X29865Y-18060D01*
X30295Y-18060D01*
X30337Y-17994D01*
X30414Y-17994D01*
X30488Y-17979D01*
X30557Y-17951D01*
X30620Y-17909D01*
X30674Y-17856D01*
X30716Y-17793D01*
X30745Y-17724D01*
X30760Y-17650D01*
X30760Y-18504D01*
X30748Y-18516D01*
X30746Y-18501D01*
X30718Y-18431D01*
X30677Y-18368D01*
X30624Y-18314D01*
X30562Y-18272D01*
X30492Y-18242D01*
X30419Y-18226D01*
X30343Y-18226D01*
X30337Y-18226D01*
X30295Y-18160D01*
X29915Y-18160D01*
X29865Y-18160D01*
X29765Y-18160D01*
X29765Y-18060D01*
X29765Y-18010D01*
X29765Y-17687D01*
X29689Y-17630D01*
X29597Y-17652D01*
X29511Y-17692D01*
X29434Y-17748D01*
X29370Y-17817D01*
X29320Y-17898D01*
X29311Y-17921D01*
X28912Y-17522D01*
X28912Y-15966D01*
X28912Y-15964D01*
X28908Y-15925D01*
X28908Y-15923D01*
X28901Y-15901D01*
X28897Y-15886D01*
X28896Y-15884D01*
X28878Y-15850D01*
X28877Y-15848D01*
X28858Y-15824D01*
X28852Y-15817D01*
X28851Y-15816D01*
X28850Y-15815D01*
X28417Y-15383D01*
X28591Y-15209D01*
X28592Y-15209D01*
X28592Y-15208D01*
X28593Y-15208D01*
X28618Y-15178D01*
X28620Y-15176D01*
X28636Y-15144D01*
X28638Y-15142D01*
X28638Y-15141D01*
X28639Y-15140D01*
X28650Y-15103D01*
X28651Y-15101D01*
X28654Y-15070D01*
X28655Y-15062D01*
X28655Y-15060D01*
X28655Y-15059D01*
X28655Y-14945D01*
X28708Y-14911D01*
X28769Y-14854D01*
X28816Y-14786D01*
X28850Y-14709D01*
X28869Y-14628D01*
X28870Y-14533D01*
X28854Y-14451D01*
X28822Y-14374D01*
X28812Y-14359D01*
X29161Y-14359D01*
X29154Y-14370D01*
X29121Y-14446D01*
X29104Y-14528D01*
X29102Y-14611D01*
X29118Y-14693D01*
X29148Y-14771D01*
X29194Y-14841D01*
X29251Y-14900D01*
X29320Y-14948D01*
X29396Y-14981D01*
X29478Y-14999D01*
X29561Y-15001D01*
X29643Y-14986D01*
X29721Y-14956D01*
X29791Y-14911D01*
X29852Y-14854D01*
X29899Y-14786D01*
X29933Y-14709D01*
X29952Y-14628D01*
X29953Y-14533D01*
X29937Y-14451D01*
X29905Y-14374D01*
X29895Y-14359D01*
X30204Y-14359D01*
X30206Y-14362D01*
X30207Y-14364D01*
X30221Y-14382D01*
X30231Y-14394D01*
X30233Y-14396D01*
X30234Y-14396D01*
X30238Y-14400D01*
X30298Y-14461D01*
X30285Y-14528D01*
X30283Y-14611D01*
X30299Y-14693D01*
X30329Y-14771D01*
X30375Y-14841D01*
X30432Y-14900D01*
X30501Y-14948D01*
X30577Y-14981D01*
X30659Y-14999D01*
X30742Y-15001D01*
X30824Y-14986D01*
X30902Y-14956D01*
X30972Y-14911D01*
X30972Y-14911D01*
G37*
G54D22*
X30972Y-14911D02*
X30970Y-14914D01*
X30962Y-14924D01*
X30945Y-14956D01*
X30944Y-14958D01*
X30943Y-14958D01*
X30943Y-14960D01*
X30931Y-14999D01*
X30927Y-15030D01*
X30927Y-15038D01*
X30927Y-15040D01*
X30927Y-15041D01*
X30927Y-16046D01*
X30890Y-16009D01*
X30821Y-15962D01*
X30744Y-15930D01*
X30662Y-15913D01*
X30579Y-15913D01*
X30497Y-15928D01*
X30420Y-15960D01*
X30350Y-16005D01*
X30291Y-16064D01*
X30244Y-16133D01*
X30211Y-16209D01*
X30194Y-16291D01*
X30192Y-16374D01*
X30208Y-16456D01*
X30238Y-16534D01*
X30284Y-16604D01*
X30341Y-16663D01*
X30410Y-16711D01*
X30486Y-16744D01*
X30568Y-16762D01*
X30651Y-16764D01*
X30733Y-16749D01*
X30811Y-16719D01*
X30881Y-16674D01*
X30927Y-16631D01*
X30927Y-18338D01*
X30760Y-18504D01*
X30760Y-17650D01*
X30760Y-17575D01*
X30746Y-17501D01*
X30718Y-17431D01*
X30677Y-17368D01*
X30624Y-17314D01*
X30562Y-17272D01*
X30492Y-17242D01*
X30419Y-17226D01*
X30343Y-17226D01*
X30216Y-17226D01*
X30143Y-17240D01*
X30143Y-16310D01*
X30127Y-16208D01*
X30092Y-16112D01*
X30070Y-16071D01*
X29979Y-16048D01*
X29908Y-16119D01*
X29908Y-15977D01*
X29885Y-15886D01*
X29792Y-15843D01*
X29692Y-15818D01*
X29590Y-15813D01*
X29488Y-15829D01*
X29392Y-15864D01*
X29351Y-15886D01*
X29328Y-15977D01*
X29618Y-16267D01*
X29908Y-15977D01*
X29908Y-16119D01*
X29689Y-16338D01*
X29979Y-16628D01*
X30070Y-16605D01*
X30113Y-16512D01*
X30138Y-16412D01*
X30143Y-16310D01*
X30143Y-17240D01*
X30142Y-17241D01*
X30073Y-17269D01*
X30010Y-17311D01*
X29956Y-17364D01*
X29914Y-17427D01*
X29908Y-17441D01*
X29908Y-16699D01*
X29618Y-16409D01*
X29547Y-16480D01*
X29547Y-16338D01*
X29257Y-16048D01*
X29166Y-16071D01*
X29123Y-16164D01*
X29098Y-16264D01*
X29093Y-16366D01*
X29109Y-16468D01*
X29144Y-16564D01*
X29166Y-16605D01*
X29257Y-16628D01*
X29547Y-16338D01*
X29547Y-16480D01*
X29328Y-16699D01*
X29351Y-16790D01*
X29444Y-16833D01*
X29544Y-16858D01*
X29646Y-16863D01*
X29748Y-16847D01*
X29844Y-16812D01*
X29885Y-16790D01*
X29908Y-16699D01*
X29908Y-17441D01*
X29885Y-17496D01*
X29870Y-17570D01*
X29870Y-17645D01*
X29876Y-17678D01*
X29865Y-17687D01*
X29865Y-18060D01*
X30295Y-18060D01*
X30337Y-17994D01*
X30414Y-17994D01*
X30488Y-17979D01*
X30557Y-17951D01*
X30620Y-17909D01*
X30674Y-17856D01*
X30716Y-17793D01*
X30745Y-17724D01*
X30760Y-17650D01*
X30760Y-18504D01*
X30748Y-18516D01*
X30746Y-18501D01*
X30718Y-18431D01*
X30677Y-18368D01*
X30624Y-18314D01*
X30562Y-18272D01*
X30492Y-18242D01*
X30419Y-18226D01*
X30343Y-18226D01*
X30337Y-18226D01*
X30295Y-18160D01*
X29915Y-18160D01*
X29865Y-18160D01*
X29765Y-18160D01*
X29765Y-18060D01*
X29765Y-18010D01*
X29765Y-17687D01*
X29689Y-17630D01*
X29597Y-17652D01*
X29511Y-17692D01*
X29434Y-17748D01*
X29370Y-17817D01*
X29320Y-17898D01*
X29311Y-17921D01*
X28912Y-17522D01*
X28912Y-15966D01*
X28912Y-15964D01*
X28908Y-15925D01*
X28908Y-15923D01*
X28901Y-15901D01*
X28897Y-15886D01*
X28896Y-15884D01*
X28878Y-15850D01*
X28877Y-15848D01*
X28858Y-15824D01*
X28852Y-15817D01*
X28851Y-15816D01*
X28850Y-15815D01*
X28417Y-15383D01*
X28591Y-15209D01*
X28592Y-15209D01*
X28592Y-15208D01*
X28593Y-15208D01*
X28618Y-15178D01*
X28620Y-15176D01*
X28636Y-15144D01*
X28638Y-15142D01*
X28638Y-15141D01*
X28639Y-15140D01*
X28650Y-15103D01*
X28651Y-15101D01*
X28654Y-15070D01*
X28655Y-15062D01*
X28655Y-15060D01*
X28655Y-15059D01*
X28655Y-14945D01*
X28708Y-14911D01*
X28769Y-14854D01*
X28816Y-14786D01*
X28850Y-14709D01*
X28869Y-14628D01*
X28870Y-14533D01*
X28854Y-14451D01*
X28822Y-14374D01*
X28812Y-14359D01*
X29161Y-14359D01*
X29154Y-14370D01*
X29121Y-14446D01*
X29104Y-14528D01*
X29102Y-14611D01*
X29118Y-14693D01*
X29148Y-14771D01*
X29194Y-14841D01*
X29251Y-14900D01*
X29320Y-14948D01*
X29396Y-14981D01*
X29478Y-14999D01*
X29561Y-15001D01*
X29643Y-14986D01*
X29721Y-14956D01*
X29791Y-14911D01*
X29852Y-14854D01*
X29899Y-14786D01*
X29933Y-14709D01*
X29952Y-14628D01*
X29953Y-14533D01*
X29937Y-14451D01*
X29905Y-14374D01*
X29895Y-14359D01*
X30204Y-14359D01*
X30206Y-14362D01*
X30207Y-14364D01*
X30221Y-14382D01*
X30231Y-14394D01*
X30233Y-14396D01*
X30234Y-14396D01*
X30238Y-14400D01*
X30298Y-14461D01*
X30285Y-14528D01*
X30283Y-14611D01*
X30299Y-14693D01*
X30329Y-14771D01*
X30375Y-14841D01*
X30432Y-14900D01*
X30501Y-14948D01*
X30577Y-14981D01*
X30659Y-14999D01*
X30742Y-15001D01*
X30824Y-14986D01*
X30902Y-14956D01*
X30972Y-14911D01*
G54D10*
G36*
X35799Y-20925D02*
X35723Y-20811D01*
X35719Y-20806D01*
X35497Y-20584D01*
X35231Y-20404D01*
X34935Y-20280D01*
X34621Y-20215D01*
X34300Y-20213D01*
X33985Y-20273D01*
X33688Y-20393D01*
X33419Y-20569D01*
X33190Y-20793D01*
X33009Y-21058D01*
X32882Y-21353D01*
X32815Y-21666D01*
X32811Y-21987D01*
X32869Y-22303D01*
X32987Y-22601D01*
X33161Y-22871D01*
X33383Y-23102D01*
X33524Y-23200D01*
X31323Y-23200D01*
X31323Y-21808D01*
X31307Y-21726D01*
X31275Y-21649D01*
X31229Y-21580D01*
X31170Y-21521D01*
X31143Y-21502D01*
X31143Y-19854D01*
X31127Y-19752D01*
X31092Y-19656D01*
X31070Y-19615D01*
X30979Y-19592D01*
X30908Y-19663D01*
X30908Y-19521D01*
X30885Y-19430D01*
X30792Y-19387D01*
X30692Y-19362D01*
X30590Y-19357D01*
X30488Y-19373D01*
X30392Y-19408D01*
X30351Y-19430D01*
X30328Y-19521D01*
X30618Y-19811D01*
X30908Y-19521D01*
X30908Y-19663D01*
X30689Y-19882D01*
X30979Y-20172D01*
X31070Y-20149D01*
X31113Y-20056D01*
X31138Y-19956D01*
X31143Y-19854D01*
X31143Y-21502D01*
X31101Y-21474D01*
X31024Y-21442D01*
X30942Y-21425D01*
X30908Y-21425D01*
X30908Y-20243D01*
X30618Y-19953D01*
X30547Y-20024D01*
X30547Y-19882D01*
X30257Y-19592D01*
X30166Y-19615D01*
X30123Y-19708D01*
X30098Y-19808D01*
X30093Y-19910D01*
X30109Y-20012D01*
X30144Y-20108D01*
X30166Y-20149D01*
X30257Y-20172D01*
X30547Y-19882D01*
X30547Y-20024D01*
X30328Y-20243D01*
X30351Y-20334D01*
X30444Y-20377D01*
X30544Y-20402D01*
X30646Y-20407D01*
X30748Y-20391D01*
X30844Y-20356D01*
X30885Y-20334D01*
X30908Y-20243D01*
X30908Y-21425D01*
X30859Y-21425D01*
X30777Y-21440D01*
X30700Y-21472D01*
X30630Y-21517D01*
X30571Y-21576D01*
X30524Y-21645D01*
X30491Y-21721D01*
X30474Y-21803D01*
X30472Y-21886D01*
X30488Y-21968D01*
X30518Y-22046D01*
X30564Y-22116D01*
X30621Y-22175D01*
X30690Y-22223D01*
X30766Y-22256D01*
X30848Y-22274D01*
X30931Y-22276D01*
X31013Y-22261D01*
X31091Y-22231D01*
X31161Y-22186D01*
X31222Y-22129D01*
X31269Y-22061D01*
X31303Y-21984D01*
X31322Y-21903D01*
X31323Y-21808D01*
X31323Y-23200D01*
X30043Y-23200D01*
X30043Y-19840D01*
X30027Y-19758D01*
X29995Y-19681D01*
X29949Y-19612D01*
X29890Y-19553D01*
X29821Y-19506D01*
X29744Y-19474D01*
X29662Y-19457D01*
X29579Y-19457D01*
X29497Y-19472D01*
X29420Y-19504D01*
X29350Y-19549D01*
X29291Y-19608D01*
X29244Y-19677D01*
X29211Y-19753D01*
X29194Y-19835D01*
X29192Y-19918D01*
X29208Y-20000D01*
X29238Y-20078D01*
X29284Y-20148D01*
X29341Y-20207D01*
X29410Y-20255D01*
X29486Y-20288D01*
X29568Y-20306D01*
X29651Y-20308D01*
X29733Y-20293D01*
X29811Y-20263D01*
X29881Y-20218D01*
X29942Y-20161D01*
X29989Y-20093D01*
X30023Y-20016D01*
X30042Y-19935D01*
X30043Y-19840D01*
X30043Y-23200D01*
X28681Y-23200D01*
X28681Y-21710D01*
X28665Y-21628D01*
X28633Y-21551D01*
X28587Y-21482D01*
X28528Y-21423D01*
X28459Y-21376D01*
X28382Y-21344D01*
X28300Y-21327D01*
X28217Y-21327D01*
X28135Y-21342D01*
X28058Y-21374D01*
X27988Y-21419D01*
X27929Y-21478D01*
X27882Y-21547D01*
X27849Y-21623D01*
X27832Y-21705D01*
X27830Y-21788D01*
X27846Y-21870D01*
X27876Y-21948D01*
X27922Y-22018D01*
X27979Y-22077D01*
X28048Y-22125D01*
X28124Y-22158D01*
X28206Y-22176D01*
X28289Y-22178D01*
X28371Y-22163D01*
X28449Y-22133D01*
X28519Y-22088D01*
X28580Y-22031D01*
X28627Y-21963D01*
X28661Y-21886D01*
X28680Y-21805D01*
X28681Y-21710D01*
X28681Y-23200D01*
X25828Y-23200D01*
X25828Y-22413D01*
X25812Y-22311D01*
X25777Y-22215D01*
X25755Y-22174D01*
X25664Y-22151D01*
X25593Y-22222D01*
X25593Y-22080D01*
X25570Y-21989D01*
X25477Y-21946D01*
X25377Y-21921D01*
X25275Y-21916D01*
X25173Y-21932D01*
X25077Y-21967D01*
X25036Y-21989D01*
X25013Y-22080D01*
X25303Y-22370D01*
X25593Y-22080D01*
X25593Y-22222D01*
X25374Y-22441D01*
X25664Y-22731D01*
X25755Y-22708D01*
X25798Y-22615D01*
X25823Y-22515D01*
X25828Y-22413D01*
X25828Y-23200D01*
X25593Y-23200D01*
X25593Y-22802D01*
X25303Y-22512D01*
X25232Y-22583D01*
X25232Y-22441D01*
X24942Y-22151D01*
X24851Y-22174D01*
X24808Y-22267D01*
X24783Y-22367D01*
X24778Y-22469D01*
X24794Y-22571D01*
X24829Y-22667D01*
X24851Y-22708D01*
X24942Y-22731D01*
X25232Y-22441D01*
X25232Y-22583D01*
X25013Y-22802D01*
X25036Y-22893D01*
X25129Y-22936D01*
X25229Y-22961D01*
X25331Y-22966D01*
X25433Y-22950D01*
X25529Y-22915D01*
X25570Y-22893D01*
X25593Y-22802D01*
X25593Y-23200D01*
X24728Y-23200D01*
X24728Y-22399D01*
X24712Y-22317D01*
X24680Y-22240D01*
X24634Y-22171D01*
X24575Y-22112D01*
X24506Y-22065D01*
X24498Y-22062D01*
X24498Y-22061D01*
X24498Y-22059D01*
X24497Y-22057D01*
X24479Y-22023D01*
X24478Y-22021D01*
X24459Y-21997D01*
X24453Y-21990D01*
X24452Y-21989D01*
X24451Y-21988D01*
X23985Y-21522D01*
X23985Y-19747D01*
X23938Y-19660D01*
X23353Y-19660D01*
X23353Y-20170D01*
X23463Y-20170D01*
X23571Y-20155D01*
X23674Y-20120D01*
X23769Y-20065D01*
X23851Y-19993D01*
X23918Y-19906D01*
X23966Y-19808D01*
X23985Y-19747D01*
X23985Y-21522D01*
X23253Y-20790D01*
X23253Y-20170D01*
X23253Y-19660D01*
X22668Y-19660D01*
X22621Y-19747D01*
X22640Y-19808D01*
X22688Y-19906D01*
X22755Y-19993D01*
X22837Y-20065D01*
X22932Y-20120D01*
X23035Y-20155D01*
X23143Y-20170D01*
X23253Y-20170D01*
X23253Y-20790D01*
X22572Y-20109D01*
X22572Y-17582D01*
X22556Y-17480D01*
X22521Y-17384D01*
X22499Y-17343D01*
X22408Y-17320D01*
X22337Y-17391D01*
X22337Y-17249D01*
X22314Y-17158D01*
X22221Y-17115D01*
X22121Y-17090D01*
X22019Y-17085D01*
X21917Y-17101D01*
X21821Y-17136D01*
X21780Y-17158D01*
X21757Y-17249D01*
X22047Y-17539D01*
X22337Y-17249D01*
X22337Y-17391D01*
X22118Y-17610D01*
X22408Y-17900D01*
X22499Y-17877D01*
X22542Y-17784D01*
X22567Y-17684D01*
X22572Y-17582D01*
X22572Y-20109D01*
X22257Y-19794D01*
X22257Y-18980D01*
X22310Y-18946D01*
X22371Y-18889D01*
X22418Y-18821D01*
X22452Y-18744D01*
X22471Y-18663D01*
X22472Y-18568D01*
X22456Y-18486D01*
X22424Y-18409D01*
X22378Y-18340D01*
X22337Y-18299D01*
X22337Y-17971D01*
X22047Y-17681D01*
X21976Y-17752D01*
X21976Y-17610D01*
X21686Y-17320D01*
X21595Y-17343D01*
X21552Y-17436D01*
X21527Y-17536D01*
X21522Y-17638D01*
X21538Y-17740D01*
X21573Y-17836D01*
X21595Y-17877D01*
X21686Y-17900D01*
X21976Y-17610D01*
X21976Y-17752D01*
X21757Y-17971D01*
X21780Y-18062D01*
X21873Y-18105D01*
X21973Y-18130D01*
X22075Y-18135D01*
X22177Y-18119D01*
X22273Y-18084D01*
X22314Y-18062D01*
X22337Y-17971D01*
X22337Y-18299D01*
X22319Y-18281D01*
X22250Y-18234D01*
X22173Y-18202D01*
X22091Y-18185D01*
X22008Y-18185D01*
X21926Y-18200D01*
X21849Y-18232D01*
X21779Y-18277D01*
X21720Y-18336D01*
X21673Y-18405D01*
X21640Y-18481D01*
X21623Y-18563D01*
X21621Y-18646D01*
X21636Y-18724D01*
X21460Y-18900D01*
X21194Y-18900D01*
X21194Y-18082D01*
X21178Y-17980D01*
X21143Y-17884D01*
X21121Y-17843D01*
X21030Y-17820D01*
X20959Y-17891D01*
X20959Y-17749D01*
X20936Y-17658D01*
X20843Y-17615D01*
X20743Y-17590D01*
X20641Y-17585D01*
X20539Y-17601D01*
X20443Y-17636D01*
X20402Y-17658D01*
X20379Y-17749D01*
X20669Y-18039D01*
X20959Y-17749D01*
X20959Y-17891D01*
X20740Y-18110D01*
X21030Y-18400D01*
X21121Y-18377D01*
X21164Y-18284D01*
X21189Y-18184D01*
X21194Y-18082D01*
X21194Y-18900D01*
X21040Y-18900D01*
X21000Y-18840D01*
X20959Y-18799D01*
X20959Y-18471D01*
X20669Y-18181D01*
X20598Y-18252D01*
X20598Y-18110D01*
X20308Y-17820D01*
X20217Y-17843D01*
X20174Y-17936D01*
X20149Y-18036D01*
X20144Y-18138D01*
X20160Y-18240D01*
X20195Y-18336D01*
X20217Y-18377D01*
X20308Y-18400D01*
X20598Y-18110D01*
X20598Y-18252D01*
X20379Y-18471D01*
X20402Y-18562D01*
X20495Y-18605D01*
X20595Y-18630D01*
X20697Y-18635D01*
X20799Y-18619D01*
X20895Y-18584D01*
X20936Y-18562D01*
X20959Y-18471D01*
X20959Y-18799D01*
X20941Y-18781D01*
X20872Y-18734D01*
X20795Y-18702D01*
X20713Y-18685D01*
X20630Y-18685D01*
X20548Y-18700D01*
X20471Y-18732D01*
X20401Y-18777D01*
X20342Y-18836D01*
X20295Y-18905D01*
X20262Y-18981D01*
X20245Y-19063D01*
X20243Y-19146D01*
X20259Y-19228D01*
X20289Y-19306D01*
X20335Y-19376D01*
X20392Y-19435D01*
X20461Y-19483D01*
X20537Y-19516D01*
X20619Y-19534D01*
X20702Y-19536D01*
X20784Y-19521D01*
X20862Y-19491D01*
X20932Y-19446D01*
X20993Y-19389D01*
X21040Y-19321D01*
X21040Y-19320D01*
X21545Y-19320D01*
X21547Y-19320D01*
X21585Y-19316D01*
X21588Y-19316D01*
X21613Y-19308D01*
X21625Y-19305D01*
X21626Y-19304D01*
X21627Y-19304D01*
X21661Y-19286D01*
X21663Y-19285D01*
X21681Y-19270D01*
X21693Y-19261D01*
X21693Y-19260D01*
X21695Y-19259D01*
X21695Y-19258D01*
X21699Y-19253D01*
X21837Y-19116D01*
X21837Y-19879D01*
X21837Y-19881D01*
X21841Y-19922D01*
X21848Y-19947D01*
X21852Y-19959D01*
X21852Y-19960D01*
X21853Y-19961D01*
X21871Y-19995D01*
X21872Y-19997D01*
X21886Y-20015D01*
X21896Y-20027D01*
X21898Y-20029D01*
X21899Y-20029D01*
X21903Y-20033D01*
X24006Y-22136D01*
X23976Y-22167D01*
X23929Y-22236D01*
X23896Y-22312D01*
X23879Y-22394D01*
X23877Y-22477D01*
X23893Y-22559D01*
X23923Y-22637D01*
X23969Y-22707D01*
X24026Y-22766D01*
X24095Y-22814D01*
X24171Y-22847D01*
X24253Y-22865D01*
X24336Y-22867D01*
X24418Y-22852D01*
X24496Y-22822D01*
X24566Y-22777D01*
X24627Y-22720D01*
X24674Y-22652D01*
X24708Y-22575D01*
X24727Y-22494D01*
X24728Y-22399D01*
X24728Y-23200D01*
X22185Y-23200D01*
X22271Y-23146D01*
X22503Y-22924D01*
X22688Y-22662D01*
X22819Y-22369D01*
X22890Y-22056D01*
X22895Y-21690D01*
X22833Y-21375D01*
X22711Y-21079D01*
X22533Y-20811D01*
X22307Y-20584D01*
X22041Y-20404D01*
X21745Y-20280D01*
X21431Y-20215D01*
X21110Y-20213D01*
X20795Y-20273D01*
X20498Y-20393D01*
X20229Y-20569D01*
X20000Y-20793D01*
X19910Y-20924D01*
X19910Y-15294D01*
X19972Y-15391D01*
X20194Y-15622D01*
X20458Y-15805D01*
X20752Y-15933D01*
X21065Y-16002D01*
X21386Y-16009D01*
X21702Y-15953D01*
X22001Y-15837D01*
X22272Y-15666D01*
X22504Y-15444D01*
X22689Y-15182D01*
X22820Y-14889D01*
X22891Y-14576D01*
X22896Y-14210D01*
X22834Y-13895D01*
X22712Y-13599D01*
X22534Y-13331D01*
X22308Y-13104D01*
X22183Y-13020D01*
X25257Y-13020D01*
X24938Y-13339D01*
X24937Y-13339D01*
X24850Y-13321D01*
X24762Y-13321D01*
X24675Y-13337D01*
X24594Y-13370D01*
X24520Y-13419D01*
X24457Y-13480D01*
X24407Y-13553D01*
X24372Y-13634D01*
X24354Y-13720D01*
X24352Y-13809D01*
X24368Y-13896D01*
X24401Y-13978D01*
X24449Y-14052D01*
X24451Y-14055D01*
X24153Y-14055D01*
X24196Y-13994D01*
X24232Y-13914D01*
X24252Y-13828D01*
X24253Y-13727D01*
X24236Y-13640D01*
X24202Y-13559D01*
X24153Y-13485D01*
X24091Y-13423D01*
X24018Y-13373D01*
X23937Y-13339D01*
X23850Y-13321D01*
X23762Y-13321D01*
X23675Y-13337D01*
X23594Y-13370D01*
X23520Y-13419D01*
X23457Y-13480D01*
X23407Y-13553D01*
X23372Y-13634D01*
X23354Y-13720D01*
X23352Y-13809D01*
X23368Y-13896D01*
X23401Y-13978D01*
X23449Y-14052D01*
X23478Y-14082D01*
X23464Y-14090D01*
X23432Y-14116D01*
X23431Y-14116D01*
X23431Y-14117D01*
X23131Y-14417D01*
X23126Y-14422D01*
X23106Y-14445D01*
X23098Y-14455D01*
X23081Y-14487D01*
X23080Y-14489D01*
X23079Y-14489D01*
X23079Y-14491D01*
X23067Y-14530D01*
X23063Y-14561D01*
X23063Y-14569D01*
X23063Y-14571D01*
X23063Y-14572D01*
X23063Y-14948D01*
X21111Y-16900D01*
X21093Y-16900D01*
X21093Y-16820D01*
X21087Y-16791D01*
X21076Y-16764D01*
X21060Y-16740D01*
X21039Y-16719D01*
X21015Y-16703D01*
X20988Y-16692D01*
X20959Y-16686D01*
X20930Y-16686D01*
X20379Y-16686D01*
X20350Y-16692D01*
X20323Y-16703D01*
X20299Y-16719D01*
X20278Y-16740D01*
X20262Y-16764D01*
X20251Y-16791D01*
X20245Y-16820D01*
X20245Y-16849D01*
X20245Y-17400D01*
X20251Y-17429D01*
X20262Y-17456D01*
X20278Y-17480D01*
X20299Y-17501D01*
X20323Y-17517D01*
X20350Y-17528D01*
X20379Y-17534D01*
X20408Y-17534D01*
X20959Y-17534D01*
X20988Y-17528D01*
X21015Y-17517D01*
X21039Y-17501D01*
X21060Y-17480D01*
X21076Y-17456D01*
X21087Y-17429D01*
X21093Y-17400D01*
X21093Y-17371D01*
X21093Y-17320D01*
X21196Y-17320D01*
X21198Y-17320D01*
X21236Y-17316D01*
X21239Y-17316D01*
X21264Y-17308D01*
X21276Y-17305D01*
X21277Y-17304D01*
X21278Y-17304D01*
X21312Y-17286D01*
X21314Y-17285D01*
X21332Y-17270D01*
X21344Y-17261D01*
X21344Y-17260D01*
X21346Y-17259D01*
X21346Y-17258D01*
X21350Y-17253D01*
X23419Y-15185D01*
X23420Y-15185D01*
X23420Y-15184D01*
X23421Y-15184D01*
X23426Y-15177D01*
X23426Y-15175D01*
X23483Y-15232D01*
X23510Y-15204D01*
X23522Y-15243D01*
X23619Y-15289D01*
X23723Y-15315D01*
X23830Y-15320D01*
X23936Y-15304D01*
X24037Y-15268D01*
X24084Y-15243D01*
X24111Y-15149D01*
X23838Y-14877D01*
X23803Y-14842D01*
X23732Y-14771D01*
X23803Y-14700D01*
X23874Y-14771D01*
X23909Y-14806D01*
X24181Y-15079D01*
X24275Y-15052D01*
X24321Y-14955D01*
X24347Y-14851D01*
X24352Y-14744D01*
X24336Y-14638D01*
X24300Y-14537D01*
X24275Y-14490D01*
X24236Y-14478D01*
X24240Y-14475D01*
X24462Y-14475D01*
X24457Y-14480D01*
X24407Y-14553D01*
X24372Y-14634D01*
X24354Y-14720D01*
X24352Y-14809D01*
X24368Y-14896D01*
X24401Y-14978D01*
X24449Y-15052D01*
X24510Y-15115D01*
X24582Y-15166D01*
X24663Y-15201D01*
X24749Y-15220D01*
X24838Y-15222D01*
X24924Y-15207D01*
X25007Y-15175D01*
X25081Y-15127D01*
X25145Y-15067D01*
X25196Y-14994D01*
X25232Y-14914D01*
X25252Y-14828D01*
X25253Y-14727D01*
X25236Y-14640D01*
X25234Y-14636D01*
X25445Y-14425D01*
X25513Y-14425D01*
X25457Y-14480D01*
X25407Y-14553D01*
X25372Y-14634D01*
X25354Y-14720D01*
X25352Y-14809D01*
X25368Y-14896D01*
X25401Y-14978D01*
X25449Y-15052D01*
X25510Y-15115D01*
X25582Y-15166D01*
X25663Y-15201D01*
X25749Y-15220D01*
X25838Y-15222D01*
X25924Y-15207D01*
X26007Y-15175D01*
X26081Y-15127D01*
X26145Y-15067D01*
X26196Y-14994D01*
X26232Y-14914D01*
X26252Y-14828D01*
X26253Y-14727D01*
X26236Y-14640D01*
X26202Y-14559D01*
X26153Y-14485D01*
X26093Y-14425D01*
X26244Y-14425D01*
X26246Y-14425D01*
X26284Y-14421D01*
X26287Y-14421D01*
X26312Y-14413D01*
X26324Y-14410D01*
X26325Y-14409D01*
X26326Y-14409D01*
X26360Y-14391D01*
X26362Y-14390D01*
X26380Y-14375D01*
X26392Y-14366D01*
X26392Y-14365D01*
X26394Y-14364D01*
X26394Y-14363D01*
X26398Y-14359D01*
X26995Y-14359D01*
X26988Y-14370D01*
X26955Y-14446D01*
X26938Y-14528D01*
X26936Y-14611D01*
X26951Y-14688D01*
X25240Y-16400D01*
X24111Y-16400D01*
X23902Y-16400D01*
X23902Y-16285D01*
X23896Y-16256D01*
X23885Y-16229D01*
X23869Y-16205D01*
X23848Y-16184D01*
X23824Y-16168D01*
X23797Y-16157D01*
X23768Y-16151D01*
X23739Y-16151D01*
X22838Y-16151D01*
X22809Y-16157D01*
X22782Y-16168D01*
X22758Y-16184D01*
X22737Y-16205D01*
X22721Y-16229D01*
X22710Y-16256D01*
X22704Y-16285D01*
X22704Y-16314D01*
X22704Y-16935D01*
X22710Y-16964D01*
X22721Y-16991D01*
X22737Y-17015D01*
X22758Y-17036D01*
X22782Y-17052D01*
X22809Y-17063D01*
X22838Y-17069D01*
X22867Y-17069D01*
X23112Y-17069D01*
X23110Y-17074D01*
X23109Y-17074D01*
X23109Y-17076D01*
X23097Y-17115D01*
X23093Y-17146D01*
X23093Y-17154D01*
X23093Y-17156D01*
X23028Y-17169D01*
X22945Y-17204D01*
X22870Y-17253D01*
X22806Y-17317D01*
X22756Y-17391D01*
X22721Y-17474D01*
X22703Y-17562D01*
X22703Y-17652D01*
X22720Y-17740D01*
X22753Y-17823D01*
X22802Y-17898D01*
X22865Y-17963D01*
X22939Y-18013D01*
X23022Y-18049D01*
X23110Y-18067D01*
X23200Y-18069D01*
X23490Y-18068D01*
X23578Y-18051D01*
X23661Y-18016D01*
X23736Y-17967D01*
X23800Y-17903D01*
X23850Y-17829D01*
X23885Y-17746D01*
X23903Y-17658D01*
X23903Y-17568D01*
X23886Y-17480D01*
X23853Y-17397D01*
X23833Y-17367D01*
X25772Y-17367D01*
X25756Y-17391D01*
X25721Y-17474D01*
X25703Y-17562D01*
X25703Y-17652D01*
X25720Y-17740D01*
X25753Y-17823D01*
X25802Y-17898D01*
X25865Y-17963D01*
X25939Y-18013D01*
X26022Y-18049D01*
X26110Y-18067D01*
X26200Y-18069D01*
X26490Y-18068D01*
X26578Y-18051D01*
X26661Y-18016D01*
X26736Y-17967D01*
X26800Y-17903D01*
X26850Y-17829D01*
X26885Y-17746D01*
X26903Y-17658D01*
X26903Y-17568D01*
X26886Y-17480D01*
X26853Y-17397D01*
X26833Y-17367D01*
X27289Y-17367D01*
X27291Y-17367D01*
X27329Y-17363D01*
X27332Y-17363D01*
X27332Y-17400D01*
X27338Y-17429D01*
X27349Y-17456D01*
X27365Y-17480D01*
X27386Y-17501D01*
X27410Y-17517D01*
X27437Y-17528D01*
X27466Y-17534D01*
X27495Y-17534D01*
X28046Y-17534D01*
X28075Y-17528D01*
X28102Y-17517D01*
X28126Y-17501D01*
X28147Y-17480D01*
X28163Y-17456D01*
X28174Y-17429D01*
X28180Y-17400D01*
X28180Y-17371D01*
X28180Y-16820D01*
X28174Y-16791D01*
X28163Y-16764D01*
X28147Y-16740D01*
X28126Y-16719D01*
X28102Y-16703D01*
X28075Y-16692D01*
X28046Y-16686D01*
X28017Y-16686D01*
X27466Y-16686D01*
X27437Y-16692D01*
X27410Y-16703D01*
X27386Y-16719D01*
X27365Y-16740D01*
X27349Y-16764D01*
X27338Y-16791D01*
X27332Y-16820D01*
X27332Y-16849D01*
X27332Y-16900D01*
X27297Y-16904D01*
X27275Y-16910D01*
X27260Y-16915D01*
X27258Y-16915D01*
X27258Y-16916D01*
X27222Y-16935D01*
X27207Y-16947D01*
X26756Y-16947D01*
X26800Y-16903D01*
X26850Y-16829D01*
X26885Y-16746D01*
X26903Y-16658D01*
X26903Y-16568D01*
X26886Y-16480D01*
X26853Y-16397D01*
X26836Y-16372D01*
X27350Y-15859D01*
X27853Y-15859D01*
X27855Y-15859D01*
X27893Y-15855D01*
X27896Y-15855D01*
X27921Y-15847D01*
X27933Y-15844D01*
X27934Y-15843D01*
X27935Y-15843D01*
X27969Y-15825D01*
X27971Y-15824D01*
X27989Y-15809D01*
X28001Y-15800D01*
X28001Y-15799D01*
X28003Y-15798D01*
X28003Y-15797D01*
X28007Y-15792D01*
X28121Y-15679D01*
X28492Y-16050D01*
X28492Y-17607D01*
X28492Y-17609D01*
X28496Y-17650D01*
X28503Y-17675D01*
X28507Y-17687D01*
X28507Y-17688D01*
X28508Y-17689D01*
X28526Y-17723D01*
X28527Y-17725D01*
X28541Y-17743D01*
X28551Y-17755D01*
X28553Y-17757D01*
X28554Y-17757D01*
X28558Y-17761D01*
X29552Y-18756D01*
X29553Y-18757D01*
X29554Y-18758D01*
X29560Y-18763D01*
X29584Y-18783D01*
X29586Y-18784D01*
X29620Y-18803D01*
X29622Y-18803D01*
X29659Y-18815D01*
X29661Y-18815D01*
X29700Y-18820D01*
X29702Y-18820D01*
X29703Y-18820D01*
X29932Y-18820D01*
X29953Y-18852D01*
X29976Y-18876D01*
X28450Y-18876D01*
X28281Y-18706D01*
X28281Y-18082D01*
X28265Y-17980D01*
X28230Y-17884D01*
X28208Y-17843D01*
X28117Y-17820D01*
X28046Y-17891D01*
X28046Y-17749D01*
X28023Y-17658D01*
X27930Y-17615D01*
X27830Y-17590D01*
X27728Y-17585D01*
X27626Y-17601D01*
X27530Y-17636D01*
X27489Y-17658D01*
X27466Y-17749D01*
X27756Y-18039D01*
X28046Y-17749D01*
X28046Y-17891D01*
X27827Y-18110D01*
X28117Y-18400D01*
X28208Y-18377D01*
X28251Y-18284D01*
X28276Y-18184D01*
X28281Y-18082D01*
X28281Y-18706D01*
X28046Y-18471D01*
X28038Y-18463D01*
X27791Y-18216D01*
X27756Y-18181D01*
X27685Y-18110D01*
X27650Y-18075D01*
X27395Y-17820D01*
X27304Y-17843D01*
X27261Y-17936D01*
X27236Y-18036D01*
X27231Y-18138D01*
X27247Y-18240D01*
X27282Y-18336D01*
X27304Y-18377D01*
X27339Y-18385D01*
X27325Y-18400D01*
X26854Y-18400D01*
X26853Y-18397D01*
X26804Y-18322D01*
X26741Y-18257D01*
X26667Y-18207D01*
X26584Y-18171D01*
X26496Y-18153D01*
X26406Y-18151D01*
X26116Y-18152D01*
X26028Y-18169D01*
X25945Y-18204D01*
X25870Y-18253D01*
X25806Y-18317D01*
X25756Y-18391D01*
X25721Y-18474D01*
X25703Y-18562D01*
X25703Y-18652D01*
X25720Y-18740D01*
X25753Y-18823D01*
X25772Y-18853D01*
X23833Y-18853D01*
X23850Y-18829D01*
X23885Y-18746D01*
X23903Y-18658D01*
X23903Y-18568D01*
X23886Y-18480D01*
X23853Y-18397D01*
X23804Y-18322D01*
X23741Y-18257D01*
X23667Y-18207D01*
X23584Y-18171D01*
X23496Y-18153D01*
X23406Y-18151D01*
X23116Y-18152D01*
X23028Y-18169D01*
X22945Y-18204D01*
X22870Y-18253D01*
X22806Y-18317D01*
X22756Y-18391D01*
X22721Y-18474D01*
X22703Y-18562D01*
X22703Y-18652D01*
X22720Y-18740D01*
X22753Y-18823D01*
X22802Y-18898D01*
X22865Y-18963D01*
X22939Y-19013D01*
X23022Y-19049D01*
X23073Y-19059D01*
X23035Y-19065D01*
X22932Y-19100D01*
X22837Y-19155D01*
X22755Y-19227D01*
X22688Y-19314D01*
X22640Y-19412D01*
X22621Y-19473D01*
X22668Y-19560D01*
X23203Y-19560D01*
X23253Y-19560D01*
X23353Y-19560D01*
X23403Y-19560D01*
X23938Y-19560D01*
X23985Y-19473D01*
X23966Y-19412D01*
X23918Y-19314D01*
X23886Y-19273D01*
X25850Y-19273D01*
X25806Y-19317D01*
X25756Y-19391D01*
X25721Y-19474D01*
X25703Y-19562D01*
X25703Y-19652D01*
X25720Y-19740D01*
X25753Y-19823D01*
X25802Y-19898D01*
X25865Y-19963D01*
X25939Y-20013D01*
X26022Y-20049D01*
X26093Y-20063D01*
X26097Y-20104D01*
X26104Y-20129D01*
X26108Y-20141D01*
X26108Y-20142D01*
X26109Y-20143D01*
X26127Y-20177D01*
X26128Y-20179D01*
X26142Y-20197D01*
X26152Y-20209D01*
X26154Y-20211D01*
X26155Y-20211D01*
X26159Y-20215D01*
X27046Y-21102D01*
X27046Y-21381D01*
X26988Y-21419D01*
X26929Y-21478D01*
X26882Y-21547D01*
X26849Y-21623D01*
X26832Y-21705D01*
X26830Y-21788D01*
X26846Y-21870D01*
X26876Y-21948D01*
X26922Y-22018D01*
X26979Y-22077D01*
X27048Y-22125D01*
X27124Y-22158D01*
X27206Y-22176D01*
X27289Y-22178D01*
X27371Y-22163D01*
X27449Y-22133D01*
X27519Y-22088D01*
X27580Y-22031D01*
X27627Y-21963D01*
X27661Y-21886D01*
X27680Y-21805D01*
X27681Y-21710D01*
X27665Y-21628D01*
X27633Y-21551D01*
X27587Y-21482D01*
X27528Y-21423D01*
X27466Y-21380D01*
X27466Y-21016D01*
X27462Y-20977D01*
X27462Y-20975D01*
X27455Y-20953D01*
X27451Y-20938D01*
X27450Y-20936D01*
X27432Y-20902D01*
X27431Y-20900D01*
X27412Y-20876D01*
X27406Y-20869D01*
X27405Y-20868D01*
X27404Y-20867D01*
X26584Y-20048D01*
X26661Y-20016D01*
X26736Y-19967D01*
X26800Y-19903D01*
X26850Y-19829D01*
X26885Y-19746D01*
X26903Y-19658D01*
X26903Y-19568D01*
X26886Y-19480D01*
X26853Y-19397D01*
X26804Y-19322D01*
X26756Y-19273D01*
X27363Y-19273D01*
X27376Y-19306D01*
X27422Y-19376D01*
X27479Y-19435D01*
X27548Y-19483D01*
X27624Y-19516D01*
X27706Y-19534D01*
X27789Y-19536D01*
X27871Y-19521D01*
X27949Y-19491D01*
X28019Y-19446D01*
X28080Y-19389D01*
X28127Y-19321D01*
X28161Y-19244D01*
X28173Y-19192D01*
X28213Y-19232D01*
X28214Y-19233D01*
X28215Y-19234D01*
X28245Y-19259D01*
X28247Y-19261D01*
X28279Y-19277D01*
X28281Y-19279D01*
X28283Y-19280D01*
X28320Y-19291D01*
X28322Y-19292D01*
X28353Y-19295D01*
X28361Y-19296D01*
X28363Y-19296D01*
X28364Y-19296D01*
X30474Y-19296D01*
X30476Y-19296D01*
X30514Y-19292D01*
X30517Y-19292D01*
X30542Y-19284D01*
X30554Y-19281D01*
X30555Y-19280D01*
X30556Y-19280D01*
X30590Y-19262D01*
X30592Y-19261D01*
X30610Y-19246D01*
X30622Y-19237D01*
X30622Y-19236D01*
X30624Y-19235D01*
X30624Y-19234D01*
X30628Y-19229D01*
X31196Y-18662D01*
X31196Y-19124D01*
X31196Y-19126D01*
X31200Y-19167D01*
X31207Y-19192D01*
X31211Y-19204D01*
X31211Y-19205D01*
X31212Y-19206D01*
X31230Y-19240D01*
X31231Y-19242D01*
X31245Y-19260D01*
X31255Y-19272D01*
X31257Y-19274D01*
X31258Y-19274D01*
X31262Y-19278D01*
X31479Y-19496D01*
X31466Y-19563D01*
X31464Y-19646D01*
X31480Y-19728D01*
X31510Y-19806D01*
X31556Y-19876D01*
X31613Y-19935D01*
X31682Y-19983D01*
X31758Y-20016D01*
X31840Y-20034D01*
X31923Y-20036D01*
X32005Y-20021D01*
X32083Y-19991D01*
X32153Y-19946D01*
X32214Y-19889D01*
X32261Y-19821D01*
X32295Y-19744D01*
X32314Y-19663D01*
X32315Y-19568D01*
X32299Y-19486D01*
X32267Y-19409D01*
X32221Y-19340D01*
X32162Y-19281D01*
X32093Y-19234D01*
X32016Y-19202D01*
X31934Y-19185D01*
X31851Y-19185D01*
X31775Y-19198D01*
X31616Y-19039D01*
X31616Y-18937D01*
X31682Y-18983D01*
X31758Y-19016D01*
X31840Y-19034D01*
X31923Y-19036D01*
X32005Y-19021D01*
X32083Y-18991D01*
X32153Y-18946D01*
X32214Y-18889D01*
X32261Y-18821D01*
X32295Y-18744D01*
X32314Y-18663D01*
X32315Y-18568D01*
X32299Y-18486D01*
X32267Y-18409D01*
X32221Y-18340D01*
X32162Y-18281D01*
X32093Y-18234D01*
X32016Y-18202D01*
X31934Y-18185D01*
X31851Y-18185D01*
X31769Y-18200D01*
X31692Y-18232D01*
X31622Y-18277D01*
X31616Y-18283D01*
X31616Y-17937D01*
X31682Y-17983D01*
X31758Y-18016D01*
X31840Y-18034D01*
X31923Y-18036D01*
X32005Y-18021D01*
X32083Y-17991D01*
X32153Y-17946D01*
X32214Y-17889D01*
X32261Y-17821D01*
X32261Y-17820D01*
X32566Y-17820D01*
X32566Y-20885D01*
X32315Y-21136D01*
X32315Y-20568D01*
X32299Y-20486D01*
X32267Y-20409D01*
X32221Y-20340D01*
X32162Y-20281D01*
X32093Y-20234D01*
X32016Y-20202D01*
X31934Y-20185D01*
X31851Y-20185D01*
X31769Y-20200D01*
X31692Y-20232D01*
X31622Y-20277D01*
X31563Y-20336D01*
X31516Y-20405D01*
X31483Y-20481D01*
X31466Y-20563D01*
X31464Y-20646D01*
X31480Y-20728D01*
X31510Y-20806D01*
X31556Y-20876D01*
X31613Y-20935D01*
X31682Y-20983D01*
X31758Y-21016D01*
X31840Y-21034D01*
X31923Y-21036D01*
X32005Y-21021D01*
X32083Y-20991D01*
X32153Y-20946D01*
X32214Y-20889D01*
X32261Y-20821D01*
X32295Y-20744D01*
X32314Y-20663D01*
X32315Y-20568D01*
X32315Y-21136D01*
X32025Y-21426D01*
X31608Y-21426D01*
X31579Y-21432D01*
X31552Y-21443D01*
X31528Y-21459D01*
X31507Y-21480D01*
X31491Y-21504D01*
X31480Y-21531D01*
X31474Y-21560D01*
X31474Y-21589D01*
X31474Y-22140D01*
X31480Y-22169D01*
X31491Y-22196D01*
X31507Y-22220D01*
X31528Y-22241D01*
X31552Y-22257D01*
X31579Y-22268D01*
X31608Y-22274D01*
X31637Y-22274D01*
X32188Y-22274D01*
X32217Y-22268D01*
X32244Y-22257D01*
X32268Y-22241D01*
X32289Y-22220D01*
X32305Y-22196D01*
X32316Y-22169D01*
X32322Y-22140D01*
X32322Y-22111D01*
X32322Y-21722D01*
X32922Y-21122D01*
X32923Y-21122D01*
X32923Y-21121D01*
X32924Y-21121D01*
X32929Y-21114D01*
X32949Y-21091D01*
X32950Y-21089D01*
X32969Y-21055D01*
X32969Y-21053D01*
X32981Y-21016D01*
X32981Y-21014D01*
X32986Y-20975D01*
X32986Y-20973D01*
X32986Y-20972D01*
X32986Y-17620D01*
X32986Y-17618D01*
X32982Y-17580D01*
X32982Y-17577D01*
X32974Y-17551D01*
X32971Y-17540D01*
X32970Y-17538D01*
X32952Y-17504D01*
X32951Y-17502D01*
X32932Y-17478D01*
X32926Y-17471D01*
X32925Y-17470D01*
X32924Y-17469D01*
X32921Y-17466D01*
X32920Y-17465D01*
X32918Y-17463D01*
X32916Y-17462D01*
X32895Y-17443D01*
X32887Y-17437D01*
X32885Y-17435D01*
X32853Y-17418D01*
X32851Y-17417D01*
X32850Y-17416D01*
X32849Y-17416D01*
X32810Y-17404D01*
X32779Y-17400D01*
X32771Y-17400D01*
X32769Y-17400D01*
X32768Y-17400D01*
X32415Y-17400D01*
X32415Y-15909D01*
X32415Y-15722D01*
X32353Y-15660D01*
X31940Y-15660D01*
X31940Y-16073D01*
X32002Y-16135D01*
X32143Y-16135D01*
X32192Y-16135D01*
X32240Y-16125D01*
X32285Y-16106D01*
X32325Y-16078D01*
X32360Y-16043D01*
X32387Y-16002D01*
X32406Y-15957D01*
X32415Y-15909D01*
X32415Y-17400D01*
X32261Y-17400D01*
X32221Y-17340D01*
X32162Y-17281D01*
X32093Y-17234D01*
X32016Y-17202D01*
X31934Y-17185D01*
X31851Y-17185D01*
X31769Y-17200D01*
X31692Y-17232D01*
X31622Y-17277D01*
X31616Y-17283D01*
X31616Y-16937D01*
X31682Y-16983D01*
X31758Y-17016D01*
X31840Y-17034D01*
X31923Y-17036D01*
X32005Y-17021D01*
X32083Y-16991D01*
X32153Y-16946D01*
X32214Y-16889D01*
X32261Y-16821D01*
X32295Y-16744D01*
X32314Y-16663D01*
X32315Y-16568D01*
X32299Y-16486D01*
X32267Y-16409D01*
X32221Y-16340D01*
X32162Y-16281D01*
X32093Y-16234D01*
X32016Y-16202D01*
X31934Y-16185D01*
X31851Y-16185D01*
X31769Y-16200D01*
X31692Y-16232D01*
X31622Y-16277D01*
X31616Y-16283D01*
X31616Y-16135D01*
X31637Y-16135D01*
X31778Y-16135D01*
X31840Y-16073D01*
X31840Y-15710D01*
X31840Y-15660D01*
X31840Y-15560D01*
X31940Y-15560D01*
X31990Y-15560D01*
X32353Y-15560D01*
X32415Y-15498D01*
X32415Y-15311D01*
X32406Y-15263D01*
X32387Y-15218D01*
X32383Y-15212D01*
X32387Y-15210D01*
X32387Y-15209D01*
X32389Y-15208D01*
X32389Y-15207D01*
X32393Y-15202D01*
X32481Y-15114D01*
X32487Y-15110D01*
X32488Y-15108D01*
X32506Y-15087D01*
X32513Y-15079D01*
X32515Y-15077D01*
X32531Y-15045D01*
X32533Y-15043D01*
X32533Y-15042D01*
X32534Y-15041D01*
X32545Y-15004D01*
X32546Y-15002D01*
X32549Y-14971D01*
X32550Y-14963D01*
X32550Y-14961D01*
X32550Y-14960D01*
X32550Y-14108D01*
X32550Y-14106D01*
X32546Y-14068D01*
X32546Y-14065D01*
X32538Y-14039D01*
X32535Y-14028D01*
X32534Y-14026D01*
X32516Y-13992D01*
X32515Y-13990D01*
X32496Y-13966D01*
X32490Y-13959D01*
X32489Y-13958D01*
X32488Y-13957D01*
X32382Y-13852D01*
X32378Y-13847D01*
X32376Y-13846D01*
X32355Y-13827D01*
X32347Y-13821D01*
X32345Y-13819D01*
X32313Y-13802D01*
X32311Y-13801D01*
X32310Y-13800D01*
X32309Y-13800D01*
X32270Y-13788D01*
X32260Y-13787D01*
X32261Y-13786D01*
X32295Y-13709D01*
X32314Y-13628D01*
X32315Y-13533D01*
X32299Y-13451D01*
X32267Y-13374D01*
X32221Y-13305D01*
X32162Y-13246D01*
X32093Y-13199D01*
X32016Y-13167D01*
X31934Y-13150D01*
X31851Y-13150D01*
X31769Y-13165D01*
X31692Y-13197D01*
X31622Y-13242D01*
X31563Y-13301D01*
X31516Y-13370D01*
X31483Y-13446D01*
X31466Y-13528D01*
X31464Y-13611D01*
X31480Y-13693D01*
X31510Y-13771D01*
X31518Y-13784D01*
X31080Y-13784D01*
X31114Y-13709D01*
X31133Y-13628D01*
X31134Y-13533D01*
X31118Y-13451D01*
X31086Y-13374D01*
X31040Y-13305D01*
X30981Y-13246D01*
X30912Y-13199D01*
X30835Y-13167D01*
X30753Y-13150D01*
X30670Y-13150D01*
X30588Y-13165D01*
X30511Y-13197D01*
X30441Y-13242D01*
X30382Y-13301D01*
X30335Y-13370D01*
X30302Y-13446D01*
X30295Y-13477D01*
X30251Y-13433D01*
X30247Y-13428D01*
X30245Y-13427D01*
X30224Y-13408D01*
X30216Y-13402D01*
X30214Y-13400D01*
X30182Y-13383D01*
X30180Y-13382D01*
X30179Y-13381D01*
X30178Y-13381D01*
X30139Y-13369D01*
X30108Y-13365D01*
X30100Y-13365D01*
X30098Y-13365D01*
X30097Y-13365D01*
X29899Y-13365D01*
X29859Y-13305D01*
X29800Y-13246D01*
X29731Y-13199D01*
X29654Y-13167D01*
X29572Y-13150D01*
X29489Y-13150D01*
X29413Y-13163D01*
X29269Y-13020D01*
X33524Y-13020D01*
X33419Y-13089D01*
X33190Y-13313D01*
X33009Y-13578D01*
X32882Y-13873D01*
X32815Y-14186D01*
X32811Y-14507D01*
X32869Y-14823D01*
X32987Y-15121D01*
X33161Y-15391D01*
X33383Y-15622D01*
X33647Y-15805D01*
X33941Y-15933D01*
X34254Y-16002D01*
X34575Y-16009D01*
X34891Y-15953D01*
X35190Y-15837D01*
X35461Y-15666D01*
X35693Y-15444D01*
X35799Y-15293D01*
X35799Y-17696D01*
X35731Y-17628D01*
X35701Y-17657D01*
X35688Y-17614D01*
X35587Y-17566D01*
X35477Y-17538D01*
X35365Y-17532D01*
X35253Y-17547D01*
X35146Y-17585D01*
X35092Y-17614D01*
X35061Y-17710D01*
X35355Y-18004D01*
X35390Y-18039D01*
X35461Y-18110D01*
X35390Y-18181D01*
X35355Y-18216D01*
X35319Y-18252D01*
X35319Y-18110D01*
X34990Y-17781D01*
X34894Y-17812D01*
X34846Y-17913D01*
X34839Y-17939D01*
X34816Y-17884D01*
X34764Y-17805D01*
X34697Y-17738D01*
X34619Y-17686D01*
X34533Y-17649D01*
X34440Y-17630D01*
X34346Y-17630D01*
X34254Y-17647D01*
X34167Y-17683D01*
X34088Y-17734D01*
X34021Y-17800D01*
X33967Y-17878D01*
X33930Y-17964D01*
X33911Y-18056D01*
X33909Y-18150D01*
X33926Y-18243D01*
X33961Y-18330D01*
X34012Y-18410D01*
X34077Y-18477D01*
X34155Y-18531D01*
X34241Y-18569D01*
X34333Y-18589D01*
X34427Y-18591D01*
X34520Y-18575D01*
X34607Y-18541D01*
X34687Y-18490D01*
X34755Y-18425D01*
X34809Y-18348D01*
X34839Y-18281D01*
X34865Y-18354D01*
X34894Y-18408D01*
X34990Y-18439D01*
X35319Y-18110D01*
X35319Y-18252D01*
X35061Y-18510D01*
X35092Y-18606D01*
X35193Y-18654D01*
X35303Y-18682D01*
X35415Y-18688D01*
X35527Y-18673D01*
X35634Y-18635D01*
X35688Y-18606D01*
X35701Y-18562D01*
X35719Y-18580D01*
X35731Y-18592D01*
X35799Y-18524D01*
X35799Y-20925D01*
X35799Y-20925D01*
G37*
G54D22*
X35799Y-20925D02*
X35723Y-20811D01*
X35719Y-20806D01*
X35497Y-20584D01*
X35231Y-20404D01*
X34935Y-20280D01*
X34621Y-20215D01*
X34300Y-20213D01*
X33985Y-20273D01*
X33688Y-20393D01*
X33419Y-20569D01*
X33190Y-20793D01*
X33009Y-21058D01*
X32882Y-21353D01*
X32815Y-21666D01*
X32811Y-21987D01*
X32869Y-22303D01*
X32987Y-22601D01*
X33161Y-22871D01*
X33383Y-23102D01*
X33524Y-23200D01*
X31323Y-23200D01*
X31323Y-21808D01*
X31307Y-21726D01*
X31275Y-21649D01*
X31229Y-21580D01*
X31170Y-21521D01*
X31143Y-21502D01*
X31143Y-19854D01*
X31127Y-19752D01*
X31092Y-19656D01*
X31070Y-19615D01*
X30979Y-19592D01*
X30908Y-19663D01*
X30908Y-19521D01*
X30885Y-19430D01*
X30792Y-19387D01*
X30692Y-19362D01*
X30590Y-19357D01*
X30488Y-19373D01*
X30392Y-19408D01*
X30351Y-19430D01*
X30328Y-19521D01*
X30618Y-19811D01*
X30908Y-19521D01*
X30908Y-19663D01*
X30689Y-19882D01*
X30979Y-20172D01*
X31070Y-20149D01*
X31113Y-20056D01*
X31138Y-19956D01*
X31143Y-19854D01*
X31143Y-21502D01*
X31101Y-21474D01*
X31024Y-21442D01*
X30942Y-21425D01*
X30908Y-21425D01*
X30908Y-20243D01*
X30618Y-19953D01*
X30547Y-20024D01*
X30547Y-19882D01*
X30257Y-19592D01*
X30166Y-19615D01*
X30123Y-19708D01*
X30098Y-19808D01*
X30093Y-19910D01*
X30109Y-20012D01*
X30144Y-20108D01*
X30166Y-20149D01*
X30257Y-20172D01*
X30547Y-19882D01*
X30547Y-20024D01*
X30328Y-20243D01*
X30351Y-20334D01*
X30444Y-20377D01*
X30544Y-20402D01*
X30646Y-20407D01*
X30748Y-20391D01*
X30844Y-20356D01*
X30885Y-20334D01*
X30908Y-20243D01*
X30908Y-21425D01*
X30859Y-21425D01*
X30777Y-21440D01*
X30700Y-21472D01*
X30630Y-21517D01*
X30571Y-21576D01*
X30524Y-21645D01*
X30491Y-21721D01*
X30474Y-21803D01*
X30472Y-21886D01*
X30488Y-21968D01*
X30518Y-22046D01*
X30564Y-22116D01*
X30621Y-22175D01*
X30690Y-22223D01*
X30766Y-22256D01*
X30848Y-22274D01*
X30931Y-22276D01*
X31013Y-22261D01*
X31091Y-22231D01*
X31161Y-22186D01*
X31222Y-22129D01*
X31269Y-22061D01*
X31303Y-21984D01*
X31322Y-21903D01*
X31323Y-21808D01*
X31323Y-23200D01*
X30043Y-23200D01*
X30043Y-19840D01*
X30027Y-19758D01*
X29995Y-19681D01*
X29949Y-19612D01*
X29890Y-19553D01*
X29821Y-19506D01*
X29744Y-19474D01*
X29662Y-19457D01*
X29579Y-19457D01*
X29497Y-19472D01*
X29420Y-19504D01*
X29350Y-19549D01*
X29291Y-19608D01*
X29244Y-19677D01*
X29211Y-19753D01*
X29194Y-19835D01*
X29192Y-19918D01*
X29208Y-20000D01*
X29238Y-20078D01*
X29284Y-20148D01*
X29341Y-20207D01*
X29410Y-20255D01*
X29486Y-20288D01*
X29568Y-20306D01*
X29651Y-20308D01*
X29733Y-20293D01*
X29811Y-20263D01*
X29881Y-20218D01*
X29942Y-20161D01*
X29989Y-20093D01*
X30023Y-20016D01*
X30042Y-19935D01*
X30043Y-19840D01*
X30043Y-23200D01*
X28681Y-23200D01*
X28681Y-21710D01*
X28665Y-21628D01*
X28633Y-21551D01*
X28587Y-21482D01*
X28528Y-21423D01*
X28459Y-21376D01*
X28382Y-21344D01*
X28300Y-21327D01*
X28217Y-21327D01*
X28135Y-21342D01*
X28058Y-21374D01*
X27988Y-21419D01*
X27929Y-21478D01*
X27882Y-21547D01*
X27849Y-21623D01*
X27832Y-21705D01*
X27830Y-21788D01*
X27846Y-21870D01*
X27876Y-21948D01*
X27922Y-22018D01*
X27979Y-22077D01*
X28048Y-22125D01*
X28124Y-22158D01*
X28206Y-22176D01*
X28289Y-22178D01*
X28371Y-22163D01*
X28449Y-22133D01*
X28519Y-22088D01*
X28580Y-22031D01*
X28627Y-21963D01*
X28661Y-21886D01*
X28680Y-21805D01*
X28681Y-21710D01*
X28681Y-23200D01*
X25828Y-23200D01*
X25828Y-22413D01*
X25812Y-22311D01*
X25777Y-22215D01*
X25755Y-22174D01*
X25664Y-22151D01*
X25593Y-22222D01*
X25593Y-22080D01*
X25570Y-21989D01*
X25477Y-21946D01*
X25377Y-21921D01*
X25275Y-21916D01*
X25173Y-21932D01*
X25077Y-21967D01*
X25036Y-21989D01*
X25013Y-22080D01*
X25303Y-22370D01*
X25593Y-22080D01*
X25593Y-22222D01*
X25374Y-22441D01*
X25664Y-22731D01*
X25755Y-22708D01*
X25798Y-22615D01*
X25823Y-22515D01*
X25828Y-22413D01*
X25828Y-23200D01*
X25593Y-23200D01*
X25593Y-22802D01*
X25303Y-22512D01*
X25232Y-22583D01*
X25232Y-22441D01*
X24942Y-22151D01*
X24851Y-22174D01*
X24808Y-22267D01*
X24783Y-22367D01*
X24778Y-22469D01*
X24794Y-22571D01*
X24829Y-22667D01*
X24851Y-22708D01*
X24942Y-22731D01*
X25232Y-22441D01*
X25232Y-22583D01*
X25013Y-22802D01*
X25036Y-22893D01*
X25129Y-22936D01*
X25229Y-22961D01*
X25331Y-22966D01*
X25433Y-22950D01*
X25529Y-22915D01*
X25570Y-22893D01*
X25593Y-22802D01*
X25593Y-23200D01*
X24728Y-23200D01*
X24728Y-22399D01*
X24712Y-22317D01*
X24680Y-22240D01*
X24634Y-22171D01*
X24575Y-22112D01*
X24506Y-22065D01*
X24498Y-22062D01*
X24498Y-22061D01*
X24498Y-22059D01*
X24497Y-22057D01*
X24479Y-22023D01*
X24478Y-22021D01*
X24459Y-21997D01*
X24453Y-21990D01*
X24452Y-21989D01*
X24451Y-21988D01*
X23985Y-21522D01*
X23985Y-19747D01*
X23938Y-19660D01*
X23353Y-19660D01*
X23353Y-20170D01*
X23463Y-20170D01*
X23571Y-20155D01*
X23674Y-20120D01*
X23769Y-20065D01*
X23851Y-19993D01*
X23918Y-19906D01*
X23966Y-19808D01*
X23985Y-19747D01*
X23985Y-21522D01*
X23253Y-20790D01*
X23253Y-20170D01*
X23253Y-19660D01*
X22668Y-19660D01*
X22621Y-19747D01*
X22640Y-19808D01*
X22688Y-19906D01*
X22755Y-19993D01*
X22837Y-20065D01*
X22932Y-20120D01*
X23035Y-20155D01*
X23143Y-20170D01*
X23253Y-20170D01*
X23253Y-20790D01*
X22572Y-20109D01*
X22572Y-17582D01*
X22556Y-17480D01*
X22521Y-17384D01*
X22499Y-17343D01*
X22408Y-17320D01*
X22337Y-17391D01*
X22337Y-17249D01*
X22314Y-17158D01*
X22221Y-17115D01*
X22121Y-17090D01*
X22019Y-17085D01*
X21917Y-17101D01*
X21821Y-17136D01*
X21780Y-17158D01*
X21757Y-17249D01*
X22047Y-17539D01*
X22337Y-17249D01*
X22337Y-17391D01*
X22118Y-17610D01*
X22408Y-17900D01*
X22499Y-17877D01*
X22542Y-17784D01*
X22567Y-17684D01*
X22572Y-17582D01*
X22572Y-20109D01*
X22257Y-19794D01*
X22257Y-18980D01*
X22310Y-18946D01*
X22371Y-18889D01*
X22418Y-18821D01*
X22452Y-18744D01*
X22471Y-18663D01*
X22472Y-18568D01*
X22456Y-18486D01*
X22424Y-18409D01*
X22378Y-18340D01*
X22337Y-18299D01*
X22337Y-17971D01*
X22047Y-17681D01*
X21976Y-17752D01*
X21976Y-17610D01*
X21686Y-17320D01*
X21595Y-17343D01*
X21552Y-17436D01*
X21527Y-17536D01*
X21522Y-17638D01*
X21538Y-17740D01*
X21573Y-17836D01*
X21595Y-17877D01*
X21686Y-17900D01*
X21976Y-17610D01*
X21976Y-17752D01*
X21757Y-17971D01*
X21780Y-18062D01*
X21873Y-18105D01*
X21973Y-18130D01*
X22075Y-18135D01*
X22177Y-18119D01*
X22273Y-18084D01*
X22314Y-18062D01*
X22337Y-17971D01*
X22337Y-18299D01*
X22319Y-18281D01*
X22250Y-18234D01*
X22173Y-18202D01*
X22091Y-18185D01*
X22008Y-18185D01*
X21926Y-18200D01*
X21849Y-18232D01*
X21779Y-18277D01*
X21720Y-18336D01*
X21673Y-18405D01*
X21640Y-18481D01*
X21623Y-18563D01*
X21621Y-18646D01*
X21636Y-18724D01*
X21460Y-18900D01*
X21194Y-18900D01*
X21194Y-18082D01*
X21178Y-17980D01*
X21143Y-17884D01*
X21121Y-17843D01*
X21030Y-17820D01*
X20959Y-17891D01*
X20959Y-17749D01*
X20936Y-17658D01*
X20843Y-17615D01*
X20743Y-17590D01*
X20641Y-17585D01*
X20539Y-17601D01*
X20443Y-17636D01*
X20402Y-17658D01*
X20379Y-17749D01*
X20669Y-18039D01*
X20959Y-17749D01*
X20959Y-17891D01*
X20740Y-18110D01*
X21030Y-18400D01*
X21121Y-18377D01*
X21164Y-18284D01*
X21189Y-18184D01*
X21194Y-18082D01*
X21194Y-18900D01*
X21040Y-18900D01*
X21000Y-18840D01*
X20959Y-18799D01*
X20959Y-18471D01*
X20669Y-18181D01*
X20598Y-18252D01*
X20598Y-18110D01*
X20308Y-17820D01*
X20217Y-17843D01*
X20174Y-17936D01*
X20149Y-18036D01*
X20144Y-18138D01*
X20160Y-18240D01*
X20195Y-18336D01*
X20217Y-18377D01*
X20308Y-18400D01*
X20598Y-18110D01*
X20598Y-18252D01*
X20379Y-18471D01*
X20402Y-18562D01*
X20495Y-18605D01*
X20595Y-18630D01*
X20697Y-18635D01*
X20799Y-18619D01*
X20895Y-18584D01*
X20936Y-18562D01*
X20959Y-18471D01*
X20959Y-18799D01*
X20941Y-18781D01*
X20872Y-18734D01*
X20795Y-18702D01*
X20713Y-18685D01*
X20630Y-18685D01*
X20548Y-18700D01*
X20471Y-18732D01*
X20401Y-18777D01*
X20342Y-18836D01*
X20295Y-18905D01*
X20262Y-18981D01*
X20245Y-19063D01*
X20243Y-19146D01*
X20259Y-19228D01*
X20289Y-19306D01*
X20335Y-19376D01*
X20392Y-19435D01*
X20461Y-19483D01*
X20537Y-19516D01*
X20619Y-19534D01*
X20702Y-19536D01*
X20784Y-19521D01*
X20862Y-19491D01*
X20932Y-19446D01*
X20993Y-19389D01*
X21040Y-19321D01*
X21040Y-19320D01*
X21545Y-19320D01*
X21547Y-19320D01*
X21585Y-19316D01*
X21588Y-19316D01*
X21613Y-19308D01*
X21625Y-19305D01*
X21626Y-19304D01*
X21627Y-19304D01*
X21661Y-19286D01*
X21663Y-19285D01*
X21681Y-19270D01*
X21693Y-19261D01*
X21693Y-19260D01*
X21695Y-19259D01*
X21695Y-19258D01*
X21699Y-19253D01*
X21837Y-19116D01*
X21837Y-19879D01*
X21837Y-19881D01*
X21841Y-19922D01*
X21848Y-19947D01*
X21852Y-19959D01*
X21852Y-19960D01*
X21853Y-19961D01*
X21871Y-19995D01*
X21872Y-19997D01*
X21886Y-20015D01*
X21896Y-20027D01*
X21898Y-20029D01*
X21899Y-20029D01*
X21903Y-20033D01*
X24006Y-22136D01*
X23976Y-22167D01*
X23929Y-22236D01*
X23896Y-22312D01*
X23879Y-22394D01*
X23877Y-22477D01*
X23893Y-22559D01*
X23923Y-22637D01*
X23969Y-22707D01*
X24026Y-22766D01*
X24095Y-22814D01*
X24171Y-22847D01*
X24253Y-22865D01*
X24336Y-22867D01*
X24418Y-22852D01*
X24496Y-22822D01*
X24566Y-22777D01*
X24627Y-22720D01*
X24674Y-22652D01*
X24708Y-22575D01*
X24727Y-22494D01*
X24728Y-22399D01*
X24728Y-23200D01*
X22185Y-23200D01*
X22271Y-23146D01*
X22503Y-22924D01*
X22688Y-22662D01*
X22819Y-22369D01*
X22890Y-22056D01*
X22895Y-21690D01*
X22833Y-21375D01*
X22711Y-21079D01*
X22533Y-20811D01*
X22307Y-20584D01*
X22041Y-20404D01*
X21745Y-20280D01*
X21431Y-20215D01*
X21110Y-20213D01*
X20795Y-20273D01*
X20498Y-20393D01*
X20229Y-20569D01*
X20000Y-20793D01*
X19910Y-20924D01*
X19910Y-15294D01*
X19972Y-15391D01*
X20194Y-15622D01*
X20458Y-15805D01*
X20752Y-15933D01*
X21065Y-16002D01*
X21386Y-16009D01*
X21702Y-15953D01*
X22001Y-15837D01*
X22272Y-15666D01*
X22504Y-15444D01*
X22689Y-15182D01*
X22820Y-14889D01*
X22891Y-14576D01*
X22896Y-14210D01*
X22834Y-13895D01*
X22712Y-13599D01*
X22534Y-13331D01*
X22308Y-13104D01*
X22183Y-13020D01*
X25257Y-13020D01*
X24938Y-13339D01*
X24937Y-13339D01*
X24850Y-13321D01*
X24762Y-13321D01*
X24675Y-13337D01*
X24594Y-13370D01*
X24520Y-13419D01*
X24457Y-13480D01*
X24407Y-13553D01*
X24372Y-13634D01*
X24354Y-13720D01*
X24352Y-13809D01*
X24368Y-13896D01*
X24401Y-13978D01*
X24449Y-14052D01*
X24451Y-14055D01*
X24153Y-14055D01*
X24196Y-13994D01*
X24232Y-13914D01*
X24252Y-13828D01*
X24253Y-13727D01*
X24236Y-13640D01*
X24202Y-13559D01*
X24153Y-13485D01*
X24091Y-13423D01*
X24018Y-13373D01*
X23937Y-13339D01*
X23850Y-13321D01*
X23762Y-13321D01*
X23675Y-13337D01*
X23594Y-13370D01*
X23520Y-13419D01*
X23457Y-13480D01*
X23407Y-13553D01*
X23372Y-13634D01*
X23354Y-13720D01*
X23352Y-13809D01*
X23368Y-13896D01*
X23401Y-13978D01*
X23449Y-14052D01*
X23478Y-14082D01*
X23464Y-14090D01*
X23432Y-14116D01*
X23431Y-14116D01*
X23431Y-14117D01*
X23131Y-14417D01*
X23126Y-14422D01*
X23106Y-14445D01*
X23098Y-14455D01*
X23081Y-14487D01*
X23080Y-14489D01*
X23079Y-14489D01*
X23079Y-14491D01*
X23067Y-14530D01*
X23063Y-14561D01*
X23063Y-14569D01*
X23063Y-14571D01*
X23063Y-14572D01*
X23063Y-14948D01*
X21111Y-16900D01*
X21093Y-16900D01*
X21093Y-16820D01*
X21087Y-16791D01*
X21076Y-16764D01*
X21060Y-16740D01*
X21039Y-16719D01*
X21015Y-16703D01*
X20988Y-16692D01*
X20959Y-16686D01*
X20930Y-16686D01*
X20379Y-16686D01*
X20350Y-16692D01*
X20323Y-16703D01*
X20299Y-16719D01*
X20278Y-16740D01*
X20262Y-16764D01*
X20251Y-16791D01*
X20245Y-16820D01*
X20245Y-16849D01*
X20245Y-17400D01*
X20251Y-17429D01*
X20262Y-17456D01*
X20278Y-17480D01*
X20299Y-17501D01*
X20323Y-17517D01*
X20350Y-17528D01*
X20379Y-17534D01*
X20408Y-17534D01*
X20959Y-17534D01*
X20988Y-17528D01*
X21015Y-17517D01*
X21039Y-17501D01*
X21060Y-17480D01*
X21076Y-17456D01*
X21087Y-17429D01*
X21093Y-17400D01*
X21093Y-17371D01*
X21093Y-17320D01*
X21196Y-17320D01*
X21198Y-17320D01*
X21236Y-17316D01*
X21239Y-17316D01*
X21264Y-17308D01*
X21276Y-17305D01*
X21277Y-17304D01*
X21278Y-17304D01*
X21312Y-17286D01*
X21314Y-17285D01*
X21332Y-17270D01*
X21344Y-17261D01*
X21344Y-17260D01*
X21346Y-17259D01*
X21346Y-17258D01*
X21350Y-17253D01*
X23419Y-15185D01*
X23420Y-15185D01*
X23420Y-15184D01*
X23421Y-15184D01*
X23426Y-15177D01*
X23426Y-15175D01*
X23483Y-15232D01*
X23510Y-15204D01*
X23522Y-15243D01*
X23619Y-15289D01*
X23723Y-15315D01*
X23830Y-15320D01*
X23936Y-15304D01*
X24037Y-15268D01*
X24084Y-15243D01*
X24111Y-15149D01*
X23838Y-14877D01*
X23803Y-14842D01*
X23732Y-14771D01*
X23803Y-14700D01*
X23874Y-14771D01*
X23909Y-14806D01*
X24181Y-15079D01*
X24275Y-15052D01*
X24321Y-14955D01*
X24347Y-14851D01*
X24352Y-14744D01*
X24336Y-14638D01*
X24300Y-14537D01*
X24275Y-14490D01*
X24236Y-14478D01*
X24240Y-14475D01*
X24462Y-14475D01*
X24457Y-14480D01*
X24407Y-14553D01*
X24372Y-14634D01*
X24354Y-14720D01*
X24352Y-14809D01*
X24368Y-14896D01*
X24401Y-14978D01*
X24449Y-15052D01*
X24510Y-15115D01*
X24582Y-15166D01*
X24663Y-15201D01*
X24749Y-15220D01*
X24838Y-15222D01*
X24924Y-15207D01*
X25007Y-15175D01*
X25081Y-15127D01*
X25145Y-15067D01*
X25196Y-14994D01*
X25232Y-14914D01*
X25252Y-14828D01*
X25253Y-14727D01*
X25236Y-14640D01*
X25234Y-14636D01*
X25445Y-14425D01*
X25513Y-14425D01*
X25457Y-14480D01*
X25407Y-14553D01*
X25372Y-14634D01*
X25354Y-14720D01*
X25352Y-14809D01*
X25368Y-14896D01*
X25401Y-14978D01*
X25449Y-15052D01*
X25510Y-15115D01*
X25582Y-15166D01*
X25663Y-15201D01*
X25749Y-15220D01*
X25838Y-15222D01*
X25924Y-15207D01*
X26007Y-15175D01*
X26081Y-15127D01*
X26145Y-15067D01*
X26196Y-14994D01*
X26232Y-14914D01*
X26252Y-14828D01*
X26253Y-14727D01*
X26236Y-14640D01*
X26202Y-14559D01*
X26153Y-14485D01*
X26093Y-14425D01*
X26244Y-14425D01*
X26246Y-14425D01*
X26284Y-14421D01*
X26287Y-14421D01*
X26312Y-14413D01*
X26324Y-14410D01*
X26325Y-14409D01*
X26326Y-14409D01*
X26360Y-14391D01*
X26362Y-14390D01*
X26380Y-14375D01*
X26392Y-14366D01*
X26392Y-14365D01*
X26394Y-14364D01*
X26394Y-14363D01*
X26398Y-14359D01*
X26995Y-14359D01*
X26988Y-14370D01*
X26955Y-14446D01*
X26938Y-14528D01*
X26936Y-14611D01*
X26951Y-14688D01*
X25240Y-16400D01*
X24111Y-16400D01*
X23902Y-16400D01*
X23902Y-16285D01*
X23896Y-16256D01*
X23885Y-16229D01*
X23869Y-16205D01*
X23848Y-16184D01*
X23824Y-16168D01*
X23797Y-16157D01*
X23768Y-16151D01*
X23739Y-16151D01*
X22838Y-16151D01*
X22809Y-16157D01*
X22782Y-16168D01*
X22758Y-16184D01*
X22737Y-16205D01*
X22721Y-16229D01*
X22710Y-16256D01*
X22704Y-16285D01*
X22704Y-16314D01*
X22704Y-16935D01*
X22710Y-16964D01*
X22721Y-16991D01*
X22737Y-17015D01*
X22758Y-17036D01*
X22782Y-17052D01*
X22809Y-17063D01*
X22838Y-17069D01*
X22867Y-17069D01*
X23112Y-17069D01*
X23110Y-17074D01*
X23109Y-17074D01*
X23109Y-17076D01*
X23097Y-17115D01*
X23093Y-17146D01*
X23093Y-17154D01*
X23093Y-17156D01*
X23028Y-17169D01*
X22945Y-17204D01*
X22870Y-17253D01*
X22806Y-17317D01*
X22756Y-17391D01*
X22721Y-17474D01*
X22703Y-17562D01*
X22703Y-17652D01*
X22720Y-17740D01*
X22753Y-17823D01*
X22802Y-17898D01*
X22865Y-17963D01*
X22939Y-18013D01*
X23022Y-18049D01*
X23110Y-18067D01*
X23200Y-18069D01*
X23490Y-18068D01*
X23578Y-18051D01*
X23661Y-18016D01*
X23736Y-17967D01*
X23800Y-17903D01*
X23850Y-17829D01*
X23885Y-17746D01*
X23903Y-17658D01*
X23903Y-17568D01*
X23886Y-17480D01*
X23853Y-17397D01*
X23833Y-17367D01*
X25772Y-17367D01*
X25756Y-17391D01*
X25721Y-17474D01*
X25703Y-17562D01*
X25703Y-17652D01*
X25720Y-17740D01*
X25753Y-17823D01*
X25802Y-17898D01*
X25865Y-17963D01*
X25939Y-18013D01*
X26022Y-18049D01*
X26110Y-18067D01*
X26200Y-18069D01*
X26490Y-18068D01*
X26578Y-18051D01*
X26661Y-18016D01*
X26736Y-17967D01*
X26800Y-17903D01*
X26850Y-17829D01*
X26885Y-17746D01*
X26903Y-17658D01*
X26903Y-17568D01*
X26886Y-17480D01*
X26853Y-17397D01*
X26833Y-17367D01*
X27289Y-17367D01*
X27291Y-17367D01*
X27329Y-17363D01*
X27332Y-17363D01*
X27332Y-17400D01*
X27338Y-17429D01*
X27349Y-17456D01*
X27365Y-17480D01*
X27386Y-17501D01*
X27410Y-17517D01*
X27437Y-17528D01*
X27466Y-17534D01*
X27495Y-17534D01*
X28046Y-17534D01*
X28075Y-17528D01*
X28102Y-17517D01*
X28126Y-17501D01*
X28147Y-17480D01*
X28163Y-17456D01*
X28174Y-17429D01*
X28180Y-17400D01*
X28180Y-17371D01*
X28180Y-16820D01*
X28174Y-16791D01*
X28163Y-16764D01*
X28147Y-16740D01*
X28126Y-16719D01*
X28102Y-16703D01*
X28075Y-16692D01*
X28046Y-16686D01*
X28017Y-16686D01*
X27466Y-16686D01*
X27437Y-16692D01*
X27410Y-16703D01*
X27386Y-16719D01*
X27365Y-16740D01*
X27349Y-16764D01*
X27338Y-16791D01*
X27332Y-16820D01*
X27332Y-16849D01*
X27332Y-16900D01*
X27297Y-16904D01*
X27275Y-16910D01*
X27260Y-16915D01*
X27258Y-16915D01*
X27258Y-16916D01*
X27222Y-16935D01*
X27207Y-16947D01*
X26756Y-16947D01*
X26800Y-16903D01*
X26850Y-16829D01*
X26885Y-16746D01*
X26903Y-16658D01*
X26903Y-16568D01*
X26886Y-16480D01*
X26853Y-16397D01*
X26836Y-16372D01*
X27350Y-15859D01*
X27853Y-15859D01*
X27855Y-15859D01*
X27893Y-15855D01*
X27896Y-15855D01*
X27921Y-15847D01*
X27933Y-15844D01*
X27934Y-15843D01*
X27935Y-15843D01*
X27969Y-15825D01*
X27971Y-15824D01*
X27989Y-15809D01*
X28001Y-15800D01*
X28001Y-15799D01*
X28003Y-15798D01*
X28003Y-15797D01*
X28007Y-15792D01*
X28121Y-15679D01*
X28492Y-16050D01*
X28492Y-17607D01*
X28492Y-17609D01*
X28496Y-17650D01*
X28503Y-17675D01*
X28507Y-17687D01*
X28507Y-17688D01*
X28508Y-17689D01*
X28526Y-17723D01*
X28527Y-17725D01*
X28541Y-17743D01*
X28551Y-17755D01*
X28553Y-17757D01*
X28554Y-17757D01*
X28558Y-17761D01*
X29552Y-18756D01*
X29553Y-18757D01*
X29554Y-18758D01*
X29560Y-18763D01*
X29584Y-18783D01*
X29586Y-18784D01*
X29620Y-18803D01*
X29622Y-18803D01*
X29659Y-18815D01*
X29661Y-18815D01*
X29700Y-18820D01*
X29702Y-18820D01*
X29703Y-18820D01*
X29932Y-18820D01*
X29953Y-18852D01*
X29976Y-18876D01*
X28450Y-18876D01*
X28281Y-18706D01*
X28281Y-18082D01*
X28265Y-17980D01*
X28230Y-17884D01*
X28208Y-17843D01*
X28117Y-17820D01*
X28046Y-17891D01*
X28046Y-17749D01*
X28023Y-17658D01*
X27930Y-17615D01*
X27830Y-17590D01*
X27728Y-17585D01*
X27626Y-17601D01*
X27530Y-17636D01*
X27489Y-17658D01*
X27466Y-17749D01*
X27756Y-18039D01*
X28046Y-17749D01*
X28046Y-17891D01*
X27827Y-18110D01*
X28117Y-18400D01*
X28208Y-18377D01*
X28251Y-18284D01*
X28276Y-18184D01*
X28281Y-18082D01*
X28281Y-18706D01*
X28046Y-18471D01*
X28038Y-18463D01*
X27791Y-18216D01*
X27756Y-18181D01*
X27685Y-18110D01*
X27650Y-18075D01*
X27395Y-17820D01*
X27304Y-17843D01*
X27261Y-17936D01*
X27236Y-18036D01*
X27231Y-18138D01*
X27247Y-18240D01*
X27282Y-18336D01*
X27304Y-18377D01*
X27339Y-18385D01*
X27325Y-18400D01*
X26854Y-18400D01*
X26853Y-18397D01*
X26804Y-18322D01*
X26741Y-18257D01*
X26667Y-18207D01*
X26584Y-18171D01*
X26496Y-18153D01*
X26406Y-18151D01*
X26116Y-18152D01*
X26028Y-18169D01*
X25945Y-18204D01*
X25870Y-18253D01*
X25806Y-18317D01*
X25756Y-18391D01*
X25721Y-18474D01*
X25703Y-18562D01*
X25703Y-18652D01*
X25720Y-18740D01*
X25753Y-18823D01*
X25772Y-18853D01*
X23833Y-18853D01*
X23850Y-18829D01*
X23885Y-18746D01*
X23903Y-18658D01*
X23903Y-18568D01*
X23886Y-18480D01*
X23853Y-18397D01*
X23804Y-18322D01*
X23741Y-18257D01*
X23667Y-18207D01*
X23584Y-18171D01*
X23496Y-18153D01*
X23406Y-18151D01*
X23116Y-18152D01*
X23028Y-18169D01*
X22945Y-18204D01*
X22870Y-18253D01*
X22806Y-18317D01*
X22756Y-18391D01*
X22721Y-18474D01*
X22703Y-18562D01*
X22703Y-18652D01*
X22720Y-18740D01*
X22753Y-18823D01*
X22802Y-18898D01*
X22865Y-18963D01*
X22939Y-19013D01*
X23022Y-19049D01*
X23073Y-19059D01*
X23035Y-19065D01*
X22932Y-19100D01*
X22837Y-19155D01*
X22755Y-19227D01*
X22688Y-19314D01*
X22640Y-19412D01*
X22621Y-19473D01*
X22668Y-19560D01*
X23203Y-19560D01*
X23253Y-19560D01*
X23353Y-19560D01*
X23403Y-19560D01*
X23938Y-19560D01*
X23985Y-19473D01*
X23966Y-19412D01*
X23918Y-19314D01*
X23886Y-19273D01*
X25850Y-19273D01*
X25806Y-19317D01*
X25756Y-19391D01*
X25721Y-19474D01*
X25703Y-19562D01*
X25703Y-19652D01*
X25720Y-19740D01*
X25753Y-19823D01*
X25802Y-19898D01*
X25865Y-19963D01*
X25939Y-20013D01*
X26022Y-20049D01*
X26093Y-20063D01*
X26097Y-20104D01*
X26104Y-20129D01*
X26108Y-20141D01*
X26108Y-20142D01*
X26109Y-20143D01*
X26127Y-20177D01*
X26128Y-20179D01*
X26142Y-20197D01*
X26152Y-20209D01*
X26154Y-20211D01*
X26155Y-20211D01*
X26159Y-20215D01*
X27046Y-21102D01*
X27046Y-21381D01*
X26988Y-21419D01*
X26929Y-21478D01*
X26882Y-21547D01*
X26849Y-21623D01*
X26832Y-21705D01*
X26830Y-21788D01*
X26846Y-21870D01*
X26876Y-21948D01*
X26922Y-22018D01*
X26979Y-22077D01*
X27048Y-22125D01*
X27124Y-22158D01*
X27206Y-22176D01*
X27289Y-22178D01*
X27371Y-22163D01*
X27449Y-22133D01*
X27519Y-22088D01*
X27580Y-22031D01*
X27627Y-21963D01*
X27661Y-21886D01*
X27680Y-21805D01*
X27681Y-21710D01*
X27665Y-21628D01*
X27633Y-21551D01*
X27587Y-21482D01*
X27528Y-21423D01*
X27466Y-21380D01*
X27466Y-21016D01*
X27462Y-20977D01*
X27462Y-20975D01*
X27455Y-20953D01*
X27451Y-20938D01*
X27450Y-20936D01*
X27432Y-20902D01*
X27431Y-20900D01*
X27412Y-20876D01*
X27406Y-20869D01*
X27405Y-20868D01*
X27404Y-20867D01*
X26584Y-20048D01*
X26661Y-20016D01*
X26736Y-19967D01*
X26800Y-19903D01*
X26850Y-19829D01*
X26885Y-19746D01*
X26903Y-19658D01*
X26903Y-19568D01*
X26886Y-19480D01*
X26853Y-19397D01*
X26804Y-19322D01*
X26756Y-19273D01*
X27363Y-19273D01*
X27376Y-19306D01*
X27422Y-19376D01*
X27479Y-19435D01*
X27548Y-19483D01*
X27624Y-19516D01*
X27706Y-19534D01*
X27789Y-19536D01*
X27871Y-19521D01*
X27949Y-19491D01*
X28019Y-19446D01*
X28080Y-19389D01*
X28127Y-19321D01*
X28161Y-19244D01*
X28173Y-19192D01*
X28213Y-19232D01*
X28214Y-19233D01*
X28215Y-19234D01*
X28245Y-19259D01*
X28247Y-19261D01*
X28279Y-19277D01*
X28281Y-19279D01*
X28283Y-19280D01*
X28320Y-19291D01*
X28322Y-19292D01*
X28353Y-19295D01*
X28361Y-19296D01*
X28363Y-19296D01*
X28364Y-19296D01*
X30474Y-19296D01*
X30476Y-19296D01*
X30514Y-19292D01*
X30517Y-19292D01*
X30542Y-19284D01*
X30554Y-19281D01*
X30555Y-19280D01*
X30556Y-19280D01*
X30590Y-19262D01*
X30592Y-19261D01*
X30610Y-19246D01*
X30622Y-19237D01*
X30622Y-19236D01*
X30624Y-19235D01*
X30624Y-19234D01*
X30628Y-19229D01*
X31196Y-18662D01*
X31196Y-19124D01*
X31196Y-19126D01*
X31200Y-19167D01*
X31207Y-19192D01*
X31211Y-19204D01*
X31211Y-19205D01*
X31212Y-19206D01*
X31230Y-19240D01*
X31231Y-19242D01*
X31245Y-19260D01*
X31255Y-19272D01*
X31257Y-19274D01*
X31258Y-19274D01*
X31262Y-19278D01*
X31479Y-19496D01*
X31466Y-19563D01*
X31464Y-19646D01*
X31480Y-19728D01*
X31510Y-19806D01*
X31556Y-19876D01*
X31613Y-19935D01*
X31682Y-19983D01*
X31758Y-20016D01*
X31840Y-20034D01*
X31923Y-20036D01*
X32005Y-20021D01*
X32083Y-19991D01*
X32153Y-19946D01*
X32214Y-19889D01*
X32261Y-19821D01*
X32295Y-19744D01*
X32314Y-19663D01*
X32315Y-19568D01*
X32299Y-19486D01*
X32267Y-19409D01*
X32221Y-19340D01*
X32162Y-19281D01*
X32093Y-19234D01*
X32016Y-19202D01*
X31934Y-19185D01*
X31851Y-19185D01*
X31775Y-19198D01*
X31616Y-19039D01*
X31616Y-18937D01*
X31682Y-18983D01*
X31758Y-19016D01*
X31840Y-19034D01*
X31923Y-19036D01*
X32005Y-19021D01*
X32083Y-18991D01*
X32153Y-18946D01*
X32214Y-18889D01*
X32261Y-18821D01*
X32295Y-18744D01*
X32314Y-18663D01*
X32315Y-18568D01*
X32299Y-18486D01*
X32267Y-18409D01*
X32221Y-18340D01*
X32162Y-18281D01*
X32093Y-18234D01*
X32016Y-18202D01*
X31934Y-18185D01*
X31851Y-18185D01*
X31769Y-18200D01*
X31692Y-18232D01*
X31622Y-18277D01*
X31616Y-18283D01*
X31616Y-17937D01*
X31682Y-17983D01*
X31758Y-18016D01*
X31840Y-18034D01*
X31923Y-18036D01*
X32005Y-18021D01*
X32083Y-17991D01*
X32153Y-17946D01*
X32214Y-17889D01*
X32261Y-17821D01*
X32261Y-17820D01*
X32566Y-17820D01*
X32566Y-20885D01*
X32315Y-21136D01*
X32315Y-20568D01*
X32299Y-20486D01*
X32267Y-20409D01*
X32221Y-20340D01*
X32162Y-20281D01*
X32093Y-20234D01*
X32016Y-20202D01*
X31934Y-20185D01*
X31851Y-20185D01*
X31769Y-20200D01*
X31692Y-20232D01*
X31622Y-20277D01*
X31563Y-20336D01*
X31516Y-20405D01*
X31483Y-20481D01*
X31466Y-20563D01*
X31464Y-20646D01*
X31480Y-20728D01*
X31510Y-20806D01*
X31556Y-20876D01*
X31613Y-20935D01*
X31682Y-20983D01*
X31758Y-21016D01*
X31840Y-21034D01*
X31923Y-21036D01*
X32005Y-21021D01*
X32083Y-20991D01*
X32153Y-20946D01*
X32214Y-20889D01*
X32261Y-20821D01*
X32295Y-20744D01*
X32314Y-20663D01*
X32315Y-20568D01*
X32315Y-21136D01*
X32025Y-21426D01*
X31608Y-21426D01*
X31579Y-21432D01*
X31552Y-21443D01*
X31528Y-21459D01*
X31507Y-21480D01*
X31491Y-21504D01*
X31480Y-21531D01*
X31474Y-21560D01*
X31474Y-21589D01*
X31474Y-22140D01*
X31480Y-22169D01*
X31491Y-22196D01*
X31507Y-22220D01*
X31528Y-22241D01*
X31552Y-22257D01*
X31579Y-22268D01*
X31608Y-22274D01*
X31637Y-22274D01*
X32188Y-22274D01*
X32217Y-22268D01*
X32244Y-22257D01*
X32268Y-22241D01*
X32289Y-22220D01*
X32305Y-22196D01*
X32316Y-22169D01*
X32322Y-22140D01*
X32322Y-22111D01*
X32322Y-21722D01*
X32922Y-21122D01*
X32923Y-21122D01*
X32923Y-21121D01*
X32924Y-21121D01*
X32929Y-21114D01*
X32949Y-21091D01*
X32950Y-21089D01*
X32969Y-21055D01*
X32969Y-21053D01*
X32981Y-21016D01*
X32981Y-21014D01*
X32986Y-20975D01*
X32986Y-20973D01*
X32986Y-20972D01*
X32986Y-17620D01*
X32986Y-17618D01*
X32982Y-17580D01*
X32982Y-17577D01*
X32974Y-17551D01*
X32971Y-17540D01*
X32970Y-17538D01*
X32952Y-17504D01*
X32951Y-17502D01*
X32932Y-17478D01*
X32926Y-17471D01*
X32925Y-17470D01*
X32924Y-17469D01*
X32921Y-17466D01*
X32920Y-17465D01*
X32918Y-17463D01*
X32916Y-17462D01*
X32895Y-17443D01*
X32887Y-17437D01*
X32885Y-17435D01*
X32853Y-17418D01*
X32851Y-17417D01*
X32850Y-17416D01*
X32849Y-17416D01*
X32810Y-17404D01*
X32779Y-17400D01*
X32771Y-17400D01*
X32769Y-17400D01*
X32768Y-17400D01*
X32415Y-17400D01*
X32415Y-15909D01*
X32415Y-15722D01*
X32353Y-15660D01*
X31940Y-15660D01*
X31940Y-16073D01*
X32002Y-16135D01*
X32143Y-16135D01*
X32192Y-16135D01*
X32240Y-16125D01*
X32285Y-16106D01*
X32325Y-16078D01*
X32360Y-16043D01*
X32387Y-16002D01*
X32406Y-15957D01*
X32415Y-15909D01*
X32415Y-17400D01*
X32261Y-17400D01*
X32221Y-17340D01*
X32162Y-17281D01*
X32093Y-17234D01*
X32016Y-17202D01*
X31934Y-17185D01*
X31851Y-17185D01*
X31769Y-17200D01*
X31692Y-17232D01*
X31622Y-17277D01*
X31616Y-17283D01*
X31616Y-16937D01*
X31682Y-16983D01*
X31758Y-17016D01*
X31840Y-17034D01*
X31923Y-17036D01*
X32005Y-17021D01*
X32083Y-16991D01*
X32153Y-16946D01*
X32214Y-16889D01*
X32261Y-16821D01*
X32295Y-16744D01*
X32314Y-16663D01*
X32315Y-16568D01*
X32299Y-16486D01*
X32267Y-16409D01*
X32221Y-16340D01*
X32162Y-16281D01*
X32093Y-16234D01*
X32016Y-16202D01*
X31934Y-16185D01*
X31851Y-16185D01*
X31769Y-16200D01*
X31692Y-16232D01*
X31622Y-16277D01*
X31616Y-16283D01*
X31616Y-16135D01*
X31637Y-16135D01*
X31778Y-16135D01*
X31840Y-16073D01*
X31840Y-15710D01*
X31840Y-15660D01*
X31840Y-15560D01*
X31940Y-15560D01*
X31990Y-15560D01*
X32353Y-15560D01*
X32415Y-15498D01*
X32415Y-15311D01*
X32406Y-15263D01*
X32387Y-15218D01*
X32383Y-15212D01*
X32387Y-15210D01*
X32387Y-15209D01*
X32389Y-15208D01*
X32389Y-15207D01*
X32393Y-15202D01*
X32481Y-15114D01*
X32487Y-15110D01*
X32488Y-15108D01*
X32506Y-15087D01*
X32513Y-15079D01*
X32515Y-15077D01*
X32531Y-15045D01*
X32533Y-15043D01*
X32533Y-15042D01*
X32534Y-15041D01*
X32545Y-15004D01*
X32546Y-15002D01*
X32549Y-14971D01*
X32550Y-14963D01*
X32550Y-14961D01*
X32550Y-14960D01*
X32550Y-14108D01*
X32550Y-14106D01*
X32546Y-14068D01*
X32546Y-14065D01*
X32538Y-14039D01*
X32535Y-14028D01*
X32534Y-14026D01*
X32516Y-13992D01*
X32515Y-13990D01*
X32496Y-13966D01*
X32490Y-13959D01*
X32489Y-13958D01*
X32488Y-13957D01*
X32382Y-13852D01*
X32378Y-13847D01*
X32376Y-13846D01*
X32355Y-13827D01*
X32347Y-13821D01*
X32345Y-13819D01*
X32313Y-13802D01*
X32311Y-13801D01*
X32310Y-13800D01*
X32309Y-13800D01*
X32270Y-13788D01*
X32260Y-13787D01*
X32261Y-13786D01*
X32295Y-13709D01*
X32314Y-13628D01*
X32315Y-13533D01*
X32299Y-13451D01*
X32267Y-13374D01*
X32221Y-13305D01*
X32162Y-13246D01*
X32093Y-13199D01*
X32016Y-13167D01*
X31934Y-13150D01*
X31851Y-13150D01*
X31769Y-13165D01*
X31692Y-13197D01*
X31622Y-13242D01*
X31563Y-13301D01*
X31516Y-13370D01*
X31483Y-13446D01*
X31466Y-13528D01*
X31464Y-13611D01*
X31480Y-13693D01*
X31510Y-13771D01*
X31518Y-13784D01*
X31080Y-13784D01*
X31114Y-13709D01*
X31133Y-13628D01*
X31134Y-13533D01*
X31118Y-13451D01*
X31086Y-13374D01*
X31040Y-13305D01*
X30981Y-13246D01*
X30912Y-13199D01*
X30835Y-13167D01*
X30753Y-13150D01*
X30670Y-13150D01*
X30588Y-13165D01*
X30511Y-13197D01*
X30441Y-13242D01*
X30382Y-13301D01*
X30335Y-13370D01*
X30302Y-13446D01*
X30295Y-13477D01*
X30251Y-13433D01*
X30247Y-13428D01*
X30245Y-13427D01*
X30224Y-13408D01*
X30216Y-13402D01*
X30214Y-13400D01*
X30182Y-13383D01*
X30180Y-13382D01*
X30179Y-13381D01*
X30178Y-13381D01*
X30139Y-13369D01*
X30108Y-13365D01*
X30100Y-13365D01*
X30098Y-13365D01*
X30097Y-13365D01*
X29899Y-13365D01*
X29859Y-13305D01*
X29800Y-13246D01*
X29731Y-13199D01*
X29654Y-13167D01*
X29572Y-13150D01*
X29489Y-13150D01*
X29413Y-13163D01*
X29269Y-13020D01*
X33524Y-13020D01*
X33419Y-13089D01*
X33190Y-13313D01*
X33009Y-13578D01*
X32882Y-13873D01*
X32815Y-14186D01*
X32811Y-14507D01*
X32869Y-14823D01*
X32987Y-15121D01*
X33161Y-15391D01*
X33383Y-15622D01*
X33647Y-15805D01*
X33941Y-15933D01*
X34254Y-16002D01*
X34575Y-16009D01*
X34891Y-15953D01*
X35190Y-15837D01*
X35461Y-15666D01*
X35693Y-15444D01*
X35799Y-15293D01*
X35799Y-17696D01*
X35731Y-17628D01*
X35701Y-17657D01*
X35688Y-17614D01*
X35587Y-17566D01*
X35477Y-17538D01*
X35365Y-17532D01*
X35253Y-17547D01*
X35146Y-17585D01*
X35092Y-17614D01*
X35061Y-17710D01*
X35355Y-18004D01*
X35390Y-18039D01*
X35461Y-18110D01*
X35390Y-18181D01*
X35355Y-18216D01*
X35319Y-18252D01*
X35319Y-18110D01*
X34990Y-17781D01*
X34894Y-17812D01*
X34846Y-17913D01*
X34839Y-17939D01*
X34816Y-17884D01*
X34764Y-17805D01*
X34697Y-17738D01*
X34619Y-17686D01*
X34533Y-17649D01*
X34440Y-17630D01*
X34346Y-17630D01*
X34254Y-17647D01*
X34167Y-17683D01*
X34088Y-17734D01*
X34021Y-17800D01*
X33967Y-17878D01*
X33930Y-17964D01*
X33911Y-18056D01*
X33909Y-18150D01*
X33926Y-18243D01*
X33961Y-18330D01*
X34012Y-18410D01*
X34077Y-18477D01*
X34155Y-18531D01*
X34241Y-18569D01*
X34333Y-18589D01*
X34427Y-18591D01*
X34520Y-18575D01*
X34607Y-18541D01*
X34687Y-18490D01*
X34755Y-18425D01*
X34809Y-18348D01*
X34839Y-18281D01*
X34865Y-18354D01*
X34894Y-18408D01*
X34990Y-18439D01*
X35319Y-18110D01*
X35319Y-18252D01*
X35061Y-18510D01*
X35092Y-18606D01*
X35193Y-18654D01*
X35303Y-18682D01*
X35415Y-18688D01*
X35527Y-18673D01*
X35634Y-18635D01*
X35688Y-18606D01*
X35701Y-18562D01*
X35719Y-18580D01*
X35731Y-18592D01*
X35799Y-18524D01*
X35799Y-20925D01*
M02*
