G04 (created by PCBNEW-RS274X (2012-jan-04)-stable) date Sat 31 Mar 2012 05:41:53 PM CEST*
G01*
G70*
G90*
%MOIN*%
G04 Gerber Fmt 3.4, Leading zero omitted, Abs format*
%FSLAX34Y34*%
G04 APERTURE LIST*
%ADD10C,0.008000*%
%ADD11C,0.015000*%
%ADD12C,0.160000*%
%ADD13C,0.066000*%
%ADD14R,0.060000X0.060000*%
%ADD15C,0.060000*%
%ADD16R,0.055000X0.055000*%
%ADD17C,0.055000*%
%ADD18R,0.090000X0.062000*%
%ADD19O,0.090000X0.062000*%
%ADD20O,0.059100X0.047200*%
%ADD21C,0.012000*%
%ADD22C,0.010000*%
G04 APERTURE END LIST*
G54D10*
G54D11*
X38976Y-12795D02*
X19684Y-12795D01*
X38976Y-23425D02*
X38976Y-12795D01*
X19684Y-23425D02*
X38976Y-23425D01*
X19684Y-12795D02*
X19684Y-23425D01*
G54D12*
X21260Y-14370D03*
G54D13*
X37795Y-17610D03*
X37795Y-18610D03*
G54D14*
X29421Y-17110D03*
G54D15*
X30421Y-17110D03*
X29421Y-18110D03*
X30421Y-18110D03*
X29421Y-19110D03*
X30421Y-19110D03*
G54D12*
X37401Y-21850D03*
X37401Y-14370D03*
X21259Y-21850D03*
G54D16*
X20669Y-17110D03*
G54D17*
X20669Y-18110D03*
X20669Y-19110D03*
G54D18*
X23303Y-16610D03*
G54D19*
X23303Y-17610D03*
X23303Y-18610D03*
X23303Y-19610D03*
X26303Y-19610D03*
X26303Y-18610D03*
X26303Y-17610D03*
X26303Y-16610D03*
G54D16*
X27756Y-17110D03*
G54D17*
X27756Y-18110D03*
X27756Y-19110D03*
G54D15*
X27394Y-15157D03*
X23394Y-15157D03*
X27394Y-14173D03*
X23394Y-14173D03*
X32315Y-15157D03*
X28315Y-15157D03*
X30740Y-20472D03*
X26740Y-20472D03*
X32315Y-14173D03*
X28315Y-14173D03*
G54D17*
X22047Y-18610D03*
X22047Y-17610D03*
G54D15*
X36417Y-16110D03*
X36417Y-20110D03*
G54D16*
X31799Y-21850D03*
G54D17*
X30799Y-21850D03*
X32783Y-16338D03*
X31783Y-16338D03*
X31783Y-19882D03*
X32783Y-19882D03*
X24303Y-21653D03*
X25303Y-21653D03*
G54D16*
X34055Y-15610D03*
G54D17*
X34055Y-16610D03*
X34055Y-17610D03*
X34055Y-18610D03*
X34055Y-19610D03*
X34055Y-20610D03*
G54D20*
X32677Y-17610D03*
X32677Y-18610D03*
X32177Y-18110D03*
G54D21*
X36417Y-16110D02*
X37795Y-17488D01*
X37795Y-17488D02*
X37795Y-17610D01*
X29821Y-16667D02*
X29421Y-16667D01*
X32315Y-14173D02*
X29821Y-16667D01*
X29421Y-17110D02*
X29421Y-16667D01*
X27394Y-14173D02*
X27846Y-13721D01*
X28976Y-14207D02*
X28976Y-17666D01*
X28977Y-17666D02*
X29421Y-18110D01*
X28976Y-17666D02*
X28977Y-17666D01*
X28490Y-13721D02*
X28976Y-14207D01*
X27846Y-13721D02*
X28490Y-13721D01*
X32677Y-17610D02*
X34055Y-17610D01*
X32783Y-17504D02*
X32677Y-17610D01*
X32783Y-16338D02*
X32783Y-17504D01*
X27756Y-20461D02*
X27756Y-19110D01*
X27287Y-20930D02*
X27756Y-20461D01*
X25623Y-20930D02*
X27287Y-20930D01*
X23756Y-19063D02*
X25623Y-20930D01*
X23303Y-19063D02*
X23756Y-19063D01*
X23303Y-18610D02*
X23303Y-19063D01*
X34055Y-15610D02*
X35197Y-15610D01*
X30020Y-19511D02*
X30421Y-19110D01*
X28543Y-18111D02*
X28543Y-21653D01*
X28544Y-18110D02*
X28543Y-18111D01*
X27756Y-18110D02*
X28544Y-18110D01*
X35433Y-15846D02*
X35433Y-17716D01*
X30020Y-20669D02*
X30020Y-19511D01*
X25303Y-21653D02*
X25303Y-22252D01*
X23819Y-20669D02*
X24319Y-20669D01*
X35197Y-15610D02*
X35433Y-15846D01*
X23303Y-20153D02*
X23819Y-20669D01*
X25303Y-22252D02*
X25984Y-22933D01*
X25984Y-22933D02*
X32185Y-22933D01*
X32185Y-22933D02*
X32783Y-22335D01*
X31783Y-16338D02*
X31890Y-16338D01*
X31890Y-16338D02*
X32618Y-15610D01*
X29036Y-21653D02*
X30020Y-20669D01*
X28543Y-21653D02*
X29036Y-21653D01*
X32618Y-15610D02*
X34055Y-15610D01*
X22047Y-17610D02*
X22047Y-17815D01*
X31783Y-17716D02*
X32177Y-18110D01*
X31783Y-16338D02*
X31783Y-17716D01*
X20669Y-18110D02*
X21547Y-18110D01*
X21547Y-18110D02*
X22047Y-17610D01*
X35433Y-17716D02*
X36327Y-18610D01*
X32783Y-22335D02*
X32783Y-19882D01*
X22047Y-17815D02*
X22539Y-18307D01*
X22539Y-18307D02*
X22539Y-18846D01*
X24319Y-20669D02*
X25303Y-21653D01*
X23303Y-19610D02*
X23303Y-20153D01*
X25303Y-21653D02*
X28543Y-21653D01*
X22539Y-18846D02*
X23303Y-19610D01*
X36327Y-18610D02*
X37795Y-18610D01*
X27221Y-19991D02*
X27221Y-19110D01*
X26740Y-20472D02*
X27221Y-19991D01*
X28315Y-15597D02*
X28315Y-15157D01*
X27221Y-16691D02*
X28315Y-15597D01*
X27221Y-19110D02*
X27221Y-16691D01*
X23896Y-16986D02*
X23896Y-16610D01*
X26020Y-19110D02*
X23896Y-16986D01*
X27221Y-19110D02*
X26020Y-19110D01*
X23303Y-16610D02*
X23896Y-16610D01*
X26303Y-19610D02*
X25710Y-19610D01*
X22709Y-15842D02*
X23394Y-15157D01*
X22709Y-17030D02*
X22709Y-15842D01*
X25710Y-19610D02*
X25710Y-19235D01*
X23539Y-17064D02*
X22743Y-17064D01*
X25710Y-19235D02*
X23539Y-17064D01*
X22743Y-17064D02*
X22709Y-17030D01*
X27017Y-17772D02*
X26632Y-18157D01*
X27017Y-16439D02*
X27017Y-17772D01*
X26303Y-18610D02*
X26303Y-18157D01*
X27855Y-14633D02*
X27855Y-15601D01*
X27855Y-15601D02*
X27017Y-16439D01*
X26632Y-18157D02*
X26303Y-18157D01*
X28315Y-14173D02*
X27855Y-14633D01*
X25974Y-17157D02*
X26303Y-17157D01*
X25016Y-16199D02*
X25974Y-17157D01*
X25016Y-15795D02*
X25016Y-16199D01*
X23394Y-14173D02*
X25016Y-15795D01*
X26303Y-17610D02*
X26303Y-17157D01*
X31284Y-17110D02*
X31398Y-17224D01*
X31398Y-17224D02*
X31398Y-19882D01*
X30421Y-17110D02*
X31284Y-17110D01*
X30799Y-21850D02*
X30799Y-20531D01*
X21547Y-19110D02*
X22047Y-18610D01*
X30799Y-20531D02*
X30740Y-20472D01*
X20669Y-19110D02*
X21547Y-19110D01*
X31783Y-19882D02*
X31783Y-19504D01*
X31783Y-19882D02*
X31398Y-19882D01*
X31330Y-19882D02*
X30740Y-20472D01*
X31398Y-19882D02*
X31330Y-19882D01*
X31783Y-19504D02*
X32677Y-18610D01*
G54D10*
G36*
X38751Y-20925D02*
X38675Y-20811D01*
X38449Y-20584D01*
X38373Y-20532D01*
X38373Y-18585D01*
X38358Y-18473D01*
X38320Y-18366D01*
X38291Y-18312D01*
X38195Y-18281D01*
X37866Y-18610D01*
X38195Y-18939D01*
X38291Y-18908D01*
X38339Y-18807D01*
X38367Y-18697D01*
X38373Y-18585D01*
X38373Y-20532D01*
X38183Y-20404D01*
X38124Y-20379D01*
X38124Y-19010D01*
X37795Y-18681D01*
X37724Y-18752D01*
X37724Y-18610D01*
X37395Y-18281D01*
X37299Y-18312D01*
X37251Y-18413D01*
X37223Y-18523D01*
X37217Y-18635D01*
X37232Y-18747D01*
X37270Y-18854D01*
X37299Y-18908D01*
X37395Y-18939D01*
X37724Y-18610D01*
X37724Y-18752D01*
X37466Y-19010D01*
X37497Y-19106D01*
X37598Y-19154D01*
X37708Y-19182D01*
X37820Y-19188D01*
X37932Y-19173D01*
X38039Y-19135D01*
X38093Y-19106D01*
X38124Y-19010D01*
X38124Y-20379D01*
X37887Y-20280D01*
X37573Y-20215D01*
X37252Y-20213D01*
X36937Y-20273D01*
X36814Y-20322D01*
X36846Y-20253D01*
X36866Y-20167D01*
X36867Y-20066D01*
X36850Y-19979D01*
X36816Y-19898D01*
X36767Y-19824D01*
X36705Y-19762D01*
X36632Y-19712D01*
X36551Y-19678D01*
X36464Y-19660D01*
X36376Y-19660D01*
X36289Y-19676D01*
X36208Y-19709D01*
X36134Y-19758D01*
X36071Y-19819D01*
X36021Y-19892D01*
X35986Y-19973D01*
X35968Y-20059D01*
X35966Y-20148D01*
X35982Y-20235D01*
X36015Y-20317D01*
X36063Y-20391D01*
X36124Y-20454D01*
X36196Y-20505D01*
X36277Y-20540D01*
X36363Y-20559D01*
X36385Y-20559D01*
X36371Y-20569D01*
X36142Y-20793D01*
X35961Y-21058D01*
X35834Y-21353D01*
X35767Y-21666D01*
X35763Y-21987D01*
X35821Y-22303D01*
X35939Y-22601D01*
X36113Y-22871D01*
X36335Y-23102D01*
X36476Y-23200D01*
X34580Y-23200D01*
X34580Y-15909D01*
X34580Y-15722D01*
X34580Y-15498D01*
X34580Y-15311D01*
X34571Y-15263D01*
X34552Y-15218D01*
X34525Y-15177D01*
X34490Y-15142D01*
X34450Y-15114D01*
X34405Y-15095D01*
X34357Y-15085D01*
X34308Y-15085D01*
X34167Y-15085D01*
X34105Y-15147D01*
X34105Y-15560D01*
X34518Y-15560D01*
X34580Y-15498D01*
X34580Y-15722D01*
X34518Y-15660D01*
X34105Y-15660D01*
X34105Y-16073D01*
X34167Y-16135D01*
X34308Y-16135D01*
X34357Y-16135D01*
X34405Y-16125D01*
X34450Y-16106D01*
X34490Y-16078D01*
X34525Y-16043D01*
X34552Y-16002D01*
X34571Y-15957D01*
X34580Y-15909D01*
X34580Y-23200D01*
X34480Y-23200D01*
X34480Y-20568D01*
X34480Y-19568D01*
X34480Y-18568D01*
X34480Y-17568D01*
X34480Y-16568D01*
X34464Y-16486D01*
X34432Y-16409D01*
X34386Y-16340D01*
X34327Y-16281D01*
X34258Y-16234D01*
X34181Y-16202D01*
X34099Y-16185D01*
X34016Y-16185D01*
X34005Y-16187D01*
X34005Y-16073D01*
X34005Y-15660D01*
X34005Y-15560D01*
X34005Y-15147D01*
X33943Y-15085D01*
X33802Y-15085D01*
X33753Y-15085D01*
X33705Y-15095D01*
X33660Y-15114D01*
X33620Y-15142D01*
X33585Y-15177D01*
X33558Y-15218D01*
X33539Y-15263D01*
X33530Y-15311D01*
X33530Y-15498D01*
X33592Y-15560D01*
X34005Y-15560D01*
X34005Y-15660D01*
X33592Y-15660D01*
X33530Y-15722D01*
X33530Y-15909D01*
X33539Y-15957D01*
X33558Y-16002D01*
X33585Y-16043D01*
X33620Y-16078D01*
X33660Y-16106D01*
X33705Y-16125D01*
X33753Y-16135D01*
X33802Y-16135D01*
X33943Y-16135D01*
X34005Y-16073D01*
X34005Y-16187D01*
X33934Y-16200D01*
X33857Y-16232D01*
X33787Y-16277D01*
X33728Y-16336D01*
X33681Y-16405D01*
X33648Y-16481D01*
X33631Y-16563D01*
X33629Y-16646D01*
X33645Y-16728D01*
X33675Y-16806D01*
X33721Y-16876D01*
X33778Y-16935D01*
X33847Y-16983D01*
X33923Y-17016D01*
X34005Y-17034D01*
X34088Y-17036D01*
X34170Y-17021D01*
X34248Y-16991D01*
X34318Y-16946D01*
X34379Y-16889D01*
X34426Y-16821D01*
X34460Y-16744D01*
X34479Y-16663D01*
X34480Y-16568D01*
X34480Y-17568D01*
X34464Y-17486D01*
X34432Y-17409D01*
X34386Y-17340D01*
X34327Y-17281D01*
X34258Y-17234D01*
X34181Y-17202D01*
X34099Y-17185D01*
X34016Y-17185D01*
X33934Y-17200D01*
X33857Y-17232D01*
X33787Y-17277D01*
X33728Y-17336D01*
X33684Y-17400D01*
X33059Y-17400D01*
X33039Y-17368D01*
X32993Y-17321D01*
X32993Y-16708D01*
X33046Y-16674D01*
X33107Y-16617D01*
X33154Y-16549D01*
X33188Y-16472D01*
X33207Y-16391D01*
X33208Y-16296D01*
X33192Y-16214D01*
X33160Y-16137D01*
X33114Y-16068D01*
X33055Y-16009D01*
X32986Y-15962D01*
X32909Y-15930D01*
X32827Y-15913D01*
X32765Y-15913D01*
X32765Y-15113D01*
X32765Y-14129D01*
X32748Y-14042D01*
X32714Y-13961D01*
X32665Y-13887D01*
X32603Y-13825D01*
X32530Y-13775D01*
X32449Y-13741D01*
X32362Y-13723D01*
X32274Y-13723D01*
X32187Y-13739D01*
X32106Y-13772D01*
X32032Y-13821D01*
X31969Y-13882D01*
X31919Y-13955D01*
X31884Y-14036D01*
X31866Y-14122D01*
X31864Y-14211D01*
X31880Y-14298D01*
X31883Y-14307D01*
X29734Y-16457D01*
X29422Y-16457D01*
X29421Y-16457D01*
X29380Y-16461D01*
X29363Y-16466D01*
X29342Y-16472D01*
X29306Y-16491D01*
X29274Y-16517D01*
X29273Y-16517D01*
X29273Y-16518D01*
X29268Y-16524D01*
X29248Y-16548D01*
X29228Y-16584D01*
X29227Y-16584D01*
X29227Y-16586D01*
X29215Y-16625D01*
X29211Y-16656D01*
X29211Y-16661D01*
X29186Y-16661D01*
X29186Y-14209D01*
X29186Y-14207D01*
X29182Y-14169D01*
X29182Y-14166D01*
X29174Y-14140D01*
X29171Y-14129D01*
X29170Y-14127D01*
X29152Y-14093D01*
X29151Y-14091D01*
X29132Y-14067D01*
X29126Y-14060D01*
X29125Y-14059D01*
X29124Y-14058D01*
X28644Y-13579D01*
X28640Y-13574D01*
X28638Y-13573D01*
X28617Y-13554D01*
X28609Y-13548D01*
X28607Y-13546D01*
X28575Y-13529D01*
X28573Y-13528D01*
X28572Y-13527D01*
X28571Y-13527D01*
X28532Y-13515D01*
X28501Y-13511D01*
X28493Y-13511D01*
X28491Y-13511D01*
X28490Y-13511D01*
X27848Y-13511D01*
X27846Y-13511D01*
X27805Y-13515D01*
X27779Y-13522D01*
X27768Y-13526D01*
X27766Y-13526D01*
X27766Y-13527D01*
X27730Y-13546D01*
X27706Y-13565D01*
X27699Y-13571D01*
X27698Y-13572D01*
X27697Y-13573D01*
X27528Y-13741D01*
X27441Y-13723D01*
X27353Y-13723D01*
X27266Y-13739D01*
X27185Y-13772D01*
X27111Y-13821D01*
X27048Y-13882D01*
X26998Y-13955D01*
X26963Y-14036D01*
X26945Y-14122D01*
X26943Y-14211D01*
X26959Y-14298D01*
X26992Y-14380D01*
X27040Y-14454D01*
X27101Y-14517D01*
X27173Y-14568D01*
X27254Y-14603D01*
X27340Y-14622D01*
X27429Y-14624D01*
X27515Y-14609D01*
X27598Y-14577D01*
X27672Y-14529D01*
X27663Y-14548D01*
X27662Y-14550D01*
X27661Y-14550D01*
X27661Y-14552D01*
X27649Y-14591D01*
X27645Y-14622D01*
X27645Y-14630D01*
X27645Y-14632D01*
X27645Y-14633D01*
X27645Y-14783D01*
X27609Y-14759D01*
X27528Y-14725D01*
X27441Y-14707D01*
X27353Y-14707D01*
X27266Y-14723D01*
X27185Y-14756D01*
X27111Y-14805D01*
X27048Y-14866D01*
X26998Y-14939D01*
X26963Y-15020D01*
X26945Y-15106D01*
X26943Y-15195D01*
X26959Y-15282D01*
X26992Y-15364D01*
X27040Y-15438D01*
X27101Y-15501D01*
X27173Y-15552D01*
X27254Y-15587D01*
X27340Y-15606D01*
X27429Y-15608D01*
X27515Y-15593D01*
X27598Y-15561D01*
X26875Y-16284D01*
X26870Y-16289D01*
X26850Y-16312D01*
X26842Y-16322D01*
X26825Y-16354D01*
X26804Y-16322D01*
X26741Y-16257D01*
X26667Y-16207D01*
X26584Y-16171D01*
X26496Y-16153D01*
X26406Y-16151D01*
X26116Y-16152D01*
X26028Y-16169D01*
X25945Y-16204D01*
X25870Y-16253D01*
X25806Y-16317D01*
X25756Y-16391D01*
X25721Y-16474D01*
X25703Y-16562D01*
X25703Y-16589D01*
X25226Y-16112D01*
X25226Y-15795D01*
X25222Y-15756D01*
X25222Y-15754D01*
X25215Y-15732D01*
X25211Y-15717D01*
X25210Y-15715D01*
X25191Y-15679D01*
X25168Y-15651D01*
X25166Y-15648D01*
X25165Y-15647D01*
X25164Y-15646D01*
X23824Y-14307D01*
X23843Y-14230D01*
X23844Y-14129D01*
X23827Y-14042D01*
X23793Y-13961D01*
X23744Y-13887D01*
X23682Y-13825D01*
X23609Y-13775D01*
X23528Y-13741D01*
X23441Y-13723D01*
X23353Y-13723D01*
X23266Y-13739D01*
X23185Y-13772D01*
X23111Y-13821D01*
X23048Y-13882D01*
X22998Y-13955D01*
X22963Y-14036D01*
X22945Y-14122D01*
X22943Y-14211D01*
X22959Y-14298D01*
X22992Y-14380D01*
X23040Y-14454D01*
X23101Y-14517D01*
X23173Y-14568D01*
X23254Y-14603D01*
X23340Y-14622D01*
X23429Y-14624D01*
X23515Y-14609D01*
X23528Y-14603D01*
X24806Y-15881D01*
X24806Y-16197D01*
X24806Y-16199D01*
X24810Y-16240D01*
X24817Y-16265D01*
X24821Y-16277D01*
X24821Y-16278D01*
X24822Y-16279D01*
X24840Y-16313D01*
X24841Y-16315D01*
X24855Y-16333D01*
X24865Y-16345D01*
X24867Y-16347D01*
X24868Y-16347D01*
X24872Y-16351D01*
X25821Y-17301D01*
X25806Y-17317D01*
X25756Y-17391D01*
X25721Y-17474D01*
X25703Y-17562D01*
X25703Y-17652D01*
X25720Y-17740D01*
X25753Y-17823D01*
X25802Y-17898D01*
X25865Y-17963D01*
X25939Y-18013D01*
X26022Y-18049D01*
X26110Y-18067D01*
X26113Y-18067D01*
X26110Y-18074D01*
X26109Y-18074D01*
X26109Y-18076D01*
X26097Y-18115D01*
X26093Y-18146D01*
X26093Y-18154D01*
X26093Y-18156D01*
X26028Y-18169D01*
X25945Y-18204D01*
X25870Y-18253D01*
X25806Y-18317D01*
X25756Y-18391D01*
X25721Y-18474D01*
X25714Y-18507D01*
X24106Y-16899D01*
X24106Y-16611D01*
X24106Y-16610D01*
X24102Y-16571D01*
X24102Y-16569D01*
X24096Y-16552D01*
X24091Y-16531D01*
X24090Y-16530D01*
X24072Y-16495D01*
X24071Y-16494D01*
X24046Y-16463D01*
X24045Y-16462D01*
X24038Y-16457D01*
X24015Y-16437D01*
X24013Y-16436D01*
X23979Y-16417D01*
X23978Y-16416D01*
X23977Y-16416D01*
X23938Y-16404D01*
X23907Y-16400D01*
X23902Y-16400D01*
X23902Y-16285D01*
X23896Y-16256D01*
X23885Y-16229D01*
X23869Y-16205D01*
X23848Y-16184D01*
X23824Y-16168D01*
X23797Y-16157D01*
X23768Y-16151D01*
X23739Y-16151D01*
X22919Y-16151D01*
X22919Y-15928D01*
X23259Y-15588D01*
X23340Y-15606D01*
X23429Y-15608D01*
X23515Y-15593D01*
X23598Y-15561D01*
X23672Y-15513D01*
X23736Y-15453D01*
X23787Y-15380D01*
X23823Y-15300D01*
X23843Y-15214D01*
X23844Y-15113D01*
X23827Y-15026D01*
X23793Y-14945D01*
X23744Y-14871D01*
X23682Y-14809D01*
X23609Y-14759D01*
X23528Y-14725D01*
X23441Y-14707D01*
X23353Y-14707D01*
X23266Y-14723D01*
X23185Y-14756D01*
X23111Y-14805D01*
X23048Y-14866D01*
X22998Y-14939D01*
X22963Y-15020D01*
X22945Y-15106D01*
X22943Y-15195D01*
X22959Y-15282D01*
X22962Y-15291D01*
X22567Y-15687D01*
X22562Y-15692D01*
X22542Y-15715D01*
X22534Y-15725D01*
X22517Y-15757D01*
X22516Y-15759D01*
X22515Y-15759D01*
X22515Y-15761D01*
X22503Y-15800D01*
X22499Y-15831D01*
X22499Y-15839D01*
X22499Y-15841D01*
X22499Y-15842D01*
X22499Y-17028D01*
X22499Y-17030D01*
X22503Y-17071D01*
X22510Y-17096D01*
X22514Y-17108D01*
X22514Y-17109D01*
X22515Y-17110D01*
X22533Y-17144D01*
X22534Y-17146D01*
X22548Y-17164D01*
X22558Y-17176D01*
X22560Y-17178D01*
X22561Y-17178D01*
X22564Y-17181D01*
X22592Y-17210D01*
X22593Y-17211D01*
X22594Y-17212D01*
X22624Y-17237D01*
X22626Y-17239D01*
X22658Y-17255D01*
X22660Y-17257D01*
X22662Y-17258D01*
X22699Y-17269D01*
X22701Y-17270D01*
X22732Y-17273D01*
X22740Y-17274D01*
X22742Y-17274D01*
X22743Y-17274D01*
X22849Y-17274D01*
X22806Y-17317D01*
X22756Y-17391D01*
X22721Y-17474D01*
X22703Y-17562D01*
X22703Y-17652D01*
X22720Y-17740D01*
X22753Y-17823D01*
X22802Y-17898D01*
X22865Y-17963D01*
X22939Y-18013D01*
X23022Y-18049D01*
X23110Y-18067D01*
X23200Y-18069D01*
X23490Y-18068D01*
X23578Y-18051D01*
X23661Y-18016D01*
X23736Y-17967D01*
X23800Y-17903D01*
X23850Y-17829D01*
X23885Y-17746D01*
X23891Y-17712D01*
X25500Y-19321D01*
X25500Y-19609D01*
X25500Y-19610D01*
X25504Y-19651D01*
X25509Y-19667D01*
X25515Y-19689D01*
X25516Y-19690D01*
X25534Y-19725D01*
X25535Y-19726D01*
X25560Y-19757D01*
X25561Y-19758D01*
X25567Y-19763D01*
X25591Y-19783D01*
X25593Y-19784D01*
X25627Y-19803D01*
X25629Y-19804D01*
X25666Y-19815D01*
X25668Y-19816D01*
X25699Y-19819D01*
X25707Y-19820D01*
X25709Y-19820D01*
X25710Y-19820D01*
X25751Y-19820D01*
X25753Y-19823D01*
X25802Y-19898D01*
X25865Y-19963D01*
X25939Y-20013D01*
X26022Y-20049D01*
X26110Y-20067D01*
X26200Y-20069D01*
X26490Y-20068D01*
X26578Y-20051D01*
X26531Y-20071D01*
X26457Y-20120D01*
X26394Y-20181D01*
X26344Y-20254D01*
X26309Y-20335D01*
X26291Y-20421D01*
X26289Y-20510D01*
X26305Y-20597D01*
X26338Y-20679D01*
X26364Y-20720D01*
X25709Y-20720D01*
X23910Y-18921D01*
X23906Y-18916D01*
X23904Y-18915D01*
X23883Y-18896D01*
X23875Y-18890D01*
X23873Y-18888D01*
X23841Y-18871D01*
X23839Y-18870D01*
X23838Y-18869D01*
X23837Y-18869D01*
X23825Y-18865D01*
X23850Y-18829D01*
X23885Y-18746D01*
X23903Y-18658D01*
X23903Y-18568D01*
X23886Y-18480D01*
X23853Y-18397D01*
X23804Y-18322D01*
X23741Y-18257D01*
X23667Y-18207D01*
X23584Y-18171D01*
X23496Y-18153D01*
X23406Y-18151D01*
X23116Y-18152D01*
X23028Y-18169D01*
X22945Y-18204D01*
X22870Y-18253D01*
X22806Y-18317D01*
X22756Y-18391D01*
X22721Y-18474D01*
X22703Y-18562D01*
X22703Y-18652D01*
X22720Y-18740D01*
X22753Y-18823D01*
X22802Y-18898D01*
X22865Y-18963D01*
X22939Y-19013D01*
X23022Y-19049D01*
X23073Y-19059D01*
X23035Y-19065D01*
X22932Y-19100D01*
X22837Y-19155D01*
X22755Y-19227D01*
X22688Y-19314D01*
X22640Y-19412D01*
X22621Y-19473D01*
X22668Y-19560D01*
X23203Y-19560D01*
X23253Y-19560D01*
X23353Y-19560D01*
X23403Y-19560D01*
X23938Y-19560D01*
X23944Y-19547D01*
X25472Y-21076D01*
X25473Y-21077D01*
X25474Y-21078D01*
X25480Y-21083D01*
X25504Y-21103D01*
X25506Y-21104D01*
X25540Y-21123D01*
X25542Y-21124D01*
X25579Y-21135D01*
X25581Y-21136D01*
X25612Y-21139D01*
X25620Y-21140D01*
X25622Y-21140D01*
X25623Y-21140D01*
X27285Y-21140D01*
X27287Y-21140D01*
X27325Y-21136D01*
X27328Y-21136D01*
X27353Y-21128D01*
X27365Y-21125D01*
X27366Y-21124D01*
X27367Y-21124D01*
X27401Y-21106D01*
X27403Y-21105D01*
X27421Y-21090D01*
X27433Y-21081D01*
X27433Y-21080D01*
X27435Y-21079D01*
X27435Y-21078D01*
X27439Y-21073D01*
X27902Y-20611D01*
X27903Y-20611D01*
X27903Y-20610D01*
X27904Y-20610D01*
X27909Y-20603D01*
X27929Y-20580D01*
X27930Y-20578D01*
X27949Y-20544D01*
X27949Y-20543D01*
X27950Y-20542D01*
X27961Y-20505D01*
X27962Y-20503D01*
X27965Y-20472D01*
X27966Y-20464D01*
X27966Y-20462D01*
X27966Y-20461D01*
X27966Y-19480D01*
X28019Y-19446D01*
X28080Y-19389D01*
X28127Y-19321D01*
X28161Y-19244D01*
X28180Y-19163D01*
X28181Y-19068D01*
X28165Y-18986D01*
X28133Y-18909D01*
X28087Y-18840D01*
X28046Y-18799D01*
X28028Y-18781D01*
X27959Y-18734D01*
X27882Y-18702D01*
X27800Y-18685D01*
X27717Y-18685D01*
X27635Y-18700D01*
X27558Y-18732D01*
X27488Y-18777D01*
X27431Y-18834D01*
X27431Y-18530D01*
X27454Y-18553D01*
X27480Y-18526D01*
X27489Y-18562D01*
X27582Y-18605D01*
X27682Y-18630D01*
X27784Y-18635D01*
X27886Y-18619D01*
X27982Y-18584D01*
X28023Y-18562D01*
X28046Y-18471D01*
X27791Y-18216D01*
X27756Y-18181D01*
X27685Y-18110D01*
X27756Y-18039D01*
X27791Y-18004D01*
X28046Y-17749D01*
X28023Y-17658D01*
X27930Y-17615D01*
X27830Y-17590D01*
X27728Y-17585D01*
X27626Y-17601D01*
X27530Y-17636D01*
X27489Y-17658D01*
X27480Y-17693D01*
X27454Y-17667D01*
X27431Y-17690D01*
X27431Y-17525D01*
X27437Y-17528D01*
X27466Y-17534D01*
X27495Y-17534D01*
X28046Y-17534D01*
X28075Y-17528D01*
X28102Y-17517D01*
X28126Y-17501D01*
X28147Y-17480D01*
X28163Y-17456D01*
X28174Y-17429D01*
X28180Y-17400D01*
X28180Y-17371D01*
X28180Y-16820D01*
X28174Y-16791D01*
X28163Y-16764D01*
X28147Y-16740D01*
X28126Y-16719D01*
X28102Y-16703D01*
X28075Y-16692D01*
X28046Y-16686D01*
X28017Y-16686D01*
X27522Y-16686D01*
X28461Y-15747D01*
X28462Y-15747D01*
X28462Y-15746D01*
X28463Y-15746D01*
X28488Y-15716D01*
X28490Y-15714D01*
X28506Y-15682D01*
X28508Y-15680D01*
X28508Y-15679D01*
X28509Y-15678D01*
X28520Y-15641D01*
X28521Y-15639D01*
X28524Y-15608D01*
X28525Y-15600D01*
X28525Y-15598D01*
X28525Y-15597D01*
X28525Y-15557D01*
X28593Y-15513D01*
X28657Y-15453D01*
X28708Y-15380D01*
X28744Y-15300D01*
X28764Y-15214D01*
X28765Y-15113D01*
X28748Y-15026D01*
X28714Y-14945D01*
X28665Y-14871D01*
X28603Y-14809D01*
X28530Y-14759D01*
X28449Y-14725D01*
X28362Y-14707D01*
X28274Y-14707D01*
X28187Y-14723D01*
X28106Y-14756D01*
X28065Y-14783D01*
X28065Y-14719D01*
X28180Y-14604D01*
X28261Y-14622D01*
X28350Y-14624D01*
X28436Y-14609D01*
X28519Y-14577D01*
X28593Y-14529D01*
X28657Y-14469D01*
X28708Y-14396D01*
X28744Y-14316D01*
X28752Y-14280D01*
X28766Y-14293D01*
X28766Y-17665D01*
X28766Y-17666D01*
X28770Y-17707D01*
X28775Y-17723D01*
X28781Y-17745D01*
X28782Y-17746D01*
X28800Y-17781D01*
X28801Y-17782D01*
X28826Y-17813D01*
X28827Y-17814D01*
X28833Y-17819D01*
X28837Y-17822D01*
X28838Y-17823D01*
X28989Y-17974D01*
X28972Y-18059D01*
X28970Y-18148D01*
X28986Y-18235D01*
X29019Y-18317D01*
X29067Y-18391D01*
X29128Y-18454D01*
X29200Y-18505D01*
X29281Y-18540D01*
X29367Y-18559D01*
X29456Y-18561D01*
X29542Y-18546D01*
X29625Y-18514D01*
X29699Y-18466D01*
X29763Y-18406D01*
X29814Y-18333D01*
X29850Y-18253D01*
X29870Y-18167D01*
X29871Y-18066D01*
X29854Y-17979D01*
X29820Y-17898D01*
X29771Y-17824D01*
X29709Y-17762D01*
X29636Y-17712D01*
X29555Y-17678D01*
X29468Y-17660D01*
X29380Y-17660D01*
X29293Y-17676D01*
X29286Y-17678D01*
X29186Y-17578D01*
X29186Y-17559D01*
X29736Y-17559D01*
X29765Y-17553D01*
X29792Y-17542D01*
X29816Y-17526D01*
X29837Y-17505D01*
X29853Y-17481D01*
X29864Y-17454D01*
X29870Y-17425D01*
X29870Y-17396D01*
X29870Y-16870D01*
X29887Y-16865D01*
X29899Y-16862D01*
X29900Y-16861D01*
X29901Y-16861D01*
X29935Y-16843D01*
X29937Y-16842D01*
X29955Y-16827D01*
X29967Y-16818D01*
X29967Y-16817D01*
X29969Y-16816D01*
X29969Y-16815D01*
X29973Y-16810D01*
X32180Y-14604D01*
X32261Y-14622D01*
X32350Y-14624D01*
X32436Y-14609D01*
X32519Y-14577D01*
X32593Y-14529D01*
X32657Y-14469D01*
X32708Y-14396D01*
X32744Y-14316D01*
X32764Y-14230D01*
X32765Y-14129D01*
X32765Y-15113D01*
X32748Y-15026D01*
X32714Y-14945D01*
X32665Y-14871D01*
X32603Y-14809D01*
X32530Y-14759D01*
X32449Y-14725D01*
X32362Y-14707D01*
X32274Y-14707D01*
X32187Y-14723D01*
X32106Y-14756D01*
X32032Y-14805D01*
X31969Y-14866D01*
X31919Y-14939D01*
X31884Y-15020D01*
X31866Y-15106D01*
X31864Y-15195D01*
X31880Y-15282D01*
X31913Y-15364D01*
X31961Y-15438D01*
X32022Y-15501D01*
X32094Y-15552D01*
X32175Y-15587D01*
X32261Y-15606D01*
X32350Y-15608D01*
X32436Y-15593D01*
X32519Y-15561D01*
X32593Y-15513D01*
X32657Y-15453D01*
X32708Y-15380D01*
X32744Y-15300D01*
X32764Y-15214D01*
X32765Y-15113D01*
X32765Y-15913D01*
X32744Y-15913D01*
X32662Y-15928D01*
X32585Y-15960D01*
X32515Y-16005D01*
X32456Y-16064D01*
X32409Y-16133D01*
X32376Y-16209D01*
X32359Y-16291D01*
X32357Y-16374D01*
X32373Y-16456D01*
X32403Y-16534D01*
X32449Y-16604D01*
X32506Y-16663D01*
X32573Y-16709D01*
X32573Y-17227D01*
X32504Y-17241D01*
X32435Y-17269D01*
X32372Y-17311D01*
X32318Y-17364D01*
X32308Y-17379D01*
X32308Y-16310D01*
X32292Y-16208D01*
X32257Y-16112D01*
X32235Y-16071D01*
X32144Y-16048D01*
X32073Y-16119D01*
X32073Y-15977D01*
X32050Y-15886D01*
X31957Y-15843D01*
X31857Y-15818D01*
X31755Y-15813D01*
X31653Y-15829D01*
X31557Y-15864D01*
X31516Y-15886D01*
X31493Y-15977D01*
X31783Y-16267D01*
X32073Y-15977D01*
X32073Y-16119D01*
X31854Y-16338D01*
X32144Y-16628D01*
X32235Y-16605D01*
X32278Y-16512D01*
X32303Y-16412D01*
X32308Y-16310D01*
X32308Y-17379D01*
X32276Y-17427D01*
X32247Y-17496D01*
X32232Y-17570D01*
X32232Y-17645D01*
X32238Y-17678D01*
X32227Y-17687D01*
X32227Y-18060D01*
X32657Y-18060D01*
X32699Y-17994D01*
X32776Y-17994D01*
X32850Y-17979D01*
X32919Y-17951D01*
X32982Y-17909D01*
X33036Y-17856D01*
X33060Y-17820D01*
X33684Y-17820D01*
X33721Y-17876D01*
X33778Y-17935D01*
X33847Y-17983D01*
X33923Y-18016D01*
X34005Y-18034D01*
X34088Y-18036D01*
X34170Y-18021D01*
X34248Y-17991D01*
X34318Y-17946D01*
X34379Y-17889D01*
X34426Y-17821D01*
X34460Y-17744D01*
X34479Y-17663D01*
X34480Y-17568D01*
X34480Y-18568D01*
X34464Y-18486D01*
X34432Y-18409D01*
X34386Y-18340D01*
X34327Y-18281D01*
X34258Y-18234D01*
X34181Y-18202D01*
X34099Y-18185D01*
X34016Y-18185D01*
X33934Y-18200D01*
X33857Y-18232D01*
X33787Y-18277D01*
X33728Y-18336D01*
X33681Y-18405D01*
X33648Y-18481D01*
X33631Y-18563D01*
X33629Y-18646D01*
X33645Y-18728D01*
X33675Y-18806D01*
X33721Y-18876D01*
X33778Y-18935D01*
X33847Y-18983D01*
X33923Y-19016D01*
X34005Y-19034D01*
X34088Y-19036D01*
X34170Y-19021D01*
X34248Y-18991D01*
X34318Y-18946D01*
X34379Y-18889D01*
X34426Y-18821D01*
X34460Y-18744D01*
X34479Y-18663D01*
X34480Y-18568D01*
X34480Y-19568D01*
X34464Y-19486D01*
X34432Y-19409D01*
X34386Y-19340D01*
X34327Y-19281D01*
X34258Y-19234D01*
X34181Y-19202D01*
X34099Y-19185D01*
X34016Y-19185D01*
X33934Y-19200D01*
X33857Y-19232D01*
X33787Y-19277D01*
X33728Y-19336D01*
X33681Y-19405D01*
X33648Y-19481D01*
X33631Y-19563D01*
X33629Y-19646D01*
X33645Y-19728D01*
X33675Y-19806D01*
X33721Y-19876D01*
X33778Y-19935D01*
X33847Y-19983D01*
X33923Y-20016D01*
X34005Y-20034D01*
X34088Y-20036D01*
X34170Y-20021D01*
X34248Y-19991D01*
X34318Y-19946D01*
X34379Y-19889D01*
X34426Y-19821D01*
X34460Y-19744D01*
X34479Y-19663D01*
X34480Y-19568D01*
X34480Y-20568D01*
X34464Y-20486D01*
X34432Y-20409D01*
X34386Y-20340D01*
X34327Y-20281D01*
X34258Y-20234D01*
X34181Y-20202D01*
X34099Y-20185D01*
X34016Y-20185D01*
X33934Y-20200D01*
X33857Y-20232D01*
X33787Y-20277D01*
X33728Y-20336D01*
X33681Y-20405D01*
X33648Y-20481D01*
X33631Y-20563D01*
X33629Y-20646D01*
X33645Y-20728D01*
X33675Y-20806D01*
X33721Y-20876D01*
X33778Y-20935D01*
X33847Y-20983D01*
X33923Y-21016D01*
X34005Y-21034D01*
X34088Y-21036D01*
X34170Y-21021D01*
X34248Y-20991D01*
X34318Y-20946D01*
X34379Y-20889D01*
X34426Y-20821D01*
X34460Y-20744D01*
X34479Y-20663D01*
X34480Y-20568D01*
X34480Y-23200D01*
X33308Y-23200D01*
X33308Y-19854D01*
X33292Y-19752D01*
X33257Y-19656D01*
X33235Y-19615D01*
X33144Y-19592D01*
X33122Y-19614D01*
X33122Y-18650D01*
X33122Y-18575D01*
X33108Y-18501D01*
X33080Y-18431D01*
X33039Y-18368D01*
X32986Y-18314D01*
X32924Y-18272D01*
X32854Y-18242D01*
X32781Y-18226D01*
X32705Y-18226D01*
X32699Y-18226D01*
X32657Y-18160D01*
X32227Y-18160D01*
X32227Y-18533D01*
X32237Y-18541D01*
X32232Y-18570D01*
X32232Y-18645D01*
X32246Y-18719D01*
X32253Y-18737D01*
X32127Y-18863D01*
X32127Y-18533D01*
X32127Y-18160D01*
X32127Y-18060D01*
X32127Y-17687D01*
X32073Y-17646D01*
X32073Y-16699D01*
X31783Y-16409D01*
X31712Y-16480D01*
X31712Y-16338D01*
X31422Y-16048D01*
X31331Y-16071D01*
X31288Y-16164D01*
X31263Y-16264D01*
X31258Y-16366D01*
X31274Y-16468D01*
X31309Y-16564D01*
X31331Y-16605D01*
X31422Y-16628D01*
X31712Y-16338D01*
X31712Y-16480D01*
X31493Y-16699D01*
X31516Y-16790D01*
X31609Y-16833D01*
X31709Y-16858D01*
X31811Y-16863D01*
X31913Y-16847D01*
X32009Y-16812D01*
X32050Y-16790D01*
X32073Y-16699D01*
X32073Y-17646D01*
X32051Y-17630D01*
X31959Y-17652D01*
X31873Y-17692D01*
X31796Y-17748D01*
X31732Y-17817D01*
X31682Y-17898D01*
X31649Y-17985D01*
X31697Y-18060D01*
X32127Y-18060D01*
X32127Y-18160D01*
X31697Y-18160D01*
X31649Y-18235D01*
X31682Y-18322D01*
X31732Y-18403D01*
X31796Y-18472D01*
X31873Y-18528D01*
X31959Y-18568D01*
X32051Y-18590D01*
X32127Y-18533D01*
X32127Y-18863D01*
X31641Y-19349D01*
X31636Y-19354D01*
X31616Y-19377D01*
X31608Y-19387D01*
X31608Y-17226D01*
X31608Y-17224D01*
X31604Y-17186D01*
X31604Y-17183D01*
X31596Y-17157D01*
X31593Y-17146D01*
X31592Y-17144D01*
X31574Y-17110D01*
X31573Y-17108D01*
X31554Y-17084D01*
X31548Y-17077D01*
X31547Y-17076D01*
X31546Y-17075D01*
X31438Y-16968D01*
X31434Y-16963D01*
X31432Y-16962D01*
X31411Y-16943D01*
X31403Y-16937D01*
X31401Y-16935D01*
X31369Y-16918D01*
X31367Y-16917D01*
X31366Y-16916D01*
X31365Y-16916D01*
X31326Y-16904D01*
X31295Y-16900D01*
X31287Y-16900D01*
X31285Y-16900D01*
X31284Y-16900D01*
X30820Y-16900D01*
X30820Y-16898D01*
X30771Y-16824D01*
X30709Y-16762D01*
X30636Y-16712D01*
X30555Y-16678D01*
X30468Y-16660D01*
X30380Y-16660D01*
X30293Y-16676D01*
X30212Y-16709D01*
X30138Y-16758D01*
X30075Y-16819D01*
X30025Y-16892D01*
X29990Y-16973D01*
X29972Y-17059D01*
X29970Y-17148D01*
X29986Y-17235D01*
X30019Y-17317D01*
X30067Y-17391D01*
X30128Y-17454D01*
X30200Y-17505D01*
X30281Y-17540D01*
X30367Y-17559D01*
X30456Y-17561D01*
X30542Y-17546D01*
X30625Y-17514D01*
X30699Y-17466D01*
X30763Y-17406D01*
X30814Y-17333D01*
X30819Y-17320D01*
X31188Y-17320D01*
X31188Y-19728D01*
X31183Y-19732D01*
X31182Y-19733D01*
X31181Y-19734D01*
X30970Y-19945D01*
X30970Y-19083D01*
X30954Y-18977D01*
X30918Y-18876D01*
X30893Y-18829D01*
X30871Y-18822D01*
X30871Y-18066D01*
X30854Y-17979D01*
X30820Y-17898D01*
X30771Y-17824D01*
X30709Y-17762D01*
X30636Y-17712D01*
X30555Y-17678D01*
X30468Y-17660D01*
X30380Y-17660D01*
X30293Y-17676D01*
X30212Y-17709D01*
X30138Y-17758D01*
X30075Y-17819D01*
X30025Y-17892D01*
X29990Y-17973D01*
X29972Y-18059D01*
X29970Y-18148D01*
X29986Y-18235D01*
X30019Y-18317D01*
X30067Y-18391D01*
X30128Y-18454D01*
X30200Y-18505D01*
X30281Y-18540D01*
X30367Y-18559D01*
X30456Y-18561D01*
X30542Y-18546D01*
X30625Y-18514D01*
X30699Y-18466D01*
X30763Y-18406D01*
X30814Y-18333D01*
X30850Y-18253D01*
X30870Y-18167D01*
X30871Y-18066D01*
X30871Y-18822D01*
X30799Y-18802D01*
X30729Y-18872D01*
X30729Y-18732D01*
X30702Y-18638D01*
X30605Y-18592D01*
X30501Y-18566D01*
X30394Y-18561D01*
X30288Y-18577D01*
X30187Y-18613D01*
X30140Y-18638D01*
X30113Y-18732D01*
X30421Y-19039D01*
X30729Y-18732D01*
X30729Y-18872D01*
X30492Y-19110D01*
X30799Y-19418D01*
X30893Y-19391D01*
X30939Y-19294D01*
X30965Y-19190D01*
X30970Y-19083D01*
X30970Y-19945D01*
X30875Y-20040D01*
X30874Y-20040D01*
X30787Y-20022D01*
X30729Y-20022D01*
X30729Y-19488D01*
X30421Y-19181D01*
X30350Y-19251D01*
X30350Y-19110D01*
X30043Y-18802D01*
X29949Y-18829D01*
X29903Y-18926D01*
X29877Y-19030D01*
X29872Y-19137D01*
X29888Y-19243D01*
X29924Y-19344D01*
X29949Y-19391D01*
X30043Y-19418D01*
X30350Y-19110D01*
X30350Y-19251D01*
X30113Y-19488D01*
X30140Y-19582D01*
X30237Y-19628D01*
X30341Y-19654D01*
X30448Y-19659D01*
X30554Y-19643D01*
X30655Y-19607D01*
X30702Y-19582D01*
X30729Y-19488D01*
X30729Y-20022D01*
X30699Y-20022D01*
X30612Y-20038D01*
X30531Y-20071D01*
X30457Y-20120D01*
X30394Y-20181D01*
X30344Y-20254D01*
X30309Y-20335D01*
X30291Y-20421D01*
X30289Y-20510D01*
X30305Y-20597D01*
X30338Y-20679D01*
X30386Y-20753D01*
X30447Y-20816D01*
X30519Y-20867D01*
X30589Y-20897D01*
X30589Y-21479D01*
X30531Y-21517D01*
X30472Y-21576D01*
X30425Y-21645D01*
X30392Y-21721D01*
X30375Y-21803D01*
X30373Y-21886D01*
X30389Y-21968D01*
X30419Y-22046D01*
X30465Y-22116D01*
X30522Y-22175D01*
X30591Y-22223D01*
X30667Y-22256D01*
X30749Y-22274D01*
X30832Y-22276D01*
X30914Y-22261D01*
X30992Y-22231D01*
X31062Y-22186D01*
X31123Y-22129D01*
X31170Y-22061D01*
X31204Y-21984D01*
X31223Y-21903D01*
X31224Y-21808D01*
X31208Y-21726D01*
X31176Y-21649D01*
X31130Y-21580D01*
X31071Y-21521D01*
X31009Y-21478D01*
X31009Y-20833D01*
X31018Y-20828D01*
X31082Y-20768D01*
X31133Y-20695D01*
X31169Y-20615D01*
X31189Y-20529D01*
X31190Y-20428D01*
X31173Y-20341D01*
X31171Y-20337D01*
X31414Y-20094D01*
X31449Y-20148D01*
X31506Y-20207D01*
X31575Y-20255D01*
X31651Y-20288D01*
X31733Y-20306D01*
X31816Y-20308D01*
X31898Y-20293D01*
X31976Y-20263D01*
X32046Y-20218D01*
X32107Y-20161D01*
X32154Y-20093D01*
X32188Y-20016D01*
X32207Y-19935D01*
X32208Y-19840D01*
X32192Y-19758D01*
X32160Y-19681D01*
X32114Y-19612D01*
X32055Y-19553D01*
X32040Y-19542D01*
X32589Y-18994D01*
X32649Y-18994D01*
X32776Y-18994D01*
X32850Y-18979D01*
X32919Y-18951D01*
X32982Y-18909D01*
X33036Y-18856D01*
X33078Y-18793D01*
X33107Y-18724D01*
X33122Y-18650D01*
X33122Y-19614D01*
X33073Y-19663D01*
X33073Y-19521D01*
X33050Y-19430D01*
X32957Y-19387D01*
X32857Y-19362D01*
X32755Y-19357D01*
X32653Y-19373D01*
X32557Y-19408D01*
X32516Y-19430D01*
X32493Y-19521D01*
X32783Y-19811D01*
X33073Y-19521D01*
X33073Y-19663D01*
X32854Y-19882D01*
X33144Y-20172D01*
X33235Y-20149D01*
X33278Y-20056D01*
X33303Y-19956D01*
X33308Y-19854D01*
X33308Y-23200D01*
X33073Y-23200D01*
X33073Y-20243D01*
X32783Y-19953D01*
X32712Y-20024D01*
X32712Y-19882D01*
X32422Y-19592D01*
X32331Y-19615D01*
X32288Y-19708D01*
X32263Y-19808D01*
X32258Y-19910D01*
X32274Y-20012D01*
X32309Y-20108D01*
X32331Y-20149D01*
X32422Y-20172D01*
X32712Y-19882D01*
X32712Y-20024D01*
X32493Y-20243D01*
X32516Y-20334D01*
X32609Y-20377D01*
X32709Y-20402D01*
X32811Y-20407D01*
X32913Y-20391D01*
X33009Y-20356D01*
X33050Y-20334D01*
X33073Y-20243D01*
X33073Y-23200D01*
X32223Y-23200D01*
X32223Y-22140D01*
X32223Y-22111D01*
X32223Y-21560D01*
X32217Y-21531D01*
X32206Y-21504D01*
X32190Y-21480D01*
X32169Y-21459D01*
X32145Y-21443D01*
X32118Y-21432D01*
X32089Y-21426D01*
X32060Y-21426D01*
X31509Y-21426D01*
X31480Y-21432D01*
X31453Y-21443D01*
X31429Y-21459D01*
X31408Y-21480D01*
X31392Y-21504D01*
X31381Y-21531D01*
X31375Y-21560D01*
X31375Y-21589D01*
X31375Y-22140D01*
X31381Y-22169D01*
X31392Y-22196D01*
X31408Y-22220D01*
X31429Y-22241D01*
X31453Y-22257D01*
X31480Y-22268D01*
X31509Y-22274D01*
X31538Y-22274D01*
X32089Y-22274D01*
X32118Y-22268D01*
X32145Y-22257D01*
X32169Y-22241D01*
X32190Y-22220D01*
X32206Y-22196D01*
X32217Y-22169D01*
X32223Y-22140D01*
X32223Y-23200D01*
X29871Y-23200D01*
X29871Y-19066D01*
X29854Y-18979D01*
X29820Y-18898D01*
X29771Y-18824D01*
X29709Y-18762D01*
X29636Y-18712D01*
X29555Y-18678D01*
X29468Y-18660D01*
X29380Y-18660D01*
X29293Y-18676D01*
X29212Y-18709D01*
X29138Y-18758D01*
X29075Y-18819D01*
X29025Y-18892D01*
X28990Y-18973D01*
X28972Y-19059D01*
X28970Y-19148D01*
X28986Y-19235D01*
X29019Y-19317D01*
X29067Y-19391D01*
X29128Y-19454D01*
X29200Y-19505D01*
X29281Y-19540D01*
X29367Y-19559D01*
X29456Y-19561D01*
X29542Y-19546D01*
X29625Y-19514D01*
X29699Y-19466D01*
X29763Y-19406D01*
X29814Y-19333D01*
X29850Y-19253D01*
X29870Y-19167D01*
X29871Y-19066D01*
X29871Y-23200D01*
X28281Y-23200D01*
X28281Y-18082D01*
X28265Y-17980D01*
X28230Y-17884D01*
X28208Y-17843D01*
X28117Y-17820D01*
X28046Y-17891D01*
X27827Y-18110D01*
X28117Y-18400D01*
X28208Y-18377D01*
X28251Y-18284D01*
X28276Y-18184D01*
X28281Y-18082D01*
X28281Y-23200D01*
X25828Y-23200D01*
X25828Y-21625D01*
X25812Y-21523D01*
X25777Y-21427D01*
X25755Y-21386D01*
X25664Y-21363D01*
X25593Y-21434D01*
X25593Y-21292D01*
X25570Y-21201D01*
X25477Y-21158D01*
X25377Y-21133D01*
X25275Y-21128D01*
X25173Y-21144D01*
X25077Y-21179D01*
X25036Y-21201D01*
X25013Y-21292D01*
X25303Y-21582D01*
X25593Y-21292D01*
X25593Y-21434D01*
X25374Y-21653D01*
X25664Y-21943D01*
X25755Y-21920D01*
X25798Y-21827D01*
X25823Y-21727D01*
X25828Y-21625D01*
X25828Y-23200D01*
X25593Y-23200D01*
X25593Y-22014D01*
X25303Y-21724D01*
X25232Y-21795D01*
X25232Y-21653D01*
X24942Y-21363D01*
X24851Y-21386D01*
X24808Y-21479D01*
X24783Y-21579D01*
X24778Y-21681D01*
X24794Y-21783D01*
X24829Y-21879D01*
X24851Y-21920D01*
X24942Y-21943D01*
X25232Y-21653D01*
X25232Y-21795D01*
X25013Y-22014D01*
X25036Y-22105D01*
X25129Y-22148D01*
X25229Y-22173D01*
X25331Y-22178D01*
X25433Y-22162D01*
X25529Y-22127D01*
X25570Y-22105D01*
X25593Y-22014D01*
X25593Y-23200D01*
X24728Y-23200D01*
X24728Y-21611D01*
X24712Y-21529D01*
X24680Y-21452D01*
X24634Y-21383D01*
X24575Y-21324D01*
X24506Y-21277D01*
X24429Y-21245D01*
X24347Y-21228D01*
X24264Y-21228D01*
X24182Y-21243D01*
X24105Y-21275D01*
X24035Y-21320D01*
X23985Y-21370D01*
X23985Y-19747D01*
X23938Y-19660D01*
X23353Y-19660D01*
X23353Y-20170D01*
X23463Y-20170D01*
X23571Y-20155D01*
X23674Y-20120D01*
X23769Y-20065D01*
X23851Y-19993D01*
X23918Y-19906D01*
X23966Y-19808D01*
X23985Y-19747D01*
X23985Y-21370D01*
X23976Y-21379D01*
X23929Y-21448D01*
X23896Y-21524D01*
X23879Y-21606D01*
X23877Y-21689D01*
X23893Y-21771D01*
X23923Y-21849D01*
X23969Y-21919D01*
X24026Y-21978D01*
X24095Y-22026D01*
X24171Y-22059D01*
X24253Y-22077D01*
X24336Y-22079D01*
X24418Y-22064D01*
X24496Y-22034D01*
X24566Y-21989D01*
X24627Y-21932D01*
X24674Y-21864D01*
X24708Y-21787D01*
X24727Y-21706D01*
X24728Y-21611D01*
X24728Y-23200D01*
X23253Y-23200D01*
X23253Y-20170D01*
X23253Y-19660D01*
X22668Y-19660D01*
X22621Y-19747D01*
X22640Y-19808D01*
X22688Y-19906D01*
X22755Y-19993D01*
X22837Y-20065D01*
X22932Y-20120D01*
X23035Y-20155D01*
X23143Y-20170D01*
X23253Y-20170D01*
X23253Y-23200D01*
X22185Y-23200D01*
X22271Y-23146D01*
X22503Y-22924D01*
X22688Y-22662D01*
X22819Y-22369D01*
X22890Y-22056D01*
X22895Y-21690D01*
X22833Y-21375D01*
X22711Y-21079D01*
X22572Y-20869D01*
X22572Y-17582D01*
X22556Y-17480D01*
X22521Y-17384D01*
X22499Y-17343D01*
X22408Y-17320D01*
X22337Y-17391D01*
X22337Y-17249D01*
X22314Y-17158D01*
X22221Y-17115D01*
X22121Y-17090D01*
X22019Y-17085D01*
X21917Y-17101D01*
X21821Y-17136D01*
X21780Y-17158D01*
X21757Y-17249D01*
X22047Y-17539D01*
X22337Y-17249D01*
X22337Y-17391D01*
X22118Y-17610D01*
X22408Y-17900D01*
X22499Y-17877D01*
X22542Y-17784D01*
X22567Y-17684D01*
X22572Y-17582D01*
X22572Y-20869D01*
X22533Y-20811D01*
X22472Y-20749D01*
X22472Y-18568D01*
X22456Y-18486D01*
X22424Y-18409D01*
X22378Y-18340D01*
X22337Y-18299D01*
X22337Y-17971D01*
X22047Y-17681D01*
X21976Y-17752D01*
X21976Y-17610D01*
X21686Y-17320D01*
X21595Y-17343D01*
X21552Y-17436D01*
X21527Y-17536D01*
X21522Y-17638D01*
X21538Y-17740D01*
X21573Y-17836D01*
X21595Y-17877D01*
X21686Y-17900D01*
X21976Y-17610D01*
X21976Y-17752D01*
X21757Y-17971D01*
X21780Y-18062D01*
X21873Y-18105D01*
X21973Y-18130D01*
X22075Y-18135D01*
X22177Y-18119D01*
X22273Y-18084D01*
X22314Y-18062D01*
X22337Y-17971D01*
X22337Y-18299D01*
X22319Y-18281D01*
X22250Y-18234D01*
X22173Y-18202D01*
X22091Y-18185D01*
X22008Y-18185D01*
X21926Y-18200D01*
X21849Y-18232D01*
X21779Y-18277D01*
X21720Y-18336D01*
X21673Y-18405D01*
X21640Y-18481D01*
X21623Y-18563D01*
X21621Y-18646D01*
X21636Y-18724D01*
X21460Y-18900D01*
X21194Y-18900D01*
X21194Y-18082D01*
X21178Y-17980D01*
X21143Y-17884D01*
X21121Y-17843D01*
X21093Y-17835D01*
X21093Y-17400D01*
X21093Y-17371D01*
X21093Y-16820D01*
X21087Y-16791D01*
X21076Y-16764D01*
X21060Y-16740D01*
X21039Y-16719D01*
X21015Y-16703D01*
X20988Y-16692D01*
X20959Y-16686D01*
X20930Y-16686D01*
X20379Y-16686D01*
X20350Y-16692D01*
X20323Y-16703D01*
X20299Y-16719D01*
X20278Y-16740D01*
X20262Y-16764D01*
X20251Y-16791D01*
X20245Y-16820D01*
X20245Y-16849D01*
X20245Y-17400D01*
X20251Y-17429D01*
X20262Y-17456D01*
X20278Y-17480D01*
X20299Y-17501D01*
X20323Y-17517D01*
X20350Y-17528D01*
X20379Y-17534D01*
X20408Y-17534D01*
X20959Y-17534D01*
X20988Y-17528D01*
X21015Y-17517D01*
X21039Y-17501D01*
X21060Y-17480D01*
X21076Y-17456D01*
X21087Y-17429D01*
X21093Y-17400D01*
X21093Y-17835D01*
X21030Y-17820D01*
X20959Y-17891D01*
X20959Y-17749D01*
X20936Y-17658D01*
X20843Y-17615D01*
X20743Y-17590D01*
X20641Y-17585D01*
X20539Y-17601D01*
X20443Y-17636D01*
X20402Y-17658D01*
X20379Y-17749D01*
X20669Y-18039D01*
X20959Y-17749D01*
X20959Y-17891D01*
X20740Y-18110D01*
X21030Y-18400D01*
X21121Y-18377D01*
X21164Y-18284D01*
X21189Y-18184D01*
X21194Y-18082D01*
X21194Y-18900D01*
X21040Y-18900D01*
X21000Y-18840D01*
X20959Y-18799D01*
X20959Y-18471D01*
X20669Y-18181D01*
X20598Y-18252D01*
X20598Y-18110D01*
X20308Y-17820D01*
X20217Y-17843D01*
X20174Y-17936D01*
X20149Y-18036D01*
X20144Y-18138D01*
X20160Y-18240D01*
X20195Y-18336D01*
X20217Y-18377D01*
X20308Y-18400D01*
X20598Y-18110D01*
X20598Y-18252D01*
X20379Y-18471D01*
X20402Y-18562D01*
X20495Y-18605D01*
X20595Y-18630D01*
X20697Y-18635D01*
X20799Y-18619D01*
X20895Y-18584D01*
X20936Y-18562D01*
X20959Y-18471D01*
X20959Y-18799D01*
X20941Y-18781D01*
X20872Y-18734D01*
X20795Y-18702D01*
X20713Y-18685D01*
X20630Y-18685D01*
X20548Y-18700D01*
X20471Y-18732D01*
X20401Y-18777D01*
X20342Y-18836D01*
X20295Y-18905D01*
X20262Y-18981D01*
X20245Y-19063D01*
X20243Y-19146D01*
X20259Y-19228D01*
X20289Y-19306D01*
X20335Y-19376D01*
X20392Y-19435D01*
X20461Y-19483D01*
X20537Y-19516D01*
X20619Y-19534D01*
X20702Y-19536D01*
X20784Y-19521D01*
X20862Y-19491D01*
X20932Y-19446D01*
X20993Y-19389D01*
X21040Y-19321D01*
X21040Y-19320D01*
X21545Y-19320D01*
X21547Y-19320D01*
X21585Y-19316D01*
X21588Y-19316D01*
X21613Y-19308D01*
X21625Y-19305D01*
X21626Y-19304D01*
X21627Y-19304D01*
X21661Y-19286D01*
X21663Y-19285D01*
X21681Y-19270D01*
X21693Y-19261D01*
X21693Y-19260D01*
X21695Y-19259D01*
X21695Y-19258D01*
X21699Y-19253D01*
X21933Y-19020D01*
X21997Y-19034D01*
X22080Y-19036D01*
X22162Y-19021D01*
X22240Y-18991D01*
X22310Y-18946D01*
X22371Y-18889D01*
X22418Y-18821D01*
X22452Y-18744D01*
X22471Y-18663D01*
X22472Y-18568D01*
X22472Y-20749D01*
X22307Y-20584D01*
X22041Y-20404D01*
X21745Y-20280D01*
X21431Y-20215D01*
X21110Y-20213D01*
X20795Y-20273D01*
X20498Y-20393D01*
X20229Y-20569D01*
X20000Y-20793D01*
X19909Y-20926D01*
X19909Y-15293D01*
X19972Y-15391D01*
X20194Y-15622D01*
X20458Y-15805D01*
X20752Y-15933D01*
X21065Y-16002D01*
X21386Y-16009D01*
X21702Y-15953D01*
X22001Y-15837D01*
X22272Y-15666D01*
X22504Y-15444D01*
X22689Y-15182D01*
X22820Y-14889D01*
X22891Y-14576D01*
X22896Y-14210D01*
X22834Y-13895D01*
X22712Y-13599D01*
X22534Y-13331D01*
X22308Y-13104D01*
X22183Y-13020D01*
X36476Y-13020D01*
X36371Y-13089D01*
X36142Y-13313D01*
X35961Y-13578D01*
X35834Y-13873D01*
X35767Y-14186D01*
X35763Y-14507D01*
X35821Y-14823D01*
X35939Y-15121D01*
X36113Y-15391D01*
X36335Y-15622D01*
X36389Y-15660D01*
X36376Y-15660D01*
X36289Y-15676D01*
X36208Y-15709D01*
X36134Y-15758D01*
X36071Y-15819D01*
X36021Y-15892D01*
X35986Y-15973D01*
X35968Y-16059D01*
X35966Y-16148D01*
X35982Y-16235D01*
X36015Y-16317D01*
X36063Y-16391D01*
X36124Y-16454D01*
X36196Y-16505D01*
X36277Y-16540D01*
X36363Y-16559D01*
X36452Y-16561D01*
X36538Y-16546D01*
X36551Y-16540D01*
X37378Y-17368D01*
X37372Y-17378D01*
X37335Y-17464D01*
X37316Y-17556D01*
X37314Y-17650D01*
X37331Y-17743D01*
X37366Y-17830D01*
X37417Y-17910D01*
X37482Y-17977D01*
X37560Y-18031D01*
X37623Y-18059D01*
X37551Y-18085D01*
X37497Y-18114D01*
X37466Y-18210D01*
X37795Y-18539D01*
X38124Y-18210D01*
X38093Y-18114D01*
X37992Y-18066D01*
X37965Y-18059D01*
X38012Y-18041D01*
X38092Y-17990D01*
X38160Y-17925D01*
X38214Y-17848D01*
X38253Y-17762D01*
X38273Y-17671D01*
X38275Y-17563D01*
X38257Y-17471D01*
X38221Y-17384D01*
X38169Y-17305D01*
X38102Y-17238D01*
X38024Y-17186D01*
X37938Y-17149D01*
X37845Y-17130D01*
X37751Y-17130D01*
X37736Y-17132D01*
X36847Y-16244D01*
X36866Y-16167D01*
X36867Y-16066D01*
X36850Y-15979D01*
X36816Y-15899D01*
X36893Y-15933D01*
X37206Y-16002D01*
X37527Y-16009D01*
X37843Y-15953D01*
X38142Y-15837D01*
X38413Y-15666D01*
X38645Y-15444D01*
X38751Y-15293D01*
X38751Y-20925D01*
X38751Y-20925D01*
G37*
G54D22*
X38751Y-20925D02*
X38675Y-20811D01*
X38449Y-20584D01*
X38373Y-20532D01*
X38373Y-18585D01*
X38358Y-18473D01*
X38320Y-18366D01*
X38291Y-18312D01*
X38195Y-18281D01*
X37866Y-18610D01*
X38195Y-18939D01*
X38291Y-18908D01*
X38339Y-18807D01*
X38367Y-18697D01*
X38373Y-18585D01*
X38373Y-20532D01*
X38183Y-20404D01*
X38124Y-20379D01*
X38124Y-19010D01*
X37795Y-18681D01*
X37724Y-18752D01*
X37724Y-18610D01*
X37395Y-18281D01*
X37299Y-18312D01*
X37251Y-18413D01*
X37223Y-18523D01*
X37217Y-18635D01*
X37232Y-18747D01*
X37270Y-18854D01*
X37299Y-18908D01*
X37395Y-18939D01*
X37724Y-18610D01*
X37724Y-18752D01*
X37466Y-19010D01*
X37497Y-19106D01*
X37598Y-19154D01*
X37708Y-19182D01*
X37820Y-19188D01*
X37932Y-19173D01*
X38039Y-19135D01*
X38093Y-19106D01*
X38124Y-19010D01*
X38124Y-20379D01*
X37887Y-20280D01*
X37573Y-20215D01*
X37252Y-20213D01*
X36937Y-20273D01*
X36814Y-20322D01*
X36846Y-20253D01*
X36866Y-20167D01*
X36867Y-20066D01*
X36850Y-19979D01*
X36816Y-19898D01*
X36767Y-19824D01*
X36705Y-19762D01*
X36632Y-19712D01*
X36551Y-19678D01*
X36464Y-19660D01*
X36376Y-19660D01*
X36289Y-19676D01*
X36208Y-19709D01*
X36134Y-19758D01*
X36071Y-19819D01*
X36021Y-19892D01*
X35986Y-19973D01*
X35968Y-20059D01*
X35966Y-20148D01*
X35982Y-20235D01*
X36015Y-20317D01*
X36063Y-20391D01*
X36124Y-20454D01*
X36196Y-20505D01*
X36277Y-20540D01*
X36363Y-20559D01*
X36385Y-20559D01*
X36371Y-20569D01*
X36142Y-20793D01*
X35961Y-21058D01*
X35834Y-21353D01*
X35767Y-21666D01*
X35763Y-21987D01*
X35821Y-22303D01*
X35939Y-22601D01*
X36113Y-22871D01*
X36335Y-23102D01*
X36476Y-23200D01*
X34580Y-23200D01*
X34580Y-15909D01*
X34580Y-15722D01*
X34580Y-15498D01*
X34580Y-15311D01*
X34571Y-15263D01*
X34552Y-15218D01*
X34525Y-15177D01*
X34490Y-15142D01*
X34450Y-15114D01*
X34405Y-15095D01*
X34357Y-15085D01*
X34308Y-15085D01*
X34167Y-15085D01*
X34105Y-15147D01*
X34105Y-15560D01*
X34518Y-15560D01*
X34580Y-15498D01*
X34580Y-15722D01*
X34518Y-15660D01*
X34105Y-15660D01*
X34105Y-16073D01*
X34167Y-16135D01*
X34308Y-16135D01*
X34357Y-16135D01*
X34405Y-16125D01*
X34450Y-16106D01*
X34490Y-16078D01*
X34525Y-16043D01*
X34552Y-16002D01*
X34571Y-15957D01*
X34580Y-15909D01*
X34580Y-23200D01*
X34480Y-23200D01*
X34480Y-20568D01*
X34480Y-19568D01*
X34480Y-18568D01*
X34480Y-17568D01*
X34480Y-16568D01*
X34464Y-16486D01*
X34432Y-16409D01*
X34386Y-16340D01*
X34327Y-16281D01*
X34258Y-16234D01*
X34181Y-16202D01*
X34099Y-16185D01*
X34016Y-16185D01*
X34005Y-16187D01*
X34005Y-16073D01*
X34005Y-15660D01*
X34005Y-15560D01*
X34005Y-15147D01*
X33943Y-15085D01*
X33802Y-15085D01*
X33753Y-15085D01*
X33705Y-15095D01*
X33660Y-15114D01*
X33620Y-15142D01*
X33585Y-15177D01*
X33558Y-15218D01*
X33539Y-15263D01*
X33530Y-15311D01*
X33530Y-15498D01*
X33592Y-15560D01*
X34005Y-15560D01*
X34005Y-15660D01*
X33592Y-15660D01*
X33530Y-15722D01*
X33530Y-15909D01*
X33539Y-15957D01*
X33558Y-16002D01*
X33585Y-16043D01*
X33620Y-16078D01*
X33660Y-16106D01*
X33705Y-16125D01*
X33753Y-16135D01*
X33802Y-16135D01*
X33943Y-16135D01*
X34005Y-16073D01*
X34005Y-16187D01*
X33934Y-16200D01*
X33857Y-16232D01*
X33787Y-16277D01*
X33728Y-16336D01*
X33681Y-16405D01*
X33648Y-16481D01*
X33631Y-16563D01*
X33629Y-16646D01*
X33645Y-16728D01*
X33675Y-16806D01*
X33721Y-16876D01*
X33778Y-16935D01*
X33847Y-16983D01*
X33923Y-17016D01*
X34005Y-17034D01*
X34088Y-17036D01*
X34170Y-17021D01*
X34248Y-16991D01*
X34318Y-16946D01*
X34379Y-16889D01*
X34426Y-16821D01*
X34460Y-16744D01*
X34479Y-16663D01*
X34480Y-16568D01*
X34480Y-17568D01*
X34464Y-17486D01*
X34432Y-17409D01*
X34386Y-17340D01*
X34327Y-17281D01*
X34258Y-17234D01*
X34181Y-17202D01*
X34099Y-17185D01*
X34016Y-17185D01*
X33934Y-17200D01*
X33857Y-17232D01*
X33787Y-17277D01*
X33728Y-17336D01*
X33684Y-17400D01*
X33059Y-17400D01*
X33039Y-17368D01*
X32993Y-17321D01*
X32993Y-16708D01*
X33046Y-16674D01*
X33107Y-16617D01*
X33154Y-16549D01*
X33188Y-16472D01*
X33207Y-16391D01*
X33208Y-16296D01*
X33192Y-16214D01*
X33160Y-16137D01*
X33114Y-16068D01*
X33055Y-16009D01*
X32986Y-15962D01*
X32909Y-15930D01*
X32827Y-15913D01*
X32765Y-15913D01*
X32765Y-15113D01*
X32765Y-14129D01*
X32748Y-14042D01*
X32714Y-13961D01*
X32665Y-13887D01*
X32603Y-13825D01*
X32530Y-13775D01*
X32449Y-13741D01*
X32362Y-13723D01*
X32274Y-13723D01*
X32187Y-13739D01*
X32106Y-13772D01*
X32032Y-13821D01*
X31969Y-13882D01*
X31919Y-13955D01*
X31884Y-14036D01*
X31866Y-14122D01*
X31864Y-14211D01*
X31880Y-14298D01*
X31883Y-14307D01*
X29734Y-16457D01*
X29422Y-16457D01*
X29421Y-16457D01*
X29380Y-16461D01*
X29363Y-16466D01*
X29342Y-16472D01*
X29306Y-16491D01*
X29274Y-16517D01*
X29273Y-16517D01*
X29273Y-16518D01*
X29268Y-16524D01*
X29248Y-16548D01*
X29228Y-16584D01*
X29227Y-16584D01*
X29227Y-16586D01*
X29215Y-16625D01*
X29211Y-16656D01*
X29211Y-16661D01*
X29186Y-16661D01*
X29186Y-14209D01*
X29186Y-14207D01*
X29182Y-14169D01*
X29182Y-14166D01*
X29174Y-14140D01*
X29171Y-14129D01*
X29170Y-14127D01*
X29152Y-14093D01*
X29151Y-14091D01*
X29132Y-14067D01*
X29126Y-14060D01*
X29125Y-14059D01*
X29124Y-14058D01*
X28644Y-13579D01*
X28640Y-13574D01*
X28638Y-13573D01*
X28617Y-13554D01*
X28609Y-13548D01*
X28607Y-13546D01*
X28575Y-13529D01*
X28573Y-13528D01*
X28572Y-13527D01*
X28571Y-13527D01*
X28532Y-13515D01*
X28501Y-13511D01*
X28493Y-13511D01*
X28491Y-13511D01*
X28490Y-13511D01*
X27848Y-13511D01*
X27846Y-13511D01*
X27805Y-13515D01*
X27779Y-13522D01*
X27768Y-13526D01*
X27766Y-13526D01*
X27766Y-13527D01*
X27730Y-13546D01*
X27706Y-13565D01*
X27699Y-13571D01*
X27698Y-13572D01*
X27697Y-13573D01*
X27528Y-13741D01*
X27441Y-13723D01*
X27353Y-13723D01*
X27266Y-13739D01*
X27185Y-13772D01*
X27111Y-13821D01*
X27048Y-13882D01*
X26998Y-13955D01*
X26963Y-14036D01*
X26945Y-14122D01*
X26943Y-14211D01*
X26959Y-14298D01*
X26992Y-14380D01*
X27040Y-14454D01*
X27101Y-14517D01*
X27173Y-14568D01*
X27254Y-14603D01*
X27340Y-14622D01*
X27429Y-14624D01*
X27515Y-14609D01*
X27598Y-14577D01*
X27672Y-14529D01*
X27663Y-14548D01*
X27662Y-14550D01*
X27661Y-14550D01*
X27661Y-14552D01*
X27649Y-14591D01*
X27645Y-14622D01*
X27645Y-14630D01*
X27645Y-14632D01*
X27645Y-14633D01*
X27645Y-14783D01*
X27609Y-14759D01*
X27528Y-14725D01*
X27441Y-14707D01*
X27353Y-14707D01*
X27266Y-14723D01*
X27185Y-14756D01*
X27111Y-14805D01*
X27048Y-14866D01*
X26998Y-14939D01*
X26963Y-15020D01*
X26945Y-15106D01*
X26943Y-15195D01*
X26959Y-15282D01*
X26992Y-15364D01*
X27040Y-15438D01*
X27101Y-15501D01*
X27173Y-15552D01*
X27254Y-15587D01*
X27340Y-15606D01*
X27429Y-15608D01*
X27515Y-15593D01*
X27598Y-15561D01*
X26875Y-16284D01*
X26870Y-16289D01*
X26850Y-16312D01*
X26842Y-16322D01*
X26825Y-16354D01*
X26804Y-16322D01*
X26741Y-16257D01*
X26667Y-16207D01*
X26584Y-16171D01*
X26496Y-16153D01*
X26406Y-16151D01*
X26116Y-16152D01*
X26028Y-16169D01*
X25945Y-16204D01*
X25870Y-16253D01*
X25806Y-16317D01*
X25756Y-16391D01*
X25721Y-16474D01*
X25703Y-16562D01*
X25703Y-16589D01*
X25226Y-16112D01*
X25226Y-15795D01*
X25222Y-15756D01*
X25222Y-15754D01*
X25215Y-15732D01*
X25211Y-15717D01*
X25210Y-15715D01*
X25191Y-15679D01*
X25168Y-15651D01*
X25166Y-15648D01*
X25165Y-15647D01*
X25164Y-15646D01*
X23824Y-14307D01*
X23843Y-14230D01*
X23844Y-14129D01*
X23827Y-14042D01*
X23793Y-13961D01*
X23744Y-13887D01*
X23682Y-13825D01*
X23609Y-13775D01*
X23528Y-13741D01*
X23441Y-13723D01*
X23353Y-13723D01*
X23266Y-13739D01*
X23185Y-13772D01*
X23111Y-13821D01*
X23048Y-13882D01*
X22998Y-13955D01*
X22963Y-14036D01*
X22945Y-14122D01*
X22943Y-14211D01*
X22959Y-14298D01*
X22992Y-14380D01*
X23040Y-14454D01*
X23101Y-14517D01*
X23173Y-14568D01*
X23254Y-14603D01*
X23340Y-14622D01*
X23429Y-14624D01*
X23515Y-14609D01*
X23528Y-14603D01*
X24806Y-15881D01*
X24806Y-16197D01*
X24806Y-16199D01*
X24810Y-16240D01*
X24817Y-16265D01*
X24821Y-16277D01*
X24821Y-16278D01*
X24822Y-16279D01*
X24840Y-16313D01*
X24841Y-16315D01*
X24855Y-16333D01*
X24865Y-16345D01*
X24867Y-16347D01*
X24868Y-16347D01*
X24872Y-16351D01*
X25821Y-17301D01*
X25806Y-17317D01*
X25756Y-17391D01*
X25721Y-17474D01*
X25703Y-17562D01*
X25703Y-17652D01*
X25720Y-17740D01*
X25753Y-17823D01*
X25802Y-17898D01*
X25865Y-17963D01*
X25939Y-18013D01*
X26022Y-18049D01*
X26110Y-18067D01*
X26113Y-18067D01*
X26110Y-18074D01*
X26109Y-18074D01*
X26109Y-18076D01*
X26097Y-18115D01*
X26093Y-18146D01*
X26093Y-18154D01*
X26093Y-18156D01*
X26028Y-18169D01*
X25945Y-18204D01*
X25870Y-18253D01*
X25806Y-18317D01*
X25756Y-18391D01*
X25721Y-18474D01*
X25714Y-18507D01*
X24106Y-16899D01*
X24106Y-16611D01*
X24106Y-16610D01*
X24102Y-16571D01*
X24102Y-16569D01*
X24096Y-16552D01*
X24091Y-16531D01*
X24090Y-16530D01*
X24072Y-16495D01*
X24071Y-16494D01*
X24046Y-16463D01*
X24045Y-16462D01*
X24038Y-16457D01*
X24015Y-16437D01*
X24013Y-16436D01*
X23979Y-16417D01*
X23978Y-16416D01*
X23977Y-16416D01*
X23938Y-16404D01*
X23907Y-16400D01*
X23902Y-16400D01*
X23902Y-16285D01*
X23896Y-16256D01*
X23885Y-16229D01*
X23869Y-16205D01*
X23848Y-16184D01*
X23824Y-16168D01*
X23797Y-16157D01*
X23768Y-16151D01*
X23739Y-16151D01*
X22919Y-16151D01*
X22919Y-15928D01*
X23259Y-15588D01*
X23340Y-15606D01*
X23429Y-15608D01*
X23515Y-15593D01*
X23598Y-15561D01*
X23672Y-15513D01*
X23736Y-15453D01*
X23787Y-15380D01*
X23823Y-15300D01*
X23843Y-15214D01*
X23844Y-15113D01*
X23827Y-15026D01*
X23793Y-14945D01*
X23744Y-14871D01*
X23682Y-14809D01*
X23609Y-14759D01*
X23528Y-14725D01*
X23441Y-14707D01*
X23353Y-14707D01*
X23266Y-14723D01*
X23185Y-14756D01*
X23111Y-14805D01*
X23048Y-14866D01*
X22998Y-14939D01*
X22963Y-15020D01*
X22945Y-15106D01*
X22943Y-15195D01*
X22959Y-15282D01*
X22962Y-15291D01*
X22567Y-15687D01*
X22562Y-15692D01*
X22542Y-15715D01*
X22534Y-15725D01*
X22517Y-15757D01*
X22516Y-15759D01*
X22515Y-15759D01*
X22515Y-15761D01*
X22503Y-15800D01*
X22499Y-15831D01*
X22499Y-15839D01*
X22499Y-15841D01*
X22499Y-15842D01*
X22499Y-17028D01*
X22499Y-17030D01*
X22503Y-17071D01*
X22510Y-17096D01*
X22514Y-17108D01*
X22514Y-17109D01*
X22515Y-17110D01*
X22533Y-17144D01*
X22534Y-17146D01*
X22548Y-17164D01*
X22558Y-17176D01*
X22560Y-17178D01*
X22561Y-17178D01*
X22564Y-17181D01*
X22592Y-17210D01*
X22593Y-17211D01*
X22594Y-17212D01*
X22624Y-17237D01*
X22626Y-17239D01*
X22658Y-17255D01*
X22660Y-17257D01*
X22662Y-17258D01*
X22699Y-17269D01*
X22701Y-17270D01*
X22732Y-17273D01*
X22740Y-17274D01*
X22742Y-17274D01*
X22743Y-17274D01*
X22849Y-17274D01*
X22806Y-17317D01*
X22756Y-17391D01*
X22721Y-17474D01*
X22703Y-17562D01*
X22703Y-17652D01*
X22720Y-17740D01*
X22753Y-17823D01*
X22802Y-17898D01*
X22865Y-17963D01*
X22939Y-18013D01*
X23022Y-18049D01*
X23110Y-18067D01*
X23200Y-18069D01*
X23490Y-18068D01*
X23578Y-18051D01*
X23661Y-18016D01*
X23736Y-17967D01*
X23800Y-17903D01*
X23850Y-17829D01*
X23885Y-17746D01*
X23891Y-17712D01*
X25500Y-19321D01*
X25500Y-19609D01*
X25500Y-19610D01*
X25504Y-19651D01*
X25509Y-19667D01*
X25515Y-19689D01*
X25516Y-19690D01*
X25534Y-19725D01*
X25535Y-19726D01*
X25560Y-19757D01*
X25561Y-19758D01*
X25567Y-19763D01*
X25591Y-19783D01*
X25593Y-19784D01*
X25627Y-19803D01*
X25629Y-19804D01*
X25666Y-19815D01*
X25668Y-19816D01*
X25699Y-19819D01*
X25707Y-19820D01*
X25709Y-19820D01*
X25710Y-19820D01*
X25751Y-19820D01*
X25753Y-19823D01*
X25802Y-19898D01*
X25865Y-19963D01*
X25939Y-20013D01*
X26022Y-20049D01*
X26110Y-20067D01*
X26200Y-20069D01*
X26490Y-20068D01*
X26578Y-20051D01*
X26531Y-20071D01*
X26457Y-20120D01*
X26394Y-20181D01*
X26344Y-20254D01*
X26309Y-20335D01*
X26291Y-20421D01*
X26289Y-20510D01*
X26305Y-20597D01*
X26338Y-20679D01*
X26364Y-20720D01*
X25709Y-20720D01*
X23910Y-18921D01*
X23906Y-18916D01*
X23904Y-18915D01*
X23883Y-18896D01*
X23875Y-18890D01*
X23873Y-18888D01*
X23841Y-18871D01*
X23839Y-18870D01*
X23838Y-18869D01*
X23837Y-18869D01*
X23825Y-18865D01*
X23850Y-18829D01*
X23885Y-18746D01*
X23903Y-18658D01*
X23903Y-18568D01*
X23886Y-18480D01*
X23853Y-18397D01*
X23804Y-18322D01*
X23741Y-18257D01*
X23667Y-18207D01*
X23584Y-18171D01*
X23496Y-18153D01*
X23406Y-18151D01*
X23116Y-18152D01*
X23028Y-18169D01*
X22945Y-18204D01*
X22870Y-18253D01*
X22806Y-18317D01*
X22756Y-18391D01*
X22721Y-18474D01*
X22703Y-18562D01*
X22703Y-18652D01*
X22720Y-18740D01*
X22753Y-18823D01*
X22802Y-18898D01*
X22865Y-18963D01*
X22939Y-19013D01*
X23022Y-19049D01*
X23073Y-19059D01*
X23035Y-19065D01*
X22932Y-19100D01*
X22837Y-19155D01*
X22755Y-19227D01*
X22688Y-19314D01*
X22640Y-19412D01*
X22621Y-19473D01*
X22668Y-19560D01*
X23203Y-19560D01*
X23253Y-19560D01*
X23353Y-19560D01*
X23403Y-19560D01*
X23938Y-19560D01*
X23944Y-19547D01*
X25472Y-21076D01*
X25473Y-21077D01*
X25474Y-21078D01*
X25480Y-21083D01*
X25504Y-21103D01*
X25506Y-21104D01*
X25540Y-21123D01*
X25542Y-21124D01*
X25579Y-21135D01*
X25581Y-21136D01*
X25612Y-21139D01*
X25620Y-21140D01*
X25622Y-21140D01*
X25623Y-21140D01*
X27285Y-21140D01*
X27287Y-21140D01*
X27325Y-21136D01*
X27328Y-21136D01*
X27353Y-21128D01*
X27365Y-21125D01*
X27366Y-21124D01*
X27367Y-21124D01*
X27401Y-21106D01*
X27403Y-21105D01*
X27421Y-21090D01*
X27433Y-21081D01*
X27433Y-21080D01*
X27435Y-21079D01*
X27435Y-21078D01*
X27439Y-21073D01*
X27902Y-20611D01*
X27903Y-20611D01*
X27903Y-20610D01*
X27904Y-20610D01*
X27909Y-20603D01*
X27929Y-20580D01*
X27930Y-20578D01*
X27949Y-20544D01*
X27949Y-20543D01*
X27950Y-20542D01*
X27961Y-20505D01*
X27962Y-20503D01*
X27965Y-20472D01*
X27966Y-20464D01*
X27966Y-20462D01*
X27966Y-20461D01*
X27966Y-19480D01*
X28019Y-19446D01*
X28080Y-19389D01*
X28127Y-19321D01*
X28161Y-19244D01*
X28180Y-19163D01*
X28181Y-19068D01*
X28165Y-18986D01*
X28133Y-18909D01*
X28087Y-18840D01*
X28046Y-18799D01*
X28028Y-18781D01*
X27959Y-18734D01*
X27882Y-18702D01*
X27800Y-18685D01*
X27717Y-18685D01*
X27635Y-18700D01*
X27558Y-18732D01*
X27488Y-18777D01*
X27431Y-18834D01*
X27431Y-18530D01*
X27454Y-18553D01*
X27480Y-18526D01*
X27489Y-18562D01*
X27582Y-18605D01*
X27682Y-18630D01*
X27784Y-18635D01*
X27886Y-18619D01*
X27982Y-18584D01*
X28023Y-18562D01*
X28046Y-18471D01*
X27791Y-18216D01*
X27756Y-18181D01*
X27685Y-18110D01*
X27756Y-18039D01*
X27791Y-18004D01*
X28046Y-17749D01*
X28023Y-17658D01*
X27930Y-17615D01*
X27830Y-17590D01*
X27728Y-17585D01*
X27626Y-17601D01*
X27530Y-17636D01*
X27489Y-17658D01*
X27480Y-17693D01*
X27454Y-17667D01*
X27431Y-17690D01*
X27431Y-17525D01*
X27437Y-17528D01*
X27466Y-17534D01*
X27495Y-17534D01*
X28046Y-17534D01*
X28075Y-17528D01*
X28102Y-17517D01*
X28126Y-17501D01*
X28147Y-17480D01*
X28163Y-17456D01*
X28174Y-17429D01*
X28180Y-17400D01*
X28180Y-17371D01*
X28180Y-16820D01*
X28174Y-16791D01*
X28163Y-16764D01*
X28147Y-16740D01*
X28126Y-16719D01*
X28102Y-16703D01*
X28075Y-16692D01*
X28046Y-16686D01*
X28017Y-16686D01*
X27522Y-16686D01*
X28461Y-15747D01*
X28462Y-15747D01*
X28462Y-15746D01*
X28463Y-15746D01*
X28488Y-15716D01*
X28490Y-15714D01*
X28506Y-15682D01*
X28508Y-15680D01*
X28508Y-15679D01*
X28509Y-15678D01*
X28520Y-15641D01*
X28521Y-15639D01*
X28524Y-15608D01*
X28525Y-15600D01*
X28525Y-15598D01*
X28525Y-15597D01*
X28525Y-15557D01*
X28593Y-15513D01*
X28657Y-15453D01*
X28708Y-15380D01*
X28744Y-15300D01*
X28764Y-15214D01*
X28765Y-15113D01*
X28748Y-15026D01*
X28714Y-14945D01*
X28665Y-14871D01*
X28603Y-14809D01*
X28530Y-14759D01*
X28449Y-14725D01*
X28362Y-14707D01*
X28274Y-14707D01*
X28187Y-14723D01*
X28106Y-14756D01*
X28065Y-14783D01*
X28065Y-14719D01*
X28180Y-14604D01*
X28261Y-14622D01*
X28350Y-14624D01*
X28436Y-14609D01*
X28519Y-14577D01*
X28593Y-14529D01*
X28657Y-14469D01*
X28708Y-14396D01*
X28744Y-14316D01*
X28752Y-14280D01*
X28766Y-14293D01*
X28766Y-17665D01*
X28766Y-17666D01*
X28770Y-17707D01*
X28775Y-17723D01*
X28781Y-17745D01*
X28782Y-17746D01*
X28800Y-17781D01*
X28801Y-17782D01*
X28826Y-17813D01*
X28827Y-17814D01*
X28833Y-17819D01*
X28837Y-17822D01*
X28838Y-17823D01*
X28989Y-17974D01*
X28972Y-18059D01*
X28970Y-18148D01*
X28986Y-18235D01*
X29019Y-18317D01*
X29067Y-18391D01*
X29128Y-18454D01*
X29200Y-18505D01*
X29281Y-18540D01*
X29367Y-18559D01*
X29456Y-18561D01*
X29542Y-18546D01*
X29625Y-18514D01*
X29699Y-18466D01*
X29763Y-18406D01*
X29814Y-18333D01*
X29850Y-18253D01*
X29870Y-18167D01*
X29871Y-18066D01*
X29854Y-17979D01*
X29820Y-17898D01*
X29771Y-17824D01*
X29709Y-17762D01*
X29636Y-17712D01*
X29555Y-17678D01*
X29468Y-17660D01*
X29380Y-17660D01*
X29293Y-17676D01*
X29286Y-17678D01*
X29186Y-17578D01*
X29186Y-17559D01*
X29736Y-17559D01*
X29765Y-17553D01*
X29792Y-17542D01*
X29816Y-17526D01*
X29837Y-17505D01*
X29853Y-17481D01*
X29864Y-17454D01*
X29870Y-17425D01*
X29870Y-17396D01*
X29870Y-16870D01*
X29887Y-16865D01*
X29899Y-16862D01*
X29900Y-16861D01*
X29901Y-16861D01*
X29935Y-16843D01*
X29937Y-16842D01*
X29955Y-16827D01*
X29967Y-16818D01*
X29967Y-16817D01*
X29969Y-16816D01*
X29969Y-16815D01*
X29973Y-16810D01*
X32180Y-14604D01*
X32261Y-14622D01*
X32350Y-14624D01*
X32436Y-14609D01*
X32519Y-14577D01*
X32593Y-14529D01*
X32657Y-14469D01*
X32708Y-14396D01*
X32744Y-14316D01*
X32764Y-14230D01*
X32765Y-14129D01*
X32765Y-15113D01*
X32748Y-15026D01*
X32714Y-14945D01*
X32665Y-14871D01*
X32603Y-14809D01*
X32530Y-14759D01*
X32449Y-14725D01*
X32362Y-14707D01*
X32274Y-14707D01*
X32187Y-14723D01*
X32106Y-14756D01*
X32032Y-14805D01*
X31969Y-14866D01*
X31919Y-14939D01*
X31884Y-15020D01*
X31866Y-15106D01*
X31864Y-15195D01*
X31880Y-15282D01*
X31913Y-15364D01*
X31961Y-15438D01*
X32022Y-15501D01*
X32094Y-15552D01*
X32175Y-15587D01*
X32261Y-15606D01*
X32350Y-15608D01*
X32436Y-15593D01*
X32519Y-15561D01*
X32593Y-15513D01*
X32657Y-15453D01*
X32708Y-15380D01*
X32744Y-15300D01*
X32764Y-15214D01*
X32765Y-15113D01*
X32765Y-15913D01*
X32744Y-15913D01*
X32662Y-15928D01*
X32585Y-15960D01*
X32515Y-16005D01*
X32456Y-16064D01*
X32409Y-16133D01*
X32376Y-16209D01*
X32359Y-16291D01*
X32357Y-16374D01*
X32373Y-16456D01*
X32403Y-16534D01*
X32449Y-16604D01*
X32506Y-16663D01*
X32573Y-16709D01*
X32573Y-17227D01*
X32504Y-17241D01*
X32435Y-17269D01*
X32372Y-17311D01*
X32318Y-17364D01*
X32308Y-17379D01*
X32308Y-16310D01*
X32292Y-16208D01*
X32257Y-16112D01*
X32235Y-16071D01*
X32144Y-16048D01*
X32073Y-16119D01*
X32073Y-15977D01*
X32050Y-15886D01*
X31957Y-15843D01*
X31857Y-15818D01*
X31755Y-15813D01*
X31653Y-15829D01*
X31557Y-15864D01*
X31516Y-15886D01*
X31493Y-15977D01*
X31783Y-16267D01*
X32073Y-15977D01*
X32073Y-16119D01*
X31854Y-16338D01*
X32144Y-16628D01*
X32235Y-16605D01*
X32278Y-16512D01*
X32303Y-16412D01*
X32308Y-16310D01*
X32308Y-17379D01*
X32276Y-17427D01*
X32247Y-17496D01*
X32232Y-17570D01*
X32232Y-17645D01*
X32238Y-17678D01*
X32227Y-17687D01*
X32227Y-18060D01*
X32657Y-18060D01*
X32699Y-17994D01*
X32776Y-17994D01*
X32850Y-17979D01*
X32919Y-17951D01*
X32982Y-17909D01*
X33036Y-17856D01*
X33060Y-17820D01*
X33684Y-17820D01*
X33721Y-17876D01*
X33778Y-17935D01*
X33847Y-17983D01*
X33923Y-18016D01*
X34005Y-18034D01*
X34088Y-18036D01*
X34170Y-18021D01*
X34248Y-17991D01*
X34318Y-17946D01*
X34379Y-17889D01*
X34426Y-17821D01*
X34460Y-17744D01*
X34479Y-17663D01*
X34480Y-17568D01*
X34480Y-18568D01*
X34464Y-18486D01*
X34432Y-18409D01*
X34386Y-18340D01*
X34327Y-18281D01*
X34258Y-18234D01*
X34181Y-18202D01*
X34099Y-18185D01*
X34016Y-18185D01*
X33934Y-18200D01*
X33857Y-18232D01*
X33787Y-18277D01*
X33728Y-18336D01*
X33681Y-18405D01*
X33648Y-18481D01*
X33631Y-18563D01*
X33629Y-18646D01*
X33645Y-18728D01*
X33675Y-18806D01*
X33721Y-18876D01*
X33778Y-18935D01*
X33847Y-18983D01*
X33923Y-19016D01*
X34005Y-19034D01*
X34088Y-19036D01*
X34170Y-19021D01*
X34248Y-18991D01*
X34318Y-18946D01*
X34379Y-18889D01*
X34426Y-18821D01*
X34460Y-18744D01*
X34479Y-18663D01*
X34480Y-18568D01*
X34480Y-19568D01*
X34464Y-19486D01*
X34432Y-19409D01*
X34386Y-19340D01*
X34327Y-19281D01*
X34258Y-19234D01*
X34181Y-19202D01*
X34099Y-19185D01*
X34016Y-19185D01*
X33934Y-19200D01*
X33857Y-19232D01*
X33787Y-19277D01*
X33728Y-19336D01*
X33681Y-19405D01*
X33648Y-19481D01*
X33631Y-19563D01*
X33629Y-19646D01*
X33645Y-19728D01*
X33675Y-19806D01*
X33721Y-19876D01*
X33778Y-19935D01*
X33847Y-19983D01*
X33923Y-20016D01*
X34005Y-20034D01*
X34088Y-20036D01*
X34170Y-20021D01*
X34248Y-19991D01*
X34318Y-19946D01*
X34379Y-19889D01*
X34426Y-19821D01*
X34460Y-19744D01*
X34479Y-19663D01*
X34480Y-19568D01*
X34480Y-20568D01*
X34464Y-20486D01*
X34432Y-20409D01*
X34386Y-20340D01*
X34327Y-20281D01*
X34258Y-20234D01*
X34181Y-20202D01*
X34099Y-20185D01*
X34016Y-20185D01*
X33934Y-20200D01*
X33857Y-20232D01*
X33787Y-20277D01*
X33728Y-20336D01*
X33681Y-20405D01*
X33648Y-20481D01*
X33631Y-20563D01*
X33629Y-20646D01*
X33645Y-20728D01*
X33675Y-20806D01*
X33721Y-20876D01*
X33778Y-20935D01*
X33847Y-20983D01*
X33923Y-21016D01*
X34005Y-21034D01*
X34088Y-21036D01*
X34170Y-21021D01*
X34248Y-20991D01*
X34318Y-20946D01*
X34379Y-20889D01*
X34426Y-20821D01*
X34460Y-20744D01*
X34479Y-20663D01*
X34480Y-20568D01*
X34480Y-23200D01*
X33308Y-23200D01*
X33308Y-19854D01*
X33292Y-19752D01*
X33257Y-19656D01*
X33235Y-19615D01*
X33144Y-19592D01*
X33122Y-19614D01*
X33122Y-18650D01*
X33122Y-18575D01*
X33108Y-18501D01*
X33080Y-18431D01*
X33039Y-18368D01*
X32986Y-18314D01*
X32924Y-18272D01*
X32854Y-18242D01*
X32781Y-18226D01*
X32705Y-18226D01*
X32699Y-18226D01*
X32657Y-18160D01*
X32227Y-18160D01*
X32227Y-18533D01*
X32237Y-18541D01*
X32232Y-18570D01*
X32232Y-18645D01*
X32246Y-18719D01*
X32253Y-18737D01*
X32127Y-18863D01*
X32127Y-18533D01*
X32127Y-18160D01*
X32127Y-18060D01*
X32127Y-17687D01*
X32073Y-17646D01*
X32073Y-16699D01*
X31783Y-16409D01*
X31712Y-16480D01*
X31712Y-16338D01*
X31422Y-16048D01*
X31331Y-16071D01*
X31288Y-16164D01*
X31263Y-16264D01*
X31258Y-16366D01*
X31274Y-16468D01*
X31309Y-16564D01*
X31331Y-16605D01*
X31422Y-16628D01*
X31712Y-16338D01*
X31712Y-16480D01*
X31493Y-16699D01*
X31516Y-16790D01*
X31609Y-16833D01*
X31709Y-16858D01*
X31811Y-16863D01*
X31913Y-16847D01*
X32009Y-16812D01*
X32050Y-16790D01*
X32073Y-16699D01*
X32073Y-17646D01*
X32051Y-17630D01*
X31959Y-17652D01*
X31873Y-17692D01*
X31796Y-17748D01*
X31732Y-17817D01*
X31682Y-17898D01*
X31649Y-17985D01*
X31697Y-18060D01*
X32127Y-18060D01*
X32127Y-18160D01*
X31697Y-18160D01*
X31649Y-18235D01*
X31682Y-18322D01*
X31732Y-18403D01*
X31796Y-18472D01*
X31873Y-18528D01*
X31959Y-18568D01*
X32051Y-18590D01*
X32127Y-18533D01*
X32127Y-18863D01*
X31641Y-19349D01*
X31636Y-19354D01*
X31616Y-19377D01*
X31608Y-19387D01*
X31608Y-17226D01*
X31608Y-17224D01*
X31604Y-17186D01*
X31604Y-17183D01*
X31596Y-17157D01*
X31593Y-17146D01*
X31592Y-17144D01*
X31574Y-17110D01*
X31573Y-17108D01*
X31554Y-17084D01*
X31548Y-17077D01*
X31547Y-17076D01*
X31546Y-17075D01*
X31438Y-16968D01*
X31434Y-16963D01*
X31432Y-16962D01*
X31411Y-16943D01*
X31403Y-16937D01*
X31401Y-16935D01*
X31369Y-16918D01*
X31367Y-16917D01*
X31366Y-16916D01*
X31365Y-16916D01*
X31326Y-16904D01*
X31295Y-16900D01*
X31287Y-16900D01*
X31285Y-16900D01*
X31284Y-16900D01*
X30820Y-16900D01*
X30820Y-16898D01*
X30771Y-16824D01*
X30709Y-16762D01*
X30636Y-16712D01*
X30555Y-16678D01*
X30468Y-16660D01*
X30380Y-16660D01*
X30293Y-16676D01*
X30212Y-16709D01*
X30138Y-16758D01*
X30075Y-16819D01*
X30025Y-16892D01*
X29990Y-16973D01*
X29972Y-17059D01*
X29970Y-17148D01*
X29986Y-17235D01*
X30019Y-17317D01*
X30067Y-17391D01*
X30128Y-17454D01*
X30200Y-17505D01*
X30281Y-17540D01*
X30367Y-17559D01*
X30456Y-17561D01*
X30542Y-17546D01*
X30625Y-17514D01*
X30699Y-17466D01*
X30763Y-17406D01*
X30814Y-17333D01*
X30819Y-17320D01*
X31188Y-17320D01*
X31188Y-19728D01*
X31183Y-19732D01*
X31182Y-19733D01*
X31181Y-19734D01*
X30970Y-19945D01*
X30970Y-19083D01*
X30954Y-18977D01*
X30918Y-18876D01*
X30893Y-18829D01*
X30871Y-18822D01*
X30871Y-18066D01*
X30854Y-17979D01*
X30820Y-17898D01*
X30771Y-17824D01*
X30709Y-17762D01*
X30636Y-17712D01*
X30555Y-17678D01*
X30468Y-17660D01*
X30380Y-17660D01*
X30293Y-17676D01*
X30212Y-17709D01*
X30138Y-17758D01*
X30075Y-17819D01*
X30025Y-17892D01*
X29990Y-17973D01*
X29972Y-18059D01*
X29970Y-18148D01*
X29986Y-18235D01*
X30019Y-18317D01*
X30067Y-18391D01*
X30128Y-18454D01*
X30200Y-18505D01*
X30281Y-18540D01*
X30367Y-18559D01*
X30456Y-18561D01*
X30542Y-18546D01*
X30625Y-18514D01*
X30699Y-18466D01*
X30763Y-18406D01*
X30814Y-18333D01*
X30850Y-18253D01*
X30870Y-18167D01*
X30871Y-18066D01*
X30871Y-18822D01*
X30799Y-18802D01*
X30729Y-18872D01*
X30729Y-18732D01*
X30702Y-18638D01*
X30605Y-18592D01*
X30501Y-18566D01*
X30394Y-18561D01*
X30288Y-18577D01*
X30187Y-18613D01*
X30140Y-18638D01*
X30113Y-18732D01*
X30421Y-19039D01*
X30729Y-18732D01*
X30729Y-18872D01*
X30492Y-19110D01*
X30799Y-19418D01*
X30893Y-19391D01*
X30939Y-19294D01*
X30965Y-19190D01*
X30970Y-19083D01*
X30970Y-19945D01*
X30875Y-20040D01*
X30874Y-20040D01*
X30787Y-20022D01*
X30729Y-20022D01*
X30729Y-19488D01*
X30421Y-19181D01*
X30350Y-19251D01*
X30350Y-19110D01*
X30043Y-18802D01*
X29949Y-18829D01*
X29903Y-18926D01*
X29877Y-19030D01*
X29872Y-19137D01*
X29888Y-19243D01*
X29924Y-19344D01*
X29949Y-19391D01*
X30043Y-19418D01*
X30350Y-19110D01*
X30350Y-19251D01*
X30113Y-19488D01*
X30140Y-19582D01*
X30237Y-19628D01*
X30341Y-19654D01*
X30448Y-19659D01*
X30554Y-19643D01*
X30655Y-19607D01*
X30702Y-19582D01*
X30729Y-19488D01*
X30729Y-20022D01*
X30699Y-20022D01*
X30612Y-20038D01*
X30531Y-20071D01*
X30457Y-20120D01*
X30394Y-20181D01*
X30344Y-20254D01*
X30309Y-20335D01*
X30291Y-20421D01*
X30289Y-20510D01*
X30305Y-20597D01*
X30338Y-20679D01*
X30386Y-20753D01*
X30447Y-20816D01*
X30519Y-20867D01*
X30589Y-20897D01*
X30589Y-21479D01*
X30531Y-21517D01*
X30472Y-21576D01*
X30425Y-21645D01*
X30392Y-21721D01*
X30375Y-21803D01*
X30373Y-21886D01*
X30389Y-21968D01*
X30419Y-22046D01*
X30465Y-22116D01*
X30522Y-22175D01*
X30591Y-22223D01*
X30667Y-22256D01*
X30749Y-22274D01*
X30832Y-22276D01*
X30914Y-22261D01*
X30992Y-22231D01*
X31062Y-22186D01*
X31123Y-22129D01*
X31170Y-22061D01*
X31204Y-21984D01*
X31223Y-21903D01*
X31224Y-21808D01*
X31208Y-21726D01*
X31176Y-21649D01*
X31130Y-21580D01*
X31071Y-21521D01*
X31009Y-21478D01*
X31009Y-20833D01*
X31018Y-20828D01*
X31082Y-20768D01*
X31133Y-20695D01*
X31169Y-20615D01*
X31189Y-20529D01*
X31190Y-20428D01*
X31173Y-20341D01*
X31171Y-20337D01*
X31414Y-20094D01*
X31449Y-20148D01*
X31506Y-20207D01*
X31575Y-20255D01*
X31651Y-20288D01*
X31733Y-20306D01*
X31816Y-20308D01*
X31898Y-20293D01*
X31976Y-20263D01*
X32046Y-20218D01*
X32107Y-20161D01*
X32154Y-20093D01*
X32188Y-20016D01*
X32207Y-19935D01*
X32208Y-19840D01*
X32192Y-19758D01*
X32160Y-19681D01*
X32114Y-19612D01*
X32055Y-19553D01*
X32040Y-19542D01*
X32589Y-18994D01*
X32649Y-18994D01*
X32776Y-18994D01*
X32850Y-18979D01*
X32919Y-18951D01*
X32982Y-18909D01*
X33036Y-18856D01*
X33078Y-18793D01*
X33107Y-18724D01*
X33122Y-18650D01*
X33122Y-19614D01*
X33073Y-19663D01*
X33073Y-19521D01*
X33050Y-19430D01*
X32957Y-19387D01*
X32857Y-19362D01*
X32755Y-19357D01*
X32653Y-19373D01*
X32557Y-19408D01*
X32516Y-19430D01*
X32493Y-19521D01*
X32783Y-19811D01*
X33073Y-19521D01*
X33073Y-19663D01*
X32854Y-19882D01*
X33144Y-20172D01*
X33235Y-20149D01*
X33278Y-20056D01*
X33303Y-19956D01*
X33308Y-19854D01*
X33308Y-23200D01*
X33073Y-23200D01*
X33073Y-20243D01*
X32783Y-19953D01*
X32712Y-20024D01*
X32712Y-19882D01*
X32422Y-19592D01*
X32331Y-19615D01*
X32288Y-19708D01*
X32263Y-19808D01*
X32258Y-19910D01*
X32274Y-20012D01*
X32309Y-20108D01*
X32331Y-20149D01*
X32422Y-20172D01*
X32712Y-19882D01*
X32712Y-20024D01*
X32493Y-20243D01*
X32516Y-20334D01*
X32609Y-20377D01*
X32709Y-20402D01*
X32811Y-20407D01*
X32913Y-20391D01*
X33009Y-20356D01*
X33050Y-20334D01*
X33073Y-20243D01*
X33073Y-23200D01*
X32223Y-23200D01*
X32223Y-22140D01*
X32223Y-22111D01*
X32223Y-21560D01*
X32217Y-21531D01*
X32206Y-21504D01*
X32190Y-21480D01*
X32169Y-21459D01*
X32145Y-21443D01*
X32118Y-21432D01*
X32089Y-21426D01*
X32060Y-21426D01*
X31509Y-21426D01*
X31480Y-21432D01*
X31453Y-21443D01*
X31429Y-21459D01*
X31408Y-21480D01*
X31392Y-21504D01*
X31381Y-21531D01*
X31375Y-21560D01*
X31375Y-21589D01*
X31375Y-22140D01*
X31381Y-22169D01*
X31392Y-22196D01*
X31408Y-22220D01*
X31429Y-22241D01*
X31453Y-22257D01*
X31480Y-22268D01*
X31509Y-22274D01*
X31538Y-22274D01*
X32089Y-22274D01*
X32118Y-22268D01*
X32145Y-22257D01*
X32169Y-22241D01*
X32190Y-22220D01*
X32206Y-22196D01*
X32217Y-22169D01*
X32223Y-22140D01*
X32223Y-23200D01*
X29871Y-23200D01*
X29871Y-19066D01*
X29854Y-18979D01*
X29820Y-18898D01*
X29771Y-18824D01*
X29709Y-18762D01*
X29636Y-18712D01*
X29555Y-18678D01*
X29468Y-18660D01*
X29380Y-18660D01*
X29293Y-18676D01*
X29212Y-18709D01*
X29138Y-18758D01*
X29075Y-18819D01*
X29025Y-18892D01*
X28990Y-18973D01*
X28972Y-19059D01*
X28970Y-19148D01*
X28986Y-19235D01*
X29019Y-19317D01*
X29067Y-19391D01*
X29128Y-19454D01*
X29200Y-19505D01*
X29281Y-19540D01*
X29367Y-19559D01*
X29456Y-19561D01*
X29542Y-19546D01*
X29625Y-19514D01*
X29699Y-19466D01*
X29763Y-19406D01*
X29814Y-19333D01*
X29850Y-19253D01*
X29870Y-19167D01*
X29871Y-19066D01*
X29871Y-23200D01*
X28281Y-23200D01*
X28281Y-18082D01*
X28265Y-17980D01*
X28230Y-17884D01*
X28208Y-17843D01*
X28117Y-17820D01*
X28046Y-17891D01*
X27827Y-18110D01*
X28117Y-18400D01*
X28208Y-18377D01*
X28251Y-18284D01*
X28276Y-18184D01*
X28281Y-18082D01*
X28281Y-23200D01*
X25828Y-23200D01*
X25828Y-21625D01*
X25812Y-21523D01*
X25777Y-21427D01*
X25755Y-21386D01*
X25664Y-21363D01*
X25593Y-21434D01*
X25593Y-21292D01*
X25570Y-21201D01*
X25477Y-21158D01*
X25377Y-21133D01*
X25275Y-21128D01*
X25173Y-21144D01*
X25077Y-21179D01*
X25036Y-21201D01*
X25013Y-21292D01*
X25303Y-21582D01*
X25593Y-21292D01*
X25593Y-21434D01*
X25374Y-21653D01*
X25664Y-21943D01*
X25755Y-21920D01*
X25798Y-21827D01*
X25823Y-21727D01*
X25828Y-21625D01*
X25828Y-23200D01*
X25593Y-23200D01*
X25593Y-22014D01*
X25303Y-21724D01*
X25232Y-21795D01*
X25232Y-21653D01*
X24942Y-21363D01*
X24851Y-21386D01*
X24808Y-21479D01*
X24783Y-21579D01*
X24778Y-21681D01*
X24794Y-21783D01*
X24829Y-21879D01*
X24851Y-21920D01*
X24942Y-21943D01*
X25232Y-21653D01*
X25232Y-21795D01*
X25013Y-22014D01*
X25036Y-22105D01*
X25129Y-22148D01*
X25229Y-22173D01*
X25331Y-22178D01*
X25433Y-22162D01*
X25529Y-22127D01*
X25570Y-22105D01*
X25593Y-22014D01*
X25593Y-23200D01*
X24728Y-23200D01*
X24728Y-21611D01*
X24712Y-21529D01*
X24680Y-21452D01*
X24634Y-21383D01*
X24575Y-21324D01*
X24506Y-21277D01*
X24429Y-21245D01*
X24347Y-21228D01*
X24264Y-21228D01*
X24182Y-21243D01*
X24105Y-21275D01*
X24035Y-21320D01*
X23985Y-21370D01*
X23985Y-19747D01*
X23938Y-19660D01*
X23353Y-19660D01*
X23353Y-20170D01*
X23463Y-20170D01*
X23571Y-20155D01*
X23674Y-20120D01*
X23769Y-20065D01*
X23851Y-19993D01*
X23918Y-19906D01*
X23966Y-19808D01*
X23985Y-19747D01*
X23985Y-21370D01*
X23976Y-21379D01*
X23929Y-21448D01*
X23896Y-21524D01*
X23879Y-21606D01*
X23877Y-21689D01*
X23893Y-21771D01*
X23923Y-21849D01*
X23969Y-21919D01*
X24026Y-21978D01*
X24095Y-22026D01*
X24171Y-22059D01*
X24253Y-22077D01*
X24336Y-22079D01*
X24418Y-22064D01*
X24496Y-22034D01*
X24566Y-21989D01*
X24627Y-21932D01*
X24674Y-21864D01*
X24708Y-21787D01*
X24727Y-21706D01*
X24728Y-21611D01*
X24728Y-23200D01*
X23253Y-23200D01*
X23253Y-20170D01*
X23253Y-19660D01*
X22668Y-19660D01*
X22621Y-19747D01*
X22640Y-19808D01*
X22688Y-19906D01*
X22755Y-19993D01*
X22837Y-20065D01*
X22932Y-20120D01*
X23035Y-20155D01*
X23143Y-20170D01*
X23253Y-20170D01*
X23253Y-23200D01*
X22185Y-23200D01*
X22271Y-23146D01*
X22503Y-22924D01*
X22688Y-22662D01*
X22819Y-22369D01*
X22890Y-22056D01*
X22895Y-21690D01*
X22833Y-21375D01*
X22711Y-21079D01*
X22572Y-20869D01*
X22572Y-17582D01*
X22556Y-17480D01*
X22521Y-17384D01*
X22499Y-17343D01*
X22408Y-17320D01*
X22337Y-17391D01*
X22337Y-17249D01*
X22314Y-17158D01*
X22221Y-17115D01*
X22121Y-17090D01*
X22019Y-17085D01*
X21917Y-17101D01*
X21821Y-17136D01*
X21780Y-17158D01*
X21757Y-17249D01*
X22047Y-17539D01*
X22337Y-17249D01*
X22337Y-17391D01*
X22118Y-17610D01*
X22408Y-17900D01*
X22499Y-17877D01*
X22542Y-17784D01*
X22567Y-17684D01*
X22572Y-17582D01*
X22572Y-20869D01*
X22533Y-20811D01*
X22472Y-20749D01*
X22472Y-18568D01*
X22456Y-18486D01*
X22424Y-18409D01*
X22378Y-18340D01*
X22337Y-18299D01*
X22337Y-17971D01*
X22047Y-17681D01*
X21976Y-17752D01*
X21976Y-17610D01*
X21686Y-17320D01*
X21595Y-17343D01*
X21552Y-17436D01*
X21527Y-17536D01*
X21522Y-17638D01*
X21538Y-17740D01*
X21573Y-17836D01*
X21595Y-17877D01*
X21686Y-17900D01*
X21976Y-17610D01*
X21976Y-17752D01*
X21757Y-17971D01*
X21780Y-18062D01*
X21873Y-18105D01*
X21973Y-18130D01*
X22075Y-18135D01*
X22177Y-18119D01*
X22273Y-18084D01*
X22314Y-18062D01*
X22337Y-17971D01*
X22337Y-18299D01*
X22319Y-18281D01*
X22250Y-18234D01*
X22173Y-18202D01*
X22091Y-18185D01*
X22008Y-18185D01*
X21926Y-18200D01*
X21849Y-18232D01*
X21779Y-18277D01*
X21720Y-18336D01*
X21673Y-18405D01*
X21640Y-18481D01*
X21623Y-18563D01*
X21621Y-18646D01*
X21636Y-18724D01*
X21460Y-18900D01*
X21194Y-18900D01*
X21194Y-18082D01*
X21178Y-17980D01*
X21143Y-17884D01*
X21121Y-17843D01*
X21093Y-17835D01*
X21093Y-17400D01*
X21093Y-17371D01*
X21093Y-16820D01*
X21087Y-16791D01*
X21076Y-16764D01*
X21060Y-16740D01*
X21039Y-16719D01*
X21015Y-16703D01*
X20988Y-16692D01*
X20959Y-16686D01*
X20930Y-16686D01*
X20379Y-16686D01*
X20350Y-16692D01*
X20323Y-16703D01*
X20299Y-16719D01*
X20278Y-16740D01*
X20262Y-16764D01*
X20251Y-16791D01*
X20245Y-16820D01*
X20245Y-16849D01*
X20245Y-17400D01*
X20251Y-17429D01*
X20262Y-17456D01*
X20278Y-17480D01*
X20299Y-17501D01*
X20323Y-17517D01*
X20350Y-17528D01*
X20379Y-17534D01*
X20408Y-17534D01*
X20959Y-17534D01*
X20988Y-17528D01*
X21015Y-17517D01*
X21039Y-17501D01*
X21060Y-17480D01*
X21076Y-17456D01*
X21087Y-17429D01*
X21093Y-17400D01*
X21093Y-17835D01*
X21030Y-17820D01*
X20959Y-17891D01*
X20959Y-17749D01*
X20936Y-17658D01*
X20843Y-17615D01*
X20743Y-17590D01*
X20641Y-17585D01*
X20539Y-17601D01*
X20443Y-17636D01*
X20402Y-17658D01*
X20379Y-17749D01*
X20669Y-18039D01*
X20959Y-17749D01*
X20959Y-17891D01*
X20740Y-18110D01*
X21030Y-18400D01*
X21121Y-18377D01*
X21164Y-18284D01*
X21189Y-18184D01*
X21194Y-18082D01*
X21194Y-18900D01*
X21040Y-18900D01*
X21000Y-18840D01*
X20959Y-18799D01*
X20959Y-18471D01*
X20669Y-18181D01*
X20598Y-18252D01*
X20598Y-18110D01*
X20308Y-17820D01*
X20217Y-17843D01*
X20174Y-17936D01*
X20149Y-18036D01*
X20144Y-18138D01*
X20160Y-18240D01*
X20195Y-18336D01*
X20217Y-18377D01*
X20308Y-18400D01*
X20598Y-18110D01*
X20598Y-18252D01*
X20379Y-18471D01*
X20402Y-18562D01*
X20495Y-18605D01*
X20595Y-18630D01*
X20697Y-18635D01*
X20799Y-18619D01*
X20895Y-18584D01*
X20936Y-18562D01*
X20959Y-18471D01*
X20959Y-18799D01*
X20941Y-18781D01*
X20872Y-18734D01*
X20795Y-18702D01*
X20713Y-18685D01*
X20630Y-18685D01*
X20548Y-18700D01*
X20471Y-18732D01*
X20401Y-18777D01*
X20342Y-18836D01*
X20295Y-18905D01*
X20262Y-18981D01*
X20245Y-19063D01*
X20243Y-19146D01*
X20259Y-19228D01*
X20289Y-19306D01*
X20335Y-19376D01*
X20392Y-19435D01*
X20461Y-19483D01*
X20537Y-19516D01*
X20619Y-19534D01*
X20702Y-19536D01*
X20784Y-19521D01*
X20862Y-19491D01*
X20932Y-19446D01*
X20993Y-19389D01*
X21040Y-19321D01*
X21040Y-19320D01*
X21545Y-19320D01*
X21547Y-19320D01*
X21585Y-19316D01*
X21588Y-19316D01*
X21613Y-19308D01*
X21625Y-19305D01*
X21626Y-19304D01*
X21627Y-19304D01*
X21661Y-19286D01*
X21663Y-19285D01*
X21681Y-19270D01*
X21693Y-19261D01*
X21693Y-19260D01*
X21695Y-19259D01*
X21695Y-19258D01*
X21699Y-19253D01*
X21933Y-19020D01*
X21997Y-19034D01*
X22080Y-19036D01*
X22162Y-19021D01*
X22240Y-18991D01*
X22310Y-18946D01*
X22371Y-18889D01*
X22418Y-18821D01*
X22452Y-18744D01*
X22471Y-18663D01*
X22472Y-18568D01*
X22472Y-20749D01*
X22307Y-20584D01*
X22041Y-20404D01*
X21745Y-20280D01*
X21431Y-20215D01*
X21110Y-20213D01*
X20795Y-20273D01*
X20498Y-20393D01*
X20229Y-20569D01*
X20000Y-20793D01*
X19909Y-20926D01*
X19909Y-15293D01*
X19972Y-15391D01*
X20194Y-15622D01*
X20458Y-15805D01*
X20752Y-15933D01*
X21065Y-16002D01*
X21386Y-16009D01*
X21702Y-15953D01*
X22001Y-15837D01*
X22272Y-15666D01*
X22504Y-15444D01*
X22689Y-15182D01*
X22820Y-14889D01*
X22891Y-14576D01*
X22896Y-14210D01*
X22834Y-13895D01*
X22712Y-13599D01*
X22534Y-13331D01*
X22308Y-13104D01*
X22183Y-13020D01*
X36476Y-13020D01*
X36371Y-13089D01*
X36142Y-13313D01*
X35961Y-13578D01*
X35834Y-13873D01*
X35767Y-14186D01*
X35763Y-14507D01*
X35821Y-14823D01*
X35939Y-15121D01*
X36113Y-15391D01*
X36335Y-15622D01*
X36389Y-15660D01*
X36376Y-15660D01*
X36289Y-15676D01*
X36208Y-15709D01*
X36134Y-15758D01*
X36071Y-15819D01*
X36021Y-15892D01*
X35986Y-15973D01*
X35968Y-16059D01*
X35966Y-16148D01*
X35982Y-16235D01*
X36015Y-16317D01*
X36063Y-16391D01*
X36124Y-16454D01*
X36196Y-16505D01*
X36277Y-16540D01*
X36363Y-16559D01*
X36452Y-16561D01*
X36538Y-16546D01*
X36551Y-16540D01*
X37378Y-17368D01*
X37372Y-17378D01*
X37335Y-17464D01*
X37316Y-17556D01*
X37314Y-17650D01*
X37331Y-17743D01*
X37366Y-17830D01*
X37417Y-17910D01*
X37482Y-17977D01*
X37560Y-18031D01*
X37623Y-18059D01*
X37551Y-18085D01*
X37497Y-18114D01*
X37466Y-18210D01*
X37795Y-18539D01*
X38124Y-18210D01*
X38093Y-18114D01*
X37992Y-18066D01*
X37965Y-18059D01*
X38012Y-18041D01*
X38092Y-17990D01*
X38160Y-17925D01*
X38214Y-17848D01*
X38253Y-17762D01*
X38273Y-17671D01*
X38275Y-17563D01*
X38257Y-17471D01*
X38221Y-17384D01*
X38169Y-17305D01*
X38102Y-17238D01*
X38024Y-17186D01*
X37938Y-17149D01*
X37845Y-17130D01*
X37751Y-17130D01*
X37736Y-17132D01*
X36847Y-16244D01*
X36866Y-16167D01*
X36867Y-16066D01*
X36850Y-15979D01*
X36816Y-15899D01*
X36893Y-15933D01*
X37206Y-16002D01*
X37527Y-16009D01*
X37843Y-15953D01*
X38142Y-15837D01*
X38413Y-15666D01*
X38645Y-15444D01*
X38751Y-15293D01*
X38751Y-20925D01*
M02*
