G04 (created by PCBNEW (2013-01-23 BZR 3920)-testing) date Thu 24 Jan 2013 03:16:15 AM CET*
%MOIN*%
G04 Gerber Fmt 3.4, Leading zero omitted, Abs format*
%FSLAX34Y34*%
G01*
G70*
G90*
G04 APERTURE LIST*
%ADD10C,3.14961e-06*%
%ADD11C,0.015*%
%ADD12R,0.06X0.06*%
%ADD13C,0.06*%
%ADD14C,0.16*%
%ADD15C,0.066*%
%ADD16R,0.09X0.062*%
%ADD17O,0.09X0.062*%
%ADD18R,0.055X0.055*%
%ADD19C,0.055*%
%ADD20O,0.0591X0.0472*%
G04 APERTURE END LIST*
G54D10*
G54D11*
X38976Y-12795D02*
X19684Y-12795D01*
X38976Y-23425D02*
X38976Y-12795D01*
X19684Y-23425D02*
X38976Y-23425D01*
X19684Y-12795D02*
X19684Y-23425D01*
G54D12*
X34055Y-15610D03*
G54D13*
X34055Y-16610D03*
X34055Y-17610D03*
X34055Y-18610D03*
X34055Y-19610D03*
X34055Y-20610D03*
G54D12*
X20669Y-17110D03*
G54D13*
X20669Y-18110D03*
X20669Y-19110D03*
G54D14*
X21260Y-14370D03*
G54D15*
X37795Y-17610D03*
X37795Y-18610D03*
G54D12*
X29421Y-17110D03*
G54D13*
X30421Y-17110D03*
X29421Y-18110D03*
X30421Y-18110D03*
X29421Y-19110D03*
X30421Y-19110D03*
G54D14*
X37401Y-21850D03*
X37401Y-14370D03*
X21259Y-21850D03*
G54D16*
X23303Y-16610D03*
G54D17*
X23303Y-17610D03*
X23303Y-18610D03*
X23303Y-19610D03*
X26303Y-19610D03*
X26303Y-18610D03*
X26303Y-17610D03*
X26303Y-16610D03*
G54D18*
X27756Y-17110D03*
G54D19*
X27756Y-18110D03*
X27756Y-19110D03*
G54D13*
X27394Y-15157D03*
X23394Y-15157D03*
X27394Y-14173D03*
X23394Y-14173D03*
X32315Y-15157D03*
X28315Y-15157D03*
X30740Y-20472D03*
X26740Y-20472D03*
X32315Y-14173D03*
X28315Y-14173D03*
G54D19*
X22047Y-18610D03*
X22047Y-17610D03*
G54D13*
X36417Y-16110D03*
X36417Y-20110D03*
G54D12*
X31799Y-21850D03*
G54D13*
X30799Y-21850D03*
G54D19*
X32783Y-16338D03*
X31783Y-16338D03*
X31783Y-19882D03*
X32783Y-19882D03*
X24303Y-21653D03*
X25303Y-21653D03*
G54D20*
X32677Y-17610D03*
X32677Y-18610D03*
X32177Y-18110D03*
M02*
