G04 (created by PCBNEW-RS274X (2012-jan-04)-stable) date Sun 25 Mar 2012 06:17:03 PM CEST*
G01*
G70*
G90*
%MOIN*%
G04 Gerber Fmt 3.4, Leading zero omitted, Abs format*
%FSLAX34Y34*%
G04 APERTURE LIST*
%ADD10C,0.008000*%
%ADD11C,0.015000*%
%ADD12C,0.172000*%
%ADD13R,0.067000X0.067000*%
%ADD14C,0.067000*%
%ADD15R,0.072000X0.072000*%
%ADD16C,0.072000*%
%ADD17R,0.074000X0.102000*%
%ADD18O,0.074000X0.102000*%
%ADD19C,0.078000*%
G04 APERTURE END LIST*
G54D10*
G54D11*
X38976Y-12795D02*
X19684Y-12795D01*
X38976Y-23425D02*
X38976Y-12795D01*
X19684Y-23425D02*
X38976Y-23425D01*
X19684Y-12795D02*
X19684Y-23425D01*
G54D12*
X21259Y-14370D03*
G54D13*
X35630Y-20110D03*
G54D14*
X35630Y-19110D03*
X35630Y-18110D03*
X35630Y-17110D03*
X35630Y-16110D03*
G54D15*
X32177Y-17110D03*
G54D16*
X33177Y-17110D03*
X32177Y-18110D03*
X33177Y-18110D03*
X32177Y-19110D03*
X33177Y-19110D03*
G54D12*
X37401Y-21850D03*
X37401Y-14370D03*
X21259Y-21850D03*
G54D13*
X21260Y-17110D03*
G54D14*
X21260Y-18110D03*
X21260Y-19110D03*
G54D17*
X24287Y-19610D03*
G54D18*
X25287Y-19610D03*
X26287Y-19610D03*
X27287Y-19610D03*
X27287Y-16610D03*
X26287Y-16610D03*
X25287Y-16610D03*
X24287Y-16610D03*
G54D13*
X30315Y-19110D03*
G54D14*
X30315Y-18110D03*
X30315Y-17110D03*
G54D16*
X34449Y-20110D03*
X34449Y-16110D03*
X27590Y-14370D03*
X23590Y-14370D03*
X33102Y-21850D03*
X29102Y-21850D03*
X23591Y-21850D03*
X27591Y-21850D03*
X33102Y-14370D03*
X29102Y-14370D03*
G54D14*
X22835Y-17610D03*
X22835Y-18610D03*
G54D16*
X28740Y-16110D03*
X28740Y-20110D03*
G54D19*
X37598Y-17610D03*
X37598Y-18610D03*
M02*
