G04 (created by PCBNEW (2012-jan-04)-stable) date Sun 25 Mar 2012 06:39:41 PM CEST*
G01*
G70*
G90*
%MOIN*%
G04 Gerber Fmt 3.4, Leading zero omitted, Abs format*
%FSLAX34Y34*%
G04 APERTURE LIST*
%ADD10C,0.001000*%
%ADD11C,0.015000*%
%ADD12C,0.008000*%
G04 APERTURE END LIST*
G54D10*
G54D11*
X38976Y-12795D02*
X19684Y-12795D01*
X38976Y-23425D02*
X38976Y-12795D01*
X19684Y-23425D02*
X38976Y-23425D01*
X19684Y-12795D02*
X19684Y-23425D01*
G54D10*
X21100Y-16950D02*
X21420Y-17270D01*
X21420Y-16950D02*
X21100Y-17270D01*
X21100Y-17950D02*
X21420Y-18270D01*
X21420Y-17950D02*
X21100Y-18270D01*
X21100Y-18950D02*
X21420Y-19270D01*
X21420Y-18950D02*
X21100Y-19270D01*
X22675Y-17450D02*
X22995Y-17770D01*
X22995Y-17450D02*
X22675Y-17770D01*
X22675Y-18450D02*
X22995Y-18770D01*
X22995Y-18450D02*
X22675Y-18770D01*
X23430Y-14210D02*
X23750Y-14530D01*
X23750Y-14210D02*
X23430Y-14530D01*
X23431Y-21690D02*
X23751Y-22010D01*
X23751Y-21690D02*
X23431Y-22010D01*
X24127Y-16450D02*
X24447Y-16770D01*
X24447Y-16450D02*
X24127Y-16770D01*
X24127Y-19450D02*
X24447Y-19770D01*
X24447Y-19450D02*
X24127Y-19770D01*
X25127Y-16450D02*
X25447Y-16770D01*
X25447Y-16450D02*
X25127Y-16770D01*
X25127Y-19450D02*
X25447Y-19770D01*
X25447Y-19450D02*
X25127Y-19770D01*
X26127Y-16450D02*
X26447Y-16770D01*
X26447Y-16450D02*
X26127Y-16770D01*
X26127Y-19450D02*
X26447Y-19770D01*
X26447Y-19450D02*
X26127Y-19770D01*
X27127Y-16450D02*
X27447Y-16770D01*
X27447Y-16450D02*
X27127Y-16770D01*
X27127Y-19450D02*
X27447Y-19770D01*
X27447Y-19450D02*
X27127Y-19770D01*
X27430Y-14210D02*
X27750Y-14530D01*
X27750Y-14210D02*
X27430Y-14530D01*
X27431Y-21690D02*
X27751Y-22010D01*
X27751Y-21690D02*
X27431Y-22010D01*
X28580Y-15950D02*
X28900Y-16270D01*
X28900Y-15950D02*
X28580Y-16270D01*
X28580Y-19950D02*
X28900Y-20270D01*
X28900Y-19950D02*
X28580Y-20270D01*
X28942Y-14210D02*
X29262Y-14530D01*
X29262Y-14210D02*
X28942Y-14530D01*
X28942Y-21690D02*
X29262Y-22010D01*
X29262Y-21690D02*
X28942Y-22010D01*
X30155Y-16950D02*
X30475Y-17270D01*
X30475Y-16950D02*
X30155Y-17270D01*
X30155Y-17950D02*
X30475Y-18270D01*
X30475Y-17950D02*
X30155Y-18270D01*
X30155Y-18950D02*
X30475Y-19270D01*
X30475Y-18950D02*
X30155Y-19270D01*
X32942Y-14210D02*
X33262Y-14530D01*
X33262Y-14210D02*
X32942Y-14530D01*
X32942Y-21690D02*
X33262Y-22010D01*
X33262Y-21690D02*
X32942Y-22010D01*
X34289Y-15950D02*
X34609Y-16270D01*
X34609Y-15950D02*
X34289Y-16270D01*
X34289Y-19950D02*
X34609Y-20270D01*
X34609Y-19950D02*
X34289Y-20270D01*
X35470Y-15950D02*
X35790Y-16270D01*
X35790Y-15950D02*
X35470Y-16270D01*
X35470Y-16950D02*
X35790Y-17270D01*
X35790Y-16950D02*
X35470Y-17270D01*
X35470Y-17950D02*
X35790Y-18270D01*
X35790Y-17950D02*
X35470Y-18270D01*
X35470Y-18950D02*
X35790Y-19270D01*
X35790Y-18950D02*
X35470Y-19270D01*
X35470Y-19950D02*
X35790Y-20270D01*
X35790Y-19950D02*
X35470Y-20270D01*
X37438Y-17450D02*
X37758Y-17770D01*
X37758Y-17450D02*
X37438Y-17770D01*
X37438Y-18450D02*
X37758Y-18770D01*
X37758Y-18450D02*
X37438Y-18770D01*
X32377Y-17110D02*
X32373Y-17148D01*
X32361Y-17186D01*
X32343Y-17220D01*
X32318Y-17250D01*
X32288Y-17275D01*
X32254Y-17294D01*
X32217Y-17305D01*
X32178Y-17309D01*
X32140Y-17306D01*
X32103Y-17295D01*
X32068Y-17277D01*
X32038Y-17252D01*
X32012Y-17222D01*
X31994Y-17188D01*
X31982Y-17151D01*
X31978Y-17112D01*
X31981Y-17074D01*
X31992Y-17037D01*
X32009Y-17002D01*
X32034Y-16972D01*
X32063Y-16946D01*
X32097Y-16927D01*
X32135Y-16915D01*
X32173Y-16911D01*
X32211Y-16914D01*
X32249Y-16924D01*
X32284Y-16942D01*
X32314Y-16966D01*
X32340Y-16995D01*
X32359Y-17029D01*
X32372Y-17066D01*
X32376Y-17105D01*
X32377Y-17110D01*
X32377Y-18110D02*
X32373Y-18148D01*
X32361Y-18186D01*
X32343Y-18220D01*
X32318Y-18250D01*
X32288Y-18275D01*
X32254Y-18294D01*
X32217Y-18305D01*
X32178Y-18309D01*
X32140Y-18306D01*
X32103Y-18295D01*
X32068Y-18277D01*
X32038Y-18252D01*
X32012Y-18222D01*
X31994Y-18188D01*
X31982Y-18151D01*
X31978Y-18112D01*
X31981Y-18074D01*
X31992Y-18037D01*
X32009Y-18002D01*
X32034Y-17972D01*
X32063Y-17946D01*
X32097Y-17927D01*
X32135Y-17915D01*
X32173Y-17911D01*
X32211Y-17914D01*
X32249Y-17924D01*
X32284Y-17942D01*
X32314Y-17966D01*
X32340Y-17995D01*
X32359Y-18029D01*
X32372Y-18066D01*
X32376Y-18105D01*
X32377Y-18110D01*
X32377Y-19110D02*
X32373Y-19148D01*
X32361Y-19186D01*
X32343Y-19220D01*
X32318Y-19250D01*
X32288Y-19275D01*
X32254Y-19294D01*
X32217Y-19305D01*
X32178Y-19309D01*
X32140Y-19306D01*
X32103Y-19295D01*
X32068Y-19277D01*
X32038Y-19252D01*
X32012Y-19222D01*
X31994Y-19188D01*
X31982Y-19151D01*
X31978Y-19112D01*
X31981Y-19074D01*
X31992Y-19037D01*
X32009Y-19002D01*
X32034Y-18972D01*
X32063Y-18946D01*
X32097Y-18927D01*
X32135Y-18915D01*
X32173Y-18911D01*
X32211Y-18914D01*
X32249Y-18924D01*
X32284Y-18942D01*
X32314Y-18966D01*
X32340Y-18995D01*
X32359Y-19029D01*
X32372Y-19066D01*
X32376Y-19105D01*
X32377Y-19110D01*
X33377Y-17110D02*
X33373Y-17148D01*
X33361Y-17186D01*
X33343Y-17220D01*
X33318Y-17250D01*
X33288Y-17275D01*
X33254Y-17294D01*
X33217Y-17305D01*
X33178Y-17309D01*
X33140Y-17306D01*
X33103Y-17295D01*
X33068Y-17277D01*
X33038Y-17252D01*
X33012Y-17222D01*
X32994Y-17188D01*
X32982Y-17151D01*
X32978Y-17112D01*
X32981Y-17074D01*
X32992Y-17037D01*
X33009Y-17002D01*
X33034Y-16972D01*
X33063Y-16946D01*
X33097Y-16927D01*
X33135Y-16915D01*
X33173Y-16911D01*
X33211Y-16914D01*
X33249Y-16924D01*
X33284Y-16942D01*
X33314Y-16966D01*
X33340Y-16995D01*
X33359Y-17029D01*
X33372Y-17066D01*
X33376Y-17105D01*
X33377Y-17110D01*
X33377Y-18110D02*
X33373Y-18148D01*
X33361Y-18186D01*
X33343Y-18220D01*
X33318Y-18250D01*
X33288Y-18275D01*
X33254Y-18294D01*
X33217Y-18305D01*
X33178Y-18309D01*
X33140Y-18306D01*
X33103Y-18295D01*
X33068Y-18277D01*
X33038Y-18252D01*
X33012Y-18222D01*
X32994Y-18188D01*
X32982Y-18151D01*
X32978Y-18112D01*
X32981Y-18074D01*
X32992Y-18037D01*
X33009Y-18002D01*
X33034Y-17972D01*
X33063Y-17946D01*
X33097Y-17927D01*
X33135Y-17915D01*
X33173Y-17911D01*
X33211Y-17914D01*
X33249Y-17924D01*
X33284Y-17942D01*
X33314Y-17966D01*
X33340Y-17995D01*
X33359Y-18029D01*
X33372Y-18066D01*
X33376Y-18105D01*
X33377Y-18110D01*
X33377Y-19110D02*
X33373Y-19148D01*
X33361Y-19186D01*
X33343Y-19220D01*
X33318Y-19250D01*
X33288Y-19275D01*
X33254Y-19294D01*
X33217Y-19305D01*
X33178Y-19309D01*
X33140Y-19306D01*
X33103Y-19295D01*
X33068Y-19277D01*
X33038Y-19252D01*
X33012Y-19222D01*
X32994Y-19188D01*
X32982Y-19151D01*
X32978Y-19112D01*
X32981Y-19074D01*
X32992Y-19037D01*
X33009Y-19002D01*
X33034Y-18972D01*
X33063Y-18946D01*
X33097Y-18927D01*
X33135Y-18915D01*
X33173Y-18911D01*
X33211Y-18914D01*
X33249Y-18924D01*
X33284Y-18942D01*
X33314Y-18966D01*
X33340Y-18995D01*
X33359Y-19029D01*
X33372Y-19066D01*
X33376Y-19105D01*
X33377Y-19110D01*
X21259Y-13770D02*
X21259Y-14970D01*
X21859Y-14370D02*
X20659Y-14370D01*
X21259Y-21250D02*
X21259Y-22450D01*
X21859Y-21850D02*
X20659Y-21850D01*
X37401Y-13770D02*
X37401Y-14970D01*
X38001Y-14370D02*
X36801Y-14370D01*
X37401Y-21250D02*
X37401Y-22450D01*
X38001Y-21850D02*
X36801Y-21850D01*
G54D12*
X19923Y-24780D02*
X19923Y-23980D01*
X20114Y-23980D01*
X20228Y-24018D01*
X20304Y-24094D01*
X20343Y-24170D01*
X20381Y-24323D01*
X20381Y-24437D01*
X20343Y-24589D01*
X20304Y-24666D01*
X20228Y-24742D01*
X20114Y-24780D01*
X19923Y-24780D01*
X20723Y-24780D02*
X20723Y-24246D01*
X20723Y-24399D02*
X20762Y-24323D01*
X20800Y-24285D01*
X20876Y-24246D01*
X20952Y-24246D01*
X21218Y-24780D02*
X21218Y-24246D01*
X21218Y-23980D02*
X21180Y-24018D01*
X21218Y-24056D01*
X21257Y-24018D01*
X21218Y-23980D01*
X21218Y-24056D01*
X21714Y-24780D02*
X21638Y-24742D01*
X21599Y-24666D01*
X21599Y-23980D01*
X22133Y-24780D02*
X22057Y-24742D01*
X22018Y-24666D01*
X22018Y-23980D01*
X23047Y-24780D02*
X23047Y-23980D01*
X23314Y-24551D01*
X23581Y-23980D01*
X23581Y-24780D01*
X24304Y-24780D02*
X24304Y-24361D01*
X24266Y-24285D01*
X24190Y-24246D01*
X24038Y-24246D01*
X23961Y-24285D01*
X24304Y-24742D02*
X24228Y-24780D01*
X24038Y-24780D01*
X23961Y-24742D01*
X23923Y-24666D01*
X23923Y-24589D01*
X23961Y-24513D01*
X24038Y-24475D01*
X24228Y-24475D01*
X24304Y-24437D01*
X24685Y-24246D02*
X24685Y-25046D01*
X24685Y-24285D02*
X24762Y-24246D01*
X24914Y-24246D01*
X24990Y-24285D01*
X25028Y-24323D01*
X25066Y-24399D01*
X25066Y-24627D01*
X25028Y-24704D01*
X24990Y-24742D01*
X24914Y-24780D01*
X24762Y-24780D01*
X24685Y-24742D01*
X25409Y-24704D02*
X25448Y-24742D01*
X25409Y-24780D01*
X25371Y-24742D01*
X25409Y-24704D01*
X25409Y-24780D01*
X25409Y-24285D02*
X25448Y-24323D01*
X25409Y-24361D01*
X25371Y-24323D01*
X25409Y-24285D01*
X25409Y-24361D01*
X19213Y-25976D02*
X19533Y-26296D01*
X19533Y-25976D02*
X19213Y-26296D01*
X20076Y-25660D02*
X20152Y-25660D01*
X20228Y-25698D01*
X20266Y-25736D01*
X20304Y-25812D01*
X20343Y-25965D01*
X20343Y-26155D01*
X20304Y-26307D01*
X20266Y-26384D01*
X20228Y-26422D01*
X20152Y-26460D01*
X20076Y-26460D01*
X20000Y-26422D01*
X19962Y-26384D01*
X19923Y-26307D01*
X19885Y-26155D01*
X19885Y-25965D01*
X19923Y-25812D01*
X19962Y-25736D01*
X20000Y-25698D01*
X20076Y-25660D01*
X20685Y-26384D02*
X20724Y-26422D01*
X20685Y-26460D01*
X20647Y-26422D01*
X20685Y-26384D01*
X20685Y-26460D01*
X21219Y-25660D02*
X21295Y-25660D01*
X21371Y-25698D01*
X21409Y-25736D01*
X21447Y-25812D01*
X21486Y-25965D01*
X21486Y-26155D01*
X21447Y-26307D01*
X21409Y-26384D01*
X21371Y-26422D01*
X21295Y-26460D01*
X21219Y-26460D01*
X21143Y-26422D01*
X21105Y-26384D01*
X21066Y-26307D01*
X21028Y-26155D01*
X21028Y-25965D01*
X21066Y-25812D01*
X21105Y-25736D01*
X21143Y-25698D01*
X21219Y-25660D01*
X21752Y-25660D02*
X22248Y-25660D01*
X21981Y-25965D01*
X22095Y-25965D01*
X22171Y-26003D01*
X22209Y-26041D01*
X22248Y-26117D01*
X22248Y-26307D01*
X22209Y-26384D01*
X22171Y-26422D01*
X22095Y-26460D01*
X21867Y-26460D01*
X21790Y-26422D01*
X21752Y-26384D01*
X22552Y-25736D02*
X22590Y-25698D01*
X22667Y-25660D01*
X22857Y-25660D01*
X22933Y-25698D01*
X22971Y-25736D01*
X23010Y-25812D01*
X23010Y-25888D01*
X22971Y-26003D01*
X22514Y-26460D01*
X23010Y-26460D01*
X23314Y-25660D02*
X23314Y-25812D01*
X23619Y-25660D02*
X23619Y-25812D01*
X25144Y-25622D02*
X24458Y-26650D01*
X26173Y-25660D02*
X26249Y-25660D01*
X26325Y-25698D01*
X26363Y-25736D01*
X26401Y-25812D01*
X26440Y-25965D01*
X26440Y-26155D01*
X26401Y-26307D01*
X26363Y-26384D01*
X26325Y-26422D01*
X26249Y-26460D01*
X26173Y-26460D01*
X26097Y-26422D01*
X26059Y-26384D01*
X26020Y-26307D01*
X25982Y-26155D01*
X25982Y-25965D01*
X26020Y-25812D01*
X26059Y-25736D01*
X26097Y-25698D01*
X26173Y-25660D01*
X26782Y-26384D02*
X26821Y-26422D01*
X26782Y-26460D01*
X26744Y-26422D01*
X26782Y-26384D01*
X26782Y-26460D01*
X27278Y-26003D02*
X27202Y-25965D01*
X27163Y-25926D01*
X27125Y-25850D01*
X27125Y-25812D01*
X27163Y-25736D01*
X27202Y-25698D01*
X27278Y-25660D01*
X27430Y-25660D01*
X27506Y-25698D01*
X27544Y-25736D01*
X27583Y-25812D01*
X27583Y-25850D01*
X27544Y-25926D01*
X27506Y-25965D01*
X27430Y-26003D01*
X27278Y-26003D01*
X27202Y-26041D01*
X27163Y-26079D01*
X27125Y-26155D01*
X27125Y-26307D01*
X27163Y-26384D01*
X27202Y-26422D01*
X27278Y-26460D01*
X27430Y-26460D01*
X27506Y-26422D01*
X27544Y-26384D01*
X27583Y-26307D01*
X27583Y-26155D01*
X27544Y-26079D01*
X27506Y-26041D01*
X27430Y-26003D01*
X28345Y-26460D02*
X27887Y-26460D01*
X28116Y-26460D02*
X28116Y-25660D01*
X28040Y-25774D01*
X27964Y-25850D01*
X27887Y-25888D01*
X28687Y-26460D02*
X28687Y-25926D01*
X28687Y-26003D02*
X28726Y-25965D01*
X28802Y-25926D01*
X28916Y-25926D01*
X28992Y-25965D01*
X29030Y-26041D01*
X29030Y-26460D01*
X29030Y-26041D02*
X29068Y-25965D01*
X29145Y-25926D01*
X29259Y-25926D01*
X29335Y-25965D01*
X29373Y-26041D01*
X29373Y-26460D01*
X29754Y-26460D02*
X29754Y-25926D01*
X29754Y-26003D02*
X29793Y-25965D01*
X29869Y-25926D01*
X29983Y-25926D01*
X30059Y-25965D01*
X30097Y-26041D01*
X30097Y-26460D01*
X30097Y-26041D02*
X30135Y-25965D01*
X30212Y-25926D01*
X30326Y-25926D01*
X30402Y-25965D01*
X30440Y-26041D01*
X30440Y-26460D01*
X31660Y-26765D02*
X31622Y-26726D01*
X31546Y-26612D01*
X31508Y-26536D01*
X31470Y-26422D01*
X31431Y-26231D01*
X31431Y-26079D01*
X31470Y-25888D01*
X31508Y-25774D01*
X31546Y-25698D01*
X31622Y-25584D01*
X31660Y-25546D01*
X31888Y-25660D02*
X32384Y-25660D01*
X32117Y-25965D01*
X32231Y-25965D01*
X32307Y-26003D01*
X32345Y-26041D01*
X32384Y-26117D01*
X32384Y-26307D01*
X32345Y-26384D01*
X32307Y-26422D01*
X32231Y-26460D01*
X32003Y-26460D01*
X31926Y-26422D01*
X31888Y-26384D01*
X33107Y-25660D02*
X32726Y-25660D01*
X32688Y-26041D01*
X32726Y-26003D01*
X32803Y-25965D01*
X32993Y-25965D01*
X33069Y-26003D01*
X33107Y-26041D01*
X33146Y-26117D01*
X33146Y-26307D01*
X33107Y-26384D01*
X33069Y-26422D01*
X32993Y-26460D01*
X32803Y-26460D01*
X32726Y-26422D01*
X32688Y-26384D01*
X34098Y-26460D02*
X34098Y-25660D01*
X34441Y-26460D02*
X34441Y-26041D01*
X34403Y-25965D01*
X34327Y-25926D01*
X34213Y-25926D01*
X34137Y-25965D01*
X34098Y-26003D01*
X34937Y-26460D02*
X34861Y-26422D01*
X34822Y-26384D01*
X34784Y-26307D01*
X34784Y-26079D01*
X34822Y-26003D01*
X34861Y-25965D01*
X34937Y-25926D01*
X35051Y-25926D01*
X35127Y-25965D01*
X35165Y-26003D01*
X35203Y-26079D01*
X35203Y-26307D01*
X35165Y-26384D01*
X35127Y-26422D01*
X35051Y-26460D01*
X34937Y-26460D01*
X35661Y-26460D02*
X35585Y-26422D01*
X35546Y-26346D01*
X35546Y-25660D01*
X36270Y-26422D02*
X36194Y-26460D01*
X36042Y-26460D01*
X35965Y-26422D01*
X35927Y-26346D01*
X35927Y-26041D01*
X35965Y-25965D01*
X36042Y-25926D01*
X36194Y-25926D01*
X36270Y-25965D01*
X36308Y-26041D01*
X36308Y-26117D01*
X35927Y-26193D01*
X36613Y-26422D02*
X36690Y-26460D01*
X36842Y-26460D01*
X36918Y-26422D01*
X36956Y-26346D01*
X36956Y-26307D01*
X36918Y-26231D01*
X36842Y-26193D01*
X36728Y-26193D01*
X36651Y-26155D01*
X36613Y-26079D01*
X36613Y-26041D01*
X36651Y-25965D01*
X36728Y-25926D01*
X36842Y-25926D01*
X36918Y-25965D01*
X37223Y-26765D02*
X37261Y-26726D01*
X37338Y-26612D01*
X37376Y-26536D01*
X37414Y-26422D01*
X37452Y-26231D01*
X37452Y-26079D01*
X37414Y-25888D01*
X37376Y-25774D01*
X37338Y-25698D01*
X37261Y-25584D01*
X37223Y-25546D01*
G54D10*
X19533Y-27191D02*
X19529Y-27229D01*
X19517Y-27267D01*
X19499Y-27301D01*
X19474Y-27331D01*
X19444Y-27356D01*
X19410Y-27375D01*
X19373Y-27386D01*
X19334Y-27390D01*
X19296Y-27387D01*
X19259Y-27376D01*
X19224Y-27358D01*
X19194Y-27333D01*
X19168Y-27303D01*
X19150Y-27269D01*
X19138Y-27232D01*
X19134Y-27193D01*
X19137Y-27155D01*
X19148Y-27118D01*
X19165Y-27083D01*
X19190Y-27053D01*
X19219Y-27027D01*
X19253Y-27008D01*
X19291Y-26996D01*
X19329Y-26992D01*
X19367Y-26995D01*
X19405Y-27005D01*
X19440Y-27023D01*
X19470Y-27047D01*
X19496Y-27076D01*
X19515Y-27110D01*
X19528Y-27147D01*
X19532Y-27186D01*
X19533Y-27191D01*
G54D12*
X20076Y-26715D02*
X20152Y-26715D01*
X20228Y-26753D01*
X20266Y-26791D01*
X20304Y-26867D01*
X20343Y-27020D01*
X20343Y-27210D01*
X20304Y-27362D01*
X20266Y-27439D01*
X20228Y-27477D01*
X20152Y-27515D01*
X20076Y-27515D01*
X20000Y-27477D01*
X19962Y-27439D01*
X19923Y-27362D01*
X19885Y-27210D01*
X19885Y-27020D01*
X19923Y-26867D01*
X19962Y-26791D01*
X20000Y-26753D01*
X20076Y-26715D01*
X20685Y-27439D02*
X20724Y-27477D01*
X20685Y-27515D01*
X20647Y-27477D01*
X20685Y-27439D01*
X20685Y-27515D01*
X21219Y-26715D02*
X21295Y-26715D01*
X21371Y-26753D01*
X21409Y-26791D01*
X21447Y-26867D01*
X21486Y-27020D01*
X21486Y-27210D01*
X21447Y-27362D01*
X21409Y-27439D01*
X21371Y-27477D01*
X21295Y-27515D01*
X21219Y-27515D01*
X21143Y-27477D01*
X21105Y-27439D01*
X21066Y-27362D01*
X21028Y-27210D01*
X21028Y-27020D01*
X21066Y-26867D01*
X21105Y-26791D01*
X21143Y-26753D01*
X21219Y-26715D01*
X22171Y-26981D02*
X22171Y-27515D01*
X21981Y-26677D02*
X21790Y-27248D01*
X22286Y-27248D01*
X22743Y-26715D02*
X22819Y-26715D01*
X22895Y-26753D01*
X22933Y-26791D01*
X22971Y-26867D01*
X23010Y-27020D01*
X23010Y-27210D01*
X22971Y-27362D01*
X22933Y-27439D01*
X22895Y-27477D01*
X22819Y-27515D01*
X22743Y-27515D01*
X22667Y-27477D01*
X22629Y-27439D01*
X22590Y-27362D01*
X22552Y-27210D01*
X22552Y-27020D01*
X22590Y-26867D01*
X22629Y-26791D01*
X22667Y-26753D01*
X22743Y-26715D01*
X23314Y-26715D02*
X23314Y-26867D01*
X23619Y-26715D02*
X23619Y-26867D01*
X25144Y-26677D02*
X24458Y-27705D01*
X26440Y-27515D02*
X25982Y-27515D01*
X26211Y-27515D02*
X26211Y-26715D01*
X26135Y-26829D01*
X26059Y-26905D01*
X25982Y-26943D01*
X26782Y-27439D02*
X26821Y-27477D01*
X26782Y-27515D01*
X26744Y-27477D01*
X26782Y-27439D01*
X26782Y-27515D01*
X27316Y-26715D02*
X27392Y-26715D01*
X27468Y-26753D01*
X27506Y-26791D01*
X27544Y-26867D01*
X27583Y-27020D01*
X27583Y-27210D01*
X27544Y-27362D01*
X27506Y-27439D01*
X27468Y-27477D01*
X27392Y-27515D01*
X27316Y-27515D01*
X27240Y-27477D01*
X27202Y-27439D01*
X27163Y-27362D01*
X27125Y-27210D01*
X27125Y-27020D01*
X27163Y-26867D01*
X27202Y-26791D01*
X27240Y-26753D01*
X27316Y-26715D01*
X27887Y-26791D02*
X27925Y-26753D01*
X28002Y-26715D01*
X28192Y-26715D01*
X28268Y-26753D01*
X28306Y-26791D01*
X28345Y-26867D01*
X28345Y-26943D01*
X28306Y-27058D01*
X27849Y-27515D01*
X28345Y-27515D01*
X28687Y-27515D02*
X28687Y-26981D01*
X28687Y-27058D02*
X28726Y-27020D01*
X28802Y-26981D01*
X28916Y-26981D01*
X28992Y-27020D01*
X29030Y-27096D01*
X29030Y-27515D01*
X29030Y-27096D02*
X29068Y-27020D01*
X29145Y-26981D01*
X29259Y-26981D01*
X29335Y-27020D01*
X29373Y-27096D01*
X29373Y-27515D01*
X29754Y-27515D02*
X29754Y-26981D01*
X29754Y-27058D02*
X29793Y-27020D01*
X29869Y-26981D01*
X29983Y-26981D01*
X30059Y-27020D01*
X30097Y-27096D01*
X30097Y-27515D01*
X30097Y-27096D02*
X30135Y-27020D01*
X30212Y-26981D01*
X30326Y-26981D01*
X30402Y-27020D01*
X30440Y-27096D01*
X30440Y-27515D01*
X31660Y-27820D02*
X31622Y-27781D01*
X31546Y-27667D01*
X31508Y-27591D01*
X31470Y-27477D01*
X31431Y-27286D01*
X31431Y-27134D01*
X31470Y-26943D01*
X31508Y-26829D01*
X31546Y-26753D01*
X31622Y-26639D01*
X31660Y-26601D01*
X32307Y-26715D02*
X32155Y-26715D01*
X32079Y-26753D01*
X32041Y-26791D01*
X31964Y-26905D01*
X31926Y-27058D01*
X31926Y-27362D01*
X31964Y-27439D01*
X32003Y-27477D01*
X32079Y-27515D01*
X32231Y-27515D01*
X32307Y-27477D01*
X32345Y-27439D01*
X32384Y-27362D01*
X32384Y-27172D01*
X32345Y-27096D01*
X32307Y-27058D01*
X32231Y-27020D01*
X32079Y-27020D01*
X32003Y-27058D01*
X31964Y-27096D01*
X31926Y-27172D01*
X33336Y-27515D02*
X33336Y-26715D01*
X33679Y-27515D02*
X33679Y-27096D01*
X33641Y-27020D01*
X33565Y-26981D01*
X33451Y-26981D01*
X33375Y-27020D01*
X33336Y-27058D01*
X34175Y-27515D02*
X34099Y-27477D01*
X34060Y-27439D01*
X34022Y-27362D01*
X34022Y-27134D01*
X34060Y-27058D01*
X34099Y-27020D01*
X34175Y-26981D01*
X34289Y-26981D01*
X34365Y-27020D01*
X34403Y-27058D01*
X34441Y-27134D01*
X34441Y-27362D01*
X34403Y-27439D01*
X34365Y-27477D01*
X34289Y-27515D01*
X34175Y-27515D01*
X34899Y-27515D02*
X34823Y-27477D01*
X34784Y-27401D01*
X34784Y-26715D01*
X35508Y-27477D02*
X35432Y-27515D01*
X35280Y-27515D01*
X35203Y-27477D01*
X35165Y-27401D01*
X35165Y-27096D01*
X35203Y-27020D01*
X35280Y-26981D01*
X35432Y-26981D01*
X35508Y-27020D01*
X35546Y-27096D01*
X35546Y-27172D01*
X35165Y-27248D01*
X35851Y-27477D02*
X35928Y-27515D01*
X36080Y-27515D01*
X36156Y-27477D01*
X36194Y-27401D01*
X36194Y-27362D01*
X36156Y-27286D01*
X36080Y-27248D01*
X35966Y-27248D01*
X35889Y-27210D01*
X35851Y-27134D01*
X35851Y-27096D01*
X35889Y-27020D01*
X35966Y-26981D01*
X36080Y-26981D01*
X36156Y-27020D01*
X36461Y-27820D02*
X36499Y-27781D01*
X36576Y-27667D01*
X36614Y-27591D01*
X36652Y-27477D01*
X36690Y-27286D01*
X36690Y-27134D01*
X36652Y-26943D01*
X36614Y-26829D01*
X36576Y-26753D01*
X36499Y-26639D01*
X36461Y-26601D01*
X18933Y-27646D02*
X18933Y-28846D01*
X19533Y-28246D02*
X18333Y-28246D01*
X20076Y-27770D02*
X20152Y-27770D01*
X20228Y-27808D01*
X20266Y-27846D01*
X20304Y-27922D01*
X20343Y-28075D01*
X20343Y-28265D01*
X20304Y-28417D01*
X20266Y-28494D01*
X20228Y-28532D01*
X20152Y-28570D01*
X20076Y-28570D01*
X20000Y-28532D01*
X19962Y-28494D01*
X19923Y-28417D01*
X19885Y-28265D01*
X19885Y-28075D01*
X19923Y-27922D01*
X19962Y-27846D01*
X20000Y-27808D01*
X20076Y-27770D01*
X20685Y-28494D02*
X20724Y-28532D01*
X20685Y-28570D01*
X20647Y-28532D01*
X20685Y-28494D01*
X20685Y-28570D01*
X21486Y-28570D02*
X21028Y-28570D01*
X21257Y-28570D02*
X21257Y-27770D01*
X21181Y-27884D01*
X21105Y-27960D01*
X21028Y-27998D01*
X21790Y-27846D02*
X21828Y-27808D01*
X21905Y-27770D01*
X22095Y-27770D01*
X22171Y-27808D01*
X22209Y-27846D01*
X22248Y-27922D01*
X22248Y-27998D01*
X22209Y-28113D01*
X21752Y-28570D01*
X22248Y-28570D01*
X22743Y-27770D02*
X22819Y-27770D01*
X22895Y-27808D01*
X22933Y-27846D01*
X22971Y-27922D01*
X23010Y-28075D01*
X23010Y-28265D01*
X22971Y-28417D01*
X22933Y-28494D01*
X22895Y-28532D01*
X22819Y-28570D01*
X22743Y-28570D01*
X22667Y-28532D01*
X22629Y-28494D01*
X22590Y-28417D01*
X22552Y-28265D01*
X22552Y-28075D01*
X22590Y-27922D01*
X22629Y-27846D01*
X22667Y-27808D01*
X22743Y-27770D01*
X23314Y-27770D02*
X23314Y-27922D01*
X23619Y-27770D02*
X23619Y-27922D01*
X25144Y-27732D02*
X24458Y-28760D01*
X25944Y-27770D02*
X26440Y-27770D01*
X26173Y-28075D01*
X26287Y-28075D01*
X26363Y-28113D01*
X26401Y-28151D01*
X26440Y-28227D01*
X26440Y-28417D01*
X26401Y-28494D01*
X26363Y-28532D01*
X26287Y-28570D01*
X26059Y-28570D01*
X25982Y-28532D01*
X25944Y-28494D01*
X26782Y-28494D02*
X26821Y-28532D01*
X26782Y-28570D01*
X26744Y-28532D01*
X26782Y-28494D01*
X26782Y-28570D01*
X27316Y-27770D02*
X27392Y-27770D01*
X27468Y-27808D01*
X27506Y-27846D01*
X27544Y-27922D01*
X27583Y-28075D01*
X27583Y-28265D01*
X27544Y-28417D01*
X27506Y-28494D01*
X27468Y-28532D01*
X27392Y-28570D01*
X27316Y-28570D01*
X27240Y-28532D01*
X27202Y-28494D01*
X27163Y-28417D01*
X27125Y-28265D01*
X27125Y-28075D01*
X27163Y-27922D01*
X27202Y-27846D01*
X27240Y-27808D01*
X27316Y-27770D01*
X28306Y-27770D02*
X27925Y-27770D01*
X27887Y-28151D01*
X27925Y-28113D01*
X28002Y-28075D01*
X28192Y-28075D01*
X28268Y-28113D01*
X28306Y-28151D01*
X28345Y-28227D01*
X28345Y-28417D01*
X28306Y-28494D01*
X28268Y-28532D01*
X28192Y-28570D01*
X28002Y-28570D01*
X27925Y-28532D01*
X27887Y-28494D01*
X28687Y-28570D02*
X28687Y-28036D01*
X28687Y-28113D02*
X28726Y-28075D01*
X28802Y-28036D01*
X28916Y-28036D01*
X28992Y-28075D01*
X29030Y-28151D01*
X29030Y-28570D01*
X29030Y-28151D02*
X29068Y-28075D01*
X29145Y-28036D01*
X29259Y-28036D01*
X29335Y-28075D01*
X29373Y-28151D01*
X29373Y-28570D01*
X29754Y-28570D02*
X29754Y-28036D01*
X29754Y-28113D02*
X29793Y-28075D01*
X29869Y-28036D01*
X29983Y-28036D01*
X30059Y-28075D01*
X30097Y-28151D01*
X30097Y-28570D01*
X30097Y-28151D02*
X30135Y-28075D01*
X30212Y-28036D01*
X30326Y-28036D01*
X30402Y-28075D01*
X30440Y-28151D01*
X30440Y-28570D01*
X31660Y-28875D02*
X31622Y-28836D01*
X31546Y-28722D01*
X31508Y-28646D01*
X31470Y-28532D01*
X31431Y-28341D01*
X31431Y-28189D01*
X31470Y-27998D01*
X31508Y-27884D01*
X31546Y-27808D01*
X31622Y-27694D01*
X31660Y-27656D01*
X32307Y-28036D02*
X32307Y-28570D01*
X32117Y-27732D02*
X31926Y-28303D01*
X32422Y-28303D01*
X33336Y-28570D02*
X33336Y-27770D01*
X33679Y-28570D02*
X33679Y-28151D01*
X33641Y-28075D01*
X33565Y-28036D01*
X33451Y-28036D01*
X33375Y-28075D01*
X33336Y-28113D01*
X34175Y-28570D02*
X34099Y-28532D01*
X34060Y-28494D01*
X34022Y-28417D01*
X34022Y-28189D01*
X34060Y-28113D01*
X34099Y-28075D01*
X34175Y-28036D01*
X34289Y-28036D01*
X34365Y-28075D01*
X34403Y-28113D01*
X34441Y-28189D01*
X34441Y-28417D01*
X34403Y-28494D01*
X34365Y-28532D01*
X34289Y-28570D01*
X34175Y-28570D01*
X34899Y-28570D02*
X34823Y-28532D01*
X34784Y-28456D01*
X34784Y-27770D01*
X35508Y-28532D02*
X35432Y-28570D01*
X35280Y-28570D01*
X35203Y-28532D01*
X35165Y-28456D01*
X35165Y-28151D01*
X35203Y-28075D01*
X35280Y-28036D01*
X35432Y-28036D01*
X35508Y-28075D01*
X35546Y-28151D01*
X35546Y-28227D01*
X35165Y-28303D01*
X35851Y-28532D02*
X35928Y-28570D01*
X36080Y-28570D01*
X36156Y-28532D01*
X36194Y-28456D01*
X36194Y-28417D01*
X36156Y-28341D01*
X36080Y-28303D01*
X35966Y-28303D01*
X35889Y-28265D01*
X35851Y-28189D01*
X35851Y-28151D01*
X35889Y-28075D01*
X35966Y-28036D01*
X36080Y-28036D01*
X36156Y-28075D01*
X36461Y-28875D02*
X36499Y-28836D01*
X36576Y-28722D01*
X36614Y-28646D01*
X36652Y-28532D01*
X36690Y-28341D01*
X36690Y-28189D01*
X36652Y-27998D01*
X36614Y-27884D01*
X36576Y-27808D01*
X36499Y-27694D01*
X36461Y-27656D01*
M02*
