G04 (created by PCBNEW-RS274X (2012-jan-04)-stable) date Sun 25 Mar 2012 02:15:37 PM CEST*
G01*
G70*
G90*
%MOIN*%
G04 Gerber Fmt 3.4, Leading zero omitted, Abs format*
%FSLAX34Y34*%
G04 APERTURE LIST*
%ADD10C,0.008000*%
%ADD11R,0.060000X0.060000*%
%ADD12C,0.060000*%
%ADD13C,0.160000*%
%ADD14R,0.055000X0.055000*%
%ADD15C,0.055000*%
%ADD16R,0.062000X0.090000*%
%ADD17O,0.062000X0.090000*%
%ADD18C,0.012000*%
G04 APERTURE END LIST*
G54D10*
G54D11*
X31783Y-17307D03*
G54D12*
X32783Y-17307D03*
X31783Y-18307D03*
X32783Y-18307D03*
X31783Y-19307D03*
X32783Y-19307D03*
G54D13*
X37401Y-21850D03*
X37401Y-14370D03*
X21259Y-21850D03*
X21259Y-14370D03*
G54D14*
X35432Y-20019D03*
G54D15*
X35432Y-19019D03*
X35432Y-18019D03*
X35432Y-17019D03*
X35432Y-16019D03*
G54D14*
X21259Y-19307D03*
G54D15*
X21259Y-18307D03*
X21259Y-17307D03*
G54D16*
X24484Y-19807D03*
G54D17*
X25484Y-19807D03*
X26484Y-19807D03*
X27484Y-19807D03*
X27484Y-16807D03*
X26484Y-16807D03*
X25484Y-16807D03*
X24484Y-16807D03*
G54D14*
X29724Y-19307D03*
G54D15*
X29724Y-18307D03*
X29724Y-17307D03*
G54D12*
X34055Y-20307D03*
X34055Y-16307D03*
X27590Y-14370D03*
X23590Y-14370D03*
X33102Y-21850D03*
X29102Y-21850D03*
X23590Y-21850D03*
X27590Y-21850D03*
X33102Y-14370D03*
X29102Y-14370D03*
G54D15*
X22834Y-17807D03*
X22834Y-18807D03*
G54D18*
X35432Y-18019D02*
X34801Y-18650D01*
X34801Y-18650D02*
X34055Y-18650D01*
X34055Y-18650D02*
X33126Y-18650D01*
X33126Y-18650D02*
X32783Y-18307D01*
X34055Y-18650D02*
X34055Y-20307D01*
X31783Y-20531D02*
X31783Y-19307D01*
X33102Y-21850D02*
X31783Y-20531D01*
X35195Y-15782D02*
X31241Y-15782D01*
X35432Y-16019D02*
X35195Y-15782D01*
X29339Y-13880D02*
X31241Y-15782D01*
X28080Y-13880D02*
X29339Y-13880D01*
X27590Y-14370D02*
X28080Y-13880D01*
X31241Y-17765D02*
X31783Y-18307D01*
X31241Y-15782D02*
X31241Y-17765D01*
X28984Y-17307D02*
X29724Y-17307D01*
X26977Y-19314D02*
X28984Y-17307D01*
X26977Y-19807D02*
X26977Y-19314D01*
X26484Y-19807D02*
X26977Y-19807D01*
X27484Y-19807D02*
X27977Y-19807D01*
X29477Y-18307D02*
X29724Y-18307D01*
X27977Y-19807D02*
X29477Y-18307D01*
X25394Y-16174D02*
X25484Y-16174D01*
X23590Y-14370D02*
X25394Y-16174D01*
X25484Y-16807D02*
X25484Y-16174D01*
X26977Y-16461D02*
X26977Y-16807D01*
X29068Y-14370D02*
X26977Y-16461D01*
X29102Y-14370D02*
X29068Y-14370D01*
X26484Y-16807D02*
X26977Y-16807D01*
X24484Y-19807D02*
X24977Y-19807D01*
X24977Y-20300D02*
X24977Y-19807D01*
X27590Y-21850D02*
X26527Y-21850D01*
X26527Y-21850D02*
X24977Y-20300D01*
X24484Y-16807D02*
X23991Y-16807D01*
X23590Y-18406D02*
X22991Y-17807D01*
X23590Y-21850D02*
X23590Y-18406D01*
X22834Y-17807D02*
X22991Y-17807D01*
X22991Y-17807D02*
X23991Y-16807D01*
M02*
