G04 (created by PCBNEW (2013-02-09 BZR 3938)-testing) date Mon 11 Feb 2013 04:26:08 PM CET*
%MOIN*%
G04 Gerber Fmt 3.4, Leading zero omitted, Abs format*
%FSLAX34Y34*%
G01*
G70*
G90*
G04 APERTURE LIST*
%ADD10C,3.14961e-06*%
%ADD11C,0.008*%
%ADD12C,0.015*%
%ADD13C,0.012*%
%ADD14C,0.01*%
%ADD15C,0.006*%
%ADD16C,0.0001*%
%ADD17R,0.0649606X0.0649606*%
%ADD18C,0.0649606*%
%ADD19C,0.16*%
%ADD20C,0.066*%
%ADD21R,0.09X0.062*%
%ADD22O,0.09X0.062*%
%ADD23R,0.055X0.055*%
%ADD24C,0.055*%
%ADD25C,0.06*%
%ADD26O,0.0591X0.0472*%
G04 APERTURE END LIST*
G54D10*
G54D11*
X20469Y-16401D02*
X20469Y-16001D01*
X20888Y-16401D02*
X20754Y-16211D01*
X20659Y-16401D02*
X20659Y-16001D01*
X20811Y-16001D01*
X20849Y-16020D01*
X20869Y-16040D01*
X20888Y-16078D01*
X20888Y-16135D01*
X20869Y-16173D01*
X20849Y-16192D01*
X20811Y-16211D01*
X20659Y-16211D01*
X34859Y-20791D02*
X34859Y-20391D01*
X35087Y-20791D01*
X35087Y-20391D01*
X35506Y-20753D02*
X35487Y-20772D01*
X35430Y-20791D01*
X35392Y-20791D01*
X35335Y-20772D01*
X35297Y-20734D01*
X35278Y-20696D01*
X35259Y-20620D01*
X35259Y-20563D01*
X35278Y-20487D01*
X35297Y-20449D01*
X35335Y-20410D01*
X35392Y-20391D01*
X35430Y-20391D01*
X35487Y-20410D01*
X35506Y-20430D01*
X34839Y-19367D02*
X35068Y-19367D01*
X34954Y-19767D02*
X34954Y-19367D01*
X35163Y-19367D02*
X35430Y-19767D01*
X35430Y-19367D02*
X35163Y-19767D01*
X35658Y-19367D02*
X35734Y-19367D01*
X35773Y-19386D01*
X35811Y-19425D01*
X35830Y-19501D01*
X35830Y-19634D01*
X35811Y-19710D01*
X35773Y-19748D01*
X35734Y-19767D01*
X35658Y-19767D01*
X35620Y-19748D01*
X35582Y-19710D01*
X35563Y-19634D01*
X35563Y-19501D01*
X35582Y-19425D01*
X35620Y-19386D01*
X35658Y-19367D01*
X35047Y-18771D02*
X34857Y-18771D01*
X34857Y-18371D01*
X35181Y-18562D02*
X35314Y-18562D01*
X35371Y-18771D02*
X35181Y-18771D01*
X35181Y-18371D01*
X35371Y-18371D01*
X35543Y-18771D02*
X35543Y-18371D01*
X35638Y-18371D01*
X35695Y-18390D01*
X35733Y-18429D01*
X35752Y-18467D01*
X35771Y-18543D01*
X35771Y-18600D01*
X35752Y-18676D01*
X35733Y-18714D01*
X35695Y-18752D01*
X35638Y-18771D01*
X35543Y-18771D01*
X34843Y-17371D02*
X34976Y-17771D01*
X35109Y-17371D01*
X35243Y-17771D02*
X35243Y-17505D01*
X35243Y-17371D02*
X35224Y-17390D01*
X35243Y-17410D01*
X35262Y-17390D01*
X35243Y-17371D01*
X35243Y-17410D01*
X35433Y-17505D02*
X35433Y-17771D01*
X35433Y-17543D02*
X35452Y-17524D01*
X35490Y-17505D01*
X35547Y-17505D01*
X35585Y-17524D01*
X35605Y-17562D01*
X35605Y-17771D01*
X34859Y-16775D02*
X34859Y-16375D01*
X35278Y-16775D02*
X35144Y-16585D01*
X35049Y-16775D02*
X35049Y-16375D01*
X35202Y-16375D01*
X35240Y-16394D01*
X35259Y-16414D01*
X35278Y-16452D01*
X35278Y-16509D01*
X35259Y-16547D01*
X35240Y-16566D01*
X35202Y-16585D01*
X35049Y-16585D01*
X34859Y-15639D02*
X35164Y-15639D01*
X23460Y-22634D02*
X23479Y-22614D01*
X23517Y-22595D01*
X23613Y-22595D01*
X23651Y-22614D01*
X23670Y-22634D01*
X23689Y-22672D01*
X23689Y-22710D01*
X23670Y-22767D01*
X23441Y-22995D01*
X23689Y-22995D01*
X23936Y-22595D02*
X23975Y-22595D01*
X24013Y-22614D01*
X24032Y-22634D01*
X24051Y-22672D01*
X24070Y-22748D01*
X24070Y-22843D01*
X24051Y-22919D01*
X24032Y-22957D01*
X24013Y-22976D01*
X23975Y-22995D01*
X23936Y-22995D01*
X23898Y-22976D01*
X23879Y-22957D01*
X23860Y-22919D01*
X23841Y-22843D01*
X23841Y-22748D01*
X23860Y-22672D01*
X23879Y-22634D01*
X23898Y-22614D01*
X23936Y-22595D01*
X24451Y-22995D02*
X24222Y-22995D01*
X24336Y-22995D02*
X24336Y-22595D01*
X24298Y-22653D01*
X24260Y-22691D01*
X24222Y-22710D01*
X24603Y-22634D02*
X24622Y-22614D01*
X24660Y-22595D01*
X24756Y-22595D01*
X24794Y-22614D01*
X24813Y-22634D01*
X24832Y-22672D01*
X24832Y-22710D01*
X24813Y-22767D01*
X24584Y-22995D01*
X24832Y-22995D01*
X25308Y-22843D02*
X25613Y-22843D01*
X26108Y-22995D02*
X26108Y-22595D01*
X26108Y-22748D02*
X26146Y-22729D01*
X26222Y-22729D01*
X26260Y-22748D01*
X26279Y-22767D01*
X26298Y-22805D01*
X26298Y-22919D01*
X26279Y-22957D01*
X26260Y-22976D01*
X26222Y-22995D01*
X26146Y-22995D01*
X26108Y-22976D01*
X26527Y-22995D02*
X26489Y-22976D01*
X26470Y-22938D01*
X26470Y-22595D01*
X26736Y-22995D02*
X26698Y-22976D01*
X26679Y-22957D01*
X26660Y-22919D01*
X26660Y-22805D01*
X26679Y-22767D01*
X26698Y-22748D01*
X26736Y-22729D01*
X26794Y-22729D01*
X26832Y-22748D01*
X26851Y-22767D01*
X26870Y-22805D01*
X26870Y-22919D01*
X26851Y-22957D01*
X26832Y-22976D01*
X26794Y-22995D01*
X26736Y-22995D01*
X27213Y-22729D02*
X27213Y-23053D01*
X27194Y-23091D01*
X27175Y-23110D01*
X27136Y-23129D01*
X27079Y-23129D01*
X27041Y-23110D01*
X27213Y-22976D02*
X27175Y-22995D01*
X27098Y-22995D01*
X27060Y-22976D01*
X27041Y-22957D01*
X27022Y-22919D01*
X27022Y-22805D01*
X27041Y-22767D01*
X27060Y-22748D01*
X27098Y-22729D01*
X27175Y-22729D01*
X27213Y-22748D01*
X27403Y-22957D02*
X27422Y-22976D01*
X27403Y-22995D01*
X27384Y-22976D01*
X27403Y-22957D01*
X27403Y-22995D01*
X27575Y-22976D02*
X27613Y-22995D01*
X27689Y-22995D01*
X27727Y-22976D01*
X27746Y-22938D01*
X27746Y-22919D01*
X27727Y-22881D01*
X27689Y-22862D01*
X27632Y-22862D01*
X27594Y-22843D01*
X27575Y-22805D01*
X27575Y-22786D01*
X27594Y-22748D01*
X27632Y-22729D01*
X27689Y-22729D01*
X27727Y-22748D01*
X27917Y-22729D02*
X27917Y-23129D01*
X27917Y-22748D02*
X27956Y-22729D01*
X28032Y-22729D01*
X28070Y-22748D01*
X28089Y-22767D01*
X28108Y-22805D01*
X28108Y-22919D01*
X28089Y-22957D01*
X28070Y-22976D01*
X28032Y-22995D01*
X27956Y-22995D01*
X27917Y-22976D01*
X28279Y-22995D02*
X28279Y-22729D01*
X28279Y-22595D02*
X28260Y-22614D01*
X28279Y-22634D01*
X28298Y-22614D01*
X28279Y-22595D01*
X28279Y-22634D01*
X28413Y-22729D02*
X28565Y-22729D01*
X28470Y-22595D02*
X28470Y-22938D01*
X28489Y-22976D01*
X28527Y-22995D01*
X28565Y-22995D01*
X28660Y-22729D02*
X28870Y-22729D01*
X28660Y-22995D01*
X28870Y-22995D01*
X29175Y-22976D02*
X29136Y-22995D01*
X29060Y-22995D01*
X29022Y-22976D01*
X29003Y-22938D01*
X29003Y-22786D01*
X29022Y-22748D01*
X29060Y-22729D01*
X29136Y-22729D01*
X29175Y-22748D01*
X29194Y-22786D01*
X29194Y-22824D01*
X29003Y-22862D01*
X29365Y-22729D02*
X29365Y-22995D01*
X29365Y-22767D02*
X29384Y-22748D01*
X29422Y-22729D01*
X29479Y-22729D01*
X29517Y-22748D01*
X29536Y-22786D01*
X29536Y-22995D01*
X29727Y-22729D02*
X29727Y-23129D01*
X29727Y-22748D02*
X29765Y-22729D01*
X29841Y-22729D01*
X29879Y-22748D01*
X29898Y-22767D01*
X29917Y-22805D01*
X29917Y-22919D01*
X29898Y-22957D01*
X29879Y-22976D01*
X29841Y-22995D01*
X29765Y-22995D01*
X29727Y-22976D01*
X30032Y-22729D02*
X30184Y-22729D01*
X30089Y-22995D02*
X30089Y-22653D01*
X30108Y-22614D01*
X30146Y-22595D01*
X30184Y-22595D01*
X30470Y-22976D02*
X30432Y-22995D01*
X30356Y-22995D01*
X30317Y-22976D01*
X30298Y-22938D01*
X30298Y-22786D01*
X30317Y-22748D01*
X30356Y-22729D01*
X30432Y-22729D01*
X30470Y-22748D01*
X30489Y-22786D01*
X30489Y-22824D01*
X30298Y-22862D01*
X30660Y-22995D02*
X30660Y-22729D01*
X30660Y-22595D02*
X30641Y-22614D01*
X30660Y-22634D01*
X30679Y-22614D01*
X30660Y-22595D01*
X30660Y-22634D01*
X30908Y-22995D02*
X30870Y-22976D01*
X30851Y-22938D01*
X30851Y-22595D01*
X31060Y-22957D02*
X31079Y-22976D01*
X31060Y-22995D01*
X31041Y-22976D01*
X31060Y-22957D01*
X31060Y-22995D01*
X31308Y-22995D02*
X31270Y-22976D01*
X31251Y-22957D01*
X31232Y-22919D01*
X31232Y-22805D01*
X31251Y-22767D01*
X31270Y-22748D01*
X31308Y-22729D01*
X31365Y-22729D01*
X31403Y-22748D01*
X31422Y-22767D01*
X31441Y-22805D01*
X31441Y-22919D01*
X31422Y-22957D01*
X31403Y-22976D01*
X31365Y-22995D01*
X31308Y-22995D01*
X31613Y-22995D02*
X31613Y-22729D01*
X31613Y-22805D02*
X31632Y-22767D01*
X31651Y-22748D01*
X31689Y-22729D01*
X31727Y-22729D01*
X32032Y-22729D02*
X32032Y-23053D01*
X32013Y-23091D01*
X31994Y-23110D01*
X31956Y-23129D01*
X31898Y-23129D01*
X31860Y-23110D01*
X32032Y-22976D02*
X31994Y-22995D01*
X31917Y-22995D01*
X31879Y-22976D01*
X31860Y-22957D01*
X31841Y-22919D01*
X31841Y-22805D01*
X31860Y-22767D01*
X31879Y-22748D01*
X31917Y-22729D01*
X31994Y-22729D01*
X32032Y-22748D01*
X24736Y-13547D02*
X24736Y-13147D01*
X25156Y-13547D02*
X25022Y-13357D01*
X24927Y-13547D02*
X24927Y-13147D01*
X25079Y-13147D01*
X25117Y-13166D01*
X25136Y-13186D01*
X25156Y-13224D01*
X25156Y-13281D01*
X25136Y-13319D01*
X25117Y-13338D01*
X25079Y-13357D01*
X24927Y-13357D01*
X25632Y-13547D02*
X25632Y-13281D01*
X25632Y-13357D02*
X25651Y-13319D01*
X25670Y-13300D01*
X25708Y-13281D01*
X25746Y-13281D01*
X26051Y-13547D02*
X26051Y-13338D01*
X26032Y-13300D01*
X25994Y-13281D01*
X25917Y-13281D01*
X25879Y-13300D01*
X26051Y-13528D02*
X26013Y-13547D01*
X25917Y-13547D01*
X25879Y-13528D01*
X25860Y-13490D01*
X25860Y-13452D01*
X25879Y-13414D01*
X25917Y-13395D01*
X26013Y-13395D01*
X26051Y-13376D01*
X26203Y-13281D02*
X26279Y-13547D01*
X26356Y-13357D01*
X26432Y-13547D01*
X26508Y-13281D01*
X26965Y-13547D02*
X26965Y-13281D01*
X26965Y-13357D02*
X26984Y-13319D01*
X27003Y-13300D01*
X27041Y-13281D01*
X27079Y-13281D01*
X27365Y-13528D02*
X27327Y-13547D01*
X27251Y-13547D01*
X27213Y-13528D01*
X27194Y-13490D01*
X27194Y-13338D01*
X27213Y-13300D01*
X27251Y-13281D01*
X27327Y-13281D01*
X27365Y-13300D01*
X27384Y-13338D01*
X27384Y-13376D01*
X27194Y-13414D01*
X27727Y-13528D02*
X27689Y-13547D01*
X27613Y-13547D01*
X27575Y-13528D01*
X27556Y-13509D01*
X27536Y-13471D01*
X27536Y-13357D01*
X27556Y-13319D01*
X27575Y-13300D01*
X27613Y-13281D01*
X27689Y-13281D01*
X27727Y-13300D01*
X28051Y-13528D02*
X28013Y-13547D01*
X27936Y-13547D01*
X27898Y-13528D01*
X27879Y-13490D01*
X27879Y-13338D01*
X27898Y-13300D01*
X27936Y-13281D01*
X28013Y-13281D01*
X28051Y-13300D01*
X28070Y-13338D01*
X28070Y-13376D01*
X27879Y-13414D01*
X28241Y-13547D02*
X28241Y-13281D01*
X28241Y-13147D02*
X28222Y-13166D01*
X28241Y-13186D01*
X28260Y-13166D01*
X28241Y-13147D01*
X28241Y-13186D01*
X28394Y-13281D02*
X28489Y-13547D01*
X28584Y-13281D01*
X28889Y-13528D02*
X28851Y-13547D01*
X28775Y-13547D01*
X28736Y-13528D01*
X28717Y-13490D01*
X28717Y-13338D01*
X28736Y-13300D01*
X28775Y-13281D01*
X28851Y-13281D01*
X28889Y-13300D01*
X28908Y-13338D01*
X28908Y-13376D01*
X28717Y-13414D01*
X29079Y-13547D02*
X29079Y-13281D01*
X29079Y-13357D02*
X29098Y-13319D01*
X29117Y-13300D01*
X29156Y-13281D01*
X29194Y-13281D01*
X29841Y-13547D02*
X29613Y-13547D01*
X29727Y-13547D02*
X29727Y-13147D01*
X29689Y-13205D01*
X29651Y-13243D01*
X29613Y-13262D01*
X30013Y-13509D02*
X30032Y-13528D01*
X30013Y-13547D01*
X29994Y-13528D01*
X30013Y-13509D01*
X30013Y-13547D01*
X30413Y-13547D02*
X30184Y-13547D01*
X30298Y-13547D02*
X30298Y-13147D01*
X30260Y-13205D01*
X30222Y-13243D01*
X30184Y-13262D01*
X30660Y-13147D02*
X30698Y-13147D01*
X30736Y-13166D01*
X30755Y-13186D01*
X30775Y-13224D01*
X30794Y-13300D01*
X30794Y-13395D01*
X30775Y-13471D01*
X30755Y-13509D01*
X30736Y-13528D01*
X30698Y-13547D01*
X30660Y-13547D01*
X30622Y-13528D01*
X30603Y-13509D01*
X30584Y-13471D01*
X30565Y-13395D01*
X30565Y-13300D01*
X30584Y-13224D01*
X30603Y-13186D01*
X30622Y-13166D01*
X30660Y-13147D01*
G54D12*
X38976Y-12795D02*
X19684Y-12795D01*
X38976Y-23425D02*
X38976Y-12795D01*
X19684Y-23425D02*
X38976Y-23425D01*
X19684Y-12795D02*
X19684Y-23425D01*
G54D11*
X20516Y-19891D02*
X20821Y-19891D01*
X20669Y-20043D02*
X20669Y-19739D01*
X23272Y-21662D02*
X23577Y-21662D01*
X23425Y-21814D02*
X23425Y-21510D01*
G54D13*
X33555Y-15110D02*
X34555Y-15110D01*
X34555Y-15110D02*
X34555Y-21110D01*
X34555Y-21110D02*
X33555Y-21110D01*
X33555Y-21110D02*
X33555Y-15110D01*
X33555Y-16110D02*
X34555Y-16110D01*
X20169Y-16610D02*
X21169Y-16610D01*
X21169Y-16610D02*
X21169Y-19610D01*
X21169Y-19610D02*
X20169Y-19610D01*
X20169Y-19610D02*
X20169Y-16610D01*
X21169Y-17610D02*
X20169Y-17610D01*
G54D12*
X22638Y-14370D02*
G75*
G03X22638Y-14370I-1378J0D01*
G74*
G01*
X22160Y-14370D02*
G75*
G03X22160Y-14370I-900J0D01*
G74*
G01*
G54D14*
X37295Y-18830D02*
X38295Y-18830D01*
G54D15*
X38179Y-17749D02*
G75*
G03X37795Y-17610I-384J-460D01*
G74*
G01*
X37795Y-17610D02*
G75*
G03X37397Y-17761I0J-599D01*
G74*
G01*
X37795Y-18809D02*
G75*
G03X38184Y-18665I0J599D01*
G74*
G01*
X37410Y-18670D02*
G75*
G03X37795Y-18810I384J460D01*
G74*
G01*
X38144Y-18697D02*
G75*
G03X38395Y-18210I-349J487D01*
G74*
G01*
X38395Y-18210D02*
G75*
G03X38155Y-17730I-600J0D01*
G74*
G01*
X37195Y-18210D02*
G75*
G03X37426Y-18682I599J0D01*
G74*
G01*
X37426Y-17736D02*
G75*
G03X37195Y-18210I368J-473D01*
G74*
G01*
X38045Y-18210D02*
G75*
G03X37795Y-17960I-250J0D01*
G74*
G01*
X38195Y-18210D02*
G75*
G03X37795Y-17810I-400J0D01*
G74*
G01*
X37545Y-18210D02*
G75*
G03X37795Y-18460I250J0D01*
G74*
G01*
X37395Y-18210D02*
G75*
G03X37795Y-18610I400J0D01*
G74*
G01*
G54D14*
X38308Y-18823D02*
G75*
G03X38595Y-18210I-513J613D01*
G74*
G01*
X38594Y-18210D02*
G75*
G03X38171Y-17505I-799J0D01*
G74*
G01*
X36996Y-18211D02*
G75*
G03X37279Y-18820I798J1D01*
G74*
G01*
X37397Y-17515D02*
G75*
G03X36995Y-18210I397J-694D01*
G74*
G01*
X38174Y-17505D02*
G75*
G03X37795Y-17410I-379J-704D01*
G74*
G01*
X37795Y-17410D02*
G75*
G03X37376Y-17528I0J-799D01*
G74*
G01*
G54D12*
X30905Y-16614D02*
X28937Y-16614D01*
X28937Y-19606D02*
X30905Y-19606D01*
X30905Y-19606D02*
X30905Y-16614D01*
X28937Y-16614D02*
X28937Y-19567D01*
X28937Y-19567D02*
X28937Y-19606D01*
X28701Y-16378D02*
X29921Y-16378D01*
X28701Y-16378D02*
X28701Y-17638D01*
X38779Y-21850D02*
G75*
G03X38779Y-21850I-1378J0D01*
G74*
G01*
X38301Y-21850D02*
G75*
G03X38301Y-21850I-900J0D01*
G74*
G01*
X38779Y-14370D02*
G75*
G03X38779Y-14370I-1378J0D01*
G74*
G01*
X38301Y-14370D02*
G75*
G03X38301Y-14370I-900J0D01*
G74*
G01*
X22637Y-21850D02*
G75*
G03X22637Y-21850I-1378J0D01*
G74*
G01*
X22159Y-21850D02*
G75*
G03X22159Y-21850I-900J0D01*
G74*
G01*
G54D16*
G36*
X34309Y-22833D02*
X34326Y-22831D01*
X34342Y-22826D01*
X34349Y-22822D01*
X34363Y-22812D01*
X34374Y-22800D01*
X34383Y-22786D01*
X34389Y-22770D01*
X34391Y-22754D01*
X34391Y-22737D01*
X34387Y-22721D01*
X34379Y-22705D01*
X34374Y-22698D01*
X34367Y-22690D01*
X34360Y-22683D01*
X34352Y-22678D01*
X34350Y-22676D01*
X34336Y-22670D01*
X34321Y-22666D01*
X34304Y-22665D01*
X34298Y-22666D01*
X34289Y-22667D01*
X34281Y-22669D01*
X34272Y-22673D01*
X34262Y-22678D01*
X34248Y-22689D01*
X34237Y-22702D01*
X34229Y-22718D01*
X34226Y-22725D01*
X34224Y-22733D01*
X34223Y-22740D01*
X34223Y-22741D01*
X34223Y-22741D01*
X34222Y-22738D01*
X34222Y-22737D01*
X34220Y-22726D01*
X34216Y-22715D01*
X34211Y-22705D01*
X34201Y-22693D01*
X34188Y-22681D01*
X34174Y-22672D01*
X34157Y-22667D01*
X34139Y-22665D01*
X34135Y-22665D01*
X34121Y-22667D01*
X34109Y-22670D01*
X34106Y-22671D01*
X34092Y-22679D01*
X34079Y-22690D01*
X34069Y-22702D01*
X34061Y-22717D01*
X34056Y-22732D01*
X34056Y-22732D01*
X34055Y-22736D01*
X34055Y-22738D01*
X34055Y-22738D01*
X34055Y-22736D01*
X34054Y-22732D01*
X34053Y-22730D01*
X34048Y-22715D01*
X34040Y-22701D01*
X34029Y-22688D01*
X34019Y-22680D01*
X34005Y-22672D01*
X33989Y-22667D01*
X33971Y-22665D01*
X33958Y-22666D01*
X33941Y-22670D01*
X33926Y-22678D01*
X33913Y-22689D01*
X33901Y-22702D01*
X33900Y-22704D01*
X33896Y-22710D01*
X33894Y-22715D01*
X33892Y-22719D01*
X33890Y-22727D01*
X33888Y-22734D01*
X33887Y-22740D01*
X33887Y-22741D01*
X33887Y-22741D01*
X33886Y-22737D01*
X33884Y-22728D01*
X33880Y-22716D01*
X33875Y-22706D01*
X33865Y-22693D01*
X33852Y-22681D01*
X33837Y-22672D01*
X33821Y-22667D01*
X33803Y-22665D01*
X33787Y-22666D01*
X33771Y-22671D01*
X33756Y-22679D01*
X33742Y-22691D01*
X33736Y-22698D01*
X33729Y-22707D01*
X33724Y-22718D01*
X33721Y-22727D01*
X33719Y-22744D01*
X33719Y-22760D01*
X33723Y-22776D01*
X33729Y-22791D01*
X33739Y-22804D01*
X33750Y-22815D01*
X33764Y-22824D01*
X33779Y-22830D01*
X33796Y-22833D01*
X33798Y-22833D01*
X33815Y-22832D01*
X33831Y-22829D01*
X33847Y-22821D01*
X33852Y-22818D01*
X33863Y-22808D01*
X33873Y-22796D01*
X33880Y-22783D01*
X33882Y-22778D01*
X33884Y-22771D01*
X33886Y-22764D01*
X33887Y-22758D01*
X33887Y-22755D01*
X33887Y-22758D01*
X33888Y-22761D01*
X33889Y-22768D01*
X33892Y-22777D01*
X33894Y-22784D01*
X33898Y-22791D01*
X33909Y-22805D01*
X33921Y-22817D01*
X33936Y-22826D01*
X33953Y-22832D01*
X33956Y-22832D01*
X33968Y-22833D01*
X33980Y-22833D01*
X33991Y-22831D01*
X34002Y-22828D01*
X34018Y-22819D01*
X34032Y-22808D01*
X34033Y-22807D01*
X34042Y-22795D01*
X34049Y-22781D01*
X34054Y-22767D01*
X34054Y-22766D01*
X34055Y-22762D01*
X34055Y-22760D01*
X34055Y-22761D01*
X34056Y-22765D01*
X34056Y-22766D01*
X34058Y-22775D01*
X34062Y-22784D01*
X34067Y-22794D01*
X34075Y-22804D01*
X34087Y-22816D01*
X34102Y-22825D01*
X34119Y-22831D01*
X34122Y-22832D01*
X34133Y-22833D01*
X34145Y-22833D01*
X34156Y-22832D01*
X34166Y-22829D01*
X34181Y-22822D01*
X34195Y-22811D01*
X34207Y-22799D01*
X34216Y-22784D01*
X34218Y-22779D01*
X34220Y-22771D01*
X34222Y-22764D01*
X34223Y-22758D01*
X34223Y-22757D01*
X34223Y-22757D01*
X34224Y-22761D01*
X34224Y-22761D01*
X34226Y-22772D01*
X34230Y-22783D01*
X34235Y-22793D01*
X34238Y-22796D01*
X34248Y-22809D01*
X34262Y-22820D01*
X34276Y-22828D01*
X34292Y-22832D01*
X34309Y-22833D01*
X34309Y-22833D01*
G37*
G36*
X33629Y-22665D02*
X33639Y-22665D01*
X33649Y-22664D01*
X33660Y-22661D01*
X33676Y-22654D01*
X33690Y-22644D01*
X33702Y-22631D01*
X33710Y-22617D01*
X33716Y-22601D01*
X33718Y-22583D01*
X33717Y-22566D01*
X33713Y-22550D01*
X33705Y-22535D01*
X33695Y-22522D01*
X33681Y-22511D01*
X33677Y-22508D01*
X33661Y-22500D01*
X33644Y-22497D01*
X33626Y-22497D01*
X33609Y-22500D01*
X33595Y-22506D01*
X33580Y-22516D01*
X33568Y-22528D01*
X33559Y-22543D01*
X33552Y-22560D01*
X33551Y-22568D01*
X33550Y-22579D01*
X33550Y-22590D01*
X33552Y-22599D01*
X33553Y-22602D01*
X33559Y-22619D01*
X33569Y-22634D01*
X33582Y-22647D01*
X33597Y-22656D01*
X33604Y-22659D01*
X33614Y-22663D01*
X33623Y-22664D01*
X33629Y-22665D01*
X33629Y-22665D01*
G37*
G36*
X34478Y-22665D02*
X34495Y-22663D01*
X34512Y-22657D01*
X34527Y-22647D01*
X34531Y-22645D01*
X34542Y-22632D01*
X34552Y-22618D01*
X34558Y-22601D01*
X34559Y-22593D01*
X34560Y-22582D01*
X34560Y-22571D01*
X34558Y-22562D01*
X34557Y-22558D01*
X34550Y-22541D01*
X34541Y-22527D01*
X34529Y-22515D01*
X34514Y-22506D01*
X34498Y-22499D01*
X34480Y-22496D01*
X34474Y-22496D01*
X34457Y-22498D01*
X34441Y-22504D01*
X34427Y-22512D01*
X34415Y-22523D01*
X34405Y-22536D01*
X34397Y-22551D01*
X34393Y-22567D01*
X34392Y-22584D01*
X34393Y-22595D01*
X34395Y-22604D01*
X34398Y-22614D01*
X34405Y-22627D01*
X34416Y-22640D01*
X34429Y-22651D01*
X34444Y-22659D01*
X34460Y-22664D01*
X34478Y-22665D01*
X34478Y-22665D01*
G37*
G36*
X33461Y-22496D02*
X33473Y-22496D01*
X33483Y-22495D01*
X33495Y-22491D01*
X33511Y-22483D01*
X33525Y-22472D01*
X33534Y-22461D01*
X33543Y-22447D01*
X33548Y-22430D01*
X33549Y-22423D01*
X33550Y-22413D01*
X33549Y-22403D01*
X33548Y-22395D01*
X33547Y-22389D01*
X33540Y-22373D01*
X33531Y-22358D01*
X33518Y-22346D01*
X33503Y-22337D01*
X33497Y-22334D01*
X33486Y-22330D01*
X33475Y-22328D01*
X33463Y-22328D01*
X33455Y-22329D01*
X33446Y-22330D01*
X33437Y-22332D01*
X33428Y-22337D01*
X33423Y-22339D01*
X33409Y-22350D01*
X33397Y-22363D01*
X33388Y-22378D01*
X33383Y-22395D01*
X33382Y-22399D01*
X33381Y-22409D01*
X33382Y-22420D01*
X33383Y-22429D01*
X33384Y-22435D01*
X33391Y-22451D01*
X33400Y-22466D01*
X33413Y-22478D01*
X33428Y-22487D01*
X33445Y-22494D01*
X33450Y-22495D01*
X33461Y-22496D01*
X33461Y-22496D01*
G37*
G36*
X34137Y-22496D02*
X34154Y-22495D01*
X34170Y-22491D01*
X34179Y-22486D01*
X34193Y-22476D01*
X34205Y-22464D01*
X34215Y-22449D01*
X34220Y-22432D01*
X34221Y-22429D01*
X34223Y-22415D01*
X34223Y-22402D01*
X34219Y-22388D01*
X34213Y-22371D01*
X34203Y-22357D01*
X34190Y-22345D01*
X34175Y-22336D01*
X34158Y-22330D01*
X34147Y-22327D01*
X34153Y-22327D01*
X34154Y-22326D01*
X34166Y-22323D01*
X34179Y-22318D01*
X34190Y-22310D01*
X34192Y-22308D01*
X34205Y-22296D01*
X34214Y-22282D01*
X34220Y-22266D01*
X34223Y-22250D01*
X34222Y-22234D01*
X34219Y-22217D01*
X34211Y-22202D01*
X34211Y-22201D01*
X34201Y-22187D01*
X34188Y-22176D01*
X34174Y-22168D01*
X34158Y-22163D01*
X34142Y-22160D01*
X34126Y-22161D01*
X34110Y-22165D01*
X34095Y-22173D01*
X34081Y-22183D01*
X34073Y-22191D01*
X34065Y-22204D01*
X34059Y-22217D01*
X34056Y-22229D01*
X34055Y-22232D01*
X34055Y-22234D01*
X34055Y-22233D01*
X34054Y-22229D01*
X34051Y-22218D01*
X34046Y-22206D01*
X34039Y-22195D01*
X34035Y-22189D01*
X34022Y-22177D01*
X34008Y-22168D01*
X33991Y-22163D01*
X33974Y-22160D01*
X33957Y-22161D01*
X33947Y-22164D01*
X33930Y-22171D01*
X33916Y-22181D01*
X33904Y-22193D01*
X33895Y-22208D01*
X33889Y-22224D01*
X33888Y-22233D01*
X33887Y-22249D01*
X33890Y-22266D01*
X33896Y-22282D01*
X33906Y-22296D01*
X33918Y-22308D01*
X33933Y-22318D01*
X33939Y-22321D01*
X33947Y-22324D01*
X33954Y-22326D01*
X33960Y-22327D01*
X33961Y-22327D01*
X33960Y-22328D01*
X33957Y-22329D01*
X33948Y-22331D01*
X33937Y-22335D01*
X33927Y-22340D01*
X33922Y-22343D01*
X33911Y-22353D01*
X33901Y-22365D01*
X33894Y-22378D01*
X33889Y-22392D01*
X33887Y-22407D01*
X33887Y-22422D01*
X33888Y-22425D01*
X33893Y-22442D01*
X33900Y-22458D01*
X33912Y-22472D01*
X33921Y-22480D01*
X33936Y-22489D01*
X33953Y-22495D01*
X33960Y-22495D01*
X33969Y-22496D01*
X33978Y-22495D01*
X33987Y-22495D01*
X33994Y-22493D01*
X34000Y-22492D01*
X34016Y-22483D01*
X34030Y-22472D01*
X34041Y-22459D01*
X34045Y-22452D01*
X34051Y-22441D01*
X34054Y-22430D01*
X34054Y-22429D01*
X34055Y-22425D01*
X34055Y-22423D01*
X34055Y-22423D01*
X34055Y-22401D01*
X34055Y-22401D01*
X34055Y-22399D01*
X34054Y-22395D01*
X34054Y-22393D01*
X34049Y-22378D01*
X34040Y-22364D01*
X34030Y-22352D01*
X34017Y-22341D01*
X34003Y-22334D01*
X34002Y-22333D01*
X33994Y-22331D01*
X33987Y-22329D01*
X33980Y-22328D01*
X33987Y-22326D01*
X33997Y-22324D01*
X34012Y-22317D01*
X34026Y-22308D01*
X34037Y-22296D01*
X34046Y-22282D01*
X34050Y-22275D01*
X34053Y-22266D01*
X34054Y-22259D01*
X34055Y-22256D01*
X34055Y-22254D01*
X34055Y-22255D01*
X34056Y-22259D01*
X34057Y-22265D01*
X34060Y-22274D01*
X34064Y-22282D01*
X34069Y-22291D01*
X34080Y-22303D01*
X34093Y-22314D01*
X34108Y-22322D01*
X34123Y-22326D01*
X34131Y-22328D01*
X34123Y-22329D01*
X34122Y-22329D01*
X34115Y-22331D01*
X34107Y-22334D01*
X34106Y-22334D01*
X34092Y-22342D01*
X34079Y-22353D01*
X34069Y-22365D01*
X34061Y-22380D01*
X34056Y-22394D01*
X34056Y-22395D01*
X34055Y-22399D01*
X34055Y-22401D01*
X34055Y-22423D01*
X34055Y-22423D01*
X34055Y-22425D01*
X34056Y-22430D01*
X34059Y-22440D01*
X34066Y-22455D01*
X34077Y-22469D01*
X34089Y-22480D01*
X34104Y-22489D01*
X34104Y-22489D01*
X34120Y-22494D01*
X34137Y-22496D01*
X34137Y-22496D01*
G37*
G36*
X34638Y-22496D02*
X34652Y-22496D01*
X34664Y-22494D01*
X34672Y-22492D01*
X34688Y-22484D01*
X34702Y-22474D01*
X34713Y-22461D01*
X34722Y-22446D01*
X34727Y-22430D01*
X34729Y-22412D01*
X34728Y-22405D01*
X34725Y-22388D01*
X34718Y-22371D01*
X34708Y-22356D01*
X34705Y-22353D01*
X34693Y-22343D01*
X34679Y-22335D01*
X34664Y-22330D01*
X34664Y-22330D01*
X34651Y-22328D01*
X34637Y-22328D01*
X34625Y-22330D01*
X34620Y-22331D01*
X34604Y-22338D01*
X34590Y-22347D01*
X34579Y-22359D01*
X34570Y-22373D01*
X34563Y-22388D01*
X34560Y-22405D01*
X34561Y-22422D01*
X34564Y-22439D01*
X34570Y-22452D01*
X34580Y-22466D01*
X34592Y-22478D01*
X34607Y-22487D01*
X34623Y-22494D01*
X34625Y-22494D01*
X34638Y-22496D01*
X34638Y-22496D01*
G37*
G36*
X33805Y-21992D02*
X33822Y-21990D01*
X33838Y-21984D01*
X33846Y-21980D01*
X33853Y-21975D01*
X33861Y-21968D01*
X33870Y-21958D01*
X33879Y-21944D01*
X33885Y-21928D01*
X33886Y-21923D01*
X33887Y-21912D01*
X33887Y-21900D01*
X33885Y-21890D01*
X33881Y-21876D01*
X33873Y-21861D01*
X33863Y-21848D01*
X33861Y-21846D01*
X33853Y-21840D01*
X33844Y-21834D01*
X33836Y-21830D01*
X33833Y-21829D01*
X33826Y-21826D01*
X33819Y-21825D01*
X33814Y-21824D01*
X33811Y-21824D01*
X33814Y-21823D01*
X33818Y-21822D01*
X33824Y-21821D01*
X33830Y-21819D01*
X33842Y-21813D01*
X33855Y-21805D01*
X33865Y-21796D01*
X33866Y-21794D01*
X33877Y-21780D01*
X33883Y-21764D01*
X33887Y-21747D01*
X33887Y-21730D01*
X33886Y-21726D01*
X33881Y-21709D01*
X33873Y-21693D01*
X33862Y-21679D01*
X33852Y-21670D01*
X33837Y-21662D01*
X33821Y-21656D01*
X33817Y-21656D01*
X33806Y-21655D01*
X33794Y-21655D01*
X33783Y-21657D01*
X33774Y-21660D01*
X33758Y-21667D01*
X33745Y-21678D01*
X33734Y-21690D01*
X33725Y-21705D01*
X33720Y-21721D01*
X33720Y-21723D01*
X33719Y-21727D01*
X33718Y-21729D01*
X33718Y-21727D01*
X33717Y-21723D01*
X33715Y-21716D01*
X33713Y-21709D01*
X33710Y-21702D01*
X33707Y-21697D01*
X33697Y-21683D01*
X33684Y-21671D01*
X33669Y-21662D01*
X33653Y-21657D01*
X33635Y-21655D01*
X33621Y-21656D01*
X33605Y-21660D01*
X33590Y-21667D01*
X33581Y-21673D01*
X33569Y-21685D01*
X33560Y-21700D01*
X33553Y-21715D01*
X33550Y-21732D01*
X33550Y-21749D01*
X33554Y-21764D01*
X33561Y-21781D01*
X33571Y-21795D01*
X33584Y-21806D01*
X33599Y-21815D01*
X33616Y-21821D01*
X33626Y-21824D01*
X33620Y-21824D01*
X33617Y-21825D01*
X33603Y-21829D01*
X33590Y-21836D01*
X33578Y-21845D01*
X33568Y-21855D01*
X33562Y-21864D01*
X33556Y-21876D01*
X33552Y-21887D01*
X33551Y-21896D01*
X33550Y-21906D01*
X33550Y-21917D01*
X33552Y-21926D01*
X33555Y-21936D01*
X33563Y-21952D01*
X33573Y-21966D01*
X33587Y-21977D01*
X33602Y-21985D01*
X33620Y-21991D01*
X33624Y-21991D01*
X33635Y-21992D01*
X33646Y-21991D01*
X33655Y-21989D01*
X33662Y-21987D01*
X33678Y-21979D01*
X33692Y-21969D01*
X33703Y-21956D01*
X33712Y-21941D01*
X33717Y-21924D01*
X33717Y-21923D01*
X33718Y-21919D01*
X33719Y-21919D01*
X33719Y-21896D01*
X33718Y-21895D01*
X33717Y-21892D01*
X33717Y-21891D01*
X33714Y-21880D01*
X33709Y-21868D01*
X33702Y-21857D01*
X33697Y-21851D01*
X33684Y-21839D01*
X33668Y-21830D01*
X33651Y-21825D01*
X33643Y-21823D01*
X33649Y-21822D01*
X33654Y-21821D01*
X33659Y-21819D01*
X33663Y-21818D01*
X33678Y-21811D01*
X33692Y-21800D01*
X33703Y-21788D01*
X33711Y-21773D01*
X33717Y-21757D01*
X33717Y-21753D01*
X33718Y-21750D01*
X33719Y-21752D01*
X33720Y-21757D01*
X33720Y-21757D01*
X33723Y-21766D01*
X33727Y-21776D01*
X33732Y-21785D01*
X33737Y-21791D01*
X33744Y-21799D01*
X33753Y-21807D01*
X33761Y-21812D01*
X33761Y-21812D01*
X33774Y-21818D01*
X33788Y-21822D01*
X33794Y-21823D01*
X33787Y-21824D01*
X33772Y-21829D01*
X33757Y-21837D01*
X33744Y-21847D01*
X33733Y-21860D01*
X33730Y-21864D01*
X33726Y-21872D01*
X33723Y-21881D01*
X33720Y-21889D01*
X33719Y-21894D01*
X33719Y-21894D01*
X33719Y-21896D01*
X33719Y-21919D01*
X33719Y-21919D01*
X33720Y-21923D01*
X33721Y-21928D01*
X33722Y-21933D01*
X33726Y-21942D01*
X33734Y-21957D01*
X33745Y-21969D01*
X33758Y-21979D01*
X33773Y-21986D01*
X33789Y-21991D01*
X33805Y-21992D01*
X33805Y-21992D01*
G37*
G36*
X34312Y-21992D02*
X34328Y-21989D01*
X34344Y-21983D01*
X34358Y-21974D01*
X34371Y-21963D01*
X34380Y-21949D01*
X34388Y-21933D01*
X34389Y-21928D01*
X34390Y-21923D01*
X34390Y-21922D01*
X34391Y-21919D01*
X34391Y-21919D01*
X34391Y-21896D01*
X34391Y-21893D01*
X34389Y-21887D01*
X34386Y-21878D01*
X34379Y-21863D01*
X34368Y-21849D01*
X34356Y-21838D01*
X34341Y-21830D01*
X34324Y-21825D01*
X34316Y-21823D01*
X34322Y-21822D01*
X34323Y-21822D01*
X34336Y-21818D01*
X34349Y-21812D01*
X34355Y-21809D01*
X34363Y-21802D01*
X34371Y-21793D01*
X34378Y-21785D01*
X34382Y-21778D01*
X34387Y-21767D01*
X34390Y-21757D01*
X34391Y-21753D01*
X34391Y-21750D01*
X34392Y-21752D01*
X34393Y-21757D01*
X34397Y-21768D01*
X34404Y-21783D01*
X34415Y-21797D01*
X34428Y-21808D01*
X34444Y-21817D01*
X34461Y-21822D01*
X34467Y-21823D01*
X34459Y-21825D01*
X34451Y-21827D01*
X34435Y-21834D01*
X34420Y-21844D01*
X34408Y-21857D01*
X34405Y-21862D01*
X34400Y-21870D01*
X34397Y-21879D01*
X34395Y-21885D01*
X34393Y-21891D01*
X34393Y-21891D01*
X34392Y-21895D01*
X34391Y-21896D01*
X34391Y-21919D01*
X34392Y-21920D01*
X34393Y-21924D01*
X34394Y-21930D01*
X34399Y-21942D01*
X34406Y-21954D01*
X34411Y-21961D01*
X34423Y-21973D01*
X34438Y-21983D01*
X34455Y-21989D01*
X34463Y-21991D01*
X34474Y-21991D01*
X34486Y-21991D01*
X34497Y-21989D01*
X34498Y-21989D01*
X34515Y-21982D01*
X34529Y-21972D01*
X34542Y-21960D01*
X34551Y-21945D01*
X34558Y-21928D01*
X34559Y-21921D01*
X34560Y-21909D01*
X34559Y-21897D01*
X34558Y-21887D01*
X34555Y-21878D01*
X34549Y-21866D01*
X34542Y-21855D01*
X34534Y-21847D01*
X34524Y-21838D01*
X34513Y-21832D01*
X34509Y-21830D01*
X34501Y-21827D01*
X34493Y-21825D01*
X34487Y-21824D01*
X34487Y-21824D01*
X34489Y-21823D01*
X34494Y-21821D01*
X34503Y-21818D01*
X34514Y-21814D01*
X34524Y-21809D01*
X34525Y-21807D01*
X34536Y-21797D01*
X34546Y-21785D01*
X34553Y-21773D01*
X34556Y-21767D01*
X34559Y-21750D01*
X34560Y-21732D01*
X34557Y-21715D01*
X34556Y-21712D01*
X34549Y-21696D01*
X34538Y-21682D01*
X34525Y-21671D01*
X34510Y-21662D01*
X34494Y-21656D01*
X34491Y-21656D01*
X34480Y-21655D01*
X34467Y-21655D01*
X34456Y-21657D01*
X34454Y-21657D01*
X34437Y-21664D01*
X34422Y-21674D01*
X34410Y-21686D01*
X34400Y-21702D01*
X34398Y-21707D01*
X34395Y-21714D01*
X34393Y-21721D01*
X34392Y-21727D01*
X34392Y-21728D01*
X34392Y-21729D01*
X34391Y-21726D01*
X34390Y-21722D01*
X34387Y-21710D01*
X34380Y-21695D01*
X34369Y-21682D01*
X34357Y-21671D01*
X34342Y-21662D01*
X34342Y-21662D01*
X34326Y-21657D01*
X34309Y-21655D01*
X34292Y-21656D01*
X34276Y-21660D01*
X34267Y-21665D01*
X34253Y-21675D01*
X34241Y-21687D01*
X34231Y-21702D01*
X34226Y-21718D01*
X34225Y-21722D01*
X34223Y-21736D01*
X34223Y-21749D01*
X34227Y-21764D01*
X34234Y-21780D01*
X34244Y-21795D01*
X34257Y-21806D01*
X34272Y-21815D01*
X34289Y-21821D01*
X34293Y-21822D01*
X34296Y-21823D01*
X34296Y-21824D01*
X34291Y-21824D01*
X34281Y-21827D01*
X34271Y-21832D01*
X34261Y-21837D01*
X34251Y-21844D01*
X34240Y-21857D01*
X34231Y-21873D01*
X34229Y-21875D01*
X34224Y-21892D01*
X34223Y-21909D01*
X34225Y-21926D01*
X34231Y-21942D01*
X34234Y-21950D01*
X34240Y-21958D01*
X34247Y-21966D01*
X34247Y-21966D01*
X34261Y-21978D01*
X34276Y-21986D01*
X34293Y-21991D01*
X34295Y-21991D01*
X34312Y-21992D01*
X34312Y-21992D01*
G37*
G36*
X33657Y-14566D02*
X33664Y-14562D01*
X33679Y-14553D01*
X33701Y-14538D01*
X33727Y-14521D01*
X33753Y-14503D01*
X33775Y-14489D01*
X33790Y-14479D01*
X33796Y-14476D01*
X33799Y-14477D01*
X33812Y-14483D01*
X33829Y-14492D01*
X33840Y-14498D01*
X33856Y-14505D01*
X33865Y-14506D01*
X33866Y-14504D01*
X33872Y-14492D01*
X33881Y-14470D01*
X33894Y-14442D01*
X33908Y-14408D01*
X33923Y-14372D01*
X33939Y-14336D01*
X33953Y-14301D01*
X33966Y-14269D01*
X33976Y-14243D01*
X33983Y-14226D01*
X33986Y-14218D01*
X33985Y-14216D01*
X33977Y-14208D01*
X33962Y-14198D01*
X33931Y-14172D01*
X33900Y-14134D01*
X33882Y-14091D01*
X33875Y-14042D01*
X33881Y-13997D01*
X33898Y-13955D01*
X33928Y-13916D01*
X33965Y-13887D01*
X34007Y-13869D01*
X34055Y-13863D01*
X34100Y-13868D01*
X34144Y-13886D01*
X34183Y-13915D01*
X34200Y-13934D01*
X34222Y-13973D01*
X34235Y-14015D01*
X34236Y-14026D01*
X34234Y-14072D01*
X34221Y-14116D01*
X34196Y-14155D01*
X34163Y-14188D01*
X34158Y-14191D01*
X34143Y-14203D01*
X34132Y-14211D01*
X34124Y-14217D01*
X34183Y-14359D01*
X34192Y-14381D01*
X34208Y-14420D01*
X34222Y-14453D01*
X34234Y-14480D01*
X34242Y-14498D01*
X34245Y-14505D01*
X34245Y-14505D01*
X34251Y-14506D01*
X34261Y-14502D01*
X34281Y-14493D01*
X34294Y-14486D01*
X34309Y-14479D01*
X34316Y-14476D01*
X34322Y-14479D01*
X34336Y-14488D01*
X34357Y-14502D01*
X34383Y-14520D01*
X34407Y-14536D01*
X34429Y-14551D01*
X34445Y-14561D01*
X34453Y-14565D01*
X34454Y-14565D01*
X34461Y-14561D01*
X34474Y-14551D01*
X34493Y-14533D01*
X34520Y-14506D01*
X34524Y-14501D01*
X34547Y-14479D01*
X34565Y-14460D01*
X34577Y-14446D01*
X34582Y-14440D01*
X34582Y-14440D01*
X34578Y-14432D01*
X34567Y-14416D01*
X34553Y-14393D01*
X34535Y-14367D01*
X34488Y-14299D01*
X34514Y-14235D01*
X34522Y-14215D01*
X34532Y-14191D01*
X34539Y-14174D01*
X34543Y-14167D01*
X34550Y-14164D01*
X34567Y-14160D01*
X34593Y-14155D01*
X34623Y-14149D01*
X34652Y-14144D01*
X34678Y-14139D01*
X34697Y-14135D01*
X34706Y-14134D01*
X34708Y-14132D01*
X34710Y-14128D01*
X34711Y-14119D01*
X34711Y-14103D01*
X34712Y-14078D01*
X34712Y-14042D01*
X34712Y-14038D01*
X34711Y-14004D01*
X34711Y-13976D01*
X34710Y-13959D01*
X34709Y-13952D01*
X34709Y-13952D01*
X34700Y-13950D01*
X34682Y-13946D01*
X34656Y-13941D01*
X34625Y-13935D01*
X34623Y-13934D01*
X34592Y-13928D01*
X34565Y-13923D01*
X34547Y-13919D01*
X34540Y-13916D01*
X34538Y-13914D01*
X34532Y-13902D01*
X34523Y-13883D01*
X34512Y-13859D01*
X34502Y-13835D01*
X34494Y-13813D01*
X34488Y-13796D01*
X34486Y-13789D01*
X34486Y-13789D01*
X34491Y-13781D01*
X34501Y-13765D01*
X34516Y-13743D01*
X34535Y-13716D01*
X34536Y-13714D01*
X34554Y-13688D01*
X34568Y-13666D01*
X34578Y-13650D01*
X34582Y-13643D01*
X34581Y-13642D01*
X34576Y-13635D01*
X34562Y-13620D01*
X34543Y-13600D01*
X34520Y-13576D01*
X34513Y-13569D01*
X34487Y-13544D01*
X34469Y-13528D01*
X34458Y-13519D01*
X34453Y-13517D01*
X34453Y-13517D01*
X34445Y-13522D01*
X34428Y-13533D01*
X34406Y-13548D01*
X34379Y-13566D01*
X34377Y-13568D01*
X34351Y-13586D01*
X34329Y-13600D01*
X34314Y-13611D01*
X34307Y-13615D01*
X34306Y-13615D01*
X34295Y-13612D01*
X34276Y-13605D01*
X34253Y-13596D01*
X34229Y-13586D01*
X34207Y-13577D01*
X34190Y-13570D01*
X34183Y-13565D01*
X34182Y-13565D01*
X34180Y-13555D01*
X34175Y-13536D01*
X34169Y-13509D01*
X34163Y-13476D01*
X34162Y-13471D01*
X34156Y-13440D01*
X34151Y-13414D01*
X34148Y-13396D01*
X34146Y-13389D01*
X34141Y-13388D01*
X34126Y-13387D01*
X34103Y-13386D01*
X34075Y-13386D01*
X34045Y-13386D01*
X34016Y-13387D01*
X33992Y-13387D01*
X33974Y-13389D01*
X33966Y-13390D01*
X33966Y-13391D01*
X33963Y-13400D01*
X33959Y-13420D01*
X33954Y-13447D01*
X33947Y-13479D01*
X33946Y-13485D01*
X33940Y-13516D01*
X33935Y-13542D01*
X33931Y-13560D01*
X33929Y-13567D01*
X33927Y-13568D01*
X33914Y-13574D01*
X33893Y-13582D01*
X33867Y-13593D01*
X33807Y-13617D01*
X33733Y-13567D01*
X33726Y-13562D01*
X33700Y-13544D01*
X33678Y-13529D01*
X33663Y-13520D01*
X33656Y-13516D01*
X33656Y-13516D01*
X33648Y-13523D01*
X33634Y-13536D01*
X33614Y-13556D01*
X33591Y-13579D01*
X33573Y-13596D01*
X33553Y-13617D01*
X33540Y-13631D01*
X33533Y-13640D01*
X33531Y-13645D01*
X33531Y-13649D01*
X33536Y-13656D01*
X33547Y-13673D01*
X33562Y-13695D01*
X33580Y-13721D01*
X33595Y-13743D01*
X33611Y-13768D01*
X33621Y-13785D01*
X33625Y-13794D01*
X33624Y-13798D01*
X33619Y-13812D01*
X33610Y-13834D01*
X33599Y-13860D01*
X33573Y-13918D01*
X33535Y-13926D01*
X33512Y-13930D01*
X33479Y-13936D01*
X33448Y-13942D01*
X33400Y-13952D01*
X33398Y-14129D01*
X33406Y-14132D01*
X33413Y-14134D01*
X33431Y-14138D01*
X33456Y-14143D01*
X33487Y-14149D01*
X33512Y-14154D01*
X33538Y-14159D01*
X33557Y-14162D01*
X33565Y-14164D01*
X33567Y-14167D01*
X33574Y-14179D01*
X33583Y-14199D01*
X33593Y-14223D01*
X33604Y-14248D01*
X33613Y-14271D01*
X33619Y-14289D01*
X33622Y-14298D01*
X33618Y-14305D01*
X33608Y-14320D01*
X33594Y-14342D01*
X33576Y-14368D01*
X33559Y-14393D01*
X33544Y-14416D01*
X33534Y-14431D01*
X33529Y-14439D01*
X33531Y-14444D01*
X33542Y-14456D01*
X33561Y-14476D01*
X33590Y-14505D01*
X33595Y-14509D01*
X33618Y-14532D01*
X33637Y-14550D01*
X33651Y-14562D01*
X33657Y-14566D01*
X33657Y-14566D01*
G37*
G54D12*
X25303Y-16110D02*
X25303Y-16610D01*
X25303Y-16610D02*
X24303Y-16610D01*
X24303Y-16610D02*
X24303Y-16110D01*
X25803Y-16110D02*
X25803Y-20110D01*
X25803Y-20110D02*
X23803Y-20110D01*
X23803Y-20110D02*
X23803Y-16110D01*
X23803Y-16110D02*
X25803Y-16110D01*
G54D13*
X27256Y-16610D02*
X28256Y-16610D01*
X28256Y-16610D02*
X28256Y-19610D01*
X28256Y-19610D02*
X27256Y-19610D01*
X27256Y-19610D02*
X27256Y-16610D01*
X28256Y-17610D02*
X27256Y-17610D01*
X27394Y-15157D02*
X26994Y-15157D01*
X26994Y-15157D02*
X26994Y-15557D01*
X26994Y-15557D02*
X23794Y-15557D01*
X23794Y-15557D02*
X23794Y-14757D01*
X23794Y-14757D02*
X26994Y-14757D01*
X26994Y-14757D02*
X26994Y-15157D01*
X26994Y-15357D02*
X26794Y-15557D01*
X23394Y-15157D02*
X23794Y-15157D01*
X27394Y-14173D02*
X26994Y-14173D01*
X26994Y-14173D02*
X26994Y-14573D01*
X26994Y-14573D02*
X23794Y-14573D01*
X23794Y-14573D02*
X23794Y-13773D01*
X23794Y-13773D02*
X26994Y-13773D01*
X26994Y-13773D02*
X26994Y-14173D01*
X26994Y-14373D02*
X26794Y-14573D01*
X23394Y-14173D02*
X23794Y-14173D01*
X32315Y-15157D02*
X31915Y-15157D01*
X31915Y-15157D02*
X31915Y-15557D01*
X31915Y-15557D02*
X28715Y-15557D01*
X28715Y-15557D02*
X28715Y-14757D01*
X28715Y-14757D02*
X31915Y-14757D01*
X31915Y-14757D02*
X31915Y-15157D01*
X31915Y-15357D02*
X31715Y-15557D01*
X28315Y-15157D02*
X28715Y-15157D01*
X30740Y-20472D02*
X30340Y-20472D01*
X30340Y-20472D02*
X30340Y-20872D01*
X30340Y-20872D02*
X27140Y-20872D01*
X27140Y-20872D02*
X27140Y-20072D01*
X27140Y-20072D02*
X30340Y-20072D01*
X30340Y-20072D02*
X30340Y-20472D01*
X30340Y-20672D02*
X30140Y-20872D01*
X26740Y-20472D02*
X27140Y-20472D01*
X32315Y-14173D02*
X31915Y-14173D01*
X31915Y-14173D02*
X31915Y-14573D01*
X31915Y-14573D02*
X28715Y-14573D01*
X28715Y-14573D02*
X28715Y-13773D01*
X28715Y-13773D02*
X31915Y-13773D01*
X31915Y-13773D02*
X31915Y-14173D01*
X31915Y-14373D02*
X31715Y-14573D01*
X28315Y-14173D02*
X28715Y-14173D01*
X21547Y-19090D02*
X21547Y-17110D01*
X21547Y-17110D02*
X22547Y-17110D01*
X22547Y-17110D02*
X22547Y-19110D01*
X22547Y-19110D02*
X21547Y-19110D01*
X21797Y-19110D02*
X21547Y-18860D01*
X36417Y-16110D02*
X36417Y-16510D01*
X36417Y-16510D02*
X36817Y-16510D01*
X36817Y-16510D02*
X36817Y-19710D01*
X36817Y-19710D02*
X36017Y-19710D01*
X36017Y-19710D02*
X36017Y-16510D01*
X36017Y-16510D02*
X36417Y-16510D01*
X36617Y-16510D02*
X36817Y-16710D01*
X36417Y-20110D02*
X36417Y-19710D01*
X32299Y-21350D02*
X32299Y-22350D01*
X32299Y-22350D02*
X30299Y-22350D01*
X30299Y-22350D02*
X30299Y-21350D01*
X30299Y-21350D02*
X32299Y-21350D01*
X33263Y-16838D02*
X31283Y-16838D01*
X31283Y-16838D02*
X31283Y-15838D01*
X31283Y-15838D02*
X33283Y-15838D01*
X33283Y-15838D02*
X33283Y-16838D01*
X33283Y-16588D02*
X33033Y-16838D01*
X31303Y-19382D02*
X33283Y-19382D01*
X33283Y-19382D02*
X33283Y-20382D01*
X33283Y-20382D02*
X31283Y-20382D01*
X31283Y-20382D02*
X31283Y-19382D01*
X31283Y-19632D02*
X31533Y-19382D01*
X23823Y-21153D02*
X25803Y-21153D01*
X25803Y-21153D02*
X25803Y-22153D01*
X25803Y-22153D02*
X23803Y-22153D01*
X23803Y-22153D02*
X23803Y-21153D01*
X23803Y-21403D02*
X24053Y-21153D01*
G54D12*
X31927Y-17609D02*
G75*
G03X32176Y-18859I749J-500D01*
G74*
G01*
X33177Y-17360D02*
G75*
G03X31927Y-17609I-500J-749D01*
G74*
G01*
X31927Y-18610D02*
G75*
G03X33177Y-18859I749J500D01*
G74*
G01*
X33177Y-17360D02*
X33177Y-18860D01*
G54D11*
X30121Y-16401D02*
X30121Y-16001D01*
X30292Y-16382D02*
X30350Y-16401D01*
X30445Y-16401D01*
X30483Y-16382D01*
X30502Y-16363D01*
X30521Y-16325D01*
X30521Y-16287D01*
X30502Y-16249D01*
X30483Y-16230D01*
X30445Y-16211D01*
X30369Y-16192D01*
X30331Y-16173D01*
X30312Y-16154D01*
X30292Y-16116D01*
X30292Y-16078D01*
X30312Y-16040D01*
X30331Y-16020D01*
X30369Y-16001D01*
X30464Y-16001D01*
X30521Y-16020D01*
X30692Y-16401D02*
X30692Y-16001D01*
X30845Y-16001D01*
X30883Y-16020D01*
X30902Y-16040D01*
X30921Y-16078D01*
X30921Y-16135D01*
X30902Y-16173D01*
X30883Y-16192D01*
X30845Y-16211D01*
X30692Y-16211D01*
X23631Y-20618D02*
X23822Y-20618D01*
X23593Y-20732D02*
X23726Y-20332D01*
X23860Y-20732D01*
X23936Y-20332D02*
X24164Y-20332D01*
X24050Y-20732D02*
X24050Y-20332D01*
X24241Y-20466D02*
X24393Y-20466D01*
X24298Y-20332D02*
X24298Y-20675D01*
X24317Y-20713D01*
X24355Y-20732D01*
X24393Y-20732D01*
X24526Y-20732D02*
X24526Y-20466D01*
X24526Y-20332D02*
X24507Y-20351D01*
X24526Y-20371D01*
X24545Y-20351D01*
X24526Y-20332D01*
X24526Y-20371D01*
X24717Y-20466D02*
X24717Y-20732D01*
X24717Y-20504D02*
X24736Y-20485D01*
X24774Y-20466D01*
X24831Y-20466D01*
X24869Y-20485D01*
X24888Y-20523D01*
X24888Y-20732D01*
X25041Y-20466D02*
X25136Y-20732D01*
X25231Y-20466D02*
X25136Y-20732D01*
X25098Y-20828D01*
X25079Y-20847D01*
X25041Y-20866D01*
X25441Y-20504D02*
X25403Y-20485D01*
X25383Y-20466D01*
X25364Y-20428D01*
X25364Y-20409D01*
X25383Y-20371D01*
X25403Y-20351D01*
X25441Y-20332D01*
X25517Y-20332D01*
X25555Y-20351D01*
X25574Y-20371D01*
X25593Y-20409D01*
X25593Y-20428D01*
X25574Y-20466D01*
X25555Y-20485D01*
X25517Y-20504D01*
X25441Y-20504D01*
X25403Y-20523D01*
X25383Y-20542D01*
X25364Y-20580D01*
X25364Y-20656D01*
X25383Y-20694D01*
X25403Y-20713D01*
X25441Y-20732D01*
X25517Y-20732D01*
X25555Y-20713D01*
X25574Y-20694D01*
X25593Y-20656D01*
X25593Y-20580D01*
X25574Y-20542D01*
X25555Y-20523D01*
X25517Y-20504D01*
X25955Y-20332D02*
X25764Y-20332D01*
X25745Y-20523D01*
X25764Y-20504D01*
X25803Y-20485D01*
X25898Y-20485D01*
X25936Y-20504D01*
X25955Y-20523D01*
X25974Y-20561D01*
X25974Y-20656D01*
X25955Y-20694D01*
X25936Y-20713D01*
X25898Y-20732D01*
X25803Y-20732D01*
X25764Y-20713D01*
X25745Y-20694D01*
X27717Y-16440D02*
X27679Y-16420D01*
X27641Y-16382D01*
X27584Y-16325D01*
X27546Y-16306D01*
X27508Y-16306D01*
X27527Y-16401D02*
X27489Y-16382D01*
X27451Y-16344D01*
X27432Y-16268D01*
X27432Y-16135D01*
X27451Y-16059D01*
X27489Y-16020D01*
X27527Y-16001D01*
X27603Y-16001D01*
X27641Y-16020D01*
X27679Y-16059D01*
X27698Y-16135D01*
X27698Y-16268D01*
X27679Y-16344D01*
X27641Y-16382D01*
X27603Y-16401D01*
X27527Y-16401D01*
X28079Y-16401D02*
X27851Y-16401D01*
X27965Y-16401D02*
X27965Y-16001D01*
X27927Y-16059D01*
X27889Y-16097D01*
X27851Y-16116D01*
X26311Y-15318D02*
X26178Y-15128D01*
X26082Y-15318D02*
X26082Y-14918D01*
X26235Y-14918D01*
X26273Y-14937D01*
X26292Y-14957D01*
X26311Y-14995D01*
X26311Y-15052D01*
X26292Y-15090D01*
X26273Y-15109D01*
X26235Y-15128D01*
X26082Y-15128D01*
X26463Y-14957D02*
X26482Y-14937D01*
X26520Y-14918D01*
X26616Y-14918D01*
X26654Y-14937D01*
X26673Y-14957D01*
X26692Y-14995D01*
X26692Y-15033D01*
X26673Y-15090D01*
X26444Y-15318D01*
X26692Y-15318D01*
X24318Y-14918D02*
X24127Y-14918D01*
X24108Y-15109D01*
X24127Y-15090D01*
X24165Y-15071D01*
X24261Y-15071D01*
X24299Y-15090D01*
X24318Y-15109D01*
X24337Y-15147D01*
X24337Y-15242D01*
X24318Y-15280D01*
X24299Y-15299D01*
X24261Y-15318D01*
X24165Y-15318D01*
X24127Y-15299D01*
X24108Y-15280D01*
X24718Y-15318D02*
X24489Y-15318D01*
X24604Y-15318D02*
X24604Y-14918D01*
X24565Y-14976D01*
X24527Y-15014D01*
X24489Y-15033D01*
X24965Y-14918D02*
X25004Y-14918D01*
X25042Y-14937D01*
X25061Y-14957D01*
X25080Y-14995D01*
X25099Y-15071D01*
X25099Y-15166D01*
X25080Y-15242D01*
X25061Y-15280D01*
X25042Y-15299D01*
X25004Y-15318D01*
X24965Y-15318D01*
X24927Y-15299D01*
X24908Y-15280D01*
X24889Y-15242D01*
X24870Y-15166D01*
X24870Y-15071D01*
X24889Y-14995D01*
X24908Y-14957D01*
X24927Y-14937D01*
X24965Y-14918D01*
X25499Y-15318D02*
X25365Y-15128D01*
X25270Y-15318D02*
X25270Y-14918D01*
X25423Y-14918D01*
X25461Y-14937D01*
X25480Y-14957D01*
X25499Y-14995D01*
X25499Y-15052D01*
X25480Y-15090D01*
X25461Y-15109D01*
X25423Y-15128D01*
X25270Y-15128D01*
X24343Y-14334D02*
X24210Y-14144D01*
X24114Y-14334D02*
X24114Y-13934D01*
X24267Y-13934D01*
X24305Y-13953D01*
X24324Y-13973D01*
X24343Y-14011D01*
X24343Y-14068D01*
X24324Y-14106D01*
X24305Y-14125D01*
X24267Y-14144D01*
X24114Y-14144D01*
X24686Y-14068D02*
X24686Y-14334D01*
X24590Y-13915D02*
X24495Y-14201D01*
X24743Y-14201D01*
X25498Y-13934D02*
X25307Y-13934D01*
X25288Y-14125D01*
X25307Y-14106D01*
X25345Y-14087D01*
X25441Y-14087D01*
X25479Y-14106D01*
X25498Y-14125D01*
X25517Y-14163D01*
X25517Y-14258D01*
X25498Y-14296D01*
X25479Y-14315D01*
X25441Y-14334D01*
X25345Y-14334D01*
X25307Y-14315D01*
X25288Y-14296D01*
X25898Y-14334D02*
X25669Y-14334D01*
X25784Y-14334D02*
X25784Y-13934D01*
X25745Y-13992D01*
X25707Y-14030D01*
X25669Y-14049D01*
X26145Y-13934D02*
X26184Y-13934D01*
X26222Y-13953D01*
X26241Y-13973D01*
X26260Y-14011D01*
X26279Y-14087D01*
X26279Y-14182D01*
X26260Y-14258D01*
X26241Y-14296D01*
X26222Y-14315D01*
X26184Y-14334D01*
X26145Y-14334D01*
X26107Y-14315D01*
X26088Y-14296D01*
X26069Y-14258D01*
X26050Y-14182D01*
X26050Y-14087D01*
X26069Y-14011D01*
X26088Y-13973D01*
X26107Y-13953D01*
X26145Y-13934D01*
X26679Y-14334D02*
X26545Y-14144D01*
X26450Y-14334D02*
X26450Y-13934D01*
X26603Y-13934D01*
X26641Y-13953D01*
X26660Y-13973D01*
X26679Y-14011D01*
X26679Y-14068D01*
X26660Y-14106D01*
X26641Y-14125D01*
X26603Y-14144D01*
X26450Y-14144D01*
X29264Y-15318D02*
X29131Y-15128D01*
X29035Y-15318D02*
X29035Y-14918D01*
X29188Y-14918D01*
X29226Y-14937D01*
X29245Y-14957D01*
X29264Y-14995D01*
X29264Y-15052D01*
X29245Y-15090D01*
X29226Y-15109D01*
X29188Y-15128D01*
X29035Y-15128D01*
X29626Y-14918D02*
X29435Y-14918D01*
X29416Y-15109D01*
X29435Y-15090D01*
X29473Y-15071D01*
X29569Y-15071D01*
X29607Y-15090D01*
X29626Y-15109D01*
X29645Y-15147D01*
X29645Y-15242D01*
X29626Y-15280D01*
X29607Y-15299D01*
X29569Y-15318D01*
X29473Y-15318D01*
X29435Y-15299D01*
X29416Y-15280D01*
X30420Y-14918D02*
X30229Y-14918D01*
X30210Y-15109D01*
X30229Y-15090D01*
X30267Y-15071D01*
X30363Y-15071D01*
X30401Y-15090D01*
X30420Y-15109D01*
X30439Y-15147D01*
X30439Y-15242D01*
X30420Y-15280D01*
X30401Y-15299D01*
X30363Y-15318D01*
X30267Y-15318D01*
X30229Y-15299D01*
X30210Y-15280D01*
X30820Y-15318D02*
X30591Y-15318D01*
X30706Y-15318D02*
X30706Y-14918D01*
X30667Y-14976D01*
X30629Y-15014D01*
X30591Y-15033D01*
X31067Y-14918D02*
X31106Y-14918D01*
X31144Y-14937D01*
X31163Y-14957D01*
X31182Y-14995D01*
X31201Y-15071D01*
X31201Y-15166D01*
X31182Y-15242D01*
X31163Y-15280D01*
X31144Y-15299D01*
X31106Y-15318D01*
X31067Y-15318D01*
X31029Y-15299D01*
X31010Y-15280D01*
X30991Y-15242D01*
X30972Y-15166D01*
X30972Y-15071D01*
X30991Y-14995D01*
X31010Y-14957D01*
X31029Y-14937D01*
X31067Y-14918D01*
X31601Y-15318D02*
X31467Y-15128D01*
X31372Y-15318D02*
X31372Y-14918D01*
X31525Y-14918D01*
X31563Y-14937D01*
X31582Y-14957D01*
X31601Y-14995D01*
X31601Y-15052D01*
X31582Y-15090D01*
X31563Y-15109D01*
X31525Y-15128D01*
X31372Y-15128D01*
X29657Y-20633D02*
X29524Y-20443D01*
X29428Y-20633D02*
X29428Y-20233D01*
X29581Y-20233D01*
X29619Y-20252D01*
X29638Y-20272D01*
X29657Y-20310D01*
X29657Y-20367D01*
X29638Y-20405D01*
X29619Y-20424D01*
X29581Y-20443D01*
X29428Y-20443D01*
X30038Y-20633D02*
X29809Y-20633D01*
X29924Y-20633D02*
X29924Y-20233D01*
X29885Y-20291D01*
X29847Y-20329D01*
X29809Y-20348D01*
X27714Y-20633D02*
X27486Y-20633D01*
X27600Y-20633D02*
X27600Y-20233D01*
X27562Y-20291D01*
X27524Y-20329D01*
X27486Y-20348D01*
X27962Y-20233D02*
X28000Y-20233D01*
X28038Y-20252D01*
X28057Y-20272D01*
X28076Y-20310D01*
X28095Y-20386D01*
X28095Y-20481D01*
X28076Y-20557D01*
X28057Y-20595D01*
X28038Y-20614D01*
X28000Y-20633D01*
X27962Y-20633D01*
X27924Y-20614D01*
X27905Y-20595D01*
X27886Y-20557D01*
X27867Y-20481D01*
X27867Y-20386D01*
X27886Y-20310D01*
X27905Y-20272D01*
X27924Y-20252D01*
X27962Y-20233D01*
X28267Y-20633D02*
X28267Y-20233D01*
X28305Y-20481D02*
X28419Y-20633D01*
X28419Y-20367D02*
X28267Y-20519D01*
X29264Y-14334D02*
X29131Y-14144D01*
X29035Y-14334D02*
X29035Y-13934D01*
X29188Y-13934D01*
X29226Y-13953D01*
X29245Y-13973D01*
X29264Y-14011D01*
X29264Y-14068D01*
X29245Y-14106D01*
X29226Y-14125D01*
X29188Y-14144D01*
X29035Y-14144D01*
X29397Y-13934D02*
X29645Y-13934D01*
X29511Y-14087D01*
X29569Y-14087D01*
X29607Y-14106D01*
X29626Y-14125D01*
X29645Y-14163D01*
X29645Y-14258D01*
X29626Y-14296D01*
X29607Y-14315D01*
X29569Y-14334D01*
X29454Y-14334D01*
X29416Y-14315D01*
X29397Y-14296D01*
X30420Y-13934D02*
X30229Y-13934D01*
X30210Y-14125D01*
X30229Y-14106D01*
X30267Y-14087D01*
X30363Y-14087D01*
X30401Y-14106D01*
X30420Y-14125D01*
X30439Y-14163D01*
X30439Y-14258D01*
X30420Y-14296D01*
X30401Y-14315D01*
X30363Y-14334D01*
X30267Y-14334D01*
X30229Y-14315D01*
X30210Y-14296D01*
X30820Y-14334D02*
X30591Y-14334D01*
X30706Y-14334D02*
X30706Y-13934D01*
X30667Y-13992D01*
X30629Y-14030D01*
X30591Y-14049D01*
X31067Y-13934D02*
X31106Y-13934D01*
X31144Y-13953D01*
X31163Y-13973D01*
X31182Y-14011D01*
X31201Y-14087D01*
X31201Y-14182D01*
X31182Y-14258D01*
X31163Y-14296D01*
X31144Y-14315D01*
X31106Y-14334D01*
X31067Y-14334D01*
X31029Y-14315D01*
X31010Y-14296D01*
X30991Y-14258D01*
X30972Y-14182D01*
X30972Y-14087D01*
X30991Y-14011D01*
X31010Y-13973D01*
X31029Y-13953D01*
X31067Y-13934D01*
X31601Y-14334D02*
X31467Y-14144D01*
X31372Y-14334D02*
X31372Y-13934D01*
X31525Y-13934D01*
X31563Y-13953D01*
X31582Y-13973D01*
X31601Y-14011D01*
X31601Y-14068D01*
X31582Y-14106D01*
X31563Y-14125D01*
X31525Y-14144D01*
X31372Y-14144D01*
X21980Y-16855D02*
X21961Y-16874D01*
X21904Y-16893D01*
X21866Y-16893D01*
X21808Y-16874D01*
X21770Y-16836D01*
X21751Y-16798D01*
X21732Y-16722D01*
X21732Y-16665D01*
X21751Y-16589D01*
X21770Y-16551D01*
X21808Y-16512D01*
X21866Y-16493D01*
X21904Y-16493D01*
X21961Y-16512D01*
X21980Y-16532D01*
X22361Y-16893D02*
X22132Y-16893D01*
X22247Y-16893D02*
X22247Y-16493D01*
X22208Y-16551D01*
X22170Y-16589D01*
X22132Y-16608D01*
X36578Y-17191D02*
X36388Y-17324D01*
X36578Y-17420D02*
X36178Y-17420D01*
X36178Y-17267D01*
X36197Y-17229D01*
X36217Y-17210D01*
X36255Y-17191D01*
X36312Y-17191D01*
X36350Y-17210D01*
X36369Y-17229D01*
X36388Y-17267D01*
X36388Y-17420D01*
X36178Y-16848D02*
X36178Y-16924D01*
X36197Y-16963D01*
X36217Y-16982D01*
X36274Y-17020D01*
X36350Y-17039D01*
X36502Y-17039D01*
X36540Y-17020D01*
X36559Y-17001D01*
X36578Y-16963D01*
X36578Y-16886D01*
X36559Y-16848D01*
X36540Y-16829D01*
X36502Y-16810D01*
X36407Y-16810D01*
X36369Y-16829D01*
X36350Y-16848D01*
X36331Y-16886D01*
X36331Y-16963D01*
X36350Y-17001D01*
X36369Y-17020D01*
X36407Y-17039D01*
X36578Y-19141D02*
X36578Y-19370D01*
X36578Y-19255D02*
X36178Y-19255D01*
X36236Y-19293D01*
X36274Y-19332D01*
X36293Y-19370D01*
X36578Y-18970D02*
X36178Y-18970D01*
X36426Y-18932D02*
X36578Y-18817D01*
X36312Y-18817D02*
X36464Y-18970D01*
X29121Y-21611D02*
X29254Y-22011D01*
X29387Y-21611D01*
X29521Y-22011D02*
X29521Y-21745D01*
X29521Y-21611D02*
X29502Y-21630D01*
X29521Y-21650D01*
X29540Y-21630D01*
X29521Y-21611D01*
X29521Y-21650D01*
X29711Y-21745D02*
X29711Y-22011D01*
X29711Y-21783D02*
X29730Y-21764D01*
X29768Y-21745D01*
X29826Y-21745D01*
X29864Y-21764D01*
X29883Y-21802D01*
X29883Y-22011D01*
X30073Y-21973D02*
X30092Y-21992D01*
X30073Y-22011D01*
X30054Y-21992D01*
X30073Y-21973D01*
X30073Y-22011D01*
X30073Y-21859D02*
X30054Y-21630D01*
X30073Y-21611D01*
X30092Y-21630D01*
X30073Y-21859D01*
X30073Y-21611D01*
X33194Y-15420D02*
X33213Y-15439D01*
X33232Y-15496D01*
X33232Y-15534D01*
X33213Y-15592D01*
X33175Y-15630D01*
X33137Y-15649D01*
X33061Y-15668D01*
X33004Y-15668D01*
X32928Y-15649D01*
X32890Y-15630D01*
X32851Y-15592D01*
X32832Y-15534D01*
X32832Y-15496D01*
X32851Y-15439D01*
X32871Y-15420D01*
X32871Y-15268D02*
X32851Y-15249D01*
X32832Y-15211D01*
X32832Y-15115D01*
X32851Y-15077D01*
X32871Y-15058D01*
X32909Y-15039D01*
X32947Y-15039D01*
X33004Y-15058D01*
X33232Y-15287D01*
X33232Y-15039D01*
X33194Y-20932D02*
X33213Y-20951D01*
X33232Y-21008D01*
X33232Y-21046D01*
X33213Y-21104D01*
X33175Y-21142D01*
X33137Y-21161D01*
X33061Y-21180D01*
X33004Y-21180D01*
X32928Y-21161D01*
X32890Y-21142D01*
X32851Y-21104D01*
X32832Y-21046D01*
X32832Y-21008D01*
X32851Y-20951D01*
X32871Y-20932D01*
X32832Y-20799D02*
X32832Y-20551D01*
X32985Y-20685D01*
X32985Y-20627D01*
X33004Y-20589D01*
X33023Y-20570D01*
X33061Y-20551D01*
X33156Y-20551D01*
X33194Y-20570D01*
X33213Y-20589D01*
X33232Y-20627D01*
X33232Y-20742D01*
X33213Y-20780D01*
X33194Y-20799D01*
X26213Y-21776D02*
X26194Y-21795D01*
X26137Y-21814D01*
X26099Y-21814D01*
X26041Y-21795D01*
X26003Y-21757D01*
X25984Y-21719D01*
X25965Y-21643D01*
X25965Y-21586D01*
X25984Y-21510D01*
X26003Y-21472D01*
X26041Y-21433D01*
X26099Y-21414D01*
X26137Y-21414D01*
X26194Y-21433D01*
X26213Y-21453D01*
X26556Y-21548D02*
X26556Y-21814D01*
X26460Y-21395D02*
X26365Y-21681D01*
X26613Y-21681D01*
X31559Y-18910D02*
X31559Y-19100D01*
X31159Y-19100D01*
X31159Y-18814D02*
X31159Y-18548D01*
X31559Y-18719D01*
X31331Y-18338D02*
X31312Y-18376D01*
X31293Y-18395D01*
X31255Y-18414D01*
X31236Y-18414D01*
X31198Y-18395D01*
X31178Y-18376D01*
X31159Y-18338D01*
X31159Y-18262D01*
X31178Y-18224D01*
X31198Y-18205D01*
X31236Y-18186D01*
X31255Y-18186D01*
X31293Y-18205D01*
X31312Y-18224D01*
X31331Y-18262D01*
X31331Y-18338D01*
X31350Y-18376D01*
X31369Y-18395D01*
X31407Y-18414D01*
X31483Y-18414D01*
X31521Y-18395D01*
X31540Y-18376D01*
X31559Y-18338D01*
X31559Y-18262D01*
X31540Y-18224D01*
X31521Y-18205D01*
X31483Y-18186D01*
X31407Y-18186D01*
X31369Y-18205D01*
X31350Y-18224D01*
X31331Y-18262D01*
X31559Y-17824D02*
X31559Y-18014D01*
X31159Y-18014D01*
X31159Y-17614D02*
X31159Y-17576D01*
X31178Y-17538D01*
X31198Y-17519D01*
X31236Y-17500D01*
X31312Y-17481D01*
X31407Y-17481D01*
X31483Y-17500D01*
X31521Y-17519D01*
X31540Y-17538D01*
X31559Y-17576D01*
X31559Y-17614D01*
X31540Y-17652D01*
X31521Y-17671D01*
X31483Y-17690D01*
X31407Y-17710D01*
X31312Y-17710D01*
X31236Y-17690D01*
X31198Y-17671D01*
X31178Y-17652D01*
X31159Y-17614D01*
X31159Y-17119D02*
X31159Y-17310D01*
X31350Y-17329D01*
X31331Y-17310D01*
X31312Y-17271D01*
X31312Y-17176D01*
X31331Y-17138D01*
X31350Y-17119D01*
X31388Y-17100D01*
X31483Y-17100D01*
X31521Y-17119D01*
X31540Y-17138D01*
X31559Y-17176D01*
X31559Y-17271D01*
X31540Y-17310D01*
X31521Y-17329D01*
%LPC*%
G54D17*
X34055Y-15610D03*
G54D18*
X34055Y-16610D03*
X34055Y-17610D03*
X34055Y-18610D03*
X34055Y-19610D03*
X34055Y-20610D03*
G54D17*
X20669Y-17110D03*
G54D18*
X20669Y-18110D03*
X20669Y-19110D03*
G54D19*
X21260Y-14370D03*
G54D20*
X37795Y-17610D03*
X37795Y-18610D03*
G54D17*
X29421Y-17110D03*
G54D18*
X30421Y-17110D03*
X29421Y-18110D03*
X30421Y-18110D03*
X29421Y-19110D03*
X30421Y-19110D03*
G54D19*
X37401Y-21850D03*
X37401Y-14370D03*
X21259Y-21850D03*
G54D21*
X23303Y-16610D03*
G54D22*
X23303Y-17610D03*
X23303Y-18610D03*
X23303Y-19610D03*
X26303Y-19610D03*
X26303Y-18610D03*
X26303Y-17610D03*
X26303Y-16610D03*
G54D23*
X27756Y-17110D03*
G54D24*
X27756Y-18110D03*
X27756Y-19110D03*
G54D25*
X27394Y-15157D03*
X23394Y-15157D03*
X27394Y-14173D03*
X23394Y-14173D03*
X32315Y-15157D03*
X28315Y-15157D03*
X30740Y-20472D03*
X26740Y-20472D03*
X32315Y-14173D03*
X28315Y-14173D03*
G54D24*
X22047Y-18610D03*
X22047Y-17610D03*
G54D25*
X36417Y-16110D03*
X36417Y-20110D03*
G54D17*
X31799Y-21850D03*
G54D18*
X30799Y-21850D03*
G54D24*
X32783Y-16338D03*
X31783Y-16338D03*
X31783Y-19882D03*
X32783Y-19882D03*
X24303Y-21653D03*
X25303Y-21653D03*
G54D26*
X32677Y-17610D03*
X32677Y-18610D03*
X32177Y-18110D03*
M02*
