G04 (created by PCBNEW-RS274X (2012-jan-04)-stable) date Sat 31 Mar 2012 10:17:58 PM CEST*
G01*
G70*
G90*
%MOIN*%
G04 Gerber Fmt 3.4, Leading zero omitted, Abs format*
%FSLAX34Y34*%
G04 APERTURE LIST*
%ADD10C,0.008000*%
%ADD11C,0.015000*%
%ADD12C,0.012000*%
%ADD13C,0.010000*%
%ADD14C,0.006000*%
%ADD15C,0.000100*%
%ADD16R,0.055000X0.055000*%
%ADD17C,0.055000*%
%ADD18C,0.160000*%
%ADD19C,0.066000*%
%ADD20R,0.060000X0.060000*%
%ADD21C,0.060000*%
%ADD22R,0.090000X0.062000*%
%ADD23O,0.090000X0.062000*%
%ADD24O,0.059100X0.047200*%
G04 APERTURE END LIST*
G54D10*
X20469Y-16402D02*
X20469Y-16002D01*
X20888Y-16402D02*
X20754Y-16211D01*
X20659Y-16402D02*
X20659Y-16002D01*
X20812Y-16002D01*
X20850Y-16021D01*
X20869Y-16040D01*
X20888Y-16078D01*
X20888Y-16135D01*
X20869Y-16173D01*
X20850Y-16192D01*
X20812Y-16211D01*
X20659Y-16211D01*
X34859Y-20792D02*
X34859Y-20392D01*
X35088Y-20792D01*
X35088Y-20392D01*
X35507Y-20754D02*
X35488Y-20773D01*
X35431Y-20792D01*
X35393Y-20792D01*
X35335Y-20773D01*
X35297Y-20735D01*
X35278Y-20697D01*
X35259Y-20620D01*
X35259Y-20563D01*
X35278Y-20487D01*
X35297Y-20449D01*
X35335Y-20411D01*
X35393Y-20392D01*
X35431Y-20392D01*
X35488Y-20411D01*
X35507Y-20430D01*
X34840Y-19368D02*
X35069Y-19368D01*
X34954Y-19768D02*
X34954Y-19368D01*
X35164Y-19368D02*
X35431Y-19768D01*
X35431Y-19368D02*
X35164Y-19768D01*
X35659Y-19368D02*
X35736Y-19368D01*
X35774Y-19387D01*
X35812Y-19425D01*
X35831Y-19501D01*
X35831Y-19635D01*
X35812Y-19711D01*
X35774Y-19749D01*
X35736Y-19768D01*
X35659Y-19768D01*
X35621Y-19749D01*
X35583Y-19711D01*
X35564Y-19635D01*
X35564Y-19501D01*
X35583Y-19425D01*
X35621Y-19387D01*
X35659Y-19368D01*
X35048Y-18772D02*
X34857Y-18772D01*
X34857Y-18372D01*
X35181Y-18562D02*
X35315Y-18562D01*
X35372Y-18772D02*
X35181Y-18772D01*
X35181Y-18372D01*
X35372Y-18372D01*
X35543Y-18772D02*
X35543Y-18372D01*
X35638Y-18372D01*
X35696Y-18391D01*
X35734Y-18429D01*
X35753Y-18467D01*
X35772Y-18543D01*
X35772Y-18600D01*
X35753Y-18677D01*
X35734Y-18715D01*
X35696Y-18753D01*
X35638Y-18772D01*
X35543Y-18772D01*
X34843Y-17372D02*
X34976Y-17772D01*
X35110Y-17372D01*
X35243Y-17772D02*
X35243Y-17505D01*
X35243Y-17372D02*
X35224Y-17391D01*
X35243Y-17410D01*
X35262Y-17391D01*
X35243Y-17372D01*
X35243Y-17410D01*
X35433Y-17505D02*
X35433Y-17772D01*
X35433Y-17543D02*
X35452Y-17524D01*
X35490Y-17505D01*
X35548Y-17505D01*
X35586Y-17524D01*
X35605Y-17562D01*
X35605Y-17772D01*
X34859Y-16776D02*
X34859Y-16376D01*
X35278Y-16776D02*
X35144Y-16585D01*
X35049Y-16776D02*
X35049Y-16376D01*
X35202Y-16376D01*
X35240Y-16395D01*
X35259Y-16414D01*
X35278Y-16452D01*
X35278Y-16509D01*
X35259Y-16547D01*
X35240Y-16566D01*
X35202Y-16585D01*
X35049Y-16585D01*
X34859Y-15640D02*
X35164Y-15640D01*
X23460Y-22634D02*
X23479Y-22615D01*
X23517Y-22596D01*
X23613Y-22596D01*
X23651Y-22615D01*
X23670Y-22634D01*
X23689Y-22672D01*
X23689Y-22710D01*
X23670Y-22767D01*
X23441Y-22996D01*
X23689Y-22996D01*
X23936Y-22596D02*
X23975Y-22596D01*
X24013Y-22615D01*
X24032Y-22634D01*
X24051Y-22672D01*
X24070Y-22748D01*
X24070Y-22844D01*
X24051Y-22920D01*
X24032Y-22958D01*
X24013Y-22977D01*
X23975Y-22996D01*
X23936Y-22996D01*
X23898Y-22977D01*
X23879Y-22958D01*
X23860Y-22920D01*
X23841Y-22844D01*
X23841Y-22748D01*
X23860Y-22672D01*
X23879Y-22634D01*
X23898Y-22615D01*
X23936Y-22596D01*
X24451Y-22996D02*
X24222Y-22996D01*
X24336Y-22996D02*
X24336Y-22596D01*
X24298Y-22653D01*
X24260Y-22691D01*
X24222Y-22710D01*
X24603Y-22634D02*
X24622Y-22615D01*
X24660Y-22596D01*
X24756Y-22596D01*
X24794Y-22615D01*
X24813Y-22634D01*
X24832Y-22672D01*
X24832Y-22710D01*
X24813Y-22767D01*
X24584Y-22996D01*
X24832Y-22996D01*
X25308Y-22844D02*
X25613Y-22844D01*
X26108Y-22996D02*
X26108Y-22596D01*
X26108Y-22748D02*
X26146Y-22729D01*
X26223Y-22729D01*
X26261Y-22748D01*
X26280Y-22767D01*
X26299Y-22805D01*
X26299Y-22920D01*
X26280Y-22958D01*
X26261Y-22977D01*
X26223Y-22996D01*
X26146Y-22996D01*
X26108Y-22977D01*
X26527Y-22996D02*
X26489Y-22977D01*
X26470Y-22939D01*
X26470Y-22596D01*
X26737Y-22996D02*
X26699Y-22977D01*
X26680Y-22958D01*
X26661Y-22920D01*
X26661Y-22805D01*
X26680Y-22767D01*
X26699Y-22748D01*
X26737Y-22729D01*
X26795Y-22729D01*
X26833Y-22748D01*
X26852Y-22767D01*
X26871Y-22805D01*
X26871Y-22920D01*
X26852Y-22958D01*
X26833Y-22977D01*
X26795Y-22996D01*
X26737Y-22996D01*
X27214Y-22729D02*
X27214Y-23053D01*
X27195Y-23091D01*
X27176Y-23110D01*
X27137Y-23129D01*
X27080Y-23129D01*
X27042Y-23110D01*
X27214Y-22977D02*
X27176Y-22996D01*
X27099Y-22996D01*
X27061Y-22977D01*
X27042Y-22958D01*
X27023Y-22920D01*
X27023Y-22805D01*
X27042Y-22767D01*
X27061Y-22748D01*
X27099Y-22729D01*
X27176Y-22729D01*
X27214Y-22748D01*
X27404Y-22958D02*
X27423Y-22977D01*
X27404Y-22996D01*
X27385Y-22977D01*
X27404Y-22958D01*
X27404Y-22996D01*
X27575Y-22977D02*
X27613Y-22996D01*
X27689Y-22996D01*
X27728Y-22977D01*
X27747Y-22939D01*
X27747Y-22920D01*
X27728Y-22882D01*
X27689Y-22863D01*
X27632Y-22863D01*
X27594Y-22844D01*
X27575Y-22805D01*
X27575Y-22786D01*
X27594Y-22748D01*
X27632Y-22729D01*
X27689Y-22729D01*
X27728Y-22748D01*
X27918Y-22729D02*
X27918Y-23129D01*
X27918Y-22748D02*
X27956Y-22729D01*
X28033Y-22729D01*
X28071Y-22748D01*
X28090Y-22767D01*
X28109Y-22805D01*
X28109Y-22920D01*
X28090Y-22958D01*
X28071Y-22977D01*
X28033Y-22996D01*
X27956Y-22996D01*
X27918Y-22977D01*
X28280Y-22996D02*
X28280Y-22729D01*
X28280Y-22596D02*
X28261Y-22615D01*
X28280Y-22634D01*
X28299Y-22615D01*
X28280Y-22596D01*
X28280Y-22634D01*
X28413Y-22729D02*
X28565Y-22729D01*
X28470Y-22596D02*
X28470Y-22939D01*
X28489Y-22977D01*
X28527Y-22996D01*
X28565Y-22996D01*
X28661Y-22729D02*
X28871Y-22729D01*
X28661Y-22996D01*
X28871Y-22996D01*
X29176Y-22977D02*
X29138Y-22996D01*
X29061Y-22996D01*
X29023Y-22977D01*
X29004Y-22939D01*
X29004Y-22786D01*
X29023Y-22748D01*
X29061Y-22729D01*
X29138Y-22729D01*
X29176Y-22748D01*
X29195Y-22786D01*
X29195Y-22824D01*
X29004Y-22863D01*
X29366Y-22729D02*
X29366Y-22996D01*
X29366Y-22767D02*
X29385Y-22748D01*
X29423Y-22729D01*
X29481Y-22729D01*
X29519Y-22748D01*
X29538Y-22786D01*
X29538Y-22996D01*
X29728Y-22729D02*
X29728Y-23129D01*
X29728Y-22748D02*
X29766Y-22729D01*
X29843Y-22729D01*
X29881Y-22748D01*
X29900Y-22767D01*
X29919Y-22805D01*
X29919Y-22920D01*
X29900Y-22958D01*
X29881Y-22977D01*
X29843Y-22996D01*
X29766Y-22996D01*
X29728Y-22977D01*
X30033Y-22729D02*
X30185Y-22729D01*
X30090Y-22996D02*
X30090Y-22653D01*
X30109Y-22615D01*
X30147Y-22596D01*
X30185Y-22596D01*
X30472Y-22977D02*
X30434Y-22996D01*
X30357Y-22996D01*
X30319Y-22977D01*
X30300Y-22939D01*
X30300Y-22786D01*
X30319Y-22748D01*
X30357Y-22729D01*
X30434Y-22729D01*
X30472Y-22748D01*
X30491Y-22786D01*
X30491Y-22824D01*
X30300Y-22863D01*
X30662Y-22996D02*
X30662Y-22729D01*
X30662Y-22596D02*
X30643Y-22615D01*
X30662Y-22634D01*
X30681Y-22615D01*
X30662Y-22596D01*
X30662Y-22634D01*
X30909Y-22996D02*
X30871Y-22977D01*
X30852Y-22939D01*
X30852Y-22596D01*
X31062Y-22958D02*
X31081Y-22977D01*
X31062Y-22996D01*
X31043Y-22977D01*
X31062Y-22958D01*
X31062Y-22996D01*
X31309Y-22996D02*
X31271Y-22977D01*
X31252Y-22958D01*
X31233Y-22920D01*
X31233Y-22805D01*
X31252Y-22767D01*
X31271Y-22748D01*
X31309Y-22729D01*
X31367Y-22729D01*
X31405Y-22748D01*
X31424Y-22767D01*
X31443Y-22805D01*
X31443Y-22920D01*
X31424Y-22958D01*
X31405Y-22977D01*
X31367Y-22996D01*
X31309Y-22996D01*
X31614Y-22996D02*
X31614Y-22729D01*
X31614Y-22805D02*
X31633Y-22767D01*
X31652Y-22748D01*
X31690Y-22729D01*
X31729Y-22729D01*
X32034Y-22729D02*
X32034Y-23053D01*
X32015Y-23091D01*
X31996Y-23110D01*
X31957Y-23129D01*
X31900Y-23129D01*
X31862Y-23110D01*
X32034Y-22977D02*
X31996Y-22996D01*
X31919Y-22996D01*
X31881Y-22977D01*
X31862Y-22958D01*
X31843Y-22920D01*
X31843Y-22805D01*
X31862Y-22767D01*
X31881Y-22748D01*
X31919Y-22729D01*
X31996Y-22729D01*
X32034Y-22748D01*
X24736Y-13548D02*
X24736Y-13148D01*
X25155Y-13548D02*
X25021Y-13357D01*
X24926Y-13548D02*
X24926Y-13148D01*
X25079Y-13148D01*
X25117Y-13167D01*
X25136Y-13186D01*
X25155Y-13224D01*
X25155Y-13281D01*
X25136Y-13319D01*
X25117Y-13338D01*
X25079Y-13357D01*
X24926Y-13357D01*
X25631Y-13548D02*
X25631Y-13281D01*
X25631Y-13357D02*
X25650Y-13319D01*
X25669Y-13300D01*
X25707Y-13281D01*
X25746Y-13281D01*
X26051Y-13548D02*
X26051Y-13338D01*
X26032Y-13300D01*
X25994Y-13281D01*
X25917Y-13281D01*
X25879Y-13300D01*
X26051Y-13529D02*
X26013Y-13548D01*
X25917Y-13548D01*
X25879Y-13529D01*
X25860Y-13491D01*
X25860Y-13453D01*
X25879Y-13415D01*
X25917Y-13396D01*
X26013Y-13396D01*
X26051Y-13376D01*
X26203Y-13281D02*
X26279Y-13548D01*
X26356Y-13357D01*
X26432Y-13548D01*
X26508Y-13281D01*
X26965Y-13548D02*
X26965Y-13281D01*
X26965Y-13357D02*
X26984Y-13319D01*
X27003Y-13300D01*
X27041Y-13281D01*
X27080Y-13281D01*
X27366Y-13529D02*
X27328Y-13548D01*
X27251Y-13548D01*
X27213Y-13529D01*
X27194Y-13491D01*
X27194Y-13338D01*
X27213Y-13300D01*
X27251Y-13281D01*
X27328Y-13281D01*
X27366Y-13300D01*
X27385Y-13338D01*
X27385Y-13376D01*
X27194Y-13415D01*
X27728Y-13529D02*
X27690Y-13548D01*
X27613Y-13548D01*
X27575Y-13529D01*
X27556Y-13510D01*
X27537Y-13472D01*
X27537Y-13357D01*
X27556Y-13319D01*
X27575Y-13300D01*
X27613Y-13281D01*
X27690Y-13281D01*
X27728Y-13300D01*
X28052Y-13529D02*
X28014Y-13548D01*
X27937Y-13548D01*
X27899Y-13529D01*
X27880Y-13491D01*
X27880Y-13338D01*
X27899Y-13300D01*
X27937Y-13281D01*
X28014Y-13281D01*
X28052Y-13300D01*
X28071Y-13338D01*
X28071Y-13376D01*
X27880Y-13415D01*
X28242Y-13548D02*
X28242Y-13281D01*
X28242Y-13148D02*
X28223Y-13167D01*
X28242Y-13186D01*
X28261Y-13167D01*
X28242Y-13148D01*
X28242Y-13186D01*
X28394Y-13281D02*
X28489Y-13548D01*
X28585Y-13281D01*
X28890Y-13529D02*
X28852Y-13548D01*
X28775Y-13548D01*
X28737Y-13529D01*
X28718Y-13491D01*
X28718Y-13338D01*
X28737Y-13300D01*
X28775Y-13281D01*
X28852Y-13281D01*
X28890Y-13300D01*
X28909Y-13338D01*
X28909Y-13376D01*
X28718Y-13415D01*
X29080Y-13548D02*
X29080Y-13281D01*
X29080Y-13357D02*
X29099Y-13319D01*
X29118Y-13300D01*
X29156Y-13281D01*
X29195Y-13281D01*
X29843Y-13548D02*
X29614Y-13548D01*
X29728Y-13548D02*
X29728Y-13148D01*
X29690Y-13205D01*
X29652Y-13243D01*
X29614Y-13262D01*
X30014Y-13510D02*
X30033Y-13529D01*
X30014Y-13548D01*
X29995Y-13529D01*
X30014Y-13510D01*
X30014Y-13548D01*
X30414Y-13548D02*
X30185Y-13548D01*
X30299Y-13548D02*
X30299Y-13148D01*
X30261Y-13205D01*
X30223Y-13243D01*
X30185Y-13262D01*
X30661Y-13148D02*
X30700Y-13148D01*
X30738Y-13167D01*
X30757Y-13186D01*
X30776Y-13224D01*
X30795Y-13300D01*
X30795Y-13396D01*
X30776Y-13472D01*
X30757Y-13510D01*
X30738Y-13529D01*
X30700Y-13548D01*
X30661Y-13548D01*
X30623Y-13529D01*
X30604Y-13510D01*
X30585Y-13472D01*
X30566Y-13396D01*
X30566Y-13300D01*
X30585Y-13224D01*
X30604Y-13186D01*
X30623Y-13167D01*
X30661Y-13148D01*
G54D11*
X38976Y-12795D02*
X19684Y-12795D01*
X38976Y-23425D02*
X38976Y-12795D01*
X19684Y-23425D02*
X38976Y-23425D01*
X19684Y-12795D02*
X19684Y-23425D01*
G54D10*
X20517Y-19892D02*
X20822Y-19892D01*
X20670Y-20044D02*
X20670Y-19739D01*
X23273Y-21663D02*
X23578Y-21663D01*
X23426Y-21815D02*
X23426Y-21510D01*
G54D12*
X33555Y-15110D02*
X34555Y-15110D01*
X34555Y-15110D02*
X34555Y-21110D01*
X34555Y-21110D02*
X33555Y-21110D01*
X33555Y-21110D02*
X33555Y-15110D01*
X33555Y-16110D02*
X34555Y-16110D01*
G54D11*
X22638Y-14370D02*
X22611Y-14637D01*
X22534Y-14895D01*
X22407Y-15132D01*
X22237Y-15340D01*
X22030Y-15512D01*
X21793Y-15640D01*
X21537Y-15719D01*
X21269Y-15747D01*
X21002Y-15723D01*
X20744Y-15647D01*
X20506Y-15523D01*
X20296Y-15354D01*
X20123Y-15148D01*
X19994Y-14912D01*
X19913Y-14656D01*
X19883Y-14389D01*
X19905Y-14122D01*
X19979Y-13863D01*
X20102Y-13624D01*
X20269Y-13413D01*
X20474Y-13239D01*
X20709Y-13108D01*
X20965Y-13025D01*
X21232Y-12993D01*
X21499Y-13013D01*
X21758Y-13086D01*
X21998Y-13207D01*
X22210Y-13373D01*
X22386Y-13576D01*
X22518Y-13810D01*
X22603Y-14065D01*
X22637Y-14332D01*
X22638Y-14370D01*
X22160Y-14370D02*
X22142Y-14544D01*
X22092Y-14712D01*
X22009Y-14868D01*
X21898Y-15004D01*
X21763Y-15116D01*
X21608Y-15199D01*
X21440Y-15251D01*
X21266Y-15269D01*
X21092Y-15254D01*
X20923Y-15204D01*
X20768Y-15123D01*
X20631Y-15013D01*
X20518Y-14878D01*
X20433Y-14724D01*
X20380Y-14557D01*
X20361Y-14382D01*
X20375Y-14208D01*
X20424Y-14039D01*
X20504Y-13883D01*
X20613Y-13745D01*
X20747Y-13631D01*
X20900Y-13546D01*
X21067Y-13491D01*
X21242Y-13471D01*
X21416Y-13484D01*
X21585Y-13531D01*
X21742Y-13611D01*
X21880Y-13719D01*
X21995Y-13852D01*
X22082Y-14004D01*
X22137Y-14171D01*
X22159Y-14345D01*
X22160Y-14370D01*
G54D13*
X37295Y-18830D02*
X38295Y-18830D01*
G54D14*
X38179Y-17750D02*
X38137Y-17718D01*
X38093Y-17690D01*
X38046Y-17666D01*
X37998Y-17646D01*
X37948Y-17630D01*
X37897Y-17619D01*
X37845Y-17613D01*
X37795Y-17610D01*
X37795Y-17611D02*
X37743Y-17614D01*
X37691Y-17621D01*
X37640Y-17632D01*
X37591Y-17648D01*
X37542Y-17668D01*
X37496Y-17692D01*
X37452Y-17720D01*
X37410Y-17752D01*
X37398Y-17763D01*
X37795Y-18809D02*
X37847Y-18806D01*
X37899Y-18799D01*
X37950Y-18788D01*
X37999Y-18772D01*
X38048Y-18752D01*
X38094Y-18728D01*
X38138Y-18700D01*
X38180Y-18668D01*
X38184Y-18664D01*
X37411Y-18670D02*
X37453Y-18702D01*
X37497Y-18730D01*
X37544Y-18754D01*
X37592Y-18774D01*
X37642Y-18790D01*
X37693Y-18801D01*
X37745Y-18807D01*
X37795Y-18810D01*
X38144Y-18697D02*
X38185Y-18665D01*
X38223Y-18629D01*
X38258Y-18590D01*
X38290Y-18548D01*
X38317Y-18504D01*
X38341Y-18457D01*
X38360Y-18409D01*
X38376Y-18359D01*
X38386Y-18307D01*
X38393Y-18256D01*
X38395Y-18210D01*
X38395Y-18210D02*
X38392Y-18158D01*
X38385Y-18106D01*
X38374Y-18055D01*
X38358Y-18005D01*
X38338Y-17957D01*
X38314Y-17911D01*
X38286Y-17866D01*
X38254Y-17825D01*
X38219Y-17786D01*
X38180Y-17751D01*
X38155Y-17731D01*
X37196Y-18210D02*
X37199Y-18262D01*
X37206Y-18314D01*
X37217Y-18365D01*
X37233Y-18414D01*
X37253Y-18463D01*
X37277Y-18509D01*
X37305Y-18553D01*
X37337Y-18595D01*
X37372Y-18633D01*
X37410Y-18668D01*
X37428Y-18682D01*
X37427Y-17737D02*
X37387Y-17771D01*
X37350Y-17808D01*
X37317Y-17849D01*
X37287Y-17892D01*
X37261Y-17937D01*
X37240Y-17985D01*
X37222Y-18034D01*
X37209Y-18085D01*
X37200Y-18136D01*
X37196Y-18189D01*
X37195Y-18210D01*
X38045Y-18210D02*
X38044Y-18189D01*
X38041Y-18167D01*
X38036Y-18146D01*
X38029Y-18125D01*
X38021Y-18105D01*
X38011Y-18086D01*
X37999Y-18067D01*
X37986Y-18050D01*
X37971Y-18034D01*
X37955Y-18019D01*
X37938Y-18006D01*
X37920Y-17994D01*
X37900Y-17984D01*
X37880Y-17976D01*
X37859Y-17969D01*
X37838Y-17964D01*
X37816Y-17961D01*
X37795Y-17960D01*
X38195Y-18210D02*
X38193Y-18176D01*
X38188Y-18141D01*
X38181Y-18107D01*
X38170Y-18074D01*
X38157Y-18041D01*
X38141Y-18011D01*
X38122Y-17981D01*
X38101Y-17953D01*
X38077Y-17928D01*
X38052Y-17904D01*
X38024Y-17883D01*
X37995Y-17864D01*
X37964Y-17848D01*
X37931Y-17835D01*
X37898Y-17824D01*
X37864Y-17817D01*
X37829Y-17812D01*
X37795Y-17810D01*
X37545Y-18210D02*
X37546Y-18231D01*
X37549Y-18253D01*
X37554Y-18274D01*
X37561Y-18295D01*
X37569Y-18315D01*
X37579Y-18334D01*
X37591Y-18353D01*
X37604Y-18370D01*
X37619Y-18386D01*
X37635Y-18401D01*
X37652Y-18414D01*
X37671Y-18426D01*
X37690Y-18436D01*
X37710Y-18444D01*
X37731Y-18451D01*
X37752Y-18456D01*
X37774Y-18459D01*
X37795Y-18460D01*
X37395Y-18210D02*
X37397Y-18244D01*
X37402Y-18279D01*
X37409Y-18313D01*
X37420Y-18346D01*
X37433Y-18379D01*
X37449Y-18409D01*
X37468Y-18439D01*
X37489Y-18467D01*
X37513Y-18492D01*
X37538Y-18516D01*
X37566Y-18537D01*
X37596Y-18556D01*
X37626Y-18572D01*
X37659Y-18585D01*
X37692Y-18596D01*
X37726Y-18603D01*
X37761Y-18608D01*
X37795Y-18610D01*
G54D13*
X38308Y-18823D02*
X38359Y-18776D01*
X38406Y-18725D01*
X38449Y-18670D01*
X38487Y-18611D01*
X38519Y-18549D01*
X38546Y-18484D01*
X38567Y-18418D01*
X38582Y-18350D01*
X38591Y-18281D01*
X38594Y-18211D01*
X38595Y-18210D01*
X38594Y-18210D02*
X38590Y-18141D01*
X38581Y-18072D01*
X38566Y-18004D01*
X38545Y-17937D01*
X38519Y-17873D01*
X38486Y-17811D01*
X38449Y-17752D01*
X38407Y-17697D01*
X38359Y-17646D01*
X38308Y-17598D01*
X38253Y-17556D01*
X38194Y-17519D01*
X38171Y-17506D01*
X36998Y-18211D02*
X37001Y-18280D01*
X37010Y-18349D01*
X37025Y-18417D01*
X37046Y-18484D01*
X37073Y-18548D01*
X37105Y-18610D01*
X37143Y-18668D01*
X37185Y-18724D01*
X37232Y-18775D01*
X37280Y-18819D01*
X37398Y-17516D02*
X37339Y-17554D01*
X37283Y-17596D01*
X37232Y-17643D01*
X37184Y-17694D01*
X37142Y-17749D01*
X37104Y-17808D01*
X37072Y-17870D01*
X37045Y-17934D01*
X37023Y-18001D01*
X37008Y-18069D01*
X36999Y-18138D01*
X36996Y-18208D01*
X36995Y-18210D01*
X38174Y-17506D02*
X38111Y-17476D01*
X38046Y-17451D01*
X37979Y-17432D01*
X37910Y-17419D01*
X37841Y-17412D01*
X37795Y-17410D01*
X37795Y-17411D02*
X37726Y-17415D01*
X37657Y-17424D01*
X37589Y-17439D01*
X37522Y-17460D01*
X37458Y-17486D01*
X37396Y-17519D01*
X37377Y-17530D01*
G54D11*
X30905Y-16614D02*
X28937Y-16614D01*
X28937Y-19606D02*
X30905Y-19606D01*
X30905Y-19606D02*
X30905Y-16614D01*
X28937Y-16614D02*
X28937Y-19567D01*
X28937Y-19567D02*
X28937Y-19606D01*
X28701Y-16378D02*
X29921Y-16378D01*
X28701Y-16378D02*
X28701Y-17638D01*
X38779Y-21850D02*
X38752Y-22117D01*
X38675Y-22375D01*
X38548Y-22612D01*
X38378Y-22820D01*
X38171Y-22992D01*
X37934Y-23120D01*
X37678Y-23199D01*
X37410Y-23227D01*
X37143Y-23203D01*
X36885Y-23127D01*
X36647Y-23003D01*
X36437Y-22834D01*
X36264Y-22628D01*
X36135Y-22392D01*
X36054Y-22136D01*
X36024Y-21869D01*
X36046Y-21602D01*
X36120Y-21343D01*
X36243Y-21104D01*
X36410Y-20893D01*
X36615Y-20719D01*
X36850Y-20588D01*
X37106Y-20505D01*
X37373Y-20473D01*
X37640Y-20493D01*
X37899Y-20566D01*
X38139Y-20687D01*
X38351Y-20853D01*
X38527Y-21056D01*
X38659Y-21290D01*
X38744Y-21545D01*
X38778Y-21812D01*
X38779Y-21850D01*
X38301Y-21850D02*
X38283Y-22024D01*
X38233Y-22192D01*
X38150Y-22348D01*
X38039Y-22484D01*
X37904Y-22596D01*
X37749Y-22679D01*
X37581Y-22731D01*
X37407Y-22749D01*
X37233Y-22734D01*
X37064Y-22684D01*
X36909Y-22603D01*
X36772Y-22493D01*
X36659Y-22358D01*
X36574Y-22204D01*
X36521Y-22037D01*
X36502Y-21862D01*
X36516Y-21688D01*
X36565Y-21519D01*
X36645Y-21363D01*
X36754Y-21225D01*
X36888Y-21111D01*
X37041Y-21026D01*
X37208Y-20971D01*
X37383Y-20951D01*
X37557Y-20964D01*
X37726Y-21011D01*
X37883Y-21091D01*
X38021Y-21199D01*
X38136Y-21332D01*
X38223Y-21484D01*
X38278Y-21651D01*
X38300Y-21825D01*
X38301Y-21850D01*
X38779Y-14370D02*
X38752Y-14637D01*
X38675Y-14895D01*
X38548Y-15132D01*
X38378Y-15340D01*
X38171Y-15512D01*
X37934Y-15640D01*
X37678Y-15719D01*
X37410Y-15747D01*
X37143Y-15723D01*
X36885Y-15647D01*
X36647Y-15523D01*
X36437Y-15354D01*
X36264Y-15148D01*
X36135Y-14912D01*
X36054Y-14656D01*
X36024Y-14389D01*
X36046Y-14122D01*
X36120Y-13863D01*
X36243Y-13624D01*
X36410Y-13413D01*
X36615Y-13239D01*
X36850Y-13108D01*
X37106Y-13025D01*
X37373Y-12993D01*
X37640Y-13013D01*
X37899Y-13086D01*
X38139Y-13207D01*
X38351Y-13373D01*
X38527Y-13576D01*
X38659Y-13810D01*
X38744Y-14065D01*
X38778Y-14332D01*
X38779Y-14370D01*
X38301Y-14370D02*
X38283Y-14544D01*
X38233Y-14712D01*
X38150Y-14868D01*
X38039Y-15004D01*
X37904Y-15116D01*
X37749Y-15199D01*
X37581Y-15251D01*
X37407Y-15269D01*
X37233Y-15254D01*
X37064Y-15204D01*
X36909Y-15123D01*
X36772Y-15013D01*
X36659Y-14878D01*
X36574Y-14724D01*
X36521Y-14557D01*
X36502Y-14382D01*
X36516Y-14208D01*
X36565Y-14039D01*
X36645Y-13883D01*
X36754Y-13745D01*
X36888Y-13631D01*
X37041Y-13546D01*
X37208Y-13491D01*
X37383Y-13471D01*
X37557Y-13484D01*
X37726Y-13531D01*
X37883Y-13611D01*
X38021Y-13719D01*
X38136Y-13852D01*
X38223Y-14004D01*
X38278Y-14171D01*
X38300Y-14345D01*
X38301Y-14370D01*
X22637Y-21850D02*
X22610Y-22117D01*
X22533Y-22375D01*
X22406Y-22612D01*
X22236Y-22820D01*
X22029Y-22992D01*
X21792Y-23120D01*
X21536Y-23199D01*
X21268Y-23227D01*
X21001Y-23203D01*
X20743Y-23127D01*
X20505Y-23003D01*
X20295Y-22834D01*
X20122Y-22628D01*
X19993Y-22392D01*
X19912Y-22136D01*
X19882Y-21869D01*
X19904Y-21602D01*
X19978Y-21343D01*
X20101Y-21104D01*
X20268Y-20893D01*
X20473Y-20719D01*
X20708Y-20588D01*
X20964Y-20505D01*
X21231Y-20473D01*
X21498Y-20493D01*
X21757Y-20566D01*
X21997Y-20687D01*
X22209Y-20853D01*
X22385Y-21056D01*
X22517Y-21290D01*
X22602Y-21545D01*
X22636Y-21812D01*
X22637Y-21850D01*
X22159Y-21850D02*
X22141Y-22024D01*
X22091Y-22192D01*
X22008Y-22348D01*
X21897Y-22484D01*
X21762Y-22596D01*
X21607Y-22679D01*
X21439Y-22731D01*
X21265Y-22749D01*
X21091Y-22734D01*
X20922Y-22684D01*
X20767Y-22603D01*
X20630Y-22493D01*
X20517Y-22358D01*
X20432Y-22204D01*
X20379Y-22037D01*
X20360Y-21862D01*
X20374Y-21688D01*
X20423Y-21519D01*
X20503Y-21363D01*
X20612Y-21225D01*
X20746Y-21111D01*
X20899Y-21026D01*
X21066Y-20971D01*
X21241Y-20951D01*
X21415Y-20964D01*
X21584Y-21011D01*
X21741Y-21091D01*
X21879Y-21199D01*
X21994Y-21332D01*
X22081Y-21484D01*
X22136Y-21651D01*
X22158Y-21825D01*
X22159Y-21850D01*
G54D15*
G36*
X34309Y-22833D02*
X34326Y-22831D01*
X34342Y-22826D01*
X34349Y-22822D01*
X34363Y-22812D01*
X34374Y-22800D01*
X34383Y-22786D01*
X34389Y-22770D01*
X34391Y-22754D01*
X34391Y-22737D01*
X34387Y-22721D01*
X34379Y-22705D01*
X34374Y-22698D01*
X34367Y-22690D01*
X34360Y-22683D01*
X34352Y-22678D01*
X34350Y-22676D01*
X34336Y-22670D01*
X34321Y-22666D01*
X34304Y-22665D01*
X34298Y-22666D01*
X34289Y-22667D01*
X34281Y-22669D01*
X34272Y-22673D01*
X34262Y-22678D01*
X34248Y-22689D01*
X34237Y-22702D01*
X34229Y-22718D01*
X34226Y-22725D01*
X34224Y-22733D01*
X34223Y-22740D01*
X34223Y-22741D01*
X34223Y-22741D01*
X34222Y-22738D01*
X34222Y-22737D01*
X34220Y-22726D01*
X34216Y-22715D01*
X34211Y-22705D01*
X34201Y-22693D01*
X34188Y-22681D01*
X34174Y-22672D01*
X34157Y-22667D01*
X34139Y-22665D01*
X34135Y-22665D01*
X34121Y-22667D01*
X34109Y-22670D01*
X34106Y-22671D01*
X34092Y-22679D01*
X34079Y-22690D01*
X34069Y-22702D01*
X34061Y-22717D01*
X34056Y-22732D01*
X34056Y-22732D01*
X34055Y-22736D01*
X34055Y-22738D01*
X34055Y-22738D01*
X34055Y-22736D01*
X34054Y-22732D01*
X34053Y-22730D01*
X34048Y-22715D01*
X34040Y-22701D01*
X34029Y-22688D01*
X34019Y-22680D01*
X34005Y-22672D01*
X33989Y-22667D01*
X33971Y-22665D01*
X33958Y-22666D01*
X33941Y-22670D01*
X33926Y-22678D01*
X33913Y-22689D01*
X33901Y-22702D01*
X33900Y-22704D01*
X33896Y-22710D01*
X33894Y-22715D01*
X33892Y-22719D01*
X33890Y-22727D01*
X33888Y-22734D01*
X33887Y-22740D01*
X33887Y-22741D01*
X33887Y-22741D01*
X33886Y-22737D01*
X33884Y-22728D01*
X33880Y-22716D01*
X33875Y-22706D01*
X33865Y-22693D01*
X33852Y-22681D01*
X33837Y-22672D01*
X33821Y-22667D01*
X33803Y-22665D01*
X33787Y-22666D01*
X33771Y-22671D01*
X33756Y-22679D01*
X33742Y-22691D01*
X33736Y-22698D01*
X33729Y-22707D01*
X33724Y-22718D01*
X33721Y-22727D01*
X33719Y-22744D01*
X33719Y-22760D01*
X33723Y-22776D01*
X33729Y-22791D01*
X33739Y-22804D01*
X33750Y-22815D01*
X33764Y-22824D01*
X33779Y-22830D01*
X33796Y-22833D01*
X33798Y-22833D01*
X33815Y-22832D01*
X33831Y-22829D01*
X33847Y-22821D01*
X33852Y-22818D01*
X33863Y-22808D01*
X33873Y-22796D01*
X33880Y-22783D01*
X33882Y-22778D01*
X33884Y-22771D01*
X33886Y-22764D01*
X33887Y-22758D01*
X33887Y-22755D01*
X33887Y-22758D01*
X33888Y-22761D01*
X33889Y-22768D01*
X33892Y-22777D01*
X33894Y-22784D01*
X33898Y-22791D01*
X33909Y-22805D01*
X33921Y-22817D01*
X33936Y-22826D01*
X33953Y-22832D01*
X33956Y-22832D01*
X33968Y-22833D01*
X33980Y-22833D01*
X33991Y-22831D01*
X34002Y-22828D01*
X34018Y-22819D01*
X34032Y-22808D01*
X34033Y-22807D01*
X34042Y-22795D01*
X34049Y-22781D01*
X34054Y-22767D01*
X34054Y-22766D01*
X34055Y-22762D01*
X34055Y-22760D01*
X34055Y-22761D01*
X34056Y-22765D01*
X34056Y-22766D01*
X34058Y-22775D01*
X34062Y-22784D01*
X34067Y-22794D01*
X34075Y-22804D01*
X34087Y-22816D01*
X34102Y-22825D01*
X34119Y-22831D01*
X34122Y-22832D01*
X34133Y-22833D01*
X34145Y-22833D01*
X34156Y-22832D01*
X34166Y-22829D01*
X34181Y-22822D01*
X34195Y-22811D01*
X34207Y-22799D01*
X34216Y-22784D01*
X34218Y-22779D01*
X34220Y-22771D01*
X34222Y-22764D01*
X34223Y-22758D01*
X34223Y-22757D01*
X34223Y-22757D01*
X34224Y-22761D01*
X34224Y-22761D01*
X34226Y-22772D01*
X34230Y-22783D01*
X34235Y-22793D01*
X34238Y-22796D01*
X34248Y-22809D01*
X34262Y-22820D01*
X34276Y-22828D01*
X34292Y-22832D01*
X34309Y-22833D01*
X34309Y-22833D01*
G37*
G36*
X33629Y-22665D02*
X33639Y-22665D01*
X33649Y-22664D01*
X33660Y-22661D01*
X33676Y-22654D01*
X33690Y-22644D01*
X33702Y-22631D01*
X33710Y-22617D01*
X33716Y-22601D01*
X33718Y-22583D01*
X33717Y-22566D01*
X33713Y-22550D01*
X33705Y-22535D01*
X33695Y-22522D01*
X33681Y-22511D01*
X33677Y-22508D01*
X33661Y-22500D01*
X33644Y-22497D01*
X33626Y-22497D01*
X33609Y-22500D01*
X33595Y-22506D01*
X33580Y-22516D01*
X33568Y-22528D01*
X33559Y-22543D01*
X33552Y-22560D01*
X33551Y-22568D01*
X33550Y-22579D01*
X33550Y-22590D01*
X33552Y-22599D01*
X33553Y-22602D01*
X33559Y-22619D01*
X33569Y-22634D01*
X33582Y-22647D01*
X33597Y-22656D01*
X33604Y-22659D01*
X33614Y-22663D01*
X33623Y-22664D01*
X33629Y-22665D01*
X33629Y-22665D01*
G37*
G36*
X34478Y-22665D02*
X34495Y-22663D01*
X34512Y-22657D01*
X34527Y-22647D01*
X34531Y-22645D01*
X34542Y-22632D01*
X34552Y-22618D01*
X34558Y-22601D01*
X34559Y-22593D01*
X34560Y-22582D01*
X34560Y-22571D01*
X34558Y-22562D01*
X34557Y-22558D01*
X34550Y-22541D01*
X34541Y-22527D01*
X34529Y-22515D01*
X34514Y-22506D01*
X34498Y-22499D01*
X34480Y-22496D01*
X34474Y-22496D01*
X34457Y-22498D01*
X34441Y-22504D01*
X34427Y-22512D01*
X34415Y-22523D01*
X34405Y-22536D01*
X34397Y-22551D01*
X34393Y-22567D01*
X34392Y-22584D01*
X34393Y-22595D01*
X34395Y-22604D01*
X34398Y-22614D01*
X34405Y-22627D01*
X34416Y-22640D01*
X34429Y-22651D01*
X34444Y-22659D01*
X34460Y-22664D01*
X34478Y-22665D01*
X34478Y-22665D01*
G37*
G36*
X33461Y-22496D02*
X33473Y-22496D01*
X33483Y-22495D01*
X33495Y-22491D01*
X33511Y-22483D01*
X33525Y-22472D01*
X33534Y-22461D01*
X33543Y-22447D01*
X33548Y-22430D01*
X33549Y-22423D01*
X33550Y-22413D01*
X33549Y-22403D01*
X33548Y-22395D01*
X33547Y-22389D01*
X33540Y-22373D01*
X33531Y-22358D01*
X33518Y-22346D01*
X33503Y-22337D01*
X33497Y-22334D01*
X33486Y-22330D01*
X33475Y-22328D01*
X33463Y-22328D01*
X33455Y-22329D01*
X33446Y-22330D01*
X33437Y-22332D01*
X33428Y-22337D01*
X33423Y-22339D01*
X33409Y-22350D01*
X33397Y-22363D01*
X33388Y-22378D01*
X33383Y-22395D01*
X33382Y-22399D01*
X33381Y-22409D01*
X33382Y-22420D01*
X33383Y-22429D01*
X33384Y-22435D01*
X33391Y-22451D01*
X33400Y-22466D01*
X33413Y-22478D01*
X33428Y-22487D01*
X33445Y-22494D01*
X33450Y-22495D01*
X33461Y-22496D01*
X33461Y-22496D01*
G37*
G36*
X34137Y-22496D02*
X34154Y-22495D01*
X34170Y-22491D01*
X34179Y-22486D01*
X34193Y-22476D01*
X34205Y-22464D01*
X34215Y-22449D01*
X34220Y-22432D01*
X34221Y-22429D01*
X34223Y-22415D01*
X34223Y-22402D01*
X34219Y-22388D01*
X34213Y-22371D01*
X34203Y-22357D01*
X34190Y-22345D01*
X34175Y-22336D01*
X34158Y-22330D01*
X34147Y-22327D01*
X34153Y-22327D01*
X34154Y-22326D01*
X34166Y-22323D01*
X34179Y-22318D01*
X34190Y-22310D01*
X34192Y-22308D01*
X34205Y-22296D01*
X34214Y-22282D01*
X34220Y-22266D01*
X34223Y-22250D01*
X34222Y-22234D01*
X34219Y-22217D01*
X34211Y-22202D01*
X34211Y-22201D01*
X34201Y-22187D01*
X34188Y-22176D01*
X34174Y-22168D01*
X34158Y-22163D01*
X34142Y-22160D01*
X34126Y-22161D01*
X34110Y-22165D01*
X34095Y-22173D01*
X34081Y-22183D01*
X34073Y-22191D01*
X34065Y-22204D01*
X34059Y-22217D01*
X34056Y-22229D01*
X34055Y-22232D01*
X34055Y-22234D01*
X34055Y-22233D01*
X34054Y-22229D01*
X34051Y-22218D01*
X34046Y-22206D01*
X34039Y-22195D01*
X34035Y-22189D01*
X34022Y-22177D01*
X34008Y-22168D01*
X33991Y-22163D01*
X33974Y-22160D01*
X33957Y-22161D01*
X33947Y-22164D01*
X33930Y-22171D01*
X33916Y-22181D01*
X33904Y-22193D01*
X33895Y-22208D01*
X33889Y-22224D01*
X33888Y-22233D01*
X33887Y-22249D01*
X33890Y-22266D01*
X33896Y-22282D01*
X33906Y-22296D01*
X33918Y-22308D01*
X33933Y-22318D01*
X33939Y-22321D01*
X33947Y-22324D01*
X33954Y-22326D01*
X33960Y-22327D01*
X33961Y-22327D01*
X33960Y-22328D01*
X33957Y-22329D01*
X33948Y-22331D01*
X33937Y-22335D01*
X33927Y-22340D01*
X33922Y-22343D01*
X33911Y-22353D01*
X33901Y-22365D01*
X33894Y-22378D01*
X33889Y-22392D01*
X33887Y-22407D01*
X33887Y-22422D01*
X33888Y-22425D01*
X33893Y-22442D01*
X33900Y-22458D01*
X33912Y-22472D01*
X33921Y-22480D01*
X33936Y-22489D01*
X33953Y-22495D01*
X33960Y-22495D01*
X33969Y-22496D01*
X33978Y-22495D01*
X33987Y-22495D01*
X33994Y-22493D01*
X34000Y-22492D01*
X34016Y-22483D01*
X34030Y-22472D01*
X34041Y-22459D01*
X34045Y-22452D01*
X34051Y-22441D01*
X34054Y-22430D01*
X34054Y-22429D01*
X34055Y-22425D01*
X34055Y-22423D01*
X34055Y-22423D01*
X34055Y-22401D01*
X34055Y-22401D01*
X34055Y-22399D01*
X34054Y-22395D01*
X34054Y-22393D01*
X34049Y-22378D01*
X34040Y-22364D01*
X34030Y-22352D01*
X34017Y-22341D01*
X34003Y-22334D01*
X34002Y-22333D01*
X33994Y-22331D01*
X33987Y-22329D01*
X33980Y-22328D01*
X33987Y-22326D01*
X33997Y-22324D01*
X34012Y-22317D01*
X34026Y-22308D01*
X34037Y-22296D01*
X34046Y-22282D01*
X34050Y-22275D01*
X34053Y-22266D01*
X34054Y-22259D01*
X34055Y-22256D01*
X34055Y-22254D01*
X34055Y-22255D01*
X34056Y-22259D01*
X34057Y-22265D01*
X34060Y-22274D01*
X34064Y-22282D01*
X34069Y-22291D01*
X34080Y-22303D01*
X34093Y-22314D01*
X34108Y-22322D01*
X34123Y-22326D01*
X34131Y-22328D01*
X34123Y-22329D01*
X34122Y-22329D01*
X34115Y-22331D01*
X34107Y-22334D01*
X34106Y-22334D01*
X34092Y-22342D01*
X34079Y-22353D01*
X34069Y-22365D01*
X34061Y-22380D01*
X34056Y-22394D01*
X34056Y-22395D01*
X34055Y-22399D01*
X34055Y-22401D01*
X34055Y-22423D01*
X34055Y-22423D01*
X34055Y-22425D01*
X34056Y-22430D01*
X34059Y-22440D01*
X34066Y-22455D01*
X34077Y-22469D01*
X34089Y-22480D01*
X34104Y-22489D01*
X34104Y-22489D01*
X34120Y-22494D01*
X34137Y-22496D01*
X34137Y-22496D01*
G37*
G36*
X34638Y-22496D02*
X34652Y-22496D01*
X34664Y-22494D01*
X34672Y-22492D01*
X34688Y-22484D01*
X34702Y-22474D01*
X34713Y-22461D01*
X34722Y-22446D01*
X34727Y-22430D01*
X34729Y-22412D01*
X34728Y-22405D01*
X34725Y-22388D01*
X34718Y-22371D01*
X34708Y-22356D01*
X34705Y-22353D01*
X34693Y-22343D01*
X34679Y-22335D01*
X34664Y-22330D01*
X34664Y-22330D01*
X34651Y-22328D01*
X34637Y-22328D01*
X34625Y-22330D01*
X34620Y-22331D01*
X34604Y-22338D01*
X34590Y-22347D01*
X34579Y-22359D01*
X34570Y-22373D01*
X34563Y-22388D01*
X34560Y-22405D01*
X34561Y-22422D01*
X34564Y-22439D01*
X34570Y-22452D01*
X34580Y-22466D01*
X34592Y-22478D01*
X34607Y-22487D01*
X34623Y-22494D01*
X34625Y-22494D01*
X34638Y-22496D01*
X34638Y-22496D01*
G37*
G36*
X33805Y-21992D02*
X33822Y-21990D01*
X33838Y-21984D01*
X33846Y-21980D01*
X33853Y-21975D01*
X33861Y-21968D01*
X33870Y-21958D01*
X33879Y-21944D01*
X33885Y-21928D01*
X33886Y-21923D01*
X33887Y-21912D01*
X33887Y-21900D01*
X33885Y-21890D01*
X33881Y-21876D01*
X33873Y-21861D01*
X33863Y-21848D01*
X33861Y-21846D01*
X33853Y-21840D01*
X33844Y-21834D01*
X33836Y-21830D01*
X33833Y-21829D01*
X33826Y-21826D01*
X33819Y-21825D01*
X33814Y-21824D01*
X33811Y-21824D01*
X33814Y-21823D01*
X33818Y-21822D01*
X33824Y-21821D01*
X33830Y-21819D01*
X33842Y-21813D01*
X33855Y-21805D01*
X33865Y-21796D01*
X33866Y-21794D01*
X33877Y-21780D01*
X33883Y-21764D01*
X33887Y-21747D01*
X33887Y-21730D01*
X33886Y-21726D01*
X33881Y-21709D01*
X33873Y-21693D01*
X33862Y-21679D01*
X33852Y-21670D01*
X33837Y-21662D01*
X33821Y-21656D01*
X33817Y-21656D01*
X33806Y-21655D01*
X33794Y-21655D01*
X33783Y-21657D01*
X33774Y-21660D01*
X33758Y-21667D01*
X33745Y-21678D01*
X33734Y-21690D01*
X33725Y-21705D01*
X33720Y-21721D01*
X33720Y-21723D01*
X33719Y-21727D01*
X33718Y-21729D01*
X33718Y-21727D01*
X33717Y-21723D01*
X33715Y-21716D01*
X33713Y-21709D01*
X33710Y-21702D01*
X33707Y-21697D01*
X33697Y-21683D01*
X33684Y-21671D01*
X33669Y-21662D01*
X33653Y-21657D01*
X33635Y-21655D01*
X33621Y-21656D01*
X33605Y-21660D01*
X33590Y-21667D01*
X33581Y-21673D01*
X33569Y-21685D01*
X33560Y-21700D01*
X33553Y-21715D01*
X33550Y-21732D01*
X33550Y-21749D01*
X33554Y-21764D01*
X33561Y-21781D01*
X33571Y-21795D01*
X33584Y-21806D01*
X33599Y-21815D01*
X33616Y-21821D01*
X33626Y-21824D01*
X33620Y-21824D01*
X33617Y-21825D01*
X33603Y-21829D01*
X33590Y-21836D01*
X33578Y-21845D01*
X33568Y-21855D01*
X33562Y-21864D01*
X33556Y-21876D01*
X33552Y-21887D01*
X33551Y-21896D01*
X33550Y-21906D01*
X33550Y-21917D01*
X33552Y-21926D01*
X33555Y-21936D01*
X33563Y-21952D01*
X33573Y-21966D01*
X33587Y-21977D01*
X33602Y-21985D01*
X33620Y-21991D01*
X33624Y-21991D01*
X33635Y-21992D01*
X33646Y-21991D01*
X33655Y-21989D01*
X33662Y-21987D01*
X33678Y-21979D01*
X33692Y-21969D01*
X33703Y-21956D01*
X33712Y-21941D01*
X33717Y-21924D01*
X33717Y-21923D01*
X33718Y-21919D01*
X33719Y-21919D01*
X33719Y-21896D01*
X33718Y-21895D01*
X33717Y-21892D01*
X33717Y-21891D01*
X33714Y-21880D01*
X33709Y-21868D01*
X33702Y-21857D01*
X33697Y-21851D01*
X33684Y-21839D01*
X33668Y-21830D01*
X33651Y-21825D01*
X33643Y-21823D01*
X33649Y-21822D01*
X33654Y-21821D01*
X33659Y-21819D01*
X33663Y-21818D01*
X33678Y-21811D01*
X33692Y-21800D01*
X33703Y-21788D01*
X33711Y-21773D01*
X33717Y-21757D01*
X33717Y-21753D01*
X33718Y-21750D01*
X33719Y-21752D01*
X33720Y-21757D01*
X33720Y-21757D01*
X33723Y-21766D01*
X33727Y-21776D01*
X33732Y-21785D01*
X33737Y-21791D01*
X33744Y-21799D01*
X33753Y-21807D01*
X33761Y-21812D01*
X33761Y-21812D01*
X33774Y-21818D01*
X33788Y-21822D01*
X33794Y-21823D01*
X33787Y-21824D01*
X33772Y-21829D01*
X33757Y-21837D01*
X33744Y-21847D01*
X33733Y-21860D01*
X33730Y-21864D01*
X33726Y-21872D01*
X33723Y-21881D01*
X33720Y-21889D01*
X33719Y-21894D01*
X33719Y-21894D01*
X33719Y-21896D01*
X33719Y-21919D01*
X33719Y-21919D01*
X33720Y-21923D01*
X33721Y-21928D01*
X33722Y-21933D01*
X33726Y-21942D01*
X33734Y-21957D01*
X33745Y-21969D01*
X33758Y-21979D01*
X33773Y-21986D01*
X33789Y-21991D01*
X33805Y-21992D01*
X33805Y-21992D01*
G37*
G36*
X34312Y-21992D02*
X34328Y-21989D01*
X34344Y-21983D01*
X34358Y-21974D01*
X34371Y-21963D01*
X34380Y-21949D01*
X34388Y-21933D01*
X34389Y-21928D01*
X34390Y-21923D01*
X34390Y-21922D01*
X34391Y-21919D01*
X34391Y-21919D01*
X34391Y-21896D01*
X34391Y-21893D01*
X34389Y-21887D01*
X34386Y-21878D01*
X34379Y-21863D01*
X34368Y-21849D01*
X34356Y-21838D01*
X34341Y-21830D01*
X34324Y-21825D01*
X34316Y-21823D01*
X34322Y-21822D01*
X34323Y-21822D01*
X34336Y-21818D01*
X34349Y-21812D01*
X34355Y-21809D01*
X34363Y-21802D01*
X34371Y-21793D01*
X34378Y-21785D01*
X34382Y-21778D01*
X34387Y-21767D01*
X34390Y-21757D01*
X34391Y-21753D01*
X34391Y-21750D01*
X34392Y-21752D01*
X34393Y-21757D01*
X34397Y-21768D01*
X34404Y-21783D01*
X34415Y-21797D01*
X34428Y-21808D01*
X34444Y-21817D01*
X34461Y-21822D01*
X34467Y-21823D01*
X34459Y-21825D01*
X34451Y-21827D01*
X34435Y-21834D01*
X34420Y-21844D01*
X34408Y-21857D01*
X34405Y-21862D01*
X34400Y-21870D01*
X34397Y-21879D01*
X34395Y-21885D01*
X34393Y-21891D01*
X34393Y-21891D01*
X34392Y-21895D01*
X34391Y-21896D01*
X34391Y-21919D01*
X34392Y-21920D01*
X34393Y-21924D01*
X34394Y-21930D01*
X34399Y-21942D01*
X34406Y-21954D01*
X34411Y-21961D01*
X34423Y-21973D01*
X34438Y-21983D01*
X34455Y-21989D01*
X34463Y-21991D01*
X34474Y-21991D01*
X34486Y-21991D01*
X34497Y-21989D01*
X34498Y-21989D01*
X34515Y-21982D01*
X34529Y-21972D01*
X34542Y-21960D01*
X34551Y-21945D01*
X34558Y-21928D01*
X34559Y-21921D01*
X34560Y-21909D01*
X34559Y-21897D01*
X34558Y-21887D01*
X34555Y-21878D01*
X34549Y-21866D01*
X34542Y-21855D01*
X34534Y-21847D01*
X34524Y-21838D01*
X34513Y-21832D01*
X34509Y-21830D01*
X34501Y-21827D01*
X34493Y-21825D01*
X34487Y-21824D01*
X34487Y-21824D01*
X34489Y-21823D01*
X34494Y-21821D01*
X34503Y-21818D01*
X34514Y-21814D01*
X34524Y-21809D01*
X34525Y-21807D01*
X34536Y-21797D01*
X34546Y-21785D01*
X34553Y-21773D01*
X34556Y-21767D01*
X34559Y-21750D01*
X34560Y-21732D01*
X34557Y-21715D01*
X34556Y-21712D01*
X34549Y-21696D01*
X34538Y-21682D01*
X34525Y-21671D01*
X34510Y-21662D01*
X34494Y-21656D01*
X34491Y-21656D01*
X34480Y-21655D01*
X34467Y-21655D01*
X34456Y-21657D01*
X34454Y-21657D01*
X34437Y-21664D01*
X34422Y-21674D01*
X34410Y-21686D01*
X34400Y-21702D01*
X34398Y-21707D01*
X34395Y-21714D01*
X34393Y-21721D01*
X34392Y-21727D01*
X34392Y-21728D01*
X34392Y-21729D01*
X34391Y-21726D01*
X34390Y-21722D01*
X34387Y-21710D01*
X34380Y-21695D01*
X34369Y-21682D01*
X34357Y-21671D01*
X34342Y-21662D01*
X34342Y-21662D01*
X34326Y-21657D01*
X34309Y-21655D01*
X34292Y-21656D01*
X34276Y-21660D01*
X34267Y-21665D01*
X34253Y-21675D01*
X34241Y-21687D01*
X34231Y-21702D01*
X34226Y-21718D01*
X34225Y-21722D01*
X34223Y-21736D01*
X34223Y-21749D01*
X34227Y-21764D01*
X34234Y-21780D01*
X34244Y-21795D01*
X34257Y-21806D01*
X34272Y-21815D01*
X34289Y-21821D01*
X34293Y-21822D01*
X34296Y-21823D01*
X34296Y-21824D01*
X34291Y-21824D01*
X34281Y-21827D01*
X34271Y-21832D01*
X34261Y-21837D01*
X34251Y-21844D01*
X34240Y-21857D01*
X34231Y-21873D01*
X34229Y-21875D01*
X34224Y-21892D01*
X34223Y-21909D01*
X34225Y-21926D01*
X34231Y-21942D01*
X34234Y-21950D01*
X34240Y-21958D01*
X34247Y-21966D01*
X34247Y-21966D01*
X34261Y-21978D01*
X34276Y-21986D01*
X34293Y-21991D01*
X34295Y-21991D01*
X34312Y-21992D01*
X34312Y-21992D01*
G37*
G36*
X33657Y-14566D02*
X33664Y-14562D01*
X33679Y-14553D01*
X33701Y-14538D01*
X33727Y-14521D01*
X33753Y-14503D01*
X33775Y-14489D01*
X33790Y-14479D01*
X33796Y-14476D01*
X33799Y-14477D01*
X33812Y-14483D01*
X33829Y-14492D01*
X33840Y-14498D01*
X33856Y-14505D01*
X33865Y-14506D01*
X33866Y-14504D01*
X33872Y-14492D01*
X33881Y-14470D01*
X33894Y-14442D01*
X33908Y-14408D01*
X33923Y-14372D01*
X33939Y-14336D01*
X33953Y-14301D01*
X33966Y-14269D01*
X33976Y-14243D01*
X33983Y-14226D01*
X33986Y-14218D01*
X33985Y-14216D01*
X33977Y-14208D01*
X33962Y-14198D01*
X33931Y-14172D01*
X33900Y-14134D01*
X33882Y-14091D01*
X33875Y-14042D01*
X33881Y-13997D01*
X33898Y-13955D01*
X33928Y-13916D01*
X33965Y-13887D01*
X34007Y-13869D01*
X34055Y-13863D01*
X34100Y-13868D01*
X34144Y-13886D01*
X34183Y-13915D01*
X34200Y-13934D01*
X34222Y-13973D01*
X34235Y-14015D01*
X34236Y-14026D01*
X34234Y-14072D01*
X34221Y-14116D01*
X34196Y-14155D01*
X34163Y-14188D01*
X34158Y-14191D01*
X34143Y-14203D01*
X34132Y-14211D01*
X34124Y-14217D01*
X34183Y-14359D01*
X34192Y-14381D01*
X34208Y-14420D01*
X34222Y-14453D01*
X34234Y-14480D01*
X34242Y-14498D01*
X34245Y-14505D01*
X34245Y-14505D01*
X34251Y-14506D01*
X34261Y-14502D01*
X34281Y-14493D01*
X34294Y-14486D01*
X34309Y-14479D01*
X34316Y-14476D01*
X34322Y-14479D01*
X34336Y-14488D01*
X34357Y-14502D01*
X34383Y-14520D01*
X34407Y-14536D01*
X34429Y-14551D01*
X34445Y-14561D01*
X34453Y-14565D01*
X34454Y-14565D01*
X34461Y-14561D01*
X34474Y-14551D01*
X34493Y-14533D01*
X34520Y-14506D01*
X34524Y-14501D01*
X34547Y-14479D01*
X34565Y-14460D01*
X34577Y-14446D01*
X34582Y-14440D01*
X34582Y-14440D01*
X34578Y-14432D01*
X34567Y-14416D01*
X34553Y-14393D01*
X34535Y-14367D01*
X34488Y-14299D01*
X34514Y-14235D01*
X34522Y-14215D01*
X34532Y-14191D01*
X34539Y-14174D01*
X34543Y-14167D01*
X34550Y-14164D01*
X34567Y-14160D01*
X34593Y-14155D01*
X34623Y-14149D01*
X34652Y-14144D01*
X34678Y-14139D01*
X34697Y-14135D01*
X34706Y-14134D01*
X34708Y-14132D01*
X34710Y-14128D01*
X34711Y-14119D01*
X34711Y-14103D01*
X34712Y-14078D01*
X34712Y-14042D01*
X34712Y-14038D01*
X34711Y-14004D01*
X34711Y-13976D01*
X34710Y-13959D01*
X34709Y-13952D01*
X34709Y-13952D01*
X34700Y-13950D01*
X34682Y-13946D01*
X34656Y-13941D01*
X34625Y-13935D01*
X34623Y-13934D01*
X34592Y-13928D01*
X34565Y-13923D01*
X34547Y-13919D01*
X34540Y-13916D01*
X34538Y-13914D01*
X34532Y-13902D01*
X34523Y-13883D01*
X34512Y-13859D01*
X34502Y-13835D01*
X34494Y-13813D01*
X34488Y-13796D01*
X34486Y-13789D01*
X34486Y-13789D01*
X34491Y-13781D01*
X34501Y-13765D01*
X34516Y-13743D01*
X34535Y-13716D01*
X34536Y-13714D01*
X34554Y-13688D01*
X34568Y-13666D01*
X34578Y-13650D01*
X34582Y-13643D01*
X34581Y-13642D01*
X34576Y-13635D01*
X34562Y-13620D01*
X34543Y-13600D01*
X34520Y-13576D01*
X34513Y-13569D01*
X34487Y-13544D01*
X34469Y-13528D01*
X34458Y-13519D01*
X34453Y-13517D01*
X34453Y-13517D01*
X34445Y-13522D01*
X34428Y-13533D01*
X34406Y-13548D01*
X34379Y-13566D01*
X34377Y-13568D01*
X34351Y-13586D01*
X34329Y-13600D01*
X34314Y-13611D01*
X34307Y-13615D01*
X34306Y-13615D01*
X34295Y-13612D01*
X34276Y-13605D01*
X34253Y-13596D01*
X34229Y-13586D01*
X34207Y-13577D01*
X34190Y-13570D01*
X34183Y-13565D01*
X34182Y-13565D01*
X34180Y-13555D01*
X34175Y-13536D01*
X34169Y-13509D01*
X34163Y-13476D01*
X34162Y-13471D01*
X34156Y-13440D01*
X34151Y-13414D01*
X34148Y-13396D01*
X34146Y-13389D01*
X34141Y-13388D01*
X34126Y-13387D01*
X34103Y-13386D01*
X34075Y-13386D01*
X34045Y-13386D01*
X34016Y-13387D01*
X33992Y-13387D01*
X33974Y-13389D01*
X33966Y-13390D01*
X33966Y-13391D01*
X33963Y-13400D01*
X33959Y-13420D01*
X33954Y-13447D01*
X33947Y-13479D01*
X33946Y-13485D01*
X33940Y-13516D01*
X33935Y-13542D01*
X33931Y-13560D01*
X33929Y-13567D01*
X33927Y-13568D01*
X33914Y-13574D01*
X33893Y-13582D01*
X33867Y-13593D01*
X33807Y-13617D01*
X33733Y-13567D01*
X33726Y-13562D01*
X33700Y-13544D01*
X33678Y-13529D01*
X33663Y-13520D01*
X33656Y-13516D01*
X33656Y-13516D01*
X33648Y-13523D01*
X33634Y-13536D01*
X33614Y-13556D01*
X33591Y-13579D01*
X33573Y-13596D01*
X33553Y-13617D01*
X33540Y-13631D01*
X33533Y-13640D01*
X33531Y-13645D01*
X33531Y-13649D01*
X33536Y-13656D01*
X33547Y-13673D01*
X33562Y-13695D01*
X33580Y-13721D01*
X33595Y-13743D01*
X33611Y-13768D01*
X33621Y-13785D01*
X33625Y-13794D01*
X33624Y-13798D01*
X33619Y-13812D01*
X33610Y-13834D01*
X33599Y-13860D01*
X33573Y-13918D01*
X33535Y-13926D01*
X33512Y-13930D01*
X33479Y-13936D01*
X33448Y-13942D01*
X33400Y-13952D01*
X33398Y-14129D01*
X33406Y-14132D01*
X33413Y-14134D01*
X33431Y-14138D01*
X33456Y-14143D01*
X33487Y-14149D01*
X33512Y-14154D01*
X33538Y-14159D01*
X33557Y-14162D01*
X33565Y-14164D01*
X33567Y-14167D01*
X33574Y-14179D01*
X33583Y-14199D01*
X33593Y-14223D01*
X33604Y-14248D01*
X33613Y-14271D01*
X33619Y-14289D01*
X33622Y-14298D01*
X33618Y-14305D01*
X33608Y-14320D01*
X33594Y-14342D01*
X33576Y-14368D01*
X33559Y-14393D01*
X33544Y-14416D01*
X33534Y-14431D01*
X33529Y-14439D01*
X33531Y-14444D01*
X33542Y-14456D01*
X33561Y-14476D01*
X33590Y-14505D01*
X33595Y-14509D01*
X33618Y-14532D01*
X33637Y-14550D01*
X33651Y-14562D01*
X33657Y-14566D01*
X33657Y-14566D01*
G37*
G54D12*
X20169Y-16610D02*
X21169Y-16610D01*
X21169Y-16610D02*
X21169Y-19610D01*
X21169Y-19610D02*
X20169Y-19610D01*
X20169Y-19610D02*
X20169Y-16610D01*
X21169Y-17610D02*
X20169Y-17610D01*
G54D11*
X25303Y-16110D02*
X25303Y-16610D01*
X25303Y-16610D02*
X24303Y-16610D01*
X24303Y-16610D02*
X24303Y-16110D01*
X25803Y-16110D02*
X25803Y-20110D01*
X25803Y-20110D02*
X23803Y-20110D01*
X23803Y-20110D02*
X23803Y-16110D01*
X23803Y-16110D02*
X25803Y-16110D01*
G54D12*
X27256Y-16610D02*
X28256Y-16610D01*
X28256Y-16610D02*
X28256Y-19610D01*
X28256Y-19610D02*
X27256Y-19610D01*
X27256Y-19610D02*
X27256Y-16610D01*
X28256Y-17610D02*
X27256Y-17610D01*
X27394Y-15157D02*
X26994Y-15157D01*
X26994Y-15157D02*
X26994Y-15557D01*
X26994Y-15557D02*
X23794Y-15557D01*
X23794Y-15557D02*
X23794Y-14757D01*
X23794Y-14757D02*
X26994Y-14757D01*
X26994Y-14757D02*
X26994Y-15157D01*
X26994Y-15357D02*
X26794Y-15557D01*
X23394Y-15157D02*
X23794Y-15157D01*
X27394Y-14173D02*
X26994Y-14173D01*
X26994Y-14173D02*
X26994Y-14573D01*
X26994Y-14573D02*
X23794Y-14573D01*
X23794Y-14573D02*
X23794Y-13773D01*
X23794Y-13773D02*
X26994Y-13773D01*
X26994Y-13773D02*
X26994Y-14173D01*
X26994Y-14373D02*
X26794Y-14573D01*
X23394Y-14173D02*
X23794Y-14173D01*
X32315Y-15157D02*
X31915Y-15157D01*
X31915Y-15157D02*
X31915Y-15557D01*
X31915Y-15557D02*
X28715Y-15557D01*
X28715Y-15557D02*
X28715Y-14757D01*
X28715Y-14757D02*
X31915Y-14757D01*
X31915Y-14757D02*
X31915Y-15157D01*
X31915Y-15357D02*
X31715Y-15557D01*
X28315Y-15157D02*
X28715Y-15157D01*
X30740Y-20472D02*
X30340Y-20472D01*
X30340Y-20472D02*
X30340Y-20872D01*
X30340Y-20872D02*
X27140Y-20872D01*
X27140Y-20872D02*
X27140Y-20072D01*
X27140Y-20072D02*
X30340Y-20072D01*
X30340Y-20072D02*
X30340Y-20472D01*
X30340Y-20672D02*
X30140Y-20872D01*
X26740Y-20472D02*
X27140Y-20472D01*
X32315Y-14173D02*
X31915Y-14173D01*
X31915Y-14173D02*
X31915Y-14573D01*
X31915Y-14573D02*
X28715Y-14573D01*
X28715Y-14573D02*
X28715Y-13773D01*
X28715Y-13773D02*
X31915Y-13773D01*
X31915Y-13773D02*
X31915Y-14173D01*
X31915Y-14373D02*
X31715Y-14573D01*
X28315Y-14173D02*
X28715Y-14173D01*
X21547Y-19090D02*
X21547Y-17110D01*
X21547Y-17110D02*
X22547Y-17110D01*
X22547Y-17110D02*
X22547Y-19110D01*
X22547Y-19110D02*
X21547Y-19110D01*
X21797Y-19110D02*
X21547Y-18860D01*
X36417Y-16110D02*
X36417Y-16510D01*
X36417Y-16510D02*
X36817Y-16510D01*
X36817Y-16510D02*
X36817Y-19710D01*
X36817Y-19710D02*
X36017Y-19710D01*
X36017Y-19710D02*
X36017Y-16510D01*
X36017Y-16510D02*
X36417Y-16510D01*
X36617Y-16510D02*
X36817Y-16710D01*
X36417Y-20110D02*
X36417Y-19710D01*
X32299Y-21350D02*
X32299Y-22350D01*
X32299Y-22350D02*
X30299Y-22350D01*
X30299Y-22350D02*
X30299Y-21350D01*
X30299Y-21350D02*
X32299Y-21350D01*
X33263Y-16838D02*
X31283Y-16838D01*
X31283Y-16838D02*
X31283Y-15838D01*
X31283Y-15838D02*
X33283Y-15838D01*
X33283Y-15838D02*
X33283Y-16838D01*
X33283Y-16588D02*
X33033Y-16838D01*
X31303Y-19382D02*
X33283Y-19382D01*
X33283Y-19382D02*
X33283Y-20382D01*
X33283Y-20382D02*
X31283Y-20382D01*
X31283Y-20382D02*
X31283Y-19382D01*
X31283Y-19632D02*
X31533Y-19382D01*
X23823Y-21153D02*
X25803Y-21153D01*
X25803Y-21153D02*
X25803Y-22153D01*
X25803Y-22153D02*
X23803Y-22153D01*
X23803Y-22153D02*
X23803Y-21153D01*
X23803Y-21403D02*
X24053Y-21153D01*
G54D11*
X31928Y-17611D02*
X31887Y-17678D01*
X31852Y-17748D01*
X31824Y-17822D01*
X31802Y-17897D01*
X31787Y-17974D01*
X31778Y-18052D01*
X31777Y-18130D01*
X31782Y-18208D01*
X31794Y-18286D01*
X31813Y-18362D01*
X31838Y-18437D01*
X31870Y-18509D01*
X31908Y-18578D01*
X31951Y-18643D01*
X32001Y-18704D01*
X32055Y-18761D01*
X32114Y-18813D01*
X32178Y-18859D01*
X33176Y-17361D02*
X33109Y-17320D01*
X33039Y-17285D01*
X32965Y-17257D01*
X32890Y-17235D01*
X32813Y-17220D01*
X32735Y-17211D01*
X32657Y-17210D01*
X32579Y-17215D01*
X32501Y-17227D01*
X32425Y-17246D01*
X32350Y-17271D01*
X32278Y-17303D01*
X32209Y-17341D01*
X32144Y-17384D01*
X32083Y-17434D01*
X32026Y-17488D01*
X31974Y-17547D01*
X31928Y-17611D01*
X31928Y-18609D02*
X31974Y-18673D01*
X32026Y-18732D01*
X32083Y-18786D01*
X32144Y-18836D01*
X32209Y-18879D01*
X32278Y-18917D01*
X32350Y-18949D01*
X32425Y-18974D01*
X32501Y-18993D01*
X32579Y-19005D01*
X32657Y-19010D01*
X32735Y-19009D01*
X32813Y-19000D01*
X32890Y-18985D01*
X32965Y-18963D01*
X33039Y-18935D01*
X33109Y-18900D01*
X33176Y-18859D01*
X33177Y-17360D02*
X33177Y-18860D01*
G54D10*
X30122Y-16402D02*
X30122Y-16002D01*
X30293Y-16383D02*
X30350Y-16402D01*
X30446Y-16402D01*
X30484Y-16383D01*
X30503Y-16364D01*
X30522Y-16326D01*
X30522Y-16288D01*
X30503Y-16250D01*
X30484Y-16230D01*
X30446Y-16211D01*
X30369Y-16192D01*
X30331Y-16173D01*
X30312Y-16154D01*
X30293Y-16116D01*
X30293Y-16078D01*
X30312Y-16040D01*
X30331Y-16021D01*
X30369Y-16002D01*
X30465Y-16002D01*
X30522Y-16021D01*
X30693Y-16402D02*
X30693Y-16002D01*
X30846Y-16002D01*
X30884Y-16021D01*
X30903Y-16040D01*
X30922Y-16078D01*
X30922Y-16135D01*
X30903Y-16173D01*
X30884Y-16192D01*
X30846Y-16211D01*
X30693Y-16211D01*
X23631Y-20619D02*
X23822Y-20619D01*
X23593Y-20733D02*
X23726Y-20333D01*
X23860Y-20733D01*
X23936Y-20333D02*
X24165Y-20333D01*
X24050Y-20733D02*
X24050Y-20333D01*
X24241Y-20466D02*
X24393Y-20466D01*
X24298Y-20333D02*
X24298Y-20676D01*
X24317Y-20714D01*
X24355Y-20733D01*
X24393Y-20733D01*
X24527Y-20733D02*
X24527Y-20466D01*
X24527Y-20333D02*
X24508Y-20352D01*
X24527Y-20371D01*
X24546Y-20352D01*
X24527Y-20333D01*
X24527Y-20371D01*
X24717Y-20466D02*
X24717Y-20733D01*
X24717Y-20504D02*
X24736Y-20485D01*
X24774Y-20466D01*
X24832Y-20466D01*
X24870Y-20485D01*
X24889Y-20523D01*
X24889Y-20733D01*
X25041Y-20466D02*
X25136Y-20733D01*
X25232Y-20466D02*
X25136Y-20733D01*
X25098Y-20828D01*
X25079Y-20847D01*
X25041Y-20866D01*
X25441Y-20504D02*
X25403Y-20485D01*
X25384Y-20466D01*
X25365Y-20428D01*
X25365Y-20409D01*
X25384Y-20371D01*
X25403Y-20352D01*
X25441Y-20333D01*
X25518Y-20333D01*
X25556Y-20352D01*
X25575Y-20371D01*
X25594Y-20409D01*
X25594Y-20428D01*
X25575Y-20466D01*
X25556Y-20485D01*
X25518Y-20504D01*
X25441Y-20504D01*
X25403Y-20523D01*
X25384Y-20542D01*
X25365Y-20581D01*
X25365Y-20657D01*
X25384Y-20695D01*
X25403Y-20714D01*
X25441Y-20733D01*
X25518Y-20733D01*
X25556Y-20714D01*
X25575Y-20695D01*
X25594Y-20657D01*
X25594Y-20581D01*
X25575Y-20542D01*
X25556Y-20523D01*
X25518Y-20504D01*
X25956Y-20333D02*
X25765Y-20333D01*
X25746Y-20523D01*
X25765Y-20504D01*
X25803Y-20485D01*
X25899Y-20485D01*
X25937Y-20504D01*
X25956Y-20523D01*
X25975Y-20561D01*
X25975Y-20657D01*
X25956Y-20695D01*
X25937Y-20714D01*
X25899Y-20733D01*
X25803Y-20733D01*
X25765Y-20714D01*
X25746Y-20695D01*
X27718Y-16440D02*
X27680Y-16421D01*
X27642Y-16383D01*
X27585Y-16326D01*
X27546Y-16307D01*
X27508Y-16307D01*
X27527Y-16402D02*
X27489Y-16383D01*
X27451Y-16345D01*
X27432Y-16269D01*
X27432Y-16135D01*
X27451Y-16059D01*
X27489Y-16021D01*
X27527Y-16002D01*
X27604Y-16002D01*
X27642Y-16021D01*
X27680Y-16059D01*
X27699Y-16135D01*
X27699Y-16269D01*
X27680Y-16345D01*
X27642Y-16383D01*
X27604Y-16402D01*
X27527Y-16402D01*
X28080Y-16402D02*
X27851Y-16402D01*
X27965Y-16402D02*
X27965Y-16002D01*
X27927Y-16059D01*
X27889Y-16097D01*
X27851Y-16116D01*
X26312Y-15319D02*
X26178Y-15128D01*
X26083Y-15319D02*
X26083Y-14919D01*
X26236Y-14919D01*
X26274Y-14938D01*
X26293Y-14957D01*
X26312Y-14995D01*
X26312Y-15052D01*
X26293Y-15090D01*
X26274Y-15109D01*
X26236Y-15128D01*
X26083Y-15128D01*
X26464Y-14957D02*
X26483Y-14938D01*
X26521Y-14919D01*
X26617Y-14919D01*
X26655Y-14938D01*
X26674Y-14957D01*
X26693Y-14995D01*
X26693Y-15033D01*
X26674Y-15090D01*
X26445Y-15319D01*
X26693Y-15319D01*
X24319Y-14919D02*
X24128Y-14919D01*
X24109Y-15109D01*
X24128Y-15090D01*
X24166Y-15071D01*
X24262Y-15071D01*
X24300Y-15090D01*
X24319Y-15109D01*
X24338Y-15147D01*
X24338Y-15243D01*
X24319Y-15281D01*
X24300Y-15300D01*
X24262Y-15319D01*
X24166Y-15319D01*
X24128Y-15300D01*
X24109Y-15281D01*
X24719Y-15319D02*
X24490Y-15319D01*
X24604Y-15319D02*
X24604Y-14919D01*
X24566Y-14976D01*
X24528Y-15014D01*
X24490Y-15033D01*
X24966Y-14919D02*
X25005Y-14919D01*
X25043Y-14938D01*
X25062Y-14957D01*
X25081Y-14995D01*
X25100Y-15071D01*
X25100Y-15167D01*
X25081Y-15243D01*
X25062Y-15281D01*
X25043Y-15300D01*
X25005Y-15319D01*
X24966Y-15319D01*
X24928Y-15300D01*
X24909Y-15281D01*
X24890Y-15243D01*
X24871Y-15167D01*
X24871Y-15071D01*
X24890Y-14995D01*
X24909Y-14957D01*
X24928Y-14938D01*
X24966Y-14919D01*
X25500Y-15319D02*
X25366Y-15128D01*
X25271Y-15319D02*
X25271Y-14919D01*
X25424Y-14919D01*
X25462Y-14938D01*
X25481Y-14957D01*
X25500Y-14995D01*
X25500Y-15052D01*
X25481Y-15090D01*
X25462Y-15109D01*
X25424Y-15128D01*
X25271Y-15128D01*
X24344Y-14335D02*
X24210Y-14144D01*
X24115Y-14335D02*
X24115Y-13935D01*
X24268Y-13935D01*
X24306Y-13954D01*
X24325Y-13973D01*
X24344Y-14011D01*
X24344Y-14068D01*
X24325Y-14106D01*
X24306Y-14125D01*
X24268Y-14144D01*
X24115Y-14144D01*
X24687Y-14068D02*
X24687Y-14335D01*
X24591Y-13916D02*
X24496Y-14202D01*
X24744Y-14202D01*
X25499Y-13935D02*
X25308Y-13935D01*
X25289Y-14125D01*
X25308Y-14106D01*
X25346Y-14087D01*
X25442Y-14087D01*
X25480Y-14106D01*
X25499Y-14125D01*
X25518Y-14163D01*
X25518Y-14259D01*
X25499Y-14297D01*
X25480Y-14316D01*
X25442Y-14335D01*
X25346Y-14335D01*
X25308Y-14316D01*
X25289Y-14297D01*
X25899Y-14335D02*
X25670Y-14335D01*
X25784Y-14335D02*
X25784Y-13935D01*
X25746Y-13992D01*
X25708Y-14030D01*
X25670Y-14049D01*
X26146Y-13935D02*
X26185Y-13935D01*
X26223Y-13954D01*
X26242Y-13973D01*
X26261Y-14011D01*
X26280Y-14087D01*
X26280Y-14183D01*
X26261Y-14259D01*
X26242Y-14297D01*
X26223Y-14316D01*
X26185Y-14335D01*
X26146Y-14335D01*
X26108Y-14316D01*
X26089Y-14297D01*
X26070Y-14259D01*
X26051Y-14183D01*
X26051Y-14087D01*
X26070Y-14011D01*
X26089Y-13973D01*
X26108Y-13954D01*
X26146Y-13935D01*
X26680Y-14335D02*
X26546Y-14144D01*
X26451Y-14335D02*
X26451Y-13935D01*
X26604Y-13935D01*
X26642Y-13954D01*
X26661Y-13973D01*
X26680Y-14011D01*
X26680Y-14068D01*
X26661Y-14106D01*
X26642Y-14125D01*
X26604Y-14144D01*
X26451Y-14144D01*
X29265Y-15319D02*
X29131Y-15128D01*
X29036Y-15319D02*
X29036Y-14919D01*
X29189Y-14919D01*
X29227Y-14938D01*
X29246Y-14957D01*
X29265Y-14995D01*
X29265Y-15052D01*
X29246Y-15090D01*
X29227Y-15109D01*
X29189Y-15128D01*
X29036Y-15128D01*
X29627Y-14919D02*
X29436Y-14919D01*
X29417Y-15109D01*
X29436Y-15090D01*
X29474Y-15071D01*
X29570Y-15071D01*
X29608Y-15090D01*
X29627Y-15109D01*
X29646Y-15147D01*
X29646Y-15243D01*
X29627Y-15281D01*
X29608Y-15300D01*
X29570Y-15319D01*
X29474Y-15319D01*
X29436Y-15300D01*
X29417Y-15281D01*
X30421Y-14919D02*
X30230Y-14919D01*
X30211Y-15109D01*
X30230Y-15090D01*
X30268Y-15071D01*
X30364Y-15071D01*
X30402Y-15090D01*
X30421Y-15109D01*
X30440Y-15147D01*
X30440Y-15243D01*
X30421Y-15281D01*
X30402Y-15300D01*
X30364Y-15319D01*
X30268Y-15319D01*
X30230Y-15300D01*
X30211Y-15281D01*
X30821Y-15319D02*
X30592Y-15319D01*
X30706Y-15319D02*
X30706Y-14919D01*
X30668Y-14976D01*
X30630Y-15014D01*
X30592Y-15033D01*
X31068Y-14919D02*
X31107Y-14919D01*
X31145Y-14938D01*
X31164Y-14957D01*
X31183Y-14995D01*
X31202Y-15071D01*
X31202Y-15167D01*
X31183Y-15243D01*
X31164Y-15281D01*
X31145Y-15300D01*
X31107Y-15319D01*
X31068Y-15319D01*
X31030Y-15300D01*
X31011Y-15281D01*
X30992Y-15243D01*
X30973Y-15167D01*
X30973Y-15071D01*
X30992Y-14995D01*
X31011Y-14957D01*
X31030Y-14938D01*
X31068Y-14919D01*
X31602Y-15319D02*
X31468Y-15128D01*
X31373Y-15319D02*
X31373Y-14919D01*
X31526Y-14919D01*
X31564Y-14938D01*
X31583Y-14957D01*
X31602Y-14995D01*
X31602Y-15052D01*
X31583Y-15090D01*
X31564Y-15109D01*
X31526Y-15128D01*
X31373Y-15128D01*
X29658Y-20634D02*
X29524Y-20443D01*
X29429Y-20634D02*
X29429Y-20234D01*
X29582Y-20234D01*
X29620Y-20253D01*
X29639Y-20272D01*
X29658Y-20310D01*
X29658Y-20367D01*
X29639Y-20405D01*
X29620Y-20424D01*
X29582Y-20443D01*
X29429Y-20443D01*
X30039Y-20634D02*
X29810Y-20634D01*
X29924Y-20634D02*
X29924Y-20234D01*
X29886Y-20291D01*
X29848Y-20329D01*
X29810Y-20348D01*
X27715Y-20634D02*
X27486Y-20634D01*
X27600Y-20634D02*
X27600Y-20234D01*
X27562Y-20291D01*
X27524Y-20329D01*
X27486Y-20348D01*
X27962Y-20234D02*
X28001Y-20234D01*
X28039Y-20253D01*
X28058Y-20272D01*
X28077Y-20310D01*
X28096Y-20386D01*
X28096Y-20482D01*
X28077Y-20558D01*
X28058Y-20596D01*
X28039Y-20615D01*
X28001Y-20634D01*
X27962Y-20634D01*
X27924Y-20615D01*
X27905Y-20596D01*
X27886Y-20558D01*
X27867Y-20482D01*
X27867Y-20386D01*
X27886Y-20310D01*
X27905Y-20272D01*
X27924Y-20253D01*
X27962Y-20234D01*
X28267Y-20634D02*
X28267Y-20234D01*
X28305Y-20482D02*
X28420Y-20634D01*
X28420Y-20367D02*
X28267Y-20520D01*
X29265Y-14335D02*
X29131Y-14144D01*
X29036Y-14335D02*
X29036Y-13935D01*
X29189Y-13935D01*
X29227Y-13954D01*
X29246Y-13973D01*
X29265Y-14011D01*
X29265Y-14068D01*
X29246Y-14106D01*
X29227Y-14125D01*
X29189Y-14144D01*
X29036Y-14144D01*
X29398Y-13935D02*
X29646Y-13935D01*
X29512Y-14087D01*
X29570Y-14087D01*
X29608Y-14106D01*
X29627Y-14125D01*
X29646Y-14163D01*
X29646Y-14259D01*
X29627Y-14297D01*
X29608Y-14316D01*
X29570Y-14335D01*
X29455Y-14335D01*
X29417Y-14316D01*
X29398Y-14297D01*
X30421Y-13935D02*
X30230Y-13935D01*
X30211Y-14125D01*
X30230Y-14106D01*
X30268Y-14087D01*
X30364Y-14087D01*
X30402Y-14106D01*
X30421Y-14125D01*
X30440Y-14163D01*
X30440Y-14259D01*
X30421Y-14297D01*
X30402Y-14316D01*
X30364Y-14335D01*
X30268Y-14335D01*
X30230Y-14316D01*
X30211Y-14297D01*
X30821Y-14335D02*
X30592Y-14335D01*
X30706Y-14335D02*
X30706Y-13935D01*
X30668Y-13992D01*
X30630Y-14030D01*
X30592Y-14049D01*
X31068Y-13935D02*
X31107Y-13935D01*
X31145Y-13954D01*
X31164Y-13973D01*
X31183Y-14011D01*
X31202Y-14087D01*
X31202Y-14183D01*
X31183Y-14259D01*
X31164Y-14297D01*
X31145Y-14316D01*
X31107Y-14335D01*
X31068Y-14335D01*
X31030Y-14316D01*
X31011Y-14297D01*
X30992Y-14259D01*
X30973Y-14183D01*
X30973Y-14087D01*
X30992Y-14011D01*
X31011Y-13973D01*
X31030Y-13954D01*
X31068Y-13935D01*
X31602Y-14335D02*
X31468Y-14144D01*
X31373Y-14335D02*
X31373Y-13935D01*
X31526Y-13935D01*
X31564Y-13954D01*
X31583Y-13973D01*
X31602Y-14011D01*
X31602Y-14068D01*
X31583Y-14106D01*
X31564Y-14125D01*
X31526Y-14144D01*
X31373Y-14144D01*
X21981Y-16856D02*
X21962Y-16875D01*
X21905Y-16894D01*
X21867Y-16894D01*
X21809Y-16875D01*
X21771Y-16837D01*
X21752Y-16799D01*
X21733Y-16722D01*
X21733Y-16665D01*
X21752Y-16589D01*
X21771Y-16551D01*
X21809Y-16513D01*
X21867Y-16494D01*
X21905Y-16494D01*
X21962Y-16513D01*
X21981Y-16532D01*
X22362Y-16894D02*
X22133Y-16894D01*
X22247Y-16894D02*
X22247Y-16494D01*
X22209Y-16551D01*
X22171Y-16589D01*
X22133Y-16608D01*
X36579Y-17191D02*
X36388Y-17325D01*
X36579Y-17420D02*
X36179Y-17420D01*
X36179Y-17267D01*
X36198Y-17229D01*
X36217Y-17210D01*
X36255Y-17191D01*
X36312Y-17191D01*
X36350Y-17210D01*
X36369Y-17229D01*
X36388Y-17267D01*
X36388Y-17420D01*
X36179Y-16848D02*
X36179Y-16925D01*
X36198Y-16963D01*
X36217Y-16982D01*
X36274Y-17020D01*
X36350Y-17039D01*
X36503Y-17039D01*
X36541Y-17020D01*
X36560Y-17001D01*
X36579Y-16963D01*
X36579Y-16886D01*
X36560Y-16848D01*
X36541Y-16829D01*
X36503Y-16810D01*
X36407Y-16810D01*
X36369Y-16829D01*
X36350Y-16848D01*
X36331Y-16886D01*
X36331Y-16963D01*
X36350Y-17001D01*
X36369Y-17020D01*
X36407Y-17039D01*
X36579Y-19141D02*
X36579Y-19370D01*
X36579Y-19256D02*
X36179Y-19256D01*
X36236Y-19294D01*
X36274Y-19332D01*
X36293Y-19370D01*
X36579Y-18970D02*
X36179Y-18970D01*
X36427Y-18932D02*
X36579Y-18817D01*
X36312Y-18817D02*
X36465Y-18970D01*
X29122Y-21612D02*
X29255Y-22012D01*
X29389Y-21612D01*
X29522Y-22012D02*
X29522Y-21745D01*
X29522Y-21612D02*
X29503Y-21631D01*
X29522Y-21650D01*
X29541Y-21631D01*
X29522Y-21612D01*
X29522Y-21650D01*
X29712Y-21745D02*
X29712Y-22012D01*
X29712Y-21783D02*
X29731Y-21764D01*
X29769Y-21745D01*
X29827Y-21745D01*
X29865Y-21764D01*
X29884Y-21802D01*
X29884Y-22012D01*
X30074Y-21974D02*
X30093Y-21993D01*
X30074Y-22012D01*
X30055Y-21993D01*
X30074Y-21974D01*
X30074Y-22012D01*
X30074Y-21860D02*
X30055Y-21631D01*
X30074Y-21612D01*
X30093Y-21631D01*
X30074Y-21860D01*
X30074Y-21612D01*
X33195Y-15420D02*
X33214Y-15439D01*
X33233Y-15496D01*
X33233Y-15534D01*
X33214Y-15592D01*
X33176Y-15630D01*
X33138Y-15649D01*
X33061Y-15668D01*
X33004Y-15668D01*
X32928Y-15649D01*
X32890Y-15630D01*
X32852Y-15592D01*
X32833Y-15534D01*
X32833Y-15496D01*
X32852Y-15439D01*
X32871Y-15420D01*
X32871Y-15268D02*
X32852Y-15249D01*
X32833Y-15211D01*
X32833Y-15115D01*
X32852Y-15077D01*
X32871Y-15058D01*
X32909Y-15039D01*
X32947Y-15039D01*
X33004Y-15058D01*
X33233Y-15287D01*
X33233Y-15039D01*
X33195Y-20932D02*
X33214Y-20951D01*
X33233Y-21008D01*
X33233Y-21046D01*
X33214Y-21104D01*
X33176Y-21142D01*
X33138Y-21161D01*
X33061Y-21180D01*
X33004Y-21180D01*
X32928Y-21161D01*
X32890Y-21142D01*
X32852Y-21104D01*
X32833Y-21046D01*
X32833Y-21008D01*
X32852Y-20951D01*
X32871Y-20932D01*
X32833Y-20799D02*
X32833Y-20551D01*
X32985Y-20685D01*
X32985Y-20627D01*
X33004Y-20589D01*
X33023Y-20570D01*
X33061Y-20551D01*
X33157Y-20551D01*
X33195Y-20570D01*
X33214Y-20589D01*
X33233Y-20627D01*
X33233Y-20742D01*
X33214Y-20780D01*
X33195Y-20799D01*
X26214Y-21777D02*
X26195Y-21796D01*
X26138Y-21815D01*
X26100Y-21815D01*
X26042Y-21796D01*
X26004Y-21758D01*
X25985Y-21720D01*
X25966Y-21643D01*
X25966Y-21586D01*
X25985Y-21510D01*
X26004Y-21472D01*
X26042Y-21434D01*
X26100Y-21415D01*
X26138Y-21415D01*
X26195Y-21434D01*
X26214Y-21453D01*
X26557Y-21548D02*
X26557Y-21815D01*
X26461Y-21396D02*
X26366Y-21682D01*
X26614Y-21682D01*
X31560Y-18910D02*
X31560Y-19101D01*
X31160Y-19101D01*
X31160Y-18815D02*
X31160Y-18548D01*
X31560Y-18720D01*
X31331Y-18339D02*
X31312Y-18377D01*
X31293Y-18396D01*
X31255Y-18415D01*
X31236Y-18415D01*
X31198Y-18396D01*
X31179Y-18377D01*
X31160Y-18339D01*
X31160Y-18262D01*
X31179Y-18224D01*
X31198Y-18205D01*
X31236Y-18186D01*
X31255Y-18186D01*
X31293Y-18205D01*
X31312Y-18224D01*
X31331Y-18262D01*
X31331Y-18339D01*
X31350Y-18377D01*
X31369Y-18396D01*
X31408Y-18415D01*
X31484Y-18415D01*
X31522Y-18396D01*
X31541Y-18377D01*
X31560Y-18339D01*
X31560Y-18262D01*
X31541Y-18224D01*
X31522Y-18205D01*
X31484Y-18186D01*
X31408Y-18186D01*
X31369Y-18205D01*
X31350Y-18224D01*
X31331Y-18262D01*
X31560Y-17824D02*
X31560Y-18015D01*
X31160Y-18015D01*
X31160Y-17615D02*
X31160Y-17576D01*
X31179Y-17538D01*
X31198Y-17519D01*
X31236Y-17500D01*
X31312Y-17481D01*
X31408Y-17481D01*
X31484Y-17500D01*
X31522Y-17519D01*
X31541Y-17538D01*
X31560Y-17576D01*
X31560Y-17615D01*
X31541Y-17653D01*
X31522Y-17672D01*
X31484Y-17691D01*
X31408Y-17710D01*
X31312Y-17710D01*
X31236Y-17691D01*
X31198Y-17672D01*
X31179Y-17653D01*
X31160Y-17615D01*
X31160Y-17119D02*
X31160Y-17310D01*
X31350Y-17329D01*
X31331Y-17310D01*
X31312Y-17272D01*
X31312Y-17176D01*
X31331Y-17138D01*
X31350Y-17119D01*
X31388Y-17100D01*
X31484Y-17100D01*
X31522Y-17119D01*
X31541Y-17138D01*
X31560Y-17176D01*
X31560Y-17272D01*
X31541Y-17310D01*
X31522Y-17329D01*
%LPC*%
G54D16*
X34055Y-15610D03*
G54D17*
X34055Y-16610D03*
X34055Y-17610D03*
X34055Y-18610D03*
X34055Y-19610D03*
X34055Y-20610D03*
G54D18*
X21260Y-14370D03*
G54D19*
X37795Y-17610D03*
X37795Y-18610D03*
G54D20*
X29421Y-17110D03*
G54D21*
X30421Y-17110D03*
X29421Y-18110D03*
X30421Y-18110D03*
X29421Y-19110D03*
X30421Y-19110D03*
G54D18*
X37401Y-21850D03*
X37401Y-14370D03*
X21259Y-21850D03*
G54D16*
X20669Y-17110D03*
G54D17*
X20669Y-18110D03*
X20669Y-19110D03*
G54D22*
X23303Y-16610D03*
G54D23*
X23303Y-17610D03*
X23303Y-18610D03*
X23303Y-19610D03*
X26303Y-19610D03*
X26303Y-18610D03*
X26303Y-17610D03*
X26303Y-16610D03*
G54D16*
X27756Y-17110D03*
G54D17*
X27756Y-18110D03*
X27756Y-19110D03*
G54D21*
X27394Y-15157D03*
X23394Y-15157D03*
X27394Y-14173D03*
X23394Y-14173D03*
X32315Y-15157D03*
X28315Y-15157D03*
X30740Y-20472D03*
X26740Y-20472D03*
X32315Y-14173D03*
X28315Y-14173D03*
G54D17*
X22047Y-18610D03*
X22047Y-17610D03*
G54D21*
X36417Y-16110D03*
X36417Y-20110D03*
G54D16*
X31799Y-21850D03*
G54D17*
X30799Y-21850D03*
X32783Y-16338D03*
X31783Y-16338D03*
X31783Y-19882D03*
X32783Y-19882D03*
X24303Y-21653D03*
X25303Y-21653D03*
G54D24*
X32677Y-17610D03*
X32677Y-18610D03*
X32177Y-18110D03*
M02*
