G04 (created by PCBNEW-RS274X (2012-jan-04)-stable) date Sun 25 Mar 2012 04:02:59 PM CEST*
G01*
G70*
G90*
%MOIN*%
G04 Gerber Fmt 3.4, Leading zero omitted, Abs format*
%FSLAX34Y34*%
G04 APERTURE LIST*
%ADD10C,0.008000*%
%ADD11C,0.172000*%
%ADD12R,0.067000X0.067000*%
%ADD13C,0.067000*%
%ADD14R,0.072000X0.072000*%
%ADD15C,0.072000*%
%ADD16R,0.074000X0.102000*%
%ADD17O,0.074000X0.102000*%
G04 APERTURE END LIST*
G54D10*
G54D11*
X21259Y-14370D03*
G54D12*
X35433Y-20110D03*
G54D13*
X35433Y-19110D03*
X35433Y-18110D03*
X35433Y-17110D03*
X35433Y-16110D03*
G54D14*
X31783Y-17110D03*
G54D15*
X32783Y-17110D03*
X31783Y-18110D03*
X32783Y-18110D03*
X31783Y-19110D03*
X32783Y-19110D03*
G54D11*
X37401Y-21850D03*
X37401Y-14370D03*
X21259Y-21850D03*
G54D12*
X21260Y-17110D03*
G54D13*
X21260Y-18110D03*
X21260Y-19110D03*
G54D16*
X24484Y-19610D03*
G54D17*
X25484Y-19610D03*
X26484Y-19610D03*
X27484Y-19610D03*
X27484Y-16610D03*
X26484Y-16610D03*
X25484Y-16610D03*
X24484Y-16610D03*
G54D12*
X29724Y-19110D03*
G54D13*
X29724Y-18110D03*
X29724Y-17110D03*
G54D15*
X34055Y-20110D03*
X34055Y-16110D03*
X27590Y-14370D03*
X23590Y-14370D03*
X33102Y-21850D03*
X29102Y-21850D03*
X23591Y-21850D03*
X27591Y-21850D03*
X33102Y-14370D03*
X29102Y-14370D03*
G54D13*
X22835Y-17610D03*
X22835Y-18610D03*
M02*
