M48
INCH,TZ
T1C0.024
T2C0.032
T3C0.040
T4C0.120
%
G90
G05
T1
X032177Y-018110
X032677Y-017610
X032677Y-018610
T2
X020669Y-017110
X020669Y-018110
X020669Y-019110
X022047Y-017610
X022047Y-018610
X023303Y-016610
X023303Y-017610
X023303Y-018610
X023303Y-019610
X023394Y-014173
X023394Y-015157
X024303Y-021653
X025303Y-021653
X026303Y-016610
X026303Y-017610
X026303Y-018610
X026303Y-019610
X026740Y-020472
X027394Y-014173
X027394Y-015157
X027756Y-017110
X027756Y-018110
X027756Y-019110
X028315Y-014173
X028315Y-015157
X030740Y-020472
X030799Y-021850
X031783Y-016338
X031783Y-019882
X031799Y-021850
X032315Y-014173
X032315Y-015157
X032783Y-016338
X032783Y-019882
X034055Y-015610
X034055Y-016610
X034055Y-017610
X034055Y-018610
X034055Y-019610
X034055Y-020610
X036417Y-016110
X036417Y-020110
X037795Y-017610
X037795Y-018610
T3
X029421Y-017110
X029421Y-018110
X029421Y-019110
X030421Y-017110
X030421Y-018110
X030421Y-019110
T4
X021259Y-021850
X021260Y-014370
X037401Y-014370
X037401Y-021850
T0
M30
